<svg width="120" height="120" viewBox="0 0 120 120" fill="none" xmlns="http://www.w3.org/2000/svg">
<path d="M95.4853 61.7742C86.6817 61.7742 79.5175 68.9384 79.5175 77.7419V84.8387H84.8401V81.4145C84.8401 80.2276 85.4327 79.1205 86.4209 78.4623L88.9314 76.7892H88.9438C89.4033 77.3658 90.1024 77.7419 90.8972 77.7419H100.073C100.868 77.7419 101.569 77.3658 102.029 76.7892H102.039L104.551 78.464C105.538 79.1205 106.13 80.2294 106.13 81.4145V84.8387H111.453V77.7419C111.453 68.9384 104.289 61.7742 95.4853 61.7742ZM24.5175 5C15.714 5 8.5498 12.1642 8.5498 20.9677V28.0645H13.8724V24.5161C13.8724 23.575 14.2462 22.6725 14.9117 22.007C15.5771 21.3416 16.4797 20.9677 17.4208 20.9677H22.5287C23.5684 20.9677 24.5087 20.5473 25.19 19.866C25.5657 20.244 26.0179 20.5373 26.5162 20.7263C27.0145 20.9153 27.5475 20.9956 28.0794 20.9618C28.6113 20.928 29.1298 20.781 29.6003 20.5305C30.0707 20.28 30.4821 19.9318 30.8071 19.5094L30.8195 19.52L32.7374 20.1587C33.4439 20.3944 34.0583 20.8465 34.4936 21.4509C34.9289 22.0553 35.163 22.7813 35.1627 23.5261V28.0645H40.4853V20.9677C40.4853 12.1642 33.3211 5 24.5175 5Z" fill="#0099A3"/>
<path d="M19.1951 29.8403C20.175 29.8403 20.9693 29.046 20.9693 28.0661C20.9693 27.0863 20.175 26.2919 19.1951 26.2919C18.2152 26.2919 17.4209 27.0863 17.4209 28.0661C17.4209 29.046 18.2152 29.8403 19.1951 29.8403Z" fill="#222733"/>
<path d="M29.8386 29.8403C30.8185 29.8403 31.6128 29.046 31.6128 28.0661C31.6128 27.0863 30.8185 26.2919 29.8386 26.2919C28.8588 26.2919 28.0645 27.0863 28.0645 28.0661C28.0645 29.046 28.8588 29.8403 29.8386 29.8403Z" fill="#222733"/>
<path d="M8.5498 70.6445C8.5498 73.5791 10.9379 75.9671 13.8724 75.9671C16.8069 75.9671 19.195 73.5791 19.195 70.6445C19.195 67.71 16.8069 65.322 13.8724 65.322C10.9379 65.322 8.5498 67.71 8.5498 70.6445ZM15.6466 70.6445C15.6466 71.6221 14.85 72.4187 13.8724 72.4187C12.8948 72.4187 12.0982 71.6221 12.0982 70.6445C12.0982 69.667 12.8948 68.8704 13.8724 68.8704C14.85 68.8704 15.6466 69.667 15.6466 70.6445ZM19.195 84.8381C19.195 81.9036 16.8069 79.5155 13.8724 79.5155C10.9379 79.5155 8.5498 81.9036 8.5498 84.8381C8.5498 87.7726 10.9379 90.1607 13.8724 90.1607C16.8069 90.1607 19.195 87.7726 19.195 84.8381ZM12.0982 84.8381C12.0982 83.8605 12.8948 83.0639 13.8724 83.0639C14.85 83.0639 15.6466 83.8605 15.6466 84.8381C15.6466 85.8157 14.85 86.6123 13.8724 86.6123C12.8948 86.6123 12.0982 85.8157 12.0982 84.8381ZM69.3922 100.286L73.4604 104.354H17.4208C16.4432 104.354 15.6466 103.558 15.6466 102.58V93.7091H12.0982V102.58C12.0982 105.515 14.4863 107.903 17.4208 107.903H73.4604L69.3922 111.971L71.9009 114.48L80.2521 106.128L71.9009 97.7773L69.3922 100.286ZM106.13 44.0316C103.196 44.0316 100.808 46.4197 100.808 49.3542C100.808 52.2887 103.196 54.6768 106.13 54.6768C109.065 54.6768 111.453 52.2887 111.453 49.3542C111.453 46.4197 109.065 44.0316 106.13 44.0316ZM106.13 51.1284C105.153 51.1284 104.356 50.3318 104.356 49.3542C104.356 48.3766 105.153 47.58 106.13 47.58C107.108 47.58 107.905 48.3766 107.905 49.3542C107.905 50.3318 107.108 51.1284 106.13 51.1284ZM100.808 35.1607C100.808 38.0952 103.196 40.4833 106.13 40.4833C109.065 40.4833 111.453 38.0952 111.453 35.1607C111.453 32.2262 109.065 29.8381 106.13 29.8381C103.196 29.8381 100.808 32.2262 100.808 35.1607ZM107.905 35.1607C107.905 36.1383 107.108 36.9349 106.13 36.9349C105.153 36.9349 104.356 36.1383 104.356 35.1607C104.356 34.1831 105.153 33.3865 106.13 33.3865C107.108 33.3865 107.905 34.1831 107.905 35.1607ZM54.159 19.7128L50.0908 15.6445H102.582C103.56 15.6445 104.356 16.4412 104.356 17.4187V26.2897H107.905V17.4187C107.905 14.4842 105.517 12.0962 102.582 12.0962H50.0908L54.159 8.02794L51.6503 5.51923L43.2992 13.8704L51.6503 22.2215L54.159 19.7128ZM20.2346 35.1607C21.379 36.305 22.8995 36.9349 24.5175 36.9349C26.1356 36.9349 27.6579 36.305 28.8004 35.1607L29.3203 34.6408L26.8116 32.1321L26.2917 32.652C25.3585 33.5852 23.6766 33.5852 22.7434 32.652L22.2235 32.1321L19.7148 34.6408L20.2346 35.1607Z" fill="#222733"/>
<path d="M13.3121 36.9369C14.4178 39.2547 16.2106 41.1757 18.4466 42.4386L17.776 44.4488C16.0636 45.1791 14.5546 46.3153 13.3794 47.7591C12.2042 49.2029 11.398 50.911 11.0305 52.736L9.93226 58.2272H39.1L38.0018 52.736C37.6348 50.9108 36.8288 49.2024 35.6535 47.7585C34.4783 46.3146 32.969 45.1786 31.2563 44.4488L30.5856 42.4386C32.8221 41.1762 34.615 39.255 35.7202 36.9369H38.7097C41.6442 36.9369 44.0323 34.5488 44.0323 31.6143C44.0323 28.6798 41.6442 26.2917 38.7097 26.2917H36.9355V23.5257C36.9365 22.4082 36.5852 21.3188 35.9316 20.4124C35.2781 19.5059 34.3554 18.8285 33.2948 18.4764L33.2327 18.4551C33.3268 18.0523 33.3871 17.6372 33.3871 17.206C33.3871 15.7264 32.8105 14.3354 31.7655 13.2904L31.0931 12.618L28.5844 15.1267L29.2568 15.7991C29.5343 16.0776 29.7231 16.432 29.7995 16.8177C29.8758 17.2034 29.8363 17.603 29.6858 17.9662C29.5353 18.3294 29.2806 18.64 28.9539 18.8586C28.6272 19.0773 28.243 19.1943 27.8498 19.1949C27.7948 19.1949 27.7452 19.1683 27.6902 19.163C27.9226 18.5527 28.0645 17.898 28.0645 17.206C28.0645 15.7264 27.4879 14.3354 26.4429 13.2904L25.7705 12.618L23.2618 15.1267L23.9342 15.7991C24.2117 16.0776 24.4006 16.432 24.4769 16.8177C24.5533 17.2034 24.5137 17.603 24.3632 17.9662C24.2127 18.3294 23.9581 18.64 23.6313 18.8586C23.3046 19.0773 22.9204 19.1943 22.5273 19.1949H17.4194C14.4848 19.1949 12.0968 21.583 12.0968 24.5175V26.2917H10.3226C7.38806 26.2917 5 28.6798 5 31.6143C5 34.5488 7.38806 36.9369 10.3226 36.9369H13.3121ZM34.5226 53.4315L34.771 54.6788H14.2613L14.5115 53.4315C14.7599 52.2061 15.2955 51.057 16.0743 50.0787C16.853 49.1004 17.8527 48.3207 18.9913 47.8038L24.5161 51.4888L30.0427 47.8056C31.1813 48.3221 32.181 49.1014 32.9598 50.0794C33.7385 51.0574 34.2741 52.2063 34.5226 53.4315ZM27.7274 45.084L24.5161 47.2236L21.3048 45.0822L21.7608 43.7143C22.6479 43.9165 23.5687 44.0336 24.5161 44.0336C25.4635 44.0336 26.3826 43.9165 27.2715 43.7143L27.7274 45.084ZM38.7097 29.8401C39.6873 29.8401 40.4839 30.6367 40.4839 31.6143C40.4839 32.5919 39.6873 33.3885 38.7097 33.3885H36.7935C36.8769 32.8065 36.9355 32.2175 36.9355 31.6143V29.8401H38.7097ZM15.6452 24.5175C15.6452 23.5399 16.4418 22.7433 17.4194 22.7433H22.5273C23.496 22.7433 24.3919 22.4719 25.185 22.0336C25.994 22.4825 26.8989 22.7433 27.8498 22.7433C29.1415 22.7433 30.3142 22.2802 31.2581 21.5369L32.1735 21.842C32.527 21.9597 32.8344 22.1857 33.0522 22.4879C33.27 22.7901 33.3872 23.1532 33.3871 23.5257V31.6143C33.3871 36.5057 29.4076 40.4852 24.5161 40.4852C19.6247 40.4852 15.6452 36.5057 15.6452 31.6143V24.5175ZM8.54839 31.6143C8.54839 30.6367 9.345 29.8401 10.3226 29.8401H12.0968V31.6143C12.0968 32.2175 12.1553 32.8065 12.2387 33.3885H10.3226C9.345 33.3885 8.54839 32.5919 8.54839 31.6143Z" fill="#222733"/>
<path d="M90.1609 86.6128C91.1408 86.6128 91.9351 85.8184 91.9351 84.8386C91.9351 83.8587 91.1408 83.0644 90.1609 83.0644C89.1811 83.0644 88.3867 83.8587 88.3867 84.8386C88.3867 85.8184 89.1811 86.6128 90.1609 86.6128Z" fill="#222733"/>
<path d="M100.808 86.6128C101.788 86.6128 102.583 85.8184 102.583 84.8386C102.583 83.8587 101.788 83.0644 100.808 83.0644C99.8285 83.0644 99.0342 83.8587 99.0342 84.8386C99.0342 85.8184 99.8285 86.6128 100.808 86.6128Z" fill="#222733"/>
<path d="M97.2596 89.4253C96.3263 90.3585 94.6444 90.3585 93.7112 89.4253L93.1913 88.9055L90.6826 91.4142L91.2025 91.934C92.3468 93.0784 93.8673 93.7082 95.4854 93.7082C97.1034 93.7082 98.6257 93.0784 99.7683 91.934L100.288 91.4142L97.7794 88.9055L97.2596 89.4253Z" fill="#222733"/>
<path d="M106.689 93.7078H109.679C112.613 93.7078 115.001 91.3198 115.001 88.3852C115.001 85.4507 112.613 83.0627 109.679 83.0627H107.905V81.4127C107.905 79.6296 107.018 77.9743 105.534 76.9843L104.257 76.1327C104.411 75.4333 104.385 74.7065 104.184 74.0196C103.982 73.3326 103.61 72.7078 103.102 72.2028L102.062 71.1631L99.5536 73.6719L100.593 74.7115C100.695 74.8146 100.765 74.9455 100.793 75.0878C100.821 75.2301 100.806 75.3775 100.75 75.5115C100.695 75.6455 100.601 75.7601 100.48 75.8409C100.36 75.9217 100.218 75.9652 100.073 75.9659H90.8973C90.7523 75.9652 90.6107 75.9217 90.4902 75.8409C90.3698 75.7601 90.276 75.6455 90.2204 75.5115C90.1649 75.3775 90.1502 75.2301 90.1781 75.0878C90.2061 74.9455 90.2754 74.8146 90.3774 74.7115L91.4171 73.6719L88.9084 71.1631L87.8687 72.2028C87.3611 72.7078 86.9891 73.3326 86.7872 74.0196C86.5853 74.7065 86.56 75.4333 86.7137 76.1327L85.4363 76.9843C84.7068 77.4698 84.1086 78.1282 83.6951 78.9008C83.2815 79.6734 83.0654 80.5363 83.066 81.4127V83.0627H81.2918C78.3573 83.0627 75.9692 85.4507 75.9692 88.3852C75.9692 91.3198 78.3573 93.7078 81.2918 93.7078H84.2813C85.387 96.0257 87.1798 97.9467 89.4158 99.2096L88.7452 101.22C87.0328 101.95 85.5239 103.086 84.3486 104.53C83.1734 105.974 82.3673 107.682 81.9997 109.507L80.9015 114.998H110.069L108.971 109.507C108.604 107.682 107.798 105.973 106.623 104.529C105.447 103.086 103.938 101.95 102.226 101.22L101.555 99.2096C103.791 97.9467 105.584 96.0257 106.689 93.7078ZM109.679 86.611C110.656 86.611 111.453 87.4077 111.453 88.3852C111.453 89.3628 110.656 90.1594 109.679 90.1594H107.763C107.846 89.5775 107.905 88.9885 107.905 88.3852V86.611H109.679ZM81.2918 90.1594C80.3142 90.1594 79.5176 89.3628 79.5176 88.3852C79.5176 87.4077 80.3142 86.611 81.2918 86.611H83.066V88.3852C83.066 88.9885 83.1245 89.5775 83.2079 90.1594H81.2918ZM105.492 110.202L105.74 111.45H85.2305L85.4807 110.202C85.7291 108.977 86.2647 107.828 87.0435 106.85C87.8222 105.871 88.822 105.092 89.9605 104.575L95.4854 108.26L101.012 104.577C102.15 105.093 103.15 105.872 103.929 106.85C104.708 107.828 105.243 108.977 105.492 110.202ZM98.6966 101.855L95.4854 103.995L92.2741 101.853L92.73 100.485C93.6171 100.687 94.5379 100.805 95.4854 100.805C96.4328 100.805 97.3536 100.687 98.2407 100.485L98.6966 101.855ZM95.4854 97.2562C90.5939 97.2562 86.6144 93.2767 86.6144 88.3852V81.4127C86.6143 81.1206 86.6864 80.8331 86.8241 80.5756C86.9618 80.3181 87.161 80.0986 87.4039 79.9365L88.8516 78.9714C89.4767 79.3223 90.1805 79.5091 90.8973 79.5143H100.073C100.817 79.5143 101.507 79.3067 102.117 78.9714L103.565 79.9365C103.808 80.0982 104.008 80.3176 104.146 80.5751C104.284 80.8327 104.356 81.1204 104.356 81.4127V88.3852C104.356 93.2767 100.377 97.2562 95.4854 97.2562ZM63.5499 93.7078C68.4413 93.7078 72.4208 89.7283 72.4208 84.8368V77.3143C72.4208 76.8796 72.5805 76.4609 72.8697 76.1362L80.9707 67.0204C84.6078 62.9325 86.6162 57.6509 86.6144 52.1793C86.6144 39.8593 76.592 29.8369 64.2737 29.8369H62.8278C50.5078 29.8369 40.4854 39.8593 40.4854 52.1793C40.4834 57.6515 42.4919 62.9337 46.1291 67.0222L54.2318 76.138C54.52 76.462 54.6791 76.8806 54.6789 77.3143V84.8368C54.6789 89.7283 58.6584 93.7078 63.5499 93.7078ZM58.2273 79.5143H68.8724V83.0627H58.2273V79.5143ZM63.5499 90.1594C62.4527 90.1559 61.3835 89.813 60.489 89.1777C59.5945 88.5424 58.9185 87.6458 58.5537 86.611H68.5442C68.18 87.6458 67.5044 88.5424 66.6101 89.1778C65.7159 89.8132 64.6469 90.1561 63.5499 90.1594ZM48.7815 64.6625C45.7212 61.224 44.0315 56.7806 44.0337 52.1775C44.0337 41.8144 52.4629 33.3852 62.826 33.3852H64.272C74.6368 33.3852 83.066 41.8162 83.066 52.1793C83.066 56.7869 81.3805 61.2206 78.3183 64.6643L70.2173 73.7801C69.667 74.4085 69.2731 75.158 69.0676 75.9677H58.0321C57.8262 75.1582 57.4323 74.4087 56.8825 73.7801L48.7815 64.6625Z" fill="#222733"/>
<path d="M63.5469 71.245C64.6336 72.0134 65.9328 72.4239 67.2638 72.4195C68.6208 72.4207 69.9438 71.9943 71.0447 71.201C72.1457 70.4076 72.9688 69.2877 73.3972 68L73.9099 66.4618L76.2288 64.9147C77.2407 64.2418 78.0703 63.3289 78.6436 62.2575C79.2169 61.1861 79.5162 59.9894 79.5146 58.7742C79.5146 57.2945 79.0817 55.8805 78.2762 54.6776C79.0872 53.4656 79.5183 52.0393 79.5146 50.581C79.5161 49.3656 79.2167 48.1688 78.643 47.0973C78.0694 46.0258 77.2393 45.1131 76.227 44.4405L73.9082 42.8934L73.3954 41.3534C72.9671 40.0662 72.1442 38.9466 71.0435 38.1536C69.9429 37.3606 68.6204 36.9345 67.2638 36.9356C65.9136 36.9356 64.6273 37.3455 63.5469 38.1102C62.4601 37.3418 61.1609 36.9312 59.8299 36.9356C58.4729 36.9345 57.15 37.3608 56.049 38.1542C54.948 38.9475 54.1249 40.0675 53.6965 41.3552L53.1838 42.8934L50.8649 44.4405C49.8531 45.1134 49.0235 46.0262 48.4501 47.0977C47.8768 48.1691 47.5776 49.3658 47.5791 50.581C47.5791 52.0606 48.012 53.4747 48.8175 54.6776C48.0065 55.8896 47.5754 57.3159 47.5791 58.7742C47.5791 61.2474 48.8069 63.5432 50.8667 64.9147L53.1856 66.4618L53.6983 68.0018C54.1267 69.289 54.9496 70.4085 56.0502 71.2015C57.1509 71.9945 58.4734 72.4207 59.8299 72.4195C61.1801 72.4195 62.4664 72.0097 63.5469 71.245ZM70.0298 42.4764L70.3882 43.5534L67.6151 46.3264L70.1238 48.8352L72.6432 46.3158L74.2594 47.3927C75.3293 48.1042 75.9662 49.2965 75.9662 50.581C75.9662 51.4361 75.6752 52.2381 75.1625 52.9034H72.4178V56.4518H75.1625C75.6752 57.1171 75.9662 57.9208 75.9662 58.7742C75.9662 60.0587 75.3293 61.251 74.2594 61.9624L72.6432 63.0394L70.1238 60.52L67.6151 63.0287L70.3882 65.8018L70.0298 66.8787C69.8364 67.4592 69.4651 67.9641 68.9686 68.3217C68.4721 68.6793 67.8757 68.8716 67.2638 68.8711C66.5448 68.8695 65.8522 68.6 65.3211 68.1153V41.2398C65.8519 40.7547 66.5447 40.4852 67.2638 40.484C68.5199 40.484 69.6323 41.286 70.0298 42.4764ZM57.064 66.8787L56.7056 65.8018L59.4786 63.0287L56.9699 60.52L54.4506 63.0394L52.8343 61.9624C52.3086 61.6133 51.8775 61.1394 51.5797 60.5831C51.2819 60.0267 51.1265 59.4053 51.1275 58.7742C51.1275 57.919 51.4185 57.1171 51.9312 56.4518H54.6759V52.9034H51.9312C51.4128 52.24 51.13 51.4229 51.1275 50.581C51.1275 49.2965 51.7644 48.1042 52.8343 47.3927L54.4506 46.3158L56.9699 48.8352L59.4786 46.3264L56.7056 43.5534L57.064 42.4764C57.2574 41.8959 57.6286 41.3911 58.1251 41.0334C58.6216 40.6758 59.2181 40.4836 59.8299 40.484C60.5556 40.484 61.2369 40.7573 61.7727 41.2398V68.1153C61.2418 68.6005 60.549 68.87 59.8299 68.8711C59.2181 68.8716 58.6216 68.6793 58.1251 68.3217C57.6286 67.9641 57.2574 67.4592 57.064 66.8787Z" fill="#222733"/>
</svg>
