<svg width="120" height="120" viewBox="0 0 120 120" fill="none" xmlns="http://www.w3.org/2000/svg">
<g clip-path="url(#clip0_1152_25183)">
<path fill-rule="evenodd" clip-rule="evenodd" d="M55.1181 60.0025C55.1181 70.1179 63.3475 78.3469 73.4626 78.3469C83.5777 78.3469 91.807 70.1176 91.807 60.0025C91.807 49.8874 83.5777 41.658 73.4626 41.658C63.3475 41.6582 55.1181 49.8874 55.1181 60.0025ZM112.164 60.0025C112.164 61.3458 112.095 62.6911 111.956 64.0271C111.776 65.7563 110.433 67.0852 108.702 67.2458L103.012 67.7734C101.328 67.9297 99.8835 68.9953 99.2425 70.5612C98.6046 72.1198 98.8897 73.9026 99.9751 75.1893L103.659 79.5557C104.779 80.8845 104.805 82.7728 103.72 84.1313C101.977 86.3149 100.003 88.3048 97.8339 90.0666C96.4844 91.1623 94.5959 91.152 93.2582 90.042L88.8613 86.3932C87.5655 85.318 85.7802 85.0464 84.2263 85.6974C82.6664 86.3509 81.6143 87.8044 81.4712 89.4888L80.9876 95.1856C80.8405 96.9181 79.522 98.2725 77.7938 98.465C75.0174 98.7729 72.216 98.7828 69.4376 98.4946C67.7084 98.3146 66.3806 96.9736 66.2196 95.2422L65.6904 89.5521C65.5339 87.8681 64.4701 86.4245 62.9048 85.7822C62.3615 85.5588 61.7797 85.4437 61.1922 85.4434C60.1226 85.4434 59.0935 85.8253 58.2754 86.515L53.909 90.1974C52.5798 91.3184 50.6928 91.3452 49.3339 90.2602C47.1507 88.5158 45.1611 86.542 43.3995 84.3727C42.3037 83.0237 42.3142 81.1364 43.4241 79.799L47.0729 75.4014C48.1485 74.1051 48.4195 72.3199 47.7684 70.7653C47.1149 69.2059 45.661 68.1539 43.977 68.0111L38.2807 67.5279C36.5473 67.3808 35.194 66.0626 35.0015 64.3337C34.6928 61.5576 34.6822 58.7565 34.9697 55.9781C35.1495 54.249 36.4918 52.9198 38.2232 52.7593L43.9137 52.2319C45.597 52.0758 47.042 51.0111 47.6828 49.4461C48.3213 47.8866 48.0363 46.1036 46.9503 44.816L43.2671 40.4495C42.1463 39.1208 42.1204 37.2323 43.2052 35.8738C44.9491 33.6903 46.9225 31.7004 49.0913 29.9383C50.4408 28.8423 52.3301 28.8528 53.6675 29.9631L58.0639 33.6119C59.3593 34.687 61.1451 34.9589 62.6987 34.3076C64.2586 33.6539 65.3114 32.2009 65.4543 30.5164L65.9375 24.8197C66.0843 23.0865 67.4034 21.7345 69.1317 21.5422C71.9079 21.2339 74.709 21.2232 77.4875 21.5105C79.2168 21.6905 80.5449 23.0313 80.7059 24.7629L81.2346 30.4525C81.3911 32.1369 82.4554 33.5806 84.0209 34.2227C85.5794 34.8619 87.3627 34.575 88.6494 33.49L93.0158 29.8077C94.3452 28.6864 96.2318 28.6598 97.5909 29.7449C99.7744 31.4892 101.764 33.463 103.526 35.6323C104.622 36.9819 104.612 38.8704 103.502 40.2083L99.8528 44.6038C98.7772 45.8997 98.5065 47.6854 99.1575 49.2395C99.8108 50.799 101.264 51.8518 102.948 51.9944L108.645 52.4771C110.379 52.624 111.732 53.9425 111.924 55.6714C112.084 57.1096 112.164 58.5555 112.164 60.0025Z" fill="#0099A3"/>
<path fill-rule="evenodd" clip-rule="evenodd" d="M67.3197 54.4663C67.1954 54.3414 67.0476 54.2423 66.8848 54.1747C66.7221 54.1071 66.5476 54.0723 66.3713 54.0723C66.1951 54.0723 66.0206 54.1071 65.8578 54.1747C65.695 54.2423 65.5473 54.3414 65.4229 54.4663L60.8367 59.0517C60.7121 59.1762 60.6133 59.3239 60.5459 59.4866C60.4785 59.6492 60.4438 59.8236 60.4438 59.9997C60.4438 60.1757 60.4785 60.3501 60.5459 60.5127C60.6133 60.6754 60.7121 60.8232 60.8367 60.9476L65.4229 65.5334C65.6845 65.7973 66.0281 65.9269 66.3711 65.9269C66.7141 65.9269 67.0579 65.797 67.3197 65.5334C67.4443 65.409 67.5431 65.2612 67.6105 65.0985C67.6779 64.9359 67.7126 64.7615 67.7126 64.5855C67.7126 64.4094 67.6779 64.235 67.6105 64.0724C67.5431 63.9097 67.4443 63.762 67.3197 63.6375L63.6826 59.9999L67.3197 56.3623C67.4443 56.2378 67.5431 56.09 67.6105 55.9274C67.6779 55.7647 67.7126 55.5904 67.7126 55.4143C67.7126 55.2382 67.6779 55.0639 67.6105 54.9012C67.5431 54.7386 67.4443 54.5908 67.3197 54.4663ZM76.8868 47.22C76.1712 47.0301 75.4356 47.4525 75.244 48.1682L69.0896 71.1361C68.9977 71.4798 69.0461 71.846 69.224 72.1541C69.402 72.4623 69.695 72.6871 70.0387 72.7794C70.1545 72.8111 70.2716 72.8241 70.3866 72.8241C70.9786 72.8241 71.521 72.4306 71.6811 71.8316L77.8355 48.8633C77.9275 48.5196 77.8792 48.1534 77.7014 47.8452C77.5235 47.5371 77.2305 47.3122 76.8868 47.22ZM79.6053 54.4663C79.4808 54.5908 79.382 54.7386 79.3146 54.9013C79.2471 55.064 79.2124 55.2383 79.2124 55.4144C79.2124 55.5905 79.2471 55.7649 79.3146 55.9276C79.382 56.0902 79.4808 56.238 79.6053 56.3625L83.2425 60.0001L79.6053 63.6377C79.4808 63.7622 79.382 63.91 79.3146 64.0726C79.2472 64.2353 79.2125 64.4096 79.2125 64.5857C79.2125 64.7618 79.2472 64.9361 79.3146 65.0988C79.382 65.2614 79.4808 65.4092 79.6053 65.5337C79.8674 65.7975 80.2106 65.9272 80.554 65.9272C80.8974 65.9272 81.241 65.7973 81.5026 65.5337L86.0884 60.9479C86.213 60.8234 86.3118 60.6756 86.3792 60.513C86.4466 60.3503 86.4813 60.176 86.4813 59.9999C86.4813 59.8238 86.4466 59.6495 86.3792 59.4868C86.3118 59.3242 86.213 59.1764 86.0884 59.0519L81.5026 54.4666C81.3782 54.3416 81.2304 54.2425 81.0676 54.1749C80.9048 54.1072 80.7303 54.0724 80.554 54.0723C80.3777 54.0723 80.2032 54.1071 80.0404 54.1747C79.8776 54.2423 79.7297 54.3414 79.6053 54.4663ZM89.7951 59.9999C89.7951 69.0054 82.4682 76.3325 73.4625 76.3325C64.457 76.3325 57.13 69.0056 57.13 59.9999C57.13 50.9944 64.4568 43.6675 73.4625 43.6675C82.4682 43.6675 89.7951 50.9944 89.7951 59.9999ZM92.4776 59.9999C92.4776 70.4857 83.9474 79.0149 73.4625 79.0149C62.9774 79.0149 54.4473 70.4857 54.4473 59.9999C54.4473 49.5141 62.9774 40.9846 73.4625 40.9846C83.9474 40.9848 92.4776 49.5141 92.4776 59.9999ZM111.493 59.9999C111.493 61.3192 111.424 62.6493 111.288 63.955C111.142 65.3658 110.053 66.4434 108.64 66.5753L102.95 67.103C101.015 67.2841 99.3564 68.5093 98.6217 70.3046C97.8877 72.0979 98.2097 74.1345 99.4624 75.6192L103.146 79.9857C104.06 81.0701 104.081 82.6016 103.196 83.7103C101.482 85.8563 99.5426 87.8119 97.4108 89.5434C96.3093 90.4378 94.7773 90.4288 93.6863 89.5233L89.2894 85.8745C87.7939 84.6339 85.7546 84.3274 83.9669 85.0764C82.1794 85.8253 80.9669 87.4935 80.8028 89.4296L80.3192 95.1264C80.1992 96.5394 79.1302 97.637 77.7195 97.7961C75.0117 98.0957 72.2237 98.1092 69.5068 97.8252C68.096 97.6799 67.0188 96.5911 66.8873 95.1778L66.3581 89.4878C66.1781 87.552 64.9525 85.8951 63.1594 85.1595C62.5354 84.9028 61.8671 84.7707 61.1924 84.7705C59.9886 84.7705 58.8012 85.1928 57.8432 86.0002L53.4767 89.6825C52.3926 90.599 50.8608 90.6193 49.7526 89.7339C47.6065 88.0199 45.6511 86.08 43.9199 83.9477C43.0253 82.848 43.0336 81.3162 43.94 80.2252L47.5888 75.8276C48.8299 74.3317 49.1355 72.2929 48.3867 70.504C47.6377 68.7176 45.9696 67.5061 44.0334 67.3406L38.3371 66.8575C36.9226 66.737 35.8248 65.668 35.6678 64.2573C35.3645 61.5289 35.354 58.7759 35.6365 56.0452C35.7832 54.6345 36.872 53.5568 38.2848 53.4249L43.9753 52.8973C45.9104 52.7162 47.5684 51.491 48.3031 49.6977C49.0376 47.9023 48.7156 45.8658 47.4625 44.381L43.7792 40.0145C42.8648 38.9304 42.8438 37.3986 43.7287 36.2899C45.443 34.1443 47.3824 32.1886 49.5136 30.4563C50.6151 29.5622 52.1471 29.571 53.2386 30.4765L57.635 34.1255C59.1305 35.3661 61.17 35.6726 62.9575 34.9236C64.745 34.1742 65.9579 32.5065 66.1223 30.5704L66.6054 24.8736C66.7259 23.4604 67.7944 22.3626 69.2056 22.2061C71.9341 21.903 74.6871 21.8925 77.4178 22.1748C78.8291 22.3201 79.9063 23.4089 80.0377 24.8222L80.5665 30.5118C80.7465 32.4482 81.9726 34.1051 83.7661 34.8405C85.5594 35.5763 87.5965 35.2516 89.0817 33.9998L93.4479 30.3175C94.5327 29.401 96.0638 29.3809 97.1723 30.2663C99.3186 31.9802 101.274 33.9201 103.005 36.0525C103.9 37.1523 103.891 38.684 102.985 39.7773L99.3365 44.1728C98.0954 45.6688 97.7896 47.7078 98.5386 49.496C99.2871 51.2828 100.955 52.4944 102.891 52.6601L108.588 53.1428C110.003 53.2637 111.1 54.3322 111.257 55.743C111.414 57.1565 111.493 58.5777 111.493 59.9999ZM72.1211 103.884C72.1211 108.534 68.3381 112.317 63.6882 112.317H21.1161C16.4659 112.317 12.6827 108.534 12.6827 103.884V16.1158C12.6827 11.4656 16.4656 7.68204 21.1161 7.68204H63.6884C68.3384 7.68204 72.1213 11.4654 72.1213 16.1158V19.3108C71.0443 19.3445 69.9709 19.4205 68.9089 19.5388C66.2086 19.8384 64.1621 21.94 63.9323 24.6476L63.4492 30.3443C63.3682 31.2945 62.797 32.0817 61.9212 32.4482C61.0455 32.8151 60.0836 32.6715 59.349 32.0616L54.9525 28.4126C52.863 26.6776 49.931 26.662 47.8229 28.3748C45.5416 30.2277 43.4662 32.3204 41.6324 34.6171C39.9386 36.7386 39.978 39.67 41.7286 41.7445L45.412 46.111C46.0275 46.8399 46.1802 47.8013 45.8205 48.6799C45.4605 49.5586 44.678 50.1354 43.7269 50.2251L38.0364 50.7525C35.3331 51.0051 33.2485 53.0663 32.9684 55.7671C32.8225 57.1733 32.7495 58.586 32.7495 59.9997C32.7495 61.5198 32.8347 63.0513 33.0017 64.5537C33.3024 67.2545 35.4029 69.3005 38.1104 69.5306L43.8067 70.0137C44.7583 70.094 45.5451 70.6641 45.9117 71.5407C46.2791 72.4172 46.134 73.3786 45.5238 74.1139L41.8752 78.5094C40.141 80.5999 40.1251 83.5312 41.837 85.6396C43.6898 87.9209 45.7824 89.9964 48.0789 91.8304C50.2008 93.5227 53.1317 93.4849 55.2065 91.7343L59.5734 88.0495C60.303 87.4349 61.2635 87.2829 62.1428 87.6428C63.021 88.0025 63.5987 88.7853 63.687 89.7353L64.2158 95.4253C64.4671 98.1286 66.5292 100.212 69.2295 100.494C70.186 100.592 71.1539 100.657 72.1211 100.689V103.884ZM114.176 59.9999C114.176 61.4107 114.102 62.8346 113.957 64.2324C113.677 66.9333 111.593 68.9944 108.889 69.2471L103.198 69.7747C102.247 69.8644 101.465 70.4412 101.105 71.3199C100.745 72.1983 100.898 73.1601 101.513 73.889L105.197 78.2555C106.947 80.33 106.987 83.2636 105.293 85.3831C103.459 87.68 101.384 89.7728 99.1024 91.6254C96.9943 93.3382 94.0628 93.3221 91.9732 91.5872L87.5768 87.9384C86.8419 87.328 85.8805 87.1849 85.0045 87.5518C84.1281 87.9183 83.5571 88.7053 83.4766 89.6552L82.9928 95.3522C82.7631 98.0597 80.7172 100.161 78.0166 100.461C76.9555 100.579 75.8794 100.653 74.8042 100.689V103.884C74.8042 110.014 69.8175 115 63.6882 115H21.1161C14.9867 115 10 110.014 10 103.884V16.1158C10 9.98556 14.9867 5 21.1161 5H63.6884C69.8178 5 74.8045 9.98556 74.8045 16.1158V19.313C75.7725 19.3447 76.7384 19.4071 77.6955 19.5053C80.3964 19.7872 82.458 21.871 82.7095 24.5742L83.2387 30.2641C83.3266 31.2143 83.9043 31.999 84.7829 32.357C85.6618 32.7167 86.6223 32.5649 87.3523 31.9501L91.7188 28.2653C93.7938 26.5147 96.7247 26.4769 98.8467 28.1691C101.143 30.0036 103.235 32.0791 105.089 34.36C106.8 36.4683 106.784 39.3992 105.05 41.4901L101.401 45.8857C100.792 46.6212 100.646 47.5824 101.014 48.4588C101.38 49.3355 102.167 49.9054 103.119 49.9858L108.815 50.4688C111.523 50.6988 113.623 52.7448 113.924 55.4454C114.092 56.9578 114.176 58.4782 114.176 59.9999ZM49.1583 105.368C49.1583 104.626 48.5578 104.027 47.8168 104.027H38.552C38.3758 104.027 38.2013 104.062 38.0385 104.129C37.8757 104.196 37.7278 104.295 37.6032 104.42C37.4787 104.544 37.3799 104.692 37.3125 104.855C37.2452 105.018 37.2106 105.192 37.2107 105.368C37.2109 105.724 37.3523 106.065 37.6038 106.317C37.8553 106.568 38.1963 106.71 38.552 106.71H47.8168C48.5575 106.71 49.1583 106.108 49.1583 105.368Z" fill="#222733"/>
</g>
<defs>
<clipPath id="clip0_1152_25183">
<rect width="120" height="120" fill="white"/>
</clipPath>
</defs>
</svg>
