<svg width="120" height="120" viewBox="0 0 120 120" fill="none" xmlns="http://www.w3.org/2000/svg">
<g clip-path="url(#clip0_1149_22417)">
<path fill-rule="evenodd" clip-rule="evenodd" d="M36.1371 60.5715C36.1371 72.7688 46.0649 82.6961 58.2618 82.6961C70.4587 82.6961 80.3867 72.7688 80.3867 60.5715C80.3867 48.3746 70.4585 38.4477 58.2618 38.4477C46.0653 38.4477 36.1371 48.3746 36.1371 60.5715ZM84.2823 43.9376C84.2389 44.0364 84.2203 44.1442 84.2282 44.2518C84.2362 44.3593 84.2703 44.4633 84.3278 44.5545C86.0277 47.3097 87.2749 50.3195 88.0221 53.4694C88.0468 53.574 88.0966 53.671 88.1671 53.7521C88.2376 53.8333 88.3268 53.896 88.427 53.935L94.0431 56.0955V65.0476L88.4268 67.207C88.3265 67.2463 88.2373 67.3094 88.1668 67.3908C88.0963 67.4722 88.0466 67.5696 88.0221 67.6744C87.2753 70.8249 86.028 73.8352 84.3276 76.5906C84.27 76.6818 84.2358 76.7857 84.2278 76.8932C84.2199 77.0008 84.2386 77.1086 84.2821 77.2073L86.7322 82.7072L80.3938 89.0367L74.8974 86.5944C74.7988 86.5505 74.691 86.5314 74.5833 86.5387C74.4757 86.546 74.3714 86.5794 74.2796 86.6361C71.5235 88.3338 68.5141 89.5807 65.365 90.3297C65.2605 90.3555 65.1638 90.4061 65.083 90.4773C65.0023 90.5484 64.9399 90.638 64.9011 90.7384L62.7382 96.3508H53.7852L51.6225 90.7406C51.5846 90.6396 51.5225 90.5495 51.4416 90.4782C51.3606 90.4068 51.2634 90.3566 51.1584 90.3317C48.0093 89.5818 45 88.3343 42.244 86.6361C42.1522 86.5795 42.0479 86.5461 41.9403 86.5388C41.8326 86.5316 41.7248 86.5506 41.6262 86.5944L36.1298 89.0367L29.7914 82.7072L32.2413 77.2053C32.2848 77.1066 32.3035 76.9987 32.2955 76.8911C32.2876 76.7836 32.2534 76.6796 32.1958 76.5884C30.4948 73.8321 29.2592 70.8254 28.5022 67.6775C28.4776 67.5723 28.4279 67.4746 28.3573 67.3928C28.2866 67.311 28.1972 67.2477 28.0966 67.2081L22.4805 65.0476V56.0955L28.0966 53.935C28.197 53.8955 28.2864 53.8322 28.357 53.7506C28.4276 53.669 28.4775 53.5715 28.5022 53.4665C29.2592 50.3177 30.4944 47.3115 32.1958 44.5545C32.3111 44.3676 32.3311 44.139 32.2413 43.9376L29.7914 38.4357L36.1298 32.106L41.6262 34.5494C41.7248 34.593 41.8326 34.6119 41.9402 34.6045C42.0477 34.5971 42.1519 34.5636 42.2436 34.5068C44.9994 32.808 48.009 31.5607 51.1586 30.8121C51.2636 30.7874 51.3608 30.7372 51.4417 30.6659C51.5226 30.5946 51.5846 30.5044 51.6223 30.4034L53.785 24.791H62.738L64.9009 30.4023C64.9397 30.5028 65.0022 30.5924 65.0831 30.6636C65.164 30.7348 65.2608 30.7854 65.3654 30.8112C68.5145 31.5613 71.5237 32.8088 74.2798 34.5068C74.3716 34.5634 74.4759 34.5967 74.5835 34.604C74.6911 34.6112 74.7988 34.5921 74.8974 34.5483L80.3938 32.106L86.7322 38.4355L84.2823 43.9376Z" fill="#0099A3"/>
<path fill-rule="evenodd" clip-rule="evenodd" d="M63.4608 67.7963C63.8052 68.2128 64.3063 68.4279 64.8176 68.4279C65.2343 68.4266 65.6371 68.2783 65.9552 68.0092L73.1673 61.9296C73.5744 61.5925 73.8039 61.0956 73.8039 60.5727C73.8039 60.0499 73.5744 59.5529 73.1673 59.2159L65.9552 53.1361C65.2037 52.5045 64.0868 52.6008 63.4606 53.3489C63.3093 53.5264 63.1946 53.732 63.1232 53.954C63.0517 54.176 63.0249 54.4099 63.0443 54.6423C63.0637 54.8746 63.1289 55.1009 63.2362 55.3079C63.3434 55.515 63.4906 55.6988 63.6692 55.8487L69.2741 60.5727L63.6692 65.2966C63.4907 65.4465 63.3436 65.6303 63.2364 65.8374C63.1292 66.0445 63.064 66.2707 63.0446 66.5031C63.0253 66.7354 63.0521 66.9693 63.1235 67.1913C63.1949 67.4132 63.3095 67.6189 63.4608 67.7963ZM43.3586 61.9296L50.5709 68.0092C50.7494 68.1597 50.9557 68.2736 51.1782 68.3444C51.4007 68.4152 51.6349 68.4414 51.8676 68.4217C52.1002 68.4019 52.3266 68.3365 52.534 68.2292C52.7413 68.1219 52.9255 67.9748 53.076 67.7963C53.7022 67.0468 53.6084 65.9281 52.8569 65.2966L47.2521 60.5727L52.8569 55.8487C53.6084 55.2171 53.7024 54.0984 53.076 53.3489C52.7717 52.9891 52.3371 52.7646 51.8676 52.7247C51.398 52.6848 50.9318 52.8327 50.5711 53.1361L43.3589 59.2159C42.9622 59.5531 42.7222 60.0499 42.7222 60.5727C42.7222 61.0956 42.9619 61.5925 43.3586 61.9296ZM55.591 70.5497C55.7408 70.5899 55.8952 70.6102 56.0503 70.6103C56.833 70.6103 57.5533 70.0885 57.7619 69.2951L62.1873 52.7686C62.4483 51.822 61.8846 50.8492 60.9349 50.5955C59.9956 50.3418 59.0143 50.9035 58.764 51.8501L54.3386 68.3766C54.0776 69.3244 54.6413 70.2972 55.591 70.5497ZM38.5783 60.5727C38.5783 49.7178 47.4082 40.8879 58.2631 40.8879C69.118 40.8879 77.9479 49.7178 77.9479 60.5727C77.9479 71.4285 69.118 80.2584 58.2631 80.2584C47.4082 80.2584 38.5783 71.4285 38.5783 60.5727ZM58.2631 37.3404C71.0695 37.3404 81.4965 47.762 81.4965 60.573C81.4965 73.3848 71.0695 83.8064 58.2631 83.8064C45.4566 83.8064 35.0297 73.3848 35.0297 60.573C35.0297 47.762 45.4564 37.3404 58.2631 37.3404ZM51.4162 31.8921C51.6965 31.8263 51.9564 31.6926 52.173 31.5028C52.3895 31.313 52.5562 31.0729 52.6582 30.8036L54.5475 25.9012H61.9789L63.8681 30.8025C63.9716 31.0709 64.1387 31.3102 64.355 31.4998C64.5714 31.6894 64.8305 31.8236 65.1101 31.891C68.1451 32.6122 71.0451 33.8145 73.7001 35.4523C73.9453 35.6034 74.2236 35.6925 74.511 35.7118C74.7983 35.7311 75.0861 35.68 75.3492 35.5629L80.1505 33.4295L85.4109 38.6827L83.2713 43.4879C83.1528 43.7511 83.1013 44.0395 83.1213 44.3274C83.1414 44.6154 83.2324 44.8939 83.3862 45.1381C85.0249 47.8028 86.2252 50.6929 86.9454 53.727C87.0121 54.0068 87.1457 54.2662 87.3348 54.4829C87.5239 54.6996 87.7627 54.8672 88.0309 54.9712L92.9363 56.8583V64.2874L88.0309 66.1734C87.7625 66.2776 87.5235 66.4455 87.3344 66.6626C87.1453 66.8797 87.0118 67.1394 86.9454 67.4196C86.2244 70.4543 85.0228 73.3542 83.3862 76.0096C83.2324 76.2538 83.1415 76.5322 83.1215 76.8201C83.1014 77.108 83.1529 77.3964 83.2713 77.6596L85.4109 82.4628L80.1505 87.716L75.3492 85.5825C75.0861 85.4652 74.7984 85.414 74.5109 85.4333C74.2235 85.4526 73.9452 85.5418 73.7001 85.6932C71.0449 87.3299 68.1449 88.5314 65.1101 89.2522C64.8304 89.3195 64.5712 89.4537 64.3549 89.6433C64.1385 89.8329 63.9715 90.0723 63.8681 90.3408L61.9789 95.2431H54.5473L52.658 90.3428C52.5558 90.0736 52.3891 89.8336 52.1726 89.6438C51.956 89.454 51.6963 89.3202 51.416 89.2542C48.3812 88.5326 45.4812 87.3303 42.826 85.693C42.3249 85.3872 41.7093 85.3444 41.1769 85.5823L36.3757 87.7157L31.1152 82.4626L33.2548 77.6571C33.3733 77.394 33.4248 77.1056 33.4048 76.8177C33.3847 76.5298 33.2937 76.2513 33.1399 76.0071C31.5012 73.3435 30.3113 70.4524 29.5809 67.4194C29.5144 67.1394 29.3809 66.8798 29.1918 66.6629C29.0027 66.446 28.7637 66.2783 28.4955 66.1743L23.59 64.2872V56.8581L28.4955 54.971C28.7636 54.867 29.0025 54.6994 29.1915 54.4827C29.3806 54.2659 29.5142 54.0065 29.5809 53.7268C30.3116 50.6926 31.5012 47.8026 33.1399 45.1379C33.2937 44.8937 33.3847 44.6152 33.4047 44.3272C33.4248 44.0393 33.3733 43.7509 33.2548 43.4877L31.1152 38.6824L36.3757 33.4293L41.1769 35.5636C41.4402 35.6803 41.7279 35.7311 42.0152 35.7117C42.3026 35.6922 42.5808 35.6031 42.826 35.4521C45.4812 33.8148 48.3813 32.613 51.4162 31.8921ZM51.6772 23.49C51.9382 22.8052 52.5957 22.3533 53.3368 22.3533H63.2C63.5577 22.3535 63.9068 22.4623 64.2013 22.6653C64.4957 22.8683 64.7217 23.1558 64.8491 23.49L66.8426 28.6711C69.6113 29.4138 72.271 30.5152 74.7541 31.9474L79.8267 29.6929C80.4946 29.3944 81.288 29.5405 81.7994 30.0603L88.7715 37.0355C89.0256 37.2887 89.1974 37.6126 89.2645 37.9649C89.3316 38.3173 89.2907 38.6816 89.1474 39.0104L86.8929 44.0893C88.3199 46.5714 89.4214 49.2269 90.1703 51.9903L95.3471 53.986C95.6824 54.1138 95.9708 54.3406 96.174 54.6363C96.3772 54.932 96.4856 55.2826 96.4847 55.6413V65.5057C96.4854 65.8644 96.377 66.2149 96.1738 66.5106C95.9706 66.8062 95.6823 67.0331 95.3471 67.161L90.1703 69.1556C89.4292 71.9237 88.3229 74.5738 86.8929 77.0589L89.1474 82.1366C89.2907 82.4652 89.3316 82.8294 89.2645 83.1816C89.1974 83.5338 89.0256 83.8575 88.7715 84.1104L81.7994 91.0867C81.288 91.6054 80.4946 91.7515 79.8267 91.4519L74.7541 89.1974C72.2734 90.6269 69.6175 91.7278 66.8531 92.4726L64.8491 97.6568C64.7218 97.991 64.4959 98.2785 64.2014 98.4813C63.9068 98.6841 63.5576 98.7926 63.2 98.7924H53.3368C52.5957 98.7924 51.9382 98.3425 51.6772 97.6568L49.6837 92.4746C46.9182 91.732 44.2619 90.6302 41.7827 89.1972L36.6996 91.4517C36.0317 91.7513 35.249 91.6052 34.727 91.0865L27.7548 84.1102C27.5008 83.8572 27.329 83.5335 27.262 83.1813C27.1949 82.8292 27.2357 82.465 27.379 82.1364L29.6439 77.0566C28.2084 74.5787 27.1064 71.9221 26.3665 69.1556L21.1792 67.161C20.5009 66.8969 20.0414 66.2383 20.0414 65.5046V55.6413C20.0414 54.9065 20.5007 54.249 21.1792 53.9849L26.3665 51.9903C27.1062 49.2237 28.2082 46.5671 29.6439 44.0893L27.379 39.0095C27.2357 38.6808 27.1949 38.3164 27.2619 37.9641C27.329 37.6118 27.5008 37.288 27.7548 37.0349L34.727 30.0605C35.249 29.5408 36.0317 29.3946 36.6996 29.6931L41.7827 31.9487C44.262 30.5162 46.9182 29.4147 49.6837 28.6724L51.6772 23.49ZM114.572 71.8168C115.209 72.5621 115.126 73.681 114.384 74.3154L107.569 80.1207C107.249 80.3945 106.842 80.5448 106.421 80.5445C106.287 80.5449 106.154 80.5291 106.024 80.4975C105.471 80.3691 105.012 79.9901 104.793 79.4715L101.202 71.1174C100.816 70.2178 101.234 69.1729 102.131 68.7878C103.029 68.3995 104.073 68.8159 104.459 69.7155L106.191 73.7453C110.471 58.2417 107.068 41.8217 96.8395 29.2261C89.17 19.7864 78.3033 13.489 66.2998 11.5279C65.3292 11.3703 64.6715 10.458 64.8281 9.49162C64.995 8.52415 65.9031 7.86977 66.8632 8.02633C79.7429 10.1294 91.3595 16.8636 99.5843 26.9889C105.419 34.1635 109.291 42.7493 110.794 51.8182C111.984 59.0012 111.681 66.3887 109.938 73.4442L112.078 71.6177C112.819 70.9808 113.936 71.0695 114.572 71.8168ZM99.2295 91.8096C98.478 91.1885 97.3613 91.2991 96.7348 92.058C94.6031 94.6532 92.2147 97.0265 89.6062 99.1419C69.6187 115.392 41.198 113.747 23.2667 95.874L26.9093 96.5441C27.8695 96.7215 28.7986 96.0849 28.976 95.1216C29.1534 94.1603 28.5168 93.2326 27.546 93.0552L18.7577 91.4322C18.2045 91.3309 17.6304 91.4969 17.2235 91.883C16.8059 92.2662 16.6077 92.8254 16.6704 93.384L17.735 102.413C17.8395 103.316 18.6118 103.981 19.499 103.979C19.572 103.979 19.6347 103.977 19.7077 103.967C20.6783 103.853 21.3777 102.97 21.2628 101.999L20.8452 98.4578C29.6231 107.159 41.0833 112.501 53.5348 113.612C55.1422 113.756 56.7494 113.827 58.3464 113.827C70.5371 113.827 82.279 109.673 91.8502 101.897C94.6473 99.6233 97.2149 97.0714 99.4798 94.3067C100.096 93.5494 99.9914 92.4327 99.2295 91.8096ZM11.7648 78.1472C12.1091 79.0637 11.6499 80.0875 10.7314 80.4329C10.5314 80.5091 10.3192 80.5483 10.1052 80.5487C9.38499 80.5487 8.70667 80.1125 8.44567 79.4027C4.52144 69.029 3.93692 57.8475 6.75486 47.068C9.62514 36.0639 15.8249 26.445 24.6757 19.2504C30.2597 14.7155 36.71 11.3567 43.5671 9.38408L40.9265 8.44676C39.9976 8.11902 39.5176 7.10453 39.8411 6.18185C40.175 5.25827 41.1875 4.77487 42.106 5.10261L50.5394 8.09396C50.8014 8.18725 51.0378 8.34051 51.23 8.5415C51.4221 8.74248 51.5645 8.98561 51.646 9.25147C51.7231 9.51816 51.7378 9.79904 51.689 10.0723C51.6401 10.3456 51.5289 10.604 51.3641 10.8274L45.926 18.1129C45.7621 18.3349 45.5482 18.5153 45.3016 18.6393C45.055 18.7633 44.7826 18.8275 44.5066 18.8267C44.1308 18.8267 43.7655 18.7109 43.442 18.4739C42.6593 17.8874 42.5027 16.7757 43.0872 15.9908L45.7069 12.4796C38.8368 14.2776 32.4309 17.5249 26.9198 22.0036C10.2722 35.5325 4.17685 58.0949 11.7648 78.1472Z" fill="#222733"/>
</g>
<defs>
<clipPath id="clip0_1149_22417">
<rect width="120" height="120" fill="white"/>
</clipPath>
</defs>
</svg>
