<svg width="120" height="120" viewBox="0 0 120 120" fill="none" xmlns="http://www.w3.org/2000/svg">
<g clip-path="url(#clip0_1149_22427)">
<path d="M55.27 34.9606C57.7644 36.7324 58.9487 39.5913 58.4378 42.6084C58.1132 44.5273 58.4908 45.8622 59.7008 47.0724C60.9117 48.283 62.2469 48.6608 64.1641 48.3354C64.6181 48.2581 65.0777 48.2189 65.5382 48.2184C68.0333 48.2184 70.3123 49.3911 71.8124 51.5032C72.9392 53.0897 74.1503 53.7667 75.8619 53.7667C77.5734 53.7667 78.7848 53.0897 79.9116 51.5034C81.6836 49.0087 84.5425 47.8245 87.5595 48.3354C89.4777 48.66 90.813 48.2824 92.023 47.0724C93.233 45.8624 93.6112 44.5267 93.2863 42.6086C92.7749 39.5917 93.9591 36.7326 96.454 34.9606C98.0405 33.8337 98.7173 32.6228 98.7173 30.9111C98.7173 29.1993 98.0403 27.9882 96.454 26.8616C93.9591 25.0898 92.7751 22.2306 93.2863 19.2137C93.6108 17.295 93.2332 15.96 92.023 14.75C90.8128 13.5395 89.4775 13.1619 87.5597 13.4869C84.5412 13.9983 81.6834 12.8134 79.9116 10.3192C78.7848 8.73269 77.5737 8.05566 75.8619 8.05566C74.1501 8.05566 72.9392 8.73269 71.8124 10.3192C70.0406 12.8138 67.1819 13.9983 64.1645 13.4869C62.2448 13.1617 60.9106 13.5402 59.7008 14.7502C58.4904 15.9606 58.1128 17.2955 58.4378 19.2137C58.9491 22.2309 57.7649 25.0898 55.27 26.8618C53.6833 27.9886 53.0065 29.1997 53.0065 30.9113C53.0065 32.6228 53.6835 33.8339 55.27 34.9608V34.9606ZM75.8619 16.3253C83.9046 16.3253 90.4476 22.8684 90.4476 30.9111C90.4476 38.9538 83.9046 45.4968 75.8619 45.4968C67.8192 45.4968 61.2762 38.9538 61.2762 30.9111C61.2762 22.8684 67.8192 16.3253 75.8619 16.3253ZM34.7499 105.231C35.5638 104.417 35.5638 103.093 34.7499 102.279L17.7239 85.2539C16.9102 84.4402 15.5861 84.44 14.7726 85.2539L8.69141 91.3351L28.6687 111.312L34.7497 105.231L34.7499 105.231Z" fill="#0099A3"/>
<path d="M113.813 72.6026C112.268 70.8485 109.135 69.9881 105.615 72.0201C101.151 74.5975 90.0265 80.0198 81.7396 83.155C82.1063 81.5936 81.8623 79.9454 81.0008 78.4955C79.7991 76.4734 77.6856 75.3144 75.3448 75.3928C65.1003 75.388 58.186 72.5195 52.6286 70.214C47.3322 68.0169 42.758 66.1196 37.3587 67.4263C31.8896 68.75 26.0616 73.296 18.5305 82.1266C16.6072 81.1737 14.2086 81.4928 12.6088 83.0926L5.44742 90.254C5.16094 90.5405 5 90.929 5 91.3342C5 91.7394 5.16094 92.128 5.44742 92.4145L27.5854 114.552C27.7273 114.694 27.8957 114.807 28.0811 114.884C28.2665 114.96 28.4651 115 28.6658 115C28.8664 115 29.0651 114.96 29.2505 114.884C29.4358 114.807 29.6043 114.694 29.7461 114.552L36.9075 107.391C38.4052 105.893 38.7832 103.694 38.0431 101.841C42.6452 99.8934 47.7696 99.724 54.3264 100.116C55.7911 100.204 57.3279 100.328 58.9549 100.459C62.8128 100.77 66.8016 101.091 70.6545 101.006C78.7404 100.827 83.609 98.5548 90.1138 95.109C96.7488 91.5943 110.897 83.2043 113.535 79.7365C115.382 77.3084 115.491 74.508 113.813 72.6026H113.813ZM34.7468 105.23L28.6658 111.312L8.68829 91.3343L14.7695 85.2531C15.5832 84.4392 16.9073 84.4394 17.7208 85.2531L34.7468 102.279C35.5605 103.092 35.5605 104.416 34.7468 105.23V105.23ZM111.103 77.8868C109.235 80.3419 97.3114 87.839 88.6841 92.409C82.5653 95.6503 78.0001 97.7872 70.5873 97.9509C66.892 98.0328 62.9815 97.7178 59.2005 97.4134C57.5572 97.2811 56.005 97.1558 54.5091 97.0666C48.724 96.7202 42.1068 96.5988 36.1364 99.3471L20.8752 84.0861C35.8252 66.5541 41.416 68.8707 51.4581 73.0365C57.2705 75.4476 64.5041 78.4483 75.3714 78.4483C75.3906 78.4483 75.4098 78.4481 75.4292 78.4473C76.6445 78.4008 77.748 79.0027 78.3739 80.0564C78.9999 81.11 79.0021 82.3643 78.3794 83.4117C77.2573 85.2996 73.2236 86.2804 67.5908 86.0342C62.3257 85.8046 57.0234 84.5451 54.9386 83.4601C54.5796 83.2767 54.1625 83.2427 53.7785 83.3654C53.3944 83.4882 53.0744 83.7578 52.8883 84.1155C52.7022 84.4732 52.665 84.8899 52.7849 85.2749C52.9048 85.6599 53.172 85.9818 53.5283 86.1706C56.3337 87.6305 62.1919 88.8571 67.4577 89.087C68.0466 89.1127 68.6555 89.1278 69.2753 89.1278C72.0819 89.1278 75.1095 88.8196 77.4902 87.813C85.8369 85.4596 101.406 77.9791 107.143 74.6666C109.155 73.5055 110.822 73.8301 111.52 74.6226C112.214 75.4109 112.058 76.6312 111.103 77.8872V77.8868ZM53.4975 37.4512C55.0357 38.5436 55.7372 40.2372 55.4221 42.0976C54.9329 44.9864 55.625 47.3202 57.5369 49.2321C58.1777 49.8729 58.867 50.3734 59.6073 50.7416L52.8405 65.0774C52.7255 65.3213 52.677 65.5912 52.7 65.8598C52.723 66.1285 52.8167 66.3863 52.9715 66.607C53.1264 66.8277 53.3369 67.0035 53.5817 67.1166C53.8265 67.2296 54.0968 67.2758 54.3653 67.2506L61.1122 66.6163L65.4421 71.83C65.6144 72.0374 65.8385 72.1955 66.0916 72.2883C66.3448 72.3811 66.6179 72.4052 66.8834 72.3583C67.1489 72.3113 67.3973 72.195 67.6032 72.021C67.8092 71.847 67.9655 71.6216 68.0562 71.3677L73.3864 56.445C74.1533 56.6949 74.9755 56.8213 75.8588 56.8213C76.7724 56.8213 77.6201 56.6855 78.4093 56.4179L83.7347 71.3278C83.8254 71.5817 83.9817 71.8071 84.1876 71.9811C84.3936 72.155 84.6419 72.2714 84.9074 72.3184C85.1729 72.3653 85.4461 72.3412 85.6992 72.2484C85.9524 72.1556 86.1765 71.9975 86.3487 71.7901L90.6785 66.5764L97.4256 67.2106C97.694 67.2358 97.9643 67.1894 98.209 67.0763C98.4537 66.9633 98.6642 66.7875 98.819 66.5668C98.9738 66.3461 99.0675 66.0884 99.0906 65.8198C99.1137 65.5512 99.0653 65.2813 98.9503 65.0375L92.1853 50.7051C92.8975 50.3404 93.5616 49.8513 94.1808 49.2321C96.0936 47.3191 96.7855 44.9853 96.2957 42.0974C95.9805 40.2372 96.6822 38.5438 98.2203 37.4512C100.609 35.7549 101.77 33.6154 101.77 30.9105C101.77 28.2057 100.609 26.0662 98.2203 24.3699C96.6818 23.2773 95.9803 21.5839 96.2957 19.7235C96.7846 16.8349 96.0927 14.5011 94.1808 12.5889C92.2678 10.6757 89.9325 9.9845 87.0461 10.474C85.1848 10.789 83.4922 10.0875 82.3998 8.54947C80.7034 6.16111 78.5638 5 75.859 5C73.1542 5 71.015 6.16111 69.3183 8.54947C68.2257 10.0877 66.5323 10.7894 64.6717 10.4738C61.7833 9.98515 59.4493 10.677 57.5372 12.5891C55.6246 14.5019 54.9327 16.8357 55.4225 19.7239C55.7377 21.5841 55.0362 23.2775 53.4979 24.3701C51.1096 26.0666 49.9482 28.2061 49.9482 30.9108C49.9482 33.6154 51.1093 35.7549 53.4979 37.4514L53.4975 37.4512ZM66.0803 67.8159L62.9475 64.0438C62.7886 63.8525 62.5856 63.703 62.3558 63.608C62.1261 63.513 61.8767 63.4755 61.6292 63.4988L56.748 63.9576L62.6317 51.4924C63.2794 51.5162 63.9584 51.4679 64.6717 51.347C66.5317 51.0325 68.2257 51.7336 69.3181 53.2716C69.7513 53.8818 70.214 54.4107 70.7073 54.8618L66.0803 67.8159ZM95.0429 63.9174L90.1614 63.4586C89.9139 63.4353 89.6645 63.4727 89.4347 63.5677C89.205 63.6627 89.0019 63.8123 88.8432 64.0036L85.7106 67.7757L81.0761 54.8009C81.5447 54.3633 81.9856 53.8548 82.3994 53.2718C83.4918 51.7336 85.1852 51.0323 87.0458 51.3472C87.7923 51.4736 88.5009 51.5194 89.1756 51.4874L95.0427 63.9174H95.0429ZM55.2669 26.8608C57.7617 25.089 58.9458 22.2299 58.4346 19.2127C58.1096 17.2945 58.4872 15.9597 59.6977 14.7492C60.9075 13.5392 62.2416 13.161 64.1614 13.486C67.1788 13.9973 70.0375 12.8129 71.8093 10.3182C72.9361 8.73172 74.1472 8.05469 75.8588 8.05469C77.5703 8.05469 78.7816 8.73172 79.9085 10.3182C81.6803 12.8124 84.5381 13.9973 87.5566 13.486C89.4744 13.161 90.8096 13.5383 92.0199 14.749C93.2301 15.959 93.6077 17.2943 93.2831 19.2127C92.7718 22.2297 93.956 25.0888 96.4509 26.8606C98.0374 27.9874 98.7142 29.1983 98.7142 30.9101C98.7142 32.6219 98.0371 33.833 96.4509 34.9596C93.956 36.7316 92.772 39.5905 93.2831 42.6077C93.6081 44.5257 93.2305 45.8608 92.0199 47.0714C90.8092 48.2821 89.4746 48.659 87.5563 48.3345C84.5394 47.8235 81.6805 49.0075 79.9085 51.5024C78.7816 53.0889 77.5705 53.7657 75.8588 53.7657C74.147 53.7657 72.9361 53.0887 71.8093 51.5022C70.3092 49.3901 68.0302 48.2175 65.5351 48.2175C65.0833 48.2175 64.6239 48.2559 64.161 48.3345C62.2438 48.6601 60.9085 48.2821 59.6977 47.0714C58.4877 45.8614 58.1101 44.5263 58.4346 42.6075C58.9458 39.5905 57.7613 36.7316 55.2669 34.9596C53.6802 33.8327 53.0034 32.6216 53.0034 30.9101C53.0034 29.1985 53.6804 27.9877 55.2669 26.8608ZM75.8588 45.4961C83.9014 45.4961 90.4445 38.953 90.4445 30.9103C90.4445 22.8676 83.9014 16.3246 75.8588 16.3246C67.8161 16.3246 61.273 22.8676 61.273 30.9103C61.273 38.953 67.8161 45.4961 75.8588 45.4961ZM75.8588 19.3801C82.2165 19.3801 87.3889 24.5526 87.3889 30.9103C87.3889 37.2681 82.2165 42.4405 75.8588 42.4405C69.501 42.4405 64.3286 37.2681 64.3286 30.9103C64.3286 24.5526 69.501 19.3801 75.8588 19.3801ZM69.7494 31.0216C69.55 30.6709 69.4974 30.2556 69.6031 29.8662C69.7088 29.4769 69.9642 29.1451 70.3136 28.9434C70.663 28.7417 71.078 28.6864 71.468 28.7895C71.858 28.8926 72.1915 29.1458 72.3955 29.4938L73.8366 31.9902L79.5647 26.2619C79.8512 25.9754 80.2398 25.8144 80.645 25.8144C81.0502 25.8144 81.4388 25.9753 81.7253 26.2618C82.0119 26.5483 82.1729 26.9369 82.1729 27.3421C82.1729 27.7473 82.0119 28.1359 81.7254 28.4224L74.5894 35.5585C74.4236 35.7241 74.222 35.8494 74.0001 35.9247C73.7782 35.9999 73.542 36.0232 73.3097 35.9926C73.0774 35.962 72.8552 35.8784 72.6604 35.7483C72.4655 35.6181 72.3032 35.4449 72.186 35.242L69.7494 31.0216Z" fill="#222733"/>
</g>
<defs>
<clipPath id="clip0_1149_22427">
<rect width="120" height="120" fill="white"/>
</clipPath>
</defs>
</svg>
