<svg width="120" height="120" viewBox="0 0 120 120" fill="none" xmlns="http://www.w3.org/2000/svg">
<g clip-path="url(#clip0_1149_22465)">
<path fill-rule="evenodd" clip-rule="evenodd" d="M34.2975 32.7181C30.3566 32.7181 27.1502 35.9295 27.1502 39.8694C27.1502 43.8096 30.356 47.0218 34.2975 47.0218C38.2429 47.0218 41.455 43.8158 41.455 39.8694C41.455 35.9235 38.2423 32.7181 34.2975 32.7181ZM42.5479 50.1077L40.7355 49.3013C40.5359 49.2126 40.3057 49.2283 40.1201 49.3432C39.1192 49.962 38.0252 50.4156 36.8801 50.6865C36.7754 50.7111 36.6784 50.7612 36.5978 50.8323C36.5172 50.9034 36.4554 50.9934 36.4179 51.0942L35.7062 52.9447H32.8994L32.1877 51.0942C32.108 50.8868 31.9277 50.7373 31.7128 50.6861C30.5709 50.4119 29.4795 49.9591 28.4788 49.3443C28.3869 49.2874 28.2824 49.2538 28.1745 49.2463C28.0667 49.2388 27.9586 49.2577 27.8596 49.3013L26.0472 50.1077L24.0596 48.1223L24.8698 46.3146C24.9119 46.2138 24.9297 46.1046 24.9217 45.9957C24.9138 45.8868 24.8802 45.7813 24.8239 45.6878C24.2109 44.6866 23.758 43.5957 23.4817 42.4547C23.4571 42.3493 23.4072 42.2514 23.3365 42.1695C23.2657 42.0876 23.1761 42.024 23.0754 41.9843L21.2275 41.2724V38.4676L23.0754 37.7556C23.2805 37.6767 23.4305 37.4975 23.4817 37.2848C23.7583 36.1441 24.2111 35.0535 24.8237 34.0524C24.8801 33.9588 24.9137 33.8532 24.9217 33.7443C24.9297 33.6353 24.9118 33.526 24.8696 33.4252L24.0596 31.6177L26.0472 29.6323L27.8596 30.4387C27.9584 30.4823 28.0664 30.5012 28.1742 30.4938C28.282 30.4863 28.3863 30.4527 28.4782 30.3959C29.4787 29.7807 30.5704 29.3277 31.7126 29.0539C31.8198 29.0282 31.9193 28.977 32.0025 28.9046C32.0857 28.8322 32.1502 28.7409 32.1905 28.6383L32.8994 26.7953H35.7062L36.4179 28.6458C36.4555 28.7466 36.5175 28.8366 36.5982 28.9077C36.679 28.9789 36.776 29.029 36.8808 29.0537C38.0255 29.3252 39.1192 29.7791 40.1199 30.3979C40.2113 30.4543 40.3152 30.4875 40.4225 30.4946C40.5298 30.5017 40.6371 30.4825 40.7353 30.4387L42.5477 29.6323L44.5311 31.6132L43.7355 33.4245C43.6479 33.6239 43.6521 33.8596 43.7679 34.0468C44.389 35.0485 44.8439 36.1441 45.1148 37.2912C45.164 37.501 45.3146 37.6771 45.5164 37.7541L47.3778 38.4649V41.2746L45.5164 41.9854C45.4169 42.0242 45.3283 42.0866 45.2583 42.1673C45.1883 42.248 45.139 42.3445 45.1148 42.4485C44.8435 43.595 44.3888 44.69 43.7681 45.6914C43.6521 45.8792 43.6479 46.1145 43.7358 46.3144L44.5311 48.1265L42.5479 50.1077ZM87.4632 37.2316H93.0627V69.9923H87.4632V37.2316ZM63.5247 69.992H57.9252V46.3257H63.5247V69.992ZM106.378 71.3232H13.6105C13.2461 71.3232 12.9553 71.0195 12.9553 70.6576V19.7533C12.9553 18.7606 13.7533 17.9522 14.7482 17.9522H105.251C106.24 17.9522 107.044 18.766 107.044 19.7533V70.6576C107.044 70.745 107.027 70.8317 106.993 70.9125C106.96 70.9933 106.911 71.0668 106.849 71.1286C106.787 71.1904 106.714 71.2395 106.633 71.2729C106.552 71.3062 106.466 71.3233 106.378 71.3232ZM105.042 83.7779H14.9569C10.809 83.7779 7.43945 80.4068 7.43945 76.2595V19.958C7.43945 15.8101 10.8085 12.4395 14.9569 12.4395H105.042C109.191 12.4395 112.56 15.8101 112.56 19.958V76.2595C112.56 80.4068 109.19 83.7779 105.042 83.7779ZM89.1878 98.1097C90.705 98.1097 92.2668 98.5509 93.4983 99.452C94.6553 100.298 95.4945 101.554 95.4945 103.022V107.932H24.5045V103.022C24.5045 101.554 25.3435 100.298 26.5008 99.452C27.7323 98.5509 29.2941 98.1097 30.8113 98.1097H89.1878Z" fill="#0099A3"/>
<path fill-rule="evenodd" clip-rule="evenodd" d="M34.2978 35.1583C36.8966 35.1583 39.0155 37.2718 39.0155 39.8698C39.0155 42.4686 36.8966 44.5824 34.2978 44.5824C31.6988 44.5824 29.5905 42.4688 29.5905 39.8698C29.5905 37.2718 31.6988 35.1583 34.2978 35.1583ZM34.2978 48.1309C38.8589 48.1309 42.5642 44.4245 42.5642 39.8698C42.5642 35.316 38.8589 31.6096 34.2978 31.6096C29.7471 31.6096 26.0418 35.316 26.0418 39.8698C26.0418 44.4247 29.7471 48.1309 34.2978 48.1309ZM22.3365 39.2288V40.5116L23.4743 40.9501C23.7425 41.0543 23.9813 41.222 24.1704 41.4389C24.3595 41.6558 24.4932 41.9153 24.5599 42.1951C24.8094 43.224 25.2178 44.2076 25.7706 45.1104C25.9195 45.3565 26.0076 45.6346 26.0276 45.9216C26.0476 46.2085 25.9989 46.4961 25.8855 46.7605L25.3845 47.8783L26.2924 48.7853L27.4093 48.2885C27.6725 48.1718 27.9602 48.1208 28.2476 48.1401C28.5349 48.1594 28.8132 48.2483 29.0585 48.3992C29.9596 48.9526 30.9423 49.3605 31.9704 49.6079C32.5444 49.7436 33.0141 50.1506 33.2228 50.6964L33.6613 51.8361H34.9452L35.3836 50.6964C35.4857 50.4271 35.6523 50.187 35.8689 49.9973C36.0854 49.8075 36.3453 49.6738 36.6256 49.6079C37.6551 49.3652 38.6384 48.9574 39.5376 48.4003C39.7827 48.249 40.061 48.1598 40.3483 48.1403C40.6357 48.1208 40.9235 48.1717 41.1867 48.2885L42.3034 48.7853L43.2114 47.8783L42.7208 46.7605C42.6032 46.4974 42.5512 46.2096 42.5694 45.922C42.5876 45.6344 42.6754 45.3555 42.8252 45.1093C43.3864 44.2111 43.7954 43.2265 44.0359 42.1951C44.1027 41.9153 44.2364 41.6558 44.4255 41.4389C44.6145 41.2221 44.8534 41.0543 45.1216 40.9501L46.2697 40.5116V39.2288L45.1216 38.7904C44.8535 38.686 44.6147 38.5182 44.4256 38.3014C44.2365 38.0845 44.1028 37.8251 44.0359 37.5453C43.7955 36.5136 43.3864 35.5286 42.8252 34.63C42.6754 34.3838 42.5876 34.1049 42.5694 33.8173C42.5512 33.5297 42.6032 33.242 42.7208 32.9788L43.2114 31.862L42.3034 30.9549L41.1867 31.4517C40.9235 31.5684 40.6358 31.6194 40.3485 31.6001C40.0612 31.5808 39.7828 31.4919 39.5376 31.341C38.6385 30.7836 37.6551 30.3754 36.6256 30.1323C36.3453 30.0664 36.0854 29.9327 35.8688 29.7428C35.6523 29.553 35.4857 29.3129 35.3836 29.0436L34.9452 27.9039H33.6613L33.2228 29.0436C33.0037 29.5894 32.5444 29.9966 31.9704 30.1323C30.9422 30.3793 29.9594 30.7872 29.0585 31.341C28.8132 31.4919 28.5349 31.5808 28.2476 31.6C27.9602 31.6193 27.6726 31.5684 27.4093 31.4517L26.2924 30.9549L25.3845 31.862L25.8855 32.9797C25.9989 33.2441 26.0476 33.5317 26.0276 33.8187C26.0077 34.1056 25.9195 34.3837 25.7706 34.6298C25.2181 35.5328 24.8097 36.5164 24.5599 37.5451C24.4931 37.8249 24.3594 38.0844 24.1704 38.3013C23.9813 38.5181 23.7424 38.6859 23.4743 38.7901L22.3365 39.2288ZM19.9254 43.3861L21.3658 43.9403C21.6048 44.6975 21.9087 45.4326 22.274 46.1375L21.6477 47.5507C21.5 47.878 21.4559 48.2426 21.5212 48.5958C21.5865 48.9489 21.758 49.2736 22.013 49.5265L24.6433 52.1557C25.1651 52.6745 25.948 52.8206 26.616 52.5232L28.0354 51.8949C28.7378 52.2622 29.4713 52.5668 30.2273 52.8051L30.7804 54.2487C31.0518 54.9333 31.7094 55.3853 32.44 55.3853H36.1557C36.8968 55.3853 37.5542 54.9333 37.8152 54.2487L38.3684 52.8062C39.1279 52.568 39.8649 52.2631 40.5706 51.8949L41.9796 52.5232C42.6476 52.8206 43.4409 52.6747 43.9523 52.1557L46.5826 49.5265C46.8376 49.2736 47.0091 48.9489 47.0744 48.5958C47.1397 48.2426 47.0956 47.878 46.9479 47.5507L46.3216 46.1375C46.4168 45.9576 46.5072 45.7752 46.5928 45.5906C46.7504 45.5335 46.8983 45.4525 47.0313 45.3506L60.9757 34.764L74.7948 40.705C75.1068 40.8399 75.4511 40.8817 75.7863 40.8254C76.1215 40.7691 76.4332 40.617 76.684 40.3876L86.1089 31.8205L86.0777 31.9582C85.8898 32.9196 86.5161 33.8535 87.4762 34.0436C87.5897 34.0656 87.705 34.0768 87.8206 34.0771C88.6452 34.0771 89.3862 33.4916 89.5532 32.6462L90.6284 27.2343C90.6803 26.9764 90.6735 26.7101 90.6085 26.4551C90.5434 26.2002 90.4218 25.9632 90.2527 25.7617C89.9187 25.3505 89.4177 25.1199 88.8854 25.1156L83.364 25.1365C82.3828 25.1396 81.5895 25.9371 81.5999 26.9172C81.5999 27.8952 82.3932 28.6843 83.3744 28.6843L84.2824 28.6812L75.1497 36.9935L61.4244 31.0953C61.1358 30.9717 60.8196 30.9267 60.508 30.9648C60.1964 31.003 59.9004 31.1229 59.6501 31.3124L49.818 38.7846V38.011C49.818 37.2774 49.3587 36.6187 48.6802 36.3546L47.24 35.7992C46.9998 35.0425 46.6867 34.3078 46.3216 33.6032L46.9479 32.1889C47.0956 31.8619 47.1397 31.4976 47.0744 31.1448C47.0091 30.7921 46.8375 30.4677 46.5826 30.2152L43.9523 27.5849C43.4409 27.0662 42.6476 26.92 41.9796 27.2174L40.5706 27.8458C39.8646 27.4784 39.1277 27.1738 38.3684 26.9356L37.8152 25.492C37.5542 24.8074 36.8968 24.3554 36.1557 24.3554H32.44C31.7094 24.3554 31.0518 24.8074 30.7804 25.492L30.2273 26.9356C29.4713 27.1739 28.7378 27.4785 28.0354 27.8458L26.616 27.2174C26.2885 27.0724 25.9248 27.0299 25.5727 27.0955C25.2206 27.1611 24.8966 27.3317 24.6433 27.5849L22.013 30.2152C21.7581 30.4677 21.5865 30.7921 21.5212 31.1448C21.4559 31.4976 21.5 31.8619 21.6477 32.1889L22.274 33.6032C21.9092 34.308 21.6054 35.0426 21.3658 35.7992L19.9254 36.3546C19.5902 36.4829 19.302 36.71 19.0988 37.0058C18.8956 37.3016 18.7871 37.6522 18.7876 38.011V41.7298C18.7872 42.0887 18.8957 42.4391 19.0989 42.7349C19.3021 43.0307 19.5903 43.2577 19.9254 43.3861ZM111.451 76.2599V19.9584C111.451 16.4243 108.581 13.5487 105.043 13.5487H14.9573C11.419 13.5487 8.5487 16.4243 8.5487 19.9584V76.2599C8.5487 79.7928 11.419 82.6695 14.9573 82.6695H105.043C108.581 82.6693 111.451 79.7928 111.451 76.2599ZM74.9514 95.6703H45.0484V86.2182H74.9516V95.6703H74.9514ZM94.386 103.022V106.824H25.6138V103.022C25.6138 100.96 27.9935 99.2188 30.8116 99.2188H89.1881C92.0063 99.219 94.386 100.96 94.386 103.022ZM105.043 10H14.9573C9.46709 10 5 14.4673 5 19.9584V76.2599C5 81.7489 9.46731 86.2182 14.9573 86.2182H41.4994V95.6703H30.8116C25.9895 95.6703 22.0651 98.9686 22.0651 103.023V108.598C22.065 108.831 22.1108 109.062 22.1999 109.277C22.289 109.493 22.4197 109.688 22.5845 109.853C22.7492 110.018 22.9449 110.148 23.1602 110.238C23.3755 110.327 23.6063 110.373 23.8393 110.373H96.1602C96.3933 110.373 96.6241 110.327 96.8394 110.238C97.0548 110.149 97.2504 110.018 97.4152 109.853C97.58 109.688 97.7107 109.493 97.7999 109.277C97.889 109.062 97.9348 108.831 97.9347 108.598V103.023C97.9347 98.9686 94.0101 95.6703 89.1881 95.6703H78.5003V86.2182H105.043C110.533 86.2182 115 81.7489 115 76.2599V19.9584C115 14.4671 110.533 10 105.043 10ZM104.604 68.8837V20.3924H15.3853V68.8835H40.7168V57.3565C40.7168 56.3775 41.5205 55.5822 42.4912 55.5822H49.4216C49.6547 55.5822 49.8854 55.6281 50.1007 55.7172C50.316 55.8064 50.5116 55.937 50.6764 56.1018C50.8411 56.2666 50.9719 56.4622 51.061 56.6774C51.1502 56.8927 51.1961 57.1234 51.1961 57.3565V68.8835H55.4858V45.6604C55.4858 44.6804 56.2791 43.8862 57.2602 43.8862H64.1906C65.1718 43.8862 65.9649 44.6806 65.9649 45.6604V68.8837H70.2546V50.3886C70.2545 50.1555 70.3003 49.9247 70.3894 49.7094C70.4786 49.4941 70.6093 49.2984 70.7741 49.1337C70.9389 48.9689 71.1345 48.8382 71.3499 48.749C71.5652 48.6599 71.796 48.614 72.029 48.6141H78.9594C79.1925 48.614 79.4233 48.6599 79.6386 48.749C79.8539 48.8382 80.0496 48.9689 80.2143 49.1337C80.3791 49.2984 80.5098 49.4941 80.599 49.7094C80.6881 49.9247 80.734 50.1555 80.7339 50.3886V68.8837H85.0236V36.5664C85.0235 36.3333 85.0693 36.1025 85.1584 35.8872C85.2476 35.6719 85.3783 35.4762 85.5431 35.3114C85.7079 35.1466 85.9035 35.0159 86.1189 34.9268C86.3342 34.8377 86.565 34.7918 86.798 34.7919H93.7284C93.9615 34.7918 94.1922 34.8377 94.4076 34.9268C94.6229 35.0159 94.8186 35.1466 94.9833 35.3114C95.1481 35.4762 95.2788 35.6719 95.368 35.8872C95.4571 36.1025 95.503 36.3333 95.5029 36.5664V68.8837H104.604ZM91.9542 68.8837H88.5725V38.3406H91.9542V68.8837ZM77.1852 68.8837H73.8035V52.163H77.1852V68.8837ZM62.4162 68.8837H59.0345V47.4349H62.4162V68.8837ZM47.6576 68.8837H44.2655V59.1309H47.6576V68.8837ZM105.251 16.8437H14.7486C13.1411 16.8437 11.847 18.1495 11.847 19.7537V70.6579C11.847 71.638 12.6403 72.4322 13.6108 72.4322H106.379C106.612 72.4323 106.842 72.3865 107.058 72.2974C107.273 72.2082 107.469 72.0776 107.633 71.9128C107.798 71.748 107.929 71.5524 108.018 71.3371C108.107 71.1218 108.153 70.891 108.153 70.6579V19.7537C108.153 18.1495 106.848 16.8437 105.251 16.8437Z" fill="#222733"/>
</g>
<defs>
<clipPath id="clip0_1149_22465">
<rect width="120" height="120" fill="white"/>
</clipPath>
</defs>
</svg>
