<svg width="120" height="120" viewBox="0 0 120 120" fill="none" xmlns="http://www.w3.org/2000/svg">
<g clip-path="url(#clip0_1152_27089)">
<path d="M31.6129 107.903H10.3226C7.38806 107.903 5 105.515 5 102.581V88.387C5 85.4525 7.38806 83.0645 10.3226 83.0645H31.6129C34.5474 83.0645 36.9355 85.4525 36.9355 88.387V102.581C36.9355 105.515 34.5474 107.903 31.6129 107.903ZM10.3226 86.6128C9.345 86.6128 8.54839 87.4077 8.54839 88.387V102.581C8.54839 103.56 9.345 104.355 10.3226 104.355H31.6129C32.5905 104.355 33.3871 103.56 33.3871 102.581V88.387C33.3871 87.4077 32.5905 86.6128 31.6129 86.6128H10.3226Z" fill="#222733"/>
<path d="M13.8702 106.129H17.4186V113.226H13.8702V106.129ZM24.5154 106.129H28.0638V113.226H24.5154V106.129ZM6.77344 97.2578H35.1605V100.806H6.77344V97.2578Z" fill="#222733"/>
<path d="M10.3223 111.452H31.6108V115H10.3223V111.452ZM70.6448 107.903H49.3545C46.42 107.903 44.0319 105.515 44.0319 102.581V88.387C44.0319 85.4525 46.42 83.0645 49.3545 83.0645H70.6448C73.5794 83.0645 75.9674 85.4525 75.9674 88.387V102.581C75.9674 105.515 73.5794 107.903 70.6448 107.903ZM49.3545 86.6128C48.3769 86.6128 47.5803 87.4077 47.5803 88.387V102.581C47.5803 103.56 48.3769 104.355 49.3545 104.355H70.6448C71.6224 104.355 72.419 103.56 72.419 102.581V88.387C72.419 87.4077 71.6224 86.6128 70.6448 86.6128H49.3545Z" fill="#222733"/>
<path d="M52.9034 106.129H56.4518V113.226H52.9034V106.129ZM63.5486 106.129H67.097V113.226H63.5486V106.129ZM45.8066 97.2578H74.1937V100.806H45.8066V97.2578Z" fill="#222733"/>
<path d="M49.3555 111.452H70.644V115H49.3555V111.452ZM109.678 107.903H88.3877C85.4532 107.903 83.0651 105.515 83.0651 102.581V88.387C83.0651 85.4525 85.4532 83.0645 88.3877 83.0645H109.678C112.613 83.0645 115.001 85.4525 115.001 88.387V102.581C115.001 105.515 112.613 107.903 109.678 107.903ZM88.3877 86.6128C87.4101 86.6128 86.6135 87.4077 86.6135 88.387V102.581C86.6135 103.56 87.4101 104.355 88.3877 104.355H109.678C110.656 104.355 111.452 103.56 111.452 102.581V88.387C111.452 87.4077 110.656 86.6128 109.678 86.6128H88.3877Z" fill="#222733"/>
<path d="M91.9347 106.129H95.4831V113.226H91.9347V106.129ZM102.58 106.129H106.128V113.226H102.58V106.129ZM84.8379 97.2578H113.225V100.806H84.8379V97.2578Z" fill="#222733"/>
<path d="M88.3867 111.451H109.675V115H88.3867V111.451Z" fill="#222733"/>
<path d="M84.838 12.0967C72.0992 12.0967 61.7734 22.4225 61.7734 35.1612C61.7734 35.4717 61.8071 35.7733 61.8196 36.082C62.7581 38.1862 63.3507 40.4802 63.4909 42.8985C64.6461 42.4765 65.8662 42.2598 67.096 42.258C69.9193 42.258 72.6269 43.3795 74.6233 45.3759C76.6196 47.3722 77.7412 50.0799 77.7412 52.9031C77.7412 54.2888 77.468 55.6105 76.9854 56.8259C79.4409 57.7147 82.0755 58.2257 84.838 58.2257C97.5767 58.2257 107.902 47.8999 107.902 35.1612C107.902 22.4225 97.5767 12.0967 84.838 12.0967Z" fill="#0099A3"/>
<path d="M35.1622 90.1613H45.8073V93.7097H35.1622V90.1613ZM74.1944 90.1613H84.8396V93.7097H74.1944V90.1613ZM115.001 35.1613C115.001 18.53 101.471 5 84.8396 5C71.487 5 59.7631 13.8639 55.9664 26.434C52.4513 24.0295 48.292 22.7426 44.0331 22.7419C33.4625 22.7419 24.6909 30.3053 23.032 40.5726C16.8809 41.3089 12.0977 46.5587 12.0977 52.9032C12.0977 59.7498 17.6686 65.3226 24.517 65.3226H29.8396V72.4194H19.1944V84.8387H22.7428V75.9677H33.388V65.3226H58.2267V84.8387H61.7751V65.3226H67.0977C69.6259 65.3226 71.9785 64.5597 73.9425 63.2556C77.4145 64.6172 81.1102 65.3182 84.8396 65.3226C85.4393 65.3226 86.023 65.2676 86.6138 65.2321V75.9677H97.2589V84.8387H100.807V72.4194H90.1622V64.824C104.26 62.2994 115.001 49.974 115.001 35.1613ZM93.8844 60.1579C95.726 57.8036 97.2696 54.7182 98.437 51.129H106.08C102.974 55.255 98.7375 58.3913 93.8844 60.1579ZM72.8638 41.9139C72.6586 40.2613 72.5313 38.6 72.4823 36.9355H97.2164C97.0922 40.7358 96.5883 44.3498 95.7686 47.5806H78.3017C77.1455 45.1561 75.2386 43.1689 72.8638 41.9139ZM68.9339 36.9355C68.9712 38.1952 69.0457 39.4389 69.1646 40.6702C68.482 40.5504 67.7906 40.4881 67.0977 40.4839C66.4075 40.4839 65.7173 40.5424 65.0325 40.6613C64.8304 39.3932 64.5133 38.1461 64.0851 36.9355H68.9339ZM84.8396 8.54839C88.7996 8.54839 92.387 12.7834 94.6793 19.1935H74.9999C77.2922 12.7834 80.8796 8.54839 84.8396 8.54839ZM95.7669 22.7419C96.5865 25.9727 97.0904 29.5868 97.2146 33.3871H72.4628C72.587 29.5868 73.0909 25.9727 73.9106 22.7419H95.7669ZM111.362 33.3871H100.761C100.649 29.5921 100.19 26.0065 99.427 22.7419H108.358C110.1 26.0384 111.124 29.6664 111.362 33.3871ZM100.761 36.9355H111.362C111.124 40.6562 110.1 44.2842 108.358 47.5806H99.427C100.19 44.3161 100.649 40.7305 100.761 36.9355ZM106.08 19.1935H98.437C97.2696 15.6044 95.726 12.519 93.8844 10.1647C98.7375 11.9313 102.974 15.0676 106.08 19.1935ZM75.816 10.1345C73.9656 12.4924 72.4149 15.5884 71.2422 19.1935H63.5706C66.6917 15.0545 70.9449 11.908 75.816 10.1345ZM61.3209 22.7419H70.2522C69.4893 26.0065 69.0298 29.5921 68.918 33.3871H62.4439C61.4959 31.7507 60.3343 30.2477 58.9896 28.9179C59.5031 26.7691 60.2864 24.694 61.3209 22.7419ZM24.517 61.7742C19.6256 61.7742 15.646 57.7947 15.646 52.9032C15.646 48.0135 19.6238 44.034 24.501 44.034H24.5046L26.2185 44.1334L26.3728 42.4231C26.7513 38.007 28.7783 33.8953 32.0507 30.906C35.3231 27.9166 39.601 26.2688 44.0331 26.2903C53.4115 26.2903 61.1807 33.6302 61.7201 42.9997L61.8567 45.3718L64.0922 44.5681C65.0555 44.217 66.0724 44.0357 67.0977 44.0323C71.9891 44.0323 75.9686 48.0118 75.9686 52.9032C75.9686 57.7947 71.9891 61.7742 67.0977 61.7742H24.517ZM76.8593 60.5553C78.5805 58.3761 79.5169 55.6802 79.517 52.9032C79.517 52.3 79.4585 51.711 79.3751 51.129H94.6793C92.387 57.5392 88.7996 61.7742 84.8396 61.7742C82.1328 61.7783 79.4414 61.3672 76.8593 60.5553Z" fill="#222733"/>
<path d="M31.6136 47.5808C28.6791 47.5808 26.291 49.9689 26.291 52.9034C26.291 55.8379 28.6791 58.226 31.6136 58.226C34.5481 58.226 36.9362 55.8379 36.9362 52.9034C36.9362 49.9689 34.5481 47.5808 31.6136 47.5808ZM31.6136 54.6776C31.1568 54.6571 30.7254 54.4613 30.4094 54.1308C30.0934 53.8003 29.917 53.3607 29.917 52.9034C29.917 52.4461 30.0934 52.0065 30.4094 51.676C30.7254 51.3455 31.1568 51.1496 31.6136 51.1292C32.0704 51.1496 32.5017 51.3455 32.8178 51.676C33.1338 52.0065 33.3102 52.4461 33.3102 52.9034C33.3102 53.3607 33.1338 53.8003 32.8178 54.1308C32.5017 54.4613 32.0704 54.6571 31.6136 54.6776ZM45.8071 47.5808C42.8726 47.5808 40.4846 49.9689 40.4846 52.9034C40.4846 55.8379 42.8726 58.226 45.8071 58.226C48.7417 58.226 51.1297 55.8379 51.1297 52.9034C51.1297 49.9689 48.7417 47.5808 45.8071 47.5808ZM45.8071 54.6776C45.3503 54.6571 44.919 54.4613 44.603 54.1308C44.2869 53.8003 44.1105 53.3607 44.1105 52.9034C44.1105 52.4461 44.2869 52.0065 44.603 51.676C44.919 51.3455 45.3503 51.1496 45.8071 51.1292C46.264 51.1496 46.6953 51.3455 47.0113 51.676C47.3274 52.0065 47.5038 52.4461 47.5038 52.9034C47.5038 53.3607 47.3274 53.8003 47.0113 54.1308C46.6953 54.4613 46.264 54.6571 45.8071 54.6776ZM60.0007 47.5808C57.0662 47.5808 54.6781 49.9689 54.6781 52.9034C54.6781 55.8379 57.0662 58.226 60.0007 58.226C62.9352 58.226 65.3233 55.8379 65.3233 52.9034C65.3233 49.9689 62.9352 47.5808 60.0007 47.5808ZM60.0007 54.6776C59.5439 54.6571 59.1125 54.4613 58.7965 54.1308C58.4805 53.8003 58.3041 53.3607 58.3041 52.9034C58.3041 52.4461 58.4805 52.0065 58.7965 51.676C59.1125 51.3455 59.5439 51.1496 60.0007 51.1292C60.4575 51.1496 60.8888 51.3455 61.2049 51.676C61.5209 52.0065 61.6973 52.4461 61.6973 52.9034C61.6973 53.3607 61.5209 53.8003 61.2049 54.1308C60.8888 54.4613 60.4575 54.6571 60.0007 54.6776ZM44.033 29.8389V33.3873C48.7097 33.3873 52.9057 36.5134 54.2363 40.9897L57.6375 39.9784C55.8615 34.0082 50.2675 29.8389 44.033 29.8389Z" fill="#222733"/>
</g>
<defs>
<clipPath id="clip0_1152_27089">
<rect width="120" height="120" fill="white"/>
</clipPath>
</defs>
</svg>
