<svg width="120" height="120" viewBox="0 0 120 120" fill="none" xmlns="http://www.w3.org/2000/svg">
<g clip-path="url(#clip0_1152_27067)">
<path fill-rule="evenodd" clip-rule="evenodd" d="M102.247 28.8496V94.4633L94.4677 102.243H16.0101C14.8053 102.243 13.6124 102.006 12.4993 101.545C11.3862 101.084 10.3749 100.408 9.52299 99.556C7.8025 97.8355 6.83594 95.502 6.83594 93.0689V28.8496H102.247Z" fill="white"/>
<path fill-rule="evenodd" clip-rule="evenodd" d="M96.7446 28.8496V94.4633L88.9648 102.243H94.4694L102.249 94.4633V28.8496H96.7446Z" fill="white"/>
<path fill-rule="evenodd" clip-rule="evenodd" d="M102.247 16.0023V28.8462H6.83594V16.0023C6.83594 13.5692 7.8025 11.2357 9.52299 9.51518C11.2435 7.79469 13.577 6.82813 16.0101 6.82812H93.0732C94.278 6.82812 95.471 7.06542 96.5841 7.52647C97.6971 7.98751 98.7085 8.66328 99.5604 9.51518C100.412 10.3671 101.088 11.3784 101.549 12.4915C102.01 13.6046 102.247 14.7975 102.247 16.0023Z" fill="#0099A3"/>
<path fill-rule="evenodd" clip-rule="evenodd" d="M93.0729 6.82812H87.5684C88.7731 6.82812 89.9661 7.06542 91.0792 7.52647C92.1922 7.98751 93.2036 8.66328 94.0555 9.51518C94.9074 10.3671 95.5831 11.3784 96.0442 12.4915C96.5052 13.6046 96.7425 14.7975 96.7425 16.0023V28.8462H102.247V16.0023C102.247 14.7975 102.01 13.6046 101.549 12.4915C101.088 11.3784 100.412 10.3671 99.56 9.51518C98.7081 8.66328 97.6967 7.98751 96.5837 7.52647C95.4706 7.06542 94.2776 6.82813 93.0729 6.82812Z" fill="#0099A3"/>
<path d="M17.8435 21.5132C19.8702 21.5132 21.5132 19.8702 21.5132 17.8435C21.5132 15.8168 19.8702 14.1738 17.8435 14.1738C15.8168 14.1738 14.1738 15.8168 14.1738 17.8435C14.1738 19.8702 15.8168 21.5132 17.8435 21.5132Z" fill="white"/>
<path d="M32.5193 21.5132C34.546 21.5132 36.189 19.8702 36.189 17.8435C36.189 15.8168 34.546 14.1738 32.5193 14.1738C30.4926 14.1738 28.8496 15.8168 28.8496 17.8435C28.8496 19.8702 30.4926 21.5132 32.5193 21.5132Z" fill="white"/>
<path d="M47.2029 21.5132C49.2296 21.5132 50.8725 19.8702 50.8725 17.8435C50.8725 15.8168 49.2296 14.1738 47.2029 14.1738C45.1762 14.1738 43.5332 15.8168 43.5332 17.8435C43.5332 19.8702 45.1762 21.5132 47.2029 21.5132Z" fill="#0099A3"/>
<path fill-rule="evenodd" clip-rule="evenodd" d="M91.2409 21.5132C92.2142 21.5132 93.1476 21.1265 93.8358 20.4384C94.524 19.7502 94.9106 18.8168 94.9106 17.8435C94.9106 16.8702 94.524 15.9368 93.8358 15.2487C93.1476 14.5605 92.2142 14.1738 91.2409 14.1738H76.5623C75.589 14.1738 74.6556 14.5605 73.9674 15.2487C73.2792 15.9368 72.8926 16.8702 72.8926 17.8435C72.8926 18.8168 73.2792 19.7502 73.9674 20.4384C74.6556 21.1265 75.589 21.5132 76.5623 21.5132H91.2409Z" fill="#0099A3"/>
<path fill-rule="evenodd" clip-rule="evenodd" d="M94.9101 65.5527C94.9079 66.472 94.8589 67.3906 94.7633 68.305C94.7096 68.6936 94.5327 69.0547 94.2586 69.3354C93.9845 69.6161 93.6276 69.8016 93.2404 69.8646L88.8735 70.5802C88.2599 73.3855 87.1474 76.0579 85.5891 78.47L88.1763 82.0846C88.4455 82.4412 88.564 82.8892 88.5065 83.3323C88.4908 83.6729 88.3689 84.0001 88.1579 84.268C87.5744 84.9781 86.9561 85.657 86.3047 86.3047C85.6442 86.9653 84.9653 87.5708 84.2681 88.1579C84.0001 88.3689 83.6729 88.4907 83.3323 88.5065C82.8894 88.5617 82.4422 88.4433 82.0846 88.1763L78.47 85.5891C76.0579 87.1474 73.3855 88.2599 70.5802 88.8735L69.8646 93.2404C69.8055 93.6293 69.6213 93.9883 69.3399 94.2631C69.0585 94.5379 68.6952 94.7135 68.305 94.7633C66.4754 94.9591 64.6301 94.9591 62.8005 94.7633C62.4103 94.7135 62.047 94.5379 61.7655 94.2631C61.4841 93.9883 61.2999 93.6293 61.2409 93.2404L60.5253 88.8735C57.7199 88.2599 55.0476 87.1474 52.6355 85.5891L49.0208 88.1763C48.7041 88.4103 48.3199 88.5351 47.9261 88.5318C47.5322 88.5285 47.1502 88.3972 46.8374 88.1579C46.1402 87.5708 45.4613 86.9653 44.8007 86.3047C44.1492 85.6574 43.5306 84.9777 42.9475 84.268C42.7082 83.9553 42.577 83.5732 42.5737 83.1794C42.5704 82.7856 42.6951 82.4013 42.9292 82.0846L45.5163 78.47C43.958 76.0579 42.8456 73.3855 42.232 70.5802L37.865 69.8646C37.4778 69.8016 37.121 69.6161 36.8469 69.3354C36.5728 69.0547 36.3959 68.6936 36.3421 68.305C36.1464 66.4754 36.1464 64.6301 36.3421 62.8005C36.3919 62.4103 36.5675 62.047 36.8423 61.7655C37.1171 61.4841 37.4762 61.2999 37.865 61.2409L42.232 60.5253C42.8448 57.7198 43.9567 55.0483 45.5163 52.6355L42.9292 49.0208C42.6951 48.7041 42.5704 48.3199 42.5737 47.9261C42.577 47.5322 42.7082 47.1502 42.9475 46.8374C43.5255 46.1236 44.1439 45.4429 44.8007 44.8007C45.4484 44.1494 46.1273 43.531 46.8374 42.9475C47.1502 42.7082 47.5322 42.577 47.9261 42.5737C48.3199 42.5704 48.7041 42.6951 49.0208 42.9292L52.6355 45.5163C55.0476 43.958 57.7199 42.8456 60.5253 42.232L61.2409 37.865C61.2999 37.4762 61.4841 37.1171 61.7655 36.8423C62.047 36.5675 62.4103 36.3919 62.8005 36.3421C64.6301 36.1464 66.4754 36.1464 68.305 36.3421C68.6952 36.3919 69.0585 36.5675 69.3399 36.8423C69.6213 37.1171 69.8055 37.4762 69.8646 37.865L70.5802 42.232C73.3856 42.8448 76.0572 43.9567 78.47 45.5163L82.0846 42.9292C82.4013 42.6951 82.7856 42.5704 83.1794 42.5737C83.5732 42.577 83.9553 42.7082 84.2681 42.9475C84.9781 43.531 85.657 44.1494 86.3047 44.8007C86.9616 45.4429 87.5799 46.1236 88.1579 46.8374C88.3973 47.1502 88.5285 47.5322 88.5318 47.9261C88.5351 48.3199 88.4103 48.7041 88.1763 49.0208L85.5891 52.6355C87.1474 55.0476 88.2599 57.7199 88.8735 60.5253L93.2404 61.2409C93.6293 61.2999 93.9883 61.4841 94.2631 61.7655C94.5379 62.047 94.7135 62.4103 94.7633 62.8005C94.8587 63.7142 94.9083 64.6335 94.9101 65.5527Z" fill="#0099A3"/>
<path fill-rule="evenodd" clip-rule="evenodd" d="M111.639 111.638C111.129 112.15 110.523 112.556 109.855 112.833C109.188 113.11 108.472 113.253 107.749 113.253C107.027 113.253 106.311 113.11 105.644 112.833C104.976 112.556 104.37 112.15 103.86 111.638L91.8231 99.6018C90.8507 98.5583 90.3214 97.1782 90.3466 95.7521C90.3717 94.3261 90.9494 92.9655 91.9579 91.957C92.9665 90.9484 94.3271 90.3707 95.7531 90.3456C97.1792 90.3204 98.5593 90.8498 99.6028 91.8221L111.639 103.859C112.67 104.891 113.249 106.29 113.249 107.748C113.249 109.207 112.67 110.606 111.639 111.638Z" fill="#0099A3"/>
<path fill-rule="evenodd" clip-rule="evenodd" d="M111.644 103.863L99.6073 91.8266C98.7528 90.9675 97.6365 90.4177 96.4347 90.2639C95.2328 90.11 94.014 90.3609 92.9707 90.977C93.3835 91.21 93.7634 91.4944 94.1028 91.8266L106.139 103.863C107.17 104.895 107.749 106.294 107.749 107.753C107.749 109.212 107.17 110.611 106.139 111.643C105.8 111.979 105.418 112.267 105.002 112.5C106.155 113.17 107.514 113.397 108.823 113.14C110.132 112.882 111.303 112.156 112.116 111.099C112.929 110.041 113.33 108.723 113.243 107.392C113.156 106.06 112.588 104.806 111.644 103.863Z" fill="#0099A3"/>
<path fill-rule="evenodd" clip-rule="evenodd" d="M95.4033 90.2203C94.0546 90.293 92.7803 90.8615 91.8253 91.8165C90.8702 92.7716 90.3018 94.0458 90.2291 95.3945L83.3301 88.4955C83.6707 88.4798 83.9979 88.3579 84.2658 88.1469C84.9631 87.5598 85.642 86.9543 86.3025 86.2937C86.9539 85.646 87.5722 84.9671 88.1557 84.2571C88.3667 83.9891 88.4885 83.6619 88.5043 83.3213L95.4033 90.2203Z" fill="#0099A3"/>
<path d="M65.5487 82.07C74.6689 82.07 82.0622 74.6767 82.0622 65.5565C82.0622 56.4363 74.6689 49.043 65.5487 49.043C56.4285 49.043 49.0352 56.4363 49.0352 65.5565C49.0352 74.6767 56.4285 82.07 65.5487 82.07Z" fill="white"/>
<path fill-rule="evenodd" clip-rule="evenodd" d="M80.2121 86.8373L82.0818 88.1768C82.3985 88.4108 82.7828 88.5356 83.1766 88.5323C83.5704 88.529 83.9525 88.3978 84.2652 88.1584C84.9625 87.5713 85.6414 86.9658 86.3019 86.3052C86.9533 85.6576 87.5716 84.9787 88.1551 84.2686C88.3944 83.9558 88.5256 83.5737 88.529 83.1799C88.5323 82.7861 88.4075 82.4019 88.1734 82.0851L85.5863 78.4705L85.6542 78.3531C86.9953 76.2481 87.9954 73.9445 88.6175 71.5275C88.7019 71.21 88.801 70.9018 88.8707 70.5807L93.2376 69.8651C93.6248 69.8021 93.9817 69.6167 94.2557 69.336C94.5298 69.0553 94.7067 68.6941 94.7605 68.3055C94.9562 66.4759 94.9562 64.6306 94.7605 62.801C94.7107 62.4108 94.5351 62.0475 94.2603 61.7661C93.9855 61.4846 93.6265 61.3004 93.2376 61.2414L88.8707 60.5258C88.801 60.2047 88.7019 59.8946 88.6175 59.579C87.9957 57.1613 86.9956 54.857 85.6542 52.7516C85.6304 52.7149 85.6102 52.6727 85.5863 52.636L88.1734 49.0214C88.4075 48.7046 88.5323 48.3204 88.529 47.9266C88.5256 47.5328 88.3944 47.1507 88.1551 46.8379C87.5771 46.1242 86.9588 45.4434 86.3019 44.8012C85.6546 44.1497 84.9748 43.5312 84.2652 42.9481C83.9525 42.7087 83.5704 42.5775 83.1766 42.5742C82.7828 42.5709 82.3985 42.6957 82.0818 42.9297L80.2121 44.2673L69.1113 42.3242L70.7095 44.2233C74.6721 46.202 78.0051 49.2455 80.3347 53.0126C82.6643 56.7797 83.8983 61.1213 83.8983 65.5505C83.8983 69.9797 82.6643 74.3213 80.3347 78.0884C78.0051 81.8555 74.6721 84.899 70.7095 86.8777L70.915 88.797L80.2121 86.8373Z" fill="#0099A3"/>
<path d="M16.009 104.081H93.7033L102.562 112.94C103.946 114.277 105.8 115.016 107.724 115C109.649 114.983 111.49 114.211 112.85 112.85C114.211 111.49 114.983 109.649 115 107.724C115.016 105.8 114.277 103.946 112.94 102.562L104.081 93.7033V16.009C104.078 13.0901 102.917 10.2916 100.853 8.22769C98.7895 6.16373 95.991 5.00291 93.0722 5H16.009C13.0901 5.00291 10.2916 6.16373 8.22769 8.22769C6.16373 10.2916 5.00291 13.0901 5 16.009L5 93.0722C5.00291 95.991 6.16373 98.7895 8.22769 100.853C10.2916 102.917 13.0901 104.078 16.009 104.081ZM8.66967 93.0722V30.6877H100.411V90.1364C99.2333 89.1719 97.7825 88.6008 96.2629 88.5034L90.2612 82.5017C90.1787 81.9697 89.9753 81.4638 89.6667 81.0228L87.786 78.3935C88.9126 76.4497 89.7793 74.3665 90.3639 72.1972L93.529 71.678C94.3163 71.5503 95.0405 71.1696 95.592 70.5935C96.1436 70.0174 96.4925 69.2774 96.5859 68.4853C96.795 66.5258 96.795 64.5496 96.5859 62.59C96.4898 61.8032 96.1403 61.069 95.5902 60.4984C95.04 59.9277 94.3191 59.5516 93.5364 59.4268L90.3658 58.9057C89.7808 56.735 88.9135 54.6506 87.786 52.7057L89.663 50.0856C90.1306 49.4398 90.3751 48.6592 90.3595 47.862C90.344 47.0648 90.0692 46.2944 89.5768 45.6673C88.9586 44.9079 88.2989 44.1832 87.6007 43.4967C86.8964 42.7869 86.1566 42.1133 85.3842 41.4784C84.7598 40.9976 83.9964 40.7322 83.2084 40.7219C82.4204 40.7116 81.6503 40.9571 81.0136 41.4215L78.3935 43.3132C76.4497 42.1866 74.3665 41.3199 72.1972 40.7353L71.678 37.5702C71.552 36.7822 71.1718 36.057 70.5954 35.5052C70.0191 34.9533 69.278 34.605 68.4853 34.5133C66.5258 34.3042 64.5496 34.3042 62.59 34.5133C61.8032 34.6094 61.069 34.9589 60.4984 35.509C59.9277 36.0592 59.5516 36.7801 59.4268 37.5628L58.9057 40.7334C56.735 41.3184 54.6506 42.1857 52.7057 43.3132L50.0856 41.4362C49.4398 40.9686 48.6592 40.7241 47.862 40.7397C47.0648 40.7552 46.2944 41.03 45.6673 41.5224C44.9177 42.1394 44.1994 42.7934 43.5151 43.482C42.7995 44.1793 42.1261 44.9187 41.4967 45.6948C40.4986 46.9792 40.4692 48.7682 41.4233 50.0856L43.3132 52.7057C42.1866 54.6495 41.3199 56.7327 40.7353 58.902L37.5702 59.4212C36.7822 59.5472 36.057 59.9274 35.5052 60.5038C34.9533 61.0802 34.605 61.8212 34.5133 62.6139C34.3029 64.5752 34.3029 66.5534 34.5133 68.5147C34.6104 69.3003 34.9601 70.033 35.5098 70.6025C36.0595 71.1721 36.7794 71.5476 37.561 71.6725L40.7316 72.1935C41.3171 74.3643 42.1851 76.4487 43.3132 78.3935L41.4509 80.9934C40.9781 81.6402 40.7293 82.4236 40.7422 83.2247C40.7551 84.0257 41.0291 84.8007 41.5224 85.4319C42.1096 86.1493 42.7756 86.8796 43.4985 87.6025C44.1279 88.2319 44.8123 88.8557 45.715 89.6208C46.9976 90.608 48.7792 90.63 50.0856 89.6777L52.7057 87.786C54.6495 88.9126 56.7327 89.7793 58.902 90.3639L59.4212 93.529C59.5472 94.317 59.9274 95.0422 60.5038 95.5941C61.0802 96.1459 61.8212 96.4942 62.6139 96.5859C64.5735 96.795 66.5496 96.795 68.5092 96.5859C69.296 96.4898 70.0302 96.1403 70.6009 95.5902C71.1715 95.04 71.5477 94.3191 71.6725 93.5364L72.1935 90.3658C74.3642 89.7808 76.4486 88.9135 78.3935 87.786L81.0136 89.663C81.4576 89.9676 81.9622 90.1694 82.4925 90.2557L88.4208 96.1914C88.5181 97.7436 89.1144 99.2244 90.1199 100.411H16.009C14.0625 100.411 12.1957 99.6382 10.8193 98.2618C9.44292 96.8855 8.66967 95.0187 8.66967 93.0722ZM90.5236 90.5236C90.0979 90.9639 89.7272 91.4593 89.4227 91.9914L86.2649 88.852C86.7438 88.4245 87.1915 88.0117 87.597 87.608C88.041 87.164 88.4245 86.7071 88.8263 86.2539L92.0098 89.4373C91.4685 89.7309 90.9676 90.0979 90.5236 90.5236ZM47.0545 77.476C45.6142 75.2491 44.5868 72.781 44.0215 70.1899C43.9426 69.8313 43.7579 69.5046 43.4913 69.252C43.2247 68.9995 42.8885 68.8328 42.5261 68.7734L38.1647 68.1184C37.9855 66.4333 37.9836 64.7341 38.1592 63.0487L42.5261 62.3313C42.8885 62.2719 43.2247 62.1052 43.4913 61.8527C43.7579 61.6002 43.9426 61.2734 44.0215 60.9148C44.5866 58.3222 45.6141 55.8507 47.0545 53.6232C47.2546 53.314 47.357 52.9519 47.3485 52.5837C47.34 52.2156 47.2209 51.8585 47.0067 51.559L44.3646 47.9902C44.9077 47.3286 45.4872 46.6977 46.1003 46.1003C46.6875 45.5077 47.3058 44.9481 47.9535 44.4251L51.5681 47.0141C51.8677 47.2283 52.2248 47.3473 52.5929 47.3558C52.961 47.3643 53.3232 47.2619 53.6323 47.0618C55.8592 45.6215 58.3274 44.5941 60.9185 44.0288C61.2771 43.9499 61.6038 43.7652 61.8564 43.4986C62.1089 43.232 62.2756 42.8958 62.335 42.5334L62.9863 38.172C64.6708 37.9922 66.3697 37.9922 68.0542 38.172L68.7716 42.5389C68.8309 42.9013 68.9977 43.2375 69.2502 43.5041C69.5027 43.7707 69.8294 43.9554 70.1881 44.0343C72.7789 44.5958 75.2486 45.6178 77.476 47.0545C77.7852 47.2546 78.1473 47.357 78.5155 47.3485C78.8836 47.34 79.2407 47.2209 79.5402 47.0067L83.109 44.3646C83.7769 44.915 84.4172 45.5003 85.0282 46.115C85.6154 46.6912 86.1677 47.304 86.6796 47.9499L84.0906 51.5645C83.8779 51.8637 83.7598 52.2198 83.7517 52.5868C83.7435 52.9538 83.8456 53.3148 84.0448 53.6232C85.485 55.8501 86.5124 58.3182 87.0777 60.9093C87.1566 61.2679 87.3413 61.5947 87.6079 61.8472C87.8745 62.0997 88.2108 62.2664 88.5731 62.3258L92.9345 62.9772C93.114 64.6634 93.1158 66.3638 92.94 68.0505L88.5731 68.7679C88.2108 68.8273 87.8745 68.994 87.6079 69.2465C87.3413 69.4991 87.1566 69.8258 87.0777 70.1844C86.5131 72.7774 85.4857 75.2475 84.0448 77.476C83.8447 77.7852 83.7422 78.1473 83.7507 78.5155C83.7592 78.8836 83.8783 79.2407 84.0925 79.5402L86.7346 83.109C85.6581 84.4148 84.4574 85.6131 83.1494 86.6869L79.5347 84.098C79.2363 83.8842 78.8806 83.7648 78.5136 83.7553C78.1465 83.7458 77.7851 83.8466 77.476 84.0448C75.2491 85.485 72.781 86.5124 70.1899 87.0777C69.8313 87.1566 69.5046 87.3413 69.252 87.6079C68.9995 87.8745 68.8328 88.2108 68.7734 88.5731L68.1184 92.9345C66.434 93.1143 64.7349 93.1143 63.0506 92.9345L62.3331 88.5676C62.2738 88.2052 62.107 87.869 61.8545 87.6024C61.602 87.3358 61.2753 87.1511 60.9166 87.0722C58.3233 86.5095 55.8527 85.4839 53.6232 84.0448C53.314 83.8447 52.9519 83.7422 52.5837 83.7507C52.2156 83.7592 51.8585 83.8783 51.559 84.0925L48.0104 86.753C47.3535 86.2025 46.7132 85.6282 46.0875 85.0025C45.4948 84.4154 44.9352 83.7971 44.4123 83.1494L47.0012 79.5347C47.2151 79.2363 47.3344 78.8806 47.3439 78.5136C47.3534 78.1465 47.2526 77.7851 47.0545 77.476ZM110.345 110.345C109.647 111.013 108.717 111.385 107.751 111.385C106.784 111.385 105.855 111.013 105.156 110.345L93.118 98.3088C92.7772 97.9679 92.5068 97.5633 92.3224 97.118C92.1379 96.6727 92.043 96.1954 92.043 95.7134C92.043 95.2314 92.1379 94.7541 92.3224 94.3088C92.5068 93.8635 92.7772 93.4589 93.118 93.118C93.4589 92.7772 93.8635 92.5068 94.3088 92.3224C94.7541 92.1379 95.2314 92.043 95.7134 92.043C96.1954 92.043 96.6727 92.1379 97.118 92.3224C97.5633 92.5068 97.9679 92.7772 98.3088 93.118L110.345 105.156C111.033 105.845 111.42 106.778 111.42 107.751C111.42 108.724 111.033 109.657 110.345 110.345ZM16.009 8.66967H93.0722C95.0187 8.66967 96.8855 9.44292 98.2618 10.8193C99.6382 12.1957 100.411 14.0625 100.411 16.009V27.018H8.66967V16.009C8.66967 14.0625 9.44292 12.1957 10.8193 10.8193C12.1957 9.44292 14.0625 8.66967 16.009 8.66967Z" fill="#222733"/>
<path d="M17.8424 23.3557C18.5653 23.3557 19.281 23.2133 19.9489 22.9367C20.6167 22.6601 21.2235 22.2546 21.7347 21.7435C22.2458 21.2323 22.6513 20.6255 22.9279 19.9577C23.2045 19.2898 23.3469 18.5741 23.3469 17.8512C23.3469 17.1283 23.2045 16.4125 22.9279 15.7447C22.6513 15.0769 22.2458 14.4701 21.7347 13.9589C21.2235 13.4478 20.6167 13.0423 19.9489 12.7657C19.281 12.4891 18.5653 12.3467 17.8424 12.3467C16.3825 12.3467 14.9824 12.9266 13.9501 13.9589C12.9178 14.9912 12.3379 16.3913 12.3379 17.8512C12.3379 19.3111 12.9178 20.7112 13.9501 21.7435C14.9824 22.7758 16.3825 23.3557 17.8424 23.3557ZM17.8424 16.0164C18.329 16.0164 18.7957 16.2097 19.1398 16.5538C19.4839 16.8979 19.6772 17.3646 19.6772 17.8512C19.6772 18.3378 19.4839 18.8045 19.1398 19.1486C18.7957 19.4927 18.329 19.686 17.8424 19.686C17.3558 19.686 16.8891 19.4927 16.545 19.1486C16.2009 18.8045 16.0076 18.3378 16.0076 17.8512C16.0076 17.3646 16.2009 16.8979 16.545 16.5538C16.8891 16.2097 17.3558 16.0164 17.8424 16.0164ZM32.5211 23.3557C33.244 23.3557 33.9597 23.2133 34.6276 22.9367C35.2954 22.6601 35.9022 22.2546 36.4134 21.7435C36.9245 21.2323 37.33 20.6255 37.6066 19.9577C37.8832 19.2898 38.0256 18.5741 38.0256 17.8512C38.0256 17.1283 37.8832 16.4125 37.6066 15.7447C37.33 15.0769 36.9245 14.4701 36.4134 13.9589C35.9022 13.4478 35.2954 13.0423 34.6276 12.7657C33.9597 12.4891 33.244 12.3467 32.5211 12.3467C31.0612 12.3467 29.6611 12.9266 28.6288 13.9589C27.5965 14.9912 27.0166 16.3913 27.0166 17.8512C27.0166 19.3111 27.5965 20.7112 28.6288 21.7435C29.6611 22.7758 31.0612 23.3557 32.5211 23.3557ZM32.5211 16.0164C33.0077 16.0164 33.4744 16.2097 33.8185 16.5538C34.1626 16.8979 34.3559 17.3646 34.3559 17.8512C34.3559 18.3378 34.1626 18.8045 33.8185 19.1486C33.4744 19.4927 33.0077 19.686 32.5211 19.686C32.0345 19.686 31.5678 19.4927 31.2237 19.1486C30.8796 18.8045 30.6863 18.3378 30.6863 17.8512C30.6863 17.3646 30.8796 16.8979 31.2237 16.5538C31.5678 16.2097 32.0345 16.0164 32.5211 16.0164ZM47.1998 23.3557C47.9226 23.3557 48.6384 23.2133 49.3063 22.9367C49.9741 22.6601 50.5809 22.2546 51.0921 21.7435C51.6032 21.2323 52.0087 20.6255 52.2853 19.9577C52.5619 19.2898 52.7043 18.5741 52.7043 17.8512C52.7043 17.1283 52.5619 16.4125 52.2853 15.7447C52.0087 15.0769 51.6032 14.4701 51.0921 13.9589C50.5809 13.4478 49.9741 13.0423 49.3063 12.7657C48.6384 12.4891 47.9226 12.3467 47.1998 12.3467C45.7399 12.3467 44.3398 12.9266 43.3075 13.9589C42.2752 14.9912 41.6953 16.3913 41.6953 17.8512C41.6953 19.3111 42.2752 20.7112 43.3075 21.7435C44.3398 22.7758 45.7399 23.3557 47.1998 23.3557ZM47.1998 16.0164C47.6864 16.0164 48.1531 16.2097 48.4972 16.5538C48.8413 16.8979 49.0346 17.3646 49.0346 17.8512C49.0346 18.3378 48.8413 18.8045 48.4972 19.1486C48.1531 19.4927 47.6864 19.686 47.1998 19.686C46.7132 19.686 46.2465 19.4927 45.9024 19.1486C45.5583 18.8045 45.3649 18.3378 45.3649 17.8512C45.3649 17.3646 45.5583 16.8979 45.9024 16.5538C46.2465 16.2097 46.7132 16.0164 47.1998 16.0164ZM76.5572 23.3557H91.2359C92.6957 23.3557 94.0958 22.7758 95.1281 21.7435C96.1604 20.7112 96.7404 19.3111 96.7404 17.8512C96.7404 16.3913 96.1604 14.9912 95.1281 13.9589C94.0958 12.9266 92.6957 12.3467 91.2359 12.3467H76.5572C75.0973 12.3467 73.6972 12.9266 72.6649 13.9589C71.6326 14.9912 71.0527 16.3913 71.0527 17.8512C71.0527 19.3111 71.6326 20.7112 72.6649 21.7435C73.6972 22.7758 75.0973 23.3557 76.5572 23.3557ZM76.5572 16.0164H91.2359C91.7225 16.0164 92.1892 16.2097 92.5333 16.5538C92.8774 16.8979 93.0707 17.3646 93.0707 17.8512C93.0707 18.3378 92.8774 18.8045 92.5333 19.1486C92.1892 19.4927 91.7225 19.686 91.2359 19.686H76.5572C76.0705 19.686 75.6038 19.4927 75.2597 19.1486C74.9156 18.8045 74.7223 18.3378 74.7223 17.8512C74.7223 17.3646 74.9156 16.8979 75.2597 16.5538C75.6038 16.2097 76.0705 16.0164 76.5572 16.0164Z" fill="#222733"/>
<path fill-rule="evenodd" clip-rule="evenodd" d="M25.1817 34.3506C24.6951 34.3506 24.2284 34.5439 23.8843 34.888C23.5402 35.2321 23.3469 35.6988 23.3469 36.1854V94.9002C23.3469 95.3868 23.5402 95.8535 23.8843 96.1976C24.2284 96.5417 24.6951 96.735 25.1817 96.735C25.6684 96.735 26.1351 96.5417 26.4792 96.1976C26.8233 95.8535 27.0166 95.3868 27.0166 94.9002V36.1854C27.0166 35.6988 26.8233 35.2321 26.4792 34.888C26.1351 34.5439 25.6684 34.3506 25.1817 34.3506ZM17.8424 36.1854H14.1727C13.6861 36.1854 13.2194 36.3787 12.8753 36.7228C12.5312 37.0669 12.3379 37.5336 12.3379 38.0203C12.3379 38.5069 12.5312 38.9736 12.8753 39.3177C13.2194 39.6618 13.6861 39.8551 14.1727 39.8551H17.8424C18.329 39.8551 18.7957 39.6618 19.1398 39.3177C19.4839 38.9736 19.6772 38.5069 19.6772 38.0203C19.6772 37.5336 19.4839 37.0669 19.1398 36.7228C18.7957 36.3787 18.329 36.1854 17.8424 36.1854ZM32.5211 39.8551H41.6953C42.1819 39.8551 42.6486 39.6618 42.9927 39.3177C43.3368 38.9736 43.5301 38.5069 43.5301 38.0203C43.5301 37.5336 43.3368 37.0669 42.9927 36.7228C42.6486 36.3787 42.1819 36.1854 41.6953 36.1854H32.5211C32.0345 36.1854 31.5678 36.3787 31.2237 36.7228C30.8796 37.0669 30.6863 37.5336 30.6863 38.0203C30.6863 38.5069 30.8796 38.9736 31.2237 39.3177C31.5678 39.6618 32.0345 39.8551 32.5211 39.8551ZM17.8424 45.3596H14.1727C13.6861 45.3596 13.2194 45.5529 12.8753 45.897C12.5312 46.2411 12.3379 46.7078 12.3379 47.1944C12.3379 47.6811 12.5312 48.1478 12.8753 48.4919C13.2194 48.836 13.6861 49.0293 14.1727 49.0293H17.8424C18.329 49.0293 18.7957 48.836 19.1398 48.4919C19.4839 48.1478 19.6772 47.6811 19.6772 47.1944C19.6772 46.7078 19.4839 46.2411 19.1398 45.897C18.7957 45.5529 18.329 45.3596 17.8424 45.3596ZM32.5211 49.0293H34.3559C34.8426 49.0293 35.3093 48.836 35.6534 48.4919C35.9975 48.1478 36.1908 47.6811 36.1908 47.1944C36.1908 46.7078 35.9975 46.2411 35.6534 45.897C35.3093 45.5529 34.8426 45.3596 34.3559 45.3596H32.5211C32.0345 45.3596 31.5678 45.5529 31.2237 45.897C30.8796 46.2411 30.6863 46.7078 30.6863 47.1944C30.6863 47.6811 30.8796 48.1478 31.2237 48.4919C31.5678 48.836 32.0345 49.0293 32.5211 49.0293ZM17.8424 54.5338H14.1727C13.6861 54.5338 13.2194 54.7271 12.8753 55.0712C12.5312 55.4153 12.3379 55.882 12.3379 56.3686C12.3379 56.8553 12.5312 57.322 12.8753 57.666C13.2194 58.0101 13.6861 58.2035 14.1727 58.2035H17.8424C18.329 58.2035 18.7957 58.0101 19.1398 57.666C19.4839 57.322 19.6772 56.8553 19.6772 56.3686C19.6772 55.882 19.4839 55.4153 19.1398 55.0712C18.7957 54.7271 18.329 54.5338 17.8424 54.5338ZM32.5211 58.2035H34.3559C34.8426 58.2035 35.3093 58.0101 35.6534 57.666C35.9975 57.322 36.1908 56.8553 36.1908 56.3686C36.1908 55.882 35.9975 55.4153 35.6534 55.0712C35.3093 54.7271 34.8426 54.5338 34.3559 54.5338H32.5211C32.0345 54.5338 31.5678 54.7271 31.2237 55.0712C30.8796 55.4153 30.6863 55.882 30.6863 56.3686C30.6863 56.8553 30.8796 57.322 31.2237 57.666C31.5678 58.0101 32.0345 58.2035 32.5211 58.2035ZM17.8424 63.708H14.1727C13.6861 63.708 13.2194 63.9013 12.8753 64.2454C12.5312 64.5895 12.3379 65.0562 12.3379 65.5428C12.3379 66.0294 12.5312 66.4961 12.8753 66.8402C13.2194 67.1843 13.6861 67.3776 14.1727 67.3776H17.8424C18.329 67.3776 18.7957 67.1843 19.1398 66.8402C19.4839 66.4961 19.6772 66.0294 19.6772 65.5428C19.6772 65.0562 19.4839 64.5895 19.1398 64.2454C18.7957 63.9013 18.329 63.708 17.8424 63.708ZM17.8424 72.8821H14.1727C13.6861 72.8821 13.2194 73.0755 12.8753 73.4196C12.5312 73.7637 12.3379 74.2304 12.3379 74.717C12.3379 75.2036 12.5312 75.6703 12.8753 76.0144C13.2194 76.3585 13.6861 76.5518 14.1727 76.5518H17.8424C18.329 76.5518 18.7957 76.3585 19.1398 76.0144C19.4839 75.6703 19.6772 75.2036 19.6772 74.717C19.6772 74.2304 19.4839 73.7637 19.1398 73.4196C18.7957 73.0755 18.329 72.8821 17.8424 72.8821ZM32.5211 76.5518H34.3559C34.8426 76.5518 35.3093 76.3585 35.6534 76.0144C35.9975 75.6703 36.1908 75.2036 36.1908 74.717C36.1908 74.2304 35.9975 73.7637 35.6534 73.4196C35.3093 73.0755 34.8426 72.8821 34.3559 72.8821H32.5211C32.0345 72.8821 31.5678 73.0755 31.2237 73.4196C30.8796 73.7637 30.6863 74.2304 30.6863 74.717C30.6863 75.2036 30.8796 75.6703 31.2237 76.0144C31.5678 76.3585 32.0345 76.5518 32.5211 76.5518ZM17.8424 82.0563H14.1727C13.6861 82.0563 13.2194 82.2496 12.8753 82.5937C12.5312 82.9378 12.3379 83.4045 12.3379 83.8912C12.3379 84.3778 12.5312 84.8445 12.8753 85.1886C13.2194 85.5327 13.6861 85.726 14.1727 85.726H17.8424C18.329 85.726 18.7957 85.5327 19.1398 85.1886C19.4839 84.8445 19.6772 84.3778 19.6772 83.8912C19.6772 83.4045 19.4839 82.9378 19.1398 82.5937C18.7957 82.2496 18.329 82.0563 17.8424 82.0563ZM32.5211 85.726H36.1908C36.6774 85.726 37.1441 85.5327 37.4882 85.1886C37.8323 84.8445 38.0256 84.3778 38.0256 83.8912C38.0256 83.4045 37.8323 82.9378 37.4882 82.5937C37.1441 82.2496 36.6774 82.0563 36.1908 82.0563H32.5211C32.0345 82.0563 31.5678 82.2496 31.2237 82.5937C30.8796 82.9378 30.6863 83.4045 30.6863 83.8912C30.6863 84.3778 30.8796 84.8445 31.2237 85.1886C31.5678 85.5327 32.0345 85.726 32.5211 85.726ZM17.8424 91.2305H14.1727C13.6861 91.2305 13.2194 91.4238 12.8753 91.7679C12.5312 92.112 12.3379 92.5787 12.3379 93.0653C12.3379 93.552 12.5312 94.0187 12.8753 94.3628C13.2194 94.7069 13.6861 94.9002 14.1727 94.9002H17.8424C18.329 94.9002 18.7957 94.7069 19.1398 94.3628C19.4839 94.0187 19.6772 93.552 19.6772 93.0653C19.6772 92.5787 19.4839 92.112 19.1398 91.7679C18.7957 91.4238 18.329 91.2305 17.8424 91.2305ZM39.8604 91.2305H32.5211C32.0345 91.2305 31.5678 91.4238 31.2237 91.7679C30.8796 92.112 30.6863 92.5787 30.6863 93.0653C30.6863 93.552 30.8796 94.0187 31.2237 94.3628C31.5678 94.7069 32.0345 94.9002 32.5211 94.9002H39.8604C40.3471 94.9002 40.8138 94.7069 41.1579 94.3628C41.502 94.0187 41.6953 93.552 41.6953 93.0653C41.6953 92.5787 41.502 92.112 41.1579 91.7679C40.8138 91.4238 40.3471 91.2305 39.8604 91.2305Z" fill="#222733"/>
<path d="M65.5456 83.894C75.6794 83.894 83.894 75.6794 83.894 65.5456C83.894 55.4118 75.6794 47.1973 65.5456 47.1973C55.4118 47.1973 47.1973 55.4118 47.1973 65.5456C47.2083 75.6739 55.4173 83.883 65.5456 83.894ZM65.5456 50.8669C68.4488 50.8669 71.2868 51.7278 73.7007 53.3407C76.1146 54.9537 77.996 57.2462 79.107 59.9283C80.218 62.6105 80.5087 65.5619 79.9423 68.4093C79.3759 71.2567 77.9779 73.8722 75.925 75.925C73.8722 77.9779 71.2567 79.3759 68.4093 79.9423C65.5619 80.5087 62.6105 80.218 59.9283 79.107C57.2462 77.996 54.9537 76.1146 53.3407 73.7007C51.7278 71.2868 50.8669 68.4488 50.8669 65.5456C50.8713 61.6539 52.4192 57.9229 55.1711 55.1711C57.9229 52.4192 61.6539 50.8713 65.5456 50.8669Z" fill="#222733"/>
<path fill-rule="evenodd" clip-rule="evenodd" d="M60.578 70.5123C60.924 70.8466 61.3875 71.0315 61.8686 71.0273C62.3497 71.0231 62.8099 70.8302 63.1501 70.49C63.4903 70.1498 63.6833 69.6896 63.6874 69.2085C63.6916 68.7274 63.5067 68.2639 63.1724 67.9179L60.8 65.5454L63.1724 63.173C63.5067 62.8269 63.6916 62.3635 63.6874 61.8824C63.6833 61.4013 63.4903 60.9411 63.1501 60.6009C62.8099 60.2607 62.3497 60.0677 61.8686 60.0635C61.3875 60.0594 60.924 60.2443 60.578 60.5785L56.9083 64.2482C56.5643 64.5923 56.3711 65.0589 56.3711 65.5454C56.3711 66.032 56.5643 66.4986 56.9083 66.8427L60.578 70.5123ZM67.9173 70.5123C68.2614 70.8563 68.728 71.0496 69.2146 71.0496C69.7011 71.0496 70.1677 70.8563 70.5118 70.5123L74.1815 66.8427C74.5254 66.4986 74.7187 66.032 74.7187 65.5454C74.7187 65.0589 74.5254 64.5923 74.1815 64.2482L70.5118 60.5785C70.1657 60.2443 69.7022 60.0594 69.2212 60.0635C68.7401 60.0677 68.2799 60.2607 67.9397 60.6009C67.5995 60.9411 67.4065 61.4013 67.4023 61.8824C67.3982 62.3635 67.5831 62.8269 67.9173 63.173L70.2898 65.5454L67.9173 67.9179C67.5733 68.262 67.3801 68.7286 67.3801 69.2151C67.3801 69.7016 67.5733 70.1683 67.9173 70.5123Z" fill="#222733"/>
</g>
<defs>
<clipPath id="clip0_1152_27067">
<rect width="120" height="120" fill="white"/>
</clipPath>
</defs>
</svg>
