<svg width="120" height="120" viewBox="0 0 120 120" fill="none" xmlns="http://www.w3.org/2000/svg">
<g clip-path="url(#clip0_1152_28312)">
<path fill-rule="evenodd" clip-rule="evenodd" d="M58.5681 76.5368C67.6858 76.5368 75.1039 69.1176 75.1039 60.0001C75.1039 50.8826 67.686 43.4634 58.5681 43.4634C49.4495 43.4634 42.0292 50.8811 42.0292 60.0001C42.0292 69.1191 49.4497 76.5368 58.5681 76.5368ZM37.6782 73.995C35.8162 71.2235 34.5409 68.1491 33.8974 64.8732C33.8555 64.6593 33.76 64.4596 33.6199 64.2926C33.4799 64.1256 33.2998 63.9968 33.0965 63.9182L28.7051 62.2281V57.7711L33.0965 56.081C33.3002 56.0027 33.4808 55.8741 33.6212 55.7071C33.7617 55.5401 33.8574 55.3401 33.8996 55.126C34.5432 51.8509 35.8157 48.7767 37.6784 46.0061C37.8003 45.8252 37.8742 45.6164 37.8932 45.3992C37.9123 45.1819 37.8758 44.9634 37.7874 44.7641L35.8757 40.4595L39.0255 37.3075L43.3322 39.2203C43.5315 39.3089 43.75 39.3454 43.9673 39.3265C44.1846 39.3076 44.3935 39.2339 44.5745 39.1122C47.3455 37.2517 50.4193 35.9742 53.6943 35.3314C53.9083 35.2894 54.108 35.1938 54.2749 35.0534C54.4417 34.9131 54.5702 34.7327 54.6482 34.5292L56.3395 30.1367H60.794L62.4864 34.5292C62.5646 34.7325 62.6929 34.9126 62.8596 35.0529C63.0262 35.1932 63.2256 35.289 63.4392 35.3314C66.7147 35.9747 69.7902 37.2512 72.5621 39.112C72.7429 39.2333 72.9514 39.3068 73.1683 39.3257C73.3852 39.3446 73.6033 39.3083 73.8024 39.2201L78.1091 37.3073L81.2587 40.4593L79.347 44.7628C79.2587 44.962 79.2223 45.1803 79.2412 45.3973C79.2601 45.6144 79.3337 45.8231 79.4551 46.004C81.3167 48.7763 82.5942 51.8501 83.237 55.1271C83.279 55.3412 83.3748 55.5411 83.5152 55.7081C83.6556 55.8751 83.8361 56.0037 84.0399 56.0818L88.4315 57.7711V62.2281L84.0379 63.9193C83.8343 63.9973 83.6538 64.1258 83.5133 64.2926C83.3728 64.4595 83.277 64.6592 83.2348 64.8732C82.592 68.1487 81.3152 71.2212 79.4551 73.9929C79.3336 74.174 79.2599 74.3829 79.241 74.6002C79.2221 74.8174 79.2586 75.0359 79.347 75.2353L81.2587 79.541L78.1089 82.6919L73.8043 80.7802C73.6049 80.6918 73.3864 80.6554 73.1691 80.6745C72.9519 80.6935 72.743 80.7674 72.5621 80.8891C69.7902 82.7507 66.7156 84.0265 63.4392 84.6697C63.2255 84.7119 63.0259 84.8076 62.8593 84.9479C62.6927 85.0882 62.5643 85.2685 62.4864 85.4719L60.794 89.8633H56.3395L54.6482 85.4698C54.5702 85.2664 54.4417 85.0861 54.2748 84.946C54.1079 84.8059 53.9082 84.7105 53.6943 84.6688C50.4193 84.0254 47.3462 82.7471 44.5747 80.8872C44.3935 80.7658 44.1845 80.6923 43.9672 80.6736C43.75 80.6549 43.5315 80.6916 43.3322 80.7802L39.0276 82.6919L35.8757 79.5412L37.7876 75.2375C37.8758 75.038 37.9121 74.8194 37.893 74.6021C37.8739 74.3849 37.8 74.176 37.6782 73.995Z" fill="#0099A3"/>
<path fill-rule="evenodd" clip-rule="evenodd" d="M43.1597 39.617L39.1226 37.8239L36.39 40.5584L38.182 44.5934C38.3004 44.8591 38.3492 45.1505 38.3239 45.4403C38.2985 45.73 38.1998 46.0086 38.037 46.2496C36.2024 48.9811 34.9546 51.9967 34.3232 55.2126C34.2669 55.498 34.1392 55.7644 33.952 55.9871C33.7648 56.2097 33.5243 56.3813 33.2528 56.4858L29.1367 58.0701V61.9368L33.2528 63.5211C33.5238 63.626 33.7639 63.7977 33.9507 64.0203C34.1375 64.2429 34.265 64.5091 34.3213 64.7942C34.9527 68.0124 36.2024 71.0288 38.0372 73.7594C38.1995 74.0007 38.2979 74.2792 38.3233 74.5688C38.3486 74.8585 38.3001 75.1498 38.1822 75.4156L36.3902 79.4498L39.1249 82.1834L43.1599 80.3914C43.4256 80.2735 43.7168 80.2248 44.0064 80.2497C44.296 80.2747 44.5746 80.3726 44.8161 80.5343C47.5468 82.3688 50.5632 83.6186 53.7792 84.2511C54.0643 84.3068 54.3307 84.4341 54.5532 84.621C54.7757 84.8079 54.9471 85.0482 55.0513 85.3195L56.6366 89.4376H60.5014L62.0876 85.3214C62.1917 85.0502 62.3629 84.8099 62.5852 84.6229C62.8075 84.4359 63.0736 84.3083 63.3586 84.2521C66.5778 83.6196 69.5942 82.3699 72.3249 80.5364C72.5661 80.3742 72.8446 80.2758 73.1343 80.2504C73.4239 80.225 73.7153 80.2736 73.9811 80.3914L78.0163 82.1834L80.7489 79.4498L78.9568 75.4137C78.839 75.148 78.7904 74.8567 78.8156 74.5671C78.8407 74.2774 78.9389 73.9989 79.1008 73.7575C80.9353 71.0257 82.1842 68.0104 82.8156 64.7944C82.8716 64.5091 82.9992 64.2426 83.1865 64.0201C83.3737 63.7976 83.6144 63.6263 83.886 63.5224L88.0041 61.937V58.0703L83.8879 56.4871C83.6164 56.3828 83.3757 56.2112 83.1885 55.9886C83.0013 55.7659 82.8737 55.4994 82.8176 55.2139C82.1862 51.9947 80.9353 48.9783 79.1008 46.2477C78.9394 46.0062 78.8416 45.7279 78.8165 45.4386C78.7913 45.1492 78.8396 44.8582 78.9568 44.5925L80.7489 40.5584L78.0163 37.8239L73.9791 39.617C73.7138 39.7348 73.4228 39.7834 73.1336 39.7582C72.8443 39.733 72.5661 39.6349 72.3251 39.473C69.5925 37.6395 66.575 36.3887 63.3588 35.7573C63.0739 35.7008 62.808 35.5732 62.5857 35.3862C62.3635 35.1992 62.1922 34.9591 62.0878 34.688L60.5016 30.5708H56.6368L55.0515 34.688C54.9473 34.9594 54.7759 35.1998 54.5534 35.3869C54.3309 35.5739 54.0646 35.7014 53.7794 35.7573C50.5634 36.3887 47.5468 37.6385 44.8163 39.473C44.5748 39.6348 44.2962 39.7329 44.0065 39.7581C43.7169 39.7832 43.4255 39.7347 43.1597 39.617ZM43.705 36.0976C46.3149 34.4659 49.1777 33.2787 52.1764 32.5845L53.852 28.2341C53.9769 27.9099 54.197 27.6312 54.4834 27.4345C54.7698 27.2378 55.109 27.1325 55.4565 27.1324H61.6828C62.0301 27.1325 62.3692 27.2378 62.6555 27.4345C62.9417 27.6312 63.1616 27.91 63.2862 28.2341L64.9618 32.5845C67.96 33.2793 70.8223 34.4665 73.4322 36.0976L77.6974 34.2033C78.0152 34.0626 78.3682 34.0213 78.7099 34.0848C79.0516 34.1483 79.3661 34.3136 79.6121 34.5591L84.014 38.9621C84.2596 39.2077 84.425 39.5219 84.4883 39.8633C84.5516 40.2048 84.5099 40.5574 84.3687 40.8747L82.4753 45.1367C84.107 47.7484 85.2948 50.6124 85.9904 53.6123L90.3386 55.2868C90.6628 55.4114 90.9416 55.6313 91.1383 55.9176C91.3349 56.2039 91.4403 56.543 91.4403 56.8904V63.1167C91.4404 63.4641 91.3351 63.8033 91.1384 64.0896C90.9417 64.3759 90.6628 64.5958 90.3386 64.7203L85.9882 66.3957C85.2919 69.4009 84.1122 72.243 82.4751 74.8682L84.3685 79.1324C84.5098 79.4499 84.5514 79.8027 84.4881 80.1443C84.4248 80.4859 84.2594 80.8003 84.0138 81.046L79.6119 85.448C79.3661 85.6939 79.0516 85.8595 78.7098 85.923C78.368 85.9866 78.0149 85.945 77.6972 85.8037L73.4341 83.9103C70.8234 85.543 67.9596 86.7306 64.9596 87.4245L63.2862 91.7738C63.1613 92.0977 62.9413 92.3762 62.6551 92.5727C62.3689 92.7692 62.03 92.8744 61.6828 92.8744H55.4565C55.1092 92.8744 54.77 92.7692 54.4837 92.5727C54.1973 92.3763 53.9771 92.0978 53.852 91.7738L52.1764 87.4224C49.1721 86.7261 46.3301 85.5472 43.705 83.9103L39.4399 85.8037C39.1227 85.9449 38.7701 85.9865 38.4288 85.923C38.0874 85.8595 37.7734 85.6938 37.5282 85.448L33.1241 81.046C32.8784 80.8006 32.7129 80.4864 32.6495 80.1449C32.5862 79.8034 32.628 79.4507 32.7694 79.1335L34.6618 74.8704C33.0299 72.2591 31.843 69.395 31.1497 66.3948L26.7994 64.7214C26.4752 64.5966 26.1965 64.3765 26 64.09C25.8035 63.8036 25.6985 63.4643 25.6987 63.1169V56.8906C25.6987 56.5434 25.8038 56.2043 26.0003 55.918C26.1967 55.6317 26.4754 55.4117 26.7994 55.287L31.1497 53.6125C31.846 50.6062 33.0249 47.764 34.6618 45.1389L32.7694 40.8747C32.628 40.5574 32.5863 40.2048 32.6496 39.8633C32.7129 39.5218 32.8784 39.2076 33.1241 38.9621L37.5261 34.5591C37.7719 34.3136 38.0862 34.1482 38.4277 34.0847C38.7693 34.0212 39.1221 34.0626 39.4397 34.2033L43.705 36.0976ZM45.0389 60.0041C45.0389 52.5441 51.1082 46.4748 58.5704 46.4748C66.0293 46.4748 72.0986 52.5441 72.0986 60.0041C72.0986 67.4641 66.0293 73.5334 58.5704 73.5334C51.1082 73.5334 45.0389 67.4641 45.0389 60.0041ZM41.6019 60.0041C41.6019 50.6487 49.214 43.0377 58.5704 43.0377C67.9247 43.0377 75.5357 50.6487 75.5357 60.0041C75.5357 69.3594 67.9247 76.9705 58.5704 76.9705C49.214 76.9705 41.6019 69.3594 41.6019 60.0041ZM114.311 104.549L104.865 97.1713C104.687 97.0272 104.483 96.9199 104.264 96.8557C104.044 96.7915 103.814 96.7717 103.587 96.7974C103.36 96.8231 103.141 96.8938 102.941 97.0054C102.742 97.117 102.567 97.2673 102.426 97.4474C102.285 97.6275 102.182 97.8338 102.122 98.0543C102.062 98.2748 102.047 98.5051 102.077 98.7316C102.107 98.9582 102.181 99.1765 102.297 99.3737C102.412 99.571 102.566 99.7433 102.749 99.8805L108.261 104.184H89.3804C89.1547 104.184 88.9313 104.229 88.7228 104.315C88.5143 104.402 88.3249 104.528 88.1653 104.688C88.0058 104.847 87.8793 105.037 87.7929 105.245C87.7066 105.454 87.6622 105.677 87.6623 105.903C87.6623 106.852 88.4316 107.622 89.3804 107.622H108.261L102.749 111.926C102 112.51 101.868 113.59 102.451 114.338C102.59 114.516 102.763 114.665 102.959 114.777C103.156 114.888 103.372 114.96 103.597 114.987C103.821 115.015 104.048 114.998 104.266 114.937C104.483 114.877 104.687 114.774 104.865 114.635L114.312 107.257C114.518 107.097 114.685 106.892 114.799 106.657C114.914 106.422 114.974 106.164 114.974 105.903C114.974 105.642 114.914 105.384 114.799 105.15C114.685 104.915 114.518 104.71 114.311 104.549ZM28.2255 96.7051C17.2453 87.6161 10.948 74.2379 10.948 60C10.948 38.4014 25.5123 19.4677 46.3666 13.9548C47.284 13.7127 48.2255 14.2599 48.4678 15.1773C48.5256 15.3955 48.5399 15.623 48.5097 15.8467C48.4795 16.0705 48.4056 16.2861 48.292 16.4812C48.1785 16.6763 48.0276 16.8472 47.848 16.984C47.6684 17.1208 47.4636 17.2208 47.2454 17.2784C27.8972 22.3919 14.3851 39.9605 14.3851 60C14.3851 73.2111 20.2273 85.6235 30.4169 94.0565C31.1476 94.6606 31.2511 95.7452 30.6451 96.4761C30.4839 96.6715 30.2814 96.8288 30.0521 96.9365C29.8229 97.0443 29.5726 97.0999 29.3193 97.0993C28.9351 97.0993 28.5458 96.9696 28.2255 96.7051ZM92.2425 93.6734C83.249 102.668 71.2887 107.622 58.5702 107.622H6.692C6.24081 107.615 5.81051 107.431 5.49396 107.109C5.17742 106.788 5 106.355 5 105.903C5 105.452 5.17742 105.019 5.49396 104.697C5.81051 104.376 6.24081 104.192 6.692 104.184H58.5702C82.9338 104.184 102.754 84.3639 102.754 60.0002C102.754 37.6396 85.7433 18.8537 63.9928 16.1505L69.0738 20.1197C69.8239 20.7037 69.9547 21.7831 69.3699 22.532C69.2094 22.7382 69.0038 22.9049 68.7689 23.0195C68.534 23.134 68.276 23.1933 68.0147 23.1929C67.6322 23.1927 67.2608 23.0646 66.9596 22.8289L57.511 15.451C57.0944 15.1246 56.8512 14.6249 56.8512 14.0958C56.8512 13.5666 57.0944 13.0669 57.511 12.7416L66.9598 5.36388C67.1375 5.22503 67.3409 5.12256 67.5582 5.06234C67.7756 5.00211 68.0026 4.9853 68.2265 5.01288C68.4503 5.04045 68.6665 5.11187 68.8628 5.22304C69.059 5.33421 69.2314 5.48296 69.3701 5.66079C69.9549 6.40888 69.8241 7.48932 69.0741 8.07305L63.2662 12.6077C74.365 13.6903 84.6498 18.5898 92.5498 26.6338C101.348 35.593 106.193 47.4426 106.193 60C106.193 72.7196 101.238 84.6788 92.2425 93.6734Z" fill="#222733"/>
</g>
<defs>
<clipPath id="clip0_1152_28312">
<rect width="120" height="120" fill="white"/>
</clipPath>
</defs>
</svg>
