<svg width="120" height="120" viewBox="0 0 120 120" fill="none" xmlns="http://www.w3.org/2000/svg">
<g clip-path="url(#clip0_1152_28322)">
<path fill-rule="evenodd" clip-rule="evenodd" d="M12.5371 76.3213H28.4535V110.086H12.5371V76.3213Z" fill="#0099A3"/>
<path fill-rule="evenodd" clip-rule="evenodd" d="M37.623 60.335H53.5395V110.072H37.623V60.335Z" fill="#0099A3"/>
<path fill-rule="evenodd" clip-rule="evenodd" d="M62.7109 67.7881H78.6273V110.073H62.7109V67.7881Z" fill="#0099A3"/>
<path fill-rule="evenodd" clip-rule="evenodd" d="M87.7969 51.1245H103.713V110.073H87.7969V51.1245ZM95.7115 22.3838H113.662L108.701 29.0821L113.662 35.7805H95.7115V29.0821V22.3838ZM10.929 45.1864H31.1806C33.7048 45.1864 35.7639 43.1272 35.7639 40.603V35.0002C35.7639 28.9122 30.7983 23.9466 24.7103 23.9466H17.3993C11.3113 23.9466 6.3457 28.9122 6.3457 35.0002V40.603C6.3457 43.1272 8.40484 45.1864 10.929 45.1864Z" fill="#0099A3"/>
<path fill-rule="evenodd" clip-rule="evenodd" d="M21.0552 6.3418C23.1792 6.3418 24.8516 6.96558 26.2914 8.57085C29.5422 12.1928 28.4936 23.0698 21.0508 23.0698C13.6057 23.0698 12.5571 12.1928 15.8079 8.57085C17.2522 6.95887 18.9246 6.3418 21.0552 6.3418Z" fill="#0099A3"/>
<path fill-rule="evenodd" clip-rule="evenodd" d="M7.68292 40.609C7.68292 42.3976 9.1384 43.8531 10.9248 43.8531H11.0589V34.6686C11.0589 33.9286 11.6581 33.3271 12.4004 33.3271C13.1404 33.3271 13.7418 33.9286 13.7418 34.6686V43.8531H28.3615V34.6686C28.3615 33.9286 28.9607 33.3271 29.703 33.3271C30.443 33.3271 31.0444 33.9286 31.0444 34.6686V43.8531H31.1763C32.965 43.8531 34.4182 42.3976 34.4182 40.609V35.0062C34.4182 29.6515 30.0629 25.294 24.706 25.294H17.3951C12.0404 25.294 7.68292 29.6515 7.68292 35.0062V40.609ZM16.2392 18.3721C16.9211 19.9036 18.3117 21.728 21.0528 21.728C23.7916 21.728 25.18 19.9036 25.8642 18.3721C27.3152 15.1168 26.7294 11.0656 25.294 9.46706C24.1717 8.21727 22.9062 7.68292 21.0573 7.68292C19.1993 7.68292 17.9294 8.21727 16.8071 9.46706C15.374 11.0656 14.7859 15.1168 16.2392 18.3721ZM5 40.609V35.0062C5 28.5963 9.88962 23.3087 16.1341 22.6737C15.175 21.8666 14.3813 20.7912 13.7888 19.4654C12.0382 15.5439 12.4965 10.254 14.8105 7.67397C16.4471 5.84959 18.4325 5 21.0573 5C23.6731 5 25.654 5.84959 27.2906 7.67397C29.6046 10.254 30.0629 15.5439 28.3123 19.4654C27.7221 20.7934 26.9261 21.8666 25.9692 22.676C32.2137 23.3087 37.1011 28.5985 37.1011 35.0062V40.609C37.1011 43.8777 34.4428 46.536 31.1763 46.536H10.9248C7.65832 46.536 5 43.8777 5 40.609ZM110.995 34.4473L107.619 29.8885C107.448 29.6576 107.356 29.3778 107.356 29.0904C107.356 28.803 107.448 28.5232 107.619 28.2922L110.995 23.7335H97.0487V34.4473H110.995ZM102.368 52.4742H89.1341V108.74H102.368V52.4742ZM13.8805 108.74H27.114V77.6579H13.8805V108.74ZM38.9657 108.74H52.197V61.6856H38.9657V108.74ZM64.0488 108.74H77.2823V69.1374H64.0488V108.74ZM114.736 34.9906C114.884 35.1901 114.974 35.4269 114.995 35.6745C115.016 35.922 114.968 36.1707 114.857 36.3926C114.745 36.6146 114.574 36.8011 114.362 36.9313C114.15 37.0616 113.907 37.1304 113.658 37.1302H97.0487V49.7913H103.709C104.449 49.7913 105.05 50.3905 105.05 51.1328V108.74H109.907C110.647 108.74 111.248 109.341 111.248 110.081C111.248 110.821 110.647 111.422 109.907 111.422H6.34146C5.60142 111.422 5 110.821 5 110.081C5 109.341 5.60142 108.74 6.34146 108.74H11.1975V76.3164C11.1975 75.5742 11.799 74.975 12.539 74.975H28.4554C29.1955 74.975 29.7969 75.5742 29.7969 76.3164V108.74H36.2828V60.3441C36.2828 59.6041 36.882 59.0027 37.6243 59.0027H53.5385C54.2807 59.0027 54.8799 59.6041 54.8799 60.3441V108.74H61.3659V67.7959C61.3659 67.0537 61.9673 66.4545 62.7073 66.4545H78.6237C79.3638 66.4545 79.9652 67.0537 79.9652 67.7959V108.74H86.4512V51.1328C86.4512 50.3905 87.0503 49.7913 87.7926 49.7913H94.3658V21.1199C94.3658 20.3776 94.9672 19.7784 95.7072 19.7784C96.4249 19.7784 97.0084 20.3418 97.0442 21.0506H113.658C114.166 21.0506 114.629 21.3367 114.857 21.7884C115.085 22.2422 115.038 22.7833 114.736 23.1902L110.365 29.0904L114.736 34.9906ZM65.8419 50.3324L86.1426 29.2379H79.6231C78.8831 29.2379 78.2817 28.6365 78.2817 27.8965C78.2817 27.1542 78.8831 26.555 79.6231 26.555H89.2951C90.0351 26.555 90.6365 27.1542 90.6365 27.8965V37.5662C90.6365 38.3084 90.0351 38.9076 89.2951 38.9076C88.555 38.9076 87.9536 38.3084 87.9536 37.5662V31.2255L67.3667 52.6173C67.1073 52.8879 66.7474 53.0421 66.3718 53.0287L37.1995 52.3937L8.82092 68.0821C8.61523 68.1961 8.39389 68.2498 8.17255 68.2498C7.7008 68.2498 7.24247 68.0016 6.99877 67.5589C6.63882 66.9106 6.87581 66.0945 7.52418 65.7346L36.218 49.8696C36.4259 49.7555 36.6584 49.6952 36.8977 49.7019L65.8419 50.3324Z" fill="#222733"/>
</g>
<defs>
<clipPath id="clip0_1152_28322">
<rect width="120" height="120" fill="white"/>
</clipPath>
</defs>
</svg>
