<svg width="120" height="120" viewBox="0 0 120 120" fill="none" xmlns="http://www.w3.org/2000/svg">
<g clip-path="url(#clip0_1152_28300)">
<path d="M88.0111 19.247C80.3111 11.5293 69.6659 6.77441 57.903 6.77441C46.1401 6.77441 35.4949 11.5293 27.7949 19.247C23.8318 23.194 20.6893 27.8866 18.5486 33.0541C16.408 38.2216 15.3114 43.7617 15.3223 49.3551H31.2901C31.2901 34.6647 43.2127 22.7422 57.903 22.7422C72.5933 22.7422 84.5159 34.6647 84.5159 49.3551H100.484C100.484 37.5922 95.7288 26.947 88.0111 19.247Z" fill="#0099A3"/>
<path d="M57.8503 6.77449V22.7422C50.5051 22.7422 43.8519 25.7229 39.0438 30.5487L27.7422 19.2471C31.6892 15.284 36.3818 12.1415 41.5493 10.0008C46.7168 7.86011 52.2569 6.7636 57.8503 6.77449Z" fill="#0099A3"/>
<path d="M87.9557 19.247L76.6541 30.5486C71.846 25.7228 65.1928 22.7422 57.8477 22.7422V6.77441C69.6106 6.77441 80.2557 11.5293 87.9557 19.247Z" fill="#0099A3"/>
<path d="M100.427 49.3571H84.4588C84.4588 42.0119 81.4782 35.3587 76.6523 30.5506L87.954 19.249C91.9171 23.1961 95.0596 27.8887 97.2002 33.0561C99.3409 38.2236 100.437 43.7638 100.427 49.3571Z" fill="#0099A3"/>
<path d="M57.9027 54.6774C60.8422 54.6774 63.2252 52.2944 63.2252 49.3548C63.2252 46.4152 60.8422 44.0322 57.9027 44.0322C54.9631 44.0322 52.5801 46.4152 52.5801 49.3548C52.5801 52.2944 54.9631 54.6774 57.9027 54.6774Z" fill="#0099A3"/>
<path d="M57.9042 84.8386C62.8035 84.8386 66.7751 80.8669 66.7751 75.9676C66.7751 71.0683 62.8035 67.0967 57.9042 67.0967C53.0049 67.0967 49.0332 71.0683 49.0332 75.9676C49.0332 80.8669 53.0049 84.8386 57.9042 84.8386Z" fill="white"/>
<path d="M72.0961 113.226V95.4843C72.0961 90.5875 68.1219 86.6133 63.2251 86.6133H52.58C47.6832 86.6133 43.709 90.5875 43.709 95.4843V113.226H72.0961Z" fill="#0099A3"/>
<path d="M93.3874 90.1615C96.8169 90.1615 99.5971 87.3814 99.5971 83.9519C99.5971 80.5224 96.8169 77.7422 93.3874 77.7422C89.9579 77.7422 87.1777 80.5224 87.1777 83.9519C87.1777 87.3814 89.9579 90.1615 93.3874 90.1615Z" fill="white"/>
<path d="M104.033 111.452V99.0323C104.033 95.1114 100.857 91.9355 96.9357 91.9355H89.839C85.918 91.9355 82.7422 95.1114 82.7422 99.0323V111.452H104.033Z" fill="#0099A3"/>
<path d="M22.4187 90.1615C25.8482 90.1615 28.6283 87.3814 28.6283 83.9519C28.6283 80.5224 25.8482 77.7422 22.4187 77.7422C18.9892 77.7422 16.209 80.5224 16.209 83.9519C16.209 87.3814 18.9892 90.1615 22.4187 90.1615Z" fill="white"/>
<path d="M33.0638 111.452V99.0323C33.0638 95.1114 29.888 91.9355 25.967 91.9355H18.8702C14.9492 91.9355 11.7734 95.1114 11.7734 99.0323V111.452H33.0638Z" fill="#0099A3"/>
<path d="M57.9039 86.6133L54.3555 99.0326L57.9039 104.355L61.4522 99.0326L57.9039 86.6133Z" fill="#0099A3"/>
<path d="M43.7101 115H72.0972C73.073 115 73.8714 114.202 73.8714 113.226V95.4839C73.8714 89.7887 69.365 85.1403 63.7408 84.8564C65.2166 83.8899 66.4288 82.5714 67.2681 81.0197C68.1074 79.468 68.5476 77.7319 68.5488 75.9677C68.5488 70.0952 63.7762 65.3226 57.9037 65.3226C52.0311 65.3226 47.2585 70.0952 47.2585 75.9677C47.2585 79.6936 49.1746 82.9581 52.0666 84.8564C49.3354 84.9856 46.759 86.1618 44.8725 88.1409C42.9859 90.1199 41.9342 92.7497 41.9359 95.4839V113.226C41.9359 114.202 42.7343 115 43.7101 115ZM50.8069 75.9677C50.8069 72.0468 53.9827 68.871 57.9037 68.871C61.8246 68.871 65.0004 72.0468 65.0004 75.9677C65.0004 79.8887 61.8246 83.0645 57.9037 83.0645C53.9827 83.0645 50.8069 79.8887 50.8069 75.9677ZM59.5182 98.7306L57.9037 101.161L56.2892 98.7306L57.9037 93.071L59.5182 98.7306ZM45.4843 95.4839C45.4843 91.5629 48.6601 88.3871 52.5811 88.3871H55.544L52.6343 98.5532C52.4924 99.05 52.5811 99.6 52.865 100.026L56.4133 105.348C56.7504 105.845 57.3004 106.147 57.8859 106.147C58.4714 106.147 59.0392 105.845 59.3585 105.348L62.9069 100.026C63.1908 99.6 63.2795 99.05 63.1375 98.5532L60.2279 88.3871H63.1908C67.1117 88.3871 70.2875 91.5629 70.2875 95.4839V111.452H45.4488V95.4839H45.4843ZM101.371 83.9516C101.371 79.5516 97.7875 75.9677 93.3875 75.9677C88.9875 75.9677 85.4037 79.5516 85.4037 83.9516C85.4037 86.5419 86.6634 88.8306 88.5795 90.2855C84.2859 90.9064 80.9682 94.5613 80.9682 99.0323V111.452C80.9682 112.427 81.7666 113.226 82.7424 113.226H104.033C105.009 113.226 105.807 112.427 105.807 111.452V99.0323C105.807 94.579 102.489 90.9064 98.1956 90.2855C99.1789 89.5474 99.9774 88.5912 100.529 87.4921C101.08 86.393 101.368 85.1811 101.371 83.9516ZM93.3875 79.5161C94.5639 79.5161 95.6921 79.9834 96.5239 80.8152C97.3557 81.6471 97.823 82.7752 97.823 83.9516C97.823 85.128 97.3557 86.2562 96.5239 87.088C95.6921 87.9198 94.5639 88.3871 93.3875 88.3871C92.2112 88.3871 91.083 87.9198 90.2512 87.088C89.4194 86.2562 88.9521 85.128 88.9521 83.9516C88.9521 82.7752 89.4194 81.6471 90.2512 80.8152C91.083 79.9834 92.2112 79.5161 93.3875 79.5161ZM102.259 99.0323V109.677H84.5166V99.0323C84.5166 96.1048 86.9117 93.7097 89.8392 93.7097H96.9359C99.8633 93.7097 102.259 96.1048 102.259 99.0323ZM15.323 51.129H31.2908C32.2666 51.129 33.065 50.3306 33.065 49.3548C33.065 35.6581 44.2069 24.5161 57.9037 24.5161C62.7827 24.5161 67.5198 25.9355 71.6004 28.6323L73.5698 25.6694C69.4347 22.926 64.6488 21.3225 59.6956 21.021V8.61935C68.194 8.97419 76.1956 11.8839 82.9198 17.1355L85.1021 14.3323C77.2779 8.22903 67.8746 5 57.9037 5C46.0343 5 34.8924 9.6129 26.5359 17.9871C18.1617 26.3435 13.5488 37.4855 13.5488 49.3548C13.5488 50.3306 14.3472 51.129 15.323 51.129ZM56.1295 8.6371V21.0565C49.6359 21.4645 43.7456 24.0371 39.1504 28.1L30.3682 19.3177C37.465 12.7887 46.4779 9.0629 56.1295 8.6371ZM27.8488 21.8194L36.6133 30.5839C32.4303 35.3036 29.9448 41.2862 29.5521 47.5806H17.115C17.523 37.929 21.3021 28.9161 27.8311 21.8194H27.8488Z" fill="#222733"/>
<path d="M57.9032 42.2606C53.9823 42.2606 50.8064 45.4364 50.8064 49.3574C50.8064 53.2783 53.9823 56.4541 57.9032 56.4541C61.8242 56.4541 65 53.2783 65 49.3574C65 48.0445 64.6097 46.838 63.9887 45.7735L76.6387 33.1235C77.3484 33.9396 78.0226 34.7735 78.6081 35.6606C81.3048 39.7235 82.7242 44.4606 82.7242 49.3574C82.7242 50.3332 83.5226 51.1316 84.4984 51.1316H100.466C101.442 51.1316 102.24 50.3332 102.24 49.3574C102.24 39.3864 99.0113 29.9832 92.9258 22.1945C92.1984 21.2187 91.3645 20.2606 90.4597 19.2848L98.1774 11.567L95.6758 9.06543L61.4871 43.2541C60.4403 42.6332 59.2161 42.2429 57.9032 42.2429V42.2606ZM57.9032 52.9058C55.9516 52.9058 54.3548 51.309 54.3548 49.3574C54.3548 47.4058 55.9516 45.809 57.9032 45.809C59.8548 45.809 61.4516 47.4058 61.4516 49.3574C61.4516 51.309 59.8548 52.9058 57.9032 52.9058ZM87.9758 21.8041C88.7565 22.6558 89.4839 23.4896 90.1226 24.359C95.3742 31.0832 98.3194 39.0848 98.6742 47.5832H86.2371C85.9355 42.6332 84.3387 37.8606 81.571 33.709C80.8435 32.6267 80.0274 31.5977 79.1581 30.6219L87.9758 21.8041ZM57.9032 31.6154C59.5532 31.6154 61.1677 31.8461 62.7468 32.2896L63.7048 28.8832C61.8242 28.3509 59.8726 28.0848 57.9032 28.0848C49.05 28.0848 41.2613 33.4074 38.0677 41.6396L41.3677 42.9348C44.0468 36.0687 50.5226 31.6509 57.9032 31.6509V31.6154ZM36.6129 49.3574H40.1613C40.1613 48.2751 40.2677 47.1928 40.4452 46.1283L36.95 45.4896C36.7194 46.767 36.5952 48.0622 36.5952 49.3574H36.6129ZM11.7742 113.228H33.0645C34.0403 113.228 34.8387 112.43 34.8387 111.454V99.0348C34.8387 94.5816 31.521 90.909 27.2274 90.288C28.2107 89.5499 29.0093 88.5937 29.5603 87.4946C30.1114 86.3956 30.3999 85.1836 30.4032 83.9541C30.4032 79.5541 26.8194 75.9703 22.4194 75.9703C18.0194 75.9703 14.4355 79.5541 14.4355 83.9541C14.4355 86.5445 15.6952 88.8332 17.6113 90.288C13.3177 90.909 10 94.5638 10 99.0348V111.454C10 112.43 10.7984 113.228 11.7742 113.228ZM22.4194 79.5187C23.5957 79.5187 24.7239 79.986 25.5557 80.8178C26.3875 81.6496 26.8548 82.7778 26.8548 83.9541C26.8548 85.1305 26.3875 86.2587 25.5557 87.0905C24.7239 87.9223 23.5957 88.3896 22.4194 88.3896C21.243 88.3896 20.1148 87.9223 19.283 87.0905C18.4512 86.2587 17.9839 85.1305 17.9839 83.9541C17.9839 82.7778 18.4512 81.6496 19.283 80.8178C20.1148 79.986 21.243 79.5187 22.4194 79.5187ZM13.5484 99.0348C13.5484 96.1074 15.9435 93.7122 18.871 93.7122H25.9677C28.8952 93.7122 31.2903 96.1074 31.2903 99.0348V109.68H13.5484V99.0348Z" fill="#222733"/>
</g>
<defs>
<clipPath id="clip0_1152_28300">
<rect width="120" height="120" fill="white"/>
</clipPath>
</defs>
</svg>
