<svg width="120" height="120" viewBox="0 0 120 120" fill="none" xmlns="http://www.w3.org/2000/svg">
<g clip-path="url(#clip0_1155_47009)">
<path d="M61.2031 7.20215C36.915 7.20215 17.2031 13.0981 17.2031 20.4021V99.6021C17.2031 106.906 36.915 112.802 61.2031 112.802C85.4912 112.802 105.203 106.906 105.203 99.6021V20.4021C105.203 13.0981 85.4912 7.20215 61.2031 7.20215Z" fill="#0099A3"/>
<path d="M103 99.6C103 104.194 87.0983 110.6 61.2 110.6C35.3017 110.6 19.4 104.194 19.4 99.6V80.174C19.5319 80.2664 19.7169 80.3457 19.8531 80.4424C20.6012 80.944 21.4195 81.4193 22.3171 81.8812C22.5679 82.0043 22.8012 82.1364 23.0607 82.2595C24.2091 82.8095 25.4455 83.3243 26.7831 83.7952C26.8536 83.8217 26.9283 83.8436 26.9988 83.8657C35.8824 86.994 48.5719 88.6 61.2 88.6C73.8281 88.6 86.5176 86.994 95.4012 83.8657C95.4717 83.8438 95.5464 83.8217 95.6169 83.7952C96.8845 83.351 98.1272 82.8383 99.3393 82.2595C99.5988 82.1364 99.8321 82.0043 100.083 81.8812C100.98 81.4193 101.799 80.944 102.547 80.4424C102.683 80.3455 102.868 80.2664 103 80.174V99.6ZM61.2 9.4C87.0983 9.4 103 15.8064 103 20.4C103 24.9936 87.0983 31.4 61.2 31.4C35.3017 31.4 19.4 24.9936 19.4 20.4C19.4 15.8064 35.3017 9.4 61.2 9.4ZM22.3171 29.0812C22.5679 29.2043 22.8012 29.3364 23.0607 29.4595C24.2091 30.0095 25.4455 30.5243 26.7831 30.9952C26.8536 31.0217 26.9283 31.0436 26.9988 31.0657C35.8824 34.194 48.5719 35.8 61.2 35.8C73.8281 35.8 86.5176 34.194 95.4012 31.0657C95.4717 31.0438 95.5464 31.0217 95.6169 30.9952C96.8845 30.551 98.1272 30.0383 99.3393 29.4595C99.5988 29.3364 99.8321 29.2043 100.083 29.0812C100.98 28.6193 101.799 28.144 102.547 27.6424C102.683 27.5455 102.868 27.4664 103 27.374V46.8C103 51.3936 87.0983 57.8 61.2 57.8C35.3017 57.8 19.4 51.3936 19.4 46.8V27.374C19.5319 27.4664 19.7169 27.5457 19.8531 27.6424C20.6012 28.144 21.4195 28.6193 22.3171 29.0812ZM19.4 73.2V53.774C19.5319 53.8664 19.7169 53.9457 19.8531 54.0424C20.6012 54.544 21.4195 55.0193 22.3171 55.4812C22.5679 55.6043 22.8012 55.7364 23.0607 55.8595C24.2091 56.4095 25.4455 56.9243 26.7831 57.3952C26.8536 57.4217 26.9283 57.4436 26.9988 57.4657C35.8824 60.594 48.5719 62.2 61.2 62.2C73.8281 62.2 86.5176 60.594 95.4012 57.4657C95.4717 57.4438 95.5464 57.4217 95.6169 57.3952C96.8845 56.951 98.1272 56.4383 99.3393 55.8595C99.5988 55.7364 99.8321 55.6043 100.083 55.4812C100.98 55.0193 101.799 54.544 102.547 54.0424C102.683 53.9455 102.868 53.8664 103 53.774V73.2C103 77.7936 87.0983 84.2 61.2 84.2C35.3017 84.2 19.4 77.7936 19.4 73.2ZM107.4 99.6V20.4C107.4 10.2888 84.1593 5 61.2 5C38.2407 5 15 10.2888 15 20.4V99.6C15 109.711 38.2407 115 61.2 115C84.1593 115 107.4 109.711 107.4 99.6Z" fill="#222733"/>
<path d="M107.4 99.5918V90.7918C107.4 89.5775 106.414 88.5918 105.2 88.5918C103.986 88.5918 103 89.5775 103 90.7918C103 95.3854 87.0983 101.792 61.2 101.792C35.3017 101.792 19.4 95.3854 19.4 90.7918C19.4 89.5775 18.4143 88.5918 17.2 88.5918C15.9857 88.5918 15 89.5775 15 90.7918V99.5918C15 109.703 38.2407 114.992 61.2 114.992C84.1593 114.992 107.4 109.703 107.4 99.5918Z" fill="#222733"/>
</g>
<defs>
<clipPath id="clip0_1155_47009">
<rect width="120" height="120" fill="white"/>
</clipPath>
</defs>
</svg>
