<svg width="120" height="120" viewBox="0 0 120 120" fill="none" xmlns="http://www.w3.org/2000/svg">
<g clip-path="url(#clip0_1155_47039)">
<path d="M60.0009 86.6128C45.3265 86.6128 33.388 74.6743 33.388 59.9999C33.388 45.3256 45.3265 33.387 60.0009 33.387C74.6752 33.387 86.6138 45.3256 86.6138 59.9999C86.6138 74.6743 74.6752 86.6128 60.0009 86.6128ZM104.356 22.7418H90.1622V12.0967H104.356V22.7418ZM26.2912 100.806H12.0977V83.0644H26.2912V100.806Z" fill="#0099A3"/>
<path d="M68.8704 51.1286V49.3544C68.8704 44.4629 64.8909 40.4834 59.9994 40.4834C55.108 40.4834 51.1285 44.4629 51.1285 49.3544V51.1286C49.1715 51.1286 47.5801 52.72 47.5801 54.6769V72.4189C47.5801 74.3758 49.1715 75.9673 51.1285 75.9673H68.8704C70.8273 75.9673 72.4188 74.3758 72.4188 72.4189V54.6769C72.4188 52.72 70.8273 51.1286 68.8704 51.1286ZM54.6769 49.3544C54.6769 46.4198 57.0649 44.0318 59.9994 44.0318C62.934 44.0318 65.322 46.4198 65.322 49.3544V51.1286H54.6769V49.3544ZM51.1285 72.4189V54.6769H68.8704L68.8722 72.4189H51.1285Z" fill="#222733"/>
<path d="M59.9994 56.4512C57.0649 56.4512 54.6768 58.8392 54.6768 61.7738C54.6768 64.0838 56.1653 66.0354 58.2252 66.7699V70.6447H61.7736V66.7699C62.8083 66.4051 63.7049 65.7291 64.3402 64.8346C64.9755 63.9401 65.3184 62.8709 65.3219 61.7738C65.3219 58.8392 62.9339 56.4512 59.9994 56.4512ZM59.9994 63.5479C59.5425 63.5275 59.1112 63.3317 58.7952 63.0012C58.4791 62.6707 58.3028 62.231 58.3028 61.7738C58.3028 61.3165 58.4791 60.8768 58.7952 60.5463C59.1112 60.2158 59.5425 60.02 59.9994 59.9996C60.4562 60.02 60.8875 60.2158 61.2036 60.5463C61.5196 60.8768 61.696 61.3165 61.696 61.7738C61.696 62.231 61.5196 62.6707 61.2036 63.0012C60.8875 63.3317 60.4562 63.5275 59.9994 63.5479ZM15.6445 104.354H22.7413V107.903H15.6445V104.354Z" fill="#222733"/>
<path d="M109.677 75.9677H100.806V61.7742H93.6192C93.6511 61.1834 93.7097 60.5997 93.7097 60C93.7097 59.4003 93.6511 58.8166 93.6192 58.2258H100.806V38.7097H110.565C111.387 38.7077 112.194 38.4771 112.893 38.0437C113.593 37.6102 114.158 36.9909 114.526 36.2549C114.894 35.5188 115.05 34.695 114.977 33.8754C114.904 33.0557 114.605 32.2724 114.113 31.6129L111.452 28.0645V10.3226C111.452 7.38806 109.064 5 106.129 5H88.3871C85.4526 5 83.0645 7.38806 83.0645 10.3226V28.0645L80.4015 31.6147C80.1411 31.9671 79.9347 32.3563 79.7894 32.7697C77.5131 31.1069 75.0371 29.7365 72.4194 28.6908V25.9639C73.4541 25.5991 74.3507 24.9231 74.986 24.0286C75.6213 23.1341 75.9642 22.0649 75.9677 20.9677C75.9677 18.0332 73.5797 15.6452 70.6452 15.6452C67.7106 15.6452 65.3226 18.0332 65.3226 20.9677C65.3226 23.2777 66.8111 25.2294 68.871 25.9639V27.5145C66.553 26.8826 64.1737 26.5025 61.7742 26.3808V15.3187C62.809 14.954 63.7055 14.278 64.3408 13.3834C64.9761 12.4889 65.3191 11.4197 65.3226 10.3226C65.3226 7.38806 62.9345 5 60 5C57.0655 5 54.6774 7.38806 54.6774 10.3226C54.6774 12.6326 56.166 14.5842 58.2258 15.3187V26.3808C54.5752 26.5651 50.9793 27.3454 47.5806 28.6908V22.4155C48.6154 22.0507 49.512 21.3747 50.1473 20.4802C50.7826 19.5857 51.1255 18.5165 51.129 17.4194C51.129 14.4848 48.741 12.0968 45.8064 12.0968C42.8719 12.0968 40.4839 14.4848 40.4839 17.4194C40.4839 19.7294 41.9724 21.681 44.0323 22.4155V30.3231C39.4778 32.7862 35.5508 36.2637 32.5547 40.4866C29.5586 44.7096 27.5737 49.565 26.7534 54.6774H22.7419V40.4839H27.566C28.666 40.4839 29.6844 39.9871 30.3621 39.1195C31.0398 38.2519 31.2758 37.1431 31.0079 36.0732L30.3355 33.3871H31.6129C34.5474 33.3871 36.9355 30.999 36.9355 28.0645V10.3226C36.9355 7.38806 34.5474 5 31.6129 5H10.3226C7.38806 5 5 7.38806 5 10.3226V28.0645C5 30.999 7.38806 33.3871 10.3226 33.3871H11.5982L10.9258 36.0768C10.6615 37.1448 10.8956 38.2555 11.5734 39.1213C12.2511 39.9871 13.2695 40.4839 14.3695 40.4839H19.1935V58.2258H26.3808C26.3489 58.8166 26.2903 59.4003 26.2903 60C26.2903 60.5997 26.3489 61.1834 26.3808 61.7742H19.1935V75.9677H10.3226C7.38806 75.9677 5 78.3558 5 81.2903V109.677C5 112.612 7.38806 115 10.3226 115H28.0645C30.999 115 33.3871 112.612 33.3871 109.677V81.2903C33.3871 81.0224 33.3463 80.7652 33.3073 80.5079C36.2003 84.282 39.8543 87.4059 44.0323 89.6769V97.5845C42.9975 97.9492 42.1009 98.6253 41.4656 99.5198C40.8303 100.414 40.4874 101.483 40.4839 102.581C40.4839 105.515 42.8719 107.903 45.8064 107.903C48.741 107.903 51.129 105.515 51.129 102.581C51.1255 101.483 50.7826 100.414 50.1473 99.5198C49.512 98.6253 48.6154 97.9492 47.5806 97.5845V91.3092C50.9788 92.6563 54.575 93.4367 58.2258 93.6192V104.681C57.191 105.046 56.2945 105.722 55.6592 106.617C55.0239 107.511 54.6809 108.58 54.6774 109.677C54.6774 112.612 57.0655 115 60 115C62.9345 115 65.3226 112.612 65.3226 109.677C65.3191 108.58 64.9761 107.511 64.3408 106.617C63.7055 105.722 62.809 105.046 61.7742 104.681V93.6192C64.1736 93.4966 66.5528 93.1165 68.871 92.4855V94.0361C67.8362 94.4009 66.9397 95.0769 66.3043 95.9714C65.669 96.8659 65.3261 97.9351 65.3226 99.0323C65.3226 101.967 67.7106 104.355 70.6452 104.355C73.5797 104.355 75.9677 101.967 75.9677 99.0323C75.9642 97.9351 75.6213 96.8659 74.986 95.9714C74.3507 95.0769 73.4541 94.4009 72.4194 94.0361V91.3092C78.0607 89.0557 82.9911 85.3247 86.6927 80.5079C86.6537 80.7652 86.6129 81.0224 86.6129 81.2903V109.677C86.6129 112.612 89.001 115 91.9355 115H109.677C112.612 115 115 112.612 115 109.677V81.2903C115 78.3558 112.612 75.9677 109.677 75.9677ZM70.6452 19.1935C70.9966 19.1932 71.3402 19.2971 71.6325 19.4921C71.9248 19.6871 72.1527 19.9645 72.2874 20.2891C72.422 20.6137 72.4573 20.9709 72.3889 21.3156C72.3204 21.6602 72.1512 21.9768 71.9027 22.2253C71.6543 22.4738 71.3376 22.643 70.993 22.7114C70.6483 22.7799 70.2911 22.7446 69.9665 22.61C69.6419 22.4753 69.3645 22.2474 69.1695 21.9551C68.9745 21.6628 68.8706 21.3191 68.871 20.9677C68.871 19.9902 69.6658 19.1935 70.6452 19.1935ZM45.8064 15.6452C46.1579 15.6448 46.5015 15.7487 46.7938 15.9437C47.0861 16.1387 47.314 16.4161 47.4487 16.7407C47.5833 17.0653 47.6186 17.4225 47.5502 17.7672C47.4817 18.1118 47.3125 18.4284 47.064 18.6769C46.8155 18.9254 46.4989 19.0946 46.1543 19.1631C45.8096 19.2315 45.4524 19.1962 45.1278 19.0616C44.8032 18.9269 44.5258 18.699 44.3308 18.4067C44.1358 18.1144 44.0319 17.7708 44.0323 17.4194C44.0323 16.4418 44.8271 15.6452 45.8064 15.6452ZM10.3226 8.54839H31.6129C32.5923 8.54839 33.3871 9.345 33.3871 10.3226V22.7419H8.54839V10.3226C8.54839 9.345 9.34323 8.54839 10.3226 8.54839ZM8.54839 28.0645V26.2903H33.3871V28.0645C33.3871 29.0421 32.5923 29.8387 31.6129 29.8387H10.3226C9.34323 29.8387 8.54839 29.0421 8.54839 28.0645ZM14.3677 36.9355L15.2548 33.3871H26.6789L27.5642 36.9355H14.3677ZM45.8064 104.355C45.3496 104.334 44.9183 104.139 44.6023 103.808C44.2862 103.478 44.1098 103.038 44.1098 102.581C44.1098 102.123 44.2862 101.684 44.6023 101.353C44.9183 101.023 45.3496 100.827 45.8064 100.806C46.2633 100.827 46.6946 101.023 47.0106 101.353C47.3267 101.684 47.5031 102.123 47.5031 102.581C47.5031 103.038 47.3267 103.478 47.0106 103.808C46.6946 104.139 46.2633 104.334 45.8064 104.355ZM70.6452 100.806C70.1883 100.786 69.757 100.59 69.441 100.26C69.1249 99.9292 68.9486 99.4895 68.9486 99.0323C68.9486 98.575 69.1249 98.1353 69.441 97.8048C69.757 97.4743 70.1883 97.2785 70.6452 97.2581C71.102 97.2785 71.5333 97.4743 71.8493 97.8048C72.1654 98.1353 72.3418 98.575 72.3418 99.0323C72.3418 99.4895 72.1654 99.9292 71.8493 100.26C71.5333 100.59 71.102 100.786 70.6452 100.806ZM111.452 81.2903V83.0645H90.1613V81.2903C90.1613 80.3127 90.9561 79.5161 91.9355 79.5161H109.677C110.657 79.5161 111.452 80.3127 111.452 81.2903ZM90.1613 86.6129H111.452V104.355H90.1613V86.6129ZM97.2581 54.6774H93.2466C92.32 48.817 89.8559 43.3072 86.1055 38.7097H97.2581V54.6774ZM86.6129 10.3226C86.6129 9.345 87.4077 8.54839 88.3871 8.54839H106.129C107.108 8.54839 107.903 9.345 107.903 10.3226V26.2903H86.6129V10.3226ZM83.2419 33.7419L86.1694 29.8387H108.347L111.272 33.7402C111.373 33.8715 111.435 34.0284 111.451 34.1931C111.467 34.3578 111.436 34.5236 111.362 34.6717C111.288 34.8198 111.174 34.9442 111.033 35.0308C110.892 35.1173 110.73 35.1626 110.565 35.1613H83.9516C83.7869 35.1613 83.6254 35.1154 83.4852 35.0288C83.3451 34.9422 83.2318 34.8183 83.1582 34.6709C83.0845 34.5236 83.0533 34.3586 83.0681 34.1945C83.0829 34.0304 83.1431 33.8737 83.2419 33.7419ZM60 8.54839C60.3514 8.54804 60.695 8.65194 60.9873 8.84695C61.2797 9.04196 61.5076 9.31931 61.6422 9.6439C61.7769 9.96849 61.8122 10.3257 61.7437 10.6704C61.6752 11.0151 61.5061 11.3317 61.2576 11.5802C61.0091 11.8286 60.6925 11.9978 60.3478 12.0663C60.0031 12.1348 59.6459 12.0994 59.3213 11.9648C58.9967 11.8302 58.7194 11.6023 58.5244 11.3099C58.3294 11.0176 58.2255 10.674 58.2258 10.3226C58.2258 9.345 59.0206 8.54839 60 8.54839ZM29.8387 109.677C29.8387 110.655 29.0439 111.452 28.0645 111.452H10.3226C9.34323 111.452 8.54839 110.655 8.54839 109.677V81.2903C8.54839 80.3127 9.34323 79.5161 10.3226 79.5161H28.0645C29.0439 79.5161 29.8387 80.3127 29.8387 81.2903V109.677ZM28.0645 75.9677H22.7419V65.3226H26.7534C27.3902 69.341 28.755 73.2094 30.7808 76.7377C29.9621 76.2391 29.0231 75.9729 28.0645 75.9677ZM60 111.452C59.5432 111.431 59.1118 111.235 58.7958 110.905C58.4798 110.574 58.3034 110.135 58.3034 109.677C58.3034 109.22 58.4798 108.78 58.7958 108.45C59.1118 108.12 59.5432 107.924 60 107.903C60.4568 107.924 60.8881 108.12 61.2042 108.45C61.5202 108.78 61.6966 109.22 61.6966 109.677C61.6966 110.135 61.5202 110.574 61.2042 110.905C60.8881 111.235 60.4568 111.431 60 111.452ZM60 90.1613C43.3687 90.1613 29.8387 76.6313 29.8387 60C29.8387 43.3687 43.3687 29.8387 60 29.8387C76.6313 29.8387 90.1613 43.3687 90.1613 60C90.1613 76.6313 76.6313 90.1613 60 90.1613ZM93.2466 65.3226H97.2581V75.9677H91.9355C90.9402 75.9677 90.0176 76.2605 89.2192 76.7377C91.2458 73.2097 92.6106 69.3412 93.2466 65.3226ZM109.677 111.452H91.9355C90.9561 111.452 90.1613 110.655 90.1613 109.677V107.903H111.452V109.677C111.452 110.655 110.657 111.452 109.677 111.452Z" fill="#222733"/>
</g>
<defs>
<clipPath id="clip0_1155_47039">
<rect width="120" height="120" fill="white"/>
</clipPath>
</defs>
</svg>
