<svg width="120" height="120" viewBox="0 0 120 120" fill="none" xmlns="http://www.w3.org/2000/svg">
<g clip-path="url(#clip0_1155_47082)">
<path d="M60.0016 97.2611C80.5794 97.2611 97.2611 80.5794 97.2611 60.0016C97.2611 39.4238 80.5794 22.7422 60.0016 22.7422C39.4238 22.7422 22.7422 39.4238 22.7422 60.0016C22.7422 80.5794 39.4238 97.2611 60.0016 97.2611Z" fill="#0099A3"/>
<path d="M106.684 13.8711H77.1961C75.3864 13.8711 73.7541 14.5985 72.5653 15.7873C71.8253 16.5235 71.273 17.4268 70.955 18.421C70.6369 19.4153 70.5625 20.4714 70.7378 21.5004L71.2346 24.4634L73.2927 36.7768C73.5433 38.3085 74.3307 39.701 75.5139 40.7055C76.6971 41.7099 78.199 42.2607 79.751 42.2592H84.8432V46.6239C84.8432 48.132 86.0674 49.3563 87.5755 49.3563C88.1078 49.3563 88.6223 49.1966 89.0836 48.895L94.3 45.4174L99.0372 42.2592H104.129C107.341 42.2592 110.073 39.935 110.588 36.7768L113.143 21.5004C113.301 20.5619 113.252 19.6002 113.001 18.6823C112.749 17.7645 112.3 16.9126 111.685 16.1862C111.07 15.4598 110.304 14.8763 109.44 14.4764C108.577 14.0766 107.636 13.87 106.684 13.8711ZM47.4418 79.6606C46.8346 79.0514 46.1128 78.5683 45.318 78.2394C44.5232 77.9106 43.6711 77.7423 42.811 77.7444H13.3228C12.371 77.7433 11.4305 77.9499 10.5668 78.3497C9.70313 78.7496 8.9371 79.3331 8.32217 80.0595C7.70724 80.7859 7.25823 81.6378 7.00647 82.5557C6.7547 83.4735 6.70625 84.4352 6.86449 85.3737L9.41942 100.65C9.67002 102.182 10.4573 103.574 11.6405 104.579C12.8237 105.583 14.3257 106.134 15.8777 106.133H20.9698L30.9234 112.768C31.3847 113.07 31.8993 113.23 32.4316 113.23C33.9397 113.23 35.1639 112.005 35.1639 110.497V106.133H40.256C43.4674 106.133 46.1998 103.808 46.7143 100.65L47.637 95.1144L49.2693 85.3737C49.4446 84.3447 49.3702 83.2886 49.0521 82.2944C48.7341 81.3001 48.1818 80.3969 47.4418 79.6606Z" fill="white"/>
<path d="M106.132 35.1637H77.7441C77.7441 31.2426 79.341 27.6941 81.8959 25.1214C84.5615 22.4622 88.173 20.9688 91.9382 20.9688C95.7034 20.9688 99.3149 22.4622 101.981 25.1214C104.639 27.7871 106.133 31.3986 106.132 35.1637Z" fill="#0099A3"/>
<path d="M42.2592 99.0368H13.8711C13.8711 95.1156 15.4679 91.5671 18.0229 88.9945C20.6884 86.3352 24.2999 84.8418 28.0652 84.8418C31.8304 84.8418 35.4419 86.3352 38.1075 88.9945C40.7664 91.6602 42.2595 95.2717 42.2592 99.0368Z" fill="#0099A3"/>
<path d="M91.9388 20.9685C95.8584 20.9685 99.0359 17.791 99.0359 13.8714C99.0359 9.95186 95.8584 6.77441 91.9388 6.77441C88.0192 6.77441 84.8418 9.95186 84.8418 13.8714C84.8418 17.791 88.0192 20.9685 91.9388 20.9685Z" fill="#0099A3"/>
<path d="M28.0658 70.6475C31.9869 70.6475 35.1628 73.8234 35.1628 77.7445C35.1628 81.6656 31.9869 84.8415 28.0658 84.8415C24.1447 84.8415 20.9688 81.6656 20.9688 77.7445C20.9678 76.4839 21.3026 75.2458 21.9387 74.1575C22.5748 73.0692 23.4894 72.17 24.5882 71.5523C25.6173 70.9846 26.8061 70.6475 28.0658 70.6475Z" fill="#0099A3"/>
<path d="M93.7126 97.2611C95.6724 97.2611 97.2611 95.6724 97.2611 93.7126C97.2611 91.7528 95.6724 90.1641 93.7126 90.1641C91.7528 90.1641 90.1641 91.7528 90.1641 93.7126C90.1641 95.6724 91.7528 97.2611 93.7126 97.2611Z" fill="#0099A3"/>
<path d="M26.2907 29.8392C28.2505 29.8392 29.8392 28.2505 29.8392 26.2907C29.8392 24.3309 28.2505 22.7422 26.2907 22.7422C24.3309 22.7422 22.7422 24.3309 22.7422 26.2907C22.7422 28.2505 24.3309 29.8392 26.2907 29.8392Z" fill="#0099A3"/>
<path d="M104.567 48.0423C105.605 51.9226 106.132 55.9466 106.132 60.0026C106.148 69.1266 103.443 78.0483 98.3646 85.6282L101.313 87.6029C106.783 79.4388 109.697 69.8298 109.681 60.0026C109.681 55.6361 109.113 51.3051 107.993 47.1232L104.567 48.0423ZM60.0016 13.8718C62.2886 13.8718 64.588 14.0421 66.8396 14.3739L67.3594 10.8627C64.9232 10.5043 62.464 10.3241 60.0016 10.3233C50.1738 10.3079 40.5644 13.2209 32.3994 18.6907L34.3724 21.6395C41.9539 16.5612 50.8765 13.8569 60.0016 13.8718ZM15.4357 71.9628C14.3948 68.0614 13.8687 64.0405 13.8708 60.0026C13.8554 50.8785 16.5597 41.9568 21.6386 34.3769L18.6897 32.4022C13.2197 40.5663 10.3066 50.1753 10.3223 60.0026C10.3223 64.369 10.8901 68.7 12.0096 72.8819L15.4357 71.9628ZM60.0016 106.133C57.1255 106.133 54.2512 105.869 51.4567 105.346L50.8038 108.832C53.8112 109.396 56.9055 109.682 60.0016 109.682C69.8288 109.698 79.4379 106.785 87.6019 101.314L85.629 98.3656C78.0483 103.444 69.1262 106.148 60.0016 106.133ZM93.7125 88.3907C90.7779 88.3907 88.3897 90.7788 88.3897 93.7135C88.3897 96.6481 90.7779 99.0362 93.7125 99.0362C96.6471 99.0362 99.0353 96.6481 99.0353 93.7135C99.0353 90.7788 96.6471 88.3907 93.7125 88.3907ZM93.7125 95.4877C93.2557 95.4673 92.8243 95.2714 92.5083 94.9409C92.1922 94.6104 92.0158 94.1708 92.0158 93.7135C92.0158 93.2562 92.1922 92.8165 92.5083 92.486C92.8243 92.1555 93.2557 91.9596 93.7125 91.9392C94.1693 91.9596 94.6007 92.1555 94.9167 92.486C95.2328 92.8165 95.4092 93.2562 95.4092 93.7135C95.4092 94.1708 95.2328 94.6104 94.9167 94.9409C94.6007 95.2714 94.1693 95.4673 93.7125 95.4877ZM26.2907 31.6144C29.2253 31.6144 31.6134 29.2263 31.6134 26.2916C31.6134 23.357 29.2253 20.9689 26.2907 20.9689C23.356 20.9689 20.9679 23.357 20.9679 26.2916C20.9679 29.2263 23.356 31.6144 26.2907 31.6144ZM26.2907 24.5174C26.6421 24.517 26.9857 24.6209 27.278 24.816C27.5704 25.011 27.7983 25.2883 27.9329 25.6129C28.0676 25.9375 28.1029 26.2948 28.0344 26.6395C27.966 26.9841 27.7968 27.3008 27.5483 27.5493C27.2998 27.7977 26.9832 27.9669 26.6385 28.0354C26.2938 28.1039 25.9366 28.0686 25.612 27.9339C25.2874 27.7993 25.01 27.5713 24.815 27.279C24.62 26.9867 24.516 26.643 24.5164 26.2916C24.5164 25.3122 25.313 24.5174 26.2907 24.5174Z" fill="#222733"/>
<path d="M106.674 12.097H100.629C99.8037 8.0535 96.2197 5 91.9367 5C87.6536 5 84.0696 8.0535 83.2446 12.097H77.1997C75.9907 12.0986 74.7966 12.3631 73.7001 12.8721C72.6035 13.3812 71.6308 14.1226 70.8493 15.045C70.0679 15.9674 69.4963 17.0487 69.1744 18.214C68.8524 19.3792 68.7878 20.6006 68.9848 21.7934L69.0239 22.0276C66.0672 21.3254 63.0389 20.9699 60 20.9683C38.4765 20.9683 20.9663 38.4785 20.9663 60.002C20.9663 63.6623 21.5181 67.3031 22.5472 70.8516C20.9592 72.1255 19.7917 73.9034 19.3712 75.9704H13.3263C12.1174 75.9719 10.9233 76.2364 9.82674 76.7455C8.73021 77.2545 7.75749 77.9959 6.97602 78.9183C6.19455 79.8407 5.62303 80.922 5.30108 82.0873C4.97913 83.2526 4.91445 84.4739 5.11152 85.6667L7.65758 100.945C7.97599 102.892 8.97769 104.663 10.4831 105.938C11.9885 107.214 13.8991 107.912 15.8724 107.907H20.4287L29.9405 114.248C30.6182 114.698 31.4053 114.956 32.2179 114.995C33.0306 115.034 33.8385 114.851 34.5558 114.467C35.2732 114.084 35.8732 113.513 36.292 112.815C36.7109 112.118 36.9329 111.32 36.9346 110.506V107.907H40.2543C42.2273 107.912 44.1377 107.215 45.6431 105.939C47.1484 104.664 48.1503 102.894 48.4691 100.947L49.0599 97.407C52.6546 98.4662 56.322 99.0357 60 99.0357C81.5235 99.0357 99.0337 81.5256 99.0337 60.002C99.0337 55.208 98.1324 50.5559 96.4397 46.122L99.5713 44.0337H104.128C106.101 44.039 108.011 43.3413 109.516 42.0658C111.022 40.7904 112.024 39.0204 112.342 37.0733L114.888 21.7969C115.086 20.6039 115.022 19.3821 114.7 18.2164C114.378 17.0507 113.807 15.9689 113.026 15.0461C112.244 14.1233 111.271 13.3816 110.174 12.8723C109.077 12.3631 107.883 12.0985 106.674 12.097ZM91.9367 8.54852C94.8713 8.54852 97.2594 10.9367 97.2594 13.8713C97.2594 16.8059 94.8713 19.1941 91.9367 19.1941C89.002 19.1941 86.6139 16.8059 86.6139 13.8713C86.6139 10.9367 89.002 8.54852 91.9367 8.54852ZM69.6662 25.8813L71.5309 37.0733C71.7438 38.3472 72.2566 39.4898 72.9556 40.4852H51.2706C53.3465 30.7232 56.7921 24.5168 60 24.5168C63.2788 24.5168 66.5222 24.9923 69.6662 25.8813ZM95.3947 61.7763C95.1561 66.7185 93.8786 71.5549 91.6457 75.9704H72.9982C73.7143 71.2714 74.1091 66.529 74.1799 61.7763H95.3947ZM69.3911 75.9704H50.5964C49.8814 71.5525 49.4715 66.7194 49.3917 61.7763H70.6154C70.5302 66.927 70.0902 71.7121 69.3911 75.9704ZM24.6053 58.2278C24.8439 53.2856 26.1214 48.4491 28.3543 44.0337H47.0018C46.2857 48.7327 45.8909 53.4751 45.8201 58.2278H24.6053ZM49.3846 58.2278C49.4698 53.0771 49.9098 48.2919 50.6088 44.0337H69.4036C70.1186 48.4516 70.5284 53.2847 70.6083 58.2278H49.3846ZM53.3181 25.168C50.8005 28.6917 48.8931 34.1546 47.6299 40.4852H30.3947C35.5755 32.6536 43.7708 26.9973 53.3181 25.168ZM24.5858 61.7763H45.8432C45.9212 66.6981 46.3187 71.5205 47.0071 75.9704H36.7537C36.3419 73.9682 35.2526 72.1693 33.6693 70.8765C32.0861 69.5838 30.1056 68.8763 28.0616 68.8733C27.2631 68.8733 26.5038 69.0135 25.7657 69.2122C25.1101 66.7824 24.7146 64.2897 24.5858 61.7763ZM28.0633 83.0674C25.1287 83.0674 22.7406 80.6792 22.7406 77.7446C22.7406 74.81 25.1287 72.4218 28.0633 72.4218C30.998 72.4218 33.3861 74.81 33.3861 77.7446C33.3861 80.6792 30.998 83.0674 28.0633 83.0674ZM44.9685 100.365C44.7855 101.482 44.2105 102.498 43.3466 103.229C42.4828 103.961 41.3865 104.362 40.2543 104.359H33.3861V110.506C33.3861 111.216 32.5008 111.688 31.9099 111.296L21.5039 104.359H15.8724C14.74 104.362 13.6435 103.961 12.7793 103.23C11.9151 102.498 11.3398 101.482 11.1564 100.365L8.61036 85.0847C8.49713 84.4 8.53421 83.6989 8.71901 83.0299C8.90381 82.3609 9.23191 81.7402 9.68056 81.2106C10.1292 80.6811 10.6877 80.2556 11.3172 79.9634C11.9468 79.6713 12.6323 79.5196 13.3263 79.5189H19.3712C19.7519 81.3387 20.6968 82.9921 22.0717 84.2437C16.229 86.6195 12.095 92.3503 12.095 99.0357V100.81H44.0317V99.0357C44.0317 92.3503 39.8976 86.6195 34.055 84.2437C35.4295 82.9919 36.3745 81.3386 36.7554 79.5189H42.8003C43.4942 79.5199 44.1796 79.6718 44.8089 79.964C45.4382 80.2562 45.9964 80.6819 46.4449 81.2113C46.8934 81.7408 47.2213 82.3615 47.406 83.0303C47.5907 83.6992 47.6277 84.4002 47.5145 85.0847L44.9685 100.365ZM28.0633 86.6159C34.3105 86.6159 39.4931 91.2503 40.3572 97.2615H15.7695C16.6336 91.2503 21.8162 86.6159 28.0633 86.6159ZM49.6472 93.878L51.0151 85.6685C51.1952 84.6007 51.1628 83.5079 50.9198 82.4526C50.6769 81.3974 50.2281 80.4004 49.5993 79.5189H68.7293C66.6535 89.2808 63.2079 95.4872 60 95.4872C56.5224 95.4872 53.0502 94.9248 49.6472 93.878ZM66.6819 94.8361C69.1995 91.3124 71.1069 85.8494 72.3701 79.5189H89.6053C84.4244 87.3505 76.2291 93.0068 66.6819 94.8361ZM95.3965 58.2278H74.1568C74.0918 53.4755 73.7029 48.7331 72.9929 44.0337H83.0654V46.633C83.0668 47.8254 83.5411 48.9686 84.3843 49.8118C85.2275 50.655 86.3707 51.1293 87.5631 51.1307C88.4538 51.1307 89.3161 50.8699 90.0577 50.3749L93.4057 48.1429C94.561 51.3885 95.2318 54.7866 95.3965 58.2278ZM111.388 21.2132L108.842 36.4913C108.659 37.6086 108.084 38.6243 107.22 39.3561C106.356 40.088 105.26 40.4883 104.128 40.4852H98.4979L88.0918 47.4225C87.4957 47.8164 86.6139 47.3427 86.6139 46.633V40.4852H79.7457C78.6133 40.4883 77.5168 40.0881 76.6526 39.3563C75.7885 38.6244 75.2131 37.6088 75.0297 36.4913L72.4837 21.2114C72.3705 20.5267 72.4075 19.8255 72.5923 19.1566C72.7771 18.4876 73.1052 17.8668 73.5539 17.3373C74.0025 16.8078 74.561 16.3822 75.1905 16.0901C75.8201 15.798 76.5056 15.6463 77.1997 15.6456H83.2446C83.6252 17.4654 84.5702 19.1188 85.945 20.3704C80.1023 22.7461 75.9683 28.477 75.9683 35.1624V36.9367H107.905V35.1624C107.905 28.477 103.771 22.7461 97.9283 20.3704C99.3026 19.1183 100.247 17.4651 100.629 15.6456H106.674C107.368 15.6465 108.053 15.7984 108.683 16.0908C109.312 16.3831 109.871 16.8089 110.319 17.3386C110.767 17.8683 111.095 18.4892 111.28 19.1582C111.465 19.8273 111.501 20.5285 111.388 21.2132ZM91.9367 22.7426C98.1838 22.7426 103.366 27.377 104.23 33.3881H79.6428C80.5069 27.377 85.6895 22.7426 91.9367 22.7426Z" fill="#222733"/>
</g>
<defs>
<clipPath id="clip0_1155_47082">
<rect width="120" height="120" fill="white"/>
</clipPath>
</defs>
</svg>
