<svg width="120" height="120" viewBox="0 0 120 120" fill="none" xmlns="http://www.w3.org/2000/svg">
<g clip-path="url(#clip0_1155_47016)">
<path d="M25.1648 60.0119C25.163 78.5632 39.6901 93.8659 58.2158 94.8266C59.2058 94.8596 59.9941 95.6699 59.9978 96.6599V111.345C59.9963 111.594 59.9445 111.84 59.8454 112.069C59.7463 112.297 59.6019 112.503 59.4211 112.675C59.2402 112.846 59.0265 112.979 58.7929 113.065C58.5593 113.152 58.3106 113.19 58.0618 113.178C57.0425 113.135 56.025 113.057 55.0112 112.943C54.3053 112.855 53.6477 112.538 53.1381 112.042C52.6285 111.546 52.2949 110.897 52.1879 110.193L51.0329 103.13C45.6311 102.014 40.4916 99.8785 35.8897 96.8377L30.0597 101.02C29.4846 101.443 28.7877 101.668 28.0736 101.661C27.3596 101.655 26.667 101.417 26.0998 100.983C24.823 99.9183 23.5935 98.7983 22.4148 97.626C21.2336 96.452 20.1137 95.2178 19.0598 93.9283C18.6253 93.3607 18.3867 92.6674 18.3801 91.9526C18.3735 91.2377 18.5992 90.5401 19.0232 89.9646L23.2031 84.1383C20.1642 79.5319 18.0301 74.3889 16.9149 68.9842L9.85661 67.8273C9.14344 67.7084 8.48872 67.3595 7.99224 66.8339C7.49577 66.3083 7.18476 65.6348 7.10663 64.916C6.74571 61.6259 6.74571 58.3062 7.10663 55.0161C7.28996 53.566 8.41195 52.4128 9.85661 52.191L16.9149 51.036C18.0301 45.6313 20.1642 40.4883 23.2031 35.8818L19.0232 30.0519C18.6009 29.477 18.3762 28.7809 18.3829 28.0676C18.3895 27.3544 18.627 26.6625 19.0598 26.0956C20.1048 24.7994 21.2232 23.5656 22.4148 22.4033C23.5846 21.2212 24.8146 20.1001 26.0998 19.0446C26.667 18.6109 27.3596 18.3729 28.0736 18.3663C28.7877 18.3597 29.4846 18.5848 30.0597 19.008L35.8897 23.1916C40.4919 20.151 45.6312 18.015 51.0329 16.8978L52.1879 9.8359C52.2971 9.13138 52.6309 8.48096 53.1396 7.98149C53.6483 7.48201 54.3048 7.16019 55.0112 7.06393C56.0276 6.96269 57.0467 6.88994 58.0673 6.84577C58.3157 6.83414 58.5639 6.87289 58.797 6.95966C59.0301 7.04644 59.2432 7.17946 59.4235 7.35072C59.6039 7.52198 59.7477 7.72794 59.8464 7.95622C59.9451 8.1845 59.9966 8.43038 59.9978 8.67908V23.3676C59.9923 24.3576 59.2058 25.1679 58.2158 25.2009C39.692 26.1616 25.1648 41.4624 25.1648 60.0119Z" fill="#0099A3"/>
<path d="M58.2167 25.1991C59.2067 25.1661 59.995 24.3558 59.9987 23.3658V8.67908C59.9975 8.43038 59.946 8.1845 59.8473 7.95622C59.7486 7.72794 59.6048 7.52198 59.4245 7.35072C59.2441 7.17946 59.031 7.04644 58.7979 6.95966C58.5649 6.87289 58.3167 6.83414 58.0682 6.84577C57.0379 6.88793 56.0186 6.96126 55.0121 7.0621C54.6406 7.10919 54.2806 7.22218 53.9488 7.39576C54.2971 7.73309 54.4951 8.19509 54.4988 8.67908V23.3676C54.4933 24.3576 53.7068 25.1679 52.7168 25.2009C34.1893 26.1616 19.6621 41.4624 19.6621 60.0156C19.6621 78.5687 34.1893 93.8677 52.7168 94.8284C53.7068 94.8614 54.4951 95.6717 54.4988 96.6617V111.345C54.4965 111.584 54.4467 111.821 54.3523 112.041C54.2579 112.262 54.1207 112.461 53.9488 112.628C54.2788 112.795 54.6363 112.903 55.0029 112.945C56.0076 113.059 57.0196 113.129 58.0536 113.18C58.3033 113.193 58.5531 113.156 58.7879 113.07C59.0227 112.984 59.2376 112.851 59.4195 112.679C59.6014 112.508 59.7465 112.301 59.8461 112.071C59.9457 111.842 59.9976 111.595 59.9987 111.345V96.6525C59.9961 96.1759 59.8092 95.7188 59.4769 95.377C59.1447 95.0352 58.6931 94.8353 58.2167 94.8192C39.6892 93.8586 25.1621 78.5577 25.1621 60.0046C25.1621 41.4514 39.6892 26.1524 58.2167 25.1918V25.1991Z" fill="#0099A3"/>
<path d="M59.9968 85.747C59.999 85.9752 59.9547 86.2015 59.8667 86.4121C59.7787 86.6227 59.6488 86.8131 59.4848 86.9719C59.3209 87.1307 59.1264 87.2545 58.9131 87.3358C58.6998 87.417 58.4722 87.4541 58.2442 87.4446C43.761 86.528 32.4824 74.5124 32.4824 59.9999C32.4824 45.4874 43.761 33.4718 58.2442 32.5552C58.4722 32.5457 58.6998 32.5827 58.9131 32.664C59.1264 32.7452 59.3209 32.869 59.4848 33.0278C59.6488 33.1866 59.7787 33.3771 59.8667 33.5877C59.9547 33.7983 59.999 34.0246 59.9968 34.2528V85.747Z" fill="#0099A3"/>
<path d="M58.2455 32.5552C56.844 32.6533 55.4521 32.8586 54.082 33.1693C54.3429 33.4709 54.4901 33.8541 54.4982 34.2528V85.747C54.4901 86.1456 54.3429 86.5289 54.082 86.8305C55.4515 87.1421 56.8448 87.3456 58.2455 87.4446C58.4735 87.4541 58.7011 87.417 58.9144 87.3358C59.1277 87.2545 59.3222 87.1307 59.4862 86.9719C59.6501 86.8131 59.78 86.6227 59.868 86.4121C59.9561 86.2015 60.0003 85.9752 59.9981 85.747V34.2528C60.0003 34.0246 59.9561 33.7983 59.868 33.5877C59.78 33.3771 59.6501 33.1866 59.4862 33.0278C59.3222 32.869 59.1277 32.7452 58.9144 32.664C58.7011 32.5827 58.4735 32.5457 58.2455 32.5552Z" fill="#0099A3"/>
<path d="M76.5065 17.8381C78.5315 17.8381 80.1731 16.1965 80.1731 14.1715C80.1731 12.1465 78.5315 10.5049 76.5065 10.5049C74.4814 10.5049 72.8398 12.1465 72.8398 14.1715C72.8398 16.1965 74.4814 17.8381 76.5065 17.8381Z" fill="#0099A3"/>
<path d="M76.5065 109.504C78.5315 109.504 80.1731 107.863 80.1731 105.838C80.1731 103.813 78.5315 102.171 76.5065 102.171C74.4814 102.171 72.8398 103.813 72.8398 105.838C72.8398 107.863 74.4814 109.504 76.5065 109.504Z" fill="#0099A3"/>
<path d="M94.8405 91.1712C96.8655 91.1712 98.5071 89.5295 98.5071 87.5045C98.5071 85.4795 96.8655 83.8379 94.8405 83.8379C92.8154 83.8379 91.1738 85.4795 91.1738 87.5045C91.1738 89.5295 92.8154 91.1712 94.8405 91.1712Z" fill="#0099A3"/>
<path d="M109.503 63.6712C111.528 63.6712 113.169 62.0295 113.169 60.0045C113.169 57.9795 111.528 56.3379 109.503 56.3379C107.478 56.3379 105.836 57.9795 105.836 60.0045C105.836 62.0295 107.478 63.6712 109.503 63.6712Z" fill="#0099A3"/>
<path d="M94.8405 36.1712C96.8655 36.1712 98.5071 34.5295 98.5071 32.5045C98.5071 30.4795 96.8655 28.8379 94.8405 28.8379C92.8154 28.8379 91.1738 30.4795 91.1738 32.5045C91.1738 34.5295 92.8154 36.1712 94.8405 36.1712Z" fill="#0099A3"/>
<path d="M9.55762 50.3811C8.46289 50.5586 7.45509 51.0859 6.68506 51.884C5.91503 52.6822 5.42419 53.7082 5.286 54.8086C4.90838 58.2318 4.90469 61.686 5.275 65.11C5.40057 66.227 5.88701 67.2726 6.66054 68.0881C7.43407 68.9037 8.45248 69.4447 9.56129 69.6291L15.3949 70.5843C16.5149 75.3546 18.4054 79.9103 20.992 84.072L17.5582 88.8679C16.8924 89.7707 16.54 90.8664 16.5545 91.988C16.5691 93.1097 16.9499 94.1958 17.6389 95.081C18.7315 96.4193 19.8939 97.6972 21.1222 98.9108C22.3581 100.139 23.6476 101.312 24.9868 102.427C26.7908 103.815 29.2951 103.844 31.1321 102.499L35.9519 99.041C40.1094 101.627 44.6607 103.518 49.4267 104.64L50.3837 110.483C50.5609 111.578 51.088 112.586 51.8861 113.356C52.6843 114.127 53.7105 114.618 54.8112 114.756C55.8562 114.874 56.9177 114.956 57.9865 115H58.1423C59.0975 115 60.016 114.633 60.709 113.973C61.4294 113.286 61.8346 112.333 61.8328 111.337V96.6448C61.8275 95.6996 61.4589 94.7927 60.8033 94.1118C60.1477 93.4309 59.2553 93.0283 58.311 92.9874C40.7643 92.0707 27.0053 77.5765 27.0053 60.006C27.0053 42.4355 40.7643 27.9395 58.3128 27.0229C59.2586 26.9814 60.152 26.5774 60.8078 25.8946C61.4636 25.2119 61.8313 24.3029 61.8346 23.3562V8.67138C61.836 8.17824 61.7369 7.68999 61.5434 7.23641C61.3499 6.78284 61.0659 6.37345 60.709 6.03324C60.3524 5.68342 59.9272 5.41139 59.4602 5.23436C58.9932 5.05733 58.4945 4.97914 57.9956 5.00475C56.9287 5.04691 55.8708 5.12391 54.7855 5.23391C53.6857 5.37568 52.6618 5.87114 51.8682 6.6456C51.0745 7.42006 50.5542 8.43154 50.3856 9.52754L49.4304 15.3648C44.6643 16.4873 40.1131 18.379 35.9555 20.9656L31.1357 17.5153C30.2337 16.8556 29.141 16.5084 28.0236 16.5262C26.9062 16.5441 25.8252 16.9261 24.9446 17.6143C23.6154 18.7023 22.3432 19.8582 21.1332 21.0774C19.8865 22.2966 18.7132 23.5891 17.6169 24.9457C16.936 25.8254 16.5592 26.9024 16.5433 28.0147C16.5275 29.1269 16.8733 30.2143 17.5289 31.113L20.9847 35.9383C18.4003 40.0996 16.5123 44.6548 15.3949 49.4241L9.55762 50.3811ZM18.7114 51.4041C19.7773 46.2261 21.822 41.2991 24.7356 36.8879C24.9396 36.5781 25.0447 36.2137 25.0372 35.8428C25.0297 35.472 24.9098 35.1121 24.6935 34.8108L20.5117 28.9717C20.3233 28.7231 20.219 28.4209 20.2141 28.109C20.2091 27.7971 20.3037 27.4918 20.4842 27.2374C21.4891 25.9919 22.5671 24.8074 23.7127 23.6899C24.8253 22.5659 25.994 21.4988 27.2143 20.4926C27.4698 20.2978 27.7822 20.1923 28.1034 20.1923C28.4247 20.1923 28.7371 20.2978 28.9926 20.4926L34.8225 24.6762C35.1242 24.892 35.4843 25.0112 35.8551 25.0181C36.226 25.025 36.5902 24.9192 36.8997 24.7147C41.3071 21.7998 46.2312 19.7544 51.4067 18.6886C51.7702 18.6137 52.1024 18.4302 52.3593 18.1624C52.6163 17.8947 52.786 17.5552 52.8459 17.189L53.999 10.1289C54.0394 9.82039 54.1776 9.53301 54.3935 9.30894C54.6093 9.08487 54.8913 8.93594 55.198 8.88404C56.1849 8.78144 57.1747 8.71052 58.1661 8.67138L58.1258 23.3581C38.6083 24.3554 23.2965 40.4776 23.3075 60.0207C23.3185 79.5639 38.6468 95.6695 58.1661 96.6448L58.1405 111.337C57.164 111.296 56.1893 111.221 55.2182 111.112C54.9101 111.067 54.6249 110.923 54.4054 110.702C54.186 110.481 54.044 110.195 54.0009 109.887L52.8459 102.823C52.786 102.457 52.6163 102.117 52.3593 101.85C52.1024 101.582 51.7702 101.398 51.4067 101.323C46.2311 100.257 41.3071 98.2108 36.8997 95.2955C36.59 95.0913 36.2257 94.9859 35.8549 94.9931C35.484 95.0003 35.124 95.1198 34.8225 95.3359L28.9871 99.5231C28.7446 99.7117 28.4483 99.8178 28.1412 99.8261C27.8342 99.8343 27.5325 99.7442 27.2803 99.569C26.0456 98.5365 24.8553 97.452 23.7127 96.3185C22.5885 95.2079 21.5219 94.0403 20.5172 92.8205C20.3247 92.5634 20.2206 92.2508 20.2206 91.9296C20.2206 91.6083 20.3247 91.2957 20.5172 91.0386L24.6953 85.205C24.9114 84.9035 25.0309 84.5435 25.0381 84.1727C25.0453 83.8018 24.9398 83.4375 24.7356 83.1278C21.8217 78.7174 19.7769 73.791 18.7114 68.6135C18.6366 68.2502 18.4534 67.9182 18.1859 67.6613C17.9185 67.4043 17.5795 67.2345 17.2135 67.1743L10.1553 66.0175C9.83557 65.9646 9.54193 65.8086 9.31916 65.5732C9.09639 65.3379 8.95672 65.0361 8.92146 64.714C8.57805 61.5606 8.58174 58.3791 8.93246 55.2266C8.97691 54.9182 9.12009 54.6326 9.34054 54.4125C9.561 54.1923 9.84686 54.0496 10.1553 54.0056L17.2117 52.8506C17.579 52.7902 17.9191 52.6195 18.187 52.3611C18.4549 52.1027 18.6378 51.769 18.7114 51.4041Z" fill="#222733"/>
<path d="M109.503 54.508C108.37 54.5127 107.266 54.8675 106.342 55.5238C105.417 56.1802 104.719 57.106 104.341 58.1746H61.8373V52.6747H91.1703C92.629 52.6747 94.0279 52.0952 95.0594 51.0638C96.0908 50.0324 96.6703 48.6334 96.6703 47.1748V37.6708C97.8935 37.2384 98.9244 36.3874 99.5809 35.2683C100.237 34.1492 100.477 32.8341 100.258 31.5554C100.038 30.2767 99.3739 29.1167 98.382 28.2804C97.39 27.4442 96.1344 26.9855 94.837 26.9855C93.5395 26.9855 92.2839 27.4442 91.2919 28.2804C90.3 29.1167 89.6356 30.2767 89.4162 31.5554C89.1968 32.8341 89.4365 34.1492 90.093 35.2683C90.7495 36.3874 91.7804 37.2384 93.0036 37.6708V47.1748C93.0036 47.661 92.8105 48.1273 92.4667 48.4711C92.1229 48.8149 91.6565 49.0081 91.1703 49.0081H61.8373V43.5081H82.0037C82.49 43.5081 82.9563 43.315 83.3001 42.9712C83.6439 42.6273 83.8371 42.161 83.8371 41.6748C83.8371 41.1886 83.6439 40.7223 83.3001 40.3785C82.9563 40.0346 82.49 39.8415 82.0037 39.8415H61.8373V36.1749H72.8372C74.2958 36.1749 75.6948 35.5954 76.7262 34.564C77.7577 33.5325 78.3371 32.1336 78.3371 30.6749V19.3377C79.5603 18.9052 80.5913 18.0542 81.2477 16.9352C81.9042 15.8161 82.1439 14.501 81.9245 13.2222C81.7051 11.9435 81.0408 10.7835 80.0488 9.94725C79.0569 9.111 77.8012 8.65234 76.5038 8.65234C75.2064 8.65234 73.9507 9.111 72.9588 9.94725C71.9668 10.7835 71.3025 11.9435 71.0831 13.2222C70.8637 14.501 71.1034 15.8161 71.7599 16.9352C72.4163 18.0542 73.4473 18.9052 74.6705 19.3377V30.6749C74.6705 31.1611 74.4773 31.6274 74.1335 31.9713C73.7897 32.3151 73.3234 32.5082 72.8372 32.5082H61.3533C61.0445 31.9343 60.5767 31.4616 60.006 31.1468C59.4354 30.8321 58.786 30.6886 58.1358 30.7336C42.6865 31.7126 30.6562 44.5274 30.6562 60.008C30.6562 75.4885 42.6865 88.3034 58.1358 89.2823H58.3503C58.9649 89.2875 59.5692 89.1249 60.0984 88.8122C60.6275 88.4995 61.0613 88.0485 61.3533 87.5077H72.8372C73.3234 87.5077 73.7897 87.7008 74.1335 88.0447C74.4773 88.3885 74.6705 88.8548 74.6705 89.341V100.678C73.4473 101.111 72.4163 101.962 71.7599 103.081C71.1034 104.2 70.8637 105.515 71.0831 106.794C71.3025 108.072 71.9668 109.232 72.9588 110.069C73.9507 110.905 75.2064 111.364 76.5038 111.364C77.8012 111.364 79.0569 110.905 80.0488 110.069C81.0408 109.232 81.7051 108.072 81.9245 106.794C82.1439 105.515 81.9042 104.2 81.2477 103.081C80.5913 101.962 79.5603 101.111 78.3371 100.678V89.341C78.3371 87.8823 77.7577 86.4834 76.7262 85.452C75.6948 84.4205 74.2958 83.8411 72.8372 83.8411H61.8373V80.1744H82.0037C82.49 80.1744 82.9563 79.9813 83.3001 79.6375C83.6439 79.2937 83.8371 78.8273 83.8371 78.3411C83.8371 77.8549 83.6439 77.3886 83.3001 77.0448C82.9563 76.701 82.49 76.5078 82.0037 76.5078H61.8373V71.0079H91.1703C91.6565 71.0079 92.1229 71.201 92.4667 71.5448C92.8105 71.8886 93.0036 72.3549 93.0036 72.8412V82.3451C91.7804 82.7775 90.7495 83.6285 90.093 84.7476C89.4365 85.8667 89.1968 87.1818 89.4162 88.4605C89.6356 89.7393 90.3 90.8993 91.2919 91.7355C92.2839 92.5718 93.5395 93.0304 94.837 93.0304C96.1344 93.0304 97.39 92.5718 98.382 91.7355C99.3739 90.8993 100.038 89.7393 100.258 88.4605C100.477 87.1818 100.237 85.8667 99.5809 84.7476C98.9244 83.6285 97.8935 82.7775 96.6703 82.3451V72.8412C96.6703 71.3825 96.0908 69.9836 95.0594 68.9521C94.0279 67.9207 92.629 67.3412 91.1703 67.3412H61.8373V61.8413H104.341C104.679 62.7894 105.27 63.6265 106.052 64.261C106.833 64.8955 107.774 65.3031 108.771 65.4392C109.768 65.5752 110.784 65.4346 111.706 65.0325C112.629 64.6305 113.424 63.9826 114.003 63.1596C114.582 62.3366 114.924 61.3701 114.992 60.3659C115.059 59.3616 114.849 58.3582 114.385 57.4653C113.92 56.5723 113.219 55.8242 112.358 55.3026C111.498 54.7811 110.51 54.5062 109.503 54.508ZM94.837 30.6749C95.3232 30.6749 95.7895 30.8681 96.1333 31.2119C96.4771 31.5557 96.6703 32.022 96.6703 32.5082C96.6703 32.9945 96.4771 33.4608 96.1333 33.8046C95.7895 34.1484 95.3232 34.3415 94.837 34.3415C94.3507 34.3415 93.8844 34.1484 93.5406 33.8046C93.1968 33.4608 93.0036 32.9945 93.0036 32.5082C93.0036 32.022 93.1968 31.5557 93.5406 31.2119C93.8844 30.8681 94.3507 30.6749 94.837 30.6749ZM76.5038 12.3418C76.99 12.3418 77.4563 12.5349 77.8002 12.8787C78.144 13.2225 78.3371 13.6888 78.3371 14.1751C78.3371 14.6613 78.144 15.1276 77.8002 15.4714C77.4563 15.8152 76.99 16.0084 76.5038 16.0084C76.0176 16.0084 75.5513 15.8152 75.2074 15.4714C74.8636 15.1276 74.6705 14.6613 74.6705 14.1751C74.6705 13.6888 74.8636 13.2225 75.2074 12.8787C75.5513 12.5349 76.0176 12.3418 76.5038 12.3418ZM76.5038 107.674C76.0176 107.674 75.5513 107.481 75.2074 107.137C74.8636 106.793 74.6705 106.327 74.6705 105.841C74.6705 105.355 74.8636 104.888 75.2074 104.545C75.5513 104.201 76.0176 104.008 76.5038 104.008C76.99 104.008 77.4563 104.201 77.8002 104.545C78.144 104.888 78.3371 105.355 78.3371 105.841C78.3371 106.327 78.144 106.793 77.8002 107.137C77.4563 107.481 76.99 107.674 76.5038 107.674ZM94.837 89.341C94.3507 89.341 93.8844 89.1479 93.5406 88.804C93.1968 88.4602 93.0036 87.9939 93.0036 87.5077C93.0036 87.0215 93.1968 86.5552 93.5406 86.2113C93.8844 85.8675 94.3507 85.6744 94.837 85.6744C95.3232 85.6744 95.7895 85.8675 96.1333 86.2113C96.4771 86.5552 96.6703 87.0215 96.6703 87.5077C96.6703 87.9939 96.4771 88.4602 96.1333 88.804C95.7895 89.1479 95.3232 89.341 94.837 89.341ZM34.3375 60.008C34.3522 46.5514 44.7489 35.3847 58.1706 34.4075V85.6084C44.7489 84.6312 34.3522 73.4663 34.3375 60.008ZM109.503 61.8413C109.017 61.8413 108.551 61.6481 108.207 61.3043C107.863 60.9605 107.67 60.4942 107.67 60.008C107.67 59.5217 107.863 59.0554 108.207 58.7116C108.551 58.3678 109.017 58.1746 109.503 58.1746C109.99 58.1746 110.456 58.3678 110.8 58.7116C111.144 59.0554 111.337 59.5217 111.337 60.008C111.337 60.4942 111.144 60.9605 110.8 61.3043C110.456 61.6481 109.99 61.8413 109.503 61.8413Z" fill="#222733"/>
</g>
<defs>
<clipPath id="clip0_1155_47016">
<rect width="120" height="120" fill="white"/>
</clipPath>
</defs>
</svg>
