<svg width="120" height="120" viewBox="0 0 120 120" fill="none" xmlns="http://www.w3.org/2000/svg">
<path d="M107.289 36.4306L105.089 35.3295C104.205 34.8882 103.427 34.2606 102.808 33.4898C102.19 32.7191 101.746 31.8235 101.507 30.8647C101.004 28.85 100.75 26.7813 100.75 24.7049V24.5045C100.75 13.7504 91.9994 5 81.2453 5C70.4912 5 61.7408 13.7504 61.7408 24.5045V24.7049C61.7408 26.783 61.4855 28.8558 60.9801 30.8683C60.7418 31.8269 60.2983 32.7224 59.6803 33.4929C59.0622 34.2634 58.2842 34.8906 57.4002 35.3313L55.1997 36.4324L61.0067 42.2358L57.4605 45.7821L58.7141 47.0357C60.4817 48.7809 62.6837 50.0217 65.092 50.6299C67.6483 48.4608 70.6942 46.9467 73.9666 46.2183C74.5646 46.0856 75.118 45.8002 75.5729 45.3901C76.0278 44.9799 76.3687 44.4589 76.5624 43.8778L77.355 41.5018H77.3834C75.3878 40.7251 73.6733 39.3641 72.4641 37.5968C71.2549 35.8296 70.6074 33.7384 70.6065 31.597V24.1995C70.6067 23.2591 70.9804 22.3572 71.6455 21.6923L75.9259 17.4119H84.7916L90.4656 21.6675C91.3593 22.3377 91.8841 23.3874 91.8841 24.5045V31.597C91.8829 33.7379 91.2358 35.8285 90.0274 37.5956C88.8189 39.3628 87.1053 40.7242 85.1107 41.5018H85.1391L86.0062 44.1012C86.1803 44.6235 86.4736 45.0981 86.8629 45.4875C87.2522 45.8768 87.7268 46.1701 88.2492 46.3442L92.432 47.7379C94.2772 48.357 95.981 49.3364 97.4447 50.6192C99.8224 49.9969 102.035 48.7805 103.778 47.0357L105.03 45.7821L101.484 42.2358L107.289 36.4306ZM22.3736 49.3284H24.505V49.0234C24.5052 48.083 24.8789 47.1811 25.544 46.5162L29.8244 42.2358H38.69L44.3641 46.4914C45.2577 47.1616 45.7826 48.2113 45.7826 49.3284H47.9139L49.2047 47.3921C50.4436 45.5366 51.1039 43.3552 51.102 41.1241C51.0987 38.1281 49.9071 35.2558 47.7886 33.1373C45.6701 31.0188 42.7978 29.8272 39.8018 29.8239H36.6119C33.1037 29.814 29.7237 31.1425 27.1611 33.5386L25.4855 33.9571C23.6851 34.4054 22.0865 35.4435 20.9447 36.906C19.8029 38.3685 19.1836 40.1712 19.1856 42.0266C19.1856 43.6739 19.6678 45.2697 20.5828 46.6421L22.3736 49.3284Z" fill="#0099A3"/>
<path d="M91.2542 81.1436C89.3445 83.0515 86.2734 83.5498 83.8584 82.344L79.4717 80.1507V89.6157C79.4717 98.0044 85.1049 105.471 93.1709 107.776L93.6568 107.914L94.1426 107.774C102.209 105.471 107.842 98.0044 107.842 89.6157V80.1507L103.455 82.344C101.038 83.5516 97.9673 83.0515 96.0594 81.1436L93.6568 78.7375L91.2542 81.1436ZM100.591 86.5659C101.856 86.5659 103.122 86.3194 104.296 85.8513V89.6157C104.296 96.2596 99.9461 102.191 93.6568 104.217C87.3675 102.191 83.018 96.2578 83.018 89.6157V85.8513C84.1964 86.3214 85.4533 86.5639 86.722 86.5659C89.3127 86.5729 91.8027 85.5631 93.6568 83.7537C95.5102 85.5641 98.0006 86.574 100.591 86.5659Z" fill="#222733"/>
<path d="M114.934 61.9047V53.899C114.932 53.0981 114.72 52.3118 114.319 51.6185C113.918 50.9253 113.342 50.3494 112.649 49.9483C111.956 49.5472 111.169 49.335 110.368 49.3328C109.568 49.3307 108.78 49.5387 108.085 49.936L102.033 53.4114C100.011 49.9437 96.7968 47.3291 92.9901 46.0546L88.8072 44.6609C88.5465 44.5735 88.3097 44.4268 88.1152 44.2324C87.9208 44.0379 87.7741 43.801 87.6866 43.5403L87.3125 42.4144C89.2349 41.3365 90.8357 39.7663 91.9507 37.8652C93.0656 35.9641 93.6545 33.8004 93.6568 31.5965V24.5039C93.6568 22.8407 92.8624 21.2502 91.529 20.2484L85.855 15.9929L83.7272 18.8299L89.3995 23.0837C89.8463 23.4188 90.1105 23.949 90.1105 24.5039V31.5965C90.1105 36.485 86.1334 40.4622 81.2448 40.4622C76.3563 40.4622 72.3791 36.485 72.3791 31.5965V24.2007C72.3791 23.7273 72.5636 23.2805 72.8987 22.9454L76.0921 19.7519L81.9541 24.1493L84.0801 21.3123L75.7587 15.0709L70.3915 20.4381C69.8959 20.9312 69.503 21.5176 69.2355 22.1634C68.968 22.8092 68.8311 23.5017 68.8329 24.2007V31.5965C68.8329 36.2368 71.3968 40.2848 75.1789 42.4144L74.8793 43.3151C74.7814 43.6053 74.6107 43.8655 74.3834 44.0707C74.1562 44.276 73.88 44.4194 73.5813 44.4872C64.4922 46.5068 57.5025 54.0568 56.1833 63.2736L54.6655 73.9017L58.1763 74.4035L59.6941 63.7753C60.7474 56.408 66.1076 50.3119 73.1912 48.2533L73.615 50.3704C73.8592 51.5752 74.5119 52.6588 75.4627 53.438C76.4134 54.2173 77.6041 54.6444 78.8334 54.6472H83.6581C84.8871 54.6449 86.0776 54.2179 87.0279 53.4385C87.9782 52.6591 88.63 51.5753 88.8728 50.3704L89.2381 48.5423L91.8677 49.4183C94.8503 50.4168 97.3696 52.463 98.9585 55.1774L68.8329 72.4832V62.4739C68.8329 60.3816 68.019 58.4169 66.5402 56.9381L64.033 59.4471C64.8415 60.2557 65.2866 61.3302 65.2866 62.4739V74.5205L56.6638 79.4747C55.5606 77.0327 53.9045 74.8808 51.8263 73.1891C49.7481 71.4975 47.3049 70.3125 44.6899 69.7278L42.8068 69.3093C42.5084 69.242 42.2324 69.099 42.0054 68.894C41.7783 68.689 41.6079 68.429 41.5106 68.139L41.2092 67.2365C42.8662 66.3038 44.2871 65.0034 45.3627 63.4353C46.4383 61.8673 47.1399 60.0734 47.4134 58.1917H49.3284C52.2612 58.1917 54.6478 55.8051 54.6478 52.8723C54.6478 49.9396 52.2612 47.5529 49.3284 47.5529H47.2113C46.8733 46.5683 46.2529 45.7049 45.4275 45.0705L39.7535 40.815L37.6257 43.6538L43.298 47.9076C43.7448 48.2427 44.009 48.7729 44.009 49.3278V56.4204C44.009 61.3089 40.0318 65.2861 35.1433 65.2861C30.2548 65.2861 26.2776 61.3089 26.2776 56.4204V49.0246C26.2776 48.5512 26.462 48.1044 26.7972 47.7693L29.9906 44.5758L35.8526 48.9732L37.9785 46.1362L29.6572 39.893L24.2899 45.2603C23.6597 45.8993 23.2027 46.6883 22.9619 47.5529H20.9582C18.0255 47.5529 15.6388 49.9396 15.6388 52.8723C15.6388 55.8051 18.0255 58.1917 20.9582 58.1917H22.8732C23.1467 60.0734 23.8483 61.8673 24.9239 63.4353C25.9995 65.0034 27.4204 66.3038 29.0774 67.2365L28.7777 68.1373C28.6799 68.4275 28.5092 68.6876 28.2819 68.8929C28.0546 69.0981 27.7784 69.2415 27.4798 69.3093L25.5967 69.7278C22.5717 70.3943 19.7831 71.8662 17.526 73.9878C15.269 76.1094 13.6275 78.8017 12.7752 81.7798C12.0473 81.4305 11.2508 81.2476 10.4435 81.2443C9.00025 81.2457 7.61648 81.8196 6.59593 82.8402C5.57537 83.8608 5.00141 85.2445 5 86.6878V92.3441C5 93.5995 5.43619 94.823 6.22878 95.7911L19.2117 111.661C20.0473 112.685 21.1008 113.511 22.2954 114.077C23.4901 114.643 24.796 114.936 26.118 114.934C27.6979 114.934 29.2529 114.514 30.6129 113.717L72.4501 89.3138C73.1717 101.307 81.4842 111.678 93.1904 114.872L93.6568 114.999L94.1231 114.872C106.377 111.529 114.934 100.325 114.934 87.624V71.2828L107.31 75.095C106.218 75.6393 105.014 75.9233 103.794 75.9249C101.914 75.9181 100.099 75.2416 98.673 74.017L112.667 65.8552C113.356 65.451 113.927 64.8739 114.325 64.1811C114.723 63.4882 114.933 62.7036 114.934 61.9047ZM83.6563 51.101H78.8334C78.4236 51.1007 78.0266 50.9586 77.7098 50.6987C77.393 50.4388 77.176 50.0772 77.0957 49.6754L76.5318 46.8596C77.3067 46.2302 77.9202 45.4092 78.2464 44.4375L78.4947 43.691C79.3795 43.8914 80.298 44.0084 81.2448 44.0084C82.1917 44.0084 83.1102 43.8914 83.9985 43.6893L84.323 44.6592C84.6297 45.5812 85.2078 46.3703 85.933 46.9926L85.3975 49.6754C85.3158 50.0772 85.098 50.4385 84.7807 50.6982C84.4635 50.9579 84.0663 51.1002 83.6563 51.101ZM51.1015 52.8741C51.1015 53.8511 50.3072 54.6472 49.3284 54.6472H47.5553V51.101H49.3284C50.3072 51.101 51.1015 51.8971 51.1015 52.8741ZM19.1851 52.8741C19.1851 51.8971 19.9794 51.101 20.9582 51.101H22.7314V54.6472H20.9582C19.9794 54.6472 19.1851 53.8511 19.1851 52.8741ZM33.3258 76.7777L30.7708 78.4817L29.1625 73.6553L33.3258 76.7777ZM41.1241 73.6553L39.5159 78.4817L36.9608 76.7777L41.1241 73.6553ZM35.1433 68.8323C36.0902 68.8323 37.0086 68.7153 37.897 68.5132L38.147 69.2614C38.3385 69.8342 38.6523 70.3395 39.0141 70.8058L35.1433 73.7085L31.2725 70.8076C31.636 70.3413 31.9499 69.8359 32.1414 69.2614L32.3896 68.5149C33.2929 68.7226 34.2165 68.8291 35.1433 68.8323ZM25.3716 73.4957L28.8753 84.0068L35.1433 79.8293L41.4096 84.0068L44.9186 73.4833C46.8406 74.0665 48.6107 75.0654 50.1036 76.4091C51.5965 77.7527 52.7756 79.4083 53.5573 81.2585L47.6457 84.654C47.8124 83.8419 48.2095 83.0972 48.8089 82.4979L46.3016 79.9889C45.5724 80.7141 44.9942 81.5768 44.6007 82.527C44.2071 83.4773 44.006 84.4961 44.009 85.5246V86.7445L26.6447 96.7202L26.2776 96.3071V85.5246C26.2776 83.4323 25.4638 81.4677 23.985 79.9889L21.4777 82.4979C22.2863 83.3064 22.7314 84.381 22.7314 85.5246V92.3175L15.825 84.5476C16.1998 81.9881 17.2972 79.5886 18.9882 77.6309C20.6792 75.6732 22.8937 74.2387 25.3716 73.4957ZM28.8274 110.655C26.6092 111.951 23.586 111.405 21.96 109.416L8.97537 93.5463C8.69816 93.2076 8.54657 92.7835 8.54627 92.3459V86.6896C8.5467 86.305 8.66388 85.9296 8.88232 85.6131C9.10076 85.2965 9.41015 85.0538 9.76957 84.9169C10.129 84.7801 10.5215 84.7556 10.8951 84.8467C11.2688 84.9378 11.6059 85.1402 11.862 85.4271L23.9938 99.0749C24.5367 99.682 25.2713 100.085 26.075 100.216C26.8788 100.347 27.7032 100.198 28.4107 99.7948L72.3791 74.5365V85.2498L28.8274 110.655ZM108.897 78.2672L111.388 77.0207V87.624C111.388 98.5678 104.12 108.242 93.6568 111.318C83.1935 108.242 75.9254 98.5696 75.9254 87.624V77.0207L78.4167 78.2672C80.002 79.0568 81.7486 79.4689 83.5198 79.4711C85.2899 79.467 87.035 79.0528 88.6181 78.2609C90.2013 77.469 91.5794 76.3211 92.6443 74.9071L93.655 73.5595L94.6657 74.9071C95.7314 76.321 97.1102 77.4689 98.6939 78.2608C100.278 79.0526 102.023 79.4669 103.794 79.4711C105.556 79.4711 107.321 79.0545 108.897 78.2672ZM111.388 61.9047C111.388 62.2682 111.193 62.6068 110.879 62.7913L96.3643 71.258L93.6568 67.6497L89.8091 72.7793C89.075 73.7538 88.125 74.545 87.0338 75.0907C85.9426 75.6365 84.7398 75.922 83.5198 75.9249C82.2994 75.9234 81.0959 75.6394 80.0036 75.095L75.4077 72.7971L109.853 53.0106C110.494 52.6383 111.388 53.156 111.388 53.9008V61.9047Z" fill="#222733"/>
<path d="M33.3701 58.1942V61.7405H34.7248C37.8455 61.7405 40.6524 60.0063 42.0496 57.2137L38.8775 55.6267C38.4942 56.3998 37.902 57.0502 37.1681 57.5039C36.4341 57.9577 35.5877 58.1969 34.7248 58.1942H33.3701ZM79.4716 33.3703V36.9166H80.8263C83.947 36.9166 86.7539 35.1824 88.1511 32.3898L84.979 30.8028C84.5957 31.5759 84.0036 32.2263 83.2696 32.68C82.5356 33.1338 81.6892 33.373 80.8263 33.3703H79.4716Z" fill="#222733"/>
</svg>
