<svg width="24" height="24" viewBox="0 0 24 24" fill="none" xmlns="http://www.w3.org/2000/svg">
<path fill-rule="evenodd" clip-rule="evenodd" d="M10.4797 9.48187C10.4797 9.34954 10.5323 9.22263 10.6258 9.12906C10.7194 9.03549 10.8463 8.98292 10.9787 8.98292C11.111 8.98292 11.2379 9.03549 11.3315 9.12906C11.425 9.22263 11.4776 9.34954 11.4776 9.48187V9.98107C11.4764 10.3776 11.3184 10.7576 11.038 11.038C10.7575 11.3184 10.3776 11.4765 9.98101 11.4777H2.49653C2.09998 11.4765 1.72 11.3184 1.43959 11.038C1.15918 10.7576 1.00112 10.3776 0.999939 9.98107V2.4966C1.00112 2.10004 1.15918 1.72006 1.43959 1.43965C1.72 1.15924 2.09998 1.00118 2.49653 1H9.98101C10.3776 1.00118 10.7575 1.15924 11.038 1.43965C11.3184 1.72006 11.4764 2.10004 11.4776 2.4966V7.98528C11.4776 8.11754 11.4251 8.24439 11.3315 8.33791C11.238 8.43143 11.1112 8.48398 10.9789 8.48398C10.8466 8.48398 10.7198 8.43143 10.6263 8.33791C10.5327 8.24439 10.4802 8.11754 10.4802 7.98528V2.4966C10.4802 2.22231 10.2558 1.9979 9.98101 1.9979H2.49653C2.22225 1.9979 1.99784 2.22231 1.99784 2.4966V9.98107C1.99784 10.2554 2.22225 10.4798 2.49653 10.4798H9.98101C10.2553 10.4798 10.4797 10.2554 10.4797 9.98107V9.48187ZM2.99573 21.9558C3.12806 21.9558 3.25497 22.0084 3.34854 22.102C3.44211 22.1955 3.49468 22.3224 3.49468 22.4548C3.49468 22.5871 3.44211 22.714 3.34854 22.8076C3.25497 22.9012 3.12806 22.9537 2.99573 22.9537H2.49703C2.1003 22.9527 1.72012 22.7946 1.43959 22.5141C1.15906 22.2335 1.00099 21.8534 0.999939 21.4566V13.9727C1.00099 13.576 1.15899 13.1959 1.43941 12.9154C1.71984 12.6349 2.09989 12.4767 2.49653 12.4756H9.98101C10.3777 12.4767 10.7577 12.6349 11.0381 12.9154C11.3186 13.1959 11.4766 13.576 11.4776 13.9727V21.4566C11.4766 21.8533 11.3186 22.2334 11.0381 22.5139C10.7577 22.7944 10.3777 22.9525 9.98101 22.9537H5.98942C5.85709 22.9537 5.73018 22.9012 5.63661 22.8076C5.54304 22.714 5.49047 22.5871 5.49047 22.4548C5.49047 22.3224 5.54304 22.1955 5.63661 22.102C5.73018 22.0084 5.85709 21.9558 5.98942 21.9558H9.98101C10.2553 21.9558 10.4797 21.7314 10.4797 21.4571V13.9722C10.4797 13.6979 10.2553 13.4735 9.98101 13.4735H2.49653C2.22225 13.4735 1.99784 13.6979 1.99784 13.9722V21.4561C1.99784 21.7304 2.22225 21.9553 2.49653 21.9553L2.99573 21.9558Z" fill="#0099A3"/>
<path d="M4.59984 22.9992C4.87524 22.9992 5.09849 22.776 5.09849 22.5006C5.09849 22.2252 4.87524 22.002 4.59984 22.002C4.32445 22.002 4.1012 22.2252 4.1012 22.5006C4.1012 22.776 4.32445 22.9992 4.59984 22.9992Z" fill="#0099A3"/>
<path fill-rule="evenodd" clip-rule="evenodd" d="M21.9561 4.49239C21.9561 4.36006 22.0087 4.23315 22.1022 4.13958C22.1958 4.04601 22.3227 3.99344 22.455 3.99344C22.5874 3.99344 22.7143 4.04601 22.8079 4.13958C22.9014 4.23315 22.954 4.36006 22.954 4.49239V9.98107C22.9528 10.3777 22.7947 10.7578 22.5142 11.0382C22.2336 11.3186 21.8535 11.4766 21.4569 11.4777H13.9729C13.5763 11.4766 13.1962 11.3186 12.9157 11.0382C12.6351 10.7578 12.477 10.3777 12.4758 9.98107V2.4966C12.477 2.09995 12.6351 1.7199 12.9157 1.43948C13.1962 1.15905 13.5763 1.00105 13.9729 1H21.4569C21.8535 1.00105 22.2336 1.15905 22.5142 1.43948C22.7947 1.7199 22.9528 2.09995 22.954 2.4966V2.99579C22.954 3.12812 22.9014 3.25503 22.8079 3.3486C22.7143 3.44217 22.5874 3.49474 22.455 3.49474C22.3227 3.49474 22.1958 3.44217 22.1022 3.3486C22.0087 3.25503 21.9561 3.12812 21.9561 2.99579V2.49709C21.9561 2.22281 21.7317 1.9979 21.4574 1.9979H13.9724C13.6981 1.9979 13.4737 2.22231 13.4737 2.4966V9.98107C13.4737 10.2554 13.6981 10.4798 13.9724 10.4798H21.4564C21.7307 10.4798 21.9556 10.2554 21.9556 9.98107L21.9561 4.49239ZM20.9582 13.4735C20.8259 13.4735 20.6991 13.4209 20.6056 13.3274C20.512 13.2339 20.4595 13.107 20.4595 12.9748C20.4595 12.8425 20.512 12.7157 20.6056 12.6221C20.6991 12.5286 20.8259 12.4761 20.9582 12.4761H21.4569C21.8535 12.4771 22.2336 12.6351 22.5142 12.9155C22.7947 13.196 22.9528 13.576 22.954 13.9727V21.4566C22.9529 21.8534 22.7949 22.2335 22.5143 22.5141C22.2338 22.7946 21.8536 22.9527 21.4569 22.9537H13.9729C13.5762 22.9527 13.196 22.7946 12.9155 22.5141C12.635 22.2335 12.4769 21.8534 12.4758 21.4566V13.9727C12.4769 13.5759 12.635 13.1957 12.9155 12.9152C13.196 12.6347 13.5762 12.4766 13.9729 12.4756H19.4611C19.5934 12.4756 19.7203 12.5281 19.8139 12.6217C19.9075 12.7153 19.9601 12.8422 19.9601 12.9745C19.9601 13.1068 19.9075 13.2337 19.8139 13.3273C19.7203 13.4209 19.5934 13.4735 19.4611 13.4735H13.9729C13.6986 13.4735 13.4742 13.6979 13.4742 13.9727V21.4566C13.4742 21.7309 13.6986 21.9558 13.9729 21.9558H21.4569C21.7312 21.9558 21.9561 21.7314 21.9561 21.4571V13.9722C21.9561 13.6979 21.7317 13.4735 21.4574 13.4735H20.9582Z" fill="#0099A3"/>
</svg>
