<svg width="24" height="24" viewBox="0 0 24 24" fill="none" xmlns="http://www.w3.org/2000/svg">
<path d="M11.9999 12C12.2916 12 12.5714 11.8841 12.7777 11.6779C12.984 11.4716 13.0999 11.1918 13.0999 10.9C13.0999 10.4307 12.5426 9.5727 12.3006 9.22437C12.2668 9.17596 12.2218 9.13642 12.1695 9.10912C12.1171 9.08182 12.0589 9.06757 11.9999 9.06757C11.9409 9.06757 11.8827 9.08182 11.8304 9.10912C11.778 9.13642 11.733 9.17596 11.6992 9.22437C11.4572 9.5727 10.8999 10.4307 10.8999 10.9C10.8999 11.1918 11.0158 11.4716 11.2221 11.6779C11.4284 11.8841 11.7082 12 11.9999 12ZM11.9999 10.1117C12.1633 10.3533 12.287 10.6194 12.3666 10.9C12.3666 10.9973 12.3279 11.0905 12.2592 11.1593C12.1904 11.2281 12.0971 11.2667 11.9999 11.2667C11.9027 11.2667 11.8094 11.2281 11.7406 11.1593C11.6719 11.0905 11.6332 10.9973 11.6332 10.9C11.7135 10.6197 11.8372 10.3537 11.9999 10.1117ZM8.33324 12C8.62497 12 8.90476 11.8841 9.11105 11.6779C9.31734 11.4716 9.43324 11.1918 9.43324 10.9C9.43324 10.4307 8.8759 9.5727 8.6339 9.22437C8.60011 9.17596 8.55513 9.13642 8.50278 9.10912C8.45044 9.08182 8.39227 9.06757 8.33324 9.06757C8.2742 9.06757 8.21603 9.08182 8.16369 9.10912C8.11134 9.13642 8.06636 9.17596 8.03257 9.22437C7.79057 9.5727 7.23324 10.4307 7.23324 10.9C7.23324 11.1918 7.34913 11.4716 7.55542 11.6779C7.76171 11.8841 8.0415 12 8.33324 12ZM8.33324 10.1117C8.4966 10.3533 8.62037 10.6194 8.6999 10.9C8.6999 10.9973 8.66127 11.0905 8.59251 11.1593C8.52375 11.2281 8.43048 11.2667 8.33324 11.2667C8.23599 11.2667 8.14273 11.2281 8.07396 11.1593C8.0052 11.0905 7.96657 10.9973 7.96657 10.9C8.04679 10.6197 8.17052 10.3537 8.33324 10.1117ZM7.23324 14.5667H6.4999C6.20816 14.5667 5.92837 14.6826 5.72208 14.8889C5.51579 15.0952 5.3999 15.375 5.3999 15.6667V20.4334C5.3999 20.5306 5.43853 20.6239 5.5073 20.6926C5.57606 20.7614 5.66932 20.8 5.76657 20.8H18.2332C18.3305 20.8 18.4237 20.7614 18.4925 20.6926C18.5613 20.6239 18.5999 20.5306 18.5999 20.4334V15.6667C18.5999 15.375 18.484 15.0952 18.2777 14.8889C18.0714 14.6826 17.7916 14.5667 17.4999 14.5667H16.7666V12.7334C16.7666 12.6361 16.7279 12.5429 16.6592 12.4741C16.5904 12.4053 16.4971 12.3667 16.3999 12.3667H14.9332C14.836 12.3667 14.7427 12.4053 14.674 12.4741C14.6052 12.5429 14.5666 12.6361 14.5666 12.7334V14.5667H13.0999V12.7334C13.0999 12.6361 13.0613 12.5429 12.9925 12.4741C12.9237 12.4053 12.8305 12.3667 12.7332 12.3667H11.2666C11.1693 12.3667 11.0761 12.4053 11.0073 12.4741C10.9385 12.5429 10.8999 12.6361 10.8999 12.7334V14.5667H9.43324V12.7334C9.43324 12.6361 9.39461 12.5429 9.32584 12.4741C9.25708 12.4053 9.16382 12.3667 9.06657 12.3667H7.5999C7.50266 12.3667 7.40939 12.4053 7.34063 12.4741C7.27187 12.5429 7.23324 12.6361 7.23324 12.7334V14.5667ZM17.8666 20.0667H6.13324V17.5C6.33857 17.5 6.42657 17.5807 6.60624 17.7604C6.72622 17.9082 6.87768 18.0274 7.04958 18.1093C7.22148 18.1912 7.40949 18.2337 7.5999 18.2337C7.79031 18.2337 7.97832 18.1912 8.15022 18.1093C8.32213 18.0274 8.47359 17.9082 8.59357 17.7604C8.77324 17.5807 8.86124 17.5 9.06657 17.5C9.2719 17.5 9.3599 17.5807 9.53957 17.7604C9.65955 17.9082 9.81101 18.0274 9.98291 18.1093C10.1548 18.1912 10.3428 18.2337 10.5332 18.2337C10.7236 18.2337 10.9117 18.1912 11.0836 18.1093C11.2555 18.0274 11.4069 17.9082 11.5269 17.7604C11.7066 17.5807 11.7946 17.5 11.9999 17.5C12.2052 17.5 12.2932 17.5807 12.4729 17.7604C12.5929 17.9082 12.7443 18.0274 12.9162 18.1093C13.0882 18.1912 13.2762 18.2337 13.4666 18.2337C13.657 18.2337 13.845 18.1912 14.0169 18.1093C14.1888 18.0274 14.3403 17.9082 14.4602 17.7604C14.6399 17.5807 14.7279 17.5 14.9332 17.5C15.1386 17.5 15.2266 17.5807 15.4062 17.7604C15.5262 17.9082 15.6777 18.0274 15.8496 18.1093C16.0215 18.1912 16.2095 18.2337 16.3999 18.2337C16.5903 18.2337 16.7783 18.1912 16.9502 18.1093C17.1221 18.0274 17.2736 17.9082 17.3936 17.7604C17.5732 17.5807 17.6612 17.5 17.8666 17.5V20.0667ZM17.8666 15.6667V16.7667C17.6767 16.7694 17.4896 16.8131 17.3181 16.8947C17.1466 16.9763 16.9948 17.094 16.8729 17.2397C16.6932 17.4194 16.6052 17.5 16.3999 17.5C16.1946 17.5 16.1066 17.4194 15.9269 17.2397C15.8069 17.0918 15.6555 16.9726 15.4836 16.8907C15.3117 16.8089 15.1236 16.7664 14.9332 16.7664C14.7428 16.7664 14.5548 16.8089 14.3829 16.8907C14.211 16.9726 14.0595 17.0918 13.9396 17.2397C13.7599 17.4194 13.6719 17.5 13.4666 17.5C13.2612 17.5 13.1732 17.4194 12.9936 17.2397C12.8736 17.0918 12.7221 16.9726 12.5502 16.8907C12.3783 16.8089 12.1903 16.7664 11.9999 16.7664C11.8095 16.7664 11.6215 16.8089 11.4496 16.8907C11.2777 16.9726 11.1262 17.0918 11.0062 17.2397C10.8266 17.4194 10.7386 17.5 10.5332 17.5C10.3279 17.5 10.2399 17.4194 10.0602 17.2397C9.94026 17.0918 9.78879 16.9726 9.61689 16.8907C9.44499 16.8089 9.25698 16.7664 9.06657 16.7664C8.87616 16.7664 8.68815 16.8089 8.51625 16.8907C8.34434 16.9726 8.19288 17.0918 8.0729 17.2397C7.89324 17.4194 7.80524 17.5 7.5999 17.5C7.39457 17.5 7.30657 17.4194 7.1269 17.2397C7.00505 17.094 6.8532 16.9763 6.68171 16.8947C6.51022 16.8131 6.32314 16.7694 6.13324 16.7667V15.6667C6.13324 15.5695 6.17187 15.4762 6.24063 15.4074C6.30939 15.3387 6.40266 15.3 6.4999 15.3H17.4999C17.5971 15.3 17.6904 15.3387 17.7592 15.4074C17.8279 15.4762 17.8666 15.5695 17.8666 15.6667ZM15.2999 13.1H16.0332V14.5667H15.2999V13.1ZM11.6332 13.1H12.3666V14.5667H11.6332V13.1ZM8.6999 13.1V14.5667H7.96657V13.1H8.6999ZM15.6666 12C15.9583 12 16.2381 11.8841 16.4444 11.6779C16.6507 11.4716 16.7666 11.1918 16.7666 10.9C16.7666 10.4307 16.2092 9.5727 15.9672 9.22437C15.9334 9.17596 15.8885 9.13642 15.8361 9.10912C15.7838 9.08182 15.7256 9.06757 15.6666 9.06757C15.6075 9.06757 15.5494 9.08182 15.497 9.10912C15.4447 9.13642 15.3997 9.17596 15.3659 9.22437C15.1239 9.5727 14.5666 10.4307 14.5666 10.9C14.5666 11.1918 14.6825 11.4716 14.8888 11.6779C15.095 11.8841 15.3748 12 15.6666 12ZM15.6666 10.1117C15.8299 10.3533 15.9537 10.6194 16.0332 10.9C16.0332 10.9973 15.9946 11.0905 15.9258 11.1593C15.8571 11.2281 15.7638 11.2667 15.6666 11.2667C15.5693 11.2667 15.4761 11.2281 15.4073 11.1593C15.3385 11.0905 15.2999 10.9973 15.2999 10.9C15.3801 10.6197 15.5039 10.3537 15.6666 10.1117Z" fill="#797C7F"/>
<path d="M21.9 2.83333H19.7V2.1C19.7 1.80826 19.5841 1.52847 19.3778 1.32218C19.1715 1.11589 18.8917 1 18.6 1C18.3083 1 18.0285 1.11589 17.8222 1.32218C17.6159 1.52847 17.5 1.80826 17.5 2.1V2.83333H15.3V2.1C15.3 1.80826 15.1841 1.52847 14.9778 1.32218C14.7715 1.11589 14.4917 1 14.2 1C13.9083 1 13.6285 1.11589 13.4222 1.32218C13.2159 1.52847 13.1 1.80826 13.1 2.1V2.83333H10.9V2.1C10.9 1.80826 10.7841 1.52847 10.5778 1.32218C10.3715 1.11589 10.0917 1 9.8 1C9.50826 1 9.22847 1.11589 9.02218 1.32218C8.81589 1.52847 8.7 1.80826 8.7 2.1V2.83333H6.5V2.1C6.5 1.80826 6.38411 1.52847 6.17782 1.32218C5.97153 1.11589 5.69174 1 5.4 1C5.10826 1 4.82847 1.11589 4.62218 1.32218C4.41589 1.52847 4.3 1.80826 4.3 2.1V2.83333H2.1C1.80826 2.83333 1.52847 2.94923 1.32218 3.15552C1.11589 3.36181 1 3.6416 1 3.93333V9.43333C1 9.53058 1.03863 9.62384 1.10739 9.69261C1.17616 9.76137 1.26942 9.8 1.36667 9.8C1.46391 9.8 1.55718 9.76137 1.62594 9.69261C1.6947 9.62384 1.73333 9.53058 1.73333 9.43333V7.6H22.2667V18.9667C22.2667 19.0639 22.3053 19.1572 22.3741 19.2259C22.4428 19.2947 22.5361 19.3333 22.6333 19.3333C22.7306 19.3333 22.8238 19.2947 22.8926 19.2259C22.9614 19.1572 23 19.0639 23 18.9667V3.93333C23 3.6416 22.8841 3.36181 22.6778 3.15552C22.4715 2.94923 22.1917 2.83333 21.9 2.83333ZM18.2333 2.1C18.2333 2.00275 18.272 1.90949 18.3407 1.84073C18.4095 1.77196 18.5028 1.73333 18.6 1.73333C18.6972 1.73333 18.7905 1.77196 18.8593 1.84073C18.928 1.90949 18.9667 2.00275 18.9667 2.1V4.3C18.9667 4.39725 18.928 4.49051 18.8593 4.55927C18.7905 4.62804 18.6972 4.66667 18.6 4.66667C18.5028 4.66667 18.4095 4.62804 18.3407 4.55927C18.272 4.49051 18.2333 4.39725 18.2333 4.3V2.1ZM13.8333 2.1C13.8333 2.00275 13.872 1.90949 13.9407 1.84073C14.0095 1.77196 14.1028 1.73333 14.2 1.73333C14.2972 1.73333 14.3905 1.77196 14.4593 1.84073C14.528 1.90949 14.5667 2.00275 14.5667 2.1V4.3C14.5667 4.39725 14.528 4.49051 14.4593 4.55927C14.3905 4.62804 14.2972 4.66667 14.2 4.66667C14.1028 4.66667 14.0095 4.62804 13.9407 4.55927C13.872 4.49051 13.8333 4.39725 13.8333 4.3V2.1ZM9.43333 2.1C9.43333 2.00275 9.47196 1.90949 9.54073 1.84073C9.60949 1.77196 9.70275 1.73333 9.8 1.73333C9.89725 1.73333 9.99051 1.77196 10.0593 1.84073C10.128 1.90949 10.1667 2.00275 10.1667 2.1V4.3C10.1667 4.39725 10.128 4.49051 10.0593 4.55927C9.99051 4.62804 9.89725 4.66667 9.8 4.66667C9.70275 4.66667 9.60949 4.62804 9.54073 4.55927C9.47196 4.49051 9.43333 4.39725 9.43333 4.3V2.1ZM5.03333 2.1C5.03333 2.00275 5.07196 1.90949 5.14073 1.84073C5.20949 1.77196 5.30275 1.73333 5.4 1.73333C5.49725 1.73333 5.59051 1.77196 5.65927 1.84073C5.72804 1.90949 5.76667 2.00275 5.76667 2.1V4.3C5.76667 4.39725 5.72804 4.49051 5.65927 4.55927C5.59051 4.62804 5.49725 4.66667 5.4 4.66667C5.30275 4.66667 5.20949 4.62804 5.14073 4.55927C5.07196 4.49051 5.03333 4.39725 5.03333 4.3V2.1ZM1.73333 6.86667V3.93333C1.73333 3.83609 1.77196 3.74282 1.84073 3.67406C1.90949 3.6053 2.00275 3.56667 2.1 3.56667H4.3V4.3C4.3 4.59174 4.41589 4.87153 4.62218 5.07782C4.82847 5.28411 5.10826 5.4 5.4 5.4C5.69174 5.4 5.97153 5.28411 6.17782 5.07782C6.38411 4.87153 6.5 4.59174 6.5 4.3V3.56667H8.7V4.3C8.7 4.59174 8.81589 4.87153 9.02218 5.07782C9.22847 5.28411 9.50826 5.4 9.8 5.4C10.0917 5.4 10.3715 5.28411 10.5778 5.07782C10.7841 4.87153 10.9 4.59174 10.9 4.3V3.56667H13.1V4.3C13.1 4.59174 13.2159 4.87153 13.4222 5.07782C13.6285 5.28411 13.9083 5.4 14.2 5.4C14.4917 5.4 14.7715 5.28411 14.9778 5.07782C15.1841 4.87153 15.3 4.59174 15.3 4.3V3.56667H17.5V4.3C17.5 4.59174 17.6159 4.87153 17.8222 5.07782C18.0285 5.28411 18.3083 5.4 18.6 5.4C18.8917 5.4 19.1715 5.28411 19.3778 5.07782C19.5841 4.87153 19.7 4.59174 19.7 4.3V3.56667H21.9C21.9972 3.56667 22.0905 3.6053 22.1593 3.67406C22.228 3.74282 22.2667 3.83609 22.2667 3.93333V6.86667H1.73333ZM22.6333 20.0667C22.5361 20.0667 22.4428 20.1053 22.3741 20.1741C22.3053 20.2428 22.2667 20.3361 22.2667 20.4333V21.9C22.2667 21.9972 22.228 22.0905 22.1593 22.1593C22.0905 22.228 21.9972 22.2667 21.9 22.2667H2.1C2.00275 22.2667 1.90949 22.228 1.84073 22.1593C1.77196 22.0905 1.73333 21.9972 1.73333 21.9V10.9C1.73333 10.8028 1.6947 10.7095 1.62594 10.6407C1.55718 10.572 1.46391 10.5333 1.36667 10.5333C1.26942 10.5333 1.17616 10.572 1.10739 10.6407C1.03863 10.7095 1 10.8028 1 10.9V21.9C1 22.1917 1.11589 22.4715 1.32218 22.6778C1.52847 22.8841 1.80826 23 2.1 23H21.9C22.1917 23 22.4715 22.8841 22.6778 22.6778C22.8841 22.4715 23 22.1917 23 21.9V20.4333C23 20.3361 22.9614 20.2428 22.8926 20.1741C22.8238 20.1053 22.7306 20.0667 22.6333 20.0667Z" fill="#797C7F"/>
</svg>
