<svg width="1280" height="500" viewBox="0 0 1280 500" fill="none" xmlns="http://www.w3.org/2000/svg">
<g clip-path="url(#clip0_852_73320)">
<path d="M1280 0H0V500H1280V0Z" fill="#EFF1F1"/>
<g opacity="0.1">
<path fill-rule="evenodd" clip-rule="evenodd" d="M1098.9 -11.4396C1126.8 -7.07914 1152.19 8.95992 1167.06 34.6995L1167.95 36.2529L1456.69 36.253C1489.92 36.253 1516.86 59.8512 1516.86 88.9612C1516.86 118.071 1489.92 141.669 1456.69 141.669L1228.81 141.669L1256.48 189.586L1456.69 189.586C1520.13 189.586 1571.55 144.535 1571.55 88.9612C1571.55 33.3876 1520.13 -11.6636 1456.69 -11.6636L1106.63 -11.6636C1104.03 -11.6636 1101.45 -11.5882 1098.9 -11.4396Z" fill="#0099A3"/>
<path fill-rule="evenodd" clip-rule="evenodd" d="M1098.9 -11.4396C1126.8 -7.07914 1152.19 8.95992 1167.06 34.6995L1167.95 36.2529L1456.69 36.253C1489.92 36.253 1516.86 59.8512 1516.86 88.9612C1516.86 118.071 1489.92 141.669 1456.69 141.669L1228.81 141.669L1256.48 189.586L1456.69 189.586C1520.13 189.586 1571.55 144.535 1571.55 88.9612C1571.55 33.3876 1520.13 -11.6636 1456.69 -11.6636L1106.63 -11.6636C1104.03 -11.6636 1101.45 -11.5882 1098.9 -11.4396Z" fill="#0099A3"/>
<path fill-rule="evenodd" clip-rule="evenodd" d="M1224.96 460.208C1214.78 433.864 1215.98 403.85 1230.84 378.109L1231.73 376.557L1087.37 126.505C1070.75 97.7274 1077.72 62.5996 1102.93 48.0447C1128.14 33.4897 1162.04 45.0192 1178.66 73.7965L1292.6 271.14L1320.26 223.224L1220.16 49.8382C1188.44 -5.10026 1123.71 -27.1111 1075.58 0.675641C1027.45 28.4624 1014.15 95.5244 1045.87 150.463L1220.9 453.625C1222.2 455.875 1223.55 458.069 1224.96 460.208Z" fill="#0099A3"/>
<path fill-rule="evenodd" clip-rule="evenodd" d="M1571.36 115.567C1553.63 137.546 1527.05 151.517 1497.33 151.517L1495.53 151.517L1351.16 401.568C1334.55 430.346 1300.64 441.875 1275.43 427.32C1250.22 412.765 1243.26 377.637 1259.87 348.86L1373.81 151.517L1318.48 151.517L1218.37 324.902C1186.65 379.84 1199.96 446.903 1248.09 474.689C1296.21 502.476 1360.94 480.465 1392.66 425.527L1567.69 122.364C1568.99 120.117 1570.21 117.85 1571.36 115.567Z" fill="#0099A3"/>
</g>
<g opacity="0.1">
<path fill-rule="evenodd" clip-rule="evenodd" d="M-219.621 -11.4396C-191.722 -7.07914 -166.327 8.95992 -151.466 34.6995L-150.57 36.2529L138.167 36.253C171.396 36.253 198.334 59.8512 198.334 88.9612C198.334 118.071 171.396 141.669 138.167 141.669L-89.7074 141.669L-62.0428 189.586L138.167 189.586C201.605 189.586 253.031 144.535 253.031 88.9612C253.031 33.3876 201.605 -11.6636 138.167 -11.6636L-211.895 -11.6636C-214.491 -11.6636 -217.068 -11.5882 -219.621 -11.4396Z" fill="#0099A3"/>
<path fill-rule="evenodd" clip-rule="evenodd" d="M-219.621 -11.4396C-191.722 -7.07914 -166.327 8.95992 -151.466 34.6995L-150.57 36.2529L138.167 36.253C171.396 36.253 198.334 59.8512 198.334 88.9612C198.334 118.071 171.396 141.669 138.167 141.669L-89.7074 141.669L-62.0428 189.586L138.167 189.586C201.605 189.586 253.031 144.535 253.031 88.9612C253.031 33.3876 201.605 -11.6636 138.167 -11.6636L-211.895 -11.6636C-214.491 -11.6636 -217.068 -11.5882 -219.621 -11.4396Z" fill="#0099A3"/>
<path fill-rule="evenodd" clip-rule="evenodd" d="M-93.5622 460.208C-103.738 433.864 -102.546 403.85 -87.684 378.109L-86.7878 376.557L-231.155 126.505C-247.77 97.7274 -240.802 62.5996 -215.592 48.0447C-190.382 33.4897 -156.477 45.0192 -139.862 73.7965L-25.9255 271.14L1.73922 223.224L-98.365 49.8382C-130.084 -5.10026 -194.812 -27.1111 -242.941 0.675641C-291.069 28.4624 -304.371 95.5244 -272.652 150.463L-97.6218 453.625C-96.3228 455.875 -94.9685 458.069 -93.5622 460.208Z" fill="#0099A3"/>
<path fill-rule="evenodd" clip-rule="evenodd" d="M252.836 115.567C235.11 137.546 208.524 151.517 178.805 151.517L177.01 151.517L32.6422 401.568C16.0276 430.346 -17.8779 441.875 -43.0879 427.32C-68.2978 412.765 -75.2657 377.637 -58.6511 348.86L55.2852 151.517L-0.0440791 151.517L-100.148 324.902C-131.867 379.84 -118.565 446.903 -70.4365 474.689C-22.3084 502.476 42.4203 480.465 74.1392 425.527L249.17 122.364C250.467 120.117 251.689 117.85 252.836 115.567Z" fill="#0099A3"/>
</g>
<path d="M1204.81 168.623C1205.01 165.588 1206.24 142.173 1198.49 138.137C1197.32 137.555 1196.07 137.121 1194.79 136.844C1196.09 134.656 1188.73 130.802 1182.21 131.543C1182.02 130.037 1181.85 128.895 1181.85 128.895L1181.95 125.018L1181.91 124.049C1182.39 123.805 1182.8 123.447 1183.11 123.004C1183.42 122.562 1183.62 122.05 1183.69 121.514C1183.75 120.977 1183.68 120.433 1183.49 119.929C1183.29 119.425 1182.98 118.977 1182.57 118.625C1182.57 118.625 1183.63 112.187 1181.66 109.811C1179.69 107.436 1168.34 103.332 1166.98 104.538C1165.62 105.743 1166.98 107.19 1166.98 107.19C1166.98 107.19 1162.43 105.775 1161.44 109.802C1160.98 111.682 1162.85 113.038 1165.57 113.756L1165.68 127.193C1165.68 127.193 1165.53 131.593 1169.38 132.112L1169.3 132.877C1169.3 132.877 1162.85 133.837 1162.93 138.214C1156.19 140.539 1152.31 144.257 1150.14 147.283C1147.2 151.378 1146.7 155.055 1146.67 155.337L1145.67 160.529L1131.13 131.198C1131.1 131.129 1127.84 124.973 1120.9 122.288C1120.87 122.273 1120.82 122.266 1120.78 122.267C1120.74 122.268 1120.7 122.277 1120.66 122.295C1120.62 122.312 1120.59 122.337 1120.56 122.368C1120.53 122.399 1120.51 122.435 1120.49 122.475C1120.49 122.475 1120.49 122.475 1120.49 122.502C1120.41 122.502 1120.33 122.457 1120.25 122.443L1102.18 118.002L1102.76 112.947L1102.81 112.551C1103.08 112.413 1103.35 112.261 1103.61 112.096L1103.75 112.009C1104.76 111.383 1105.63 110.558 1106.31 109.585C1106.99 108.612 1107.46 107.511 1107.7 106.349C1107.78 105.985 1107.86 105.598 1107.94 105.202C1108.17 105.299 1108.4 105.367 1108.65 105.402C1109.4 105.51 1110.17 105.314 1110.79 104.858C1111.4 104.401 1111.81 103.721 1111.92 102.965C1112.03 102.209 1111.84 101.439 1111.39 100.824C1110.94 100.208 1110.26 99.796 1109.5 99.6779C1109.37 99.6577 1109.23 99.6486 1109.09 99.6507C1109.2 99.1046 1109.31 98.5677 1109.42 98.0399C1110.82 97.3482 1115.37 86.2092 1111.51 84.4801C1107.66 82.751 1098.98 85.1672 1097.65 85.2946H1097.4C1096.04 84.9177 1094.63 84.7959 1093.23 84.9351C1090.72 85.3538 1089.85 90.8095 1090.33 92.2156C1090.8 93.6216 1090.75 96.9387 1090.75 96.9387C1090.6 96.8925 1090.45 96.856 1090.3 96.8295C1089.54 96.716 1088.77 96.909 1088.15 97.366C1087.53 97.8229 1087.12 98.5065 1087.01 99.2662C1086.89 100.026 1087.09 100.799 1087.54 101.417C1088 102.034 1088.68 102.445 1089.44 102.558C1089.7 102.595 1089.97 102.595 1090.23 102.558C1090.19 102.968 1090.15 103.364 1090.12 103.737C1090.01 104.897 1090.14 106.067 1090.49 107.178C1090.84 108.289 1091.41 109.319 1092.17 110.207L1091.99 111.035L1091.05 115.399C1083.74 114.137 1076.24 114.447 1069.06 116.309C1068.06 115.448 1066.88 114.825 1065.6 114.489C1055.89 109.338 1037.74 109.775 1037.74 109.775C1037.28 109.725 1036.8 109.684 1036.29 109.643C1039.81 107.705 1038.93 101.148 1038.93 101.148C1038.73 101.043 1038.52 100.978 1038.3 100.957V91.8879C1038.98 91.5875 1039.6 91.182 1040.15 90.6866C1044.83 86.4594 1043.39 84.4255 1042.02 82.3096C1041.34 81.2676 1038.11 79.1244 1034.14 80.9127C1031.98 81.8773 1030.38 78.9925 1027.86 80.4577C1025.43 81.8591 1022.57 84.2435 1022.67 85.3037C1021.62 85.4001 1020.63 85.8134 1019.83 86.4883C1019.02 87.1632 1018.44 88.0676 1018.17 89.0804C1017.01 93.1074 1018.57 95.2142 1018.62 96.4154C1018.66 97.5348 1017.96 104.647 1022.44 105.116C1022.38 105.571 1022.14 107.391 1021.94 109.365C1010.56 109.593 997.913 110.776 994.281 113.26C993.937 113.477 993.646 113.768 993.43 114.111L983.507 124.086C982.998 123.372 982.385 122.74 981.686 122.211C980.993 121.74 980.249 121.348 979.469 121.041H979.492C979.424 120.973 978.072 119.895 972.933 119.076C972.894 119.065 972.853 119.065 972.815 119.076C968.557 118.468 964.262 118.164 959.961 118.166V118.225C960.502 113.383 961.704 100.297 959.542 96.2744C957.13 91.7923 951.158 91.0143 950.011 90.9051C947.654 90.2464 945.147 90.3612 942.86 91.2327C939.829 92.5659 938.586 97.239 938.081 100.652C937.894 101.562 937.68 103.15 937.471 105.006C937.23 105.405 937.146 105.878 937.234 106.335C937.252 106.408 937.277 106.48 937.307 106.549C936.788 111.486 936.338 117.356 936.338 117.356L936.916 117.588C932.364 117.615 927.739 117.838 924.143 118.457C922.15 118.616 920.334 118.825 918.818 119.089C913.745 119.587 909.025 121.909 905.536 125.624C904.086 124.498 902.481 123.587 900.771 122.921C900.731 122.905 900.689 122.898 900.647 122.899C900.604 122.9 900.563 122.91 900.524 122.927C900.486 122.945 900.451 122.969 900.422 123C900.393 123.031 900.371 123.068 900.356 123.107L900.115 123.048L882.049 118.607L882.887 111.327C885.773 109.47 886.865 105.712 886.865 105.712C886.924 105.593 886.983 105.47 887.034 105.348C887.372 105.644 887.774 105.858 888.209 105.972C888.645 106.086 889.1 106.097 889.54 106.004C889.981 105.911 890.393 105.717 890.745 105.437C891.097 105.157 891.379 104.799 891.568 104.391C891.758 103.983 891.85 103.537 891.836 103.087C891.823 102.638 891.705 102.198 891.492 101.801C891.279 101.405 890.977 101.064 890.609 100.806C890.241 100.547 889.818 100.377 889.373 100.31C889.255 100.293 889.137 100.282 889.018 100.279C889.623 99.0864 890.916 90.6047 890.479 89.4444C888.372 83.8521 874.908 83.6338 872.395 86.9691C871.676 87.9247 870.666 95.8694 870.82 97.6212C870.612 97.5382 870.395 97.4787 870.174 97.4438C869.743 97.3798 869.303 97.414 868.887 97.5437C868.471 97.6735 868.089 97.8955 867.771 98.1931C867.453 98.4908 867.206 98.8564 867.049 99.2627C866.892 99.6691 866.828 100.106 866.864 100.54C866.899 100.974 867.031 101.395 867.252 101.771C867.473 102.146 867.775 102.468 868.137 102.71C868.499 102.953 868.911 103.111 869.343 103.172C869.774 103.233 870.214 103.196 870.629 103.063C870.629 103.063 870.57 106.599 872.382 109.247L870.934 116.013C862.568 114.583 853.981 115.191 845.9 117.783C844.207 118.311 835.572 125.2 827.238 132.058C822.044 130.802 814.206 130.501 813.81 130.488C813.784 130.486 813.758 130.489 813.734 130.498C813.709 130.506 813.687 130.52 813.668 130.537C813.649 130.555 813.633 130.576 813.622 130.599C813.612 130.623 813.606 130.648 813.605 130.674C809.299 130.383 805.025 130.219 801.826 130.119C801.826 130.119 799.436 129.974 796.7 129.887V123.917C799.126 123.872 800.137 122.416 800.137 122.416C801.047 121.21 801.207 118.138 801.093 115.081C801.473 114.823 801.778 114.471 801.978 114.058C802.179 113.645 802.267 113.187 802.233 112.729C802.2 112.271 802.047 111.831 801.789 111.451C801.531 111.071 801.178 110.766 800.765 110.567C800.697 109.93 800.633 109.356 800.574 108.874C800.862 108.747 801.137 108.595 801.398 108.419C804.361 106.522 802.039 103.837 802.039 103.837C802.039 103.837 803.61 101.462 801.757 99.2866C801.272 98.6784 800.597 98.2494 799.841 98.0672C799.084 97.8851 798.288 97.9603 797.579 98.281C797.579 98.281 796.887 96.1105 793.628 96.1515C790.369 96.1924 790.128 98.1218 790.128 98.1218C790.128 98.1218 789.445 96.5929 787.192 96.7931C786.31 96.9021 785.487 97.2913 784.843 97.9034C783.535 97.1336 781.979 96.9044 780.504 97.2646C779.03 97.6247 777.755 98.5457 776.949 99.8316C776.144 101.118 775.872 102.667 776.192 104.15C776.512 105.633 777.398 106.933 778.662 107.773C777.752 108.61 775.84 110.822 777.966 113.456C777.966 113.456 777.879 119.171 781.511 120.477C782.015 120.665 782.537 120.802 783.068 120.887C783.063 120.976 783.063 121.066 783.068 121.155C783.069 121.895 783.358 122.606 783.873 123.136C784.389 123.667 785.091 123.977 785.831 123.999V129.546H785.348C776.541 120.932 766.231 122.12 766.136 122.133C766.089 122.14 766.044 122.156 766.004 122.181C765.964 122.206 765.929 122.24 765.904 122.279C759.914 121.824 753.782 121.683 753.405 121.674C753.347 121.73 753.296 121.792 753.254 121.86L752.717 121.833L752.367 118.798L752.112 118.857C751.88 116.582 751.584 114.421 751.584 114.421L751.711 110.63V110.376C751.833 110.382 751.954 110.382 752.076 110.376C752.81 110.369 753.521 110.113 754.091 109.649C754.661 109.186 755.056 108.542 755.211 107.824C755.366 107.106 755.272 106.356 754.945 105.699C754.617 105.041 754.076 104.514 753.409 104.205C754.907 96.47 750.997 94.4634 750.997 94.4634C749.276 92.757 743.309 91.7833 739.049 94.345C737.702 94.9269 736.623 95.9941 736.027 97.3344C735.43 98.6748 735.36 100.19 735.83 101.58C735.83 102.49 735.89 103.441 735.89 103.441V110.394C735.672 110.414 735.46 110.478 735.266 110.58C735.266 110.58 734.183 118.607 739.212 119.453L739.153 119.954H738.939L738.621 121.774C738.384 121.774 738.165 121.81 738.015 121.829V121.278L737.656 121.31C736.991 121.36 721.306 122.643 716.672 128.031C716.612 128.091 716.579 128.173 716.579 128.258C716.579 128.343 716.612 128.425 716.672 128.486C715.476 129.589 714.52 130.927 713.864 132.417C711.444 131.579 708.872 131.269 706.322 131.507C706.135 130.001 705.962 128.859 705.962 128.859L706.067 124.982L706.026 124.013C706.508 123.769 706.923 123.41 707.234 122.968C707.544 122.526 707.741 122.014 707.806 121.477C707.872 120.941 707.803 120.397 707.608 119.893C707.413 119.389 707.096 118.941 706.686 118.589C706.686 118.589 707.387 114.321 706.577 111.449C705.93 108.023 703.946 103.514 698.047 102.285C694.137 101.471 695.771 103.691 697.537 105.566C694.519 104.529 691.715 103.937 691.083 104.501C689.717 105.712 691.083 107.154 691.083 107.154C691.083 107.154 686.531 105.739 685.539 109.766C685.083 111.645 686.954 113.001 689.672 113.72L689.785 127.157C689.785 127.157 689.635 131.557 693.49 132.076L693.404 132.84C693.404 132.84 686.954 133.8 687.032 138.178C680.295 140.503 676.417 144.22 674.25 147.246C671.301 151.342 670.809 155.018 670.778 155.3L668.848 165.338C668.128 158.422 666.513 145.049 664.537 142.368C664.488 142.305 664.417 142.264 664.338 142.252C664.259 142.24 664.179 142.259 664.114 142.305C660.536 137.918 650.659 137.818 650.659 137.818C647.113 137.604 643.149 137.518 639.421 137.504C639.108 136.576 638.7 135.683 638.206 134.838C638.179 134.797 638.139 134.766 638.093 134.751C638.047 134.735 637.997 134.735 637.951 134.751C637.396 133.079 637.363 131.278 637.855 129.587C639.293 124.668 638.401 116.418 637.445 113.265C636.025 108.578 627.641 104.911 619.657 110.799C611.674 116.687 616.353 135.37 617.304 137.645C617.319 137.674 617.331 137.705 617.341 137.736C604.418 138.1 601.71 140.253 601.614 140.348C600.896 140.63 600.21 140.99 599.571 141.422C598.601 142.1 597.654 143.442 596.74 145.253L587.126 130.397C578.141 120.787 567.135 122.061 567.026 122.074C566.98 122.081 566.936 122.097 566.896 122.123C566.857 122.148 566.824 122.181 566.798 122.22C560.808 121.765 554.673 121.624 554.299 121.615C554.239 121.669 554.187 121.732 554.145 121.801L553.612 121.774L553.262 118.739L553.002 118.798C552.775 116.523 552.474 114.362 552.474 114.362L552.606 110.571V110.316C553.056 110.372 553.513 110.331 553.946 110.196C554.379 110.061 554.778 109.836 555.117 109.534C555.455 109.233 555.726 108.862 555.91 108.448C556.094 108.033 556.187 107.585 556.184 107.131C556.184 106.513 556.007 105.907 555.674 105.387C555.341 104.866 554.866 104.451 554.304 104.192C555.701 96.9751 552.374 94.7364 551.937 94.477C554.627 92.5978 553.949 89.9267 550.654 88.6436C547.877 87.5606 547.75 91.3737 547.8 92.8799C545.364 92.5568 542.374 92.8799 539.943 94.3314C535.446 96.5337 536.429 100.838 536.725 101.566C536.725 102.476 536.78 103.427 536.78 103.427V110.38C536.563 110.401 536.353 110.465 536.161 110.567C536.161 110.567 535.073 118.593 540.107 119.44L540.043 119.94H539.834L539.515 121.76C539.279 121.76 539.06 121.797 538.905 121.815V121.264L538.546 121.296C537.881 121.346 522.196 122.629 517.563 128.017C517.503 128.077 517.469 128.159 517.469 128.244C517.469 128.33 517.503 128.411 517.563 128.472C516.941 129.064 516.376 129.713 515.874 130.41C515.132 130.31 514.358 130.237 513.562 130.187C513.511 130.185 513.461 130.202 513.422 130.235C513.383 130.268 513.358 130.314 513.352 130.365C508.296 129.855 503.217 129.611 498.136 129.632C497.462 129.632 495.737 129.532 494.121 129.505V123.958C494.861 123.936 495.562 123.626 496.077 123.095C496.592 122.564 496.88 121.854 496.88 121.114C496.884 121.025 496.884 120.935 496.88 120.846C497.412 120.761 497.935 120.624 498.441 120.436C502.082 119.13 501.987 113.415 501.987 113.415C504.108 110.781 502.21 108.569 501.286 107.732C502.595 106.913 503.525 105.608 503.872 104.103C504.218 102.599 503.953 101.019 503.134 99.7098C502.315 98.401 501.009 97.4711 499.504 97.1247C497.999 96.7782 496.418 97.0436 495.109 97.8624C494.465 97.2511 493.642 96.8621 492.76 96.7521C490.507 96.5519 489.824 98.0808 489.824 98.0808C489.824 98.0808 489.583 96.1515 486.324 96.1105C483.065 96.0696 482.373 98.2401 482.373 98.2401C481.664 97.9194 480.868 97.8442 480.112 98.0263C479.355 98.2084 478.68 98.6375 478.195 99.2457C476.342 101.421 477.913 103.796 477.913 103.796C477.913 103.796 475.591 106.481 478.554 108.378C478.814 108.555 479.09 108.708 479.378 108.833C479.319 109.315 479.251 109.889 479.187 110.526C478.773 110.725 478.419 111.029 478.16 111.409C477.901 111.788 477.747 112.23 477.714 112.688C477.681 113.146 477.769 113.605 477.97 114.018C478.172 114.431 478.478 114.783 478.859 115.04C478.746 118.097 478.896 121.169 479.811 122.375C479.811 122.375 480.826 123.831 483.247 123.876V129.846C480.516 129.933 478.127 130.078 478.127 130.078C474.94 130.174 470.653 130.342 466.347 130.633C466.346 130.607 466.34 130.582 466.33 130.558C466.319 130.535 466.304 130.514 466.284 130.496C466.265 130.479 466.243 130.465 466.218 130.457C466.194 130.448 466.168 130.445 466.142 130.447C465.746 130.447 457.908 130.761 452.71 132.017C444.385 125.159 435.75 118.27 434.048 117.742C425.967 115.15 417.379 114.542 409.014 115.972L407.566 109.206C409.387 106.558 409.319 103.022 409.319 103.022C409.734 103.155 410.173 103.192 410.605 103.131C411.036 103.07 411.449 102.912 411.811 102.669C412.173 102.427 412.475 102.106 412.696 101.73C412.916 101.354 413.049 100.933 413.084 100.499C413.119 100.065 413.056 99.6282 412.899 99.2218C412.742 98.8154 412.495 98.4498 412.176 98.1522C411.858 97.8545 411.477 97.6325 411.061 97.5028C410.645 97.373 410.205 97.3388 409.774 97.4028C409.551 97.4377 409.333 97.4972 409.123 97.5803C409.282 95.8284 408.272 87.8837 407.552 86.9281C405.035 83.5928 391.576 83.8112 389.469 89.4035C389.013 90.5638 390.324 99.0454 390.93 100.238C390.811 100.241 390.692 100.252 390.575 100.269C390.129 100.336 389.706 100.504 389.337 100.763C388.969 101.021 388.665 101.362 388.452 101.758C388.238 102.154 388.12 102.594 388.106 103.044C388.092 103.494 388.184 103.941 388.373 104.349C388.562 104.757 388.844 105.116 389.196 105.396C389.548 105.676 389.961 105.871 390.401 105.964C390.842 106.057 391.298 106.046 391.733 105.932C392.169 105.818 392.571 105.604 392.91 105.307C392.964 105.429 393.023 105.552 393.078 105.671C393.078 105.671 394.175 109.429 397.061 111.286L397.898 118.566L379.833 123.007L379.587 123.066C379.572 123.026 379.549 122.99 379.52 122.959C379.49 122.928 379.455 122.903 379.416 122.886C379.377 122.869 379.335 122.859 379.293 122.858C379.25 122.857 379.208 122.864 379.168 122.88C377.46 123.548 375.856 124.458 374.407 125.583C370.917 121.869 366.198 119.547 361.125 119.048C359.609 118.784 357.793 118.593 355.795 118.416C352.204 117.797 347.561 117.574 343.05 117.547L343.628 117.315C343.628 117.315 343.173 111.445 342.659 106.508C342.687 106.438 342.711 106.367 342.732 106.294C342.821 105.837 342.735 105.362 342.49 104.965C342.286 103.109 342.072 101.516 341.88 100.611C341.375 97.1981 340.137 92.525 337.106 91.1917C334.819 90.3202 332.312 90.2054 329.955 90.8641C328.808 90.9733 322.836 91.7742 320.424 96.2334C318.262 100.256 319.463 113.342 320 118.184V118.125C315.7 118.123 311.404 118.427 307.146 119.035C307.109 119.024 307.07 119.024 307.033 119.035C301.894 119.854 300.542 120.932 300.474 121H300.496C299.716 121.306 298.973 121.699 298.28 122.17C297.58 122.698 296.966 123.33 296.459 124.045L286.532 114.07C286.316 113.728 286.027 113.437 285.685 113.22C282.044 110.735 269.399 109.552 258.029 109.325C257.829 107.359 257.574 105.511 257.519 105.075C262.003 104.62 261.306 97.4938 261.343 96.3744C261.384 95.1732 262.945 93.0664 261.798 89.0394C261.521 88.0259 260.941 87.1211 260.136 86.4461C259.331 85.7712 258.338 85.3583 257.292 85.2628C257.392 84.2025 254.561 81.8182 252.107 80.4167C249.581 78.9652 247.983 81.85 245.821 80.8717C241.857 79.1017 238.625 81.2266 237.947 82.2686C236.581 84.3845 235.129 86.4185 239.818 90.6457C240.366 91.1411 240.99 91.5465 241.666 91.847V100.947C241.446 100.969 241.232 101.034 241.038 101.139C241.038 101.139 240.15 107.695 243.673 109.634C243.163 109.675 242.681 109.716 242.225 109.766C242.225 109.766 224.073 109.311 214.365 114.48C213.089 114.816 211.908 115.439 210.91 116.3C203.725 114.438 196.226 114.128 188.911 115.39L187.974 111.026L187.801 110.198C188.555 109.31 189.124 108.28 189.475 107.169C189.826 106.058 189.952 104.888 189.844 103.728C189.813 103.355 189.776 102.959 189.74 102.549C190 102.586 190.263 102.586 190.523 102.549C191.283 102.436 191.966 102.025 192.423 101.408C192.881 100.79 193.074 100.017 192.96 99.2571C192.847 98.4974 192.436 97.8139 191.818 97.3569C191.201 96.9 190.427 96.707 189.667 96.8204C189.513 96.8469 189.361 96.8834 189.212 96.9296C189.212 96.9296 189.166 93.6125 189.64 92.2064C190.113 90.8004 189.248 85.3492 186.736 84.926C185.336 84.7872 183.922 84.909 182.566 85.2855H182.321C180.987 85.1581 172.307 82.7419 168.451 84.471C164.596 86.2001 169.143 97.3391 170.545 98.0307C170.655 98.5586 170.764 99.0955 170.878 99.6416C170.739 99.6393 170.6 99.6484 170.463 99.6688C170.085 99.7227 169.722 99.8507 169.393 100.046C169.065 100.241 168.779 100.498 168.55 100.805C168.322 101.111 168.157 101.459 168.064 101.829C167.971 102.199 167.952 102.584 168.008 102.962C168.065 103.339 168.196 103.702 168.393 104.029C168.59 104.355 168.85 104.64 169.158 104.866C169.465 105.092 169.815 105.255 170.186 105.345C170.557 105.436 170.942 105.452 171.319 105.393C171.561 105.358 171.796 105.29 172.02 105.193C172.102 105.589 172.184 105.975 172.261 106.34C172.503 107.501 172.977 108.602 173.656 109.575C174.336 110.547 175.205 111.373 176.212 112L176.353 112.086C176.611 112.253 176.879 112.405 177.154 112.542L177.2 112.937L177.782 117.993L159.708 122.429C159.63 122.429 159.548 122.466 159.462 122.488C159.464 122.479 159.464 122.47 159.462 122.461C159.447 122.421 159.424 122.385 159.395 122.354C159.365 122.323 159.33 122.298 159.291 122.281C159.252 122.263 159.21 122.254 159.168 122.253C159.125 122.252 159.083 122.259 159.043 122.275C152.106 124.959 148.856 131.116 148.82 131.184L134.255 160.515L133.308 155.323C133.271 155.041 132.78 151.383 129.835 147.269C127.664 144.243 123.786 140.526 117.054 138.2C117.14 133.823 110.681 132.863 110.681 132.863L110.595 132.099C114.45 131.58 114.304 127.18 114.304 127.18L114.414 113.743C117.145 113.024 119.011 111.668 118.547 109.789C117.554 105.762 113.007 107.177 113.007 107.177C113.007 107.177 114.373 105.734 113.007 104.524C111.642 103.314 100.322 107.418 98.3325 109.798C96.3434 112.177 97.4222 118.612 97.4222 118.612C97.0143 118.965 96.6994 119.413 96.5053 119.917C96.3113 120.42 96.2438 120.963 96.309 121.499C96.3742 122.035 96.57 122.546 96.8791 122.988C97.1883 123.431 97.6014 123.79 98.0822 124.035L98.0412 125.005L98.1459 128.882C98.1459 128.882 97.9775 130.024 97.7863 131.53C91.2683 130.788 83.9081 134.642 85.2099 136.831C83.9262 137.107 82.6817 137.541 81.5049 138.123C73.767 142.173 74.9914 165.588 75.1871 168.61C75.0778 174.848 75.2098 181.655 75.6923 188.13C75.6501 188.123 75.6071 188.123 75.5649 188.13C75.4679 188.134 75.3762 188.176 75.3097 188.246C75.2433 188.317 75.2074 188.411 75.2098 188.508C75.2098 189.291 75.665 202.359 80.153 211.924C80.2213 213.862 80.9951 235.726 82.6701 244.995C82.9341 246.433 83.148 247.775 83.3574 249.09C84.0083 253.099 84.5363 256.371 85.8153 258.564C85.7197 285.547 86.0156 327.528 88.2778 357.714C88.3688 358.914 88.9278 360.03 89.8345 360.822L89.9209 366.555C89.8117 366.678 89.7525 366.755 89.7525 366.755V375.965H153.226C153.337 375.965 153.445 375.926 153.531 375.856L173.049 375.606C179.143 375.492 178.31 373.094 178.31 373.094V365.545L178.265 365.631L178.297 362.551C178.838 362.551 179.285 362.551 179.608 362.551H180.19H180.523L186.626 301.091C187.409 294.17 191.142 271.154 192.302 264.056C193.741 271.641 195.243 280.168 196.094 286.844C198.088 302.424 203.946 361.632 204.005 362.232L204.037 362.574H204.383C204.515 362.574 205.257 362.574 206.417 362.51L206.449 365.645L206.399 365.559V373.107C206.399 373.107 205.571 375.505 211.665 375.619L225.148 375.792C225.839 376.425 227.337 377.025 230.532 377.043H258.052C258.255 377.016 258.455 376.975 258.653 376.921C261.243 376.142 260.396 374.541 260.396 374.541L247.196 366.569L246.946 365.404C246.878 365.086 246.745 364.786 246.554 364.522C246.364 364.259 246.12 364.039 245.84 363.875L245.73 359.68C246.41 359.498 247.097 359.293 247.792 359.065C247.804 359.1 247.825 359.13 247.854 359.154C247.882 359.177 247.915 359.192 247.952 359.197H248.011C248.058 359.197 248.104 359.179 248.139 359.147C248.174 359.115 248.196 359.072 248.202 359.024L253.286 319.36C254.552 333.279 256.044 346.661 257.797 358.283C257.797 358.283 259.763 358.506 262.922 358.565L263.095 365.959C263.077 365.928 263.06 365.896 263.045 365.863L263.15 374.295C263.15 374.295 262.239 376.984 269.067 377.025H295.262C295.563 377.224 295.891 377.377 296.236 377.48C296.415 377.532 296.598 377.571 296.782 377.599L322.035 377.999C324.01 377.999 325.28 377.776 326.1 377.439L326.218 377.48C326.397 377.532 326.58 377.571 326.764 377.599L352.017 377.999C358.262 378.058 357.479 375.519 357.479 375.519L357.693 367.593C357.685 367.614 357.675 367.634 357.661 367.652L359.801 296.609C369.723 294.625 375.058 292.236 375.149 292.195L375.254 292.149V292.036C378.262 257.868 376.228 226.585 373.574 210.176C373.565 210.127 373.537 210.083 373.497 210.053C373.456 210.023 373.405 210.01 373.355 210.017C372.445 204.024 371.312 198.095 369.887 192.38C370.697 192.039 371.498 191.675 372.286 191.279C374.056 190.369 375.854 189.404 377.593 188.372L377.27 221.52V221.761L377.488 221.866C378.965 222.494 380.486 223.01 382.04 223.409L378.053 268.797C378.044 268.897 378.075 268.996 378.139 269.073C378.203 269.149 378.295 269.198 378.394 269.207L376.933 286.143V357.582C376.85 357.581 376.769 357.608 376.703 357.659C376.637 357.709 376.589 357.781 376.568 357.861C376.548 357.942 376.554 358.027 376.587 358.103C376.62 358.18 376.678 358.243 376.751 358.283C377.609 358.768 378.495 359.203 379.405 359.584L379.346 364.521C379.097 364.669 378.883 364.866 378.715 365.101C378.547 365.336 378.43 365.604 378.371 365.886L378.162 366.933L366.455 374.213C366.455 374.213 365.718 375.66 368.044 376.324C368.222 376.368 368.403 376.401 368.585 376.425L393.219 376.106C399.314 375.988 398.481 373.594 398.481 373.594V366.045L398.435 366.132L398.467 363.051H399.778H400.379H400.711L406.815 301.591C407.598 294.67 411.33 271.655 412.491 264.557C413.929 272.142 415.431 280.669 416.283 287.344C418.276 302.92 424.134 362.132 424.193 362.728L424.23 363.074H424.571C424.703 363.074 425.445 363.074 426.606 363.006L426.638 366.146L426.592 366.059V373.608C426.592 373.608 425.764 376.001 431.859 376.12L447.999 376.329C448.238 376.46 448.49 376.567 448.75 376.648C448.929 376.703 449.111 376.744 449.296 376.77L474.308 377.166C476.265 377.166 477.521 376.943 478.331 376.607C478.37 376.622 478.41 376.636 478.45 376.648C478.628 376.703 478.811 376.744 478.996 376.77L504.003 377.166C504.811 377.181 505.619 377.134 506.42 377.025H538.282V368.416C538.282 368.416 538.227 368.343 538.123 368.225L538.232 360.881C539.101 360.767 539.989 360.617 540.89 360.426C540.932 360.417 540.972 360.4 541.007 360.376C541.043 360.352 541.073 360.321 541.096 360.285C541.12 360.249 541.136 360.209 541.143 360.166C541.151 360.124 541.15 360.081 541.14 360.039C541.126 359.973 541.092 359.913 541.042 359.868C540.992 359.822 540.93 359.793 540.863 359.784C543.243 340.846 545.055 317.267 546.411 294.347L553.43 360.494C553.374 360.501 553.321 360.522 553.275 360.556C553.23 360.589 553.194 360.634 553.171 360.685C553.149 360.725 553.135 360.769 553.131 360.815C553.127 360.86 553.133 360.906 553.148 360.948C553.163 360.991 553.187 361.031 553.219 361.064C553.25 361.097 553.288 361.123 553.33 361.14C554.77 361.79 556.281 362.271 557.832 362.574L557.768 366.3C557.749 366.288 557.732 366.272 557.718 366.255L545.979 371.292C545.979 371.292 541.709 372.698 541.709 374.864H540.772C540.651 374.864 540.535 374.912 540.45 374.997C540.365 375.083 540.317 375.198 540.317 375.319V376.684C540.317 376.805 540.365 376.92 540.45 377.006C540.535 377.091 540.651 377.139 540.772 377.139H573.412V368.53C573.412 368.53 573.357 368.457 573.253 368.339L573.367 360.926C574.095 360.64 574.514 360.44 574.536 360.43L574.682 360.358L574.714 360.194C578.546 339.454 576.325 240.176 576.138 232.104L576.839 231.321C578.496 231.067 579.498 230.866 579.498 230.866V228.751L581.414 226.617L581.66 226.894C581.716 226.958 581.795 226.998 581.881 227.004C581.966 227.01 582.05 226.982 582.115 226.926C582.179 226.87 582.219 226.79 582.225 226.705C582.231 226.62 582.203 226.535 582.147 226.471C582.87 225.766 583.781 224.846 584.837 223.741C584.951 231.845 585.565 239.253 587.176 242.997C587.286 245.541 586.926 252.098 587.691 252.439C586.931 257.272 586.325 262.227 585.929 267.209C585.447 273.325 585.251 282.225 585.233 292.008C585.178 299.316 585.26 306.942 585.415 314.305C585.765 335.927 586.507 355.712 586.521 356.049C586.524 356.126 586.558 356.199 586.614 356.252C586.67 356.306 586.744 356.335 586.821 356.335C586.882 356.333 586.94 356.313 586.989 356.277C587.037 356.242 587.074 356.192 587.094 356.135C594.32 358.452 601.706 360.236 609.193 361.473L609.589 366.191L609.484 366.141L596.284 374.736C596.284 374.736 595.547 376.102 597.727 376.82C597.893 376.869 598.062 376.907 598.232 376.934L621.505 377.303C623.326 377.303 624.5 377.098 625.251 376.784L625.361 376.82C625.528 376.87 625.698 376.908 625.87 376.934L649.139 377.303C652.266 377.33 653.481 376.657 653.941 376.029H704.205V376.725C704.205 376.846 704.253 376.961 704.339 377.047C704.424 377.132 704.54 377.18 704.66 377.18H737.301V368.571C737.301 368.571 737.246 368.498 737.141 368.38L737.255 361.036C738.125 360.922 739.012 360.772 739.909 360.581C739.982 360.562 740.047 360.52 740.092 360.459C740.138 360.399 740.161 360.324 740.157 360.249C740.154 360.173 740.125 360.101 740.075 360.045C740.024 359.988 739.956 359.951 739.881 359.939C742.267 341.001 744.078 317.421 745.435 294.502L752.467 360.608C752.396 360.616 752.329 360.647 752.277 360.696C752.225 360.746 752.191 360.811 752.18 360.882C752.168 360.952 752.181 361.025 752.214 361.088C752.248 361.151 752.302 361.201 752.367 361.231C753.805 361.881 755.314 362.362 756.864 362.665L756.8 366.391L756.75 366.346L745.011 371.383C745.011 371.383 740.742 372.789 740.742 374.955H739.804C739.683 374.955 739.568 375.003 739.482 375.088C739.397 375.173 739.349 375.289 739.349 375.41V376.775C739.349 376.896 739.397 377.011 739.482 377.097C739.568 377.182 739.683 377.23 739.804 377.23H773.628C774.427 377.339 775.234 377.386 776.04 377.371L801.075 376.975C801.26 376.949 801.442 376.907 801.621 376.852C801.661 376.841 801.7 376.827 801.739 376.811C802.545 377.148 803.806 377.389 805.763 377.371L830.797 376.975C830.982 376.949 831.165 376.907 831.343 376.852C831.603 376.771 831.855 376.664 832.094 376.534L848.235 376.324C854.325 376.206 853.497 373.813 853.497 373.813V366.264C853.497 366.291 853.465 366.319 853.451 366.35L853.483 363.211C854.644 363.265 855.381 363.279 855.513 363.279H855.859L855.895 362.933C855.954 362.337 861.812 303.124 863.806 287.549C864.657 280.874 866.159 272.347 867.598 264.761C868.758 271.86 872.491 294.875 873.269 301.796L879.368 363.256H879.701H880.242H881.553L881.585 366.337L881.535 366.25V373.799C881.535 373.799 880.707 376.193 886.801 376.311L911.435 376.629C911.616 376.607 911.795 376.573 911.972 376.529C914.303 375.865 913.565 374.418 913.565 374.418L901.858 367.138L901.644 366.091C901.587 365.809 901.47 365.541 901.304 365.306C901.137 365.071 900.922 364.874 900.675 364.726L900.616 359.789C901.525 359.407 902.411 358.973 903.269 358.487C903.313 358.463 903.351 358.431 903.382 358.392C903.412 358.353 903.435 358.308 903.448 358.26C903.461 358.212 903.465 358.162 903.458 358.113C903.452 358.064 903.435 358.016 903.41 357.973C903.378 357.916 903.33 357.868 903.272 357.835C903.215 357.802 903.149 357.785 903.083 357.787V286.143L901.631 269.166C901.73 269.157 901.822 269.108 901.886 269.032C901.95 268.955 901.981 268.856 901.972 268.756L897.985 223.368C899.538 222.967 901.06 222.451 902.537 221.825L902.75 221.72V221.479L902.427 188.331C904.166 189.364 905.964 190.342 907.735 191.238C908.517 191.634 909.319 191.998 910.133 192.339C908.709 198.055 907.571 203.983 906.665 209.976C906.615 209.97 906.564 209.982 906.524 210.012C906.483 210.042 906.455 210.086 906.447 210.135C903.793 226.544 901.758 257.827 904.767 291.995V292.108L904.867 292.154C904.963 292.195 910.297 294.584 920.215 296.568L922.355 367.597L922.318 367.538L922.537 375.465C922.537 375.465 921.758 378.004 927.999 377.944L953.247 377.544C953.433 377.516 953.617 377.477 953.798 377.426L953.916 377.385C954.736 377.721 956.005 377.963 957.981 377.944L983.229 377.544C983.415 377.517 983.599 377.477 983.78 377.426C984.125 377.322 984.453 377.168 984.754 376.971H1010.95C1017.78 376.934 1016.87 374.24 1016.87 374.24L1016.97 365.809C1016.95 365.842 1016.94 365.874 1016.92 365.904L1017.09 358.51C1020.25 358.451 1022.21 358.228 1022.21 358.228C1023.97 346.611 1025.46 333.202 1026.73 319.305L1031.84 358.929C1031.84 358.976 1031.86 359.02 1031.9 359.052C1031.93 359.084 1031.98 359.102 1032.03 359.102H1032.06C1032.09 359.097 1032.12 359.081 1032.15 359.058C1032.18 359.035 1032.2 359.004 1032.21 358.97C1032.91 359.197 1033.6 359.402 1034.28 359.584L1034.17 363.779C1033.89 363.943 1033.64 364.164 1033.45 364.427C1033.26 364.69 1033.13 364.99 1033.06 365.308L1032.81 366.473L1019.61 374.445C1019.61 374.445 1018.76 376.047 1021.35 376.825C1021.55 376.88 1021.75 376.921 1021.95 376.948H1049.47C1052.66 376.948 1054.16 376.329 1054.85 375.697L1068.34 375.524C1074.43 375.41 1073.6 373.012 1073.6 373.012V365.463C1073.6 365.49 1073.57 365.518 1073.55 365.549L1073.59 362.414C1074.75 362.469 1075.48 362.478 1075.62 362.478H1075.96L1076 362.137C1076.06 361.536 1081.91 302.328 1083.91 286.748C1084.76 280.073 1086.26 271.546 1087.7 263.96C1088.86 271.059 1092.59 294.074 1093.38 300.995L1099.48 362.455H1099.81H1100.41C1100.74 362.455 1101.18 362.455 1101.72 362.455L1101.76 365.536L1101.71 365.449V372.998C1101.71 372.998 1100.88 375.396 1106.97 375.51L1126.48 375.76C1126.57 375.831 1126.68 375.87 1126.79 375.869H1190.27V366.66C1190.27 366.66 1190.21 366.582 1190.1 366.46L1190.19 360.726C1191.09 359.936 1191.65 358.819 1191.74 357.618C1194.01 327.432 1194.3 285.451 1194.21 258.468C1195.48 256.266 1196.03 253.008 1196.66 248.995C1196.87 247.698 1197.09 246.355 1197.35 244.899C1199.03 235.631 1199.8 213.767 1199.87 211.828C1204.37 202.273 1204.79 189.195 1204.81 188.413C1204.81 188.364 1204.8 188.316 1204.79 188.271C1204.77 188.226 1204.74 188.184 1204.71 188.149C1204.68 188.114 1204.64 188.086 1204.59 188.066C1204.55 188.047 1204.5 188.036 1204.45 188.035C1204.41 188.028 1204.37 188.028 1204.33 188.035C1204.78 181.669 1204.92 174.862 1204.81 168.623ZM801.816 112.874C801.816 113.187 801.749 113.497 801.618 113.782C801.488 114.067 801.298 114.32 801.061 114.525C801.006 113.301 800.906 112.096 800.806 111.031C801.115 111.229 801.37 111.501 801.546 111.823C801.723 112.145 801.816 112.507 801.816 112.874ZM478.937 114.525C478.679 114.303 478.477 114.023 478.347 113.709C478.217 113.394 478.162 113.054 478.186 112.714C478.211 112.375 478.315 112.046 478.49 111.753C478.664 111.461 478.905 111.214 479.192 111.031C479.087 112.096 478.991 113.301 478.937 114.525ZM118.346 366.733V369.413L113.162 367.192L112.998 367.119L110.267 365.941L110.203 365.914L106.562 364.348L106.512 364.398L106.444 360.594C107.297 360.312 108.048 359.787 108.606 359.082C109.163 358.378 109.502 357.526 109.58 356.631L112.825 318.905C113.817 331.96 114.987 344.782 116.348 355.994C116.437 356.707 116.667 357.396 117.023 358.021C117.379 358.646 117.855 359.194 118.424 359.634L118.528 366.514C118.406 366.655 118.346 366.733 118.346 366.733ZM152.876 174.712C153.762 175.076 154.687 175.444 155.652 175.817H155.689C155.726 175.824 155.765 175.824 155.802 175.817H155.839H155.912L155.943 175.79C155.965 175.78 155.986 175.766 156.003 175.749C156.013 175.737 156.022 175.723 156.03 175.708C156.044 175.691 156.056 175.673 156.066 175.654L157.587 172.013L157.486 182.17L155.843 194.687C153.481 193.586 150.777 192.321 148.133 191.097C148.196 191.065 148.246 191.012 148.274 190.947C148.291 190.909 148.301 190.869 148.302 190.827C148.303 190.786 148.296 190.745 148.282 190.706C148.267 190.668 148.244 190.632 148.216 190.603C148.187 190.573 148.153 190.549 148.114 190.533L142.825 188.212C146.358 183.958 150.604 177.974 152.88 174.689L152.876 174.712ZM135.124 164.542L135.06 164.628L135.024 164.446L135.124 164.542ZM158.201 268.62L156.749 285.597V357.036C156.666 357.035 156.585 357.062 156.519 357.113C156.453 357.163 156.405 357.235 156.384 357.315C156.363 357.396 156.37 357.481 156.403 357.557C156.436 357.634 156.494 357.697 156.567 357.737C157.425 358.222 158.311 358.657 159.221 359.038L159.161 363.98C158.912 364.126 158.697 364.324 158.529 364.559C158.362 364.794 158.245 365.062 158.187 365.345L157.978 366.391L150.45 371.083C149.582 370.519 148.65 370.06 147.673 369.718L141.756 367.174L141.587 367.101L138.856 365.923L138.793 365.895L135.151 364.33L135.097 364.38L134.996 358.378C135.778 357.9 136.425 357.232 136.879 356.437C137.333 355.641 137.578 354.744 137.591 353.828L139.129 257.931C141.437 257.276 142.88 256.566 143.067 255.852C143.736 253.245 141.751 235.922 139.971 221.848C146.235 221.334 150.632 220.87 151.219 220.81C151.315 220.799 151.403 220.75 151.464 220.674C151.524 220.598 151.552 220.502 151.542 220.405C151.535 220.326 151.502 220.251 151.448 220.193C151.393 220.136 151.32 220.098 151.241 220.087C151.465 218.895 151.647 217.748 151.801 216.651L153.167 216.237V216.333C153.003 217.543 154.182 218.786 155.579 218.877L157.159 218.981V220.915V221.156L157.377 221.261C158.853 221.889 160.375 222.404 161.929 222.803L157.887 268.188C157.878 268.285 157.907 268.382 157.968 268.459C158.029 268.535 158.118 268.585 158.215 268.597L158.201 268.62ZM308.963 365.877L297.26 373.503L285.731 366.532L285.476 365.367C285.408 365.05 285.275 364.749 285.085 364.486C284.894 364.223 284.651 364.002 284.37 363.839L284.165 355.948C285.453 355.566 286.737 355.129 288.007 354.633V292.754C290.451 293.414 293.437 294.16 296.86 294.898C296.851 294.946 296.86 294.995 296.885 295.037C296.91 295.079 296.95 295.11 296.996 295.125C298.662 295.58 300.815 295.985 303.214 296.376L309.095 365.909L308.963 365.877ZM338.949 365.877L327.547 373.308L327.702 367.579C327.702 367.579 327.679 367.62 327.67 367.638L329.727 299.234H331.676C332.267 299.234 332.854 299.234 333.437 299.234L339.063 365.932L338.949 365.877ZM342.636 106.107C342.636 105.889 342.586 105.652 342.563 105.457C342.634 105.658 342.664 105.872 342.65 106.085L342.636 106.107ZM437.635 155.478C437.375 154.372 437.12 153.385 436.879 152.575L438.436 153.539C438.154 154.216 437.891 154.854 437.648 155.455L437.635 155.478ZM442.842 221.816C445.195 221.12 446.483 220.633 446.483 220.633C446.483 214.718 445.678 206.668 444.526 198.15C445.596 196.375 446.347 195.033 446.46 194.869L456.306 179.398L455.892 201.399C455.892 201.399 448.732 236.714 446.128 260.288L442.846 221.866L442.842 221.816ZM461.34 365.245L452.892 370.75L446.879 367.001L446.67 365.954C446.61 365.672 446.493 365.405 446.325 365.17C446.158 364.936 445.943 364.738 445.696 364.589L445.637 359.584C446.507 359.229 447.351 358.812 448.163 358.337C448.206 358.313 448.244 358.28 448.274 358.241C448.304 358.202 448.326 358.157 448.339 358.109C448.351 358.061 448.355 358.011 448.348 357.962C448.341 357.913 448.325 357.866 448.299 357.823C448.265 357.767 448.217 357.721 448.16 357.689C448.102 357.657 448.037 357.64 447.972 357.641V318.131C450.361 318.677 453.648 319.373 457.639 320.083L461.454 365.272L461.34 365.245ZM491.035 365.245L479.747 372.602L479.897 366.928C479.889 366.949 479.879 366.969 479.865 366.987L480.657 340.705L481.19 322.991C483.284 323.13 485.425 323.241 487.612 323.323L491.154 365.295L491.035 365.245ZM522.583 366.3L522.533 366.255L510.794 371.292C510.341 371.45 509.897 371.634 509.465 371.842L509.597 366.928C509.589 366.949 509.579 366.969 509.565 366.987L510.894 322.754C513.757 322.408 516.497 322.004 518.983 321.589L519.124 357.782L519.292 357.878C520.392 358.443 521.533 358.923 522.706 359.316L522.583 366.3ZM574.832 353.733C575.287 347.171 575.62 340.186 575.879 332.965C575.67 341.16 575.333 348.345 574.846 353.71L574.832 353.733ZM586.812 186.037C584.873 189.386 582.26 193.877 579.475 198.491V178.347C579.518 178.348 579.56 178.34 579.6 178.324C579.64 178.308 579.676 178.284 579.706 178.254C579.737 178.224 579.761 178.188 579.778 178.149C579.794 178.109 579.803 178.067 579.803 178.024V163.636C582.93 168.255 586.357 173.492 588.328 177.023C587.686 180.577 587.172 183.712 586.812 186.037ZM637.099 366.064L626.594 372.912L626.735 367.634C626.726 367.653 626.716 367.671 626.703 367.688L626.831 363.456C630.126 363.652 633.531 363.752 637.004 363.716L637.204 366.114L637.099 366.064ZM669.043 364.407L668.989 364.357L665.347 365.923L665.284 365.95L662.553 367.128L662.384 367.201L656.467 369.745C655.732 370 655.021 370.318 654.341 370.696L654.423 367.634L654.396 367.688L654.555 362.319C659.507 361.555 664.392 360.416 669.171 358.911L669.043 364.407ZM697.637 364.407L697.582 364.357L693.941 365.923L693.877 365.95L685.789 369.422V366.742C685.789 366.742 685.73 366.664 685.616 366.541L685.721 359.661C686.291 359.222 686.768 358.675 687.124 358.05C687.48 357.425 687.709 356.735 687.796 356.021C689.162 344.809 690.327 331.987 691.319 318.932L694.574 356.649C694.653 357.544 694.991 358.396 695.549 359.1C696.106 359.804 696.857 360.33 697.71 360.612L697.637 364.407ZM721.652 366.287C721.633 366.274 721.616 366.259 721.602 366.241L714.374 369.344V366.742C714.374 366.742 714.315 366.664 714.201 366.541L714.287 360.808C715.197 360.019 715.757 358.901 715.844 357.7C717.005 342.229 717.665 323.637 717.988 305.563L718.188 357.769L718.356 357.864C719.456 358.429 720.598 358.91 721.77 359.302L721.652 366.287ZM788.967 365.231L788.853 365.281L792.394 323.309C794.579 323.231 796.72 323.12 798.817 322.977L799.349 340.691L800.137 366.974C800.137 366.974 800.137 366.937 800.105 366.915L800.26 372.589L788.967 365.231ZM834.311 364.558C834.063 364.705 833.848 364.903 833.681 365.138C833.513 365.373 833.396 365.64 833.337 365.923L833.128 366.969L827.115 370.719L818.667 365.213L818.553 365.263L822.367 320.074C826.355 319.364 829.65 318.668 832.031 318.122V357.6C831.948 357.599 831.868 357.626 831.802 357.675C831.736 357.725 831.688 357.795 831.666 357.875C831.644 357.954 831.65 358.039 831.681 358.115C831.712 358.191 831.768 358.255 831.84 358.296C832.653 358.771 833.499 359.187 834.37 359.543L834.311 364.558ZM837.151 221.875L833.865 260.297C831.261 236.723 824.106 201.408 824.106 201.408L823.687 179.408L833.533 194.878C833.628 195.042 834.402 196.385 835.472 198.159C834.316 206.677 833.51 214.731 833.51 220.642C833.51 220.642 834.816 221.129 837.151 221.825C837.142 221.838 837.134 221.851 837.129 221.866L837.151 221.875ZM842.372 155.441C842.126 154.835 841.859 154.189 841.571 153.503L843.128 152.538C842.864 153.362 842.609 154.349 842.349 155.455L842.372 155.441ZM937.371 106.071C937.348 105.852 937.371 105.63 937.439 105.42L937.371 106.071ZM941.058 365.841L940.939 365.895L946.57 299.198C947.152 299.198 947.74 299.198 948.331 299.198H950.279L952.337 367.602L952.3 367.543L952.46 373.271L941.058 365.841ZM995.637 363.802C995.356 363.966 995.111 364.186 994.92 364.449C994.729 364.713 994.595 365.013 994.527 365.331L994.276 366.496L982.742 373.467L971.04 365.841L970.926 365.895L976.793 296.363C979.187 295.971 981.345 295.553 983.006 295.111C983.054 295.099 983.095 295.068 983.12 295.025C983.146 294.983 983.154 294.932 983.143 294.884C986.57 294.147 989.556 293.401 992 292.741V354.597C993.27 355.093 994.554 355.507 995.842 355.912L995.637 363.802ZM1144.98 164.41L1144.95 164.592L1144.88 164.505L1144.98 164.41ZM1123.95 175.608C1123.96 175.627 1123.98 175.646 1123.99 175.663L1124.01 175.704C1124.03 175.719 1124.05 175.733 1124.07 175.745L1124.1 175.772H1124.18H1124.21C1124.25 175.779 1124.29 175.779 1124.33 175.772H1124.37C1125.33 175.399 1126.26 175.03 1127.14 174.666C1129.42 177.951 1133.66 183.935 1137.2 188.135L1131.91 190.456C1131.87 190.472 1131.83 190.496 1131.8 190.525C1131.78 190.555 1131.75 190.59 1131.74 190.629C1131.72 190.667 1131.72 190.708 1131.72 190.75C1131.72 190.791 1131.73 190.832 1131.74 190.87C1131.77 190.933 1131.82 190.985 1131.88 191.02C1129.24 192.244 1126.54 193.509 1124.18 194.61L1122.53 182.092L1122.43 171.936L1123.95 175.608ZM1144.94 364.385L1144.89 364.335L1141.25 365.9L1141.18 365.927L1138.45 367.106L1138.28 367.178L1132.37 369.722C1131.39 370.065 1130.46 370.523 1129.59 371.087L1122.07 366.396L1121.86 365.349C1121.8 365.067 1121.68 364.799 1121.51 364.564C1121.34 364.329 1121.13 364.132 1120.88 363.984L1120.82 359.043C1121.73 358.661 1122.62 358.227 1123.48 357.741C1123.52 357.717 1123.56 357.685 1123.59 357.646C1123.62 357.606 1123.64 357.562 1123.65 357.514C1123.67 357.466 1123.67 357.416 1123.67 357.367C1123.66 357.317 1123.64 357.27 1123.62 357.227C1123.58 357.169 1123.54 357.122 1123.48 357.089C1123.42 357.056 1123.36 357.039 1123.29 357.041V285.601L1121.84 268.624C1121.94 268.615 1122.03 268.567 1122.09 268.49C1122.16 268.413 1122.19 268.314 1122.18 268.215L1118.19 222.826C1119.74 222.425 1121.27 221.91 1122.74 221.284L1122.96 221.179V220.938V219.004L1124.54 218.899C1125.93 218.808 1127.11 217.566 1126.94 216.356V216.26L1128.31 216.674C1128.46 217.772 1128.65 218.917 1128.87 220.11C1128.79 220.121 1128.72 220.159 1128.67 220.217C1128.61 220.275 1128.58 220.349 1128.57 220.428C1128.56 220.525 1128.59 220.621 1128.65 220.697C1128.71 220.773 1128.8 220.822 1128.9 220.833C1129.48 220.892 1133.88 221.356 1140.14 221.871C1138.36 235.945 1136.38 253.267 1137.05 255.875C1137.24 256.598 1138.67 257.299 1140.98 257.954L1142.54 353.887C1142.56 354.803 1142.8 355.701 1143.25 356.496C1143.71 357.292 1144.36 357.96 1145.14 358.437L1144.94 364.385ZM1173.53 364.385C1173.51 364.369 1173.5 364.352 1173.48 364.335L1169.84 365.9L1169.78 365.927L1167.05 367.106L1166.88 367.178L1161.7 369.399V366.719C1161.7 366.719 1161.64 366.642 1161.53 366.519L1161.63 359.639C1162.2 359.198 1162.68 358.65 1163.03 358.025C1163.39 357.4 1163.62 356.712 1163.7 355.999C1165.07 344.787 1166.24 331.964 1167.23 318.909L1170.49 356.626C1170.56 357.521 1170.9 358.373 1171.46 359.078C1172.02 359.782 1172.77 360.308 1173.62 360.59L1173.53 364.385Z" fill="#071F35"/>
<path opacity="0.3" d="M825.369 476.033C825.369 483.175 763.684 489.065 684.053 489.908C677.605 489.974 671.048 490.008 664.381 490.01C662.445 490.01 660.517 490.01 658.598 490.01C654.994 490 651.42 489.979 647.878 489.948C638.963 489.87 630.263 489.727 621.838 489.528C553.571 487.907 503.393 482.485 503.393 476.043C503.393 468.323 575.47 462.062 664.381 462.062C753.292 462.062 825.369 468.313 825.369 476.033Z" fill="#0E556C"/>
<path d="M508.775 60.5001C508.775 60.5001 499.027 62.3651 486.988 56.1776L490.43 50.8301L503.214 53.0801L508.775 60.5001Z" fill="#E88F66"/>
<path d="M534.255 75.8721L544.415 89.0146L554.297 111.502L538.934 118.26L521.836 79.3496L534.255 75.8721Z" fill="#0099A3"/>
<path d="M534.266 75.869L505.682 10.8262L493.992 15.9662L522.577 81.009L534.266 75.869Z" fill="#0099A3"/>
<path d="M505.925 11.3954L494.236 16.5354L490.637 8.35044L499.987 4.25044C500.294 4.11534 500.624 4.04206 500.96 4.03478C501.295 4.0275 501.629 4.08636 501.941 4.20801C502.254 4.32965 502.539 4.5117 502.782 4.74375C503.024 4.9758 503.218 5.25331 503.353 5.56044L505.925 11.3954Z" fill="#0099A3"/>
<path d="M510.687 22.2121L509.551 19.626L497.861 24.766L498.998 27.3521L510.687 22.2121Z" fill="#071F35"/>
<path d="M511.348 85.9426L514.159 102.318L524.042 124.808L539.405 118.05L522.307 79.1426L511.348 85.9426Z" fill="#0099A3"/>
<path d="M523.048 80.8007L494.463 15.7578L482.773 20.8978L511.358 85.9407L523.048 80.8007Z" fill="#0099A3"/>
<path d="M483.016 21.4651L494.705 16.3251L491.109 8.14258L481.756 12.2501C481.449 12.3852 481.172 12.5794 480.94 12.8218C480.708 13.0641 480.526 13.3498 480.404 13.6625C480.283 13.9752 480.224 14.3088 480.231 14.6443C480.238 14.9797 480.312 15.3104 480.447 15.6176L483.016 21.4651Z" fill="#0099A3"/>
<path d="M499.471 27.1428L498.334 24.5566L486.645 29.6966L487.781 32.2828L499.471 27.1428Z" fill="#0E556C"/>
<path d="M540.32 120.13C548.567 116.488 554.796 112.643 554.296 111.503C553.796 110.363 546.745 112.363 538.49 115.973L540.32 120.13Z" fill="#0099A3"/>
<path d="M538.49 115.973L538.255 116.075C529.9 119.748 523.537 123.658 524.042 124.805C524.547 125.953 531.727 123.908 540.082 120.235L540.32 120.13L538.49 115.973Z" fill="#0099A3"/>
<path d="M523.655 124.977L513.75 102.44L510.941 86.0647L497.572 55.7497L498.345 55.4072L511.756 85.8197L514.568 102.192L524.43 124.635L523.655 124.977Z" fill="#222733"/>
<path d="M527.25 63.9996C520.929 64.0646 508.522 63.0696 497.335 55.4996C497.335 55.4996 491.867 54.8897 488.008 56.6222C488.008 56.6222 486.653 57.3246 483.851 51.9021C481.05 46.4796 474.119 25.2146 474.119 25.2146L509.14 8.82715L532.788 22.8896C532.788 22.8896 538.711 26.1696 536.007 31.9296C536.007 31.9296 539.756 37.3896 535.57 42.3271C535.57 42.3271 539.934 46.6796 534.52 53.8396C534.52 53.8396 535.612 55.4321 534.905 58.1471C534.005 61.5971 530.814 63.9521 527.25 63.9996Z" fill="#FE9F73"/>
<path d="M534.938 54.8099C534.733 54.9002 534.504 54.9213 534.286 54.8699L516.653 50.8699C516.39 50.7973 516.165 50.6262 516.025 50.3921C515.885 50.1579 515.841 49.8788 515.901 49.6128C515.962 49.3469 516.123 49.1144 516.35 48.964C516.578 48.8135 516.854 48.7565 517.123 48.8049L534.755 52.8049C534.972 52.8552 535.167 52.9725 535.313 53.1402C535.46 53.3079 535.549 53.5174 535.569 53.7389C535.589 53.9605 535.539 54.1827 535.426 54.3741C535.313 54.5655 535.142 54.7162 534.938 54.8049V54.8099Z" fill="#E88F66"/>
<path d="M536.945 43.5152C536.74 43.6053 536.511 43.6264 536.293 43.5752L521.497 40.2127C521.234 40.1401 521.009 39.969 520.869 39.7348C520.729 39.5007 520.685 39.2216 520.745 38.9556C520.806 38.6896 520.966 38.4572 521.194 38.3067C521.421 38.1563 521.698 38.0993 521.966 38.1477L536.76 41.5127C537.034 41.5753 537.271 41.7439 537.421 41.9815C537.57 42.2191 537.619 42.5064 537.557 42.7802C537.521 42.9425 537.446 43.0939 537.34 43.2217C537.233 43.3495 537.098 43.4501 536.945 43.5152Z" fill="#E88F66"/>
<path d="M537.08 33.1026C536.874 33.1917 536.646 33.2127 536.427 33.1626L524.431 30.4326C524.294 30.4035 524.164 30.3474 524.049 30.2676C523.934 30.1879 523.836 30.0861 523.76 29.9681C523.685 29.8501 523.634 29.7184 523.61 29.5804C523.585 29.4425 523.589 29.3011 523.62 29.1646C523.651 29.028 523.709 28.8989 523.79 28.7849C523.871 28.6708 523.974 28.574 524.093 28.5001C524.212 28.4262 524.344 28.3766 524.483 28.3543C524.621 28.332 524.762 28.3374 524.898 28.3701L536.895 31.1001C537.111 31.1504 537.307 31.2677 537.453 31.4354C537.599 31.6031 537.689 31.8126 537.709 32.0342C537.729 32.2557 537.679 32.478 537.565 32.6693C537.452 32.8607 537.281 33.0115 537.077 33.1001L537.08 33.1026Z" fill="#E88F66"/>
<path d="M526.569 78.8902L511.18 85.5322L511.515 86.3104L526.904 79.6683L526.569 78.8902Z" fill="#222733"/>
<path d="M550.449 103.992L547.775 97.8418L531.385 104.97L534.059 111.12L550.449 103.992Z" fill="#C2E0EF"/>
<path d="M535.787 109.79L533.098 103.67L516.789 110.841L519.478 116.961L535.787 109.79Z" fill="#DDF0FC"/>
<path d="M548.754 96.3072L516.609 110.441L516.95 111.217L549.095 97.083L548.754 96.3072Z" fill="#222733"/>
<path d="M543.974 105.72L528.283 112.619L528.624 113.395L544.315 106.495L543.974 105.72Z" fill="#222733"/>
<path d="M533.311 82.5121L532.861 83.2305L538.796 86.9454L539.245 86.227L533.311 82.5121Z" fill="#222733"/>
<path d="M532.787 85.8675L532.338 86.5859L538.272 90.3008L538.722 89.5824L532.787 85.8675Z" fill="#222733"/>
<path d="M514.236 7.9025L510.382 9.565L505.958 11.475L499.262 14.365L494.706 16.33L494.329 16.4925L494.234 16.5325V16.535L494.049 16.615L482.984 21.39H482.982L474.134 25.2075L474.119 25.215L471.557 26.32L469.028 20.455L468.861 20.0675L468.693 19.6775L467.568 17.0725L507.133 0H510.829L511.371 1.26L511.539 1.6475L511.706 2.0375L514.236 7.9025Z" fill="#CEEAF3"/>
<path d="M515.358 0L511.539 1.6475L503.196 5.2475L491.967 10.095L491.494 10.2975H491.492L480.287 15.135L469.248 19.9L468.861 20.0675L468.471 20.235L464.014 22.1575L454.457 0H515.358Z" fill="#0099A3"/>
<path d="M487.501 0L477.231 4.43L473.934 5.8575C473.037 6.24655 472.051 6.38775 471.08 6.26639C470.109 6.14503 469.188 5.76555 468.414 5.16746C467.639 4.56938 467.039 3.77455 466.676 2.86573C466.313 1.9569 466.2 0.96732 466.349 0L487.501 0Z" fill="#0099A3"/>
<path d="M516.428 0L511.707 2.0375L503.389 5.6275L492.137 10.4825L491.665 10.6875L480.415 15.54L469.416 20.2875L469.028 20.455L468.638 20.6225L463.795 22.7125L454 0H454.922L464.237 21.6L468.693 19.6775L480.233 14.6975L491.325 9.9125L491.797 9.7075L502.942 4.8975L511.372 1.26L514.291 0H516.428Z" fill="#222733"/>
<path d="M471.335 26.8754L468.471 20.2354L469.248 19.8979L471.777 25.7629L499.08 13.9404L499.415 14.7179L471.335 26.8754Z" fill="#222733"/>
<path d="M488.567 0L477.4 4.82L477.23 4.43L477.062 4.0425L486.43 0H488.567Z" fill="#222733"/>
<path d="M606 459.767L623.722 460L624 442.31L606.352 440L606 459.767Z" fill="#FE9F73"/>
<path d="M664.127 456L682 452.433L678.27 434L660 435.397L664.127 456Z" fill="#FE9F73"/>
<path d="M635.997 302.632C635.347 321.476 632.516 395.193 626.562 443.423C626.365 444.971 625.607 446.394 624.431 447.421C623.255 448.449 621.742 449.011 620.179 449C615.38 448.983 610.61 448.276 606.013 446.901C604.712 446.521 603.566 445.738 602.74 444.664C601.915 443.591 601.453 442.284 601.42 440.931L599.001 294.166C598.996 293.81 599.02 293.453 599.074 293.101L599.189 292.376C599.812 288.384 604.025 285.977 607.859 287.424L631.872 296.503C633.116 296.964 634.183 297.804 634.923 298.904C635.663 300.004 636.039 301.308 635.997 302.632Z" fill="#0099A3"/>
<path d="M661.506 294.088C661.506 294.088 661.828 331.474 667.173 372.702C670.14 395.594 678.618 419.366 679.99 439.307C680.068 440.59 679.682 441.859 678.904 442.881C678.126 443.903 677.007 444.611 675.751 444.876C670.467 446.022 665.032 446.294 659.66 445.682C658.559 445.559 657.523 445.099 656.692 444.365C655.861 443.63 655.276 442.658 655.017 441.579L636.39 378.484L625.1 314.692L613 280L661.506 294.088Z" fill="#0099A3"/>
<path d="M653.735 440H653.812C653.878 439.98 653.934 439.933 653.968 439.869C654.001 439.806 654.009 439.732 653.99 439.663L636.653 378.815L628.527 331.224C628.514 331.153 628.474 331.09 628.416 331.049C628.359 331.007 628.288 330.991 628.219 331.004C628.185 331.01 628.152 331.022 628.123 331.041C628.094 331.059 628.068 331.084 628.048 331.113C628.028 331.142 628.014 331.175 628.006 331.209C627.999 331.244 627.998 331.28 628.004 331.315L636.136 378.938L653.481 439.801C653.497 439.858 653.53 439.908 653.576 439.944C653.622 439.98 653.678 440 653.735 440Z" fill="#222733"/>
<path d="M672.735 403H672.794C672.827 402.992 672.859 402.978 672.888 402.957C672.916 402.936 672.94 402.91 672.959 402.88C672.977 402.849 672.99 402.815 672.996 402.78C673.002 402.744 673.001 402.708 672.994 402.673C671.022 393.855 668.156 376.526 666.629 366.981C666.584 366.708 666.556 366.519 666.525 366.392C666.525 366.269 666.525 366.098 666.491 365.842L662.525 316.248C662.518 316.177 662.485 316.11 662.432 316.064C662.38 316.018 662.312 315.995 662.243 316.001C662.174 316.007 662.109 316.041 662.064 316.096C662.019 316.151 661.996 316.223 662.001 316.295C662.043 316.79 665.967 365.842 666.012 366.44V366.457L666.043 366.725C666.06 366.819 666.077 366.937 666.103 367.078C667.63 376.629 670.492 393.97 672.47 402.805C672.487 402.864 672.523 402.915 672.57 402.95C672.618 402.985 672.676 403.002 672.735 403Z" fill="#222733"/>
<path d="M601.679 435.999C601.722 435.999 601.764 435.991 601.803 435.977C601.842 435.963 601.878 435.943 601.907 435.918C601.937 435.892 601.961 435.862 601.977 435.829C601.992 435.796 602 435.76 602 435.724L599.673 317.268C599.674 317.23 599.665 317.193 599.648 317.159C599.63 317.124 599.604 317.094 599.571 317.069C599.538 317.043 599.499 317.024 599.456 317.013C599.414 317.001 599.369 316.997 599.324 317.002C599.238 317.002 599.156 317.032 599.095 317.083C599.034 317.135 599 317.204 599 317.276L601.33 435.73C601.331 435.768 601.34 435.804 601.358 435.838C601.376 435.872 601.402 435.903 601.435 435.928C601.468 435.953 601.506 435.973 601.548 435.985C601.59 435.997 601.635 436.002 601.679 435.999Z" fill="#222733"/>
<path d="M623.315 462.588H608.322L602.26 456L591.152 462.6H588.758C588.36 462.593 587.971 462.725 587.657 462.973C587.343 463.22 587.122 463.57 587.032 463.962C586.983 464.211 586.99 464.467 587.052 464.713C587.114 464.959 587.229 465.187 587.389 465.383C587.549 465.578 587.75 465.734 587.978 465.841C588.205 465.948 588.453 466.002 588.703 466H623.537C623.597 466 623.657 465.989 623.713 465.966C623.769 465.943 623.82 465.909 623.863 465.866C623.906 465.823 623.94 465.771 623.964 465.715C623.987 465.659 624 465.598 624 465.537V463.278C624.001 463.187 623.985 463.096 623.951 463.011C623.917 462.927 623.867 462.85 623.803 462.786C623.739 462.721 623.663 462.67 623.579 462.636C623.495 462.603 623.405 462.586 623.315 462.588Z" fill="#0E556C"/>
<path d="M624 463V456.63C624 456.63 621.363 453.114 617.349 454.907C617.349 454.907 611.275 459.179 605.923 454L592.633 459.844C592.633 459.844 588.986 461.053 588 462.988L624 463Z" fill="#0099A3"/>
<path d="M624 457H623V463H624V457Z" fill="#222733"/>
<path d="M611.78 456.999C611.519 457.004 611.259 456.988 611 456.952L611.037 456.678C613.092 456.878 615.146 456.285 616.858 455L617 455.229C615.455 456.383 613.638 457 611.78 456.999Z" fill="#222733"/>
<path d="M620.163 462L620 461.674L621.837 460L622 460.321L620.163 462Z" fill="#222733"/>
<path d="M619.16 461L619 460.839L620.837 460L621 460.161L619.16 461Z" fill="#222733"/>
<path d="M587.643 466C587.442 465.841 587.28 465.643 587.169 465.419C587.058 465.194 587.001 464.95 587 464.702C587.004 464.248 587.197 463.814 587.538 463.495C587.878 463.176 588.339 462.998 588.817 463H623.023C623.28 462.999 623.527 463.094 623.71 463.265C623.894 463.436 623.998 463.669 624 463.913V465.491H623.74V463.913C623.74 463.824 623.721 463.735 623.684 463.653C623.647 463.57 623.594 463.495 623.527 463.432C623.46 463.369 623.38 463.319 623.293 463.286C623.205 463.252 623.111 463.235 623.017 463.236H588.817C588.405 463.234 588.008 463.387 587.715 463.662C587.421 463.937 587.254 464.311 587.251 464.702C587.252 464.915 587.302 465.126 587.398 465.319C587.493 465.512 587.633 465.682 587.806 465.818L587.643 466Z" fill="#222733"/>
<path d="M588.242 463L588 462.89C588.03 462.828 588.755 461.371 591.455 460.242C594.107 459.13 605.776 454.048 605.893 454L606 454.238C605.884 454.288 594.212 459.371 591.556 460.48C588.961 461.558 588.248 462.985 588.242 463Z" fill="#222733"/>
<path d="M682.505 453.508L668.113 457.512L660.446 453L651.595 462.111L649.292 462.751C648.906 462.849 648.566 463.076 648.331 463.392C648.096 463.708 647.98 464.094 648.003 464.485C648.026 464.73 648.105 464.967 648.233 465.178C648.36 465.39 648.534 465.572 648.742 465.71C648.949 465.849 649.185 465.94 649.433 465.979C649.681 466.018 649.935 466.003 650.176 465.934L683.662 456.629C683.721 456.614 683.777 456.587 683.826 456.55C683.874 456.513 683.914 456.467 683.944 456.414C683.974 456.361 683.992 456.303 683.998 456.243C684.004 456.183 683.997 456.122 683.978 456.065L683.351 453.959C683.326 453.874 683.284 453.796 683.228 453.727C683.172 453.659 683.103 453.602 683.024 453.56C682.945 453.518 682.859 453.491 682.77 453.483C682.681 453.474 682.59 453.482 682.505 453.508Z" fill="#0E556C"/>
<path d="M682 453.203L680.301 447.124C680.301 447.124 676.947 444.486 673.745 447.292C673.745 447.292 669.312 453.017 663.028 449.544L652.409 458.741C652.409 458.741 649.39 460.884 649 463L682 453.203Z" fill="#0099A3"/>
<path d="M683 452.929L682.747 453L681 447.071L681.253 447L683 452.929Z" fill="#222733"/>
<path d="M669.742 450.791C669.509 450.882 669.272 450.952 669.032 451L669 450.701C670.882 450.227 672.584 448.921 673.82 447L674 447.191C672.885 448.919 671.402 450.172 669.742 450.791Z" fill="#222733"/>
<path d="M679.134 453L679 452.804L679.866 451L680 451.196L679.134 453Z" fill="#222733"/>
<path d="M678.134 453L678 452.804L678.866 451L679 451.196L678.134 453Z" fill="#222733"/>
<path d="M648.108 466C647.758 465.85 647.463 465.595 647.266 465.272C647.068 464.949 646.977 464.573 647.005 464.196C647.033 463.819 647.178 463.46 647.421 463.169C647.664 462.878 647.993 462.668 648.361 462.57L682.272 453.039C682.528 452.966 682.802 452.996 683.035 453.123C683.269 453.249 683.443 453.461 683.519 453.713L684 455.348L683.749 455.418L683.269 453.783C683.212 453.597 683.083 453.44 682.911 453.346C682.738 453.253 682.535 453.23 682.346 453.284L648.435 462.815C648.233 462.871 648.043 462.965 647.878 463.094C647.712 463.222 647.574 463.382 647.471 463.564C647.368 463.745 647.303 463.945 647.279 464.152C647.254 464.359 647.272 464.568 647.329 464.768C647.395 464.988 647.509 465.191 647.661 465.364C647.814 465.537 648.003 465.675 648.214 465.769L648.108 466Z" fill="#222733"/>
<path d="M649.247 463L649 462.96C649 462.894 649.281 461.351 651.423 459.593C653.565 457.834 662.747 450.078 662.84 450L663 450.192C662.907 450.27 653.688 458.059 651.58 459.788C649.517 461.472 649.25 462.974 649.247 463Z" fill="#222733"/>
<path d="M600.826 214C600.826 214 592.179 199.767 591.408 197.569C589.667 192.603 585 146.968 585 146.968L598.897 146L606.636 181.951L617 204.374L600.826 214Z" fill="#FE9F73"/>
<path d="M583.839 131.481C584.153 131.37 584.496 131.384 584.8 131.52C585.104 131.656 585.347 131.905 585.479 132.215L587.231 136.187C587.257 136.248 587.302 136.299 587.359 136.332C587.415 136.366 587.481 136.381 587.546 136.374C587.592 136.37 587.637 136.355 587.676 136.331C587.716 136.307 587.75 136.274 587.776 136.234C587.802 136.195 587.819 136.151 587.825 136.104C587.832 136.057 587.829 136.01 587.816 135.964L586.015 129.801C585.961 129.645 585.944 129.479 585.964 129.315C585.985 129.151 586.043 128.994 586.133 128.857C586.224 128.72 586.345 128.607 586.486 128.526C586.627 128.446 586.785 128.4 586.947 128.393C587.314 128.371 587.678 128.474 587.982 128.686C588.286 128.898 588.513 129.207 588.627 129.564L590.464 135.847C590.485 135.918 590.53 135.979 590.59 136.02C590.65 136.061 590.722 136.08 590.794 136.073H590.897C590.981 136.065 591.058 136.024 591.111 135.959C591.165 135.894 591.191 135.809 591.184 135.724L590.516 128.481C590.481 128.144 590.572 127.806 590.771 127.534C590.97 127.263 591.262 127.078 591.588 127.018C591.762 126.988 591.94 126.996 592.111 127.04C592.282 127.084 592.442 127.163 592.581 127.273C592.721 127.382 592.837 127.52 592.922 127.678C593.007 127.835 593.06 128.009 593.076 128.188L593.747 135.476C593.754 135.561 593.794 135.639 593.858 135.694C593.922 135.749 594.005 135.776 594.088 135.768L594.421 135.736C594.497 135.73 594.568 135.695 594.621 135.638C594.674 135.582 594.705 135.507 594.707 135.429L594.951 128.633C594.959 128.294 595.093 127.97 595.324 127.727C595.556 127.484 595.869 127.339 596.201 127.322C596.377 127.317 596.552 127.348 596.716 127.415C596.88 127.481 597.028 127.582 597.152 127.709C597.276 127.837 597.373 127.989 597.438 128.156C597.502 128.324 597.532 128.503 597.525 128.683C597.525 128.683 597.697 139.07 597.855 140.682L600.722 138.262C600.939 137.993 601.252 137.824 601.592 137.791C601.932 137.758 602.271 137.864 602.534 138.086C602.664 138.196 602.772 138.331 602.851 138.484C602.93 138.636 602.979 138.803 602.994 138.975C603.01 139.147 602.992 139.32 602.942 139.485C602.892 139.65 602.811 139.803 602.703 139.936L598.193 147.036C597.907 147.402 596.975 147.493 596.215 147.384C588.73 148.696 587.566 148.848 585.514 149L585.029 140.726C584.889 138.338 584.324 135.997 583.361 133.816L583.12 133.269C583.045 133.104 583.004 132.926 583 132.744C582.996 132.563 583.029 132.382 583.097 132.214C583.164 132.046 583.265 131.895 583.393 131.768C583.521 131.642 583.673 131.544 583.839 131.481Z" fill="#FE9F73"/>
<path d="M677.948 223C677.948 223 689.058 210.706 690.221 208.704C692.852 204.177 706 160.507 706 160.507L692.637 157L678.326 190.65L664 210.618L677.948 223Z" fill="#FE9F73"/>
<path d="M710.37 145.404C710.08 145.237 709.738 145.186 709.412 145.26C709.086 145.334 708.8 145.529 708.612 145.804L706.147 149.312C706.109 149.366 706.056 149.407 705.994 149.429C705.931 149.45 705.864 149.452 705.801 149.433C705.756 149.42 705.715 149.398 705.68 149.367C705.645 149.337 705.618 149.299 705.6 149.256C705.581 149.214 705.573 149.168 705.575 149.122C705.576 149.075 705.589 149.03 705.61 148.989L708.531 143.371C708.613 143.23 708.661 143.073 708.671 142.91C708.681 142.748 708.652 142.586 708.588 142.436C708.524 142.287 708.425 142.155 708.301 142.05C708.176 141.945 708.029 141.871 707.87 141.833C707.512 141.742 707.135 141.772 706.795 141.917C706.456 142.063 706.175 142.315 705.994 142.637L703.024 148.364C702.991 148.429 702.936 148.48 702.869 148.508C702.802 148.537 702.727 148.541 702.657 148.52L702.556 148.491C702.476 148.468 702.409 148.414 702.368 148.341C702.328 148.268 702.317 148.183 702.34 148.102L704.34 141.229C704.438 140.909 704.412 140.565 704.266 140.264C704.119 139.964 703.864 139.73 703.552 139.61C703.385 139.55 703.207 139.524 703.029 139.535C702.851 139.547 702.678 139.594 702.519 139.675C702.361 139.756 702.221 139.869 702.108 140.007C701.995 140.144 701.912 140.303 701.863 140.474L699.843 147.385C699.832 147.425 699.813 147.462 699.787 147.494C699.761 147.527 699.729 147.554 699.693 147.573C699.657 147.593 699.617 147.606 699.576 147.61C699.534 147.614 699.493 147.61 699.453 147.598L699.13 147.503C699.056 147.483 698.993 147.436 698.952 147.372C698.91 147.307 698.894 147.23 698.905 147.155L699.921 140.532C699.976 140.203 699.905 139.865 699.72 139.587C699.536 139.308 699.253 139.11 698.928 139.031C698.755 138.993 698.575 138.99 698.401 139.023C698.227 139.056 698.061 139.125 697.915 139.225C697.768 139.325 697.644 139.454 697.55 139.604C697.455 139.754 697.393 139.922 697.366 140.097C697.366 140.097 695.274 150.101 694.818 151.636L692.433 148.756C692.352 148.607 692.241 148.475 692.108 148.369C691.975 148.263 691.823 148.184 691.659 148.136C691.496 148.089 691.324 148.074 691.155 148.093C690.986 148.112 690.822 148.164 690.673 148.246C690.523 148.328 690.391 148.438 690.285 148.571C690.178 148.703 690.099 148.856 690.051 149.019C690.004 149.182 689.989 149.353 690.008 149.522C690.027 149.691 690.079 149.854 690.162 150.003L693.305 157.715C693.53 158.121 694.428 158.383 695.199 158.423C702.36 161.102 703.486 161.456 705.483 162L707.504 154.095C708.086 151.815 709.077 149.658 710.431 147.731L710.771 147.247C710.872 147.102 710.941 146.937 710.975 146.764C711.01 146.59 711.008 146.412 710.97 146.239C710.933 146.066 710.86 145.903 710.757 145.759C710.654 145.616 710.522 145.495 710.37 145.404Z" fill="#FE9F73"/>
<path d="M639.023 190L635.217 199.645C635.217 199.645 633.785 202.854 636.514 204.377L633.255 210.485C632.419 212.025 633.791 211.988 635.165 213.086C635.935 213.705 636.798 214.201 637.723 214.555C641.017 215.829 643.763 214.073 644.522 212.955C645.281 211.838 646.759 205.673 646.759 205.673L647.99 202.837L652 191.56L639.023 190Z" fill="#FE9F73"/>
<path d="M644.829 197.986C644.86 198.005 644.894 198.005 644.924 197.986C644.939 197.976 644.953 197.962 644.964 197.944C644.976 197.926 644.985 197.905 644.991 197.882C644.997 197.859 645 197.834 645 197.809C645 197.784 644.996 197.759 644.99 197.736C644.99 197.703 644.015 194.226 642.088 195.159C642.056 195.175 642.03 195.209 642.015 195.255C641.999 195.3 641.996 195.352 642.005 195.401C642.016 195.449 642.038 195.489 642.068 195.512C642.097 195.535 642.132 195.54 642.163 195.524C643.869 194.7 644.724 197.762 644.759 197.882C644.773 197.929 644.798 197.966 644.829 197.986Z" fill="#222733"/>
<path d="M639.812 194.989C639.839 195.002 639.867 195.003 639.894 194.994C639.921 194.985 639.946 194.965 639.964 194.937C639.983 194.909 639.995 194.875 639.999 194.838C640.002 194.801 639.998 194.763 639.985 194.73C639.953 194.643 639.128 192.588 638.092 193.074C638.057 193.092 638.029 193.126 638.013 193.171C637.998 193.215 637.996 193.266 638.008 193.312C638.014 193.335 638.023 193.357 638.035 193.375C638.047 193.393 638.062 193.408 638.078 193.418C638.094 193.429 638.112 193.435 638.13 193.436C638.149 193.437 638.167 193.433 638.184 193.424C638.995 193.064 639.742 194.867 639.747 194.903C639.762 194.94 639.785 194.97 639.812 194.989Z" fill="#222733"/>
<path d="M642.033 197.32C641.998 197.412 641.991 197.513 642.012 197.609C642.034 197.705 642.083 197.793 642.155 197.862C642.226 197.93 642.316 197.975 642.414 197.992C642.511 198.01 642.611 197.997 642.701 197.958C642.792 197.918 642.868 197.852 642.921 197.769C642.975 197.685 643.002 197.588 643 197.489C642.998 197.391 642.967 197.295 642.91 197.213C642.854 197.132 642.775 197.07 642.683 197.034C642.559 196.986 642.421 196.989 642.299 197.043C642.178 197.096 642.082 197.196 642.033 197.32Z" fill="#222733"/>
<path d="M638.035 195.317C637.998 195.41 637.99 195.51 638.012 195.607C638.033 195.703 638.082 195.791 638.153 195.86C638.224 195.929 638.314 195.975 638.411 195.992C638.509 196.01 638.609 195.998 638.699 195.958C638.79 195.919 638.867 195.854 638.92 195.771C638.974 195.687 639.002 195.59 639 195.492C638.998 195.393 638.967 195.297 638.911 195.215C638.855 195.134 638.776 195.071 638.684 195.035C638.623 195.011 638.557 194.999 638.492 195C638.426 195.001 638.361 195.015 638.301 195.042C638.24 195.068 638.186 195.106 638.14 195.153C638.094 195.2 638.059 195.256 638.035 195.317Z" fill="#222733"/>
<path d="M651.864 191.652L648.103 194C648.103 194 639.636 193.983 637.193 189.407C634.75 184.832 636.537 183.725 638.303 182.535C639.174 181.948 642.436 181.303 645.07 183.813C646.509 185.183 648.698 183.482 650.271 185.322C651.843 187.162 653.458 189.938 652.88 190.588C652.303 191.239 651.864 191.652 651.864 191.652Z" fill="#222733"/>
<path d="M652 190C652 190 655.292 191.123 654.979 194.632C654.667 198.142 652.818 199.315 652.426 200.242C652.035 201.169 650.221 207.759 646 205.55L648.848 194.609L651.982 191.054L652 190Z" fill="#222733"/>
<path d="M645.205 198.592C644.989 199.052 644.943 199.556 645.07 200.039C645.198 200.521 645.495 200.962 645.923 201.304C646.351 201.646 646.891 201.875 647.475 201.961C648.059 202.048 648.661 201.988 649.204 201.79C649.748 201.591 650.208 201.263 650.528 200.846C650.847 200.43 651.011 199.944 650.999 199.45C650.987 198.955 650.8 198.475 650.461 198.07C650.121 197.664 649.645 197.352 649.093 197.172C648.726 197.052 648.334 196.994 647.94 197.001C647.545 197.007 647.157 197.078 646.796 197.21C646.435 197.342 646.108 197.532 645.835 197.769C645.562 198.006 645.348 198.286 645.205 198.592Z" fill="#FE9F73"/>
<path d="M647.503 200.929C647.786 201.017 648.095 201.023 648.382 200.946C648.67 200.869 648.921 200.713 649.097 200.502C649.286 200.309 649.395 200.067 649.406 199.815C649.418 199.562 649.332 199.313 649.162 199.108C648.976 198.89 648.719 198.726 648.425 198.637C648.13 198.547 647.812 198.536 647.51 198.606C647.745 198.362 648.075 198.202 648.437 198.154C648.945 198.13 649.446 198.268 649.844 198.543C649.853 198.551 649.863 198.557 649.874 198.561C649.885 198.565 649.897 198.567 649.909 198.567C649.921 198.567 649.933 198.565 649.944 198.561C649.955 198.557 649.965 198.551 649.974 198.543C649.991 198.528 650 198.507 650 198.486C650 198.464 649.991 198.444 649.974 198.428C649.535 198.124 648.982 197.973 648.422 198.004C648.17 198.04 647.93 198.122 647.718 198.244C647.506 198.367 647.326 198.527 647.19 198.715L647 198.952L647.305 198.837C647.598 198.724 647.927 198.699 648.238 198.767C648.549 198.835 648.825 198.991 649.022 199.211C649.167 199.388 649.24 199.603 649.229 199.82C649.218 200.038 649.124 200.246 648.961 200.411C648.811 200.597 648.594 200.735 648.345 200.803C648.096 200.871 647.827 200.866 647.582 200.789C647.571 200.785 647.559 200.783 647.547 200.783C647.535 200.783 647.523 200.785 647.512 200.789C647.501 200.793 647.491 200.799 647.483 200.806C647.474 200.814 647.468 200.823 647.463 200.832C647.454 200.852 647.454 200.875 647.463 200.894C647.473 200.914 647.491 200.93 647.514 200.938L647.503 200.929Z" fill="#E88F66"/>
<path d="M644 204C644 204 641.763 209.752 635 207.461L636.584 204.2C636.584 204.2 640.509 206.991 644 204Z" fill="#222733"/>
<path d="M635.354 197.936C635.354 197.936 631.811 204.067 636.187 205.975C642.446 208.706 644.49 205.413 646.035 202.699L648.506 196.798L649 195C648.348 195.321 647.821 195.835 647.496 196.467C646.786 197.838 644.905 201.544 644.467 201.575C643.848 201.617 636.601 197.686 635.354 197.936Z" fill="#222733"/>
<path d="M639.376 198.995C639.391 199.001 639.408 199.001 639.423 198.998C639.439 198.994 639.453 198.985 639.463 198.974C639.477 198.961 639.485 198.944 639.485 198.926C639.485 198.908 639.477 198.891 639.463 198.878L638.197 197.954L639.989 195.102C639.995 195.094 639.998 195.085 639.999 195.076C640.001 195.067 640 195.058 639.997 195.049C639.994 195.041 639.989 195.032 639.983 195.025C639.976 195.018 639.968 195.013 639.959 195.008C639.941 195 639.92 194.998 639.9 195.003C639.88 195.008 639.863 195.019 639.853 195.035L638 197.989L639.364 198.982C639.367 198.987 639.371 198.992 639.376 198.995Z" fill="#E88F66"/>
<path d="M640 201.302C639.955 201.273 637.003 200 637.003 200C637.003 200 636.898 201.406 637.991 201.878C639.085 202.35 640 201.302 640 201.302Z" fill="#FBFDFC"/>
<path d="M649.25 304.999C649.288 305.002 649.327 304.998 649.364 304.986C649.401 304.975 649.434 304.956 649.463 304.932L655.908 299.455C655.962 299.409 655.996 299.344 656 299.275C656.004 299.206 655.978 299.138 655.929 299.086C655.905 299.061 655.875 299.04 655.842 299.025C655.809 299.01 655.774 299.002 655.737 299C655.701 298.999 655.664 299.004 655.63 299.016C655.595 299.028 655.564 299.046 655.537 299.069L649.089 304.546C649.036 304.593 649.004 304.658 649 304.727C648.997 304.796 649.022 304.863 649.071 304.915C649.118 304.962 649.181 304.992 649.25 304.999Z" fill="#222733"/>
<path d="M649.233 307.999C649.268 308.002 649.303 307.999 649.336 307.989C649.37 307.979 649.4 307.964 649.427 307.943L653.913 304.396C653.939 304.377 653.959 304.353 653.974 304.326C653.989 304.3 653.997 304.271 653.999 304.241C654.002 304.211 653.997 304.182 653.986 304.154C653.975 304.125 653.958 304.099 653.936 304.077C653.891 304.032 653.828 304.004 653.76 304C653.692 303.997 653.625 304.017 653.574 304.057L649.088 307.604C649.05 307.633 649.023 307.671 649.009 307.714C648.996 307.757 648.997 307.802 649.013 307.844C649.028 307.887 649.057 307.924 649.096 307.951C649.136 307.979 649.183 307.995 649.233 307.999Z" fill="#222733"/>
<path d="M599.099 147.037C599.099 147.037 606.877 182.552 606.604 182.185C606.33 181.819 620.728 207.594 622.984 208.661C625.241 209.728 655.945 211.592 655.945 211.592L677.687 191.099L691.791 157.457C695.452 157.548 706 162.569 706 162.569L691.873 207.081C691.295 208.902 690.3 210.564 688.967 211.935C683.182 217.879 666.907 234.728 665.597 237.413C663.998 240.685 661.777 310 661.777 310C609.715 309.783 598.327 297.293 598.327 297.293C598.327 297.293 604.55 229.256 604.679 225.738C604.679 225.738 596.282 210.695 593.546 204.868C592.315 202.461 591.206 199.995 590.223 197.478C588.942 194.042 584 148.233 584 148.233C588.302 146.673 599.099 147.037 599.099 147.037Z" fill="#CEEAF3"/>
<path d="M656.036 212L656.11 211.93L678.07 191.557L680.642 192.808C680.67 192.825 680.701 192.835 680.733 192.84C680.766 192.844 680.798 192.841 680.83 192.832C680.861 192.824 680.89 192.808 680.915 192.788C680.94 192.767 680.961 192.742 680.975 192.713C680.99 192.684 680.998 192.653 681 192.621C681.001 192.589 680.996 192.557 680.984 192.527C680.973 192.497 680.955 192.47 680.932 192.447C680.909 192.424 680.881 192.406 680.851 192.395L677.986 191L677.867 191.111L655.863 211.525L646.251 210.91C646.189 210.907 646.129 210.927 646.082 210.967C646.035 211.007 646.006 211.063 646.001 211.124C645.996 211.185 646.017 211.245 646.058 211.291C646.099 211.337 646.156 211.366 646.218 211.37L656.036 212Z" fill="#222733"/>
<path d="M677.237 191C677.285 191 677.331 190.986 677.37 190.961C677.41 190.935 677.44 190.899 677.458 190.857L691.989 157.3C692.007 157.245 692.003 157.186 691.978 157.134C691.953 157.082 691.908 157.04 691.854 157.018C691.799 156.996 691.737 156.994 691.681 157.013C691.625 157.032 691.578 157.071 691.55 157.122L677.019 190.678C677.004 190.714 676.997 190.752 677.001 190.79C677.005 190.828 677.018 190.865 677.04 190.897C677.062 190.929 677.092 190.955 677.127 190.973C677.161 190.991 677.201 191 677.24 191H677.237Z" fill="#222733"/>
<path d="M662.268 287C662.337 287 662.403 286.977 662.453 286.935C662.502 286.894 662.531 286.837 662.533 286.778C663.469 266.872 665.975 237.54 665.999 237.247C666.002 237.217 665.998 237.186 665.987 237.157C665.976 237.129 665.958 237.102 665.935 237.079C665.912 237.056 665.884 237.038 665.852 237.024C665.821 237.011 665.787 237.003 665.752 237.001C665.717 236.998 665.682 237.001 665.648 237.011C665.615 237.02 665.584 237.035 665.557 237.054C665.531 237.074 665.509 237.098 665.493 237.125C665.478 237.152 665.469 237.182 665.467 237.212C665.443 237.504 662.936 266.848 662 286.76C661.999 286.79 662.004 286.82 662.016 286.848C662.028 286.876 662.047 286.902 662.07 286.924C662.094 286.946 662.123 286.964 662.154 286.976C662.186 286.989 662.22 286.996 662.255 286.997L662.268 287Z" fill="#222733"/>
<path d="M600.239 280C600.3 279.999 600.358 279.977 600.402 279.937C600.447 279.896 600.474 279.841 600.478 279.783C602.979 243.15 605.967 223.46 605.998 223.267C606.006 223.206 605.99 223.144 605.952 223.094C605.914 223.045 605.858 223.012 605.795 223.002C605.733 222.994 605.669 223.01 605.619 223.047C605.568 223.084 605.535 223.138 605.526 223.199C605.496 223.393 602.502 243.097 600.001 279.753C599.998 279.784 600.003 279.814 600.013 279.843C600.023 279.872 600.039 279.899 600.06 279.922C600.08 279.945 600.106 279.963 600.134 279.977C600.162 279.99 600.193 279.998 600.224 280H600.239Z" fill="#222733"/>
<path d="M604.768 226C604.808 226.001 604.848 225.99 604.883 225.97C604.936 225.939 604.975 225.888 604.991 225.828C605.008 225.768 605 225.704 604.971 225.65C604.871 225.478 595.176 208.306 592.763 202.259C592.429 201.422 592.127 200.692 591.845 200.021C590.059 195.729 589.32 193.954 588.464 183.217C588.459 183.155 588.43 183.097 588.384 183.057C588.337 183.016 588.276 182.996 588.215 183.001C588.153 183.005 588.096 183.035 588.056 183.082C588.016 183.129 587.996 183.191 588.001 183.253C588.88 194.067 589.666 195.99 591.42 200.202C591.713 200.873 592.006 201.6 592.335 202.434C594.76 208.511 604.469 225.709 604.569 225.884C604.589 225.92 604.618 225.949 604.653 225.97C604.688 225.99 604.728 226.001 604.768 226Z" fill="#222733"/>
<g style="mix-blend-mode:multiply">
<g opacity="0.5">
<path d="M620.497 304.527C623.847 262.546 637.956 211.2 638.099 210.688L637.221 210.442C637.078 210.957 622.946 262.383 619.59 304.454L620.497 304.527Z" fill="#0E556C"/>
</g>
</g>
<path d="M638 210C637.137 211.203 636.104 212.095 635.123 213.035C618.96 228.567 589.272 210.773 595.967 239C598.076 235.002 598.304 228.877 602.709 226.184C603.328 225.809 604.012 225.556 604.723 225.438C616.29 223.506 632.593 226.351 638 210Z" fill="#0099A3"/>
<path d="M638.754 213.067L636.889 214L635.538 213.565L635 211.205L637.028 210L639 210.528L638.754 213.067Z" fill="#0099A3"/>
<path d="M638.077 208.975L634.652 207L633 209.688L635.026 212.973L637.746 210.573L638.741 214L647 210.883L646.562 208.276L638.077 208.975Z" fill="#0E556C"/>
<path d="M662 306.948C662 306.948 616.865 307.777 599.251 294L599 297.011C599 297.011 605.552 304.028 626.15 307.506C646.747 310.984 662 309.809 662 309.809V306.948Z" fill="#0E556C"/>
<path d="M624.982 303.846L624.173 307.512C624.136 307.675 624.046 307.816 623.921 307.904C623.796 307.992 623.647 308.021 623.504 307.984L615.442 305.91C615.366 305.891 615.294 305.854 615.232 305.801C615.169 305.748 615.116 305.68 615.077 305.603C615.038 305.526 615.013 305.44 615.004 305.351C614.995 305.261 615.002 305.171 615.024 305.085L615.952 301.469C615.992 301.31 616.083 301.175 616.206 301.091C616.329 301.007 616.475 300.98 616.615 301.015L624.559 303.047C624.633 303.066 624.703 303.102 624.764 303.153C624.825 303.204 624.878 303.268 624.917 303.343C624.956 303.417 624.983 303.5 624.994 303.587C625.005 303.673 625.001 303.761 624.982 303.846Z" fill="#0E556C"/>
<path d="M606.764 179H606.812C606.873 178.987 606.927 178.951 606.961 178.901C606.996 178.85 607.008 178.789 606.995 178.73L599.873 147.07H599.693C599.594 147.07 589.656 146.57 584.165 148.244C584.135 148.253 584.108 148.267 584.084 148.287C584.06 148.306 584.04 148.33 584.026 148.357C584.012 148.383 584.003 148.413 584.001 148.443C583.998 148.473 584.002 148.503 584.012 148.531C584.021 148.56 584.036 148.587 584.057 148.61C584.077 148.633 584.102 148.652 584.13 148.666C584.158 148.679 584.188 148.687 584.22 148.689C584.251 148.692 584.283 148.688 584.312 148.678C589.313 147.153 598.121 147.458 599.491 147.527L606.535 178.847C606.551 178.893 606.582 178.932 606.623 178.96C606.665 178.987 606.714 179.001 606.764 179Z" fill="#222733"/>
<g style="mix-blend-mode:multiply" opacity="0.6">
<path d="M694.044 476.213C693.618 475.897 693.153 475.637 692.66 475.439L690.616 473.189H690.703L689.22 470.981C689.716 470.999 690.011 470.889 689.894 470.713L689.474 470.092L689.331 470.077L689.237 469.938C689.054 469.801 688.831 469.724 688.601 469.719L649.347 466.05C648.969 466.005 648.586 466.015 648.211 466.082L648.086 466.032C647.706 466.116 647.566 466.278 647.7 466.477C647.94 466.836 649.017 467.211 650.124 467.33C650.39 467.46 651.601 467.997 654.46 468.604C657.611 469.274 671.519 472.287 671.659 472.316L671.691 472.279H671.744L673.043 473.706C672.114 473.726 671.18 473.755 670.243 473.798C668.126 473.899 667.162 474.518 667.842 475.352L668.351 476.118H668.269C668.152 476.118 668.082 476.147 668.114 476.193L677.26 490C679.502 490 681.754 490 684.016 490C691.803 490 699.464 489.961 707 489.882C703.087 485.077 699.338 480.423 694.044 476.213ZM633.015 472.92L628.343 469.742C628.369 469.714 628.393 469.684 628.413 469.652H628.542L625.236 467.341C625.657 467.309 625.794 467.156 625.528 466.974L624.597 466.324H624.457L624.247 466.18C624.024 466.063 623.775 466.002 623.522 466.003H588.17C587.87 465.985 587.569 466.038 587.294 466.157L587.145 466.116C586.92 466.249 586.958 466.443 587.253 466.651C587.793 467.023 589.025 467.33 590.036 467.347C590.374 467.462 591.869 467.925 594.766 468.309C597.96 468.725 612.117 470.62 612.26 470.646V470.603L612.289 470.583L616.549 473.451C614.505 473.787 614.053 474.668 615.463 475.679L617.951 477.461C617.802 477.461 617.744 477.505 617.823 477.563L634.353 489.408C644.196 489.639 654.361 489.804 664.776 489.893C655.981 484.551 647.183 479.336 639.08 474.734C637.614 473.948 635.334 473.275 633.01 472.92H633.015Z" fill="#0E556C"/>
</g>
<path opacity="0.5" d="M553.865 112L825 475H503L523.992 125.077L553.865 112Z" fill="url(#paint0_linear_852_73320)"/>
</g>
<defs>
<linearGradient id="paint0_linear_852_73320" x1="664" y1="112" x2="664" y2="475" gradientUnits="userSpaceOnUse">
<stop stop-color="#FDFFB8"/>
<stop offset="0.13" stop-color="#FEFFCF"/>
<stop offset="0.29" stop-color="#FEFFE4"/>
<stop offset="0.48" stop-color="#FFFFF3"/>
<stop offset="0.69" stop-color="#FFFFFC"/>
<stop offset="1" stop-color="white"/>
</linearGradient>
<clipPath id="clip0_852_73320">
<rect width="1280" height="500" rx="16" fill="white"/>
</clipPath>
</defs>
</svg>
