<svg width="24" height="24" viewBox="0 0 24 24" fill="none" xmlns="http://www.w3.org/2000/svg">
<g clip-path="url(#clip0_1684_20799)">
<path d="M6.14086 7.59938H2.53125V16.4005H6.14086M6.14086 7.59938V16.4005M6.14086 7.59938L14.1792 3.98401V9.89654M6.14086 16.4005L14.1792 20.0159V14.1153M11.5232 5.24349V18.7642M2.48438 13.8835H0.46875V10.0778H2.48438M17.6797 14.9417C17.5565 14.9419 17.4346 14.9177 17.3208 14.8706C17.207 14.8235 17.1037 14.7543 17.0167 14.6672C16.6506 14.3011 16.6506 13.7074 17.0167 13.3413C17.7563 12.6017 17.7563 11.3982 17.0167 10.6586C16.6506 10.2925 16.6506 9.69892 17.0167 9.33282C17.3828 8.96668 17.9765 8.96668 18.3426 9.33282C19.8132 10.8035 19.8132 13.1965 18.3426 14.6672C18.2556 14.7544 18.1523 14.8235 18.0385 14.8706C17.9247 14.9177 17.8028 14.9419 17.6797 14.9417Z" stroke="#222733" stroke-miterlimit="10" stroke-linecap="round" stroke-linejoin="round"/>
<path d="M20.5701 17.832C20.4469 17.8322 20.325 17.808 20.2112 17.7609C20.0975 17.7138 19.9941 17.6446 19.9072 17.5575C19.541 17.1913 19.541 16.5977 19.9072 16.2316C22.2406 13.8983 22.2406 10.1016 19.9072 7.76813C19.541 7.40198 19.541 6.80841 19.9072 6.44231C20.2733 6.07622 20.8669 6.07617 21.233 6.44231C24.2974 9.50677 24.2974 14.493 21.233 17.5575C21.146 17.6446 21.0427 17.7138 20.9289 17.7609C20.8152 17.808 20.6932 17.8322 20.5701 17.832Z" stroke="#222733" stroke-miterlimit="10" stroke-linecap="round" stroke-linejoin="round"/>
</g>
<defs>
<clipPath id="clip0_1684_20799">
<rect width="24" height="24" fill="white"/>
</clipPath>
</defs>
</svg>
