<svg width="24" height="24" viewBox="0 0 24 24" fill="none" xmlns="http://www.w3.org/2000/svg">
<path d="M21.2613 5.5354H15.6511V3.91165C15.6511 3.57959 15.4935 3.26114 15.2294 3.05971C15.1641 3.00994 14.8068 2.74889 14.1811 2.49742C13.9164 2.39109 13.6362 2.30003 13.348 2.22686C13.3048 2.21525 13.2597 2.21234 13.2154 2.2183C13.1711 2.22426 13.1284 2.23897 13.0898 2.26157C13.0512 2.28417 13.0175 2.31421 12.9906 2.34996C12.9637 2.3857 12.9442 2.42642 12.9332 2.46977C12.9222 2.51311 12.9199 2.55822 12.9265 2.60245C12.933 2.64669 12.9483 2.68918 12.9714 2.72746C12.9946 2.76574 13.0251 2.79904 13.0612 2.82543C13.0973 2.85182 13.1383 2.87077 13.1818 2.88119C13.441 2.94704 13.6925 3.02871 13.9293 3.12386C14.4954 3.35134 14.8071 3.58669 14.8201 3.59657C14.8684 3.63366 14.9076 3.68134 14.9347 3.73596C14.9617 3.79058 14.9759 3.85067 14.976 3.91161V5.5354H14.1838V4.32718C14.1838 4.26496 14.1666 4.20394 14.1341 4.15088C14.1016 4.09781 14.055 4.05476 13.9996 4.02647C13.5904 3.81772 12.7217 3.46747 11.4999 3.46747C10.2782 3.46747 9.40944 3.81768 9.00025 4.02647C8.94482 4.05476 8.89829 4.09781 8.8658 4.15087C8.8333 4.20394 8.81611 4.26496 8.81612 4.32718V5.53545H8.02378V3.91165C8.02395 3.85071 8.0381 3.79061 8.06515 3.73599C8.0922 3.68137 8.13142 3.63369 8.1798 3.59662C8.19278 3.58669 8.50431 3.35143 9.07051 3.12386C9.80103 2.83029 10.6411 2.67513 11.4999 2.67513C11.6434 2.67513 11.7887 2.67953 11.932 2.68829C12.0205 2.69217 12.1069 2.66114 12.1727 2.60189C12.2385 2.54264 12.2784 2.4599 12.2838 2.37152C12.2892 2.28313 12.2596 2.19617 12.2015 2.12936C12.1434 2.06256 12.0613 2.02127 11.9731 2.01438C11.8162 2.00485 11.657 2 11.4999 2C10.5557 2 9.62853 2.17201 8.81872 2.49742C8.19282 2.74898 7.8356 3.00998 7.77033 3.05975C7.50628 3.26109 7.34865 3.57955 7.34865 3.91161V5.5354H1.73875C0.77998 5.5354 0 6.31538 0 7.27411V11.9988C0 12.4961 0.209651 12.9628 0.577607 13.2927V20.463C0.577607 21.4217 1.35759 22.2017 2.31631 22.2017H15.6542C15.6985 22.2017 15.7424 22.193 15.7834 22.176C15.8243 22.1591 15.8615 22.1342 15.8929 22.1028C15.9242 22.0715 15.9491 22.0343 15.9661 21.9933C15.983 21.9524 15.9918 21.9085 15.9918 21.8641C15.9918 21.8198 15.983 21.7759 15.9661 21.7349C15.9491 21.694 15.9242 21.6568 15.8929 21.6254C15.8615 21.5941 15.8243 21.5692 15.7834 21.5522C15.7424 21.5353 15.6985 21.5265 15.6542 21.5265H2.31636C1.7299 21.5265 1.25278 21.0494 1.25278 20.463V13.7946C1.74203 14.1185 2.408 14.4896 3.2807 14.8401C3.36359 14.8726 3.45597 14.871 3.53771 14.8358C3.61945 14.8005 3.68394 14.7343 3.71713 14.6517C3.75032 14.5691 3.74953 14.4767 3.71493 14.3946C3.68033 14.3126 3.61473 14.2475 3.53239 14.2137C2.29601 13.717 1.50956 13.1838 1.06753 12.8239C0.944727 12.7243 0.845757 12.5986 0.777869 12.4558C0.70998 12.313 0.674893 12.1569 0.675177 11.9988V7.27411C0.675177 6.68765 1.15229 6.21054 1.73875 6.21054H21.2613C21.8478 6.21054 22.3249 6.68765 22.3249 7.27411V11.9988C22.3252 12.1569 22.2901 12.313 22.2222 12.4558C22.1543 12.5985 22.0554 12.7243 21.9326 12.8239C21.4278 13.2348 20.52 13.8364 19.0621 14.369C17.386 14.9812 15.3982 15.3514 13.1499 15.4715V14.7007C13.1499 14.257 12.789 13.896 12.3453 13.896H10.6545C10.2108 13.896 9.84981 14.257 9.84981 14.7007V15.472C8.03218 15.3747 6.37618 15.1122 4.92291 14.6905C4.83692 14.6656 4.74455 14.6758 4.66611 14.7189C4.58767 14.7621 4.52959 14.8347 4.50464 14.9206C4.47969 15.0066 4.48992 15.099 4.53308 15.1774C4.57624 15.2559 4.64879 15.314 4.73478 15.3389C6.24707 15.7777 7.9666 16.0493 9.84981 16.1478V16.3066C9.84981 17.2164 10.59 17.9566 11.4999 17.9566C12.4097 17.9566 13.1499 17.2164 13.1499 16.3066V16.1479C17.7148 15.9102 20.3569 14.7205 21.7473 13.796V20.463C21.7473 21.0495 21.2701 21.5266 20.6837 21.5266H17.0045C16.9602 21.5266 16.9163 21.5353 16.8753 21.5523C16.8343 21.5693 16.7971 21.5941 16.7658 21.6255C16.7344 21.6568 16.7096 21.694 16.6926 21.735C16.6756 21.7759 16.6669 21.8198 16.6669 21.8642C16.6669 21.9085 16.6756 21.9524 16.6926 21.9934C16.7096 22.0343 16.7344 22.0715 16.7658 22.1029C16.7971 22.1342 16.8343 22.1591 16.8753 22.1761C16.9163 22.193 16.9602 22.2018 17.0045 22.2018H20.6837C21.6424 22.2018 22.4224 21.4218 22.4224 20.4631V13.2927C22.7904 12.9628 23 12.4961 23 11.9988V7.27411C23 6.31538 22.2201 5.5354 21.2613 5.5354ZM9.49125 4.54056C9.89379 4.36316 10.5795 4.1426 11.4999 4.1426C12.4202 4.1426 13.106 4.36316 13.5085 4.54056V5.5354H9.4912V4.54056H9.49125ZM12.4748 16.3066C12.4748 16.8442 12.0375 17.2815 11.4999 17.2815C10.9623 17.2815 10.5249 16.8442 10.5249 16.3066V14.7007C10.525 14.6663 10.5387 14.6334 10.5629 14.6091C10.5872 14.5848 10.6201 14.5712 10.6545 14.5711H12.3453C12.3796 14.5712 12.4126 14.5849 12.4368 14.6091C12.4611 14.6334 12.4747 14.6663 12.4748 14.7007V16.3066Z" fill="#222733"/>
</svg>
