<svg width="24" height="24" viewBox="0 0 24 24" fill="none" xmlns="http://www.w3.org/2000/svg">
<path d="M20.9464 0H5.41321C4.86877 0.000652156 4.34682 0.217219 3.96184 0.602197C3.57686 0.987176 3.3603 1.50913 3.35964 2.05357V3.36046H2.05357C1.50913 3.36112 0.987176 3.57768 0.602197 3.96266C0.217219 4.34764 0.000652156 4.86959 0 5.41404V20.9464C0.000652156 21.4909 0.217219 22.0128 0.602197 22.3978C0.987176 22.7828 1.50913 22.9993 2.05357 23H17.586C18.1304 22.9993 18.6524 22.7828 19.0373 22.3978C19.4223 22.0128 19.6389 21.4909 19.6395 20.9464V19.6404H20.9464C21.4909 19.6397 22.0128 19.4231 22.3978 19.0382C22.7828 18.6532 22.9993 18.1312 23 17.5868V16.4286C23 16.3196 22.9567 16.2152 22.8797 16.1382C22.8027 16.0611 22.6982 16.0179 22.5893 16.0179C22.4804 16.0179 22.3759 16.0611 22.2989 16.1382C22.2218 16.2152 22.1786 16.3196 22.1786 16.4286V17.5868C22.1782 17.9135 22.0483 18.2267 21.8173 18.4577C21.5863 18.6887 21.2731 18.8186 20.9464 18.8189H19.6395V5.41404C19.6389 4.86959 19.4223 4.34764 19.0373 3.96266C18.6524 3.57768 18.1304 3.36112 17.586 3.36046H7.80357C7.69464 3.36046 7.59018 3.40374 7.51315 3.48076C7.43613 3.55778 7.39286 3.66225 7.39286 3.77118C7.39286 3.88011 7.43613 3.98457 7.51315 4.0616C7.59018 4.13862 7.69464 4.18189 7.80357 4.18189H17.586C17.9126 4.18222 18.2259 4.31214 18.4569 4.54314C18.6879 4.77414 18.8178 5.08735 18.8181 5.41404V14.3619L16.5658 11.546C16.4004 11.3422 16.1917 11.1779 15.9548 11.065C15.7179 10.9521 15.4588 10.8936 15.1964 10.8936C14.934 10.8936 14.6749 10.9521 14.438 11.065C14.2011 11.1779 13.9924 11.3422 13.8271 11.546L9.68546 16.7235L7.15752 13.5634C6.9931 13.3579 6.78457 13.192 6.54736 13.078C6.31016 12.964 6.05035 12.9049 5.78717 12.9049C5.52399 12.9049 5.26418 12.964 5.02698 13.078C4.78977 13.192 4.58124 13.3579 4.41682 13.5634L0.821429 18.0583V5.41404C0.821755 5.08735 0.951674 4.77414 1.18268 4.54314C1.41368 4.31214 1.72689 4.18222 2.05357 4.18189H5.75C5.85893 4.18189 5.9634 4.13862 6.04042 4.0616C6.11744 3.98457 6.16071 3.88011 6.16071 3.77118C6.16071 3.66225 6.11744 3.55778 6.04042 3.48076C5.9634 3.40374 5.85893 3.36046 5.75 3.36046H4.18107V2.05357C4.1814 1.72689 4.31132 1.41368 4.54232 1.18268C4.77332 0.951674 5.08653 0.821755 5.41321 0.821429H20.9464C21.2731 0.821755 21.5863 0.951674 21.8173 1.18268C22.0483 1.41368 22.1782 1.72689 22.1786 2.05357V14.375C22.1786 14.4839 22.2218 14.5884 22.2989 14.6654C22.3759 14.7424 22.4804 14.7857 22.5893 14.7857C22.6982 14.7857 22.8027 14.7424 22.8797 14.6654C22.9567 14.5884 23 14.4839 23 14.375V2.05357C22.9993 1.50913 22.7828 0.987176 22.3978 0.602197C22.0128 0.217219 21.4909 0.000652156 20.9464 0ZM5.05836 14.0768C5.14643 13.9684 5.25757 13.881 5.38368 13.821C5.50979 13.761 5.64771 13.7298 5.78737 13.7298C5.92704 13.7298 6.06496 13.761 6.19107 13.821C6.31718 13.881 6.42832 13.9684 6.51639 14.0768L10.8429 19.4851C10.9115 19.5684 11.0102 19.6213 11.1175 19.6325C11.2249 19.6436 11.3323 19.612 11.4166 19.5445C11.5008 19.4771 11.5551 19.3791 11.5677 19.2719C11.5804 19.1648 11.5503 19.0569 11.484 18.9717L10.2108 17.3806L14.4686 12.0586C14.5589 11.954 14.6706 11.87 14.7962 11.8125C14.9218 11.755 15.0583 11.7252 15.1964 11.7252C15.3346 11.7252 15.4711 11.755 15.5967 11.8125C15.7223 11.87 15.834 11.954 15.9242 12.0586L18.8181 15.6761V20.9464C18.8178 21.2731 18.6879 21.5863 18.4569 21.8173C18.2259 22.0483 17.9126 22.1782 17.586 22.1786H2.05357C1.72689 22.1782 1.41368 22.0483 1.18268 21.8173C0.951674 21.5863 0.821755 21.2731 0.821429 20.9464V19.373L5.05836 14.0768Z" fill="#222733"/>
<path d="M3.02368 8.47557C3.11157 11.2389 7.1185 11.238 7.20557 8.47557C7.11768 5.71269 3.11116 5.7131 3.02368 8.47557ZM6.38415 8.47557C6.38415 8.81226 6.25039 9.13517 6.01231 9.37325C5.77423 9.61133 5.45133 9.74508 5.11463 9.74508C4.77793 9.74508 4.45502 9.61133 4.21694 9.37325C3.97886 9.13517 3.84511 8.81226 3.84511 8.47557C3.84511 8.13887 3.97886 7.81596 4.21694 7.57788C4.45502 7.3398 4.77793 7.20605 5.11463 7.20605C5.45133 7.20605 5.77423 7.3398 6.01231 7.57788C6.25039 7.81596 6.38415 8.13887 6.38415 8.47557Z" fill="#222733"/>
</svg>
