<svg width="24" height="24" viewBox="0 0 24 24" fill="none" xmlns="http://www.w3.org/2000/svg">
<g clip-path="url(#clip0_1684_20633)">
<path d="M12.5007 18.9407C8.94833 18.9407 6.04187 16.0342 6.04187 12.4819C6.04187 8.92953 8.94833 6.02307 12.5007 6.02307C16.053 6.02307 18.9595 8.92953 18.9595 12.4819C18.9595 16.0342 16.053 18.9407 12.5007 18.9407ZM12.5007 6.74071C9.34303 6.74071 6.75951 9.32423 6.75951 12.4819C6.75951 15.6395 9.34303 18.223 12.5007 18.223C15.6583 18.223 18.2418 15.6395 18.2418 12.4819C18.2418 9.32423 15.6583 6.74071 12.5007 6.74071Z" fill="#222733"/>
<path d="M12.5007 18.9407C10.5631 18.9407 9.05603 16.106 9.05603 12.4819C9.05603 8.85776 10.5631 6.02307 12.5007 6.02307C14.4384 6.02307 15.9454 8.85776 15.9454 12.4819C15.9454 16.106 14.4384 18.9407 12.5007 18.9407ZM12.5007 6.74071C11.0296 6.74071 9.77367 9.36011 9.77367 12.4819C9.77367 15.6036 11.0296 18.223 12.5007 18.223C13.9719 18.223 15.2278 15.6036 15.2278 12.4819C15.2278 9.36011 13.9719 6.74071 12.5007 6.74071Z" fill="#222733"/>
<path d="M12.5007 15.9265C8.87656 15.9265 6.04187 14.4194 6.04187 12.4818C6.04187 10.5442 8.87656 9.03711 12.5007 9.03711C16.1248 9.03711 18.9595 10.5442 18.9595 12.4818C18.9595 14.4194 16.1248 15.9265 12.5007 15.9265ZM12.5007 9.75475C9.37891 9.75475 6.75951 11.0106 6.75951 12.4818C6.75951 13.953 9.37891 15.2088 12.5007 15.2088C15.6224 15.2088 18.2418 13.953 18.2418 12.4818C18.2418 11.0106 15.6224 9.75475 12.5007 9.75475Z" fill="#222733"/>
<path d="M12.5004 18.9407C12.2851 18.9407 12.1416 18.7971 12.1416 18.5818V6.38189C12.1416 6.1666 12.2851 6.02307 12.5004 6.02307C12.7157 6.02307 12.8592 6.1666 12.8592 6.38189V18.5818C12.8592 18.7971 12.7157 18.9407 12.5004 18.9407Z" fill="#222733"/>
<path d="M18.6009 12.8406H6.40095C6.18566 12.8406 6.04213 12.6971 6.04213 12.4818C6.04213 12.2665 6.18566 12.123 6.40095 12.123H18.6009C18.8162 12.123 18.9597 12.2665 18.9597 12.4818C18.9597 12.6971 18.8162 12.8406 18.6009 12.8406ZM4.78625 8.46302C4.35566 8.46302 3.8892 8.39126 3.45861 8.21184C2.52567 7.85302 1.77215 7.17126 1.37744 6.27421C0.946858 5.37715 0.910976 4.33657 1.2698 3.40363C1.62862 2.4707 2.31038 1.75305 3.20743 1.35835C4.10449 0.927763 5.10919 0.891881 6.04213 1.21482C6.97506 1.57364 7.72859 2.2554 8.12329 3.15246C8.55388 4.04951 8.58976 5.05421 8.23094 6.02303C7.87212 6.95597 7.19036 7.70949 6.2933 8.14008C5.82683 8.35537 5.2886 8.46302 4.78625 8.46302ZM4.78625 1.71717C4.35566 1.71717 3.92508 1.82482 3.53037 2.00423C2.77685 2.32717 2.20273 2.90128 1.91568 3.65481C1.62862 4.40833 1.6645 5.23362 2.02332 5.98715C2.34626 6.70479 2.95626 7.27891 3.70979 7.56596C4.46331 7.85302 5.2886 7.81714 6.00624 7.4942C6.72389 7.17126 7.298 6.56126 7.58506 5.80774C7.87212 5.05421 7.83623 4.22892 7.47741 3.51128C7.11859 2.75775 6.54448 2.21952 5.79095 1.93246C5.46801 1.78893 5.10919 1.71717 4.78625 1.71717Z" fill="#222733"/>
<path d="M4.78655 6.346C3.81773 6.346 3.06421 5.23365 3.06421 4.30071C3.06421 3.36778 3.85362 2.57837 4.78655 2.57837C5.71949 2.57837 6.5089 3.36778 6.5089 4.30071C6.5089 5.23365 5.75537 6.346 4.78655 6.346ZM4.78655 3.29601C4.24832 3.29601 3.78185 3.76248 3.78185 4.30071C3.78185 4.87483 4.2842 5.62835 4.78655 5.62835C5.2889 5.62835 5.79125 4.87483 5.79125 4.30071C5.79125 3.76248 5.32479 3.29601 4.78655 3.29601Z" fill="#222733"/>
<path d="M6.72375 7.7813C6.65199 7.7813 6.61611 7.7813 6.54434 7.74542L5.93435 7.42248L5.61141 7.24307C5.25259 7.06366 5.03729 6.66896 5.03729 6.31013V5.80778C5.03729 5.59249 5.18082 5.44896 5.39611 5.44896C5.61141 5.44896 5.75494 5.59249 5.75494 5.80778V6.31013C5.75494 6.45366 5.8267 6.56131 5.97023 6.63307L6.25729 6.81248L6.8314 7.13542C7.01081 7.24307 7.08258 7.45836 6.97493 7.63777C6.97493 7.70954 6.86728 7.7813 6.72375 7.7813ZM2.77672 7.74542C2.63319 7.74542 2.52554 7.67366 2.45378 7.56601C2.34613 7.3866 2.41789 7.17131 2.5973 7.06366L3.53024 6.56131C3.70965 6.45366 3.74553 6.31013 3.74553 6.23837V5.73602C3.74553 5.52073 3.88906 5.3772 4.10436 5.3772C4.31965 5.3772 4.46318 5.52073 4.46318 5.73602V6.23837C4.46318 6.63307 4.24788 6.99189 3.88906 7.20719L2.95613 7.70954C2.88436 7.74542 2.84848 7.74542 2.77672 7.74542Z" fill="#222733"/>
<path d="M4.78625 8.46302C4.35566 8.46302 3.8892 8.39126 3.45861 8.21184C2.52567 7.85302 1.77215 7.17126 1.37744 6.27421C0.946858 5.37715 0.910976 4.33657 1.2698 3.40363C1.62862 2.4707 2.31038 1.75305 3.20744 1.35835C4.10449 0.927763 5.10919 0.891881 6.04213 1.21482C6.97506 1.57364 7.72859 2.2554 8.12329 3.15246C8.55388 4.04951 8.58976 5.05421 8.23094 6.02303C7.87212 6.95597 7.19036 7.70949 6.2933 8.14008C5.82683 8.35537 5.2886 8.46302 4.78625 8.46302ZM4.78625 1.71717C4.35566 1.71717 3.92508 1.82482 3.53037 2.00423C2.77685 2.32717 2.20273 2.90128 1.91568 3.65481C1.62862 4.40833 1.6645 5.23362 2.02332 5.98715C2.34626 6.70479 2.95626 7.27891 3.70979 7.56596C4.46331 7.85302 5.2886 7.81714 6.00624 7.4942C6.72389 7.17126 7.298 6.56126 7.58506 5.80774C7.87212 5.05421 7.83624 4.22892 7.47741 3.51128C7.11859 2.75775 6.54448 2.21952 5.79095 1.93246C5.46801 1.78893 5.10919 1.71717 4.78625 1.71717Z" fill="#222733"/>
<path d="M4.78655 6.346C3.81773 6.346 3.06421 5.23365 3.06421 4.30071C3.06421 3.36778 3.85362 2.57837 4.78655 2.57837C5.71949 2.57837 6.5089 3.36778 6.5089 4.30071C6.5089 5.23365 5.75537 6.346 4.78655 6.346ZM4.78655 3.29601C4.24832 3.29601 3.78185 3.76248 3.78185 4.30071C3.78185 4.87483 4.2842 5.62835 4.78655 5.62835C5.2889 5.62835 5.79125 4.87483 5.79125 4.30071C5.79125 3.76248 5.32479 3.29601 4.78655 3.29601Z" fill="#222733"/>
<path d="M6.72375 7.78131C6.65199 7.78131 6.61611 7.78131 6.54434 7.74543L5.93435 7.42249L5.61141 7.24308C5.25259 7.06367 5.03729 6.66896 5.03729 6.31014V5.80779C5.03729 5.5925 5.18082 5.44897 5.39611 5.44897C5.61141 5.44897 5.75494 5.5925 5.75494 5.80779V6.31014C5.75494 6.45367 5.8267 6.56132 5.97023 6.63308L6.25729 6.81249L6.8314 7.13543C7.01081 7.24308 7.08258 7.45837 6.97493 7.63778C6.97493 7.70955 6.86728 7.78131 6.72375 7.78131ZM2.77672 7.74543C2.63319 7.74543 2.52554 7.67366 2.45378 7.56602C2.34613 7.38661 2.41789 7.17131 2.5973 7.06367L3.53024 6.56132C3.70965 6.45367 3.74553 6.31014 3.74553 6.23838V5.73603C3.74553 5.52073 3.88906 5.37721 4.10436 5.37721C4.31965 5.37721 4.46318 5.52073 4.46318 5.73603V6.23838C4.46318 6.63308 4.24788 6.9919 3.88906 7.2072L2.95613 7.70955C2.88436 7.74543 2.84848 7.74543 2.77672 7.74543ZM20.2513 8.49895C19.8207 8.49895 19.3902 8.42719 18.9596 8.24778C18.0266 7.88896 17.2731 7.2072 16.8425 6.31014C16.0172 4.40839 16.8425 2.18369 18.7084 1.3584C19.6413 0.927815 20.6819 0.927815 21.6149 1.28664C22.5119 1.64546 23.2296 2.32722 23.6243 3.18839C24.0548 4.08545 24.0907 5.09015 23.7319 6.02308C23.3731 6.95602 22.6913 7.70955 21.7943 8.14013C21.2919 8.39131 20.7896 8.49895 20.2513 8.49895ZM20.2872 1.75311C19.8566 1.75311 19.426 1.86075 18.9955 2.04016C17.4884 2.68604 16.8066 4.48015 17.4884 6.02308C18.2061 7.53014 20.0002 8.2119 21.5072 7.49425C23.0143 6.77661 23.696 4.9825 22.9784 3.47545C22.6554 2.75781 22.0813 2.21957 21.3637 1.93252C21.0049 1.78899 20.646 1.75311 20.2872 1.75311Z" fill="#222733"/>
<path d="M20.2875 6.346C19.3187 6.346 18.5652 5.23365 18.5652 4.30071C18.5652 3.36778 19.3546 2.57837 20.2875 2.57837C21.2205 2.57837 22.0099 3.36778 22.0099 4.30071C22.0099 5.23365 21.2563 6.346 20.2875 6.346ZM20.2875 3.29601C19.7493 3.29601 19.2828 3.76248 19.2828 4.30071C19.2828 4.87483 19.7852 5.62835 20.2875 5.62835C20.7899 5.62835 21.2922 4.87483 21.2922 4.30071C21.2922 3.76248 20.8258 3.29601 20.2875 3.29601Z" fill="#222733"/>
<path d="M22.225 7.7813C22.1532 7.7813 22.1173 7.7813 22.0456 7.74542L21.4356 7.42248L21.1126 7.24307C20.7538 7.06366 20.5385 6.66896 20.5385 6.31013V5.80778C20.5385 5.59249 20.6821 5.44896 20.8973 5.44896C21.1126 5.44896 21.2562 5.59249 21.2562 5.80778V6.31013C21.2562 6.45366 21.3279 6.56131 21.4715 6.63307L21.7585 6.81248L22.3326 7.13542C22.512 7.24307 22.5838 7.45836 22.4762 7.63777C22.4762 7.70954 22.3685 7.7813 22.225 7.7813ZM18.2779 7.74542C18.1344 7.74542 18.0268 7.67366 17.955 7.56601C17.8474 7.3866 17.9191 7.17131 18.0985 7.06366L19.0315 6.56131C19.2109 6.45366 19.2468 6.31013 19.2468 6.23837V5.73602C19.2468 5.52073 19.3903 5.3772 19.6056 5.3772C19.8209 5.3772 19.9644 5.52073 19.9644 5.73602V6.23837C19.9644 6.63307 19.7491 6.9919 19.3903 7.20719L18.4574 7.70954C18.3856 7.74542 18.3497 7.74542 18.2779 7.74542ZM4.75037 23.9642C4.2839 23.9642 3.85331 23.8924 3.38684 23.713C2.45391 23.3542 1.73626 22.6724 1.34156 21.7754C0.480386 19.9095 1.30568 17.6848 3.17155 16.8236C5.03742 15.9983 7.22624 16.8236 8.08741 18.6895C8.51799 19.5865 8.55388 20.5912 8.19505 21.5601C7.83623 22.493 7.15447 23.2465 6.25742 23.6771C5.79095 23.8565 5.2886 23.9642 4.75037 23.9642ZM4.71448 17.2183C4.31978 17.2183 3.88919 17.2901 3.49449 17.4695C1.98744 18.1871 1.30568 19.9812 2.02332 21.4883C2.34626 22.2059 2.92037 22.7801 3.6739 23.0671C4.42743 23.3542 5.25272 23.3542 6.00624 22.9953C6.72388 22.6724 7.298 22.0624 7.58506 21.3089C7.87211 20.5554 7.83623 19.7301 7.47741 19.0124C6.93918 17.8642 5.86271 17.2183 4.71448 17.2183Z" fill="#222733"/>
<path d="M4.78655 21.883C3.81773 21.883 3.06421 20.7706 3.06421 19.8377C3.06421 18.9048 3.85362 18.1154 4.78655 18.1154C5.21714 18.0795 5.64773 18.2589 5.97067 18.5818C6.32949 18.9048 6.5089 19.3712 6.5089 19.8377C6.5089 20.7706 5.75537 21.883 4.78655 21.883ZM4.85832 18.833H4.82244C4.24832 18.833 3.81773 19.2995 3.81773 19.8377C3.81773 20.4118 4.32009 21.1654 4.82244 21.1654C5.32479 21.1654 5.82714 20.4118 5.82714 19.8377C5.82714 19.5507 5.71949 19.2995 5.5042 19.0842C5.2889 18.9048 5.07361 18.833 4.85832 18.833Z" fill="#222733"/>
<path d="M6.72375 23.3183C6.65199 23.3183 6.61611 23.3183 6.54434 23.2824L5.93435 22.9595L5.61141 22.7801C5.25259 22.6006 5.03729 22.2059 5.03729 21.8471V21.3089C5.03729 21.0936 5.18082 20.9501 5.39611 20.9501C5.61141 20.9501 5.75494 21.0936 5.75494 21.3089V21.8112C5.75494 21.9548 5.8267 22.0624 5.97023 22.1342L6.25729 22.3136L6.8314 22.6365C7.01081 22.7442 7.08258 22.9595 6.97493 23.1389C6.97493 23.2465 6.86728 23.3183 6.72375 23.3183ZM2.77672 23.2465C2.63319 23.2465 2.52554 23.1748 2.45378 23.0671C2.34613 22.8877 2.41789 22.6724 2.5973 22.5648L3.53024 22.0624C3.70965 21.9548 3.74553 21.8112 3.74553 21.7395V21.2371C3.74553 21.0218 3.88906 20.8783 4.10436 20.8783C4.31965 20.8783 4.46318 21.0218 4.46318 21.2371V21.7395C4.46318 22.1342 4.24788 22.493 3.88906 22.7083L2.95613 23.2106C2.88436 23.2465 2.84848 23.2465 2.77672 23.2465Z" fill="#222733"/>
<path d="M4.75036 23.9641C4.2839 23.9641 3.85331 23.8923 3.38684 23.7129C2.45391 23.3541 1.73626 22.6723 1.34156 21.7753C0.480386 19.9094 1.30568 17.6847 3.17155 16.8235C5.03742 15.9982 7.22623 16.8235 8.08741 18.6894C8.51799 19.5865 8.55388 20.5912 8.19505 21.56C7.83623 22.4929 7.15447 23.2464 6.25742 23.677C5.79095 23.8564 5.2886 23.9641 4.75036 23.9641ZM4.71448 17.2182C4.31978 17.2182 3.88919 17.29 3.49449 17.4694C1.98744 18.1871 1.30568 19.9812 2.02332 21.4882C2.34626 22.2059 2.92037 22.78 3.6739 23.067C4.42742 23.3541 5.25272 23.3541 6.00624 22.9953C6.72388 22.6723 7.298 22.0623 7.58506 21.3088C7.87211 20.5553 7.83623 19.73 7.47741 19.0123C6.93918 17.8641 5.86271 17.2182 4.71448 17.2182Z" fill="#222733"/>
<path d="M4.78655 21.883C3.81773 21.883 3.06421 20.7706 3.06421 19.8377C3.06421 18.9048 3.85362 18.1154 4.78655 18.1154C5.21714 18.0795 5.64773 18.2589 5.97067 18.5818C6.32949 18.9048 6.5089 19.3712 6.5089 19.8377C6.5089 20.7706 5.75537 21.883 4.78655 21.883ZM4.85832 18.833H4.82244C4.24832 18.833 3.81773 19.2995 3.81773 19.8377C3.81773 20.4118 4.32009 21.1654 4.82244 21.1654C5.32479 21.1654 5.82714 20.4118 5.82714 19.8377C5.82714 19.5507 5.71949 19.2995 5.5042 19.0842C5.2889 18.9048 5.07361 18.833 4.85832 18.833Z" fill="#222733"/>
<path d="M6.72375 23.3183C6.65199 23.3183 6.61611 23.3183 6.54434 23.2824L5.93435 22.9595L5.61141 22.7801C5.25259 22.6006 5.03729 22.2059 5.03729 21.8471V21.3089C5.03729 21.0936 5.18082 20.9501 5.39611 20.9501C5.61141 20.9501 5.75494 21.0936 5.75494 21.3089V21.8112C5.75494 21.9548 5.8267 22.0624 5.97023 22.1342L6.25729 22.3136L6.8314 22.6365C7.01081 22.7442 7.08258 22.9595 6.97493 23.1389C6.97493 23.2465 6.86728 23.3183 6.72375 23.3183ZM2.77672 23.2465C2.63319 23.2465 2.52554 23.1748 2.45378 23.0671C2.34613 22.8877 2.41789 22.6724 2.5973 22.5648L3.53024 22.0624C3.70965 21.9548 3.74553 21.8112 3.74553 21.7395V21.2371C3.74553 21.0218 3.88906 20.8783 4.10436 20.8783C4.31965 20.8783 4.46318 21.0218 4.46318 21.2371V21.7395C4.46318 22.1342 4.24788 22.493 3.88906 22.7083L2.95613 23.2106C2.88436 23.2465 2.84848 23.2465 2.77672 23.2465ZM20.2513 24.0001C19.8207 24.0001 19.3902 23.9283 18.9596 23.7489C18.0266 23.3901 17.2731 22.7083 16.8425 21.8112C15.9814 19.9454 16.8066 17.7207 18.6725 16.8595C19.6055 16.4289 20.646 16.393 21.579 16.7519C22.5119 17.1107 23.2296 17.7924 23.6243 18.6895C24.4854 20.5554 23.6601 22.7801 21.7943 23.6412C21.2919 23.8924 20.7896 24.0001 20.2513 24.0001ZM20.2513 17.2183C19.8207 17.2183 19.3902 17.326 18.9596 17.5054C17.4525 18.223 16.7708 20.0171 17.4884 21.5242C17.8472 22.2418 18.4213 22.8159 19.2108 23.103C19.9643 23.3901 20.7896 23.3542 21.5072 22.9954C23.0143 22.2777 23.696 20.4836 22.9784 18.9765C22.6554 18.2589 22.0813 17.6848 21.3278 17.4336C20.969 17.2901 20.6102 17.2183 20.2513 17.2183Z" fill="#222733"/>
<path d="M20.2875 21.883C19.3187 21.883 18.5652 20.7706 18.5652 19.8377C18.5652 18.9048 19.3546 18.1154 20.2875 18.1154C20.7181 18.0795 21.1487 18.2589 21.4716 18.5818C21.8305 18.9048 22.0099 19.3712 22.0099 19.8377C22.0099 20.7706 21.2563 21.883 20.2875 21.883ZM20.3593 18.833H20.3234C19.7493 18.833 19.3187 19.2995 19.3187 19.8377C19.3187 20.4118 19.8211 21.1654 20.3234 21.1654C20.8258 21.1654 21.3281 20.4118 21.3281 19.8377C21.3281 19.5507 21.2205 19.2995 21.0052 19.0842C20.7899 18.9048 20.5746 18.833 20.3593 18.833Z" fill="#222733"/>
<path d="M22.2251 23.3183C22.1533 23.3183 22.1174 23.3183 22.0457 23.2824L21.4357 22.9595L21.1127 22.7801C20.7539 22.6006 20.5386 22.2059 20.5386 21.8471V21.3089C20.5386 21.0936 20.6821 20.9501 20.8974 20.9501C21.1127 20.9501 21.2563 21.0936 21.2563 21.3089V21.8112C21.2563 21.9548 21.328 22.0624 21.4715 22.1342L21.7586 22.3136L22.3327 22.6365C22.5121 22.7442 22.5839 22.9595 22.4763 23.1389C22.4763 23.2465 22.3686 23.3183 22.2251 23.3183ZM18.278 23.2465C18.1345 23.2465 18.0269 23.1748 17.9551 23.0671C17.8475 22.8877 17.9192 22.6724 18.0986 22.5648L19.0316 22.0624C19.211 21.9548 19.2469 21.8112 19.2469 21.7395V21.2371C19.2469 21.0218 19.3904 20.8783 19.6057 20.8783C19.821 20.8783 19.9645 21.0218 19.9645 21.2371V21.7395C19.9645 22.1342 19.7492 22.493 19.3904 22.7083L18.4574 23.2106C18.3857 23.2465 18.3498 23.2465 18.278 23.2465ZM12.501 22.4571C10.8504 22.4571 9.30749 22.0624 7.87221 21.3089C7.6928 21.2012 7.62103 20.9859 7.72868 20.8065C7.83632 20.6271 8.05162 20.5554 8.23103 20.663C9.55867 21.3806 10.994 21.7395 12.501 21.7395C13.0751 21.7395 13.6851 21.6677 14.331 21.5601C14.5104 21.5242 14.7257 21.6677 14.7616 21.8471C14.7975 22.0265 14.6539 22.2418 14.4745 22.2777C13.7569 22.3853 13.111 22.4571 12.501 22.4571ZM16.2328 21.7036C16.0892 21.7036 15.9457 21.5959 15.9098 21.4524C15.838 21.273 15.9457 21.0577 16.1251 20.9859C16.3045 20.9142 16.5198 20.8065 16.7351 20.7348L17.058 21.3806C16.8428 21.4883 16.5916 21.5959 16.3763 21.6677C16.3045 21.7036 16.2686 21.7036 16.2328 21.7036Z" fill="#222733"/>
<path d="M14.4384 22.2776C14.2949 22.2776 14.1514 22.17 14.1155 22.0265C14.0437 21.847 14.1514 21.6318 14.3308 21.56C14.4384 21.5241 14.582 21.4882 14.6896 21.4523C14.7973 21.4165 14.9049 21.4165 15.0126 21.3806C15.192 21.3088 15.4073 21.4165 15.479 21.5959C15.5508 21.7753 15.4431 21.9906 15.2637 22.0623C15.1561 22.0982 15.0126 22.1341 14.9049 22.17C14.7973 22.2059 14.6896 22.2059 14.582 22.2417C14.5102 22.2776 14.4743 22.2776 14.4384 22.2776ZM21.0049 17.29C20.9331 17.29 20.8972 17.29 20.8255 17.2541C20.6461 17.1465 20.5743 16.9312 20.6819 16.7518C21.3637 15.4959 21.7225 14.0606 21.7584 12.5894C21.7943 12.0512 21.7584 11.4771 21.6149 10.7595C21.579 10.58 21.7225 10.3647 21.9019 10.3289C22.0813 10.293 22.2966 10.4365 22.3325 10.6159C22.476 11.3694 22.5119 12.0153 22.476 12.5894C22.4402 14.1324 22.0455 15.6753 21.3278 17.0388C21.256 17.2182 21.1484 17.29 21.0049 17.29ZM21.4355 9.2524C21.2919 9.2524 21.1484 9.14475 21.1125 9.00123C21.0408 8.82181 20.9331 8.60652 20.8613 8.39123C20.7896 8.21182 20.8613 7.99652 21.0049 7.92476C21.1843 7.853 21.3996 7.92476 21.4713 8.06829C21.579 8.28358 21.6866 8.53476 21.7943 8.75005C21.866 8.92946 21.7584 9.14475 21.579 9.21652C21.5072 9.2524 21.4713 9.2524 21.4355 9.2524Z" fill="#222733"/>
<path d="M21.9742 11.1183C21.7948 11.1183 21.6513 10.9748 21.6154 10.8313C21.5795 10.5801 21.5436 10.3648 21.4718 10.1854C21.4001 10.006 21.5077 9.79067 21.6871 9.71891C21.8666 9.64714 22.0818 9.75479 22.1536 9.9342C22.2254 10.1854 22.2613 10.4366 22.2971 10.7236C22.333 10.903 22.1895 11.1183 22.0101 11.1183H21.9742ZM16.9507 4.33658C16.8789 4.33658 16.843 4.33658 16.7713 4.3007C15.4436 3.58306 14.0084 3.22424 12.5013 3.22424C11.9272 3.22424 11.3172 3.296 10.6713 3.40365C10.4919 3.43953 10.2766 3.296 10.2407 3.11659C10.2048 2.93718 10.3484 2.72188 10.5278 2.686C11.2095 2.57836 11.8913 2.50659 12.5013 2.50659C14.1519 2.50659 15.6948 2.9013 17.1301 3.65482C17.3095 3.76247 17.3813 3.97776 17.2736 4.15717C17.2019 4.26482 17.0942 4.33658 16.9507 4.33658ZM8.12368 4.26482C7.98015 4.26482 7.8725 4.19305 7.80074 4.04953C7.72897 3.87011 7.80074 3.65482 7.94427 3.58306C8.15956 3.47541 8.41073 3.36776 8.62603 3.26012C8.80544 3.18835 9.02073 3.296 9.0925 3.47541C9.16426 3.65482 9.05661 3.87011 8.8772 3.94188C8.69779 4.01364 8.4825 4.12129 8.26721 4.19305C8.23132 4.26482 8.19544 4.26482 8.12368 4.26482Z" fill="#222733"/>
<path d="M9.91724 3.58299C9.77371 3.58299 9.63018 3.47535 9.5943 3.33182C9.52254 3.15241 9.63018 2.93711 9.80959 2.90123C9.91724 2.86535 10.0608 2.82947 10.1684 2.79358C10.2761 2.7577 10.3837 2.7577 10.4914 2.72182C10.6708 2.65006 10.8861 2.7577 10.9578 2.93711C11.0296 3.11652 10.9219 3.33182 10.7425 3.40358C10.6349 3.43946 10.4914 3.47535 10.3837 3.51123C10.2761 3.54711 10.1684 3.54711 10.0608 3.58299H9.91724ZM3.06375 14.7782C2.88433 14.7782 2.74081 14.6706 2.70492 14.4912C2.56139 13.9529 2.52551 13.3071 2.52551 12.5177C2.52551 10.903 2.88433 9.36002 3.63786 7.88885C3.74551 7.70944 3.9608 7.63768 4.10433 7.74532C4.28374 7.85297 4.3555 8.06826 4.24786 8.21179C3.5661 9.53943 3.20727 11.0106 3.20727 12.4818C3.20727 13.2353 3.24316 13.8094 3.38668 14.3118C3.42257 14.4912 3.31492 14.7065 3.13551 14.7423C3.13551 14.7782 3.09963 14.7782 3.06375 14.7782ZM3.92492 17.2541C3.78139 17.2541 3.67374 17.1823 3.60198 17.0388C3.49433 16.8235 3.38669 16.5723 3.27904 16.357C3.20727 16.1776 3.31492 15.9623 3.49433 15.8906C3.67374 15.8188 3.88904 15.9265 3.9608 16.1059C4.03256 16.2853 4.14021 16.5006 4.21197 16.7159C4.28374 16.8953 4.21197 17.1106 4.06845 17.1823C4.03256 17.2541 3.99668 17.2541 3.92492 17.2541Z" fill="#222733"/>
<path d="M3.24339 15.46C3.09986 15.46 2.95633 15.3523 2.92045 15.2088C2.84869 15.0294 2.77692 14.7423 2.74104 14.4553C2.66928 14.2759 2.8128 14.0965 2.99222 14.0606C3.17163 14.0247 3.38692 14.1682 3.4228 14.3476C3.45868 14.5271 3.49457 14.7424 3.60221 14.9576C3.67398 15.1371 3.56633 15.3523 3.38692 15.4241C3.31516 15.46 3.27927 15.46 3.24339 15.46Z" fill="#222733"/>
</g>
<defs>
<clipPath id="clip0_1684_20633">
<rect width="24" height="24" fill="white"/>
</clipPath>
</defs>
</svg>
