<svg width="24" height="24" viewBox="0 0 24 24" fill="none" xmlns="http://www.w3.org/2000/svg">
<g clip-path="url(#clip0_1684_14878)">
<path d="M7.68875 5.6762C8.18558 5.55995 8.4941 5.06294 8.37784 4.56611C8.26159 4.06928 7.76458 3.76077 7.26775 3.87702C6.77092 3.99328 6.46241 4.49028 6.57866 4.98711C6.69492 5.48394 7.19192 5.79246 7.68875 5.6762Z" stroke="#222733" stroke-miterlimit="22.9256" stroke-linecap="round" stroke-linejoin="round"/>
<path d="M11.8462 5.6762C12.3431 5.55995 12.6516 5.06294 12.5353 4.56611C12.4191 4.06928 11.9221 3.76077 11.4252 3.87702C10.9284 3.99328 10.6199 4.49028 10.7361 4.98711C10.8524 5.48394 11.3494 5.79246 11.8462 5.6762Z" stroke="#222733" stroke-miterlimit="22.9256" stroke-linecap="round" stroke-linejoin="round"/>
<path d="M16.0037 5.6762C16.5005 5.55995 16.809 5.06294 16.6928 4.56611C16.5765 4.06928 16.0795 3.76077 15.5827 3.87702C15.0859 3.99328 14.7773 4.49028 14.8936 4.98711C15.0099 5.48394 15.5069 5.79246 16.0037 5.6762Z" stroke="#222733" stroke-miterlimit="22.9256" stroke-linecap="round" stroke-linejoin="round"/>
<path d="M15.7605 19.0065C14.9974 17.4998 13.4323 16.4607 11.6362 16.4607C9.84039 16.4607 8.27565 17.4993 7.51233 19.0053" stroke="#222733" stroke-miterlimit="2.6131" stroke-linecap="round" stroke-linejoin="round"/>
<path d="M9.43609 1H19.3138C20.1726 1 20.8751 1.70257 20.8751 2.56128V6.98417C20.8751 7.84288 20.1726 8.54546 19.3139 8.54546V10.0008L17.1656 8.54546H12.7589L11.5345 10.0008L10.3102 8.54546H6.10685L3.95862 10.0008V8.54546C3.09991 8.54546 2.39734 7.84288 2.39734 6.98417V2.56128C2.39739 1.70257 3.09996 1 3.95867 1H5.27863" stroke="#222733" stroke-miterlimit="22.9256" stroke-linecap="round" stroke-linejoin="round"/>
<path d="M4.84622 14.4688C5.02139 13.2182 4.14953 12.0623 2.89886 11.8871C1.6482 11.712 0.492338 12.5838 0.31717 13.8345C0.142002 15.0851 1.01386 16.241 2.26452 16.4162C3.51519 16.5913 4.67105 15.7195 4.84622 14.4688Z" stroke="#222733" stroke-miterlimit="22.9256" stroke-linecap="round" stroke-linejoin="round"/>
<path d="M4.89183 21.418V23.4968M18.3806 21.418V23.4968M2.58211 18.898V20.0322C2.58211 20.6674 3.1018 21.187 3.73697 21.187H19.5355C20.1707 21.187 20.6904 20.6674 20.6904 20.0322V18.898M6.97844 21.187C7.61001 21.1828 8.1254 20.6648 8.1254 20.0322C8.1254 19.3971 7.60562 18.8774 6.97054 18.8774H4.89179V18.7936C4.89179 17.5234 3.85241 16.4839 2.58206 16.4839C1.31172 16.4839 0.272339 17.5234 0.272339 18.7936V23.7277H23V18.7936C23 17.5233 21.9607 16.4839 20.6903 16.4839C19.42 16.4839 18.3806 17.5234 18.3806 18.7936V18.8774H16.3018C15.6661 18.8774 15.147 19.3977 15.147 20.0322C15.147 20.6621 15.658 21.1784 16.2859 21.187" stroke="#222733" stroke-miterlimit="22.9256" stroke-linecap="round" stroke-linejoin="round"/>
<path d="M20.6903 16.4376C21.9532 16.4376 22.9769 15.4139 22.9769 14.151C22.9769 12.8881 21.9532 11.8644 20.6903 11.8644C19.4274 11.8644 18.4037 12.8881 18.4037 14.151C18.4037 15.4139 19.4274 16.4376 20.6903 16.4376Z" stroke="#222733" stroke-miterlimit="22.9256" stroke-linecap="round" stroke-linejoin="round"/>
<path d="M13.7282 15.0445C14.2091 13.8768 13.6523 12.5403 12.4846 12.0594C11.3168 11.5786 9.98036 12.1354 9.49949 13.3031C9.01861 14.4708 9.57542 15.8073 10.7431 16.2882C11.9109 16.7691 13.2473 16.2122 13.7282 15.0445Z" stroke="#222733" stroke-miterlimit="22.9256" stroke-linecap="round" stroke-linejoin="round"/>
</g>
<defs>
<clipPath id="clip0_1684_14878">
<rect width="24" height="24" fill="white"/>
</clipPath>
</defs>
</svg>
