<svg width="24" height="24" viewBox="0 0 24 24" fill="none" xmlns="http://www.w3.org/2000/svg">
<path d="M22.663 19.2237C22.5737 19.2237 22.488 19.2592 22.4248 19.3223C22.3616 19.3855 22.3261 19.4712 22.3261 19.5606V21.8117C22.3261 21.843 22.3007 21.8685 22.2694 21.8685H20.9892V16.9461C20.9892 16.76 20.8384 16.6092 20.6523 16.6092C20.4662 16.6092 20.3154 16.76 20.3154 16.9461V21.8685H17.8416L18.5111 21.1319C18.6145 21.0181 18.6633 20.8566 18.6416 20.6996C18.6411 20.6963 18.6406 20.6929 18.64 20.6896L17.8873 16.2425L18.0258 16.034L18.0619 16.0596C18.1239 16.1038 18.1948 16.1339 18.2696 16.148C18.3444 16.1621 18.4214 16.1598 18.4953 16.1413C18.5691 16.1229 18.6381 16.0886 18.6975 16.041C18.7569 15.9933 18.8052 15.9334 18.8392 15.8652V15.8652L19.605 14.3302L21.3545 15.0077C21.4236 15.0377 22.326 15.4515 22.326 16.5281V17.9882C22.327 18.0769 22.3629 18.1616 22.426 18.224C22.4891 18.2863 22.5742 18.3213 22.6629 18.3213C22.7516 18.3213 22.8367 18.2864 22.8998 18.224C22.9628 18.1617 22.9988 18.077 22.9998 17.9883V16.5281C22.9998 14.9734 21.6663 14.4073 21.6096 14.384C21.6075 14.3831 21.6053 14.3822 21.6032 14.3814L18.6241 13.2276V12.614C19.0891 12.2399 19.4157 11.7007 19.5138 11.086C19.7457 11.0569 19.9609 10.9641 20.1394 10.8105C20.266 10.7017 20.3675 10.5668 20.4371 10.4151C20.5066 10.2633 20.5426 10.0984 20.5424 9.93147C20.5426 9.66397 20.4501 9.40467 20.2808 9.19758V8.28846C20.2808 6.50929 18.8333 5.06187 17.0543 5.06187C16.2555 5.06187 15.5242 5.35422 14.9601 5.83676C14.9531 5.58066 14.8614 5.3341 14.6994 5.13567V4.22659C14.6994 2.44742 13.2519 1 11.4728 1C9.69365 1 8.24623 2.44747 8.24623 4.22659V5.15939C8.08429 5.35291 7.99368 5.58624 7.98569 5.83389C7.61769 5.51908 7.18328 5.29155 6.71494 5.16833C6.53471 5.12089 6.35067 5.22839 6.30328 5.40835C6.25589 5.5883 6.36334 5.77262 6.54329 5.82001C7.66243 6.1147 8.44407 7.12979 8.44407 8.28841V8.7923C8.42308 8.7883 8.40206 8.78453 8.381 8.78098C8.37641 8.68588 8.35234 8.6278 8.3005 8.55323C8.21425 8.42929 8.05936 8.27489 7.56118 7.73942C7.47558 7.64712 7.36005 7.58812 7.23509 7.57289C7.11013 7.55766 6.98381 7.58718 6.87855 7.65623C6.02526 8.21362 4.9886 8.4977 4.02656 8.44124C3.71318 8.42286 3.51746 8.56055 3.43404 8.78619C3.42658 8.7874 3.34325 8.8042 3.33863 8.80533V8.28841C3.33863 7.17125 4.08513 6.16622 5.15396 5.84427C5.19686 5.83197 5.2369 5.81128 5.27174 5.78338C5.30658 5.75548 5.33554 5.72094 5.35692 5.68176C5.3783 5.64258 5.39168 5.59954 5.39629 5.55515C5.4009 5.51075 5.39665 5.46588 5.38377 5.42315C5.3709 5.38041 5.34966 5.34066 5.3213 5.3062C5.29293 5.27174 5.258 5.24325 5.21853 5.22241C5.17907 5.20156 5.13585 5.18876 5.0914 5.18475C5.04695 5.18074 5.00214 5.1856 4.95958 5.19906C4.30956 5.39482 3.72527 5.80244 3.31446 6.34672C2.88936 6.90976 2.66471 7.58121 2.66471 8.28846V9.2213C2.495 9.42408 2.40322 9.67052 2.40322 9.93147C2.40322 10.5083 2.82818 11.0113 3.43363 11.0863C3.53282 11.6866 3.8585 12.2623 4.3725 12.6537V13.2278L1.39675 14.3815C1.39463 14.3823 1.39252 14.3832 1.39042 14.384C1.33355 14.4073 0 14.9733 0 16.5281V21.8117C0 22.2146 0.327749 22.5423 0.730651 22.5423H11.1063C11.2459 22.5423 11.3827 22.502 11.5 22.4262C11.6173 22.502 11.7541 22.5423 11.8937 22.5423H22.2694C22.6723 22.5423 23 22.2146 23 21.8117V19.5606C23 19.4712 22.9645 19.3855 22.9013 19.3223C22.8381 19.2592 22.7524 19.2237 22.663 19.2237ZM3.40066 10.3902C3.20314 10.3185 3.07696 10.1358 3.07696 9.93138C3.07696 9.73314 3.22071 9.57025 3.40066 9.49294V10.3902ZM18.974 14.0857L18.3126 15.4112L17.5676 14.882L18.3945 13.8614L18.974 14.0857ZM17.0806 14.4127L16.2092 13.3371V13.0139C16.4925 13.1118 16.7976 13.157 17.0848 13.1571H17.085C17.3819 13.1571 17.6825 13.1007 17.9503 12.9999V13.3392L17.0806 14.4127ZM17.4762 15.6437L17.3522 15.8302H16.8091L16.6851 15.6437L17.0807 15.3628L17.4762 15.6437ZM11.4991 10.3508L10.6278 9.27521V8.95199C10.9099 9.04952 11.2147 9.09512 11.5033 9.09521H11.5035C11.7999 9.09521 12.1005 9.03901 12.3688 8.93807V9.27727L11.4991 10.3508ZM11.8946 11.5818L11.7707 11.7684H11.2276L11.1036 11.5818L11.4991 11.301L11.8946 11.5818ZM8.84589 6.99211C8.90097 7.00711 8.95757 7.01731 9.01502 7.0244C9.11421 7.62469 9.43989 8.20037 9.95389 8.59177V9.16591L9.26654 9.43234C9.22658 9.34837 9.17663 9.26953 9.11776 9.19754V8.28846C9.11799 7.84216 9.02541 7.4007 8.84589 6.99211ZM13.2895 6.63534C13.2895 7.6215 12.485 8.42125 11.5035 8.42125C10.3961 8.42125 9.6561 7.56302 9.6561 6.63534V5.05715C10.72 5.09973 11.8252 4.78443 12.7288 4.22201C13.0326 4.54778 13.2134 4.73704 13.2895 4.8249L13.2895 6.63534ZM13.9323 7.02418C13.9891 7.01737 14.0453 7.00654 14.1006 6.99179C13.9203 7.4003 13.8273 7.84195 13.8276 8.28846V9.22126C13.7765 9.28211 13.7319 9.34809 13.6944 9.41815L13.0427 9.16578V8.55215C13.5076 8.17799 13.8343 7.6388 13.9323 7.02418ZM10.184 9.79998L11.0111 10.8209L10.447 11.2215L10.4462 11.2222L10.2672 11.3493L9.60579 10.0239L10.184 9.79998ZM12.2745 10.4641L12.813 9.79944L13.3925 10.0238L12.7312 11.3493L12.5518 11.2219L12.5512 11.2215L11.9861 10.8201L12.2745 10.4641ZM12.4443 11.9722L12.4804 11.9978C12.5425 12.0419 12.6133 12.072 12.6881 12.0861C12.763 12.1002 12.8399 12.098 12.9138 12.0794C12.9876 12.061 13.0566 12.0268 13.116 11.9791C13.1754 11.9315 13.2237 11.8715 13.2577 11.8034V11.8033L13.8263 10.6637C14.0217 10.9045 14.3042 11.0509 14.5952 11.0873C14.698 11.7314 15.0462 12.2812 15.5354 12.6537V13.2278L12.671 14.3383L12.3058 12.1807L12.4443 11.9722ZM15.7655 13.8618L16.5925 14.8827L15.8486 15.4112L15.1873 14.0858L15.7655 13.8618ZM18.8709 10.6972C18.871 11.6593 18.0897 12.4832 17.085 12.4832C15.9398 12.4832 15.2376 11.5862 15.2376 10.6972V9.11906C16.2939 9.16124 17.4005 8.85011 18.3102 8.28392C18.614 8.60969 18.7948 8.79895 18.8709 8.88681L18.8709 10.6972ZM19.8686 9.93142C19.8686 10.1362 19.742 10.3185 19.5449 10.3902V9.47363C19.7487 9.54784 19.8686 9.73404 19.8686 9.93142ZM14.5015 8.28841C14.5015 6.88083 15.6467 5.73569 17.0542 5.73569C18.4618 5.73569 19.6069 6.88088 19.6069 8.28841V8.7923C19.5859 8.78823 19.5649 8.78446 19.5438 8.78098C19.5392 8.68579 19.515 8.62757 19.4633 8.55323C19.3748 8.42605 19.2216 8.27431 18.724 7.73942C18.5502 7.55291 18.2637 7.51091 18.0414 7.65623C17.2112 8.19852 16.1624 8.50484 15.1644 8.44002C14.884 8.42165 14.6809 8.55893 14.5969 8.78623C14.5894 8.78745 14.5062 8.80425 14.5014 8.80537L14.5015 8.28841ZM14.5637 9.49299V10.3897C14.3656 10.3183 14.24 10.1351 14.24 9.93138C14.24 9.73314 14.3836 9.57034 14.5637 9.49299ZM14.287 5.86956C14.287 6.01142 14.2256 6.1456 14.1186 6.23765C14.0727 6.277 14.0201 6.30771 13.9633 6.32825V5.41172C14.1648 5.48485 14.287 5.67006 14.287 5.86956ZM11.4727 1.67383C12.8803 1.67383 14.0254 2.81897 14.0254 4.22655V4.73043C14.0044 4.72638 13.9834 4.72261 13.9623 4.71911C13.9574 4.61593 13.9276 4.5525 13.8669 4.47043C13.7767 4.34833 13.6104 4.18046 13.1425 3.67751C13.0569 3.58524 12.9414 3.52626 12.8164 3.51103C12.6915 3.4958 12.5652 3.52531 12.4599 3.59432C11.5832 4.16707 10.5197 4.44581 9.5557 4.37676C9.31986 4.35893 9.09781 4.50142 9.01543 4.72428C9.00792 4.72549 8.92468 4.74229 8.92001 4.74342V4.22659C8.92001 2.81897 10.0652 1.67383 11.4727 1.67383ZM8.98214 5.43108V6.3283C8.78462 6.2566 8.65843 6.07391 8.65843 5.86951C8.65843 5.6724 8.80106 5.50893 8.98214 5.43108ZM8.38181 9.47363C8.5703 9.54222 8.69136 9.70668 8.70335 9.90213C8.71845 10.1195 8.5849 10.316 8.38181 10.3898V9.47363ZM8.35058 11.0872C8.66836 11.0474 8.96004 10.8799 9.15131 10.6223L9.7406 11.8033L9.74064 11.8034C9.77459 11.8715 9.82292 11.9315 9.88229 11.9791C9.94165 12.0268 10.0106 12.061 10.0845 12.0794C10.2324 12.1164 10.3907 12.0881 10.5179 11.9978L10.5539 11.9722L10.6924 12.1807L10.3274 14.3377L7.46118 13.2276V12.6142H7.46113C7.93834 12.2295 8.25481 11.6858 8.35058 11.0872ZM5.91754 14.4127L5.04619 13.3371V13.0139C5.3283 13.1114 5.63314 13.157 5.92176 13.1571H5.92194C6.2174 13.1565 6.5104 13.1032 6.78722 12.9999V13.3392L5.91754 14.4127ZM6.31312 15.6437L6.18918 15.8302H5.64603L5.52209 15.6437L5.91762 15.3628L6.31312 15.6437ZM7.23145 13.8614L7.81094 14.0858L7.1496 15.4112L6.97019 15.2838L6.96965 15.2833L6.40458 14.882L7.23145 13.8614ZM4.07453 10.6972V9.11906C5.14407 9.16178 6.25 8.8423 7.14718 8.28392C7.44811 8.60664 7.63166 8.79886 7.70789 8.88681V10.6972C7.70789 11.6771 6.90896 12.4832 5.92194 12.4832C4.82302 12.4832 4.07453 11.6347 4.07453 10.6972ZM4.60245 13.8618L5.42955 14.8827L4.86551 15.2833L4.86466 15.284L4.68565 15.4112L4.02427 14.0858L4.60245 13.8618ZM2.68466 21.8686V16.9461C2.68466 16.76 2.53385 16.6092 2.34774 16.6092C2.16163 16.6092 2.01083 16.76 2.01083 16.9461V21.8685H0.730651C0.715604 21.8685 0.701175 21.8625 0.69053 21.8519C0.679886 21.8412 0.673894 21.8268 0.67387 21.8118V16.5281C0.67387 15.446 1.58565 15.0335 1.64467 15.008L3.39307 14.3302L4.15903 15.8652L4.15908 15.8652C4.19303 15.9334 4.24136 15.9933 4.30074 16.041C4.36011 16.0887 4.42912 16.1229 4.503 16.1413C4.65092 16.1783 4.80918 16.15 4.93636 16.0596L4.97243 16.034L5.11092 16.2425L4.35826 20.6896C4.35769 20.6929 4.35716 20.6963 4.35669 20.6996C4.33503 20.8565 4.38377 21.0181 4.48723 21.132L5.1567 21.8685H2.68466V21.8686ZM5.03451 20.7322L5.75007 16.5041H6.08514L6.80074 20.7322L5.91762 21.7037L5.03451 20.7322ZM11.163 21.8117C11.163 21.843 11.1376 21.8685 11.1063 21.8685H9.82617V16.9461C9.82617 16.8567 9.79068 16.771 9.72749 16.7078C9.66431 16.6447 9.57862 16.6092 9.48926 16.6092C9.39991 16.6092 9.31421 16.6447 9.25103 16.7078C9.18784 16.771 9.15235 16.8567 9.15235 16.9461V21.8685H6.67851L7.34807 21.1319C7.45148 21.0181 7.50022 20.8566 7.47852 20.6996C7.47804 20.6963 7.47752 20.6929 7.47695 20.6896L6.72428 16.2425L6.86278 16.034L6.89885 16.0596C6.96092 16.1037 7.03179 16.1338 7.10661 16.1479C7.18142 16.162 7.2584 16.1598 7.33225 16.1413C7.4061 16.1228 7.47508 16.0886 7.53445 16.0409C7.59382 15.9933 7.64217 15.9333 7.67618 15.8652V15.8652L8.44205 14.3302L10.1915 15.0078C10.7015 15.2296 11.163 15.8017 11.163 16.5281L11.163 21.8117ZM11.5 15.3038C11.3604 15.0789 11.1746 14.8708 10.9506 14.6933L11.3316 12.4423H11.6667L12.0478 14.6944C11.8179 14.877 11.6345 15.087 11.5 15.3038ZM13.8477 21.8686V16.9461C13.8477 16.76 13.6969 16.6092 13.5107 16.6092C13.3246 16.6092 13.1738 16.76 13.1738 16.9461V21.8685H11.8937C11.8786 21.8685 11.8642 21.8625 11.8536 21.8519C11.8429 21.8412 11.8369 21.8268 11.8369 21.8118V16.5281C11.8369 16.1276 11.9625 15.7587 12.2301 15.4488C12.4085 15.2441 12.6451 15.0785 12.8078 15.008L14.5562 14.3301L15.3221 15.8652L15.3222 15.8652C15.3561 15.9334 15.4044 15.9933 15.4638 16.041C15.5232 16.0887 15.5922 16.1229 15.666 16.1413C15.814 16.1783 15.9722 16.15 16.0994 16.0596L16.1355 16.034L16.274 16.2425L15.5213 20.6896C15.5207 20.6929 15.5202 20.6963 15.5197 20.6996C15.4981 20.8565 15.5468 21.0181 15.6503 21.132L16.3197 21.8685H13.8477V21.8686ZM16.1975 20.7322L16.9131 16.5041H17.2482L17.9638 20.7322L17.0806 21.7037L16.1975 20.7322Z" fill="#222733"/>
</svg>
