<svg width="24" height="24" viewBox="0 0 24 24" fill="none" xmlns="http://www.w3.org/2000/svg">
<g clip-path="url(#clip0_1684_20810)">
<path d="M10.9889 5.25305H6.13147C6.03823 5.25305 5.94881 5.29009 5.88288 5.35602C5.81695 5.42195 5.77991 5.51137 5.77991 5.60461C5.77991 5.69785 5.81695 5.78727 5.88288 5.8532C5.94881 5.91913 6.03823 5.95617 6.13147 5.95617H10.9888C11.0821 5.95618 11.1715 5.91915 11.2374 5.85322C11.3034 5.78729 11.3404 5.69788 11.3404 5.60464C11.3404 5.5114 11.3034 5.42197 11.2375 5.35604C11.1715 5.2901 11.0821 5.25306 10.9889 5.25305ZM17.5913 17.0795H14.9909C14.8976 17.0795 14.8082 17.1166 14.7423 17.1825C14.6763 17.2484 14.6393 17.3378 14.6393 17.4311C14.6393 17.5243 14.6763 17.6137 14.7423 17.6797C14.8082 17.7456 14.8976 17.7826 14.9909 17.7826H17.5913C17.6845 17.7826 17.7739 17.7456 17.8399 17.6797C17.9058 17.6137 17.9428 17.5243 17.9428 17.4311C17.9428 17.3378 17.9058 17.2484 17.8399 17.1825C17.7739 17.1166 17.6845 17.0795 17.5913 17.0795Z" fill="#222733"/>
<path d="M21.3937 5.75518C21.4719 5.79842 21.5641 5.80883 21.65 5.78412C21.7358 5.75941 21.8084 5.70161 21.8516 5.62343C22.5121 4.42937 22.9088 3.21576 22.9989 2.11379C23.0155 1.90966 22.8396 1.73389 22.6355 1.75055C21.3501 1.85567 19.9425 2.37555 18.5943 3.21356C18.4485 2.62167 18.2643 2.15925 18.0352 1.80962C17.6832 1.27245 17.2239 1 16.6702 1H1.96703C1.27075 1 0.745031 1.22375 0.404659 1.66516C-0.256049 2.52168 0.087602 3.86901 0.102561 3.92597C0.121479 3.99798 0.163713 4.0617 0.222666 4.10717C0.281619 4.15264 0.353971 4.1773 0.428423 4.17731H3.39415C3.6954 6.09448 3.68003 8.82073 3.66579 11.3301C3.65856 12.6041 3.65106 13.9215 3.68165 15.1222C3.68637 15.3082 3.84067 15.4548 4.02701 15.4504C4.11633 15.4482 4.2011 15.4105 4.26265 15.3458C4.32421 15.281 4.35752 15.1944 4.35525 15.1051C4.32497 13.9149 4.33243 12.6029 4.33962 11.334C4.35669 8.32695 4.37313 5.4344 3.9523 3.48053C3.91223 3.2946 3.86664 3.10943 3.81332 2.92683C3.66485 2.41678 3.47609 1.99223 3.23616 1.67391H16.6702C17.2807 1.67391 17.7146 2.30691 17.994 3.60748C17.6304 3.86322 17.2758 4.14128 16.9319 4.43813C16.1629 5.10193 15.4528 5.85886 14.8421 6.67931H5.87594C5.78659 6.67931 5.70089 6.71481 5.63771 6.77799C5.57452 6.84117 5.53903 6.92687 5.53903 7.01622C5.53903 7.10558 5.57452 7.19127 5.63771 7.25446C5.70089 7.31764 5.78659 7.35314 5.87594 7.35314H14.3727C14.1241 7.73497 13.9006 8.12247 13.705 8.5114H5.87594C5.78659 8.5114 5.70089 8.54689 5.63771 8.61008C5.57452 8.67326 5.53903 8.75896 5.53903 8.84831C5.53903 8.93767 5.57452 9.02336 5.63771 9.08654C5.70089 9.14973 5.78659 9.18522 5.87594 9.18522H13.3941C13.2314 9.57366 13.0979 9.96111 12.9949 10.3435H5.87594C5.78659 10.3435 5.70089 10.379 5.63771 10.4422C5.57452 10.5053 5.53903 10.591 5.53903 10.6804C5.53903 10.7698 5.57452 10.8554 5.63771 10.9186C5.70089 10.9818 5.78659 11.0173 5.87594 11.0173H12.8442C12.8167 11.1754 12.7948 11.3345 12.7786 11.4942L11.7381 12.5347C11.6749 12.5979 11.6394 12.6836 11.6394 12.7729C11.6394 12.8623 11.6749 12.948 11.7381 13.0112C11.8655 13.1385 12.0835 13.1422 12.2146 13.0112L13.2547 11.971C13.8794 11.9077 14.4926 11.7542 15.0832 11.5432C15.6911 11.3261 16.2763 11.047 16.8349 10.724C17.3733 10.4127 17.8876 10.0599 18.3754 9.6742C18.3751 10.2256 18.372 10.7842 18.3688 11.3298C18.3551 13.7512 18.3409 16.2494 18.5887 18.0851H7.41446C7.20095 18.0851 7.03896 18.2891 7.08644 18.4969C7.08721 18.5002 7.08757 18.5036 7.08842 18.5069L7.08981 18.5125C7.1085 18.5903 7.33634 19.5912 6.92082 20.1631L6.91713 20.1683C6.67788 20.4931 6.25485 20.5906 5.87172 20.5885C5.05293 20.5838 4.57469 19.2271 4.40979 16.4413C4.40365 16.3527 4.36281 16.2702 4.29614 16.2116C4.22948 16.1529 4.14237 16.123 4.05376 16.1283C3.96514 16.1335 3.88218 16.1735 3.8229 16.2396C3.76362 16.3057 3.73281 16.3925 3.73717 16.4811C3.86893 18.7072 4.23113 21.2623 5.87594 21.2623H20.5791C21.2754 21.2623 21.8011 21.0386 22.1415 20.5972C22.8021 19.7406 22.4584 18.3933 22.4435 18.3363C22.4245 18.2643 22.3823 18.2006 22.3234 18.1551C22.2644 18.1096 22.192 18.085 22.1176 18.085H19.2692C19.0147 16.2917 19.0289 13.7735 19.0427 11.3336C19.0469 10.5987 19.0511 9.84077 19.0481 9.1063C19.2367 8.93709 19.4206 8.76285 19.5997 8.58377C20.1618 8.02171 20.6723 7.4185 21.1169 6.79085C21.1673 6.71789 21.1869 6.628 21.1714 6.54068C21.156 6.45337 21.1068 6.37565 21.0344 6.32439C20.962 6.27314 20.8724 6.25247 20.7849 6.26687C20.6974 6.28128 20.6191 6.32959 20.567 6.40134C20.1443 6.99803 19.6585 7.57204 19.1233 8.10728C18.7012 8.52974 18.2512 8.92346 17.7765 9.2858C16.6172 10.1694 15.3762 10.8041 14.1969 11.1142C14.159 11.1242 14.1208 11.1335 14.0827 11.1429L20.0701 5.15561C20.1333 5.09243 20.1688 5.00674 20.1688 4.91739C20.1688 4.82805 20.1333 4.74236 20.0701 4.67917C20.0069 4.616 19.9212 4.58051 19.8319 4.58051C19.7425 4.58051 19.6569 4.616 19.5937 4.67917L13.6063 10.6665C13.6149 10.6317 13.6231 10.5969 13.6323 10.562C13.9762 9.24591 14.6366 8.04444 15.4626 6.97368L15.4635 6.97252L15.4713 6.9625C16.2432 5.9534 17.1544 5.05905 18.1778 4.30624C19.5197 3.32218 20.9591 2.67185 22.2787 2.47056C22.1415 3.36706 21.794 4.33539 21.262 5.2973C21.2187 5.37549 21.2083 5.46766 21.233 5.55353C21.2577 5.6394 21.3155 5.71194 21.3937 5.75518ZM3.26689 3.50335H0.706982C0.687825 3.37225 0.676724 3.24014 0.67374 3.10768C0.667541 2.80113 0.708554 2.37312 0.939272 2.0752C1.14582 1.80846 1.47627 1.67706 1.94911 1.67383L2.16968 1.69808L2.17916 1.70046C2.62469 1.81654 2.97256 2.35156 3.21653 3.29415C3.2345 3.3636 3.25108 3.43341 3.26689 3.50335ZM21.8383 18.7589C21.8894 19.116 21.9266 19.7725 21.608 20.1857C21.3989 20.4567 21.0623 20.5885 20.5791 20.5885H7.44501C7.87832 20.0188 7.87257 19.2361 7.8157 18.7589H21.8383Z" fill="#222733"/>
</g>
<defs>
<clipPath id="clip0_1684_20810">
<rect width="24" height="24" fill="white"/>
</clipPath>
</defs>
</svg>
