<svg width="24" height="24" viewBox="0 0 24 24" fill="none" xmlns="http://www.w3.org/2000/svg">
<path d="M21.9626 4.77344H17.25C17.2058 4.77342 17.1619 4.78212 17.121 4.79905C17.0802 4.81597 17.043 4.84079 17.0117 4.87208C16.9804 4.90337 16.9556 4.94052 16.9387 4.9814C16.9218 5.02228 16.9131 5.0661 16.9131 5.11035C16.9131 5.29655 17.0638 5.44727 17.25 5.44727H21.9626C22.1632 5.44727 22.3262 5.61029 22.3262 5.81086V18.7848C22.3262 18.9854 22.1632 19.1484 21.9626 19.1484H1.03743C0.83685 19.1484 0.673828 18.9854 0.673828 18.7848V5.81086C0.673828 5.61029 0.83685 5.44727 1.03743 5.44727H8.4397V6.12109H1.68457C1.64032 6.12108 1.5965 6.12978 1.55562 6.1467C1.51473 6.16363 1.47759 6.18845 1.4463 6.21973C1.41501 6.25102 1.39019 6.28817 1.37327 6.32906C1.35634 6.36994 1.34764 6.41376 1.34766 6.45801V15.3601C1.34766 15.4494 1.38315 15.5351 1.44634 15.5983C1.50952 15.6615 1.59522 15.697 1.68457 15.697C1.77393 15.697 1.85962 15.6615 1.9228 15.5983C1.98599 15.5351 2.02148 15.4494 2.02148 15.3601V6.79492H8.4397V8.60231L6.99726 9.29141C6.94005 9.31908 6.89176 9.36225 6.85789 9.41602C6.82401 9.46979 6.80592 9.53198 6.80566 9.59553V15.09C6.80566 15.2198 6.88023 15.3382 6.9973 15.3941L11.3547 17.476C11.4002 17.4974 11.4498 17.5084 11.5 17.5084C11.5502 17.5084 11.5998 17.4974 11.6453 17.476L14.095 16.3056C14.1349 16.2865 14.1707 16.2597 14.2002 16.2268C14.2298 16.1939 14.2526 16.1555 14.2674 16.1138C14.2821 16.072 14.2885 16.0278 14.2861 15.9836C14.2838 15.9394 14.2727 15.8961 14.2536 15.8562C14.2346 15.8163 14.2078 15.7805 14.1749 15.7509C14.142 15.7214 14.1036 15.6986 14.0618 15.6838C14.0201 15.6691 13.9759 15.6627 13.9317 15.6651C13.8875 15.6674 13.8442 15.6785 13.8043 15.6975L11.8369 16.6375V11.8897L15.5205 10.1298V14.8777L15.0201 15.1167C14.9403 15.1557 14.8792 15.2247 14.85 15.3085C14.8208 15.3924 14.8259 15.4844 14.8641 15.5645C14.9024 15.6446 14.9708 15.7064 15.0543 15.7364C15.1379 15.7664 15.23 15.7622 15.3105 15.7247L16.0027 15.3941C16.0601 15.3666 16.1085 15.3235 16.1424 15.2697C16.1763 15.2159 16.1943 15.1536 16.1943 15.09V9.59553C16.1941 9.53197 16.176 9.46975 16.1421 9.41598C16.1083 9.3622 16.0599 9.31904 16.0027 9.29141L14.5603 8.60231V6.79492H20.9785V17.8008H2.02148V16.7976C2.02148 16.6114 1.87077 16.4607 1.68457 16.4607C1.64032 16.4607 1.5965 16.4694 1.55562 16.4863C1.51473 16.5032 1.47759 16.528 1.4463 16.5593C1.41501 16.5906 1.39019 16.6277 1.37327 16.6686C1.35634 16.7095 1.34764 16.7533 1.34766 16.7976V18.1377C1.34766 18.3239 1.49837 18.4746 1.68457 18.4746H21.3154C21.5016 18.4746 21.6523 18.3239 21.6523 18.1377V6.45801C21.6523 6.27181 21.5016 6.12109 21.3154 6.12109H14.5603V5.44727H15.8125C15.9987 5.44727 16.1494 5.29655 16.1494 5.11035C16.1494 4.92415 15.9987 4.77344 15.8125 4.77344H14.5603V4.09961H17.5813C17.7675 4.09961 17.9182 3.9489 17.9182 3.7627V2.96354C18.3104 2.82441 18.592 2.44994 18.592 2.01074C18.592 1.45344 18.1386 1 17.5813 1C17.024 1 16.5706 1.45344 16.5706 2.01074C16.5706 2.44994 16.8522 2.82441 17.2444 2.96354V3.42578H14.2234C14.1791 3.42576 14.1353 3.43447 14.0944 3.45139C14.0536 3.46832 14.0164 3.49313 13.9851 3.52442C13.9538 3.55571 13.929 3.59286 13.9121 3.63374C13.8952 3.67463 13.8865 3.71845 13.8865 3.7627V4.77344H11.8369V2.96354C12.2291 2.82441 12.5107 2.44994 12.5107 2.01074C12.5107 1.45344 12.0573 1 11.5 1C10.9427 1 10.4893 1.45344 10.4893 2.01074C10.4893 2.44994 10.7709 2.82441 11.1631 2.96354V4.77344H9.11353V3.7627C9.11353 3.57649 8.96281 3.42578 8.77661 3.42578H5.75562V2.96354C6.14778 2.82441 6.42944 2.44994 6.42944 2.01074C6.42944 1.45344 5.976 1 5.4187 1C4.8614 1 4.40796 1.45344 4.40796 2.01074C4.40796 2.44994 4.68962 2.82441 5.08179 2.96354V3.7627C5.08179 3.9489 5.2325 4.09961 5.4187 4.09961H8.4397V4.77344H1.03743C0.465346 4.77344 0 5.23883 0 5.81086V18.7848C0 19.3569 0.465391 19.8223 1.03743 19.8223H8.34177C8.2114 21.0582 7.39423 21.7799 7.1366 21.9785H5.70508C5.14778 21.9785 4.69434 22.432 4.69434 22.9893C4.69434 23.5466 5.14778 24 5.70508 24H17.2949C17.8522 24 18.3057 23.5466 18.3057 22.9893C18.3057 22.432 17.8522 21.9785 17.2949 21.9785H15.8643C15.61 21.7806 14.79 21.0524 14.6585 19.8223H21.9626C22.5347 19.8223 23 19.3569 23 18.7848V5.81086C23 5.23878 22.5346 4.77344 21.9626 4.77344ZM17.5813 1.67383C17.7671 1.67383 17.9182 1.8249 17.9182 2.01074C17.9182 2.19658 17.7671 2.34766 17.5813 2.34766C17.3955 2.34766 17.2444 2.19658 17.2444 2.01074C17.2444 1.8249 17.3955 1.67383 17.5813 1.67383ZM11.5 1.67383C11.6858 1.67383 11.8369 1.8249 11.8369 2.01074C11.8369 2.19658 11.6858 2.34766 11.5 2.34766C11.3142 2.34766 11.1631 2.19658 11.1631 2.01074C11.1631 1.8249 11.3142 1.67383 11.5 1.67383ZM5.4187 1.67383C5.60454 1.67383 5.75562 1.8249 5.75562 2.01074C5.75562 2.19658 5.60454 2.34766 5.4187 2.34766C5.23286 2.34766 5.08179 2.19658 5.08179 2.01074C5.08179 1.8249 5.23286 1.67383 5.4187 1.67383ZM9.11353 6.79492H11.1631V7.30119L9.11353 8.28049V6.79492ZM15.0759 9.59553L11.5 11.3037L7.92413 9.59549L11.5 7.88711L15.0759 9.59553ZM7.47949 10.1298L11.1631 11.8897V16.6375L7.47949 14.8777V10.1298ZM13.8865 8.28049L11.8369 7.30119V6.79492H13.8865V8.28049ZM13.8865 5.44727V6.12109H11.8369V5.44727H13.8865ZM11.1631 5.44727V6.12109H9.11353V5.44727H11.1631ZM17.6318 22.9893C17.6318 23.1751 17.4808 23.3262 17.2949 23.3262H5.70508C5.51924 23.3262 5.36816 23.1751 5.36816 22.9893C5.36816 22.8034 5.51924 22.6523 5.70508 22.6523H17.2949C17.4808 22.6523 17.6318 22.8034 17.6318 22.9893ZM14.8979 21.9785H8.10211C8.49706 21.5172 8.93523 20.7983 9.01928 19.8223H13.9807C14.0647 20.7983 14.5029 21.5172 14.8979 21.9785Z" fill="#222733"/>
</svg>
