<svg width="24" height="24" viewBox="0 0 24 24" fill="none" xmlns="http://www.w3.org/2000/svg">
<path d="M5.74368 13.4476L2.03429 9.99754C1.92392 9.89236 1.84492 9.75862 1.80607 9.6112C1.76722 9.46377 1.77005 9.30846 1.81424 9.16255C1.85844 9.01665 1.94227 8.88587 2.05639 8.78478C2.17051 8.6837 2.31045 8.61627 2.46063 8.59001L7.45496 7.74872C7.71108 7.7033 7.95255 7.59704 8.15905 7.43888C8.36556 7.28072 8.53107 7.07528 8.64165 6.83984L9.47469 5.04801C9.51565 4.95399 9.51823 4.84768 9.48187 4.75178C9.44552 4.65589 9.37311 4.57801 9.28012 4.53477C9.18713 4.49153 9.08091 4.48636 8.98416 4.52036C8.88741 4.55436 8.80778 4.62485 8.76228 4.71676L7.92924 6.5078C7.87236 6.62854 7.78738 6.73391 7.68141 6.81506C7.57545 6.89621 7.45158 6.95079 7.32018 6.97422L2.32978 7.81513C2.03629 7.86791 1.76314 8.00088 1.54056 8.19931C1.31797 8.39775 1.15464 8.6539 1.06865 8.93943C0.982653 9.22495 0.977348 9.5287 1.05332 9.81706C1.12929 10.1054 1.28358 10.3671 1.49909 10.5732L5.20771 14.0225C5.3054 14.1137 5.37947 14.2272 5.42355 14.3534C5.46764 14.4795 5.48041 14.6145 5.46076 14.7467L4.72045 19.7669C4.70203 19.8195 4.69486 19.8753 4.69942 19.9308C4.70397 19.9863 4.72015 20.0403 4.74689 20.0891C4.77364 20.138 4.81035 20.1807 4.85466 20.2144C4.89897 20.2481 4.94988 20.2722 5.00408 20.285C5.05828 20.2978 5.11457 20.299 5.16929 20.2887C5.22401 20.2783 5.27594 20.2566 5.32171 20.2248C5.36748 20.1931 5.40606 20.1521 5.43496 20.1045C5.46386 20.0569 5.48242 20.0037 5.48945 19.9485L6.23801 14.8622C6.27638 14.604 6.25143 14.3403 6.16532 14.0939C6.07921 13.8475 5.93451 13.6257 5.74368 13.4476ZM21.8945 10.1048C22.1011 9.88941 22.2441 9.62099 22.3075 9.3293C22.3709 9.03762 22.3523 8.73407 22.2538 8.45231C22.1552 8.17055 21.9806 7.92159 21.7491 7.73304C21.5177 7.54448 21.2386 7.42369 20.9428 7.38407L15.9119 6.77068C15.7807 6.75539 15.6553 6.70794 15.5469 6.63253C15.4384 6.55713 15.3503 6.45611 15.2903 6.33844L12.9444 1.85101C12.8035 1.58841 12.5926 1.36994 12.3352 1.2198C12.0778 1.06967 11.7838 0.993732 11.4859 1.0004C11.1879 1.00708 10.8976 1.0961 10.6472 1.25761C10.3967 1.41912 10.1959 1.64681 10.0669 1.91545L9.46958 3.20431C9.44601 3.25136 9.43213 3.30266 9.42875 3.35517C9.42538 3.40769 9.4326 3.46035 9.44996 3.51002C9.46733 3.55969 9.49449 3.60537 9.52985 3.64435C9.5652 3.68333 9.60803 3.7148 9.65578 3.73692C9.70353 3.75903 9.75523 3.77132 9.80783 3.77307C9.86042 3.77482 9.91283 3.76599 9.96194 3.7471C10.0111 3.72821 10.0559 3.69965 10.0937 3.66311C10.1316 3.62657 10.1618 3.5828 10.1824 3.53439L10.7793 2.2471C10.844 2.10865 10.9462 1.99107 11.0742 1.90764C11.2023 1.82421 11.3511 1.77827 11.5039 1.775C11.6567 1.77173 11.8074 1.81126 11.9389 1.88913C12.0704 1.96701 12.1775 2.08011 12.2481 2.21566L14.594 6.7027C14.7132 6.93418 14.8876 7.13272 15.1017 7.28076C15.3159 7.4288 15.5633 7.52177 15.8219 7.55146L20.8477 8.16445C20.9991 8.1843 21.1419 8.24578 21.2604 8.34205C21.3789 8.43832 21.4683 8.5656 21.5187 8.7097C21.5691 8.8538 21.5785 9.00906 21.5458 9.15819C21.5132 9.30731 21.4398 9.44444 21.3338 9.5543L17.7863 13.1725C17.6066 13.3601 17.4743 13.588 17.4005 13.837C17.3267 14.0861 17.3134 14.3492 17.3619 14.6044L18.334 19.5819C18.3482 19.6526 18.3522 19.725 18.3458 19.7968C18.342 19.8483 18.3484 19.9 18.3646 19.949C18.3808 19.998 18.4064 20.0434 18.4402 20.0824C18.4739 20.1215 18.515 20.1536 18.5611 20.1768C18.6072 20.2 18.6574 20.2139 18.7089 20.2176C19.149 20.2408 19.184 19.7394 19.1042 19.4239L18.1336 14.4555C18.1088 14.3244 18.1155 14.1893 18.1532 14.0613C18.191 13.9333 18.2586 13.8162 18.3505 13.7195L21.8945 10.1048Z" fill="#222733"/>
<path d="M17.4789 19.7057C17.3776 19.4418 17.2215 19.2025 17.0208 19.0035C16.8202 18.8045 16.5796 18.6503 16.315 18.5512C16.5075 18.2031 16.6131 17.8136 16.6228 17.4159C16.6325 17.0183 16.546 16.6241 16.3708 16.267C16.3091 16.1126 16.1853 16.0069 16.1798 15.8509C16.2163 15.344 16.2965 14.7656 15.8191 14.4151C15.7864 14.3887 15.7618 14.3537 15.7481 14.314C15.7344 14.2743 15.7321 14.2316 15.7417 14.1907C15.8156 13.6143 15.7762 13.0289 15.6257 12.4676C15.5699 12.2948 15.5036 12.1255 15.4273 11.9607C15.381 11.8696 15.301 11.8002 15.2043 11.7671C15.1076 11.734 15.0018 11.7399 14.9094 11.7835C14.817 11.8271 14.7452 11.905 14.7092 12.0007C14.6733 12.0963 14.676 12.2022 14.7169 12.2959C14.9683 12.8434 15.0558 13.4519 14.9687 14.048C14.9318 14.2308 14.9468 14.4202 15.012 14.5949C15.0772 14.7696 15.19 14.9225 15.3377 15.0363C15.4965 15.1369 15.3919 15.5125 15.3951 15.8053C15.3993 16.0988 15.4949 16.3837 15.6686 16.6203C15.7993 16.89 15.8565 17.1895 15.8343 17.4884C15.812 17.7873 15.7112 18.0751 15.542 18.3225L13.8347 17.8392C13.7141 17.8045 13.6081 17.7316 13.5325 17.6315C13.4569 17.5313 13.4158 17.4094 13.4154 17.2839V16.6985C14.2169 15.8567 14.67 14.7427 14.6835 13.5804C14.6805 13.5027 14.6544 13.4275 14.6087 13.3646C14.5629 13.3016 14.4995 13.2537 14.4265 13.2268C14.0806 13.0741 13.7729 12.8466 13.5256 12.5607C13.2782 12.2748 13.0974 11.9375 12.9961 11.5733C12.9738 11.4871 12.9229 11.411 12.8517 11.3574C12.7806 11.3037 12.6934 11.2758 12.6044 11.278C12.5154 11.2802 12.4297 11.3125 12.3613 11.3696C12.293 11.4268 12.246 11.5053 12.2279 11.5925C12.2256 11.6043 11.9332 12.8146 9.59678 12.8743C9.50651 12.8766 9.41976 12.9098 9.35113 12.9685C9.2825 13.0272 9.23618 13.1077 9.21995 13.1965C9.13722 13.8412 9.20524 14.4963 9.41866 15.1103C9.63208 15.7242 9.98508 16.2802 10.4499 16.7346V17.2839C10.4495 17.4094 10.4084 17.5313 10.3328 17.6315C10.2572 17.7316 10.1512 17.8045 10.0306 17.8392L8.26706 18.3382C8.09242 18.0877 7.98844 17.7948 7.96604 17.4902C7.94364 17.1856 8.00364 16.8807 8.13974 16.6073C8.30765 16.3742 8.40082 16.0956 8.40695 15.8084C8.41088 15.5357 8.30871 15.1294 8.45803 15.0414C8.60589 14.9269 8.71897 14.7736 8.78462 14.5985C8.85027 14.4234 8.8659 14.2335 8.82976 14.05C8.77859 13.6016 8.81042 13.1477 8.92367 12.7109C9.78579 10.0887 12.5765 10.1571 13.8693 11.1709C13.9512 11.2334 14.0543 11.2612 14.1565 11.2483C14.2587 11.2355 14.3518 11.1831 14.4157 11.1023C14.4796 11.0216 14.5092 10.9189 14.4983 10.8165C14.4873 10.7141 14.4365 10.6201 14.3569 10.5548C12.0822 8.76137 7.67214 9.92488 8.05683 14.1926C8.06611 14.2341 8.06358 14.2774 8.04956 14.3175C8.03553 14.3577 8.01056 14.3931 7.97746 14.4198C7.50828 14.7589 7.58451 15.3393 7.62224 15.8422C7.61791 15.9982 7.49257 16.1055 7.43244 16.265C7.25434 16.6254 7.16683 17.0239 7.17752 17.4257C7.1882 17.8276 7.29674 18.2208 7.49374 18.5712C7.2421 18.6754 7.01421 18.8295 6.82388 19.0243C6.63354 19.2191 6.48472 19.4505 6.38643 19.7045L5.60132 21.7584C5.5823 21.8091 5.57392 21.8632 5.57669 21.9174C5.57946 21.9715 5.59332 22.0244 5.61742 22.073C5.64152 22.1215 5.67534 22.1646 5.71678 22.1995C5.75822 22.2344 5.80639 22.2604 5.85831 22.2759C7.82665 22.7786 9.85232 23.0216 11.8837 22.9985C13.9413 23.0013 15.992 22.7604 17.9928 22.2806C18.0471 22.2675 18.098 22.2429 18.142 22.2085C18.186 22.1742 18.2222 22.1308 18.2482 22.0814C18.2741 22.0319 18.2892 21.9775 18.2925 21.9217C18.2958 21.866 18.2871 21.8102 18.2671 21.758L17.4789 19.7057ZM9.96772 13.6425C11.3953 13.5364 12.1588 13.0236 12.5623 12.5564C12.8622 13.1126 13.3248 13.5639 13.8881 13.85C13.8376 14.4125 13.664 14.957 13.3795 15.445C13.095 15.9329 12.7067 16.3522 12.2421 16.6733C11.8334 16.968 11.4032 16.5397 11.1155 16.2863C10.7454 15.954 10.4513 15.5459 10.2533 15.0896C10.0553 14.6334 9.9576 14.1398 9.96772 13.6425ZM13.0614 18.2765C12.7156 18.4667 12.3274 18.5665 11.9328 18.5664C11.5382 18.5663 11.15 18.4665 10.8043 18.2761C11.0572 18.0366 11.209 17.7095 11.2287 17.3617C11.4408 17.4914 11.685 17.5592 11.9336 17.5573C12.1822 17.5554 12.4253 17.484 12.6354 17.3511C12.6528 17.703 12.8054 18.0345 13.0614 18.2765ZM15.1896 21.9938V21.3702C15.1896 21.266 15.1482 21.166 15.0745 21.0923C15.0008 21.0186 14.9008 20.9772 14.7966 20.9772C14.6924 20.9772 14.5925 21.0186 14.5188 21.0923C14.4451 21.166 14.4037 21.266 14.4037 21.3702V22.0826C12.7607 22.2385 11.1068 22.2398 9.46358 22.0865V21.3702C9.46358 21.266 9.42218 21.166 9.34848 21.0923C9.27479 21.0186 9.17485 20.9772 9.07063 20.9772C8.96642 20.9772 8.86647 21.0186 8.79278 21.0923C8.71909 21.166 8.67769 21.266 8.67769 21.3702V22.0028C7.94364 21.9141 7.21458 21.7882 6.49331 21.6256L7.12045 19.9858C7.18877 19.8091 7.29726 19.6508 7.43734 19.5232C7.57742 19.3957 7.74525 19.3025 7.92756 19.251L9.9469 18.6797C10.5155 19.1197 11.2141 19.3585 11.9331 19.3586C12.6521 19.3588 13.3508 19.1203 13.9196 18.6805L15.9389 19.2518C16.1212 19.3027 16.289 19.3957 16.4289 19.5231C16.5688 19.6506 16.6768 19.8091 16.7444 19.9858L17.3716 21.6177C16.625 21.7836 15.8973 21.9034 15.1896 21.9938Z" fill="#222733"/>
</svg>
