<svg width="24" height="24" viewBox="0 0 24 24" fill="none" xmlns="http://www.w3.org/2000/svg">
<path d="M22.5111 14.3467L21.7847 14.0265C21.706 13.9918 21.6168 13.9899 21.5366 14.021C21.4565 14.0521 21.392 14.1138 21.3573 14.1925C21.285 14.3562 21.3593 14.5472 21.5233 14.6195L22.2497 14.9402C22.2991 14.9617 22.3093 14.9921 22.3093 15.0141C22.3093 15.0357 22.2991 15.0659 22.2497 15.0875L16.3115 17.7062C16.2743 17.7226 16.2268 17.7226 16.1892 17.7062C14.3242 16.8837 14.9354 17.1533 13.2828 16.4243L15.4371 15.4329C16.2145 15.9041 17.4982 15.545 17.4982 14.7534C17.4982 14.2546 16.9502 13.8638 16.2505 13.8638C15.4641 13.8638 14.8882 14.3544 15.0216 14.9104L12.4909 16.0751C12.2222 15.9566 10.5198 15.206 10.2513 15.0876C10.1716 15.0526 10.1711 14.9754 10.2513 14.9402L16.1892 12.3216C16.2086 12.3134 16.2295 12.3093 16.2505 12.3093C16.2716 12.3093 16.2925 12.3134 16.3119 12.3216C19.2287 13.6075 16.1248 12.2392 20.3369 14.0965C20.3758 14.1137 20.4178 14.123 20.4604 14.124C20.503 14.1249 20.5453 14.1175 20.585 14.1021C20.6247 14.0867 20.661 14.0636 20.6917 14.0342C20.7225 14.0047 20.7472 13.9695 20.7643 13.9305C20.8364 13.7668 20.7621 13.5758 20.5983 13.5031L18.2541 12.4698V4.87198C18.2541 4.2801 17.7723 3.80137 17.1836 3.80137H14.2284V2.78364C14.2284 1.80045 13.4285 1 12.4451 1H11.2199C11.1773 0.999972 11.1352 1.00834 11.0958 1.02462C11.0565 1.0409 11.0207 1.06478 10.9906 1.0949C10.9605 1.12501 10.9366 1.16076 10.9203 1.20011C10.9041 1.23945 10.8957 1.28162 10.8957 1.32421C10.8957 1.36679 10.904 1.40895 10.9203 1.4483C10.9366 1.48764 10.9605 1.52339 10.9906 1.55349C11.0207 1.58359 11.0565 1.60745 11.0958 1.62371C11.1352 1.63997 11.1773 1.64831 11.2199 1.64824H12.4451C13.071 1.64824 13.5801 2.15786 13.5801 2.78364V3.80133H13.0541V2.78364C13.0541 2.44783 12.7809 2.17431 12.4451 2.17431H6.80894C6.47317 2.17431 6.19966 2.44783 6.19966 2.78364V3.80133H5.67376V2.78364C5.67376 2.15786 6.18325 1.64824 6.80898 1.64824H9.9233C9.96587 1.64828 10.008 1.63992 10.0474 1.62365C10.0867 1.60738 10.1225 1.58352 10.1526 1.55342C10.1827 1.52333 10.2066 1.48759 10.2229 1.44826C10.2391 1.40893 10.2475 1.36678 10.2475 1.32421C10.2475 1.28163 10.2391 1.23947 10.2228 1.20014C10.2065 1.1608 10.1827 1.12506 10.1526 1.09496C10.1224 1.06485 10.0867 1.04097 10.0474 1.02468C10.008 1.00839 9.96588 1 9.9233 1H6.80898C5.82579 1 5.02534 1.80045 5.02534 2.78364V3.80133H2.07061C1.48028 3.80133 1 4.2816 1 4.87202V12.7348C0.999989 12.7773 1.00837 12.8195 1.02466 12.8588C1.04095 12.8982 1.06483 12.9339 1.09494 12.964C1.12505 12.9941 1.1608 13.0179 1.20014 13.0342C1.23948 13.0505 1.28164 13.0588 1.32421 13.0588C1.41014 13.0588 1.49255 13.0246 1.55331 12.9639C1.61407 12.9031 1.64822 12.8207 1.64824 12.7348V9.06499C2.13892 9.75134 2.87205 10.2528 3.72134 10.4437V11.3943C3.72134 11.7761 4.0321 12.0869 4.41404 12.0869H5.38783C5.76973 12.0869 6.08053 11.7761 6.08053 11.3943V10.5285H13.1735V11.3943C13.1735 11.7761 13.4843 12.0869 13.8661 12.0869H14.84C15.2219 12.0869 15.5326 11.7761 15.5326 11.3943V10.4437C16.382 10.2529 17.1153 9.75134 17.6058 9.06499V12.1837L16.5733 11.7286C16.3694 11.6386 16.1316 11.6386 15.9276 11.7286L9.98993 14.3467C9.39418 14.6095 9.39504 15.4185 9.98993 15.6809L11.1212 16.1797V16.3923H3.56896C2.50961 16.3923 1.64824 15.5309 1.64824 14.472V14.0312C1.64822 13.9453 1.61407 13.8629 1.55331 13.8021C1.49255 13.7413 1.41014 13.7072 1.32421 13.7072C1.28164 13.7071 1.23948 13.7155 1.20014 13.7318C1.1608 13.748 1.12505 13.7719 1.09494 13.802C1.06483 13.8321 1.04095 13.8678 1.02466 13.9072C1.00837 13.9465 0.999989 13.9886 1 14.0312V14.472C1 15.8884 2.15215 17.0405 3.56892 17.0405H11.1215V19.444C11.1215 19.9207 11.5346 20.3062 12.194 20.5975V21.0242L11.1008 22.4756C11.0751 22.5096 11.0565 22.5483 11.0458 22.5895C11.0352 22.6307 11.0328 22.6736 11.0387 22.7158C11.0447 22.7579 11.0589 22.7985 11.0805 22.8352C11.1021 22.8718 11.1307 22.9039 11.1648 22.9295C11.1988 22.9551 11.2375 22.9738 11.2787 22.9844C11.3199 22.9951 11.3628 22.9975 11.405 22.9916C11.4471 22.9856 11.4877 22.9714 11.5244 22.9498C11.561 22.9282 11.5931 22.8996 11.6187 22.8655L12.194 22.1017V22.6706C12.1933 22.7136 12.2012 22.7563 12.2172 22.7962C12.2332 22.8362 12.2569 22.8725 12.2871 22.9032C12.3173 22.9338 12.3532 22.9582 12.3929 22.9748C12.4326 22.9914 12.4752 23 12.5182 23C12.5612 23 12.6038 22.9914 12.6434 22.9748C12.6831 22.9582 12.7191 22.9338 12.7492 22.9032C12.7794 22.8725 12.8032 22.8362 12.8192 22.7962C12.8351 22.7563 12.843 22.7136 12.8423 22.6706V22.1021L13.4175 22.8656C13.4477 22.9058 13.4869 22.9384 13.5319 22.9609C13.5769 22.9833 13.6265 22.9949 13.6768 22.9948C13.9411 22.9948 14.0972 22.6904 13.9354 22.4756L12.8423 21.0244V20.8321C15.8584 21.7272 21.3798 21.1855 21.3798 19.4439V16.1797L22.5111 15.6809C22.7865 15.5595 22.9577 15.3036 22.9577 15.0141C22.9577 14.7241 22.7865 14.4682 22.5111 14.3467V14.3467ZM16.2506 14.512C16.644 14.512 16.85 14.6914 16.85 14.7534C16.85 14.8155 16.644 14.9947 16.2506 14.9947C15.8603 14.9947 15.651 14.816 15.651 14.7534C15.651 14.6914 15.8571 14.512 16.2506 14.512V14.512ZM6.84786 2.82252H12.4058V3.80137H6.84786V2.82252ZM5.43229 11.3943C5.43229 11.4186 5.41231 11.4386 5.38783 11.4386H4.41404C4.38956 11.4386 4.36958 11.4186 4.36958 11.3943V10.5264C4.40833 10.5276 4.44708 10.5284 4.486 10.5284H5.43229V11.3943ZM5.43229 9.88017H4.486C4.44691 9.88017 4.40833 9.87867 4.36958 9.87716V8.99196C4.36958 8.96748 4.38951 8.9475 4.41404 8.9475H5.38783C5.41231 8.9475 5.43229 8.96748 5.43229 8.99196V9.88017ZM14.8843 11.3943C14.8843 11.4186 14.8646 11.4386 14.84 11.4386H13.8663C13.8418 11.4386 13.822 11.4186 13.822 11.3943V10.5284H14.7682C14.807 10.5284 14.8457 10.5277 14.8843 10.5264V11.3943ZM14.8843 9.87716C14.8457 9.87867 14.8071 9.88017 14.7682 9.88017H13.8218V8.99196C13.8218 8.96748 13.8418 8.9475 13.8661 8.9475H14.84C14.8645 8.9475 14.8843 8.96748 14.8843 8.99196V9.87716ZM15.5327 9.77462V8.99179C15.5327 8.60989 15.2219 8.2993 14.84 8.2993H13.8663C13.4844 8.2993 13.1735 8.60989 13.1735 8.99179V9.88H6.08053V8.99179C6.08053 8.60989 5.76973 8.2993 5.38783 8.2993H4.41404C4.0321 8.2993 3.72134 8.60989 3.72134 8.99179V9.77462C2.52688 9.43985 1.64824 8.34204 1.64824 7.04238V4.87198C1.64824 4.63906 1.83752 4.44978 2.07061 4.44978H17.1836C17.434 4.44978 17.6058 4.65483 17.6058 4.87198V7.04238C17.6058 8.34204 16.7272 9.44002 15.5327 9.77462ZM12.194 19.8783C11.8725 19.6972 11.7697 19.5342 11.7697 19.4439V16.4658L12.1941 16.6528L12.194 19.8783ZM20.7314 19.4439C20.7314 19.5844 20.4829 19.8994 19.552 20.1882C17.7605 20.7433 14.7412 20.7711 12.8423 20.154V16.9334C13.1507 17.0762 12.7013 16.8764 15.9277 18.2991C16.0295 18.3439 16.1394 18.367 16.2505 18.367C16.3617 18.367 16.4716 18.3439 16.5733 18.2991L20.7314 16.4658L20.7314 19.4439Z" fill="#222733"/>
</svg>
