<svg width="24" height="24" viewBox="0 0 24 24" fill="none" xmlns="http://www.w3.org/2000/svg">
<g clip-path="url(#clip0_1684_12008)">
<path d="M2.64876 9.38011C2.67998 9.41141 2.71708 9.43624 2.75792 9.45316C2.79876 9.47008 2.84255 9.47877 2.88676 9.47872C2.95333 9.47871 3.01841 9.45895 3.07376 9.42196C3.12912 9.38497 3.17226 9.3324 3.19774 9.27089C3.22322 9.20939 3.2299 9.14171 3.21692 9.07641C3.20395 9.01111 3.17191 8.95112 3.12484 8.90403L2.30748 8.08667L3.12489 7.26949C3.18626 7.206 3.22023 7.12093 3.21948 7.03263C3.21873 6.94433 3.18332 6.85986 3.12088 6.79741C3.05844 6.73497 2.97396 6.69956 2.88566 6.69881C2.79736 6.69806 2.7123 6.73203 2.6488 6.7934L1.59349 7.84872C1.56223 7.87997 1.53742 7.91708 1.5205 7.95793C1.50358 7.99877 1.49487 8.04255 1.49487 8.08676C1.49487 8.13097 1.50358 8.17475 1.5205 8.21559C1.53742 8.25643 1.56223 8.29354 1.59349 8.3248L2.64876 9.38011ZM5.98918 8.08667L5.17182 8.90403C5.14055 8.93529 5.11575 8.97241 5.09884 9.01326C5.08193 9.05411 5.07323 9.09789 5.07325 9.14211C5.07327 9.18632 5.082 9.2301 5.09894 9.27094C5.11588 9.31178 5.14071 9.34887 5.172 9.38011C5.23758 9.4457 5.32379 9.47872 5.40995 9.47872C5.49611 9.47872 5.58227 9.44575 5.6479 9.38011L6.70339 8.32462C6.73465 8.29338 6.75944 8.25628 6.77636 8.21545C6.79327 8.17462 6.80198 8.13086 6.80198 8.08667C6.80198 8.04247 6.79327 7.99871 6.77636 7.95789C6.75944 7.91706 6.73465 7.87996 6.70339 7.84872L5.6479 6.79322C5.61666 6.76197 5.57956 6.73718 5.53873 6.72026C5.4979 6.70335 5.45414 6.69464 5.40995 6.69464C5.36575 6.69464 5.32199 6.70335 5.28116 6.72026C5.24034 6.73718 5.20324 6.76197 5.172 6.79322C5.1407 6.82447 5.11588 6.86157 5.09894 6.90242C5.082 6.94326 5.07328 6.98705 5.07328 7.03127C5.07328 7.07548 5.082 7.11927 5.09894 7.16011C5.11588 7.20096 5.1407 7.23807 5.172 7.26931L5.98918 8.08667ZM3.64657 9.4554C3.68691 9.47117 3.72869 9.47876 3.76957 9.47876C3.83722 9.47875 3.9033 9.45837 3.9592 9.42027C4.01511 9.38217 4.05824 9.32812 4.08299 9.26516L4.91212 7.15435C4.92885 7.11311 4.93723 7.06896 4.93679 7.02445C4.93634 6.97995 4.92707 6.93597 4.90951 6.89508C4.89195 6.85418 4.86646 6.81717 4.8345 6.78619C4.80255 6.75521 4.76476 6.73088 4.72334 6.7146C4.68192 6.69832 4.63768 6.69042 4.59318 6.69136C4.54868 6.69229 4.50481 6.70204 4.46411 6.72005C4.4234 6.73805 4.38668 6.76395 4.35605 6.79624C4.32542 6.82853 4.3015 6.86658 4.28568 6.90818L3.45633 9.01898C3.38845 9.19198 3.47353 9.38748 3.64657 9.4554ZM2.022 11.4535H4.28968C4.37896 11.4535 4.46459 11.4181 4.52772 11.3549C4.59086 11.2918 4.62632 11.2062 4.62632 11.1169C4.62632 11.0276 4.59086 10.942 4.52772 10.8789C4.46459 10.8157 4.37896 10.7803 4.28968 10.7803H2.022C1.9778 10.7802 1.93404 10.7889 1.8932 10.8059C1.85237 10.8228 1.81526 10.8476 1.78401 10.8788C1.75276 10.9101 1.72796 10.9472 1.71105 10.988C1.69414 11.0288 1.68544 11.0726 1.68545 11.1168C1.68542 11.161 1.69411 11.2048 1.71101 11.2457C1.72792 11.2865 1.7527 11.3236 1.78396 11.3549C1.81521 11.3862 1.85232 11.411 1.89317 11.4279C1.93401 11.4448 1.97779 11.4535 2.022 11.4535ZM9.51261 10.7803H5.52576C5.43647 10.7803 5.35085 10.8157 5.28771 10.8789C5.22458 10.942 5.18911 11.0276 5.18911 11.1169C5.18911 11.2062 5.22458 11.2918 5.28771 11.3549C5.35085 11.4181 5.43647 11.4535 5.52576 11.4535H9.51261C9.55728 11.4543 9.60165 11.4461 9.64313 11.4295C9.68461 11.4129 9.72238 11.3882 9.75423 11.3569C9.78608 11.3256 9.81137 11.2882 9.82864 11.247C9.84591 11.2058 9.8548 11.1616 9.8548 11.1169C9.8548 11.0722 9.84591 11.028 9.82864 10.9868C9.81137 10.9456 9.78608 10.9082 9.75423 10.8769C9.72238 10.8456 9.68461 10.8209 9.64313 10.8043C9.60165 10.7877 9.55728 10.7795 9.51261 10.7803ZM2.022 12.8734H2.98801C3.0773 12.8734 3.16293 12.8379 3.22607 12.7747C3.28921 12.7116 3.32468 12.626 3.32468 12.5367C3.32468 12.4474 3.28921 12.3618 3.22607 12.2986C3.16293 12.2355 3.0773 12.2 2.98801 12.2H2.022C1.9778 12.2 1.93403 12.2087 1.89319 12.2256C1.85235 12.2425 1.81525 12.2673 1.78399 12.2986C1.75274 12.3299 1.72795 12.367 1.71104 12.4078C1.69413 12.4486 1.68543 12.4924 1.68545 12.5366C1.68542 12.5808 1.69411 12.6246 1.71101 12.6655C1.72792 12.7063 1.7527 12.7434 1.78396 12.7747C1.81521 12.806 1.85232 12.8308 1.89317 12.8477C1.93401 12.8646 1.97779 12.8734 2.022 12.8734ZM8.28111 12.2C8.2369 12.2 8.19313 12.2087 8.1523 12.2256C8.11146 12.2425 8.07435 12.2673 8.0431 12.2986C8.01184 12.3299 7.98705 12.367 7.97014 12.4078C7.95324 12.4486 7.94454 12.4924 7.94455 12.5366C7.94453 12.5808 7.95321 12.6246 7.97012 12.6655C7.98702 12.7063 8.01181 12.7434 8.04306 12.7747C8.07432 12.806 8.11143 12.8308 8.15227 12.8477C8.19312 12.8646 8.2369 12.8734 8.28111 12.8734H8.86932C8.91386 12.8739 8.95806 12.8655 8.99935 12.8489C9.04065 12.8322 9.07823 12.8074 9.10991 12.7761C9.14158 12.7448 9.16673 12.7075 9.1839 12.6664C9.20106 12.6253 9.2099 12.5812 9.2099 12.5367C9.2099 12.4921 9.20106 12.448 9.1839 12.4069C9.16673 12.3658 9.14158 12.3286 9.10991 12.2972C9.07823 12.2659 9.04065 12.2412 8.99935 12.2245C8.95806 12.2078 8.91386 12.1995 8.86932 12.2H8.28111ZM7.39511 12.5366C7.39509 12.4474 7.35963 12.3618 7.29652 12.2986C7.23341 12.2355 7.14781 12.2 7.05855 12.2H4.16915C4.12494 12.2 4.08117 12.2087 4.04033 12.2256C3.99948 12.2425 3.96237 12.2673 3.93111 12.2986C3.89985 12.3298 3.87506 12.3669 3.85815 12.4078C3.84124 12.4486 3.83254 12.4924 3.83255 12.5366C3.83253 12.5808 3.84121 12.6246 3.85812 12.6655C3.87503 12.7063 3.89982 12.7435 3.93108 12.7747C3.96234 12.806 3.99945 12.8308 4.0403 12.8477C4.08115 12.8647 4.12494 12.8734 4.16915 12.8734H7.05855C7.10276 12.8733 7.14653 12.8646 7.18737 12.8477C7.22821 12.8308 7.26532 12.806 7.29657 12.7747C7.32782 12.7434 7.35261 12.7063 7.36951 12.6655C7.38642 12.6246 7.39512 12.5808 7.39511 12.5366ZM9.60016 12.5366C9.60015 12.5808 9.60884 12.6246 9.62575 12.6655C9.64266 12.7063 9.66745 12.7434 9.6987 12.7747C9.72995 12.806 9.76705 12.8308 9.80789 12.8477C9.84873 12.8646 9.89251 12.8733 9.93672 12.8734H11.0386C11.0831 12.8739 11.1273 12.8655 11.1686 12.8489C11.2099 12.8322 11.2475 12.8074 11.2792 12.7761C11.3108 12.7448 11.336 12.7075 11.3531 12.6664C11.3703 12.6253 11.3791 12.5812 11.3791 12.5367C11.3791 12.4921 11.3703 12.448 11.3531 12.4069C11.336 12.3658 11.3108 12.3286 11.2792 12.2972C11.2475 12.2659 11.2099 12.2412 11.1686 12.2245C11.1273 12.2078 11.0831 12.1995 11.0386 12.2H9.93672C9.84746 12.2 9.76186 12.2355 9.69874 12.2986C9.63563 12.3618 9.60017 12.4474 9.60016 12.5366ZM7.76697 8.35674H8.92911C8.97365 8.35726 9.01785 8.34893 9.05915 8.33224C9.10044 8.31555 9.13802 8.29083 9.1697 8.25952C9.20138 8.22821 9.22652 8.19092 9.24369 8.14982C9.26085 8.10871 9.26969 8.06461 9.26969 8.02007C9.26969 7.97553 9.26085 7.93143 9.24369 7.89033C9.22652 7.84922 9.20138 7.81194 9.1697 7.78062C9.13802 7.74931 9.10044 7.72459 9.05915 7.7079C9.01785 7.69122 8.97365 7.68289 8.92911 7.6834H7.76697C7.67768 7.6834 7.59205 7.71887 7.52891 7.78201C7.46577 7.84515 7.4303 7.93078 7.4303 8.02007C7.4303 8.10936 7.46577 8.19499 7.52891 8.25813C7.59205 8.32127 7.67768 8.35674 7.76697 8.35674ZM10.2308 8.35674H17.3221C17.3663 8.35674 17.4101 8.34803 17.4509 8.33111C17.4917 8.31418 17.5289 8.28937 17.5601 8.2581C17.5914 8.22683 17.6161 8.18971 17.6331 8.14885C17.65 8.108 17.6586 8.06422 17.6586 8.02C17.6586 7.9758 17.6499 7.93203 17.633 7.89119C17.6161 7.85035 17.5913 7.81324 17.5601 7.78198C17.5288 7.75072 17.4917 7.72593 17.4509 7.70901C17.41 7.6921 17.3663 7.6834 17.3221 7.6834H10.2308C10.1415 7.6834 10.0559 7.71887 9.99276 7.78201C9.92962 7.84515 9.89415 7.93078 9.89415 8.02007C9.89415 8.10936 9.92962 8.19499 9.99276 8.25813C10.0559 8.32127 10.1415 8.35674 10.2308 8.35674ZM16.245 9.16444H13.3724C13.2831 9.16444 13.1975 9.19991 13.1344 9.26304C13.0712 9.32618 13.0358 9.41181 13.0358 9.50109C13.0358 9.59037 13.0712 9.676 13.1344 9.73914C13.1975 9.80227 13.2831 9.83774 13.3724 9.83774H16.245C16.3342 9.83774 16.4199 9.80227 16.483 9.73914C16.5461 9.676 16.5816 9.59037 16.5816 9.50109C16.5816 9.41181 16.5461 9.32618 16.483 9.26304C16.4199 9.19991 16.3342 9.16444 16.245 9.16444ZM12.2954 9.16444H11.3079C11.2637 9.16444 11.2199 9.17315 11.1791 9.19008C11.1382 9.207 11.1011 9.23181 11.0699 9.26308C11.0386 9.29435 11.0138 9.33148 10.9969 9.37233C10.98 9.41318 10.9713 9.45697 10.9714 9.50118C10.9714 9.54538 10.9801 9.58915 10.997 9.62998C11.0139 9.67082 11.0387 9.70792 11.0699 9.73917C11.1012 9.77043 11.1383 9.79522 11.1791 9.81213C11.22 9.82904 11.2637 9.83774 11.3079 9.83774H12.2953C12.3395 9.83774 12.3833 9.82904 12.4241 9.81213C12.465 9.79522 12.5021 9.77043 12.5333 9.73917C12.5646 9.70792 12.5894 9.67082 12.6063 9.62998C12.6232 9.58915 12.6319 9.54538 12.6319 9.50118C12.6319 9.45697 12.6232 9.41318 12.6063 9.37233C12.5894 9.33148 12.5646 9.29435 12.5334 9.26308C12.5021 9.23181 12.465 9.207 12.4241 9.19008C12.3833 9.17315 12.3395 9.16444 12.2953 9.16444H12.2954ZM7.76697 9.83774H10.1859C10.2752 9.83774 10.3608 9.80227 10.4239 9.73914C10.4871 9.676 10.5225 9.59037 10.5225 9.50109C10.5225 9.41181 10.4871 9.32618 10.4239 9.26304C10.3608 9.19991 10.2752 9.16444 10.1859 9.16444H7.76697C7.7223 9.16371 7.67793 9.17188 7.63645 9.18847C7.59496 9.20506 7.5572 9.22974 7.52535 9.26108C7.4935 9.29241 7.4682 9.32977 7.45094 9.37097C7.43367 9.41218 7.42478 9.45641 7.42478 9.50109C7.42478 9.54577 7.43367 9.59 7.45094 9.63121C7.4682 9.67241 7.4935 9.70977 7.52535 9.7411C7.5572 9.77244 7.59496 9.79712 7.63645 9.81371C7.67793 9.8303 7.7223 9.83847 7.76697 9.83774ZM7.06277 13.6079H4.79523C4.75102 13.6079 4.70724 13.6166 4.6664 13.6335C4.62555 13.6504 4.58843 13.6752 4.55716 13.7064C4.52589 13.7377 4.50109 13.7748 4.48416 13.8156C4.46723 13.8565 4.45851 13.9002 4.4585 13.9444C4.4585 13.9887 4.46722 14.0324 4.48414 14.0733C4.50107 14.1141 4.52588 14.1512 4.55714 14.1825C4.58841 14.2137 4.62553 14.2385 4.66639 14.2554C4.70724 14.2724 4.75102 14.2811 4.79523 14.281H7.06277C7.15203 14.281 7.23763 14.2455 7.30074 14.1824C7.36386 14.1193 7.39932 14.0337 7.39933 13.9444C7.39931 13.8552 7.36384 13.7696 7.30073 13.7065C7.23762 13.6434 7.15202 13.6079 7.06277 13.6079ZM3.76418 13.6079H2.02196C1.97776 13.6079 1.93399 13.6166 1.89316 13.6335C1.85232 13.6504 1.81522 13.6752 1.78396 13.7064C1.75271 13.7377 1.72792 13.7748 1.71101 13.8156C1.6941 13.8565 1.6854 13.9002 1.6854 13.9444C1.68539 13.9886 1.69409 14.0324 1.711 14.0733C1.7279 14.1141 1.75269 14.1512 1.78395 14.1825C1.8152 14.2137 1.85231 14.2385 1.89315 14.2554C1.93399 14.2723 1.97776 14.281 2.02196 14.281H3.76409C3.80829 14.281 3.85206 14.2723 3.8929 14.2554C3.93374 14.2385 3.97084 14.2137 4.0021 14.1825C4.03335 14.1512 4.05814 14.1141 4.07505 14.0733C4.09196 14.0324 4.10066 13.9886 4.10065 13.9444C4.10065 13.9002 4.09195 13.8565 4.07504 13.8156C4.05813 13.7748 4.03334 13.7377 4.00208 13.7064C3.97083 13.6752 3.93373 13.6504 3.89289 13.6335C3.85205 13.6166 3.80829 13.6079 3.76409 13.6079H3.76418ZM11.1733 13.6079H8.21103C8.16683 13.6079 8.12306 13.6166 8.08223 13.6335C8.04139 13.6504 8.00429 13.6752 7.97303 13.7064C7.94178 13.7377 7.91699 13.7748 7.90008 13.8156C7.88317 13.8565 7.87447 13.9002 7.87447 13.9444C7.87446 13.9886 7.88316 14.0324 7.90007 14.0733C7.91697 14.1141 7.94176 14.1512 7.97302 14.1825C8.00427 14.2137 8.04138 14.2385 8.08222 14.2554C8.12306 14.2723 8.16683 14.281 8.21103 14.281H11.1733C11.2626 14.281 11.3481 14.2455 11.4113 14.1824C11.4744 14.1193 11.5098 14.0337 11.5098 13.9444C11.5098 13.8552 11.4744 13.7696 11.4112 13.7065C11.3481 13.6434 11.2625 13.6079 11.1733 13.6079H11.1733ZM15.1793 11.8787H13.5595C13.4702 11.8787 13.3846 11.9142 13.3214 11.9773C13.2583 12.0405 13.2228 12.1261 13.2228 12.2154C13.2228 12.3047 13.2583 12.3903 13.3214 12.4534C13.3846 12.5166 13.4702 12.552 13.5595 12.552H15.1793C15.2235 12.552 15.2673 12.5433 15.3081 12.5264C15.349 12.5095 15.3861 12.4847 15.4173 12.4534C15.4486 12.4221 15.4734 12.385 15.4903 12.3442C15.5072 12.3033 15.5159 12.2595 15.5159 12.2153C15.5159 12.1711 15.5072 12.1273 15.4903 12.0865C15.4734 12.0456 15.4486 12.0085 15.4173 11.9773C15.386 11.946 15.3489 11.9212 15.3081 11.9043C15.2672 11.8874 15.2235 11.8787 15.1793 11.8787ZM17.9901 12.552H20.2767C20.3214 12.5528 20.3658 12.5446 20.4073 12.528C20.4487 12.5114 20.4865 12.4867 20.5184 12.4554C20.5502 12.4241 20.5755 12.3867 20.5928 12.3455C20.61 12.3043 20.6189 12.2601 20.6189 12.2154C20.6189 12.1707 20.61 12.1265 20.5928 12.0853C20.5755 12.0441 20.5502 12.0067 20.5184 11.9754C20.4865 11.944 20.4487 11.9194 20.4073 11.9028C20.3658 11.8862 20.3214 11.878 20.2767 11.8787H17.9901C17.9459 11.8787 17.9022 11.8874 17.8613 11.9043C17.8205 11.9213 17.7834 11.946 17.7522 11.9773C17.7209 12.0085 17.6961 12.0457 17.6792 12.0865C17.6623 12.1273 17.6536 12.1711 17.6536 12.2153C17.6536 12.2595 17.6623 12.3033 17.6792 12.3441C17.6961 12.385 17.7209 12.4221 17.7521 12.4534C17.7834 12.4846 17.8205 12.5094 17.8613 12.5264C17.9022 12.5433 17.9459 12.552 17.9901 12.552H17.9901ZM16.8467 11.8787H16.3227C16.2334 11.8787 16.1478 11.9142 16.0847 11.9773C16.0215 12.0405 15.9861 12.1261 15.9861 12.2154C15.9861 12.3047 16.0215 12.3903 16.0847 12.4534C16.1478 12.5166 16.2334 12.552 16.3227 12.552H16.8467C16.8909 12.552 16.9347 12.5433 16.9755 12.5264C17.0164 12.5095 17.0535 12.4847 17.0847 12.4534C17.116 12.4221 17.1408 12.385 17.1577 12.3441C17.1746 12.3033 17.1833 12.2595 17.1833 12.2153C17.1833 12.1711 17.1746 12.1273 17.1576 12.0865C17.1407 12.0457 17.1159 12.0085 17.0847 11.9773C17.0534 11.946 17.0163 11.9213 16.9755 11.9043C16.9347 11.8874 16.8909 11.8787 16.8467 11.8787ZM13.5595 16.2202H15.1793C15.2235 16.2203 15.2673 16.2116 15.3081 16.1947C15.349 16.1778 15.3861 16.153 15.4173 16.1217C15.4486 16.0904 15.4734 16.0533 15.4903 16.0125C15.5072 15.9716 15.5159 15.9279 15.5159 15.8836C15.5159 15.8394 15.5072 15.7957 15.4903 15.7548C15.4734 15.714 15.4486 15.6769 15.4173 15.6456C15.386 15.6144 15.3489 15.5896 15.3081 15.5727C15.2672 15.5558 15.2235 15.5471 15.1793 15.5471H13.5595C13.4702 15.5471 13.3846 15.5826 13.3215 15.6457C13.2584 15.7088 13.2229 15.7944 13.2229 15.8836C13.2229 15.9278 13.2316 15.9716 13.2485 16.0125C13.2654 16.0533 13.2902 16.0904 13.3215 16.1217C13.3527 16.1529 13.3898 16.1777 13.4307 16.1946C13.4715 16.2115 13.5153 16.2202 13.5595 16.2202ZM17.9901 16.2202H20.2767C20.366 16.2202 20.4516 16.1848 20.5147 16.1217C20.5779 16.0585 20.6133 15.9729 20.6133 15.8837C20.6133 15.7944 20.5779 15.7088 20.5147 15.6457C20.4516 15.5825 20.366 15.5471 20.2767 15.5471H17.9901C17.9459 15.5471 17.9022 15.5558 17.8613 15.5727C17.8205 15.5896 17.7834 15.6144 17.7522 15.6456C17.7209 15.6769 17.6961 15.714 17.6792 15.7548C17.6623 15.7957 17.6536 15.8394 17.6536 15.8836C17.6536 15.9278 17.6623 15.9716 17.6792 16.0125C17.6961 16.0533 17.7209 16.0904 17.7521 16.1217C17.7834 16.1529 17.8205 16.1777 17.8613 16.1946C17.9022 16.2115 17.9459 16.2202 17.9901 16.2202H17.9901ZM16.3227 16.2202H16.8467C16.936 16.2202 17.0216 16.1848 17.0847 16.1217C17.1478 16.0585 17.1833 15.9729 17.1833 15.8837C17.1833 15.7944 17.1478 15.7088 17.0847 15.6457C17.0216 15.5825 16.936 15.5471 16.8467 15.5471H16.3227C16.2785 15.5471 16.2347 15.5558 16.1939 15.5727C16.1531 15.5896 16.116 15.6144 16.0847 15.6456C16.0534 15.6769 16.0286 15.714 16.0117 15.7548C15.9948 15.7957 15.9861 15.8394 15.9861 15.8836C15.9861 15.9279 15.9948 15.9716 16.0117 16.0125C16.0286 16.0533 16.0534 16.0904 16.0847 16.1217C16.1159 16.153 16.153 16.1778 16.1939 16.1947C16.2347 16.2116 16.2785 16.2203 16.3227 16.2202ZM15.1793 19.2154H13.5595C13.3736 19.2154 13.2229 19.3662 13.2229 19.552C13.2229 19.7378 13.3736 19.8886 13.5595 19.8886H15.1793C15.3653 19.8886 15.5159 19.7378 15.5159 19.552C15.5159 19.3661 15.3653 19.2154 15.1793 19.2154ZM20.2767 19.2154H17.9901C17.8042 19.2154 17.6536 19.3662 17.6536 19.552C17.6536 19.7378 17.8041 19.8886 17.9901 19.8886H20.2768C20.4628 19.8886 20.6135 19.7378 20.6135 19.552C20.6135 19.3661 20.4628 19.2154 20.2768 19.2154H20.2767ZM16.8467 19.2154H16.3227C16.1367 19.2154 15.9859 19.3662 15.9859 19.552C15.9859 19.7378 16.1367 19.8886 16.3227 19.8886H16.8467C17.0327 19.8886 17.1833 19.7378 17.1833 19.552C17.1833 19.3661 17.0327 19.2154 16.8467 19.2154Z" fill="#222733"/>
<path d="M21.5188 1H1.48153C0.664714 1 0 1.66453 0 2.48153V18.7689C0 19.5857 0.664714 20.2502 1.48153 20.2502H2.74834C2.79254 20.2502 2.83631 20.2415 2.87714 20.2246C2.91798 20.2077 2.95508 20.1829 2.98634 20.1516C3.01759 20.1204 3.04238 20.0833 3.05929 20.0425C3.0762 20.0016 3.0849 19.9578 3.0849 19.9137C3.08488 19.8244 3.04941 19.7388 2.9863 19.6757C2.92319 19.6126 2.83759 19.5771 2.74834 19.5771H1.48153C1.03586 19.5771 0.673294 19.2146 0.673294 18.7689V17.4918H12.9369V18.072H12.67C12.3048 18.072 12.0079 18.3689 12.0079 18.734V19.577H4.79491C4.70566 19.5771 4.62006 19.6125 4.55695 19.6756C4.49384 19.7388 4.45837 19.8244 4.45835 19.9136C4.45835 19.9578 4.46705 20.0016 4.48396 20.0424C4.50087 20.0832 4.52566 20.1203 4.55691 20.1516C4.58817 20.1829 4.62527 20.2076 4.66611 20.2246C4.70694 20.2415 4.75071 20.2502 4.79491 20.2502H8.03142V21.4574H7.01505C6.337 21.4574 5.78553 22.0092 5.78553 22.6871V23.4142C5.78553 23.7236 6.0371 23.9752 6.34648 23.9752H16.6281C16.9374 23.9752 17.1891 23.7236 17.1891 23.4142V22.6871C17.1891 22.0092 16.6375 21.4575 15.9595 21.4575H14.9432V21.032H21.1661C21.5311 21.032 21.828 20.7351 21.828 20.3699V20.2114C22.4841 20.0592 22.9746 19.4704 22.9746 18.7689L23 2.4814C23.0002 1.66453 22.3356 1 21.5188 1ZM12.6812 16.6905V15.077H21.1549V16.6905H12.6812ZM13.61 14.4037V13.6954H20.2259V14.4037H13.61ZM20.2259 17.3636V18.072H13.6101V17.3636H20.2259ZM8.70458 20.2503H12.0079V20.3701C12.0079 20.7351 12.3049 21.032 12.67 21.032H14.27V21.4575H8.70458V20.2503ZM15.9597 22.1309C16.2664 22.1309 16.5159 22.3804 16.5159 22.6871V23.3021H6.4586V22.6871C6.4586 22.3804 6.70833 22.1309 7.01505 22.1309H15.9597ZM21.1549 20.3587H12.6812V18.7454H21.1549V20.3587ZM22.3014 18.7689C22.3014 19.0949 22.107 19.3759 21.8282 19.5034V18.7339C21.8282 18.369 21.5311 18.072 21.1661 18.072H20.8992V17.4919H22.3014V18.7689ZM22.3014 16.8188H21.8172C21.8239 16.7807 21.8282 15.0658 21.8282 15.0658C21.8282 14.7006 21.5311 14.4037 21.1661 14.4037H20.8992V13.6955H21.1661C21.5311 13.6955 21.8282 13.3984 21.8282 13.0334V11.3974C21.8282 11.0324 21.5311 10.7354 21.1661 10.7354H19.2648C19.2206 10.7354 19.1768 10.7441 19.136 10.761C19.0951 10.7779 19.058 10.8027 19.0267 10.834C18.9955 10.8653 18.9707 10.9024 18.9538 10.9432C18.9369 10.9841 18.9282 11.0279 18.9282 11.0721C18.9282 11.1163 18.9369 11.1601 18.9538 11.2009C18.9707 11.2418 18.9955 11.2789 19.0268 11.3101C19.058 11.3414 19.0951 11.3662 19.136 11.3831C19.1768 11.4 19.2206 11.4087 19.2648 11.4087H21.1549V13.0222H12.6812V11.4087H17.1703C17.2145 11.4087 17.2583 11.4 17.2991 11.3831C17.3399 11.3661 17.377 11.3414 17.4083 11.3101C17.4396 11.2788 17.4643 11.2417 17.4813 11.2009C17.4982 11.1601 17.5069 11.1163 17.5069 11.0721C17.5069 11.0279 17.4982 10.9841 17.4813 10.9433C17.4644 10.9024 17.4396 10.8653 17.4084 10.834C17.3771 10.8027 17.34 10.7779 17.2991 10.761C17.2583 10.7441 17.2145 10.7354 17.1703 10.7354H12.67C12.3048 10.7354 12.0079 11.0324 12.0079 11.3974V13.0334C12.0079 13.3984 12.3049 13.6955 12.67 13.6955H12.9369V14.4037H12.67C12.3048 14.4037 12.0079 14.7008 12.0079 15.0658C12.0079 15.0658 12.0121 16.7807 12.019 16.8188H0.673294V5.57892H22.3014V16.8188ZM22.3014 4.90563H0.698091V2.4814C0.698091 2.03586 1.06061 1.67329 1.50633 1.67329H21.4932C21.9389 1.67329 22.3015 2.03582 22.3015 2.48153L22.3014 4.90563Z" fill="#222733"/>
<path d="M2.48242 2.29199C1.93774 2.29199 1.49463 2.73506 1.49463 3.27974C1.49463 3.82442 1.93774 4.26766 2.48242 4.26766C3.0271 4.26766 3.47035 3.82442 3.47035 3.27974C3.47035 2.73506 3.0271 2.29199 2.48242 2.29199ZM2.48242 3.59437C2.30902 3.59437 2.16779 3.45332 2.16779 3.27974C2.16779 3.10634 2.30902 2.9651 2.48242 2.9651C2.65595 2.9651 2.79705 3.10638 2.79705 3.27974C2.79698 3.36316 2.76381 3.44315 2.70482 3.50214C2.64583 3.56113 2.56584 3.5943 2.48242 3.59437ZM4.99752 2.29199C4.45284 2.29199 4.00959 2.73506 4.00959 3.27974C4.00959 3.82442 4.45284 4.26766 4.99752 4.26766C5.5422 4.26766 5.98526 3.82442 5.98526 3.27974C5.98526 2.73506 5.54202 2.29199 4.99752 2.29199ZM4.99752 3.59437C4.91409 3.5943 4.8341 3.56113 4.77511 3.50214C4.71613 3.44315 4.68295 3.36316 4.68288 3.27974C4.68288 3.10634 4.82394 2.9651 4.99752 2.9651C5.17091 2.9651 5.31215 3.10638 5.31215 3.27974C5.31215 3.45327 5.17087 3.59437 4.99752 3.59437ZM7.51243 2.29199C6.96775 2.29199 6.52469 2.73506 6.52469 3.27974C6.52469 3.82442 6.96775 4.26766 7.51243 4.26766C8.05711 4.26766 8.5004 3.82442 8.5004 3.27974C8.5004 2.73506 8.05711 2.29199 7.51243 2.29199ZM7.51243 3.59437C7.33908 3.59437 7.1978 3.45332 7.1978 3.27974C7.1978 3.10634 7.33908 2.9651 7.51243 2.9651C7.68601 2.9651 7.82707 3.10638 7.82707 3.27974C7.82699 3.36316 7.79382 3.44315 7.73483 3.50214C7.67584 3.56113 7.59586 3.5943 7.51243 3.59437Z" fill="#222733"/>
</g>
<defs>
<clipPath id="clip0_1684_12008">
<rect width="24" height="24" fill="white"/>
</clipPath>
</defs>
</svg>
