<svg width="224" height="224" viewBox="0 0 224 224" fill="none" xmlns="http://www.w3.org/2000/svg">
<g clip-path="url(#clip0_612_18931)">
<mask id="mask0_612_18931" style="mask-type:luminance" maskUnits="userSpaceOnUse" x="32" y="32" width="159" height="159">
<path d="M190.877 111.826C190.877 68.1599 155.478 32.7612 111.812 32.7612C68.1454 32.7612 32.7468 68.1599 32.7468 111.826C32.7468 155.493 68.1454 190.891 111.812 190.891C155.478 190.891 190.877 155.493 190.877 111.826Z" fill="white"/>
<path d="M190.877 111.827C190.877 68.1602 155.479 32.7615 111.812 32.7615C68.1457 32.7615 32.7471 68.1602 32.7471 111.827C32.7471 155.493 68.1457 190.892 111.812 190.892C155.479 190.892 190.877 155.493 190.877 111.827Z" fill="white"/>
</mask>
<g mask="url(#mask0_612_18931)">
<path d="M170.268 158.568L102.063 226.773C101.425 227.411 100.388 227.42 99.7411 226.773C99.0943 226.126 99.0943 225.098 99.7411 224.451L167.946 156.246C168.585 155.607 169.621 155.599 170.268 156.246C170.915 156.893 170.915 157.921 170.268 158.568Z" fill="white"/>
<path d="M162.357 150.657L94.1521 218.862C93.5136 219.5 92.4771 219.509 91.8303 218.862C91.1834 218.215 91.1834 217.187 91.8302 216.54L160.035 148.335C160.674 147.696 161.71 147.688 162.357 148.335C163.004 148.982 163.004 150.01 162.357 150.657Z" fill="white"/>
<path d="M154.446 142.746L86.2411 210.951C85.6026 211.589 84.566 211.598 83.9192 210.951C83.2724 210.304 83.2724 209.276 83.9192 208.629L152.124 140.424C152.763 139.785 153.799 139.777 154.446 140.424C155.093 141.071 155.093 142.099 154.446 142.746Z" fill="white"/>
<path d="M146.527 134.826L78.3219 203.032C77.6834 203.67 76.6468 203.678 76 203.032C75.3532 202.385 75.3532 201.356 76 200.71L144.205 132.505C144.844 131.866 145.88 131.858 146.527 132.505C147.174 133.151 147.174 134.18 146.527 134.826Z" fill="white"/>
<path d="M138.616 126.915L70.4109 195.121C69.7724 195.759 68.7358 195.767 68.089 195.121C67.4422 194.474 67.4422 193.445 68.089 192.799L136.294 124.594C136.933 123.955 137.969 123.947 138.616 124.594C139.263 125.24 139.263 126.269 138.616 126.915Z" fill="white"/>
<path d="M130.697 118.996L62.4917 187.201C61.8531 187.84 60.8166 187.848 60.1698 187.201C59.523 186.555 59.523 185.526 60.1698 184.879L128.375 116.674C129.013 116.036 130.05 116.028 130.697 116.674C131.344 117.321 131.344 118.349 130.697 118.996Z" fill="white"/>
<path d="M122.786 111.085L54.5807 179.29C53.9422 179.929 52.9056 179.937 52.2588 179.29C51.612 178.644 51.612 177.615 52.2588 176.968L120.464 108.763C121.102 108.125 122.139 108.117 122.786 108.763C123.433 109.41 123.433 110.438 122.786 111.085Z" fill="white"/>
<path d="M114.875 103.174L46.6697 171.379C46.0312 172.018 44.9946 172.026 44.3478 171.379C43.701 170.733 43.701 169.704 44.3478 169.058L112.553 100.852C113.191 100.214 114.228 100.206 114.875 100.852C115.522 101.499 115.522 102.527 114.875 103.174Z" fill="white"/>
<path d="M106.956 95.255L38.7505 163.46C38.1119 164.099 37.0754 164.107 36.4286 163.46C35.7818 162.813 35.7818 161.785 36.4286 161.138L104.634 92.9331C105.272 92.2946 106.309 92.2863 106.956 92.9331C107.602 93.5799 107.602 94.6082 106.956 95.255Z" fill="white"/>
<path d="M99.0446 87.344L30.8395 155.549C30.201 156.188 29.1644 156.196 28.5176 155.549C27.8708 154.902 27.8708 153.874 28.5176 153.227L96.7228 85.0221C97.3613 84.3836 98.3978 84.3753 99.0446 85.0222C99.6914 85.669 99.6914 86.6972 99.0446 87.344Z" fill="white"/>
<path d="M91.1337 79.433L22.9286 147.638C22.29 148.277 21.2535 148.285 20.6067 147.638C19.9599 146.991 19.9599 145.963 20.6067 145.316L88.8118 77.1112C89.4503 76.4726 90.4869 76.4644 91.1337 77.1112C91.7805 77.758 91.7805 78.7862 91.1337 79.433Z" fill="white"/>
<path d="M83.2144 71.5138L15.0093 139.719C14.3708 140.357 13.3342 140.366 12.6874 139.719C12.0406 139.072 12.0406 138.044 12.6874 137.397L80.8926 69.1919C81.5311 68.5534 82.5676 68.5451 83.2144 69.1919C83.8612 69.8387 83.8612 70.867 83.2144 71.5138Z" fill="white"/>
<path d="M75.3034 63.6028L7.09829 131.808C6.45978 132.446 5.42323 132.455 4.77642 131.808C4.12961 131.161 4.12961 130.133 4.77642 129.486L72.9815 61.281C73.6201 60.6424 74.6566 60.6342 75.3034 61.281C75.9502 61.9278 75.9502 62.956 75.3034 63.6028Z" fill="white"/>
<path d="M67.3925 55.6919L-0.812656 123.897C-1.45117 124.536 -2.48772 124.544 -3.13453 123.897C-3.78134 123.25 -3.78134 122.222 -3.13453 121.575L65.0706 53.37C65.7091 52.7315 66.7457 52.7232 67.3925 53.37C68.0393 54.0168 68.0393 55.0451 67.3925 55.6919Z" fill="white"/>
<path d="M151.817 177.018L220.023 108.813C220.661 108.174 220.669 107.138 220.023 106.491C219.376 105.844 218.347 105.844 217.701 106.491L149.496 174.696C148.857 175.335 148.849 176.371 149.496 177.018C150.142 177.665 151.171 177.665 151.817 177.018Z" fill="white"/>
<path d="M143.906 169.107L212.111 100.902C212.75 100.263 212.758 99.2268 212.112 98.58C211.465 97.9332 210.436 97.9332 209.79 98.58L141.584 166.785C140.946 167.424 140.938 168.46 141.585 169.107C142.231 169.754 143.26 169.754 143.906 169.107Z" fill="white"/>
<path d="M135.995 161.196L204.201 92.9909C204.839 92.3524 204.847 91.3158 204.201 90.669C203.554 90.0222 202.526 90.0222 201.879 90.669L133.674 158.874C133.035 159.513 133.027 160.549 133.674 161.196C134.32 161.843 135.349 161.843 135.995 161.196Z" fill="white"/>
<path d="M128.076 153.277L196.281 85.0716C196.92 84.4331 196.928 83.3966 196.281 82.7497C195.634 82.1029 194.606 82.1029 193.959 82.7497L125.754 150.955C125.116 151.593 125.107 152.63 125.754 153.277C126.401 153.924 127.429 153.924 128.076 153.277Z" fill="white"/>
<path d="M120.165 145.366L188.37 77.1607C189.009 76.5222 189.017 75.4856 188.37 74.8388C187.723 74.192 186.695 74.192 186.048 74.8388L117.843 143.044C117.205 143.682 117.196 144.719 117.843 145.366C118.49 146.013 119.518 146.013 120.165 145.366Z" fill="white"/>
<path d="M112.246 137.447L180.451 69.2414C181.09 68.6029 181.098 67.5664 180.451 66.9195C179.804 66.2727 178.776 66.2727 178.129 66.9195L109.924 135.125C109.286 135.763 109.277 136.8 109.924 137.447C110.571 138.093 111.599 138.093 112.246 137.447Z" fill="white"/>
<path d="M104.335 129.536L172.54 61.3304C173.179 60.6919 173.187 59.6554 172.54 59.0086C171.893 58.3618 170.865 58.3618 170.218 59.0086L102.013 127.214C101.375 127.852 101.366 128.889 102.013 129.536C102.66 130.182 103.688 130.182 104.335 129.536Z" fill="white"/>
<path d="M96.4241 121.625L164.629 53.4195C165.268 52.781 165.276 51.7444 164.629 51.0976C163.982 50.4508 162.954 50.4508 162.307 51.0976L94.1022 119.303C93.4637 119.941 93.4554 120.978 94.1022 121.625C94.749 122.271 95.7773 122.271 96.4241 121.625Z" fill="white"/>
<path d="M88.5048 113.705L156.71 45.5002C157.348 44.8617 157.357 43.8251 156.71 43.1783C156.063 42.5315 155.035 42.5315 154.388 43.1783L86.1829 111.383C85.5444 112.022 85.5361 113.059 86.1829 113.705C86.8297 114.352 87.858 114.352 88.5048 113.705Z" fill="white"/>
<path d="M80.5937 105.794L148.799 37.5893C149.437 36.9507 149.446 35.9142 148.799 35.2674C148.152 34.6206 147.124 34.6206 146.477 35.2674L78.2719 103.473C77.6334 104.111 77.6251 105.148 78.2719 105.794C78.9187 106.441 79.9469 106.441 80.5937 105.794Z" fill="white"/>
<path d="M72.6829 97.8834L140.888 29.6783C141.527 29.0398 141.535 28.0032 140.888 27.3564C140.241 26.7096 139.213 26.7096 138.566 27.3564L70.361 95.5615C69.7225 96.2 69.7142 97.2366 70.361 97.8834C71.0078 98.5302 72.0361 98.5302 72.6829 97.8834Z" fill="white"/>
<path d="M64.7635 89.9642L132.969 21.759C133.607 21.1205 133.615 20.084 132.969 19.4372C132.322 18.7903 131.294 18.7903 130.647 19.4372L62.4417 87.6423C61.8032 88.2808 61.7949 89.3173 62.4417 89.9642C63.0885 90.611 64.1167 90.611 64.7635 89.9642Z" fill="white"/>
<path d="M56.8527 82.0532L125.058 13.8481C125.696 13.2096 125.705 12.173 125.058 11.5262C124.411 10.8794 123.383 10.8794 122.736 11.5262L54.5308 79.7313C53.8923 80.3698 53.884 81.4064 54.5308 82.0532C55.1776 82.7 56.2059 82.7 56.8527 82.0532Z" fill="white"/>
<path d="M48.9416 74.1422L117.147 5.9371C117.785 5.29858 117.794 4.26203 117.147 3.61522C116.5 2.96841 115.472 2.96841 114.825 3.61522L46.6198 71.8204C45.9813 72.4589 45.973 73.4954 46.6198 74.1422C47.2666 74.789 48.2948 74.789 48.9416 74.1422Z" fill="white"/>
</g>
</g>
<defs>
<clipPath id="clip0_612_18931">
<rect width="158.142" height="158.142" fill="white" transform="translate(0 111.823) rotate(-45)"/>
</clipPath>
</defs>
</svg>
