<svg width="41" height="40" viewBox="0 0 41 40" fill="none" xmlns="http://www.w3.org/2000/svg">
<path d="M24.0905 25.8166H17.0951C14.0592 25.8166 11.5818 28.2868 11.5818 31.3298V35.1891C11.5818 36.3777 12.5484 37.3371 13.7299 37.3371H27.4414C28.6299 37.3371 29.5894 36.3705 29.5894 35.1891V31.3298C29.6037 28.294 27.1335 25.8166 24.0905 25.8166ZM20.9257 28.0577H20.2598L20.0235 26.819H21.1692L20.9257 28.0577ZM12.5914 35.1891V31.3298C12.5914 28.8453 14.6177 26.819 17.1022 26.819H19.0068L19.329 28.5088L18.9925 29.9909C18.9281 30.263 19.0999 30.5279 19.372 30.5923C19.4078 30.5995 19.4507 30.6067 19.4865 30.6067C19.7157 30.6067 19.9233 30.4491 19.9734 30.22L20.2383 29.0672H20.9687L22.0498 33.8072L20.6035 35.3824L19.1572 33.8072L19.5725 32.01C19.6369 31.7379 19.4651 31.473 19.193 31.4086C18.9209 31.3441 18.656 31.516 18.5915 31.7881L18.119 33.843C18.0832 34.0005 18.1261 34.1724 18.2407 34.2941L20.1309 36.349H15.9065V31.5804C15.9065 31.3012 15.6846 31.0792 15.4053 31.0792C15.1261 31.0792 14.9041 31.3012 14.9041 31.5804V36.3347H13.7442C13.1069 36.3347 12.5914 35.8192 12.5914 35.1891ZM28.6013 35.1891C28.6013 35.8192 28.0858 36.3347 27.4557 36.3347H26.2958V31.5804C26.2958 31.3012 26.0738 31.0792 25.7946 31.0792C25.5153 31.0792 25.2934 31.3012 25.2934 31.5804V36.3347H21.0689L22.9592 34.2798C23.0737 34.158 23.1167 33.9862 23.0809 33.8287L21.8637 28.5088L22.1859 26.819H24.0905C26.575 26.819 28.6013 28.8453 28.6013 31.3298V35.1891ZM20.5964 15.6636C17.8899 15.6636 15.6846 17.8689 15.6846 20.5754C15.6846 23.2819 17.8899 25.4872 20.5964 25.4872C23.3029 25.4872 25.5082 23.2819 25.5082 20.5754C25.5082 17.8689 23.3029 15.6636 20.5964 15.6636ZM20.5964 24.4848C18.4412 24.4848 16.687 22.7306 16.687 20.5754C16.687 18.4202 18.4412 16.666 20.5964 16.666C22.7515 16.666 24.5057 18.4202 24.5057 20.5754C24.5057 22.7306 22.7515 24.4848 20.5964 24.4848ZM21.5486 9.94272C21.5486 9.6062 21.1906 9.31979 20.7754 9.31979H20.3601C19.3935 9.31979 18.6345 8.60379 18.6345 7.69446C18.6345 6.89969 19.2646 6.23381 20.0951 6.09777V5.5894C20.0951 5.31016 20.3171 5.0882 20.5964 5.0882C20.8756 5.0882 21.0976 5.31016 21.0976 5.5894V6.07629H22.1429C22.4222 6.07629 22.6441 6.29825 22.6441 6.57749C22.6441 6.85673 22.4222 7.0787 22.1429 7.0787H20.4174C19.9949 7.0787 19.6441 7.3651 19.6441 7.70162C19.6441 8.05246 19.9519 8.32455 20.3672 8.32455H20.7825C21.7634 8.32455 22.5582 9.05487 22.5582 9.94988C22.5582 10.7446 21.9281 11.4105 21.1047 11.5466V12.0621C21.1047 12.3413 20.8828 12.5633 20.6035 12.5633C20.3243 12.5633 20.1023 12.3413 20.1023 12.0621V11.5752H19.0569C18.7777 11.5752 18.5557 11.3533 18.5557 11.074C18.5557 10.7948 18.7777 10.5728 19.0569 10.5728H20.7825C21.1978 10.5656 21.5486 10.2792 21.5486 9.94272ZM20.5964 14.3032C23.6179 14.3032 26.081 11.8473 26.081 8.81859C26.081 5.79704 23.6251 3.33398 20.5964 3.33398C17.5748 3.33398 15.1117 5.79704 15.1117 8.81859C15.1117 11.8473 17.5748 14.3032 20.5964 14.3032ZM20.5964 4.34355C23.0666 4.34355 25.0786 6.35553 25.0786 8.82575C25.0786 11.296 23.0666 13.3079 20.5964 13.3079C18.1261 13.3079 16.1142 11.296 16.1142 8.82575C16.1142 6.35553 18.1261 4.34355 20.5964 4.34355ZM12.5198 24.4991V16.9811C12.5198 16.7018 12.2978 16.4799 12.0186 16.4799H8.00897C8.23093 15.6493 8.9899 15.0335 9.89206 15.0335C10.1713 15.0335 10.3933 14.8116 10.3933 14.5323C10.3933 14.2531 10.1713 14.0311 9.89206 14.0311C8.83954 14.0311 7.91589 14.5824 7.3932 15.413C6.87052 14.5824 5.94687 14.0311 4.89434 14.0311C4.6151 14.0311 4.39314 14.2531 4.39314 14.5323C4.39314 14.8116 4.6151 15.0335 4.89434 15.0335C5.79651 15.0335 6.55548 15.6493 6.77744 16.4799H2.76781C2.48856 16.4799 2.2666 16.7018 2.2666 16.9811V24.492C2.2666 24.7712 2.48856 24.9932 2.76781 24.9932H12.0186C12.2978 25.0003 12.5198 24.7712 12.5198 24.4991ZM11.5174 17.4823V18.7711H3.26901V17.4823H11.5174ZM3.26901 19.7735H5.74639V23.9908H3.26901V19.7735ZM9.04002 23.9908V22.7735C9.04002 22.4943 8.81806 22.2723 8.53881 22.2723C8.25957 22.2723 8.03761 22.4943 8.03761 22.7735V23.9908H6.7488V19.7735H8.03045V20.9907C8.03045 21.2699 8.25241 21.4919 8.53165 21.4919C8.8109 21.4919 9.03286 21.2699 9.03286 20.9907V19.7735H11.5102V23.9908H9.04002ZM38.5896 15.4703L34.4582 14.0598C34.3508 14.024 34.2363 14.024 34.136 14.0598L30.0047 15.4703C29.8042 15.5419 29.6681 15.728 29.6681 15.9429V19.6589C29.6681 19.6804 29.6681 19.7019 29.6753 19.7305C30.0333 22.2938 32.1169 23.7545 34.0429 24.9216C34.1217 24.9717 34.2148 24.9932 34.3007 24.9932C34.3938 24.9932 34.4797 24.9717 34.5585 24.9216C36.4845 23.7545 38.5609 22.2867 38.9261 19.7305C38.9261 19.709 38.9333 19.6876 38.9333 19.6589V15.9429C38.9261 15.728 38.7901 15.5347 38.5896 15.4703ZM37.9237 19.6231C37.6516 21.4489 36.3342 22.6375 34.2935 23.9048C32.2529 22.6375 30.9355 21.4489 30.6634 19.6231V16.3009L34.2935 15.0622L37.9237 16.3009V19.6231ZM34.2219 19.752L36.1623 17.1887C36.327 16.9667 36.642 16.9238 36.864 17.0885C37.086 17.2531 37.1289 17.5682 36.9642 17.7901L34.6945 20.7902C34.6086 20.9048 34.4797 20.9764 34.3437 20.9835H34.2935C34.1718 20.9835 34.0501 20.9406 33.957 20.8547L32.2314 19.3009C32.0238 19.1148 32.0095 18.7997 32.1957 18.5921C32.3818 18.3844 32.6969 18.3701 32.9045 18.5563L34.2219 19.752Z" fill="#0099A3"/>
</svg>
