<svg width="40" height="40" viewBox="0 0 40 40" fill="none" xmlns="http://www.w3.org/2000/svg">
<rect width="40" height="40" rx="20" fill="#1DA1F2"/>
<g clip-path="url(#clip0_759_19692)">
<path d="M29.577 14.0482C28.857 14.3602 28.113 14.5762 27.321 14.6722C28.137 14.1922 28.761 13.4242 29.049 12.4882C28.281 12.9442 27.441 13.2562 26.553 13.4482C25.833 12.6802 24.801 12.2002 23.673 12.2002C21.489 12.2002 19.737 13.9762 19.737 16.1362C19.737 16.4482 19.761 16.7362 19.833 17.0242C16.569 16.8802 13.689 15.2962 11.745 12.9202C10.353 15.4162 11.913 17.4802 12.945 18.1762C12.321 18.1762 11.697 17.9842 11.169 17.6962C11.169 19.6402 12.537 21.2482 14.313 21.6082C13.929 21.7282 13.065 21.8002 12.537 21.6802C13.041 23.2402 14.505 24.3922 16.209 24.4162C14.865 25.4722 12.897 26.3122 10.377 26.0482C12.129 27.1762 14.193 27.8242 16.425 27.8242C23.673 27.8242 27.6089 21.8242 27.6089 16.6402C27.6089 16.4722 27.609 16.3042 27.585 16.1362C28.401 15.5362 29.073 14.8402 29.577 14.0482Z" fill="white"/>
</g>
<defs>
<clipPath id="clip0_759_19692">
<rect width="24" height="24" fill="white" transform="translate(8 8)"/>
</clipPath>
</defs>
</svg>
