<svg width="80" height="81" viewBox="0 0 80 81" fill="none" xmlns="http://www.w3.org/2000/svg">
<path d="M38.1704 55.2193L32.1309 49.1798C30.7128 47.7617 28.4136 47.7617 26.9955 49.1798L21.3102 54.865" stroke="white" stroke-width="2" stroke-miterlimit="10" stroke-linecap="round" stroke-linejoin="round"/>
<path d="M43.7454 37.5089C44.0116 34.8413 42.0649 32.4629 39.3973 32.1967C36.7296 31.9305 34.3513 33.8772 34.0851 36.5448C33.8188 39.2125 35.7656 41.5908 38.4332 41.857C41.1008 42.1232 43.4792 40.1765 43.7454 37.5089Z" stroke="white" stroke-width="2" stroke-miterlimit="10" stroke-linecap="round" stroke-linejoin="round"/>
<path d="M64.3022 48.4382L57.1952 41.3312C55.7771 39.913 53.4779 39.913 52.0598 41.3312L29.2994 64.0917" stroke="white" stroke-width="2" stroke-miterlimit="10" stroke-linecap="round" stroke-linejoin="round"/>
<path d="M65.9418 48.1156V28.0863C65.9418 26.049 64.2902 24.3975 62.253 24.3975H24.8389C22.8017 24.3975 21.1501 26.049 21.1501 28.0863V60.4021C21.1501 62.4393 22.8017 64.0909 24.8389 64.0909H53.1878M9.59475 32.2443H14.6624M9.59475 37.8138H14.6624M9.59475 43.3833H14.6624M9.59475 48.9526H14.6624M9.59475 54.5221H14.6624M13.7647 61.7682H10.4925C9.63355 61.7682 8.93726 61.0719 8.93726 60.213V27.1713C8.93726 26.3124 9.63355 25.6161 10.4925 25.6161H13.7649C14.6238 25.6161 15.3201 26.3124 15.3201 27.1713V60.2129C15.3199 61.0719 14.6236 61.7682 13.7647 61.7682Z" stroke="white" stroke-width="2" stroke-miterlimit="10" stroke-linecap="round" stroke-linejoin="round"/>
<path d="M54.0676 54.5971H70.066M54.0676 61.1741H70.066M44.3767 73.1252H7.06024C5.00204 73.1252 3.33337 71.4566 3.33337 69.3982V10.8939C3.33337 8.83551 5.00204 7.16699 7.06024 7.16699H19.2497M68.1481 67.4579H55.9857C54.6733 67.4579 53.6095 66.3941 53.6095 65.0817V50.8138C53.6095 49.5014 54.6733 48.4377 55.9857 48.4377H68.1481C69.4604 48.4377 70.5241 49.5016 70.5241 50.8138V65.0817C70.5241 66.3942 69.4604 67.4579 68.1481 67.4579Z" stroke="white" stroke-width="2" stroke-miterlimit="10" stroke-linecap="round" stroke-linejoin="round"/>
<path d="M24.4141 7.16699H72.9398C74.9982 7.16699 76.6667 8.83566 76.6667 10.8939V69.3982C76.6667 71.4566 74.998 73.1251 72.9398 73.1251H49.541M3.33337 16.4148H76.6667" stroke="white" stroke-width="2" stroke-miterlimit="10" stroke-linecap="round" stroke-linejoin="round"/>
</svg>
