<svg width="40" height="40" viewBox="0 0 40 40" fill="none" xmlns="http://www.w3.org/2000/svg">
<rect width="40" height="40" rx="20" fill="#0A66C2"/>
<g clip-path="url(#clip0_759_19698)">
<path d="M29.6014 29.6007V22.5687C29.6014 19.1127 28.8574 16.4727 24.8254 16.4727C22.8814 16.4727 21.5854 17.5287 21.0574 18.5367H21.0094V16.7847H17.1934V29.6007H21.1774V23.2407C21.1774 21.5607 21.4894 19.9527 23.5534 19.9527C25.5934 19.9527 25.6174 21.8487 25.6174 23.3367V29.5767H29.6014V29.6007Z" fill="white"/>
<path d="M10.7129 16.7842H14.6969V29.6002H10.7129V16.7842Z" fill="white"/>
<path d="M12.7044 10.4004C11.4324 10.4004 10.4004 11.4324 10.4004 12.7044C10.4004 13.9764 11.4324 15.0324 12.7044 15.0324C13.9764 15.0324 15.0084 13.9764 15.0084 12.7044C15.0084 11.4324 13.9764 10.4004 12.7044 10.4004Z" fill="white"/>
</g>
<defs>
<clipPath id="clip0_759_19698">
<rect width="24" height="24" fill="white" transform="translate(8 8)"/>
</clipPath>
</defs>
</svg>
