<svg width="40" height="40" viewBox="0 0 40 40" fill="none" xmlns="http://www.w3.org/2000/svg">
<g clip-path="url(#clip0_756_18488)">
<path d="M20 40C31.0457 40 40 31.0457 40 20C40 8.95431 31.0457 0 20 0C8.95431 0 0 8.95431 0 20C0 31.0457 8.95431 40 20 40Z" fill="url(#paint0_linear_756_18488)"/>
<path d="M24.2493 8.88867H15.7604C11.9737 8.88867 8.89819 11.9642 8.89819 15.7509V24.2398C8.89819 28.0265 11.9737 31.102 15.7604 31.102H24.2493C28.036 31.102 31.1115 28.0265 31.1115 24.2398V15.7509C31.1115 11.9642 28.036 8.88867 24.2493 8.88867ZM28.6315 24.2487C28.6315 26.6664 26.6671 28.6398 24.2404 28.6398H15.7515C13.3337 28.6398 11.3604 26.6753 11.3604 24.2487V15.7598C11.3604 13.342 13.3249 11.3687 15.7515 11.3687H24.2404C26.6582 11.3687 28.6315 13.3331 28.6315 15.7598V24.2487Z" fill="white"/>
<path d="M20.0003 14.3193C16.8714 14.3193 14.3203 16.8704 14.3203 19.9993C14.3203 23.1282 16.8714 25.6793 20.0003 25.6793C23.1292 25.6793 25.6803 23.1282 25.6803 19.9993C25.6803 16.8704 23.1292 14.3193 20.0003 14.3193ZM20.0003 23.4482C18.0981 23.4482 16.5514 21.9016 16.5514 19.9993C16.5514 18.0971 18.0981 16.5504 20.0003 16.5504C21.9025 16.5504 23.4492 18.0971 23.4492 19.9993C23.4492 21.9016 21.9025 23.4482 20.0003 23.4482Z" fill="white"/>
<path d="M26.1133 14.9429C26.6366 14.8576 26.9917 14.3643 26.9065 13.841C26.8213 13.3177 26.328 12.9626 25.8047 13.0478C25.2814 13.1331 24.9263 13.6264 25.0115 14.1497C25.0967 14.673 25.59 15.0281 26.1133 14.9429Z" fill="white"/>
</g>
<defs>
<linearGradient id="paint0_linear_756_18488" x1="4.77147" y1="35.2285" x2="33.1937" y2="6.80631" gradientUnits="userSpaceOnUse">
<stop stop-color="#FEE411"/>
<stop offset="0.052" stop-color="#FEDB16"/>
<stop offset="0.138" stop-color="#FEC125"/>
<stop offset="0.248" stop-color="#FE983D"/>
<stop offset="0.376" stop-color="#FE5F5E"/>
<stop offset="0.5" stop-color="#FE2181"/>
<stop offset="1" stop-color="#9000DC"/>
</linearGradient>
<clipPath id="clip0_756_18488">
<rect width="40" height="40" fill="white"/>
</clipPath>
</defs>
</svg>
