<svg width="1280" height="500" viewBox="0 0 1280 500" fill="none" xmlns="http://www.w3.org/2000/svg">
<rect width="1280" height="500" rx="16" fill="#9747FF"/>
<path d="M638.17 228.218L632.131 222.179C630.713 220.761 628.414 220.761 626.996 222.179L621.31 227.864" stroke="white" stroke-width="2" stroke-miterlimit="10" stroke-linecap="round" stroke-linejoin="round"/>
<path d="M643.745 210.507C644.012 207.839 642.065 205.461 639.397 205.195C636.73 204.929 634.351 206.875 634.085 209.543C633.819 212.211 635.766 214.589 638.433 214.855C641.101 215.121 643.479 213.175 643.745 210.507Z" stroke="white" stroke-width="2" stroke-miterlimit="10" stroke-linecap="round" stroke-linejoin="round"/>
<path d="M664.302 221.436L657.195 214.329C655.777 212.911 653.478 212.911 652.06 214.329L629.299 237.09" stroke="white" stroke-width="2" stroke-miterlimit="10" stroke-linecap="round" stroke-linejoin="round"/>
<path d="M665.942 221.115V201.085C665.942 199.048 664.29 197.396 662.253 197.396H624.839C622.802 197.396 621.15 199.048 621.15 201.085V233.401C621.15 235.438 622.802 237.09 624.839 237.09H653.188M609.595 205.243H614.662M609.595 210.813H614.662M609.595 216.382H614.662M609.595 221.952H614.662M609.595 227.521H614.662M613.765 234.767H610.492C609.634 234.767 608.937 234.071 608.937 233.212V200.17C608.937 199.311 609.634 198.615 610.492 198.615H613.765C614.624 198.615 615.32 199.311 615.32 200.17V233.212C615.32 234.071 614.624 234.767 613.765 234.767Z" stroke="white" stroke-width="2" stroke-miterlimit="10" stroke-linecap="round" stroke-linejoin="round"/>
<path d="M654.068 227.596H670.066M654.068 234.173H670.066M644.377 246.124H607.06C605.002 246.124 603.333 244.456 603.333 242.397V183.893C603.333 181.835 605.002 180.166 607.06 180.166H619.25M668.148 240.457H655.986C654.673 240.457 653.609 239.393 653.609 238.081V223.813C653.609 222.5 654.673 221.437 655.986 221.437H668.148C669.46 221.437 670.524 222.501 670.524 223.813V238.081C670.524 239.393 669.46 240.457 668.148 240.457Z" stroke="white" stroke-width="2" stroke-miterlimit="10" stroke-linecap="round" stroke-linejoin="round"/>
<path d="M624.414 180.166H672.94C674.998 180.166 676.667 181.835 676.667 183.893V242.397C676.667 244.456 674.998 246.124 672.94 246.124H649.541M603.333 189.414H676.667" stroke="white" stroke-width="2" stroke-miterlimit="10" stroke-linecap="round" stroke-linejoin="round"/>
<path d="M600.208 300.404C600.208 302.772 599.68 304.916 598.624 306.836C597.6 308.724 596.032 310.228 593.92 311.348C591.84 312.436 589.2 312.98 586 312.98C581.456 312.98 578 311.828 575.632 309.524C573.264 307.188 572.08 304.116 572.08 300.308V278.228H579.328V299.204C579.328 302.02 579.904 304.004 581.056 305.156C582.208 306.308 583.92 306.884 586.192 306.884C587.792 306.884 589.088 306.612 590.08 306.068C591.072 305.524 591.792 304.676 592.24 303.524C592.72 302.372 592.96 300.916 592.96 299.156V278.228H600.208V300.404ZM621.417 312.5H605.817V308.372L609.993 306.452V284.276L605.817 282.356V278.228H621.417V282.356L617.241 284.276V306.452L621.417 308.372V312.5ZM642.522 278.228L629.754 312.5H623.274L636.042 278.228H642.522ZM674.974 300.404C674.974 302.772 674.446 304.916 673.39 306.836C672.366 308.724 670.798 310.228 668.686 311.348C666.606 312.436 663.966 312.98 660.766 312.98C656.222 312.98 652.766 311.828 650.398 309.524C648.03 307.188 646.846 304.116 646.846 300.308V278.228H654.094V299.204C654.094 302.02 654.67 304.004 655.822 305.156C656.974 306.308 658.686 306.884 660.958 306.884C662.558 306.884 663.854 306.612 664.846 306.068C665.838 305.524 666.558 304.676 667.006 303.524C667.486 302.372 667.726 300.916 667.726 299.156V278.228H674.974V300.404ZM711.063 312.5H702.759L694.791 299.54L686.823 312.5H679.047L690.423 294.836L679.767 278.228H687.783L695.175 290.564L702.423 278.228H710.247L699.495 295.22L711.063 312.5Z" fill="white"/>
</svg>
