<svg width="41" height="40" viewBox="0 0 41 40" fill="none" xmlns="http://www.w3.org/2000/svg">
<path d="M33.8071 25.5095C33.256 26.6252 32.5586 27.6624 31.7333 28.5937C31.628 28.7127 31.6056 28.8838 31.6803 29.0241L33.0506 31.6011C33.1697 31.825 33.4722 31.8712 33.6513 31.6916C40.2215 25.1032 40.5277 14.4943 34.301 7.53564C34.1644 7.38293 34.1758 7.14869 34.3257 7.00888L35.2656 6.13242C35.4897 5.92341 35.3848 5.54849 35.0847 5.48614L29.2859 4.28153C29.0305 4.22849 28.7995 4.44391 28.8347 4.70227L29.6319 10.571C29.6731 10.8747 30.0398 11.0055 30.2639 10.7965L31.1967 9.92665C31.2337 9.89219 31.2772 9.86549 31.3247 9.84812C31.3722 9.83075 31.4227 9.82308 31.4732 9.82554C31.5237 9.828 31.5732 9.84055 31.6188 9.86245C31.6643 9.88436 31.7051 9.91516 31.7385 9.95306C34.995 13.6409 35.9784 18.5877 34.7504 23.033M25.7468 20.2635C25.1951 19.2564 24.2729 18.501 23.0797 18.0793C21.6925 17.5889 20.1554 16.9943 19.2732 16.3023C18.9074 16.0154 18.7476 15.4233 18.8662 14.7938C18.9814 14.1828 19.3972 13.4417 20.2188 13.1942C21.8368 12.7067 22.9484 13.4289 23.2505 13.6619L23.3721 13.7555C23.8853 14.1513 24.6223 14.0561 25.0181 13.5428C25.4139 13.0295 25.3186 12.2926 24.8054 11.8968L24.6838 11.803C24.359 11.5525 23.5006 10.9761 22.2585 10.7623V9.88091C22.2585 9.23271 21.733 8.70728 21.0849 8.70728C20.4367 8.70728 19.9112 9.23271 19.9112 9.88091V10.8469C19.7871 10.8766 19.6639 10.9098 19.5417 10.9467C18.0121 11.4075 16.8694 12.715 16.5596 14.359C16.2762 15.8626 16.761 17.3148 17.8246 18.1491C18.751 18.8757 20.0468 19.4966 22.2974 20.2921C24.1065 20.9316 23.9956 22.4767 23.9186 22.935C23.7243 24.0908 22.7522 25.3399 21.077 25.3511C19.5662 25.3612 19.0529 25.2792 17.867 24.5035C17.3246 24.1487 16.5972 24.3008 16.2424 24.8432C15.8876 25.3856 16.0396 26.113 16.5821 26.4678C17.8825 27.3185 18.7837 27.593 19.9112 27.6712V28.6587C19.9112 29.3069 20.4367 29.8323 21.0849 29.8323C21.733 29.8323 22.2585 29.3069 22.2585 28.6587V27.5676C23.1335 27.3714 23.928 26.9575 24.5967 26.343C25.4579 25.5517 26.0392 24.4796 26.2334 23.3242C26.4135 22.2525 26.2408 21.1655 25.7468 20.2635Z" stroke="#0099A3" stroke-miterlimit="10" stroke-linecap="round" stroke-linejoin="round"/>
<path d="M13.0584 34.8956C16.6832 36.7788 20.8394 37.3238 24.7791 36.5043C24.9792 36.4627 25.1755 36.5902 25.2216 36.7894L25.5102 38.0396C25.5792 38.3382 25.9562 38.4348 26.1602 38.2061L30.1029 33.7865C30.2765 33.5919 30.2054 33.2841 29.9641 33.1853L24.4831 30.9413C24.1994 30.8252 23.9028 31.0774 23.9718 31.3759L24.2592 32.6205C24.2705 32.6698 24.2719 32.7208 24.2633 32.7706C24.2546 32.8204 24.236 32.868 24.2086 32.9105C24.1812 32.953 24.1456 32.9896 24.1039 33.0181C24.0621 33.0466 24.0151 33.0665 23.9655 33.0765C19.3317 34.0082 14.337 32.5852 10.8768 28.8746C9.45668 27.3517 8.43902 25.5976 7.81967 23.7433C7.77009 23.5948 7.63191 23.494 7.47558 23.4885L4.55788 23.3871C4.30424 23.3782 4.11309 23.6173 4.17904 23.8623C4.90197 26.5477 6.27325 29.0999 8.30209 31.2756C9.07036 32.1003 9.91566 32.8496 10.8265 33.5135M11.0378 4.87685C10.3821 5.34025 9.75848 5.84762 9.17139 6.39545C6.92174 8.49327 5.34515 11.0422 4.45039 13.7718C4.38665 13.9663 4.17786 14.0731 3.98199 14.0132L2.75546 13.6382C2.46235 13.5485 2.19019 13.8268 2.28625 14.1179L4.14238 19.7421C4.22412 19.9897 4.52616 20.0821 4.73236 19.9225L9.41625 16.2977C9.65861 16.1102 9.58859 15.7272 9.29548 15.6377L8.07331 15.264C7.87006 15.2019 7.7574 14.9841 7.82491 14.7825C8.54548 12.6322 9.79694 10.6255 11.5723 8.97008C15.0272 5.74836 19.6713 4.59819 23.9739 5.46639C24.1294 5.49774 24.2882 5.43157 24.3723 5.29707L25.92 2.82012C26.0547 2.60455 25.9427 2.31918 25.697 2.25411C21.5829 1.16503 17.1398 1.58489 13.2547 3.54453" stroke="#0099A3" stroke-miterlimit="10" stroke-linecap="round" stroke-linejoin="round"/>
</svg>
