<svg width="24" height="24" viewBox="0 0 24 24" fill="none" xmlns="http://www.w3.org/2000/svg">
<g clip-path="url(#clip0_1290_21936)">
<path d="M17.5803 12.1387C16.6796 12.1387 15.8287 12.4323 15.1197 12.9879C15.0541 13.041 15.012 13.1178 15.0025 13.2017C14.9931 13.2856 15.0169 13.3699 15.069 13.4363C15.1211 13.5028 15.1972 13.5461 15.2809 13.557C15.3646 13.5678 15.4493 13.5453 15.5166 13.4944C16.1113 13.0284 16.8249 12.7821 17.5803 12.7821C19.4275 12.7821 20.9303 14.285 20.9303 16.1322C20.9303 17.9794 19.4275 19.4822 17.5803 19.4822C15.733 19.4822 14.2302 17.9794 14.2302 16.1322C14.2298 15.502 14.4077 14.8845 14.7434 14.3511C14.7883 14.2789 14.8027 14.1919 14.7836 14.109C14.7645 14.0262 14.7134 13.9543 14.6414 13.9091C14.5695 13.8638 14.4826 13.8488 14.3996 13.8674C14.3167 13.8861 14.2445 13.9367 14.1988 14.0084C13.7985 14.6444 13.5862 15.3807 13.5867 16.1322C13.5867 18.3342 15.3782 20.1258 17.5803 20.1258C19.7824 20.1258 21.5739 18.3343 21.5739 16.1322C21.5739 13.9302 19.7824 12.1387 17.5803 12.1387Z" fill="#0E556C"/>
<path d="M20.1041 16.2908H17.9023V14.089C17.9009 14.0046 17.8664 13.9241 17.8062 13.8649C17.746 13.8056 17.665 13.7725 17.5805 13.7725C17.4961 13.7725 17.4151 13.8056 17.3549 13.8649C17.2947 13.9241 17.2602 14.0046 17.2588 14.089V16.6126C17.2588 16.6979 17.2927 16.7798 17.353 16.8401C17.4134 16.9004 17.4952 16.9343 17.5805 16.9343H20.1041C20.1888 16.9334 20.2697 16.899 20.3292 16.8388C20.3888 16.7786 20.4222 16.6973 20.4222 16.6126C20.4222 16.5279 20.3888 16.4466 20.3292 16.3863C20.2697 16.3261 20.1888 16.2918 20.1041 16.2908Z" fill="#0E556C"/>
<mask id="path-3-outside-1_1290_21936" maskUnits="userSpaceOnUse" x="0" y="1.5" width="24" height="21" fill="black">
<rect fill="white" y="1.5" width="24" height="21"/>
<path d="M20.6599 11.6753V6.09403C20.6599 5.25537 19.9775 4.57303 19.1388 4.57303H18.4483V3.78116C18.4483 3.07471 17.8736 2.5 17.1671 2.5C16.4607 2.5 15.886 3.07471 15.886 3.78116V4.57298H14.2235V3.78116C14.2235 3.07471 13.6488 2.5 12.9424 2.5C12.2359 2.5 11.6612 3.07471 11.6612 3.78116V4.57298H9.99882V3.78116C9.99882 3.07471 9.42411 2.5 8.71766 2.5C8.01121 2.5 7.4365 3.07471 7.4365 3.78116V4.57298H5.77409V3.78116C5.77409 3.07471 5.19938 2.5 4.49293 2.5C3.78648 2.5 3.21164 3.07471 3.21164 3.78116V4.57298H2.52101C1.68234 4.57298 1 5.25528 1 6.09403V6.25276C1.00138 6.33718 1.03589 6.41768 1.09607 6.4769C1.15626 6.53611 1.23732 6.5693 1.32175 6.5693C1.40618 6.5693 1.48724 6.53611 1.54743 6.4769C1.60761 6.41768 1.64212 6.33718 1.6435 6.25276V6.09403C1.6435 5.61021 2.03718 5.21653 2.52101 5.21653H3.21156V6.00836C3.21156 6.7148 3.78627 7.28951 4.49271 7.28951C5.19916 7.28951 5.77387 6.7148 5.77387 6.00831V5.21653H7.43629V6.00836C7.43629 6.7148 8.011 7.28951 8.71745 7.28951C9.42389 7.28951 9.9986 6.7148 9.9986 6.00831V5.21653H11.661V6.00836C11.661 6.7148 12.2357 7.28951 12.9422 7.28951C13.6486 7.28951 14.2233 6.7148 14.2233 6.00831V5.21653H15.8857V6.00836C15.8857 6.7148 16.4605 7.28951 17.1669 7.28951C17.8734 7.28951 18.4481 6.7148 18.4481 6.00831V5.21653H19.1386C19.6225 5.21653 20.0162 5.61021 20.0162 6.09403V8.36493H1.6435V7.53976C1.64212 7.45534 1.60761 7.37484 1.54743 7.31563C1.48724 7.25641 1.40618 7.22323 1.32175 7.22323C1.23732 7.22323 1.15626 7.25641 1.09607 7.31563C1.03589 7.37484 1.00138 7.45534 1 7.53976V18.6438C1 19.4825 1.68234 20.1649 2.52101 20.1649H13.9634C14.9234 21.0268 16.1916 21.5521 17.5803 21.5521C18.7399 21.5521 19.8461 21.1907 20.7795 20.5071C20.847 20.4562 20.8918 20.3807 20.9041 20.297C20.9164 20.2134 20.8953 20.1282 20.8454 20.06C20.7954 19.9918 20.7206 19.946 20.6371 19.9325C20.5536 19.919 20.4681 19.9389 20.3992 19.9879C19.5769 20.5902 18.6022 20.9085 17.5803 20.9085C14.9467 20.9085 12.8041 18.7659 12.8041 16.1324C12.8041 13.4988 14.9467 11.3562 17.5803 11.3562C18.0568 11.3562 18.5314 11.4275 18.9869 11.5677C18.9959 11.5704 19.0048 11.5733 19.0138 11.5762C20.9491 12.1864 22.3565 13.998 22.3565 16.1324C22.3565 17.2336 21.9726 18.3081 21.2757 19.1582C21.2486 19.1908 21.2282 19.2285 21.2157 19.2691C21.2032 19.3096 21.1988 19.3522 21.2028 19.3945C21.2069 19.4367 21.2192 19.4778 21.2392 19.5152C21.2591 19.5527 21.2863 19.5858 21.3191 19.6127C21.3519 19.6396 21.3897 19.6598 21.4304 19.672C21.471 19.6842 21.5136 19.6883 21.5559 19.684C21.5981 19.6797 21.639 19.667 21.6763 19.6468C21.7136 19.6266 21.7466 19.5992 21.7733 19.5662C22.5643 18.6015 23 17.382 23 16.1324C23 14.2871 22.0727 12.6545 20.6599 11.6753ZM5.13037 6.00831C5.13037 6.35993 4.84433 6.64597 4.49271 6.64597C4.1411 6.64597 3.85506 6.35997 3.85506 6.00831V3.78116C3.85506 3.42954 4.14106 3.1435 4.49271 3.1435C4.84433 3.1435 5.13037 3.4295 5.13037 3.78116V6.00831ZM9.35514 6.00831C9.35514 6.35993 9.0691 6.64597 8.71749 6.64597C8.36587 6.64597 8.07983 6.35997 8.07983 6.00831V3.78116C8.07983 3.42954 8.36587 3.1435 8.71749 3.1435C9.0691 3.1435 9.35514 3.4295 9.35514 3.78116V6.00831ZM13.58 6.00831C13.58 6.35993 13.2939 6.64597 12.9423 6.64597C12.5907 6.64597 12.3046 6.35997 12.3046 6.00831V3.78116C12.3046 3.42954 12.5907 3.1435 12.9423 3.1435C13.2939 3.1435 13.58 3.4295 13.58 3.78116V6.00831ZM17.8047 6.00831C17.8047 6.35993 17.5187 6.64597 17.1671 6.64597C16.8155 6.64597 16.5294 6.35997 16.5294 6.00831V3.78116C16.5294 3.42954 16.8155 3.1435 17.1671 3.1435C17.5187 3.1435 17.8047 3.4295 17.8047 3.78116V6.00831ZM9.25004 9.00843H12.4098V12.0837H9.25004V9.00843ZM4.80325 19.5213H2.52101C2.03718 19.5213 1.6435 19.1277 1.6435 18.6438V16.446H4.80321L4.80325 19.5213ZM4.80325 15.8025H1.6435V12.7272H4.80321L4.80325 15.8025ZM4.80325 12.0837H1.6435V9.00843H4.80321L4.80325 12.0837ZM5.44675 12.7272H8.60646V15.8025H5.44675V12.7272ZM8.60654 19.5213H5.44684V16.4461H8.60654V19.5213ZM8.60654 12.0837H5.44684V9.00843H8.60654V12.0837ZM9.25 12.7272H12.4097V14.507C12.2775 14.9275 12.1973 15.3626 12.171 15.8026H9.25V12.7272ZM13.3494 19.5213H9.25004V16.4461H12.1697C12.2334 17.5818 12.6429 18.6448 13.3494 19.5213ZM13.0533 13.1562V12.7272H13.3674C13.2558 12.8651 13.151 13.0082 13.0533 13.1562ZM16.213 10.8876C15.373 11.1067 14.6118 11.5231 13.9817 12.0837H13.0533V9.00843H16.213V10.8876ZM20.0163 11.29C19.7139 11.1378 19.3978 11.0145 19.0723 10.9216L19.0515 10.9157C18.5728 10.7808 18.0778 10.7125 17.5804 10.7127C17.335 10.7127 17.0934 10.7294 16.8566 10.7611V9.00835H20.0163V11.29Z"/>
</mask>
<path d="M20.6599 11.6753V6.09403C20.6599 5.25537 19.9775 4.57303 19.1388 4.57303H18.4483V3.78116C18.4483 3.07471 17.8736 2.5 17.1671 2.5C16.4607 2.5 15.886 3.07471 15.886 3.78116V4.57298H14.2235V3.78116C14.2235 3.07471 13.6488 2.5 12.9424 2.5C12.2359 2.5 11.6612 3.07471 11.6612 3.78116V4.57298H9.99882V3.78116C9.99882 3.07471 9.42411 2.5 8.71766 2.5C8.01121 2.5 7.4365 3.07471 7.4365 3.78116V4.57298H5.77409V3.78116C5.77409 3.07471 5.19938 2.5 4.49293 2.5C3.78648 2.5 3.21164 3.07471 3.21164 3.78116V4.57298H2.52101C1.68234 4.57298 1 5.25528 1 6.09403V6.25276C1.00138 6.33718 1.03589 6.41768 1.09607 6.4769C1.15626 6.53611 1.23732 6.5693 1.32175 6.5693C1.40618 6.5693 1.48724 6.53611 1.54743 6.4769C1.60761 6.41768 1.64212 6.33718 1.6435 6.25276V6.09403C1.6435 5.61021 2.03718 5.21653 2.52101 5.21653H3.21156V6.00836C3.21156 6.7148 3.78627 7.28951 4.49271 7.28951C5.19916 7.28951 5.77387 6.7148 5.77387 6.00831V5.21653H7.43629V6.00836C7.43629 6.7148 8.011 7.28951 8.71745 7.28951C9.42389 7.28951 9.9986 6.7148 9.9986 6.00831V5.21653H11.661V6.00836C11.661 6.7148 12.2357 7.28951 12.9422 7.28951C13.6486 7.28951 14.2233 6.7148 14.2233 6.00831V5.21653H15.8857V6.00836C15.8857 6.7148 16.4605 7.28951 17.1669 7.28951C17.8734 7.28951 18.4481 6.7148 18.4481 6.00831V5.21653H19.1386C19.6225 5.21653 20.0162 5.61021 20.0162 6.09403V8.36493H1.6435V7.53976C1.64212 7.45534 1.60761 7.37484 1.54743 7.31563C1.48724 7.25641 1.40618 7.22323 1.32175 7.22323C1.23732 7.22323 1.15626 7.25641 1.09607 7.31563C1.03589 7.37484 1.00138 7.45534 1 7.53976V18.6438C1 19.4825 1.68234 20.1649 2.52101 20.1649H13.9634C14.9234 21.0268 16.1916 21.5521 17.5803 21.5521C18.7399 21.5521 19.8461 21.1907 20.7795 20.5071C20.847 20.4562 20.8918 20.3807 20.9041 20.297C20.9164 20.2134 20.8953 20.1282 20.8454 20.06C20.7954 19.9918 20.7206 19.946 20.6371 19.9325C20.5536 19.919 20.4681 19.9389 20.3992 19.9879C19.5769 20.5902 18.6022 20.9085 17.5803 20.9085C14.9467 20.9085 12.8041 18.7659 12.8041 16.1324C12.8041 13.4988 14.9467 11.3562 17.5803 11.3562C18.0568 11.3562 18.5314 11.4275 18.9869 11.5677C18.9959 11.5704 19.0048 11.5733 19.0138 11.5762C20.9491 12.1864 22.3565 13.998 22.3565 16.1324C22.3565 17.2336 21.9726 18.3081 21.2757 19.1582C21.2486 19.1908 21.2282 19.2285 21.2157 19.2691C21.2032 19.3096 21.1988 19.3522 21.2028 19.3945C21.2069 19.4367 21.2192 19.4778 21.2392 19.5152C21.2591 19.5527 21.2863 19.5858 21.3191 19.6127C21.3519 19.6396 21.3897 19.6598 21.4304 19.672C21.471 19.6842 21.5136 19.6883 21.5559 19.684C21.5981 19.6797 21.639 19.667 21.6763 19.6468C21.7136 19.6266 21.7466 19.5992 21.7733 19.5662C22.5643 18.6015 23 17.382 23 16.1324C23 14.2871 22.0727 12.6545 20.6599 11.6753ZM5.13037 6.00831C5.13037 6.35993 4.84433 6.64597 4.49271 6.64597C4.1411 6.64597 3.85506 6.35997 3.85506 6.00831V3.78116C3.85506 3.42954 4.14106 3.1435 4.49271 3.1435C4.84433 3.1435 5.13037 3.4295 5.13037 3.78116V6.00831ZM9.35514 6.00831C9.35514 6.35993 9.0691 6.64597 8.71749 6.64597C8.36587 6.64597 8.07983 6.35997 8.07983 6.00831V3.78116C8.07983 3.42954 8.36587 3.1435 8.71749 3.1435C9.0691 3.1435 9.35514 3.4295 9.35514 3.78116V6.00831ZM13.58 6.00831C13.58 6.35993 13.2939 6.64597 12.9423 6.64597C12.5907 6.64597 12.3046 6.35997 12.3046 6.00831V3.78116C12.3046 3.42954 12.5907 3.1435 12.9423 3.1435C13.2939 3.1435 13.58 3.4295 13.58 3.78116V6.00831ZM17.8047 6.00831C17.8047 6.35993 17.5187 6.64597 17.1671 6.64597C16.8155 6.64597 16.5294 6.35997 16.5294 6.00831V3.78116C16.5294 3.42954 16.8155 3.1435 17.1671 3.1435C17.5187 3.1435 17.8047 3.4295 17.8047 3.78116V6.00831ZM9.25004 9.00843H12.4098V12.0837H9.25004V9.00843ZM4.80325 19.5213H2.52101C2.03718 19.5213 1.6435 19.1277 1.6435 18.6438V16.446H4.80321L4.80325 19.5213ZM4.80325 15.8025H1.6435V12.7272H4.80321L4.80325 15.8025ZM4.80325 12.0837H1.6435V9.00843H4.80321L4.80325 12.0837ZM5.44675 12.7272H8.60646V15.8025H5.44675V12.7272ZM8.60654 19.5213H5.44684V16.4461H8.60654V19.5213ZM8.60654 12.0837H5.44684V9.00843H8.60654V12.0837ZM9.25 12.7272H12.4097V14.507C12.2775 14.9275 12.1973 15.3626 12.171 15.8026H9.25V12.7272ZM13.3494 19.5213H9.25004V16.4461H12.1697C12.2334 17.5818 12.6429 18.6448 13.3494 19.5213ZM13.0533 13.1562V12.7272H13.3674C13.2558 12.8651 13.151 13.0082 13.0533 13.1562ZM16.213 10.8876C15.373 11.1067 14.6118 11.5231 13.9817 12.0837H13.0533V9.00843H16.213V10.8876ZM20.0163 11.29C19.7139 11.1378 19.3978 11.0145 19.0723 10.9216L19.0515 10.9157C18.5728 10.7808 18.0778 10.7125 17.5804 10.7127C17.335 10.7127 17.0934 10.7294 16.8566 10.7611V9.00835H20.0163V11.29Z" fill="#0E556C"/>
<path d="M20.6599 11.6753V6.09403C20.6599 5.25537 19.9775 4.57303 19.1388 4.57303H18.4483V3.78116C18.4483 3.07471 17.8736 2.5 17.1671 2.5C16.4607 2.5 15.886 3.07471 15.886 3.78116V4.57298H14.2235V3.78116C14.2235 3.07471 13.6488 2.5 12.9424 2.5C12.2359 2.5 11.6612 3.07471 11.6612 3.78116V4.57298H9.99882V3.78116C9.99882 3.07471 9.42411 2.5 8.71766 2.5C8.01121 2.5 7.4365 3.07471 7.4365 3.78116V4.57298H5.77409V3.78116C5.77409 3.07471 5.19938 2.5 4.49293 2.5C3.78648 2.5 3.21164 3.07471 3.21164 3.78116V4.57298H2.52101C1.68234 4.57298 1 5.25528 1 6.09403V6.25276C1.00138 6.33718 1.03589 6.41768 1.09607 6.4769C1.15626 6.53611 1.23732 6.5693 1.32175 6.5693C1.40618 6.5693 1.48724 6.53611 1.54743 6.4769C1.60761 6.41768 1.64212 6.33718 1.6435 6.25276V6.09403C1.6435 5.61021 2.03718 5.21653 2.52101 5.21653H3.21156V6.00836C3.21156 6.7148 3.78627 7.28951 4.49271 7.28951C5.19916 7.28951 5.77387 6.7148 5.77387 6.00831V5.21653H7.43629V6.00836C7.43629 6.7148 8.011 7.28951 8.71745 7.28951C9.42389 7.28951 9.9986 6.7148 9.9986 6.00831V5.21653H11.661V6.00836C11.661 6.7148 12.2357 7.28951 12.9422 7.28951C13.6486 7.28951 14.2233 6.7148 14.2233 6.00831V5.21653H15.8857V6.00836C15.8857 6.7148 16.4605 7.28951 17.1669 7.28951C17.8734 7.28951 18.4481 6.7148 18.4481 6.00831V5.21653H19.1386C19.6225 5.21653 20.0162 5.61021 20.0162 6.09403V8.36493H1.6435V7.53976C1.64212 7.45534 1.60761 7.37484 1.54743 7.31563C1.48724 7.25641 1.40618 7.22323 1.32175 7.22323C1.23732 7.22323 1.15626 7.25641 1.09607 7.31563C1.03589 7.37484 1.00138 7.45534 1 7.53976V18.6438C1 19.4825 1.68234 20.1649 2.52101 20.1649H13.9634C14.9234 21.0268 16.1916 21.5521 17.5803 21.5521C18.7399 21.5521 19.8461 21.1907 20.7795 20.5071C20.847 20.4562 20.8918 20.3807 20.9041 20.297C20.9164 20.2134 20.8953 20.1282 20.8454 20.06C20.7954 19.9918 20.7206 19.946 20.6371 19.9325C20.5536 19.919 20.4681 19.9389 20.3992 19.9879C19.5769 20.5902 18.6022 20.9085 17.5803 20.9085C14.9467 20.9085 12.8041 18.7659 12.8041 16.1324C12.8041 13.4988 14.9467 11.3562 17.5803 11.3562C18.0568 11.3562 18.5314 11.4275 18.9869 11.5677C18.9959 11.5704 19.0048 11.5733 19.0138 11.5762C20.9491 12.1864 22.3565 13.998 22.3565 16.1324C22.3565 17.2336 21.9726 18.3081 21.2757 19.1582C21.2486 19.1908 21.2282 19.2285 21.2157 19.2691C21.2032 19.3096 21.1988 19.3522 21.2028 19.3945C21.2069 19.4367 21.2192 19.4778 21.2392 19.5152C21.2591 19.5527 21.2863 19.5858 21.3191 19.6127C21.3519 19.6396 21.3897 19.6598 21.4304 19.672C21.471 19.6842 21.5136 19.6883 21.5559 19.684C21.5981 19.6797 21.639 19.667 21.6763 19.6468C21.7136 19.6266 21.7466 19.5992 21.7733 19.5662C22.5643 18.6015 23 17.382 23 16.1324C23 14.2871 22.0727 12.6545 20.6599 11.6753ZM5.13037 6.00831C5.13037 6.35993 4.84433 6.64597 4.49271 6.64597C4.1411 6.64597 3.85506 6.35997 3.85506 6.00831V3.78116C3.85506 3.42954 4.14106 3.1435 4.49271 3.1435C4.84433 3.1435 5.13037 3.4295 5.13037 3.78116V6.00831ZM9.35514 6.00831C9.35514 6.35993 9.0691 6.64597 8.71749 6.64597C8.36587 6.64597 8.07983 6.35997 8.07983 6.00831V3.78116C8.07983 3.42954 8.36587 3.1435 8.71749 3.1435C9.0691 3.1435 9.35514 3.4295 9.35514 3.78116V6.00831ZM13.58 6.00831C13.58 6.35993 13.2939 6.64597 12.9423 6.64597C12.5907 6.64597 12.3046 6.35997 12.3046 6.00831V3.78116C12.3046 3.42954 12.5907 3.1435 12.9423 3.1435C13.2939 3.1435 13.58 3.4295 13.58 3.78116V6.00831ZM17.8047 6.00831C17.8047 6.35993 17.5187 6.64597 17.1671 6.64597C16.8155 6.64597 16.5294 6.35997 16.5294 6.00831V3.78116C16.5294 3.42954 16.8155 3.1435 17.1671 3.1435C17.5187 3.1435 17.8047 3.4295 17.8047 3.78116V6.00831ZM9.25004 9.00843H12.4098V12.0837H9.25004V9.00843ZM4.80325 19.5213H2.52101C2.03718 19.5213 1.6435 19.1277 1.6435 18.6438V16.446H4.80321L4.80325 19.5213ZM4.80325 15.8025H1.6435V12.7272H4.80321L4.80325 15.8025ZM4.80325 12.0837H1.6435V9.00843H4.80321L4.80325 12.0837ZM5.44675 12.7272H8.60646V15.8025H5.44675V12.7272ZM8.60654 19.5213H5.44684V16.4461H8.60654V19.5213ZM8.60654 12.0837H5.44684V9.00843H8.60654V12.0837ZM9.25 12.7272H12.4097V14.507C12.2775 14.9275 12.1973 15.3626 12.171 15.8026H9.25V12.7272ZM13.3494 19.5213H9.25004V16.4461H12.1697C12.2334 17.5818 12.6429 18.6448 13.3494 19.5213ZM13.0533 13.1562V12.7272H13.3674C13.2558 12.8651 13.151 13.0082 13.0533 13.1562ZM16.213 10.8876C15.373 11.1067 14.6118 11.5231 13.9817 12.0837H13.0533V9.00843H16.213V10.8876ZM20.0163 11.29C19.7139 11.1378 19.3978 11.0145 19.0723 10.9216L19.0515 10.9157C18.5728 10.7808 18.0778 10.7125 17.5804 10.7127C17.335 10.7127 17.0934 10.7294 16.8566 10.7611V9.00835H20.0163V11.29Z" stroke="#0E556C" stroke-width="0.2" mask="url(#path-3-outside-1_1290_21936)"/>
</g>
<defs>
<clipPath id="clip0_1290_21936">
<rect width="24" height="24" fill="white"/>
</clipPath>
</defs>
</svg>
