<svg width="24" height="24" viewBox="0 0 24 24" fill="none" xmlns="http://www.w3.org/2000/svg">
<g clip-path="url(#clip0_1398_6430)">
<path d="M1.67252 19.5016L1.07486 21.237C0.714498 22.2832 1.71679 23.2854 2.76291 22.9251L13.1178 19.36M4.63998 10.8821L2.1772 18.0354" stroke="#797C7F" stroke-width="0.8" stroke-miterlimit="10" stroke-linecap="round" stroke-linejoin="round"/>
<path d="M14.3954 15.315C15.1378 16.8321 15.2547 18.1731 14.5663 18.8615C13.3949 20.0334 10.3345 18.8726 7.73089 16.269C5.12733 13.6655 3.96655 10.605 5.13839 9.43362C5.77855 8.79346 6.98316 8.84969 8.36927 9.45797M10.3628 10.6356C11.5403 11.5038 12.6999 12.6721 13.5684 13.9222" stroke="#797C7F" stroke-width="0.8" stroke-miterlimit="10" stroke-linecap="round" stroke-linejoin="round"/>
<path d="M7.65041 10.47C6.92835 10.1513 6.35991 10.0968 6.08057 10.3766C5.22942 11.2277 7.45238 14.5642 10.2278 16.6971M13.2259 15.7506C14.4516 17.9035 13.6569 18.7489 11.5179 17.5573M9.74353 11.8087C10.6949 12.5765 11.6627 13.5558 12.4224 14.5513" stroke="#797C7F" stroke-width="0.8" stroke-miterlimit="10" stroke-linecap="round" stroke-linejoin="round"/>
<path d="M12.0666 3.55133C12.1717 4.00183 12.0695 4.15297 12.1875 4.6156C12.2331 4.79622 12.303 4.97065 12.3947 5.13445C12.5782 5.46211 12.6722 5.83232 12.6672 6.20783C12.6622 6.58334 12.5585 6.95093 12.3663 7.27361C12.2707 7.43418 12.1967 7.60671 12.1463 7.78671C12.0575 8.10227 12.0704 8.31703 12.0622 8.44148C12.0312 8.94395 11.4743 9.23215 11.0418 8.97494C10.7828 8.82088 10.6619 8.51541 10.7332 8.22278C10.8167 7.88371 10.7416 7.78065 10.8425 7.41926C10.882 7.27897 10.9399 7.14454 11.0147 7.0195C11.1643 6.7681 11.2451 6.48175 11.2489 6.18923C11.2527 5.89672 11.1794 5.60835 11.0364 5.35315C10.8933 5.09794 10.82 4.80947 10.8239 4.51687C10.8278 4.2244 10.7546 3.93606 10.6117 3.68085C10.4688 3.42564 10.2612 3.21256 10.0098 3.06302C9.75817 2.91331 9.55037 2.70001 9.40728 2.44456C9.34569 2.33439 9.27172 2.2316 9.18681 2.13821C8.98449 1.91597 8.94642 1.58969 9.10004 1.33159C9.35769 0.898981 9.98479 0.886363 10.2515 1.31344C10.3502 1.47131 10.5461 1.87922 11.0763 2.19443C11.1161 2.21834 11.1555 2.24313 11.1932 2.26925M19.3238 16.7785C19.086 16.9632 18.7575 16.9643 18.5112 16.7911C18.2271 16.5914 18.0969 16.6183 17.8029 16.396C17.6867 16.308 17.5826 16.205 17.4933 16.0899C17.1282 15.62 16.5394 15.3797 15.9499 15.4614C15.66 15.5014 15.3648 15.4643 15.0939 15.354C14.5559 15.1344 13.9241 15.2078 13.4432 15.5813C13.212 15.761 12.9376 15.8766 12.6475 15.9164C12.5225 15.9336 12.3998 15.965 12.2819 16.01C12.001 16.117 11.6836 16.0336 11.4992 15.7963C11.1903 15.3988 11.4076 14.8102 11.9023 14.7176C12.0853 14.6833 12.5369 14.6496 13.0238 14.2713C13.3203 14.0408 13.6723 13.8925 14.0443 13.8412C14.4163 13.79 14.7952 13.8375 15.143 13.9792C15.4908 14.121 15.8699 14.1686 16.242 14.1171C16.99 14.0146 17.7479 14.3121 18.2233 14.924C18.4539 15.2205 18.7584 15.4512 19.1063 15.5929C19.1379 15.6058 19.169 15.6194 19.1997 15.6337C19.6563 15.8457 19.7213 16.4696 19.3238 16.7785ZM22.8542 9.08562C22.72 9.35522 22.4244 9.49853 22.1273 9.44917C21.7848 9.39223 21.6791 9.47294 21.3178 9.39998C21.175 9.37095 21.0366 9.3233 20.9062 9.25827C20.3734 8.99296 19.7387 9.03156 19.2428 9.36062C18.9989 9.52223 18.7168 9.61676 18.4248 9.63471C17.8448 9.66994 17.3073 10.0098 17.0357 10.5548C16.9052 10.8169 16.7079 11.04 16.4637 11.2016C16.3585 11.2713 16.2615 11.3527 16.1747 11.4444C15.9679 11.6625 15.6457 11.7249 15.3767 11.5909C14.9261 11.3665 14.8669 10.742 15.2727 10.4441C15.4228 10.3339 15.8151 10.1078 16.09 9.55586C16.2574 9.21968 16.5103 8.9335 16.8234 8.7261C17.1364 8.51869 17.4986 8.39736 17.8734 8.37432C18.2483 8.35148 18.6106 8.23011 18.9236 8.02245C19.5533 7.60591 20.3653 7.54566 21.0588 7.8911C21.3952 8.05845 21.7696 8.13442 22.1445 8.11139C22.1785 8.10932 22.2124 8.10807 22.2464 8.10763C22.7497 8.1009 23.0787 8.63503 22.8542 9.08562Z" stroke="#797C7F" stroke-width="0.8" stroke-miterlimit="10" stroke-linecap="round" stroke-linejoin="round"/>
<path d="M9.00034 12C9.73673 12 10.3337 11.403 10.3337 10.6666C10.3337 9.93024 9.73673 9.33328 9.00034 9.33328C8.26395 9.33328 7.66699 9.93024 7.66699 10.6666C7.66699 11.403 8.26395 12 9.00034 12Z" stroke="#797C7F" stroke-width="0.8" stroke-miterlimit="10" stroke-linecap="round" stroke-linejoin="round"/>
<path d="M21.6664 3.66666C22.4027 3.66666 22.9997 3.0697 22.9997 2.33332C22.9997 1.59693 22.4027 0.999969 21.6664 0.999969C20.93 0.999969 20.333 1.59693 20.333 2.33332C20.333 3.0697 20.93 3.66666 21.6664 3.66666Z" stroke="#797C7F" stroke-width="0.8" stroke-miterlimit="10" stroke-linecap="round" stroke-linejoin="round"/>
<path d="M22 13.9999C22.5523 13.9999 23 13.5522 23 12.9999C23 12.4476 22.5523 11.9999 22 11.9999C21.4477 11.9999 21 12.4476 21 12.9999C21 13.5522 21.4477 13.9999 22 13.9999Z" stroke="#797C7F" stroke-width="0.8" stroke-miterlimit="10" stroke-linecap="round" stroke-linejoin="round"/>
</g>
<defs>
<clipPath id="clip0_1398_6430">
<rect width="24" height="24" fill="white"/>
</clipPath>
</defs>
</svg>
