<svg width="64" height="65" viewBox="0 0 64 65" fill="none" xmlns="http://www.w3.org/2000/svg">
<rect y="0.5" width="64" height="64" rx="8" fill="#DEF1F2"/>
<path d="M46.2174 42.1315C46.0982 42.1315 45.984 42.1788 45.8997 42.263C45.8155 42.3473 45.7682 42.4615 45.7682 42.5807V45.5822C45.7682 45.6239 45.7343 45.6579 45.6925 45.6579H43.9856V39.0947C43.9856 38.8466 43.7845 38.6455 43.5364 38.6455C43.2883 38.6455 43.0872 38.8466 43.0872 39.0947V45.6579H39.7887L40.6815 44.6758C40.8194 44.5241 40.8843 44.3087 40.8554 44.0994C40.8548 44.095 40.8541 44.0905 40.8533 44.086L39.8498 38.1566L40.0344 37.8786L40.0825 37.9128C40.1652 37.9716 40.2597 38.0118 40.3595 38.0306C40.4592 38.0494 40.5619 38.0463 40.6603 38.0217C40.7588 37.9971 40.8508 37.9514 40.93 37.8879C41.0091 37.8243 41.0736 37.7444 41.1189 37.6535V37.6535L42.1401 35.6068L44.4727 36.5102C44.5648 36.5502 45.7679 37.1019 45.7679 38.5374V40.4842C45.7693 40.6025 45.8172 40.7154 45.9013 40.7985C45.9854 40.8817 46.0989 40.9283 46.2171 40.9283C46.3354 40.9283 46.4489 40.8817 46.533 40.7986C46.6171 40.7155 46.6651 40.6025 46.6664 40.4843V38.5374C46.6664 36.4644 44.8884 35.7097 44.8128 35.6785C44.8099 35.6774 44.8071 35.6762 44.8042 35.6751L40.8321 34.1368V33.3186C41.4522 32.8198 41.8876 32.1009 42.0183 31.2813C42.3276 31.2425 42.6145 31.1187 42.8526 30.9139C43.0213 30.7688 43.1567 30.589 43.2494 30.3867C43.3422 30.1844 43.3901 29.9644 43.3899 29.7419C43.3901 29.3852 43.2668 29.0395 43.0411 28.7634V27.5512C43.0411 25.179 41.1111 23.2491 38.739 23.2491C37.674 23.2491 36.6989 23.6389 35.9468 24.2823C35.9375 23.9408 35.8152 23.6121 35.5992 23.3475V22.1354C35.5992 19.7631 33.6692 17.8333 31.2971 17.8333C28.9249 17.8333 26.995 19.7632 26.995 22.1354V23.3791C26.7791 23.6371 26.6582 23.9482 26.6476 24.2784C26.1569 23.8587 25.5777 23.5553 24.9533 23.391C24.713 23.3278 24.4676 23.4711 24.4044 23.711C24.3412 23.951 24.4845 24.1967 24.7244 24.2599C26.2166 24.6528 27.2588 26.0063 27.2588 27.5511V28.223C27.2308 28.2177 27.2027 28.2126 27.1747 28.2079C27.1686 28.0811 27.1364 28.0036 27.0673 27.9042C26.9523 27.739 26.7458 27.5331 26.0816 26.8191C25.9674 26.6961 25.8134 26.6174 25.6468 26.5971C25.4802 26.5768 25.3117 26.6162 25.1714 26.7082C24.0337 27.4514 22.6515 27.8302 21.3687 27.7549C20.9509 27.7304 20.6899 27.914 20.5787 28.2148C20.5688 28.2165 20.4577 28.2389 20.4515 28.2404V27.5511C20.4515 26.0616 21.4468 24.7215 22.8719 24.2923C22.9292 24.2759 22.9825 24.2483 23.029 24.2111C23.0754 24.1739 23.114 24.1278 23.1426 24.0756C23.1711 24.0234 23.1889 23.966 23.1951 23.9068C23.2012 23.8476 23.1955 23.7878 23.1784 23.7308C23.1612 23.6738 23.1329 23.6208 23.0951 23.5748C23.0572 23.5289 23.0107 23.4909 22.958 23.4631C22.9054 23.4353 22.8478 23.4183 22.7885 23.4129C22.7293 23.4076 22.6695 23.4141 22.6128 23.432C21.7461 23.693 20.967 24.2365 20.4193 24.9622C19.8525 25.7129 19.5529 26.6082 19.5529 27.5512V28.795C19.3267 29.0654 19.2043 29.3939 19.2043 29.7419C19.2043 30.5109 19.7709 31.1816 20.5782 31.2817C20.7104 32.0821 21.1447 32.8496 21.83 33.3715V34.137L17.8623 35.6753C17.8595 35.6763 17.8567 35.6775 17.8539 35.6786C17.7781 35.7097 16 36.4644 16 38.5374V45.5822C16 46.1194 16.437 46.5564 16.9742 46.5564H30.8083C30.9946 46.5563 31.1769 46.5026 31.3333 46.4015C31.4898 46.5026 31.6721 46.5564 31.8583 46.5564H45.6925C46.2297 46.5564 46.6667 46.1194 46.6667 45.5822V42.5807C46.6667 42.4615 46.6193 42.3473 46.5351 42.263C46.4508 42.1788 46.3365 42.1315 46.2174 42.1315ZM20.5342 30.3535C20.2709 30.2579 20.1026 30.0143 20.1026 29.7418C20.1026 29.4774 20.2943 29.2603 20.5342 29.1572V30.3535ZM41.2986 35.2809L40.4169 37.0482L39.4235 36.3426L40.5261 34.9817L41.2986 35.2809ZM38.7741 35.7168L37.6123 34.2827V33.8518C37.99 33.9824 38.3968 34.0426 38.7797 34.0427H38.78C39.1759 34.0427 39.5767 33.9675 39.9337 33.8332V34.2855L38.7741 35.7168ZM39.3015 37.3581L39.1363 37.6069H38.4121L38.2468 37.3581L38.7742 36.9836L39.3015 37.3581ZM31.3321 30.3009L30.1703 28.8669V28.4359C30.5465 28.5659 30.9529 28.6267 31.3377 28.6269H31.338C31.7332 28.6269 32.134 28.5519 32.4917 28.4173V28.8696L31.3321 30.3009ZM31.8595 31.9424L31.6943 32.1911H30.9701L30.8048 31.9424L31.3322 31.5679L31.8595 31.9424ZM27.7945 25.8227C27.868 25.8427 27.9434 25.8563 28.02 25.8658C28.1523 26.6662 28.5865 27.4337 29.2718 27.9556V28.7211L28.3554 29.0764C28.3021 28.9644 28.2355 28.8593 28.157 28.7633V27.5512C28.1573 26.9561 28.0339 26.3675 27.7945 25.8227ZM33.7193 25.347C33.7193 26.6619 32.6467 27.7282 31.338 27.7282C29.8615 27.7282 28.8748 26.5839 28.8748 25.347V23.2428C30.2933 23.2996 31.7669 22.8792 32.9717 22.1293C33.3768 22.5636 33.6178 22.816 33.7193 22.9331L33.7193 25.347ZM34.5764 25.8655C34.6521 25.8564 34.7271 25.842 34.8007 25.8223C34.5604 26.367 34.4365 26.9558 34.4368 27.5512V28.7949C34.3687 28.8761 34.3092 28.964 34.2592 29.0574L33.3902 28.721V27.9028C34.0102 27.4039 34.4457 26.685 34.5764 25.8655ZM29.5786 29.5666L30.6814 30.9277L29.9294 31.4619L29.9282 31.4628L29.6896 31.6324L28.8077 29.8651L29.5786 29.5666ZM32.3661 30.4521L33.084 29.5658L33.8566 29.865L32.9749 31.6324L32.7357 31.4625L32.735 31.4619L31.9815 30.9267L32.3661 30.4521ZM32.5925 32.4628L32.6406 32.497C32.7233 32.5558 32.8178 32.596 32.9175 32.6148C33.0173 32.6336 33.1199 32.6305 33.2184 32.6058C33.3169 32.5813 33.4089 32.5356 33.488 32.4721C33.5672 32.4085 33.6316 32.3286 33.6769 32.2377V32.2377L34.4351 30.7182C34.6956 31.0392 35.0723 31.2345 35.4603 31.2829C35.5974 32.1418 36.0616 32.8748 36.7139 33.3715V34.137L32.8947 35.6176L32.4077 32.7408L32.5925 32.4628ZM37.0206 34.9824L38.1234 36.3436L37.1315 37.0482L36.2497 35.281L37.0206 34.9824ZM41.1612 30.7629C41.1613 32.0457 40.1195 33.1441 38.78 33.1441C37.2531 33.1441 36.3168 31.9482 36.3168 30.7629V28.6587C37.7252 28.7149 39.2007 28.3001 40.4136 27.5451C40.8187 27.9795 41.0597 28.2318 41.1612 28.349L41.1612 30.7629ZM42.4915 29.7418C42.4915 30.0148 42.3227 30.2579 42.0599 30.3535V29.1314C42.3315 29.2304 42.4915 29.4786 42.4915 29.7418ZM35.3353 27.5511C35.3353 25.6744 36.8622 24.1475 38.7389 24.1475C40.6157 24.1475 42.1425 25.6744 42.1425 27.5511V28.223C42.1146 28.2176 42.0865 28.2125 42.0584 28.2079C42.0523 28.081 42.02 28.0033 41.9511 27.9042C41.833 27.7347 41.6288 27.5323 40.9653 26.8191C40.7336 26.5705 40.3516 26.5145 40.0552 26.7082C38.9483 27.4313 37.5498 27.8397 36.2191 27.7533C35.8453 27.7288 35.5745 27.9118 35.4625 28.2149C35.4525 28.2165 35.3415 28.2389 35.3353 28.2404L35.3353 27.5511ZM35.4183 29.1572V30.3529C35.1541 30.2576 34.9867 30.0134 34.9867 29.7418C34.9866 29.4774 35.1782 29.2604 35.4183 29.1572ZM35.0494 24.326C35.0494 24.5151 34.9675 24.6941 34.8248 24.8168C34.7637 24.8693 34.6935 24.9102 34.6178 24.9376V23.7155C34.8864 23.813 35.0494 24.06 35.0494 24.326ZM31.2969 18.7317C33.1737 18.7317 34.7005 20.2585 34.7005 22.1353V22.8072C34.6726 22.8018 34.6445 22.7967 34.6164 22.7921C34.6098 22.6545 34.5702 22.5699 34.4892 22.4605C34.369 22.2977 34.1472 22.0739 33.5234 21.4033C33.4092 21.2802 33.2552 21.2016 33.0886 21.1813C32.922 21.161 32.7535 21.2003 32.6132 21.2923C31.4443 22.056 30.0262 22.4277 28.7409 22.3356C28.4265 22.3118 28.1304 22.5018 28.0206 22.799C28.0106 22.8006 27.8996 22.823 27.8933 22.8245V22.1354C27.8933 20.2585 29.4202 18.7317 31.2969 18.7317ZM27.9762 23.7414V24.9376C27.7128 24.8421 27.5446 24.5985 27.5446 24.3259C27.5446 24.0631 27.7347 23.8452 27.9762 23.7414ZM27.1757 29.1314C27.4271 29.2229 27.5885 29.4422 27.6045 29.7028C27.6246 29.9925 27.4465 30.2546 27.1757 30.3529V29.1314ZM27.1341 31.2828C27.5578 31.2298 27.9467 31.0065 28.2018 30.663L28.9875 32.2377L28.9875 32.2377C29.0328 32.3286 29.0972 32.4085 29.1764 32.4721C29.2555 32.5356 29.3475 32.5813 29.446 32.6058C29.6433 32.6551 29.8543 32.6174 30.0238 32.497L30.0719 32.4628L30.2566 32.7408L29.7698 35.6168L25.9482 34.1367V33.3189H25.9482C26.5844 32.8059 27.0064 32.081 27.1341 31.2828ZM23.89 35.7168L22.7283 34.2827V33.8518C23.1044 33.9818 23.5108 34.0426 23.8957 34.0427H23.8959C24.2899 34.0419 24.6805 33.9709 25.0496 33.8332V34.2855L23.89 35.7168ZM24.4175 37.3581L24.2522 37.6069H23.528L23.3628 37.3581L23.8902 36.9836L24.4175 37.3581ZM25.6419 34.9817L26.4146 35.281L25.5328 37.0482L25.2936 36.8783L25.2929 36.8777L24.5394 36.3426L25.6419 34.9817ZM21.4327 30.7629V28.6587C22.8588 28.7156 24.3333 28.2896 25.5296 27.5451C25.9308 27.9754 26.1755 28.2317 26.2772 28.349V30.7629C26.2772 32.0694 25.2119 33.1441 23.8959 33.1441C22.4307 33.1441 21.4327 32.0129 21.4327 30.7629ZM22.1366 34.9824L23.2394 36.3436L22.4874 36.8777L22.4862 36.8786L22.2475 37.0482L21.3657 35.281L22.1366 34.9824ZM19.5795 45.658V39.0947C19.5795 38.8466 19.3785 38.6455 19.1303 38.6455C18.8822 38.6455 18.6811 38.8466 18.6811 39.0947V45.6579H16.9742C16.9541 45.6579 16.9349 45.6499 16.9207 45.6358C16.9065 45.6216 16.8985 45.6023 16.8985 45.5823V38.5374C16.8985 37.0945 18.1142 36.5446 18.1929 36.5106L20.5241 35.6068L21.5454 37.6535L21.5454 37.6535C21.5907 37.7444 21.6552 37.8244 21.7343 37.8879C21.8135 37.9515 21.9055 37.9971 22.004 38.0217C22.2012 38.071 22.4122 38.0332 22.5818 37.9128L22.6299 37.8786L22.8146 38.1566L21.811 44.086C21.8102 44.0905 21.8096 44.095 21.8089 44.0994C21.78 44.3085 21.845 44.524 21.983 44.6759L22.8756 45.6579H19.5795V45.658ZM22.7127 44.1428L23.6668 38.5054H24.1135L25.0677 44.1428L23.8902 45.4382L22.7127 44.1428ZM30.884 45.5822C30.884 45.624 30.8501 45.6579 30.8083 45.6579H29.1016V39.0947C29.1016 38.9756 29.0542 38.8613 28.97 38.777C28.8857 38.6928 28.7715 38.6455 28.6523 38.6455C28.5332 38.6455 28.4189 38.6928 28.3347 38.777C28.2505 38.8613 28.2031 38.9756 28.2031 39.0947V45.6579H24.9047L25.7974 44.6758C25.9353 44.5241 26.0003 44.3087 25.9714 44.0994C25.9707 44.095 25.97 44.0905 25.9693 44.086L24.9657 38.1566L25.1504 37.8786L25.1985 37.9128C25.2812 37.9715 25.3757 38.0117 25.4755 38.0305C25.5752 38.0493 25.6779 38.0463 25.7763 38.0216C25.8748 37.997 25.9668 37.9514 26.0459 37.8878C26.1251 37.8243 26.1896 37.7444 26.2349 37.6535V37.6535L27.2561 35.6069L29.5887 36.5103C30.2686 36.806 30.8839 37.5688 30.8839 38.5374L30.884 45.5822ZM31.3333 36.905C31.1472 36.6051 30.8994 36.3277 30.6008 36.0909L31.1088 33.0896H31.5555L32.0638 36.0925C31.7572 36.336 31.5127 36.6159 31.3333 36.905ZM34.4635 45.658V39.0947C34.4635 38.8466 34.2625 38.6455 34.0143 38.6455C33.7662 38.6455 33.5651 38.8466 33.5651 39.0947V45.6579H31.8583C31.8382 45.6579 31.819 45.6499 31.8048 45.6358C31.7906 45.6216 31.7826 45.6023 31.7825 45.5823V38.5374C31.7825 38.0033 31.95 37.5115 32.3068 37.0983C32.5446 36.8254 32.8601 36.6045 33.077 36.5106L35.4082 35.6067L36.4295 37.6535L36.4296 37.6535C36.4748 37.7444 36.5393 37.8244 36.6184 37.8879C36.6976 37.9515 36.7896 37.9971 36.8881 38.0217C37.0853 38.071 37.2963 38.0332 37.4659 37.9128L37.514 37.8786L37.6986 38.1566L36.6951 44.086C36.6943 44.0905 36.6936 44.095 36.693 44.0994C36.6641 44.3085 36.7291 44.524 36.867 44.6759L37.7597 45.6579H34.4635V45.658ZM37.5967 44.1429L38.5508 38.5054H38.9976L39.9517 44.1429L38.7742 45.4382L37.5967 44.1429Z" fill="#0E556C"/>
</svg>
