<svg width="23" height="22" viewBox="0 0 23 22" fill="none" xmlns="http://www.w3.org/2000/svg">
<path d="M5.51289 20.2306L5.70461 19.9377C5.393 19.7337 5.09105 19.5132 4.79985 19.279L4.7999 19.2789L4.79383 19.2742C4.77544 19.2601 4.76007 19.2424 4.74862 19.2223C4.73717 19.2021 4.72987 19.1798 4.72715 19.1568C4.72443 19.1338 4.72635 19.1104 4.7328 19.0882C4.73924 19.0659 4.75008 19.0451 4.76467 19.0271C4.77927 19.0091 4.79732 18.9941 4.81777 18.9832C4.83821 18.9723 4.86064 18.9655 4.88374 18.9634C4.90684 18.9612 4.93012 18.9637 4.95223 18.9707C4.97435 18.9777 4.99483 18.9891 5.01248 19.0041L5.01241 19.0042L5.01941 19.0099C5.29983 19.2366 5.59165 19.4489 5.89372 19.6458L5.89382 19.6459C5.91296 19.6584 5.92945 19.6745 5.94236 19.6933C5.95526 19.7122 5.96433 19.7334 5.96905 19.7557C5.97376 19.7781 5.97403 19.8011 5.96983 19.8236C5.96564 19.846 5.95706 19.8674 5.94459 19.8866C5.93213 19.9057 5.91602 19.9222 5.89717 19.9351C5.87833 19.948 5.85713 19.9571 5.83479 19.9618C5.81244 19.9665 5.78939 19.9668 5.76694 19.9626C5.74449 19.9584 5.72308 19.9498 5.70395 19.9373L5.51289 20.2306ZM5.51289 20.2306C5.57053 20.2681 5.63501 20.294 5.70264 20.3066C5.77027 20.3192 5.83972 20.3184 5.90704 20.3042C5.97436 20.29 6.03822 20.2627 6.09498 20.2238C6.15174 20.1849 6.20028 20.1353 6.23784 20.0776C6.2754 20.02 6.30124 19.9555 6.31387 19.8879C6.32651 19.8202 6.32571 19.7508 6.31151 19.6835C6.2973 19.6161 6.26998 19.5523 6.2311 19.4955C6.19221 19.4388 6.14253 19.3902 6.08489 19.3527C5.7928 19.1622 5.51062 18.957 5.23946 18.7377C5.18626 18.6924 5.12452 18.6582 5.05788 18.6371C4.99125 18.616 4.92107 18.6084 4.85147 18.6149C4.78188 18.6213 4.71427 18.6416 4.65265 18.6746C4.59102 18.7076 4.53661 18.7525 4.49264 18.8069C4.44866 18.8612 4.416 18.9238 4.39658 18.9909C4.37716 19.0581 4.37137 19.1284 4.37956 19.1978C4.38775 19.2672 4.40975 19.3343 4.44426 19.3951C4.47877 19.4559 4.5251 19.5091 4.58051 19.5517C4.88013 19.7927 5.19127 20.02 5.51289 20.2306ZM11.6738 10.8937V10.6773V4.71429C11.6738 4.66819 11.6555 4.62398 11.6229 4.59138C11.5903 4.55879 11.5461 4.54048 11.5 4.54048C11.4539 4.54048 11.4097 4.55879 11.3771 4.59138C11.3445 4.62398 11.3262 4.66819 11.3262 4.71429V11C11.3262 11.0322 11.3352 11.0639 11.3521 11.0913C11.369 11.1187 11.3932 11.1408 11.4219 11.1552L11.6738 10.8937ZM11.6738 10.8937L11.8674 10.9904L15.7681 12.9397C15.7681 12.9397 15.7681 12.9397 15.7681 12.9397C15.8092 12.9604 15.8405 12.9965 15.855 13.0401C15.8677 13.0782 15.8667 13.1193 15.8526 13.1565L15.845 13.1717C15.8243 13.213 15.788 13.2444 15.7442 13.259C15.7005 13.2736 15.6529 13.2704 15.6116 13.2501C15.6114 13.25 15.6113 13.2499 15.6112 13.2499L11.4222 11.1554L11.6738 10.8937ZM10.9691 21.6359L10.9618 21.6355L10.9546 21.6354C10.9313 21.635 10.9082 21.6299 10.8869 21.6205C10.8656 21.611 10.8463 21.5973 10.8304 21.5802C10.8145 21.5632 10.8021 21.5431 10.7941 21.5211C10.7861 21.4992 10.7826 21.4759 10.7838 21.4525C10.7851 21.4292 10.791 21.4064 10.8012 21.3854C10.8114 21.3644 10.8258 21.3457 10.8434 21.3304C10.8611 21.3151 10.8816 21.3035 10.9038 21.2963C10.926 21.2891 10.9494 21.2864 10.9727 21.2885L10.9727 21.2887L10.9856 21.2894C11.1561 21.298 11.3276 21.3024 11.5 21.3024C17.1808 21.3024 21.8024 16.6807 21.8024 11C21.8024 5.31927 17.1808 0.697619 11.5 0.697619C5.8193 0.697619 1.19765 5.31927 1.19765 11C1.19765 11.1735 1.20199 11.3439 1.21067 11.5153L1.55988 11.4976L1.21065 11.5148C1.21177 11.5376 1.20839 11.5604 1.2007 11.5819C1.19301 11.6034 1.18116 11.6232 1.16582 11.6401C1.15049 11.657 1.13197 11.6708 1.11133 11.6805C1.09104 11.6901 1.06909 11.6957 1.04669 11.6969C1.0463 11.6969 1.04591 11.697 1.04553 11.697L1.03101 11.6976C0.98817 11.6964 0.947201 11.6794 0.916045 11.6498C0.883689 11.6191 0.864396 11.5771 0.862164 11.5325L0.512847 11.55L0.862198 11.5332C0.853666 11.3559 0.849609 11.1784 0.850031 11.0008V11C0.850031 5.12758 5.62762 0.35 11.5 0.35C17.3724 0.35 22.15 5.12758 22.15 11C22.15 16.8724 17.3724 21.65 11.5 21.65C11.3208 21.65 11.1433 21.6459 10.9691 21.6359ZM2.74677 16.5312C2.78477 16.5393 2.81878 16.5597 2.84367 16.589L2.85586 16.6078C3.05094 16.9084 3.26173 17.1985 3.48734 17.4769C3.51314 17.5123 3.52464 17.5562 3.51944 17.5998C3.51409 17.6447 3.49148 17.6857 3.4564 17.7142C3.42132 17.7427 3.37654 17.7564 3.33153 17.7524C3.28778 17.7485 3.24716 17.7282 3.2178 17.6957C2.98458 17.4088 2.76686 17.1083 2.56374 16.7971C2.53865 16.7583 2.52994 16.7111 2.53953 16.6659C2.54915 16.6206 2.57639 16.5809 2.61525 16.5556C2.65412 16.5304 2.70143 16.5216 2.74677 16.5312ZM8.84828 20.9584L8.84838 20.9585C8.87049 20.9644 8.89122 20.9746 8.90938 20.9885C8.92755 21.0024 8.9428 21.0197 8.95427 21.0395C8.96573 21.0593 8.97318 21.0812 8.97619 21.1039C8.9792 21.1266 8.97771 21.1496 8.97181 21.1717C8.96591 21.1938 8.95572 21.2146 8.94181 21.2327C8.9279 21.2509 8.91055 21.2662 8.89074 21.2776C8.87094 21.2891 8.84907 21.2965 8.82639 21.2995C8.80371 21.3025 8.78065 21.3011 8.75854 21.2952C8.39546 21.1978 8.04039 21.0821 7.69541 20.9502L7.69547 20.9501L7.68516 20.9465C7.66318 20.9389 7.64295 20.9269 7.62568 20.9113C7.60841 20.8957 7.59445 20.8768 7.58461 20.8557C7.57478 20.8346 7.56928 20.8118 7.56844 20.7886C7.5676 20.7653 7.57144 20.7421 7.57973 20.7204C7.58801 20.6986 7.60058 20.6788 7.61668 20.662C7.63279 20.6452 7.6521 20.6318 7.67347 20.6226C7.69484 20.6134 7.71784 20.6086 7.74111 20.6085C7.76437 20.6083 7.78743 20.6129 7.80891 20.6218L7.80885 20.622L7.81872 20.6257C8.15596 20.7542 8.49961 20.8653 8.84828 20.9584Z" stroke="#0E556C" stroke-width="0.7"/>
</svg>
