<svg width="25" height="24" viewBox="0 0 25 24" fill="none" xmlns="http://www.w3.org/2000/svg">
<g clip-path="url(#clip0_1290_21939)">
<path d="M1.67498 13.9036C1.57747 13.8109 1.51933 13.6843 1.5126 13.55C1.50379 13.3668 1.4996 13.1834 1.50003 13M1.67498 13.9036L1.60611 13.9761C1.72224 14.0864 1.87636 14.1478 2.03654 14.1476L2.03654 14.1477L2.04041 14.1475L2.0666 14.1465L2.06748 14.1465C2.14932 14.1425 2.22958 14.1224 2.30366 14.0873C2.37774 14.0523 2.44419 14.0031 2.49923 13.9423L2.42514 13.8752L2.49923 13.9423C2.55426 13.8816 2.59679 13.8107 2.62439 13.7335C2.652 13.6564 2.66413 13.5745 2.6601 13.4927L2.66009 13.4926C2.6518 13.3287 2.64765 13.1659 2.64765 13C2.64765 7.5678 7.06783 3.14762 12.5 3.14762C17.9322 3.14762 22.3524 7.5678 22.3524 13C22.3524 18.4322 17.9322 22.8524 12.5 22.8524C12.3357 22.8524 12.1725 22.8483 12.0103 22.84M1.67498 13.9036L1.60611 13.9761C1.48998 13.8657 1.42074 13.715 1.41273 13.555L1.41272 13.5548C1.40382 13.37 1.39959 13.1849 1.40003 12.9999M1.67498 13.9036L1.40003 12.9999M1.50003 13C1.50003 6.93429 6.43432 2 12.5 2C18.5657 2 23.5 6.93429 23.5 13C23.5 19.0657 18.5657 24 12.5 24C12.3157 24 12.1313 23.9958 11.949 23.9853C11.8786 23.9842 11.8092 23.9689 11.7449 23.9403C11.6806 23.9118 11.6227 23.8706 11.5746 23.8191C11.5266 23.7677 11.4894 23.7071 11.4653 23.641C11.4412 23.5749 11.4307 23.5046 11.4343 23.4343C11.438 23.3641 11.4558 23.2952 11.4866 23.232C11.5175 23.1687 11.5607 23.1124 11.6139 23.0662C11.667 23.02 11.7289 22.9851 11.7958 22.9633M1.50003 13L1.40003 12.9998C1.40003 12.9998 1.40003 12.9998 1.40003 12.9999M1.50003 13H1.40003L11.9452 24.0853M11.7958 22.9633L11.7649 22.8682C11.844 22.8426 11.9275 22.833 12.0103 22.84M11.7958 22.9633L11.7649 22.8682C11.6852 22.8941 11.6115 22.9357 11.5483 22.9907C11.485 23.0457 11.4335 23.1128 11.3967 23.1882C11.36 23.2635 11.3388 23.3454 11.3345 23.4291C11.3301 23.5128 11.3426 23.5965 11.3714 23.6753C11.4001 23.754 11.4443 23.8262 11.5015 23.8874C11.5588 23.9487 11.6277 23.9977 11.7043 24.0317C11.7803 24.0655 11.8622 24.0837 11.9452 24.0853M11.7958 22.9633L11.9452 24.0853M12.0103 22.84C12.011 22.8401 12.0116 22.8401 12.0123 22.8402L12.0035 22.9398L12.0085 22.8399C12.0091 22.84 12.0097 22.84 12.0103 22.84ZM11.9452 24.0853C12.1292 24.0958 12.3148 24.1 12.5 24.1C18.621 24.1 23.6 19.1209 23.6 13C23.6 6.87906 18.621 1.9 12.5 1.9C6.37913 1.9 1.4001 6.87899 1.40003 12.9999M9.64254 23.73L9.64242 23.7299C9.2645 23.6286 8.89504 23.5083 8.53613 23.3711C8.53565 23.3709 8.53518 23.3707 8.5347 23.3705L8.57041 23.2771C8.50417 23.2542 8.44322 23.2181 8.39117 23.1711C8.33912 23.1241 8.29703 23.0672 8.2674 23.0036C8.23777 22.9401 8.2212 22.8712 8.21867 22.8012C8.21614 22.7311 8.22771 22.6612 8.25268 22.5957C8.27765 22.5302 8.31552 22.4704 8.36405 22.4198C8.41258 22.3691 8.47077 22.3288 8.53518 22.3011C8.5996 22.2734 8.66891 22.2589 8.73903 22.2585L9.64254 23.73ZM9.64254 23.73C9.72174 23.7511 9.80434 23.7564 9.8856 23.7456C9.96686 23.7348 10.0452 23.7082 10.1162 23.6671L10.0661 23.5805M9.64254 23.73L10.0661 23.5805M10.0661 23.5805L10.1162 23.6671C10.1871 23.626 10.2493 23.5714 10.2991 23.5063M10.0661 23.5805L10.2991 23.5063M10.2991 23.5063C10.3489 23.4412 10.3855 23.3669 10.4066 23.2877M10.2991 23.5063L10.4066 23.2877M10.4066 23.2877C10.4277 23.2085 10.4331 23.1259 10.4223 23.0447M10.4066 23.2877L10.4223 23.0447M10.4223 23.0447C10.4115 22.9634 10.3848 22.8851 10.3437 22.8141M10.4223 23.0447L10.3437 22.8141M10.3437 22.8141C10.3027 22.7432 10.248 22.681 10.1829 22.6312M10.3437 22.8141L10.1829 22.6312M10.1829 22.6312C10.1179 22.5813 10.0436 22.5448 9.96441 22.5237L10.1829 22.6312ZM4.27768 18.4305L4.27853 18.4297L4.23435 18.3617C4.14405 18.2228 4.00225 18.1254 3.84015 18.091C3.67806 18.0566 3.50894 18.088 3.37001 18.1783C3.23108 18.2687 3.13371 18.4105 3.09932 18.5725C3.06494 18.7346 3.09636 18.9038 3.18666 19.0427L3.18676 19.0428C3.39912 19.3682 3.62745 19.6833 3.87286 19.9848L3.87283 19.9848L3.87473 19.987C3.98072 20.1097 4.13033 20.1863 4.29186 20.2006C4.45339 20.2149 4.61414 20.1658 4.74003 20.0636C4.86593 19.9613 4.94708 19.8141 4.96627 19.6531C4.98547 19.4921 4.94121 19.3299 4.84288 19.201L4.84292 19.201L4.84102 19.1986C4.64082 18.9519 4.45282 18.6956 4.27768 18.4305ZM5.84225 20.5153L5.85147 20.6149L5.84225 20.5153C5.75937 20.523 5.67886 20.5471 5.60547 20.5864C5.53207 20.6257 5.46728 20.6793 5.41491 20.7439C5.36254 20.8086 5.32364 20.8832 5.30052 20.9631C5.27739 21.0431 5.2705 21.1269 5.28025 21.2095C5.29 21.2922 5.3162 21.3721 5.3573 21.4445C5.39822 21.5165 5.45309 21.5797 5.5187 21.6303C5.82046 21.873 6.13394 22.102 6.45811 22.3142L6.4583 22.3144C6.52695 22.3591 6.60373 22.3899 6.68427 22.4049C6.7648 22.42 6.84752 22.419 6.92768 22.4021L6.90704 22.3042C6.97436 22.29 7.03822 22.2627 7.09498 22.2238C7.15174 22.1849 7.20028 22.1353 7.23784 22.0776C7.2754 22.02 7.30124 21.9555 7.31387 21.8879C7.32651 21.8202 7.32571 21.7508 7.31151 21.6835C7.2973 21.6161 7.26998 21.5523 7.2311 21.4955C7.19221 21.4388 7.14253 21.3902 7.08489 21.3527L7.13951 21.2689C7.1395 21.2689 7.13949 21.2689 7.13948 21.2689C6.85058 21.0805 6.57148 20.8775 6.30326 20.6607C6.24014 20.6072 6.16699 20.5667 6.08807 20.5417C6.00872 20.5166 5.92514 20.5076 5.84225 20.5153ZM9.96438 22.5237C9.63113 22.4347 9.30269 22.3285 8.98035 22.2057L9.96438 22.5237ZM17.2158 15.4289H17.2207L17.2483 15.3735C17.322 15.2257 17.3341 15.0547 17.282 14.898C17.2298 14.7413 17.1176 14.6117 16.9701 14.5376L16.9699 14.5375L13.1238 12.6155V6.71429C13.1238 6.54884 13.0581 6.39017 12.9411 6.27319C12.8241 6.1562 12.6655 6.09048 12.5 6.09048C12.3346 6.09048 12.1759 6.1562 12.0589 6.27319C11.9419 6.39017 11.8762 6.54884 11.8762 6.71429V13C11.8762 13.1158 11.9084 13.2292 11.9692 13.3277C12.0301 13.4262 12.1171 13.5058 12.2206 13.5577L12.2206 13.5577L16.4111 15.653L16.4115 15.6531C16.5594 15.7264 16.7303 15.7381 16.8869 15.6858C17.0233 15.6402 17.1392 15.5491 17.2158 15.4289Z" fill="#0E556C" stroke="#0E556C" stroke-width="0.2"/>
</g>
<defs>
<clipPath id="clip0_1290_21939">
<rect width="24" height="24" fill="white" transform="translate(0.5)"/>
</clipPath>
</defs>
</svg>
