<svg width="120" height="120" viewBox="0 0 120 120" fill="none" xmlns="http://www.w3.org/2000/svg">
<path d="M34.6272 40.4839C31.7792 40.4919 28.9813 41.2333 26.503 42.6366C24.0248 44.04 21.9498 46.058 20.478 48.4961L19.8233 49.5855L19.6406 49.6316C17.4843 50.1683 15.5699 51.4116 14.2026 53.1631C12.8353 54.9147 12.0939 57.0736 12.0967 59.2957C12.0967 61.2703 12.6751 63.1794 13.7698 64.8205L15.622 67.6007C16.165 67.2744 16.7858 67.1003 17.4193 67.0968H20.9677V63.6726C20.9677 62.4857 21.5602 61.3786 22.5485 60.7203L26.2902 58.2258H38.7096L41.2183 60.7345C41.8838 61.3998 42.2578 62.3022 42.258 63.2432V67.0968H45.8064C46.4451 67.0968 47.0341 67.2795 47.5522 67.5741L49.5943 63.4916C50.6014 61.4706 51.1267 59.2437 51.1289 56.9857C51.1289 47.8858 43.727 40.4839 34.6272 40.4839Z" fill="#0099A3"/>
<path d="M34.6272 40.4839C31.7792 40.4919 28.9813 41.2333 26.503 42.6366C24.0248 44.04 21.9498 46.058 20.478 48.4961L19.8233 49.5855L19.6406 49.6316C17.4843 50.1683 15.5699 51.4116 14.2026 53.1631C12.8353 54.9147 12.0939 57.0736 12.0967 59.2957C12.0967 61.2703 12.6751 63.1794 13.7698 64.8205L15.622 67.6007C16.165 67.2744 16.7858 67.1003 17.4193 67.0968H20.9677V63.6726C20.9677 62.4857 21.5602 61.3786 22.5485 60.7203L26.2902 58.2258H38.7096L41.2183 60.7345C41.8838 61.3998 42.2578 62.3022 42.258 63.2432V67.0968H45.8064C46.4451 67.0968 47.0341 67.2795 47.5522 67.574L49.5943 63.4916C50.6014 61.4706 51.1267 59.2437 51.1289 56.9857C51.1289 47.8858 43.727 40.4839 34.6272 40.4839ZM80.6657 90.816L81.0596 90.7078C81.6676 90.542 82.2204 90.2172 82.6614 89.767C83.1023 89.3167 83.4153 88.7572 83.5683 88.1458L84.5707 84.1344H84.6027C82.5863 83.368 80.8505 82.007 79.6252 80.2317C78.4 78.4564 77.7432 76.3506 77.7418 74.1936V63.6726C77.7418 62.4857 78.3344 61.3786 79.3227 60.7203L83.0644 58.2258H95.4838L97.9925 60.7345C98.658 61.3998 99.032 62.3022 99.0322 63.2432V74.1936C99.0308 76.3506 98.374 78.4564 97.1488 80.2317C95.9235 82.007 94.1877 83.368 92.1714 84.1344H92.2033L93.2057 88.1458C93.3582 88.7574 93.6711 89.3172 94.1121 89.7676C94.553 90.2179 95.1062 90.5425 95.7144 90.7078L96.1083 90.816C98.3775 91.4352 100.48 92.3932 102.394 93.6015L112.138 87.1044L111.153 85.6282C109.031 82.4509 107.9 78.7152 107.903 74.8944V63.5484C107.903 52.7879 99.1475 44.0323 88.387 44.0323C77.6265 44.0323 68.8709 52.7879 68.8709 63.5484V74.8944C68.8709 78.7266 67.746 82.44 65.6206 85.63L64.6359 87.1061L74.3797 93.6032C76.3244 92.3661 78.4432 91.4266 80.6657 90.816Z" fill="#0099A3"/>
<path d="M29.8409 65.3226H33.3893V72.4194H29.8409V65.3226ZM28.0667 73.7748L27.8804 73.4005L24.7064 74.9884L24.8927 75.3627C26.1737 77.9247 28.7498 79.5161 31.6151 79.5161C34.4804 79.5161 37.0566 77.9247 38.3375 75.361L38.5238 74.9866L35.3498 73.3987L35.1635 73.7748C34.4875 75.1268 33.1285 75.9677 31.6151 75.9677C30.1017 75.9677 28.7427 75.1268 28.0667 73.7748ZM86.6151 65.3226H90.1635V72.4194H86.6151V65.3226ZM84.8409 73.7748L84.6546 73.4005L81.4806 74.9884L81.6669 75.3627C82.9479 77.9247 85.524 79.5161 88.3893 79.5161C91.2546 79.5161 93.8308 77.9247 95.1117 75.361L95.298 74.9866L92.124 73.3987L91.9377 73.7748C91.2617 75.1268 89.9027 75.9677 88.3893 75.9677C86.8759 75.9677 85.5169 75.1268 84.8409 73.7748ZM29.8409 97.2581H33.3893V100.806H29.8409V97.2581ZM89.6171 37.4606C87.7929 37.9247 86.131 38.8802 84.8121 40.2231C83.4933 41.5661 82.568 43.245 82.1371 45.0773C83.4719 44.6204 84.8528 44.311 86.255 44.1547C86.7002 43.3536 87.3044 42.6519 88.0305 42.0927C88.7566 41.5334 89.5893 41.1285 90.4775 40.9026C91.3479 40.6876 92.1495 40.2553 92.8073 39.6462C93.4651 39.0371 93.9576 38.2711 94.2388 37.4198L94.5227 36.5647C95.3991 36.7989 96.3129 36.9355 97.2603 36.9355C98.2077 36.9355 99.1232 36.7989 99.9979 36.5647L100.284 37.4216C100.565 38.2726 101.057 39.0384 101.714 39.6475C102.372 40.2565 103.173 40.689 104.043 40.9044C105.273 41.2152 106.391 41.8675 107.267 42.786C108.143 43.7045 108.741 44.8518 108.993 46.0956L109.713 49.7026L113.193 49.0053L112.472 45.3984C112.087 43.4961 111.172 41.7414 109.833 40.3369C108.493 38.9324 106.784 37.9353 104.902 37.4606C104.612 37.3885 104.345 37.2443 104.126 37.0414C103.907 36.8386 103.743 36.5836 103.649 36.3003L103.245 35.085C104.596 34.1638 105.717 32.9435 106.52 31.5189C107.323 30.0942 107.787 28.5035 107.875 26.8705L109.325 24.6953C110.716 22.6164 111.457 20.1708 111.454 17.6695C111.45 14.3105 110.114 11.0901 107.739 8.71496C105.364 6.33978 102.143 5.00376 98.7843 5H95.7345C88.7495 5 83.0667 10.6827 83.0667 17.6695C83.0644 20.171 83.8047 22.6169 85.194 24.6971L86.6435 26.8723C86.732 28.5055 87.1958 30.0965 87.9989 31.5214C88.802 32.9464 89.9228 34.167 91.2741 35.0885L90.8714 36.3003C90.7772 36.5839 90.6128 36.8389 90.3935 37.0418C90.1741 37.2447 89.9071 37.3888 89.6171 37.4606ZM95.7362 8.54839H98.7861C101.204 8.55121 103.522 9.51314 105.232 11.2231C106.942 12.9331 107.903 15.2515 107.905 17.6695C107.905 18.5903 107.765 19.4952 107.497 20.3592C107.202 19.7689 106.746 19.2735 106.183 18.9292L97.2603 13.5765L88.3379 18.931C87.7749 19.2758 87.3195 19.7711 87.0232 20.361C86.7532 19.4893 86.6156 18.582 86.6151 17.6695C86.6179 15.2513 87.5798 12.9329 89.2897 11.223C90.9997 9.51308 93.318 8.5512 95.7362 8.54839ZM90.1635 21.9719L97.2603 17.7139L104.357 21.9719V26.2903C104.357 30.2042 101.174 33.3871 97.2603 33.3871C93.3464 33.3871 90.1635 30.2042 90.1635 26.2903V21.9719ZM24.5183 25.5558C23.5691 26.5015 21.9191 26.5015 20.97 25.5558L20.4501 25.036L17.9414 27.5447L18.4612 28.0645C19.6056 29.2089 21.1261 29.8387 22.7441 29.8387C24.3622 29.8387 25.8845 29.2089 27.0271 28.0645L27.5469 27.5447L25.0382 25.036L24.5183 25.5558Z" fill="#222733"/>
<path d="M11.011 46.0956C11.2631 44.8516 11.8615 43.7041 12.7372 42.7854C13.613 41.8666 14.7305 41.2139 15.961 40.9026C16.8314 40.6876 17.633 40.2553 18.2908 39.6462C18.9486 39.0371 19.4411 38.2711 19.7223 37.4198L20.0062 36.5647C20.8827 36.7989 21.7964 36.9355 22.7438 36.9355C23.6912 36.9355 24.6067 36.7989 25.4814 36.5647L25.767 37.4216C26.0478 38.2726 26.5401 39.0384 27.1976 39.6472C27.8552 40.256 28.6565 40.688 29.5265 40.9026C29.7447 40.9576 29.9523 41.0445 30.1635 41.1208C31.6155 40.7036 33.1183 40.4892 34.6291 40.4839C34.9112 40.4839 35.1862 40.5123 35.463 40.5265C35.0981 40.1381 34.7075 39.7748 34.2938 39.4389C36.03 36.149 36.9374 32.4852 36.9373 28.7653V19.1935C36.9373 11.3676 30.5697 5 22.7438 5C14.9178 5 8.55023 11.3676 8.55023 19.1935V29.6577C8.55023 33.1156 9.4391 36.4777 11.1264 39.4637C9.27573 40.9651 8.00444 43.063 7.53007 45.3984L6.81152 49.0071L10.2907 49.7044L11.011 46.0956ZM22.7438 33.3871C18.8299 33.3871 15.647 30.2042 15.647 26.2903V21.9719L22.7438 17.7139L29.8406 21.9719V26.2903C29.8406 30.2042 26.6577 33.3871 22.7438 33.3871ZM33.3889 28.7653C33.3889 31.9039 32.587 34.9573 31.1393 37.7215C30.8873 37.6363 30.6443 37.5281 30.3852 37.4642C30.0956 37.3921 29.8288 37.2479 29.6098 37.045C29.3909 36.8421 29.2267 36.5872 29.1327 36.3039L28.7281 35.0885C30.1635 34.1132 31.3386 32.8017 32.151 31.2681C32.9633 29.7346 33.3883 28.0257 33.3889 26.2903V28.7653ZM12.0986 19.1935C12.0986 13.3227 16.873 8.54839 22.7438 8.54839C28.6146 8.54839 33.3889 13.3227 33.3889 19.1935V21.9719C33.3889 20.7335 32.7289 19.5679 31.6662 18.9292L22.7438 13.5765L13.8214 18.931C13.2971 19.2471 12.8632 19.693 12.5615 20.2257C12.2597 20.7583 12.1003 21.3598 12.0986 21.9719V19.1935ZM12.0986 26.2903C12.0995 28.0254 12.5247 29.734 13.337 31.2672C14.1494 32.8003 15.3243 34.1116 16.7594 35.0868L16.3567 36.2986C16.2625 36.5821 16.0981 36.8372 15.8787 37.04C15.6594 37.2429 15.3923 37.387 15.1023 37.4589C14.8185 37.5298 14.5506 37.6363 14.2756 37.7303C12.8597 35.2748 12.1093 32.4922 12.0986 29.6577V26.2903ZM97.2599 29.8387C98.0557 29.841 98.844 29.6854 99.5792 29.3808C100.314 29.0763 100.982 28.6289 101.543 28.0645L102.063 27.5447L99.5539 25.036L99.0341 25.5558C98.0849 26.5015 96.4349 26.5015 95.4857 25.5558L94.9659 25.036L92.4572 27.5447L92.977 28.0645C93.538 28.6289 94.2055 29.0763 94.9407 29.3808C95.6758 29.6854 96.4641 29.841 97.2599 29.8387ZM61.776 30.8784C60.8268 31.824 59.1768 31.824 58.2276 30.8784L57.7078 30.3586L55.1991 32.8673L55.7189 33.3871C56.8633 34.5315 58.3838 35.1613 60.0018 35.1613C61.6199 35.1613 63.1422 34.5315 64.2848 33.3871L64.8046 32.8673L62.2959 30.3586L61.776 30.8784Z" fill="#222733"/>
<path d="M45.8061 33.3871H48.1037C49.0322 36.4744 51.1204 39.0822 53.9302 40.6631L53.5558 41.7897C53.3784 42.3166 52.9597 42.7353 52.4327 42.9127L45.996 45.0577C46.9191 45.9362 47.7382 46.9179 48.4373 47.9834L50.2381 47.3837L50.5308 48.411C52.1984 54.2595 54.9262 59.7519 58.5785 64.6147L59.9979 66.5077L61.4173 64.6147C65.0696 59.7519 67.7974 54.2595 69.465 48.411L69.7755 47.3216C71.3452 48.1082 72.7577 49.1755 73.9431 50.4708C74.7379 49.5926 75.609 48.7889 76.5511 48.0685C73.9444 45.1985 70.4821 43.245 66.6777 42.4976L66.071 40.6613C68.8797 39.0801 70.9677 36.4734 71.8974 33.3871H74.1932C77.1277 33.3871 79.5158 30.999 79.5158 28.0645C79.5118 26.7719 79.0367 25.5251 78.1793 24.5577C77.322 23.5903 76.1413 22.9687 74.8585 22.8094L75.3305 21.3971C75.9513 19.5242 76.119 17.5308 75.8197 15.5806C75.5204 13.6304 74.7627 11.779 73.6088 10.1785C72.4549 8.57797 70.9378 7.27406 69.1821 6.37385C67.4263 5.47363 65.4821 5.00279 63.509 5H61.4705C57.9646 5.01081 54.5904 6.33728 52.0158 8.71694L51.079 8.9529C49.8343 9.2608 48.667 9.82332 47.6506 10.605C46.6342 11.3866 45.7908 12.3704 45.1737 13.4943C44.5565 14.6183 44.179 15.8579 44.065 17.135C43.9509 18.4121 44.1028 19.699 44.511 20.9145L45.1426 22.8094C43.8595 22.9683 42.6784 23.5897 41.8207 24.5571C40.963 25.5246 40.4876 26.7716 40.4835 28.0645C40.4835 30.999 42.8716 33.3871 45.8061 33.3871ZM62.7532 41.9387L62.8473 42.2226L59.9997 45.0719L57.1503 42.2226L57.2443 41.9387C58.1332 42.141 59.0522 42.2581 59.9997 42.2581C60.9471 42.2581 61.8661 42.141 62.7532 41.9387ZM55.2218 45.3115L58.3781 48.4677L55.3389 51.5069C54.8122 50.1718 54.3474 48.8131 53.9461 47.4352L53.609 46.2518C54.2069 46.0442 54.7392 45.7053 55.2218 45.3115ZM59.9997 60.4843C58.8317 58.7276 57.7854 56.893 56.8682 54.9932L59.9997 51.8635L63.1311 54.995C62.2139 56.8942 61.1677 58.7282 59.9997 60.4843ZM66.0532 47.4352C65.6519 48.8131 65.1871 50.1718 64.6605 51.5069L61.6213 48.4677L64.6977 45.3913C65.1022 45.6645 65.5493 45.8881 66.0621 45.991C66.1898 46.0158 66.3069 46.0673 66.4347 46.0974L66.0532 47.4352ZM75.9674 28.0645C75.9674 28.5351 75.7805 28.9863 75.4478 29.3191C75.115 29.6518 74.6638 29.8387 74.1932 29.8387H72.419V26.2903H74.1932C74.6638 26.2903 75.115 26.4772 75.4478 26.81C75.7805 27.1427 75.9674 27.594 75.9674 28.0645ZM51.9377 12.3931L53.8113 11.9229L54.1573 11.5769C56.1007 9.64437 58.7279 8.55614 61.4687 8.54839H63.5073C64.9185 8.55025 66.3091 8.8869 67.565 9.53069C68.8208 10.1745 69.906 11.107 70.7314 12.2517C71.5567 13.3965 72.0987 14.7207 72.3128 16.1156C72.527 17.5104 72.4071 18.9362 71.9631 20.2758L71.869 20.5579C71.4641 19.7002 70.8352 18.9678 70.0487 18.4377L66.3069 15.9432L64.3393 18.8955L68.0811 21.39C68.3243 21.5518 68.5236 21.7713 68.6613 22.0289C68.7991 22.2864 68.871 22.5741 68.8706 22.8661V29.8387C68.8706 34.7302 64.8911 38.7097 59.9997 38.7097C55.1082 38.7097 51.1287 34.7302 51.1287 29.8387V23.1606C51.1287 22.4829 51.5048 21.8744 52.1098 21.5727L56.265 19.4952L62.4835 24.1613L64.6108 21.3226L56.6376 15.3418L50.5219 18.4005C49.516 18.9046 48.6969 19.7163 48.1835 20.7176L47.8748 19.7915C47.6252 19.0395 47.5334 18.2442 47.6052 17.4551C47.6771 16.6661 47.911 15.9004 48.2924 15.206C48.6738 14.5115 49.1944 13.9032 49.8216 13.4192C50.4489 12.9352 51.1693 12.5859 51.9377 12.3931ZM45.8061 26.2903H47.5803V29.8387H45.8061C45.3356 29.8387 44.8843 29.6518 44.5516 29.3191C44.2189 28.9863 44.0319 28.5351 44.0319 28.0645C44.0319 27.594 44.2189 27.1427 44.5516 26.81C44.8843 26.4772 45.3356 26.2903 45.8061 26.2903ZM26.8027 55.93L29.3114 53.4213L36.4082 60.5181L33.8977 63.025L26.8027 55.93ZM83.5716 55.9371L86.0803 53.4284L93.1771 60.5252L90.6666 63.0321L83.5716 55.9371Z" fill="#222733"/>
<path d="M96.575 89.1061L96.1794 88.9979C95.8754 88.9143 95.5991 88.7515 95.3787 88.5261C95.1583 88.3008 95.0017 88.0209 94.925 87.7151L94.2774 85.1248C96.25 84.061 97.8982 82.4837 99.0476 80.5598C100.197 78.6358 100.805 76.4369 100.806 74.1958V63.2455C100.806 61.8243 100.251 60.4866 99.2469 59.4824L93.1898 53.4253L90.6811 55.934L96.7382 61.9911C97.07 62.3229 97.2581 62.7788 97.2581 63.2455V74.1958C97.2581 79.0872 93.2785 83.0667 88.3871 83.0667C83.4956 83.0667 79.5161 79.0872 79.5161 74.1958V63.6748C79.5161 63.0805 79.8106 62.5287 80.3056 62.1987L84.0474 59.7042L82.0798 56.7519L78.3381 59.2464C77.6082 59.7316 77.0098 60.3899 76.5962 61.1626C76.1826 61.9353 75.9667 62.7984 75.9677 63.6748V74.1958C75.9695 76.4369 76.5773 78.6358 77.7266 80.5598C78.876 82.4837 80.5242 84.061 82.4968 85.1248L81.8492 87.7151C81.7729 88.0213 81.6165 88.3016 81.3961 88.5274C81.1756 88.7531 80.8991 88.9161 80.5948 88.9997L80.1992 89.1079C69.9266 91.9093 62.5992 100.954 61.8487 111.456H58.1513C57.4026 100.956 50.0734 91.9093 39.8008 89.1079L39.4052 88.9997C39.1012 88.9161 38.8249 88.7533 38.6045 88.5279C38.3841 88.3025 38.2275 88.0227 38.1508 87.7169L37.5032 85.1248C39.2071 84.2015 40.6718 82.893 41.7807 81.3036C42.8896 79.7142 43.612 77.8878 43.8903 75.97H45.8064C48.741 75.97 51.129 73.5819 51.129 70.6474C51.129 67.7129 48.741 65.3248 45.8064 65.3248H44.0323V63.2455C44.0323 61.8243 43.4769 60.4866 42.4727 59.4824L36.4156 53.4253L33.9069 55.934L39.964 61.9911C40.2958 62.3229 40.4839 62.7788 40.4839 63.2455V74.1958C40.4839 79.0872 36.5044 83.0667 31.6129 83.0667C26.7215 83.0667 22.7419 79.0872 22.7419 74.1958V63.6748C22.7419 63.0805 23.0365 62.5287 23.5315 62.1987L27.2732 59.7042L25.3056 56.7519L21.5639 59.2464C20.834 59.7316 20.2356 60.3899 19.822 61.1626C19.4084 61.9353 19.1925 62.7984 19.1935 63.6748V65.3248H17.4194C14.4848 65.3248 12.0968 67.7129 12.0968 70.6474C12.0968 73.5819 14.4848 75.97 17.4194 75.97H19.3355C19.6132 77.8881 20.3353 79.7147 21.4443 81.3042C22.5532 82.8937 24.0183 84.202 25.7226 85.1248L25.075 87.7151C24.9987 88.0213 24.8423 88.3016 24.6219 88.5274C24.4015 88.7531 24.1249 88.9161 23.8206 88.9997L23.425 89.1079C12.5776 92.0637 5 101.983 5 113.228V115.002H115V113.228C115 101.983 107.422 92.0637 96.575 89.1061ZM45.8064 68.8732C46.277 68.8732 46.7283 69.0601 47.061 69.3928C47.3937 69.7256 47.5806 70.1768 47.5806 70.6474C47.5806 71.1179 47.3937 71.5692 47.061 71.9019C46.7283 72.2347 46.277 72.4216 45.8064 72.4216H44.0323V68.8732H45.8064ZM15.6452 70.6474C15.6452 70.1768 15.8321 69.7256 16.1648 69.3928C16.4975 69.0601 16.9488 68.8732 17.4194 68.8732H19.1935V72.4216H17.4194C16.9488 72.4216 16.4975 72.2347 16.1648 71.9019C15.8321 71.5692 15.6452 71.1179 15.6452 70.6474ZM85.2894 88.5756L85.8465 86.3508C87.5219 86.7029 89.2523 86.7029 90.9277 86.3508L91.4848 88.5774C91.7136 89.4898 92.18 90.3253 92.8367 90.9987C93.4933 91.6722 94.3168 92.1597 95.2231 92.4114L94.6837 97.2603H82.0905L81.5511 92.4114C82.4575 92.1592 83.2809 91.6714 83.9375 90.9976C84.5941 90.3238 85.0606 89.4882 85.2894 88.5756ZM93.9439 100.809C92.9574 102.918 90.8355 104.357 88.3871 104.357C85.9387 104.357 83.8168 102.918 82.8303 100.809H93.9439ZM37.6256 99.3876C37.0632 102.249 34.5794 104.357 31.6129 104.357C28.6465 104.357 26.1626 102.249 25.6002 99.3876L31.6129 95.7806L37.6256 99.3876ZM38.4489 92.4114L38.1011 95.5358L33.6852 92.8869L36.6037 91.4285C37.1502 91.8596 37.7569 92.2198 38.4489 92.4114ZM31.6129 86.6151C32.484 86.6151 33.3339 86.5229 34.1535 86.3508L34.6716 88.4248L31.6129 89.9542L28.5524 88.4248L29.0705 86.3526C29.9068 86.5267 30.7587 86.6147 31.6129 86.6151ZM26.6239 91.4268L29.5424 92.8869L25.1265 95.5358L24.7787 92.4114C25.4534 92.2099 26.0808 91.875 26.6239 91.4268ZM21.3385 93.6072L21.9684 99.274C22.5148 104.194 26.6611 107.905 31.6129 107.905C36.5647 107.905 40.711 104.194 41.2574 99.274L41.8873 93.6143C45.4105 95.1763 48.4495 97.656 50.6866 100.794C52.9238 103.932 54.2769 107.614 54.6047 111.454H47.5806V106.866C47.5806 105.721 48.026 104.646 48.835 103.837L46.3263 101.329C45.5967 102.054 45.0183 102.917 44.6245 103.867C44.2307 104.818 44.0294 105.837 44.0323 106.866V111.454H19.1935V106.866C19.1964 105.837 18.9951 104.818 18.6013 103.867C18.2075 102.917 17.6291 102.054 16.8995 101.329L14.3908 103.837C14.7896 104.234 15.1058 104.706 15.3211 105.226C15.5364 105.746 15.6465 106.303 15.6452 106.866V111.454H8.62113C8.94839 107.613 10.3013 103.93 12.5384 100.791C14.7755 97.6514 17.8148 95.1704 21.3385 93.6072ZM104.355 111.454V106.866C104.355 105.721 104.8 104.646 105.609 103.837L103.1 101.329C102.371 102.054 101.792 102.917 101.399 103.867C101.005 104.818 100.804 105.837 100.806 106.866V111.454H75.9677V106.866C75.9706 105.837 75.7693 104.818 75.3755 103.867C74.9817 102.917 74.4033 102.054 73.6737 101.329L71.165 103.837C71.5638 104.234 71.88 104.706 72.0953 105.226C72.3106 105.746 72.4207 106.303 72.4194 106.866V111.454H65.3971C65.7245 107.614 67.0775 103.932 69.3147 100.794C71.5519 97.6556 74.5911 95.176 78.1145 93.6143L78.7444 99.274C79.289 104.194 83.4353 107.905 88.3871 107.905C93.3389 107.905 97.4852 104.194 98.0316 99.274L98.6615 93.6072C102.185 95.1703 105.225 97.6512 107.462 100.791C109.699 103.93 111.052 107.613 111.379 111.454H104.355Z" fill="#222733"/>
</svg>
