<svg width="120" height="120" viewBox="0 0 120 120" fill="none" xmlns="http://www.w3.org/2000/svg">
<path d="M79.5162 61.7742H77.742C74.8073 61.7742 72.4194 59.3864 72.4194 56.4516C72.4194 53.5169 74.8073 51.1291 77.742 51.1291H81.769C81.4554 50.5904 81.2903 49.9782 81.2904 49.3549V41.9543L80.7468 42.1135C80.3436 42.2093 79.9306 42.2579 79.5162 42.2581C79.0456 42.2581 78.5944 42.0712 78.2616 41.7384C77.9289 41.4057 77.742 40.9544 77.742 40.4839V36.9355H68.871V35.1613C68.871 30.2699 64.8915 26.2903 60.0001 26.2903C55.1086 26.2903 51.1291 30.2699 51.1291 35.1613V36.9355H42.2581V40.4839C42.2581 40.9544 42.0712 41.4057 41.7385 41.7384C41.4058 42.0712 40.9545 42.2581 40.4839 42.2581C40.0601 42.2581 39.6485 42.2071 39.2533 42.1135L38.7097 41.9543V49.3549C38.7097 50.002 38.5339 50.6068 38.2312 51.1291H42.2581C45.1929 51.1291 47.5807 53.5169 47.5807 56.4516C47.5807 59.3864 45.1929 61.7742 42.2581 61.7742H40.4839C38.5274 61.7742 36.9355 63.3661 36.9355 65.3226V75.9678H51.1291V70.6452C51.1291 68.6854 52.7179 67.0968 54.6775 67.0968C56.6371 67.0968 58.2259 68.6854 58.2259 70.6452C58.2259 68.6856 59.8147 67.0968 61.7743 67.0968C63.7339 67.0968 65.3226 68.6854 65.3226 70.6452V74.1936C65.3226 72.234 66.9114 70.6452 68.871 70.6452C70.8306 70.6452 72.4194 72.2337 72.4194 74.1936V75.9678H83.0646V65.3226C83.0646 63.3661 81.4727 61.7742 79.5162 61.7742Z" fill="#0099A3"/>
<path d="M44.0323 20.7524C44.0323 19.2732 43.4561 17.8826 42.4104 16.8365L42.2581 16.6844V5H17.4194V16.6844L17.267 16.8368C16.2213 17.8826 15.6452 19.2732 15.6452 20.7524C15.6452 22.4771 16.438 24.02 17.6782 25.0364C16.3457 27.9904 15.6452 31.2148 15.6452 34.4614V36.9355H8.54839C6.5919 36.9355 5 38.5274 5 40.4839V72.4194C5 74.3758 6.5919 75.9677 8.54839 75.9677H15.6452V77.7419C15.6452 82.6334 19.6247 86.6129 24.5161 86.6129C29.4076 86.6129 33.3871 82.6334 33.3871 77.7419V75.9677H36.9355V72.4194H33.3871C31.4306 72.4194 29.8387 74.0112 29.8387 75.9677V77.7419C29.8387 80.6767 27.4509 83.0645 24.5161 83.0645C21.5814 83.0645 19.1935 80.6767 19.1935 77.7419V75.9677C19.1935 74.0112 17.6017 72.4194 15.6452 72.4194H8.54839V40.4839H15.6452V45.8065C15.6452 48.7412 18.033 51.129 20.9677 51.129C21.6606 51.129 22.3219 50.9946 22.9296 50.7527C23.5452 53.0114 25.6135 54.6774 28.0645 54.6774C29.4267 54.6774 30.6704 54.1625 31.6129 53.3177C32.5554 54.1625 33.7992 54.6774 35.1613 54.6774C38.096 54.6774 40.4839 52.2898 40.4839 49.3548V44.0323C42.4404 44.0323 44.0323 42.4404 44.0323 40.4839V33.0826C44.0323 30.2663 43.1979 27.5791 41.6493 25.2999C43.0879 24.2988 44.0323 22.6342 44.0323 20.7524ZM19.7764 19.3457L19.9285 19.1935H42.5249L38.9765 15.6452H20.9677V8.54839H38.7097V15.6452H38.9765L42.5249 19.1935H39.7489L39.901 19.3457C40.0864 19.53 40.2333 19.7492 40.3333 19.9907C40.4334 20.2321 40.4845 20.491 40.4839 20.7524C40.4839 21.8493 39.5915 22.7419 38.4943 22.7419H21.1831C20.086 22.7419 19.1935 21.8495 19.1935 20.7524C19.1935 20.221 19.4007 19.7214 19.7764 19.3457ZM40.4839 40.4839C38.5274 40.4839 36.9355 38.892 36.9355 36.9355H33.3871C33.3871 39.5564 34.8164 41.8484 36.9355 43.0775V49.3548C36.9355 50.3331 36.1395 51.129 35.1613 51.129C34.183 51.129 33.3871 50.3331 33.3871 49.3548V40.4839H29.8387V49.3548C29.8387 50.3331 29.0428 51.129 28.0645 51.129C27.0863 51.129 26.2903 50.3331 26.2903 49.3548V40.4839H22.7419V45.8065C22.7419 46.7847 21.946 47.5806 20.9677 47.5806C19.9895 47.5806 19.1935 46.7847 19.1935 45.8065V34.4614C19.1959 31.6368 19.8144 28.8467 21.0059 26.2857C21.0649 26.2874 21.1236 26.2901 21.1829 26.2901H37.937C39.5828 28.173 40.4836 30.5579 40.4836 33.0824V40.4839H40.4839ZM111.452 36.9355H104.355V34.4614C104.355 31.2148 103.654 27.9902 102.322 25.0364C103.562 24.02 104.355 22.4771 104.355 20.7524C104.355 19.2732 103.779 17.8826 102.733 16.8365L102.581 16.6844V5H77.7419V16.6844L77.5896 16.8368C76.5439 17.8826 75.9677 19.2732 75.9677 20.7524C75.9677 22.6342 76.9121 24.2988 78.3507 25.2999C76.8021 27.5793 75.9677 30.2665 75.9677 33.0826V40.4839C75.9677 42.4404 77.5596 44.0323 79.5161 44.0323V49.3548C79.5161 52.2896 81.904 54.6774 84.8387 54.6774C86.2008 54.6774 87.4446 54.1625 88.3871 53.3177C89.3296 54.1625 90.5733 54.6774 91.9355 54.6774C94.3865 54.6774 96.4548 53.0114 97.0704 50.7527C97.6946 51.0015 98.3604 51.1292 99.0323 51.129C101.967 51.129 104.355 48.7412 104.355 45.8065V40.4839H111.452V72.4194H104.355C102.398 72.4194 100.806 74.0112 100.806 75.9677V77.7419C100.806 80.6767 98.4186 83.0645 95.4839 83.0645C92.5491 83.0645 90.1613 80.6767 90.1613 77.7419V75.9677C90.1613 74.0112 88.5694 72.4194 86.6129 72.4194H83.0645V75.9677H86.6129V77.7419C86.6129 82.6334 90.5924 86.6129 95.4839 86.6129C100.375 86.6129 104.355 82.6334 104.355 77.7419V75.9677H111.452C113.408 75.9677 115 74.3758 115 72.4194V40.4839C115 38.5274 113.408 36.9355 111.452 36.9355ZM80.0989 19.3457L80.2511 19.1935H109.944L106.396 15.6452H81.2903V8.54839H99.0323L106.396 15.6452L109.944 19.1935H100.071L100.224 19.3457C100.409 19.53 100.556 19.7492 100.656 19.9907C100.756 20.2321 100.807 20.491 100.806 20.7524C100.806 21.8493 99.914 22.7419 98.8169 22.7419H81.5054C80.4085 22.7419 79.5159 21.8495 79.5159 20.7524C79.5153 20.491 79.5665 20.2321 79.6666 19.9907C79.7667 19.7492 79.9136 19.53 80.0989 19.3457ZM100.806 45.8065C100.806 46.7847 100.01 47.5806 99.0323 47.5806C98.054 47.5806 97.2581 46.7847 97.2581 45.8065V42.2581H93.7097V49.3548C93.7097 50.3331 92.9137 51.129 91.9355 51.129C90.9572 51.129 90.1613 50.3331 90.1613 49.3548V42.2581H86.6129V49.3548C86.6129 50.3331 85.8169 51.129 84.8387 51.129C83.8605 51.129 83.0645 50.3331 83.0645 49.3548V43.0775C85.1836 41.8484 86.6129 39.5566 86.6129 36.9355H83.0645C83.0645 38.892 81.4726 40.4839 79.5161 40.4839V33.0826C79.5161 30.5579 80.4172 28.1732 82.0628 26.2903H98.8169C98.8764 26.2903 98.9351 26.2877 98.9939 26.2859C100.186 28.8468 100.804 31.637 100.806 34.4616V45.8065H100.806ZM68.871 68.871C68.1781 68.871 67.5168 69.0054 66.9091 69.2473C66.2935 66.9885 64.2252 65.3226 61.7742 65.3226C60.4121 65.3226 59.1683 65.8375 58.2258 66.6823C57.2833 65.8375 56.0396 65.3226 54.6774 65.3226C51.7427 65.3226 49.3548 67.7102 49.3548 70.6452V75.9677C47.3983 75.9677 45.8065 77.5596 45.8065 79.5161V86.9174C45.8065 89.7337 46.6408 92.4209 48.1894 94.7001C46.7508 95.7012 45.8065 97.3658 45.8065 99.2476C45.8065 100.727 46.3826 102.117 47.4283 103.163L47.5806 103.316V115H72.4194V103.316L72.5717 103.163C73.6176 102.117 74.1936 100.727 74.1936 99.2474C74.1936 97.5226 73.4007 95.9798 72.1605 94.9634C73.4927 92.0093 74.1936 88.785 74.1936 85.5384V74.1936C74.1936 71.2588 71.8057 68.871 68.871 68.871ZM70.0623 100.654L69.9102 100.806H61.7742V104.355H68.871V111.452H51.129V104.355H65.5894L61.7742 100.806H50.0898L49.9377 100.654C49.7523 100.47 49.6054 100.251 49.5054 100.009C49.4053 99.7679 49.3542 99.509 49.3548 99.2476C49.3548 98.1507 50.2473 97.2581 51.3444 97.2581H68.6558C69.7527 97.2581 70.6454 98.1505 70.6454 99.2476C70.646 99.509 70.5947 99.7679 70.4947 100.009C70.3946 100.251 70.2477 100.47 70.0623 100.654ZM68.6556 93.7097H51.9015C50.2559 91.8268 49.3548 89.4418 49.3548 86.9174V79.5161C51.3113 79.5161 52.9032 81.108 52.9032 83.0645H56.4516C56.4516 80.4436 55.0223 78.1516 52.9032 76.9225V70.6452C52.9032 69.6669 53.6992 68.871 54.6774 68.871C55.6557 68.871 56.4516 69.6669 56.4516 70.6452V79.5161H60V70.6452C60 69.6669 60.7959 68.871 61.7742 68.871C62.7524 68.871 63.5484 69.6669 63.5484 70.6452V79.5161H67.0968V74.1936C67.0968 73.2153 67.8927 72.4194 68.871 72.4194C69.8492 72.4194 70.6452 73.2153 70.6452 74.1936V85.5386C70.6429 88.3632 70.0244 91.1534 68.8328 93.7143C68.7738 93.7123 68.7151 93.7097 68.6556 93.7097Z" fill="#222733"/>
</svg>
