<svg width="120" height="120" viewBox="0 0 120 120" fill="none" xmlns="http://www.w3.org/2000/svg">
<path d="M12.0968 31.6129H13.871V27.5216C13.8709 26.6816 14.1687 25.8689 14.7116 25.2279C15.2545 24.5869 16.0071 24.1593 16.8356 24.0211L19.5661 23.5669C22.7857 23.0311 25.7571 21.5019 28.0645 19.1935C30.3719 21.5019 33.3433 23.0311 36.5629 23.5669L39.2934 24.0211C40.1218 24.1596 40.8742 24.5873 41.417 25.2282C41.9598 25.8692 42.2578 26.6817 42.2581 27.5216V31.6129H44.0323C44.7719 31.6143 45.5031 31.7708 46.1785 32.0725C46.8539 32.3741 47.4585 32.8141 47.9532 33.364L49.7256 30.7081C50.6425 29.3353 51.1309 27.7211 51.129 26.0703C51.129 24.7769 50.8239 23.4853 50.2473 22.3321L49.5642 20.9677L50.336 19.4242C50.9066 18.2782 51.1754 17.0054 51.1168 15.7265C51.0582 14.4476 50.6741 13.2048 50.001 12.1158C49.3278 11.0267 48.3879 10.1275 47.2701 9.50327C46.1524 8.879 44.8938 8.55034 43.6135 8.54839H42.989C40.6198 6.28011 37.469 5.00965 34.189 5C32.2303 5 30.2681 5.46306 28.5152 6.33952L28.0645 6.56484L27.6139 6.33952C25.8514 5.46091 23.9093 5.00243 21.94 5C18.66 5.00965 15.5093 6.28011 13.14 8.54839H12.5155C11.2352 8.55034 9.97663 8.879 8.85888 9.50327C7.74113 10.1275 6.80119 11.0267 6.12806 12.1158C5.45492 13.2048 5.07087 14.4476 5.01225 15.7265C4.95362 17.0054 5.22238 18.2782 5.79306 19.4242L6.56484 20.9677L5.88177 22.3321C5.303 23.4933 5.00118 24.7729 5 26.0703C5 27.7256 5.48435 29.3295 6.40339 30.7081L8.17403 33.364C8.66921 32.8142 9.27415 32.3743 9.94981 32.0727C10.6255 31.7711 11.3568 31.6145 12.0968 31.6129ZM67.1979 58.735C68.9134 57.7548 70.8155 57.1456 72.7813 56.9466L77.7419 56.4516V52.9032C75.7412 51.8982 74.0386 50.3866 72.8037 48.5189C71.5689 46.6512 70.8448 44.4926 70.7037 42.2581H68.871C67.4593 42.2581 66.1055 41.6973 65.1073 40.6991C64.1091 39.7009 63.5484 38.3471 63.5484 36.9355C63.5484 35.5238 64.1091 34.17 65.1073 33.1719C66.1055 32.1737 67.4593 31.6129 68.871 31.6129H70.6451V26.2815C70.6451 25.1992 71.2572 24.211 72.2242 23.7266L77.7419 20.9677C83.6021 23.3115 89.8561 24.5161 96.1669 24.5161H96.1758C97.7531 24.5161 99.0322 25.7953 99.0322 27.3726V31.6129H100.806C102.218 31.6129 103.572 32.1737 104.57 33.1719C105.568 34.17 106.129 35.5238 106.129 36.9355C106.129 38.3471 105.568 39.7009 104.57 40.6991C103.572 41.6973 102.218 42.2581 100.806 42.2581H98.9719C98.8308 44.4926 98.1068 46.6512 96.8719 48.5189C95.637 50.3866 93.9345 51.8982 91.9337 52.9032V56.4516H95.4821C97.9589 56.4516 100.285 57.0885 102.311 58.2027C104.051 56.8417 105.459 55.1028 106.428 53.1174C107.397 51.1321 107.901 48.9524 107.903 46.7432V28.0645C107.903 15.3471 97.5561 5 84.8387 5C72.1213 5 61.7742 15.3471 61.7742 28.0645V47.4085C61.7793 49.5809 62.2688 51.7249 63.2071 53.6842C64.1453 55.6436 65.5087 57.369 67.1979 58.735Z" fill="#0099A3"/>
<path d="M20.9676 33.3852C21.9474 33.3852 22.7417 32.5909 22.7417 31.611C22.7417 30.6312 21.9474 29.8369 20.9676 29.8369C19.9877 29.8369 19.1934 30.6312 19.1934 31.611C19.1934 32.5909 19.9877 33.3852 20.9676 33.3852Z" fill="#222733"/>
<path d="M35.1609 33.3852C36.1408 33.3852 36.9351 32.5909 36.9351 31.611C36.9351 30.6312 36.1408 29.8369 35.1609 29.8369C34.1811 29.8369 33.3867 30.6312 33.3867 31.611C33.3867 32.5909 34.1811 33.3852 35.1609 33.3852Z" fill="#222733"/>
<path d="M24.5185 41.8414L24.3322 41.467L21.1582 43.0549L21.3445 43.4275C22.6255 45.9912 25.2016 47.5826 28.0669 47.5826C30.9322 47.5826 33.5084 45.9912 34.7893 43.4275L34.9756 43.0531L31.8016 41.4652L31.6153 41.8414C30.9393 43.1933 29.5803 44.0343 28.0669 44.0343C26.5535 44.0343 25.1945 43.1933 24.5185 41.8414ZM30.6342 37.1238L28.4626 36.0397L29.7488 32.1756L26.385 31.0543L24.1229 37.8352L29.048 40.2996L30.6342 37.1238Z" fill="#222733"/>
<path d="M91.9373 33.3852C92.9171 33.3852 93.7115 32.5909 93.7115 31.611C93.7115 30.6312 92.9171 29.8369 91.9373 29.8369C90.9574 29.8369 90.1631 30.6312 90.1631 31.611C90.1631 32.5909 90.9574 33.3852 91.9373 33.3852Z" fill="#222733"/>
<path d="M77.74 33.3852C78.7199 33.3852 79.5142 32.5909 79.5142 31.611C79.5142 30.6312 78.7199 29.8369 77.74 29.8369C76.7602 29.8369 75.9658 30.6312 75.9658 31.611C75.9658 32.5909 76.7602 33.3852 77.74 33.3852Z" fill="#222733"/>
<path d="M81.291 41.8414L81.1047 41.467L77.9307 43.0549L78.117 43.4275C79.3979 45.9912 81.9741 47.5826 84.8394 47.5826C87.7047 47.5826 90.2808 45.9912 91.5618 43.4275L91.7481 43.0531L88.5741 41.4652L88.3878 41.8414C87.7118 43.1933 86.3528 44.0343 84.8394 44.0343C83.326 44.0343 81.967 43.1933 81.291 41.8414ZM87.4066 37.1238L85.235 36.0397L86.5213 32.1756L83.1574 31.0543L80.8953 37.8352L85.8205 40.2996L87.4066 37.1238Z" fill="#222733"/>
<path d="M95.4839 54.6792H93.7097V53.9553C95.4945 52.889 97.029 51.4511 98.2089 49.7392C99.3887 48.0273 100.186 46.0815 100.547 44.034H100.806C104.72 44.034 107.903 40.8511 107.903 36.9372C107.903 33.0234 104.72 29.8405 100.806 29.8405V27.3743C100.805 26.1452 100.315 24.9672 99.4449 24.0989C98.575 23.2306 97.396 22.7432 96.1669 22.7437C90.0548 22.7437 84.0776 21.5922 78.4002 19.323L77.6603 19.0267L71.4294 22.1422C70.6586 22.5245 70.0104 23.1151 69.5582 23.847C69.106 24.5789 68.8679 25.4229 68.871 26.2832V29.8405C64.9571 29.8405 61.7742 33.0234 61.7742 36.9372C61.7742 40.8511 64.9571 44.034 68.871 44.034H69.13C69.4911 46.0815 70.2887 48.0273 71.4685 49.7392C72.6484 51.4511 74.1829 52.889 75.9677 53.9553V54.8477L72.6039 55.183C68.6595 55.5668 65.0001 57.408 62.3411 60.3465C59.6821 63.2851 58.2147 67.1097 58.2258 71.0727V79.5179H51.129V69.1921C51.1243 65.7339 49.8592 62.396 47.5704 59.8035C45.2817 57.2111 42.1264 55.5419 38.6955 55.1085L36.9355 54.8867V53.9553C38.7204 52.889 40.2548 51.4511 41.4347 49.7392C42.6145 48.0273 43.4121 46.0815 43.7732 44.034H44.0323C47.9461 44.034 51.129 40.8511 51.129 36.9372C51.129 33.0234 47.9461 29.8405 44.0323 29.8405V27.5234C44.0358 26.2627 43.5903 25.042 42.7756 24.08C41.9608 23.118 40.8302 22.4776 39.5861 22.2735L36.8539 21.8176C33.9977 21.3468 31.3617 19.9901 29.3189 17.9392L28.0645 16.6866L26.8102 17.9409C24.7665 19.9917 22.13 21.3484 19.2734 21.8193L16.5447 22.2735C15.3005 22.4775 14.1696 23.1179 13.3546 24.0799C12.5395 25.0418 12.0936 26.2626 12.0968 27.5234V29.8405C8.1829 29.8405 5 33.0234 5 36.9372C5 40.8511 8.1829 44.034 12.0968 44.034H12.3558C12.7169 46.0815 13.5145 48.0273 14.6943 49.7392C15.8742 51.4511 17.4087 52.889 19.1935 53.9553V54.8867L18.9877 54.9134C15.1278 55.4011 11.578 57.2792 9.00319 60.1959C6.42838 63.1127 5.00513 66.868 5 70.7587L5 79.5179C5 84.7571 7.86177 89.3327 12.0968 91.7917V115.002H44.0323V104.177C46.0343 103.766 47.8332 102.676 49.1259 101.093C50.4186 99.51 51.126 97.5295 51.129 95.4856V93.7114H62.0794C64.4588 93.7139 66.7984 93.1008 68.871 91.9319V115.002H100.806V104.085L101.073 104.041C103.976 103.566 106.615 102.072 108.517 99.8271C110.419 97.5825 111.459 94.7338 111.452 91.7917V70.6469C111.452 61.8434 104.289 54.6792 95.4839 54.6792ZM65.3226 36.9372C65.3226 34.9803 66.914 33.3888 68.871 33.3888V40.4856C66.914 40.4856 65.3226 38.8942 65.3226 36.9372ZM104.355 36.9372C104.355 38.8942 102.763 40.4856 100.806 40.4856V33.3888C102.763 33.3888 104.355 34.9803 104.355 36.9372ZM72.4193 41.4224V26.2832C72.4193 25.8716 72.6482 25.5008 73.0173 25.3163L77.8306 22.9105C83.6868 25.1524 89.9052 26.2986 96.1758 26.2921C96.4628 26.2921 96.7381 26.4061 96.9411 26.6091C97.144 26.812 97.2581 27.0873 97.2581 27.3743V41.4224C97.265 43.4786 96.6957 45.4956 95.6148 47.2448C94.5339 48.9939 92.9845 50.4053 91.1424 51.3188L90.1613 51.8085V55.7188L89.6414 56.2387C88.3764 57.5019 86.6271 58.2276 84.8387 58.2276C83.0503 58.2276 81.301 57.5019 80.036 56.2387L79.5161 55.7188V51.8085L78.535 51.3188C76.693 50.4051 75.1438 48.9937 74.0629 47.2446C72.982 45.4955 72.4126 43.4785 72.4193 41.4224ZM51.129 83.0663C53.086 83.0663 54.6774 84.6577 54.6774 86.6146C54.6774 88.5716 53.086 90.163 51.129 90.163H44.0323V81.7108L44.71 80.3553C44.8637 80.0514 45.1151 79.808 45.4239 79.6644C45.7327 79.5207 46.0808 79.4852 46.4123 79.5634C46.7437 79.6417 47.0392 79.8292 47.2511 80.0958C47.4631 80.3623 47.5791 80.6925 47.5806 81.033V83.0663H49.3548H51.129ZM26.0579 60.9811L23.6911 62.5584L22.5858 59.2442L26.0579 60.9811ZM33.9974 59.0188L32.5515 62.6347L30.0711 60.9811L33.9974 59.0188ZM47.5806 36.9372C47.5806 38.8942 45.9892 40.4856 44.0323 40.4856V33.3888C45.9892 33.3888 47.5806 34.9803 47.5806 36.9372ZM8.54839 36.9372C8.54839 34.9803 10.1398 33.3888 12.0968 33.3888V40.4856C10.1398 40.4856 8.54839 38.8942 8.54839 36.9372ZM15.6452 41.4224V27.5251C15.6452 26.654 16.2697 25.9177 17.1284 25.7758L19.8571 25.3198C22.8739 24.8222 25.7054 23.5355 28.0645 21.5905C30.4227 23.5359 33.2538 24.8226 36.2702 25.3198L39.0024 25.7758C39.8594 25.9177 40.4839 26.654 40.4839 27.5234V41.4206C40.4908 43.4768 39.9215 45.4938 38.8406 47.243C37.7597 48.9921 36.2103 50.4035 34.3682 51.3171L33.3871 51.8085V55.3569L28.0645 58.0182L22.7419 55.3569V51.8085L21.7608 51.3188C19.9188 50.4051 18.3696 48.9937 17.2887 47.2446C16.2078 45.4955 15.6385 43.4785 15.6452 41.4224ZM8.54839 79.5179V70.7569C8.54839 64.7814 12.826 59.6877 18.6223 58.5717L21.7945 68.0867L28.0645 63.9085L34.2227 68.014L37.9911 58.5948L38.2573 58.6285C40.8301 58.9543 43.1961 60.2066 44.9122 62.151C46.6284 64.0954 47.577 66.5986 47.5806 69.1921V76.2019C47.0904 76.0476 46.5794 75.9692 46.0655 75.9695C45.1244 75.9666 44.2012 76.2273 43.4007 76.7221C42.6001 77.2169 41.9542 77.9261 41.536 78.7692L41.2024 79.438L40.4839 79.3866V69.6072C40.4839 68.4629 40.9292 67.3877 41.7382 66.5787L39.2295 64.0682C38.4998 64.7938 37.9213 65.6571 37.5275 66.6079C37.1337 67.5587 36.9325 68.5781 36.9355 69.6072V79.1329L19.1935 77.8661V69.6072C19.1935 67.5137 18.3792 65.5479 16.8995 64.0682L14.3908 66.5787C15.1998 67.3877 15.6452 68.4629 15.6452 69.6072V78.4214L13.0779 79.7059L14.6658 82.88L17.7795 81.3222L40.4839 82.9438V90.163H19.1935C13.3227 90.163 8.54839 85.3887 8.54839 79.5179ZM29.8387 111.453V101.905L32.406 100.62L30.8181 97.4461L28.0645 98.8247L25.3092 97.4479L23.7213 100.622L26.2903 101.905V111.453H15.6452V93.2448C16.8034 93.5503 17.9957 93.7071 19.1935 93.7114H40.4839V111.453H29.8387ZM47.5806 95.4856C47.5771 96.5828 47.2342 97.652 46.5989 98.5465C45.9636 99.441 45.067 100.117 44.0323 100.482V93.7114H47.5806V95.4856ZM62.0794 90.163H57.2393C57.8497 89.1145 58.2258 87.9134 58.2258 86.6146C58.2258 85.3159 57.8497 84.1148 57.2393 83.0663H61.0397C62.184 83.0663 63.2592 83.5116 64.0682 84.3224L66.5769 81.8119C65.2866 80.5304 63.5863 79.744 61.7742 79.5906V71.0727C61.7655 67.9903 62.9071 65.0154 64.9755 62.7301C67.044 60.4447 69.8907 59.0132 72.9587 58.7155L77.0819 58.3021L77.5273 58.7474C79.4523 60.6724 82.1171 61.7759 84.8387 61.7759C87.5603 61.7759 90.2252 60.6724 92.1502 58.7474L92.67 58.2276H95.4839C102.33 58.2276 107.903 63.7985 107.903 70.6469V90.163H100.806V71.3814C100.806 70.2371 101.252 69.1619 102.061 68.3529L99.5521 65.8424C98.8224 66.568 98.2439 67.4313 97.8501 68.3821C97.4563 69.3328 97.2551 70.3523 97.2581 71.3814V93.7114H72.4193V71.3814C72.4193 70.2371 72.8647 69.1619 73.6737 68.3529L71.165 65.8424C70.4353 66.568 69.8568 67.4313 69.463 68.3821C69.0692 69.3328 68.868 70.3523 68.871 71.3814V87.6064C66.9939 89.2571 64.579 90.1661 62.0794 90.163ZM86.6129 111.453V103.679L89.1802 102.394L87.5922 99.2203L84.8387 100.599L82.0834 99.2221L80.4955 102.396L83.0645 103.679V111.453H72.4193V97.2598H97.2581V111.453H86.6129ZM100.806 100.459V93.7114H107.673C107.306 95.381 106.462 96.9079 105.243 98.1059C104.024 99.304 102.482 100.121 100.806 100.459Z" fill="#222733"/>
</svg>
