<svg width="120" height="120" viewBox="0 0 120 120" fill="none" xmlns="http://www.w3.org/2000/svg">
<path d="M65.1668 26.5307L60.0004 30.8367L54.8339 26.5307L45.5301 41.4144L55.9694 60.8046L60.0004 64.5463L64.0313 60.8046L74.4707 41.4144L65.1668 26.5307ZM60.0004 18.4173C57.0659 18.4173 54.6778 16.0293 54.6778 13.0947C54.6778 10.1602 57.0659 7.77216 60.0004 7.77216C62.9349 7.77216 65.323 10.1602 65.323 13.0947C65.323 16.0293 62.9349 18.4173 60.0004 18.4173ZM36.9359 27.2883C34.0013 27.2883 31.6133 24.9002 31.6133 21.9657C31.6133 19.0312 34.0013 16.6431 36.9359 16.6431C39.8704 16.6431 42.2584 19.0312 42.2584 21.9657C42.2584 24.9002 39.8704 27.2883 36.9359 27.2883ZM84.8391 27.2883C81.9046 27.2883 79.5165 24.9002 79.5165 21.9657C79.5165 19.0312 81.9046 16.6431 84.8391 16.6431C87.7736 16.6431 90.1617 19.0312 90.1617 21.9657C90.1617 24.9002 87.7736 27.2883 84.8391 27.2883Z" fill="#0099A3"/>
<path d="M85.7506 39.7192L70.9663 19.3869L60 28.5258L49.0337 19.3887L34.2494 39.721C18.0989 39.8629 5 53.0345 5 69.2169C5 79.1063 9.91451 88.286 18.1414 93.7718L48.8173 114.223H71.181L101.857 93.7718C105.903 91.0809 109.221 87.4305 111.514 83.1461C113.808 78.8617 115.005 74.0765 115 69.2169C115 53.0345 101.901 39.8629 85.7506 39.7192ZM49.676 24.541L60 33.1458L70.324 24.541L81.356 39.7068H73.404L74.4721 41.4135L73.4803 43.2552H80.3216L60 62.1237L39.6784 43.2552H46.5197L45.5279 41.4135L46.596 39.7068H38.644L49.676 24.541ZM51.129 103.578H68.871V110.674H51.129V103.578ZM69.8627 100.029H50.2526C46.2315 94.7149 44.0482 88.2367 44.0323 81.5724V69.8681C44.9721 69.8681 45.8736 70.2409 46.5388 70.9048C47.2041 71.5688 47.5788 72.4695 47.5806 73.4093V79.0176C47.5806 81.7179 49.0852 84.145 51.3544 85.2681L51.5105 85.355C52.4641 85.8263 53.2664 86.5556 53.8263 87.4601C54.3861 88.3646 54.681 89.408 54.6774 90.4718V91.1584H58.2258V90.4718C58.2294 89.2244 57.9806 87.9893 57.4943 86.8407C57.0079 85.6921 56.2942 84.6538 55.396 83.7884C56.3511 82.7562 57.5091 81.9325 58.7975 81.3689C60.0859 80.8053 61.4768 80.514 62.8831 80.5132H72.4193V64.5455C72.4398 64.0887 72.6356 63.6573 72.9661 63.3413C73.2966 63.0253 73.7363 62.8489 74.1935 62.8489C74.6508 62.8489 75.0905 63.0253 75.421 63.3413C75.7514 63.6573 75.9473 64.0887 75.9677 64.5455V84.6702C75.9677 90.4345 73.7926 95.8511 69.8627 100.029ZM54.6774 62.0243V79.6882C53.8609 80.2871 53.113 80.9744 52.4473 81.7374C52.0372 81.4123 51.7058 80.9989 51.4775 80.528C51.2493 80.0571 51.1302 79.5409 51.129 79.0176V73.4164V58.7297L54.6774 62.0243ZM61.7742 77.034C60.5632 77.128 59.37 77.3821 58.2258 77.7898V65.319L60 66.9673L61.7742 65.319V77.034ZM68.871 76.9648H65.3226V62.0243L68.871 58.7297V76.9648ZM8.54839 69.2169C8.54839 54.9152 20.1729 43.28 34.4676 43.2569L47.8752 55.7082C47.6806 56.2679 47.5811 56.8562 47.5806 57.4487L47.5824 67.3061C46.5078 66.6676 45.2823 66.327 44.0323 66.3197C42.0753 66.3197 40.4839 67.9111 40.4839 69.8681V81.5724C40.4839 89.0879 42.9997 96.465 47.5806 102.417V109.134L20.1108 90.8195C16.5511 88.4519 13.6325 85.2403 11.6151 81.4711C9.5977 77.7019 8.54416 73.4921 8.54839 69.2169ZM99.8892 90.8195L72.4193 109.133V102.522C76.9939 97.7056 79.5357 91.311 79.5161 84.6684V64.5455C79.5161 61.611 77.1281 59.2229 74.1935 59.2229C73.569 59.2229 72.9764 59.3506 72.4193 59.5493V57.4487C72.4193 56.8473 72.3164 56.2618 72.1248 55.7082L85.5324 43.2587C99.8271 43.28 111.452 54.9169 111.452 69.2169C111.452 77.9176 107.128 85.9937 99.8892 90.8195ZM39.006 6.96935L41.9582 5L49.0585 15.6452L46.1063 17.6145L39.006 6.96935Z" fill="#222733"/>
<path d="M18.3896 27.1065L19.9758 23.9342L34.1622 31.0274L32.5761 34.1997L18.3896 27.1065ZM72.7385 15.6682L79.8388 5.02307L82.7911 6.99243L75.6908 17.6376L72.7385 15.6682ZM87.5548 31.0327L101.741 23.9395L103.327 27.1118L89.1409 34.205L87.5548 31.0327Z" fill="#222733"/>
</svg>
