<svg width="32" height="32" viewBox="0 0 32 32" fill="none" xmlns="http://www.w3.org/2000/svg">
<path d="M23.7442 2.82104C25.3649 3.13148 26.9136 3.91409 28.1683 5.16887C29.8351 6.8356 30.6684 9.01936 30.6667 11.2055C30.6684 13.3916 29.8351 15.5753 28.1683 17.2421L18.1425 27.2679C16.948 28.4625 15.0115 28.4625 13.8169 27.2679L3.91211 17.3631C0.606379 14.0573 0.429317 8.66642 3.66777 5.29458C5.34926 3.54404 7.58731 2.66876 9.82773 2.66699C12.0138 2.66876 14.1976 3.50213 15.8643 5.16887L15.98 5.28455L16.0951 5.16887C17.6491 3.61486 19.654 2.78444 21.6897 2.67998" stroke="#0099A3" stroke-miterlimit="10" stroke-linecap="round" stroke-linejoin="round"/>
<path d="M12.1709 10.7889C12.5291 11.2711 12.7404 11.8684 12.7404 12.5146C12.7404 13.0352 12.6029 13.5245 12.3627 13.947C12.2853 14.0834 12.3827 14.2534 12.5397 14.2534H19.464C19.6216 14.2534 19.7196 14.4228 19.6411 14.5597C19.3985 14.9834 19.2598 15.4751 19.2598 15.9986C19.2598 17.601 20.5582 18.8995 22.1601 18.8995C23.7613 18.8995 25.045 17.6287 25.0603 16.0275C25.0656 15.4928 24.9263 14.9911 24.6785 14.5597C24.6006 14.4228 24.6985 14.2534 24.8555 14.2534H26.1982M1.90189 14.2534H7.13995C7.29694 14.2534 7.39492 14.084 7.31701 13.947C7.07149 13.5156 6.93338 13.0151 6.93928 12.4822C6.95699 10.8792 8.23714 9.61377 9.84013 9.61377C10.0491 9.61377 10.2533 9.6362 10.4498 9.6781M28.2639 14.2534H30.1077" stroke="#0099A3" stroke-miterlimit="10" stroke-linecap="round" stroke-linejoin="round"/>
<path d="M16.0001 28.1632V23.1859C16.0001 23.0296 15.8323 22.9316 15.6959 23.0078C15.2681 23.2465 14.7739 23.38 14.2476 23.3733C12.6501 23.3533 11.384 22.0704 11.384 20.4728C11.384 18.8706 12.6826 17.5721 14.2847 17.5721C14.7969 17.5721 15.2777 17.7047 15.6952 17.9375C15.832 18.0138 16.0001 17.9162 16.0001 17.7597V12.327C16.0001 12.1708 16.1678 12.0728 16.3043 12.1488C16.7325 12.3875 17.2273 12.521 17.7543 12.5141C19.3515 12.4932 20.6163 11.2108 20.6163 9.61356C20.6163 8.0114 19.3177 6.71283 17.7156 6.71283C17.2219 6.71208 16.7362 6.83782 16.3049 7.07805C16.1682 7.15418 16.0001 7.05662 16.0001 6.90016V5.28418" stroke="#0099A3" stroke-miterlimit="10" stroke-linecap="round" stroke-linejoin="round"/>
</svg>
