<svg width="24" height="24" viewBox="0 0 24 24" fill="none" xmlns="http://www.w3.org/2000/svg">
<path d="M17.8081 2.11553C19.0236 2.34837 20.1852 2.93533 21.1262 3.87641C22.3763 5.12646 23.0013 6.76428 23 8.40386C23.0013 10.0435 22.3763 11.6813 21.1262 12.9313L13.6069 20.4507C12.711 21.3466 11.2586 21.3466 10.3627 20.4507L2.93409 13.0221C0.454788 10.5428 0.321992 6.49957 2.75083 3.97069C4.01195 2.65778 5.69049 2.00133 7.3708 2C9.01039 2.00133 10.6482 2.62635 11.8983 3.87641L11.985 3.96317L12.0713 3.87641C13.2368 2.7109 14.7405 2.08809 16.2672 2.00974" stroke="#FF7A00" stroke-miterlimit="10" stroke-linecap="round" stroke-linejoin="round"/>
<path d="M9.1275 8.09128C9.39619 8.45293 9.55466 8.9009 9.55466 9.3856C9.55466 9.77602 9.45153 10.143 9.27137 10.4599C9.21338 10.5622 9.28642 10.6897 9.40416 10.6897H14.5974C14.7156 10.6897 14.789 10.8167 14.7302 10.9194C14.5482 11.2372 14.4442 11.6059 14.4442 11.9986C14.4442 13.2004 15.418 14.1742 16.6194 14.1742C17.8203 14.1742 18.7831 13.2212 18.7946 12.0203C18.7986 11.6192 18.6941 11.243 18.5082 10.9194C18.4498 10.8167 18.5233 10.6897 18.641 10.6897H19.648M1.42578 10.6897H5.35433C5.47207 10.6897 5.54555 10.5626 5.48712 10.4599C5.30298 10.1363 5.1994 9.76097 5.20383 9.36126C5.21711 8.15901 6.17722 7.20996 7.37947 7.20996C7.53617 7.20996 7.68932 7.22678 7.83673 7.25821M21.1973 10.6897H22.5802" stroke="#FF7A00" stroke-miterlimit="10" stroke-linecap="round" stroke-linejoin="round"/>
<path d="M11.9992 21.1222V17.3892C11.9992 17.272 11.8734 17.1985 11.771 17.2556C11.4502 17.4346 11.0796 17.5347 10.6848 17.5298C9.48673 17.5148 8.53711 16.5525 8.53711 15.3544C8.53711 14.1527 9.51108 13.1788 10.7127 13.1788C11.0968 13.1788 11.4574 13.2783 11.7706 13.4529C11.8731 13.5101 11.9992 13.4369 11.9992 13.3195V9.24503C11.9992 9.12786 12.1249 9.05433 12.2273 9.11139C12.5485 9.29035 12.9196 9.39053 13.3149 9.38535C14.5128 9.36968 15.4614 8.40788 15.4614 7.20993C15.4614 6.0083 14.4874 5.03438 13.2858 5.03438C12.9155 5.03382 12.5513 5.12812 12.2278 5.30829C12.1253 5.36539 11.9992 5.29222 11.9992 5.17488V3.96289" stroke="#FF7A00" stroke-miterlimit="10" stroke-linecap="round" stroke-linejoin="round"/>
</svg>
