<svg width="80" height="80" viewBox="0 0 80 80" fill="none" xmlns="http://www.w3.org/2000/svg">
<rect width="80" height="80" rx="8" fill="#D2D3D5"/>
<path d="M31.3775 27.3531C32.3712 27.1206 32.9882 26.1266 32.7557 25.133C32.5232 24.1393 31.5292 23.5223 30.5355 23.7548C29.5418 23.9873 28.9248 24.9813 29.1573 25.975C29.3898 26.9686 30.3838 27.5857 31.3775 27.3531Z" stroke="#797C7F" stroke-miterlimit="22.9256" stroke-linecap="round" stroke-linejoin="round"/>
<path d="M39.692 27.3531C40.6856 27.1206 41.3027 26.1266 41.0701 25.133C40.8376 24.1393 39.8436 23.5223 38.85 23.7548C37.8563 23.9873 37.2393 24.9813 37.4718 25.975C37.7043 26.9686 38.6983 27.5857 39.692 27.3531Z" stroke="#797C7F" stroke-miterlimit="22.9256" stroke-linecap="round" stroke-linejoin="round"/>
<path d="M48.0074 27.3531C49.0011 27.1206 49.6181 26.1266 49.3856 25.133C49.1531 24.1393 48.1591 23.5223 47.1654 23.7548C46.1717 23.9873 45.5547 24.9813 45.7872 25.975C46.0197 26.9686 47.0137 27.5857 48.0074 27.3531Z" stroke="#797C7F" stroke-miterlimit="22.9256" stroke-linecap="round" stroke-linejoin="round"/>
<path d="M47.5208 54.0134C45.9946 51.0002 42.8644 48.9219 39.2721 48.9219C35.6805 48.9219 32.5511 50.9991 31.0244 54.0111" stroke="#797C7F" stroke-miterlimit="2.6131" stroke-linecap="round" stroke-linejoin="round"/>
<path d="M34.8724 18H54.6279C56.3454 18 57.7505 19.4051 57.7505 21.1226V29.9683C57.7505 31.6858 56.3454 33.0909 54.628 33.0909V36.0015L50.3315 33.0909H41.518L39.0693 36.0015L36.6206 33.0909H28.2139L23.9175 36.0015V33.0909C22.2001 33.0909 20.7949 31.6858 20.7949 29.9683V21.1226C20.795 19.4051 22.2002 18 23.9176 18H26.5575" stroke="#797C7F" stroke-miterlimit="22.9256" stroke-linecap="round" stroke-linejoin="round"/>
<path d="M25.6924 44.9388C26.0428 42.4375 24.2991 40.1258 21.7977 39.7755C19.2964 39.4251 16.9847 41.1688 16.6343 43.6702C16.284 46.1715 18.0277 48.4832 20.529 48.8336C23.0304 49.1839 25.3421 47.4402 25.6924 44.9388Z" stroke="#797C7F" stroke-miterlimit="22.9256" stroke-linecap="round" stroke-linejoin="round"/>
<path d="M25.7839 58.837V62.9945M52.7615 58.837V62.9945M21.1645 53.797V56.0653C21.1645 57.3357 22.2038 58.3751 23.4742 58.3751H55.0712C56.3416 58.3751 57.381 57.3357 57.381 56.0653V53.797M29.9571 58.3751C31.2203 58.3666 32.2511 57.3305 32.2511 56.0654C32.2511 54.7951 31.2115 53.7557 29.9413 53.7557H25.7838V53.5882C25.7838 51.0477 23.7051 48.9688 21.1644 48.9688C18.6237 48.9688 16.5449 51.0477 16.5449 53.5882V63.4565H62.0003V53.5882C62.0003 51.0475 59.9216 48.9688 57.3809 48.9688C54.8402 48.9688 52.7614 51.0479 52.7614 53.5882V53.7557H48.6039C47.3325 53.7557 46.2942 54.7963 46.2942 56.0654C46.2942 57.3252 47.3162 58.3577 48.572 58.375" stroke="#797C7F" stroke-miterlimit="22.9256" stroke-linecap="round" stroke-linejoin="round"/>
<path d="M57.3809 48.877C59.9066 48.877 61.9541 46.8295 61.9541 44.3037C61.9541 41.778 59.9066 39.7305 57.3809 39.7305C54.8551 39.7305 52.8076 41.778 52.8076 44.3037C52.8076 46.8295 54.8551 48.877 57.3809 48.877Z" stroke="#797C7F" stroke-miterlimit="22.9256" stroke-linecap="round" stroke-linejoin="round"/>
<path d="M43.4567 46.09C44.4184 43.7545 43.3048 41.0816 40.9694 40.1199C38.6339 39.1581 35.961 40.2717 34.9992 42.6072C34.0375 44.9427 35.1511 47.6156 37.4865 48.5773C39.822 49.5391 42.4949 48.4255 43.4567 46.09Z" stroke="#797C7F" stroke-miterlimit="22.9256" stroke-linecap="round" stroke-linejoin="round"/>
</svg>
