<svg width="80" height="80" viewBox="0 0 80 80" fill="none" xmlns="http://www.w3.org/2000/svg">
<g clip-path="url(#clip0_247_6934)">
<path d="M25.6285 18.9206C27.2846 18.5331 28.313 16.8764 27.9255 15.2203C27.538 13.5642 25.8813 12.5358 24.2252 12.9233C22.5691 13.3109 21.5407 14.9675 21.9282 16.6236C22.3157 18.2797 23.9724 19.3081 25.6285 18.9206Z" stroke="white" stroke-width="2" stroke-miterlimit="22.9256" stroke-linecap="round" stroke-linejoin="round"/>
<path d="M39.4869 18.9206C41.143 18.5331 42.1714 16.8764 41.7839 15.2203C41.3964 13.5642 39.7397 12.5358 38.0836 12.9233C36.4275 13.3109 35.3991 14.9675 35.7866 16.6236C36.1741 18.2797 37.8308 19.3081 39.4869 18.9206Z" stroke="white" stroke-width="2" stroke-miterlimit="22.9256" stroke-linecap="round" stroke-linejoin="round"/>
<path d="M53.3453 18.9206C55.0014 18.5331 56.0298 16.8764 55.6423 15.2203C55.2548 13.5642 53.5981 12.5358 51.942 12.9233C50.2859 13.3109 49.2575 14.9675 49.645 16.6236C50.0325 18.2797 51.6892 19.3081 53.3453 18.9206Z" stroke="white" stroke-width="2" stroke-miterlimit="22.9256" stroke-linecap="round" stroke-linejoin="round"/>
<path d="M52.5351 63.3531C49.9913 58.331 44.7744 54.8672 38.7871 54.8672C32.8012 54.8672 27.5854 58.3292 25.041 63.3493" stroke="white" stroke-width="2" stroke-miterlimit="2.6131" stroke-linecap="round" stroke-linejoin="round"/>
<path d="M31.4537 3.33203H64.3795C67.242 3.33203 69.5839 5.67394 69.5839 8.5363V23.2793C69.5839 26.1416 67.242 28.4836 64.3796 28.4836V33.3346L57.2188 28.4836H42.5296L38.4485 33.3346L34.3673 28.4836H20.3562L13.1955 33.3346V28.4836C10.3331 28.4836 7.99121 26.1416 7.99121 23.2793V8.5363C7.99136 5.67394 10.3333 3.33203 13.1956 3.33203H17.5955" stroke="white" stroke-width="2" stroke-miterlimit="22.9256" stroke-linecap="round" stroke-linejoin="round"/>
<path d="M16.1541 48.2262C16.738 44.0573 13.8318 40.2045 9.66288 39.6206C5.494 39.0367 1.64113 41.9429 1.05723 46.1117C0.473339 50.2806 3.37954 54.1335 7.54841 54.7174C11.7173 55.3013 15.5702 52.3951 16.1541 48.2262Z" stroke="white" stroke-width="2" stroke-miterlimit="22.9256" stroke-linecap="round" stroke-linejoin="round"/>
<path d="M16.3065 71.3924V78.3216M61.2692 71.3924V78.3216M8.60744 62.9924V66.773C8.60744 68.8902 10.3397 70.6225 12.457 70.6225H65.1187C67.236 70.6225 68.9683 68.8902 68.9683 66.773V62.9924M23.2619 70.6225C25.3671 70.6083 27.0851 68.8816 27.0851 66.7731C27.0851 64.6559 25.3525 62.9236 23.2355 62.9236H16.3064V62.6444C16.3064 58.4102 12.8418 54.9453 8.60729 54.9453C4.37279 54.9453 0.908203 58.4102 0.908203 62.6444V79.0915H76.6672V62.6444C76.6672 58.4099 73.2026 54.9453 68.9681 54.9453C64.7336 54.9453 61.269 58.4105 61.269 62.6444V62.9236H54.3398C52.2209 62.9236 50.4903 64.6579 50.4903 66.7731C50.4903 68.8726 52.1936 70.5935 54.2867 70.6223" stroke="white" stroke-width="2" stroke-miterlimit="22.9256" stroke-linecap="round" stroke-linejoin="round"/>
<path d="M68.9678 54.7911C73.1774 54.7911 76.5899 51.3785 76.5899 47.169C76.5899 42.9594 73.1774 39.5469 68.9678 39.5469C64.7582 39.5469 61.3457 42.9594 61.3457 47.169C61.3457 51.3785 64.7582 54.7911 68.9678 54.7911Z" stroke="white" stroke-width="2" stroke-miterlimit="22.9256" stroke-linecap="round" stroke-linejoin="round"/>
<path d="M45.7608 50.1474C47.3637 46.255 45.5077 41.8001 41.6153 40.1972C37.7228 38.5943 33.268 40.4503 31.665 44.3427C30.0621 48.2352 31.9181 52.69 35.8106 54.293C39.703 55.8959 44.1579 54.0399 45.7608 50.1474Z" stroke="white" stroke-width="2" stroke-miterlimit="22.9256" stroke-linecap="round" stroke-linejoin="round"/>
</g>
<defs>
<clipPath id="clip0_247_6934">
<rect width="80" height="80" fill="white"/>
</clipPath>
</defs>
</svg>
