<svg width="80" height="80" viewBox="0 0 80 80" fill="none" xmlns="http://www.w3.org/2000/svg">
<rect width="80" height="80" rx="8" fill="#D2D3D5"/>
<path d="M31.3775 27.3522C32.3712 27.1197 32.9882 26.1256 32.7557 25.132C32.5232 24.1383 31.5292 23.5213 30.5355 23.7538C29.5418 23.9863 28.9248 24.9803 29.1573 25.974C29.3898 26.9676 30.3838 27.5847 31.3775 27.3522Z" stroke="#797C7F" stroke-miterlimit="22.9256" stroke-linecap="round" stroke-linejoin="round"/>
<path d="M39.6925 27.3522C40.6861 27.1197 41.3031 26.1256 41.0706 25.132C40.8381 24.1383 39.8441 23.5213 38.8504 23.7538C37.8568 23.9863 37.2398 24.9803 37.4723 25.974C37.7048 26.9676 38.6988 27.5847 39.6925 27.3522Z" stroke="#797C7F" stroke-miterlimit="22.9256" stroke-linecap="round" stroke-linejoin="round"/>
<path d="M48.0074 27.3522C49.0011 27.1197 49.6181 26.1256 49.3856 25.132C49.1531 24.1383 48.1591 23.5213 47.1654 23.7538C46.1717 23.9863 45.5547 24.9803 45.7872 25.974C46.0197 26.9676 47.0137 27.5847 48.0074 27.3522Z" stroke="#797C7F" stroke-miterlimit="22.9256" stroke-linecap="round" stroke-linejoin="round"/>
<path d="M47.5213 54.0129C45.9951 50.9997 42.8649 48.9214 39.2726 48.9214C35.681 48.9214 32.5515 50.9986 31.0249 54.0106" stroke="#797C7F" stroke-miterlimit="2.6131" stroke-linecap="round" stroke-linejoin="round"/>
<path d="M34.8719 18H54.6274C56.3449 18 57.75 19.4051 57.75 21.1226V29.9683C57.75 31.6858 56.3449 33.0909 54.6275 33.0909V36.0015L50.331 33.0909H41.5175L39.0688 36.0015L36.6201 33.0909H28.2135L23.917 36.0015V33.0909C22.1996 33.0909 20.7944 31.6858 20.7944 29.9683V21.1226C20.7945 19.4051 22.1997 18 23.9171 18H26.557" stroke="#797C7F" stroke-miterlimit="22.9256" stroke-linecap="round" stroke-linejoin="round"/>
<path d="M25.6924 44.9374C26.0428 42.4361 24.2991 40.1243 21.7977 39.774C19.2964 39.4237 16.9847 41.1674 16.6343 43.6687C16.284 46.17 18.0277 48.4818 20.529 48.8321C23.0304 49.1824 25.3421 47.4387 25.6924 44.9374Z" stroke="#797C7F" stroke-miterlimit="22.9256" stroke-linecap="round" stroke-linejoin="round"/>
<path d="M25.7839 58.836V62.9935M52.7615 58.836V62.9935M21.1645 53.796V56.0644C21.1645 57.3347 22.2038 58.3741 23.4742 58.3741H55.0712C56.3416 58.3741 57.381 57.3347 57.381 56.0644V53.796M29.9571 58.3741C31.2203 58.3656 32.2511 57.3295 32.2511 56.0645C32.2511 54.7941 31.2115 53.7547 29.9413 53.7547H25.7838V53.5872C25.7838 51.0467 23.7051 48.9678 21.1644 48.9678C18.6237 48.9678 16.5449 51.0467 16.5449 53.5872V63.4555H62.0003V53.5872C62.0003 51.0465 59.9216 48.9678 57.3809 48.9678C54.8402 48.9678 52.7614 51.0469 52.7614 53.5872V53.7547H48.6039C47.3325 53.7547 46.2942 54.7953 46.2942 56.0645C46.2942 57.3242 47.3162 58.3567 48.572 58.374" stroke="#797C7F" stroke-miterlimit="22.9256" stroke-linecap="round" stroke-linejoin="round"/>
<path d="M57.3809 48.8755C59.9066 48.8755 61.9541 46.828 61.9541 44.3023C61.9541 41.7765 59.9066 39.729 57.3809 39.729C54.8551 39.729 52.8076 41.7765 52.8076 44.3023C52.8076 46.828 54.8551 48.8755 57.3809 48.8755Z" stroke="#797C7F" stroke-miterlimit="22.9256" stroke-linecap="round" stroke-linejoin="round"/>
<path d="M43.4562 46.089C44.4179 43.7536 43.3043 41.0806 40.9689 40.1189C38.6334 39.1571 35.9605 40.2708 34.9987 42.6062C34.037 44.9417 35.1506 47.6146 37.4861 48.5764C39.8215 49.5381 42.4944 48.4245 43.4562 46.089Z" stroke="#797C7F" stroke-miterlimit="22.9256" stroke-linecap="round" stroke-linejoin="round"/>
</svg>
