<svg width="24" height="24" viewBox="0 0 24 24" fill="none" xmlns="http://www.w3.org/2000/svg">
<path d="M8.88138 7.46315V7.8047C8.88138 8.43912 9.39735 8.9547 10.0314 8.9547H12.9692C13.6033 8.9547 14.1192 8.43912 14.1192 7.8047V7.46354C14.1189 6.98848 13.9894 6.52244 13.7447 6.11529C13.4999 5.70814 13.1491 5.37518 12.7297 5.15204C13.1463 4.8009 13.417 4.28149 13.417 3.69499C13.417 2.63814 12.5572 1.77832 11.5003 1.77832C10.4435 1.77832 9.58365 2.63814 9.58365 3.69499C9.58365 4.28149 9.85428 4.8009 10.271 5.1528C9.85163 5.37592 9.50082 5.70881 9.25606 6.11589C9.0113 6.52297 8.88179 6.98892 8.88138 7.46392V7.46315ZM10.3503 3.69499C10.3503 3.06057 10.8663 2.54499 11.5003 2.54499C12.1343 2.54499 12.6503 3.06057 12.6503 3.69499C12.6503 4.3294 12.1343 4.84499 11.5003 4.84499C10.8663 4.84499 10.3503 4.32902 10.3503 3.69499ZM11.5003 5.61165C11.9914 5.61226 12.4622 5.80761 12.8094 6.15484C13.1566 6.50208 13.352 6.97286 13.3526 7.46392V7.80509C13.3526 7.90675 13.3122 8.00426 13.2403 8.07614C13.1684 8.14803 13.0709 8.18842 12.9692 8.18842H10.0314C9.92971 8.18842 9.83221 8.14803 9.76032 8.07614C9.68843 8.00426 9.64805 7.90675 9.64805 7.80509V7.46392C9.64855 6.97279 9.84385 6.50191 10.1911 6.15459C10.5383 5.80728 11.0092 5.61226 11.5003 5.61165ZM6.59633 17.4191C7.01301 17.0672 7.28365 16.5478 7.28365 15.9613C7.28365 14.9044 6.42383 14.0446 5.36698 14.0446C4.31013 14.0446 3.45031 14.9044 3.45031 15.9613C3.45031 16.5478 3.72095 17.0672 4.13763 17.4191C3.7183 17.6422 3.36749 17.9751 3.12273 18.3822C2.87797 18.7893 2.74846 19.2552 2.74805 19.7302V20.0714C2.74805 20.7058 3.26401 21.2214 3.89805 21.2214H6.83591C7.46995 21.2214 7.98591 20.7058 7.98591 20.0714V19.7302C7.98557 19.2551 7.85609 18.7891 7.61133 18.382C7.36656 17.9748 7.01572 17.6422 6.59633 17.4191ZM4.21698 15.9613C4.21698 15.3269 4.73295 14.8113 5.36698 14.8113C6.00101 14.8113 6.51698 15.3269 6.51698 15.9613C6.51698 16.5957 6.00101 17.1113 5.36698 17.1113C4.73295 17.1113 4.21698 16.5953 4.21698 15.9613ZM7.21925 20.0714C7.21925 20.173 7.17886 20.2705 7.10697 20.3424C7.03508 20.4143 6.93758 20.4547 6.83591 20.4547H3.89805C3.79638 20.4547 3.69888 20.4143 3.62699 20.3424C3.5551 20.2705 3.51471 20.173 3.51471 20.0714V19.7302C3.51471 18.709 4.34578 17.8779 5.36698 17.8779C6.38818 17.8779 7.21925 18.709 7.21925 19.7302V20.0714ZM15.0147 19.7298V20.0714C15.0147 20.7058 15.5307 21.2214 16.1647 21.2214H19.1026C19.7366 21.2214 20.2526 20.7058 20.2526 20.0714V19.7302C20.2522 19.2551 20.1228 18.7891 19.878 18.382C19.6332 17.9748 19.2824 17.6418 18.863 17.4187C19.2797 17.0676 19.5503 16.5482 19.5503 15.9617C19.5503 14.9048 18.6905 14.045 17.6336 14.045C16.5768 14.045 15.717 14.9048 15.717 15.9617C15.717 16.5482 15.9876 17.0676 16.4043 17.4195C15.985 17.6426 15.6342 17.9755 15.3894 18.3826C15.1446 18.7896 15.0151 19.2556 15.0147 19.7306V19.7298ZM16.4836 15.9617C16.4836 15.3272 16.9996 14.8117 17.6336 14.8117C18.2677 14.8117 18.7836 15.3272 18.7836 15.9617C18.7836 16.5961 18.2677 17.1117 17.6336 17.1117C16.9996 17.1117 16.4836 16.5957 16.4836 15.9617ZM17.6336 17.8783C18.1247 17.8789 18.5955 18.0743 18.9427 18.4215C19.29 18.7687 19.4853 19.2395 19.4859 19.7306V20.0718C19.4859 20.1734 19.4455 20.2709 19.3736 20.3428C19.3018 20.4147 19.2042 20.4551 19.1026 20.4551H16.1647C16.063 20.4551 15.9655 20.4147 15.8937 20.3428C15.8218 20.2709 15.7814 20.1734 15.7814 20.0718V19.7306C15.7819 19.2395 15.9772 18.7686 16.3244 18.4213C16.6717 18.0739 17.1425 17.8789 17.6336 17.8783Z" fill="#FF7A00"/>
<path d="M17.6333 12.2667C17.2278 12.2667 16.8345 12.3157 16.4546 12.4012L14.822 9.57337C16.0651 8.58973 16.8667 7.07135 16.8667 5.36667C16.8667 2.40733 14.4593 0 11.5 0C8.54067 0 6.13333 2.40733 6.13333 5.36667C6.13333 5.46833 6.17372 5.56584 6.24561 5.63772C6.3175 5.70961 6.415 5.75 6.51667 5.75C6.61833 5.75 6.71584 5.70961 6.78772 5.63772C6.85961 5.56584 6.9 5.46833 6.9 5.36667C6.9 2.83015 8.96348 0.766667 11.5 0.766667C14.0365 0.766667 16.1 2.83015 16.1 5.36667C16.1 7.90318 14.0365 9.96667 11.5 9.96667C9.4714 9.96398 7.69925 8.66142 7.10087 6.716C7.08669 6.6672 7.06295 6.62171 7.03104 6.58217C6.99912 6.54263 6.95967 6.50983 6.91496 6.48568C6.87025 6.46153 6.82119 6.44651 6.77063 6.44149C6.72006 6.43646 6.66901 6.44155 6.62042 6.45644C6.57184 6.47133 6.5267 6.49573 6.48764 6.52822C6.44857 6.56071 6.41635 6.60064 6.39286 6.6457C6.36936 6.69075 6.35506 6.74003 6.35078 6.79066C6.3465 6.8413 6.35233 6.89227 6.36793 6.94063C6.68609 7.98478 7.31596 8.90665 8.17305 9.58257L6.54542 12.4012C6.1587 12.3128 5.76336 12.2677 5.36667 12.2667C2.40733 12.2667 0 14.674 0 17.6333C0 20.5927 2.40733 23 5.36667 23C7.92618 23 10.0694 21.1976 10.603 18.7964H12.397C12.931 21.1976 15.0742 23 17.6333 23C17.735 23 17.8325 22.9596 17.9044 22.8877C17.9763 22.8158 18.0167 22.7183 18.0167 22.6167C18.0167 22.515 17.9763 22.4175 17.9044 22.3456C17.8325 22.2737 17.735 22.2333 17.6333 22.2333C15.0968 22.2333 13.0333 20.1698 13.0333 17.6333C13.0333 15.0968 15.0968 13.0333 17.6333 13.0333C20.1698 13.0333 22.2333 15.0968 22.2333 17.6333C22.2333 19.6366 20.9534 21.3961 19.0486 22.0118C18.9995 22.0262 18.9537 22.0504 18.9141 22.0828C18.8744 22.1152 18.8417 22.1553 18.8178 22.2006C18.7939 22.2458 18.7793 22.2955 18.7749 22.3465C18.7705 22.3975 18.7763 22.4489 18.7921 22.4976C18.8079 22.5464 18.8333 22.5914 18.8667 22.6302C18.9002 22.6689 18.9411 22.7006 18.9871 22.7232C19.033 22.7459 19.083 22.7592 19.1341 22.7622C19.1852 22.7652 19.2365 22.758 19.2847 22.7409C20.3657 22.3936 21.3082 21.7117 21.9761 20.7935C22.6439 19.8754 23.0025 18.7687 23 17.6333C23 14.674 20.5927 12.2667 17.6333 12.2667ZM5.36667 22.2333C2.83015 22.2333 0.766667 20.1698 0.766667 17.6333C0.766667 15.0968 2.83015 13.0333 5.36667 13.0333C7.90318 13.0333 9.96667 15.0968 9.96667 17.6333C9.96667 20.1698 7.90318 22.2333 5.36667 22.2333ZM12.2667 17.6333C12.2667 17.7675 12.277 17.8982 12.2866 18.0297H10.7134C10.723 17.8982 10.7333 17.7671 10.7333 17.6333C10.7333 15.3556 9.30427 13.4094 7.29752 12.632L8.80938 10.0138C9.62736 10.4861 10.5555 10.7343 11.5 10.7333C12.479 10.7333 13.3948 10.4654 14.186 10.0054L15.7025 12.632C13.6957 13.409 12.2667 15.3556 12.2667 17.6333Z" fill="#FF7A00"/>
</svg>
