<svg width="32" height="32" viewBox="0 0 32 32" fill="none" xmlns="http://www.w3.org/2000/svg">
<path d="M23.4405 16.1851C22.2396 16.1851 21.1051 16.5766 20.1597 17.3173C20.0723 17.3882 20.0162 17.4906 20.0036 17.6025C19.9909 17.7143 20.0228 17.8267 20.0922 17.9153C20.1616 18.0039 20.2631 18.0616 20.3747 18.0761C20.4863 18.0906 20.5992 18.0606 20.6889 17.9927C21.4818 17.3714 22.4333 17.043 23.4405 17.043C25.9035 17.043 27.9073 19.0468 27.9073 21.5098C27.9073 23.9727 25.9035 25.9765 23.4405 25.9765C20.9776 25.9765 18.9738 23.9727 18.9738 21.5098C18.9732 20.6695 19.2105 19.8461 19.6581 19.135C19.7178 19.0387 19.7371 18.9227 19.7116 18.8122C19.6861 18.7018 19.618 18.606 19.5221 18.5456C19.4262 18.4853 19.3103 18.4653 19.1997 18.4901C19.0891 18.5149 18.9928 18.5825 18.9319 18.678C18.3981 19.526 18.1151 20.5077 18.1157 21.5098C18.1157 24.4458 20.5044 26.8346 23.4405 26.8346C26.3767 26.8346 28.7653 24.4459 28.7653 21.5098C28.7653 18.5738 26.3767 16.1851 23.4405 16.1851Z" fill="#0E556C"/>
<path d="M26.8055 21.721H23.8697V18.7853C23.8679 18.6727 23.8219 18.5654 23.7416 18.4864C23.6614 18.4075 23.5533 18.3632 23.4407 18.3632C23.3281 18.3632 23.2201 18.4075 23.1398 18.4864C23.0596 18.5654 23.0136 18.6727 23.0117 18.7853V22.15C23.0117 22.2638 23.0569 22.3729 23.1374 22.4534C23.2178 22.5338 23.3269 22.579 23.4407 22.579H26.8055C26.9184 22.5777 27.0262 22.532 27.1056 22.4516C27.185 22.3713 27.2296 22.263 27.2296 22.15C27.2296 22.0371 27.185 21.9287 27.1056 21.8484C27.0262 21.7681 26.9184 21.7223 26.8055 21.721Z" fill="#0E556C"/>
<mask id="path-3-outside-1_1404_15824" maskUnits="userSpaceOnUse" x="0.333496" y="2.33339" width="31" height="27" fill="black">
<rect fill="white" x="0.333496" y="2.33339" width="31" height="27"/>
<path d="M27.5467 15.5671V8.12544C27.5467 7.00722 26.6369 6.09743 25.5186 6.09743H24.5979V5.0416C24.5979 4.09967 23.8316 3.33339 22.8897 3.33339C21.9477 3.33339 21.1814 4.09967 21.1814 5.0416V6.09737H18.9649V5.0416C18.9649 4.09967 18.1986 3.33339 17.2567 3.33339C16.3148 3.33339 15.5485 4.09967 15.5485 5.0416V6.09737H13.3319V5.0416C13.3319 4.09967 12.5656 3.33339 11.6237 3.33339C10.6818 3.33339 9.9155 4.09967 9.9155 5.0416V6.09737H7.69894V5.0416C7.69894 4.09967 6.93267 3.33339 5.99074 3.33339C5.0488 3.33339 4.28236 4.09967 4.28236 5.0416V6.09737H3.36151C2.24329 6.09737 1.3335 7.0071 1.3335 8.12544V8.33707C1.33534 8.44964 1.38134 8.55697 1.4616 8.63592C1.54185 8.71487 1.64992 8.75912 1.7625 8.75912C1.87507 8.75912 1.98314 8.71487 2.0634 8.63592C2.14365 8.55697 2.18966 8.44964 2.1915 8.33707V8.12544C2.1915 7.48033 2.7164 6.95543 3.36151 6.95543H4.28224V8.0112C4.28224 8.95313 5.04852 9.7194 5.99045 9.7194C6.93238 9.7194 7.69866 8.95313 7.69866 8.01114V6.95543H9.91521V8.0112C9.91521 8.95313 10.6815 9.7194 11.6234 9.7194C12.5654 9.7194 13.3316 8.95313 13.3316 8.01114V6.95543H15.5482V8.0112C15.5482 8.95313 16.3145 9.7194 17.2564 9.7194C18.1983 9.7194 18.9646 8.95313 18.9646 8.01114V6.95543H21.1812V8.0112C21.1812 8.95313 21.9474 9.7194 22.8894 9.7194C23.8313 9.7194 24.5976 8.95313 24.5976 8.01114V6.95543H25.5183C26.1635 6.95543 26.6884 7.48033 26.6884 8.12544V11.1533H2.1915V10.0531C2.18966 9.94051 2.14365 9.83318 2.0634 9.75422C1.98314 9.67527 1.87507 9.63103 1.7625 9.63103C1.64992 9.63103 1.54185 9.67527 1.4616 9.75422C1.38134 9.83318 1.33534 9.94051 1.3335 10.0531V24.8585C1.3335 25.9768 2.24329 26.8866 3.36151 26.8866H18.618C19.898 28.0358 21.5889 28.7362 23.4406 28.7362C24.9867 28.7362 26.4617 28.2543 27.7062 27.3428C27.7962 27.2749 27.8559 27.1743 27.8723 27.0628C27.8888 26.9512 27.8606 26.8377 27.794 26.7467C27.7273 26.6557 27.6276 26.5947 27.5163 26.5767C27.4049 26.5587 27.291 26.5853 27.1991 26.6506C26.1027 27.4537 24.8031 27.8781 23.4405 27.8781C19.9291 27.8781 17.0723 25.0213 17.0723 21.5099C17.0723 17.9985 19.9291 15.1417 23.4405 15.1417C24.0759 15.1417 24.7087 15.2368 25.316 15.4236C25.328 15.4273 25.3399 15.4312 25.3519 15.4349C27.9324 16.2486 29.8088 18.6641 29.8088 21.5099C29.8088 22.9781 29.297 24.4109 28.3678 25.5443C28.3316 25.5878 28.3044 25.6381 28.2877 25.6921C28.271 25.7462 28.2652 25.803 28.2706 25.8594C28.276 25.9157 28.2924 25.9704 28.3191 26.0203C28.3457 26.0703 28.3819 26.1144 28.4256 26.1503C28.4694 26.1862 28.5198 26.2131 28.574 26.2294C28.6282 26.2457 28.685 26.2511 28.7413 26.2454C28.7976 26.2396 28.8522 26.2228 28.9019 26.1958C28.9517 26.1689 28.9956 26.1324 29.0312 26.0884C30.0859 24.802 30.6668 23.176 30.6668 21.5099C30.6668 19.0495 29.4304 16.8727 27.5467 15.5671ZM6.84066 8.01114C6.84066 8.47996 6.45927 8.86135 5.99045 8.86135C5.52163 8.86135 5.14024 8.48001 5.14024 8.01114V5.0416C5.14024 4.57278 5.52157 4.19139 5.99045 4.19139C6.45927 4.19139 6.84066 4.57272 6.84066 5.0416V8.01114ZM12.4737 8.01114C12.4737 8.47996 12.0923 8.86135 11.6235 8.86135C11.1547 8.86135 10.7733 8.48001 10.7733 8.01114V5.0416C10.7733 4.57278 11.1547 4.19139 11.6235 4.19139C12.0923 4.19139 12.4737 4.57272 12.4737 5.0416V8.01114ZM18.1068 8.01114C18.1068 8.47996 17.7254 8.86135 17.2566 8.86135C16.7878 8.86135 16.4064 8.48001 16.4064 8.01114V5.0416C16.4064 4.57278 16.7878 4.19139 17.2566 4.19139C17.7254 4.19139 18.1068 4.57272 18.1068 5.0416V8.01114ZM23.7398 8.01114C23.7398 8.47996 23.3584 8.86135 22.8896 8.86135C22.4208 8.86135 22.0394 8.48001 22.0394 8.01114V5.0416C22.0394 4.57278 22.4208 4.19139 22.8896 4.19139C23.3584 4.19139 23.7398 4.57272 23.7398 5.0416V8.01114ZM12.3336 12.0113H16.5466V16.1117H12.3336V12.0113ZM6.4045 26.0285H3.36151C2.7164 26.0285 2.1915 25.5036 2.1915 24.8584V21.9281H6.40444L6.4045 26.0285ZM6.4045 21.0701H2.1915V16.9697H6.40444L6.4045 21.0701ZM6.4045 16.1117H2.1915V12.0113H6.40444L6.4045 16.1117ZM7.2625 16.9697H11.4754V21.0701H7.2625V16.9697ZM11.4756 26.0285H7.26261V21.9281H11.4756V26.0285ZM11.4756 16.1117H7.26261V12.0113H11.4756V16.1117ZM12.3335 16.9697H16.5465V19.3427C16.3701 19.9034 16.2632 20.4835 16.2281 21.0701H12.3335V16.9697ZM17.7994 26.0285H12.3336V21.9281H16.2264C16.3114 23.4425 16.8573 24.8598 17.7994 26.0285ZM17.4046 17.5417V16.9697H17.8234C17.6746 17.1535 17.5348 17.3444 17.4046 17.5417ZM21.6176 14.5168C20.4974 14.809 19.4826 15.3641 18.6425 16.1117H17.4046V12.0113H21.6176V14.5168ZM26.6886 15.0534C26.2854 14.8505 25.8639 14.686 25.4299 14.5622L25.4022 14.5543C24.7639 14.3745 24.1038 14.2834 23.4407 14.2836C23.1134 14.2837 22.7914 14.3059 22.4756 14.3482V12.0112H26.6886V15.0534Z"/>
</mask>
<path d="M27.5467 15.5671V8.12544C27.5467 7.00722 26.6369 6.09743 25.5186 6.09743H24.5979V5.0416C24.5979 4.09967 23.8316 3.33339 22.8897 3.33339C21.9477 3.33339 21.1814 4.09967 21.1814 5.0416V6.09737H18.9649V5.0416C18.9649 4.09967 18.1986 3.33339 17.2567 3.33339C16.3148 3.33339 15.5485 4.09967 15.5485 5.0416V6.09737H13.3319V5.0416C13.3319 4.09967 12.5656 3.33339 11.6237 3.33339C10.6818 3.33339 9.9155 4.09967 9.9155 5.0416V6.09737H7.69894V5.0416C7.69894 4.09967 6.93267 3.33339 5.99074 3.33339C5.0488 3.33339 4.28236 4.09967 4.28236 5.0416V6.09737H3.36151C2.24329 6.09737 1.3335 7.0071 1.3335 8.12544V8.33707C1.33534 8.44964 1.38134 8.55697 1.4616 8.63592C1.54185 8.71487 1.64992 8.75912 1.7625 8.75912C1.87507 8.75912 1.98314 8.71487 2.0634 8.63592C2.14365 8.55697 2.18966 8.44964 2.1915 8.33707V8.12544C2.1915 7.48033 2.7164 6.95543 3.36151 6.95543H4.28224V8.0112C4.28224 8.95313 5.04852 9.7194 5.99045 9.7194C6.93238 9.7194 7.69866 8.95313 7.69866 8.01114V6.95543H9.91521V8.0112C9.91521 8.95313 10.6815 9.7194 11.6234 9.7194C12.5654 9.7194 13.3316 8.95313 13.3316 8.01114V6.95543H15.5482V8.0112C15.5482 8.95313 16.3145 9.7194 17.2564 9.7194C18.1983 9.7194 18.9646 8.95313 18.9646 8.01114V6.95543H21.1812V8.0112C21.1812 8.95313 21.9474 9.7194 22.8894 9.7194C23.8313 9.7194 24.5976 8.95313 24.5976 8.01114V6.95543H25.5183C26.1635 6.95543 26.6884 7.48033 26.6884 8.12544V11.1533H2.1915V10.0531C2.18966 9.94051 2.14365 9.83318 2.0634 9.75422C1.98314 9.67527 1.87507 9.63103 1.7625 9.63103C1.64992 9.63103 1.54185 9.67527 1.4616 9.75422C1.38134 9.83318 1.33534 9.94051 1.3335 10.0531V24.8585C1.3335 25.9768 2.24329 26.8866 3.36151 26.8866H18.618C19.898 28.0358 21.5889 28.7362 23.4406 28.7362C24.9867 28.7362 26.4617 28.2543 27.7062 27.3428C27.7962 27.2749 27.8559 27.1743 27.8723 27.0628C27.8888 26.9512 27.8606 26.8377 27.794 26.7467C27.7273 26.6557 27.6276 26.5947 27.5163 26.5767C27.4049 26.5587 27.291 26.5853 27.1991 26.6506C26.1027 27.4537 24.8031 27.8781 23.4405 27.8781C19.9291 27.8781 17.0723 25.0213 17.0723 21.5099C17.0723 17.9985 19.9291 15.1417 23.4405 15.1417C24.0759 15.1417 24.7087 15.2368 25.316 15.4236C25.328 15.4273 25.3399 15.4312 25.3519 15.4349C27.9324 16.2486 29.8088 18.6641 29.8088 21.5099C29.8088 22.9781 29.297 24.4109 28.3678 25.5443C28.3316 25.5878 28.3044 25.6381 28.2877 25.6921C28.271 25.7462 28.2652 25.803 28.2706 25.8594C28.276 25.9157 28.2924 25.9704 28.3191 26.0203C28.3457 26.0703 28.3819 26.1144 28.4256 26.1503C28.4694 26.1862 28.5198 26.2131 28.574 26.2294C28.6282 26.2457 28.685 26.2511 28.7413 26.2454C28.7976 26.2396 28.8522 26.2228 28.9019 26.1958C28.9517 26.1689 28.9956 26.1324 29.0312 26.0884C30.0859 24.802 30.6668 23.176 30.6668 21.5099C30.6668 19.0495 29.4304 16.8727 27.5467 15.5671ZM6.84066 8.01114C6.84066 8.47996 6.45927 8.86135 5.99045 8.86135C5.52163 8.86135 5.14024 8.48001 5.14024 8.01114V5.0416C5.14024 4.57278 5.52157 4.19139 5.99045 4.19139C6.45927 4.19139 6.84066 4.57272 6.84066 5.0416V8.01114ZM12.4737 8.01114C12.4737 8.47996 12.0923 8.86135 11.6235 8.86135C11.1547 8.86135 10.7733 8.48001 10.7733 8.01114V5.0416C10.7733 4.57278 11.1547 4.19139 11.6235 4.19139C12.0923 4.19139 12.4737 4.57272 12.4737 5.0416V8.01114ZM18.1068 8.01114C18.1068 8.47996 17.7254 8.86135 17.2566 8.86135C16.7878 8.86135 16.4064 8.48001 16.4064 8.01114V5.0416C16.4064 4.57278 16.7878 4.19139 17.2566 4.19139C17.7254 4.19139 18.1068 4.57272 18.1068 5.0416V8.01114ZM23.7398 8.01114C23.7398 8.47996 23.3584 8.86135 22.8896 8.86135C22.4208 8.86135 22.0394 8.48001 22.0394 8.01114V5.0416C22.0394 4.57278 22.4208 4.19139 22.8896 4.19139C23.3584 4.19139 23.7398 4.57272 23.7398 5.0416V8.01114ZM12.3336 12.0113H16.5466V16.1117H12.3336V12.0113ZM6.4045 26.0285H3.36151C2.7164 26.0285 2.1915 25.5036 2.1915 24.8584V21.9281H6.40444L6.4045 26.0285ZM6.4045 21.0701H2.1915V16.9697H6.40444L6.4045 21.0701ZM6.4045 16.1117H2.1915V12.0113H6.40444L6.4045 16.1117ZM7.2625 16.9697H11.4754V21.0701H7.2625V16.9697ZM11.4756 26.0285H7.26261V21.9281H11.4756V26.0285ZM11.4756 16.1117H7.26261V12.0113H11.4756V16.1117ZM12.3335 16.9697H16.5465V19.3427C16.3701 19.9034 16.2632 20.4835 16.2281 21.0701H12.3335V16.9697ZM17.7994 26.0285H12.3336V21.9281H16.2264C16.3114 23.4425 16.8573 24.8598 17.7994 26.0285ZM17.4046 17.5417V16.9697H17.8234C17.6746 17.1535 17.5348 17.3444 17.4046 17.5417ZM21.6176 14.5168C20.4974 14.809 19.4826 15.3641 18.6425 16.1117H17.4046V12.0113H21.6176V14.5168ZM26.6886 15.0534C26.2854 14.8505 25.8639 14.686 25.4299 14.5622L25.4022 14.5543C24.7639 14.3745 24.1038 14.2834 23.4407 14.2836C23.1134 14.2837 22.7914 14.3059 22.4756 14.3482V12.0112H26.6886V15.0534Z" fill="#0E556C"/>
<path d="M27.5467 15.5671V8.12544C27.5467 7.00722 26.6369 6.09743 25.5186 6.09743H24.5979V5.0416C24.5979 4.09967 23.8316 3.33339 22.8897 3.33339C21.9477 3.33339 21.1814 4.09967 21.1814 5.0416V6.09737H18.9649V5.0416C18.9649 4.09967 18.1986 3.33339 17.2567 3.33339C16.3148 3.33339 15.5485 4.09967 15.5485 5.0416V6.09737H13.3319V5.0416C13.3319 4.09967 12.5656 3.33339 11.6237 3.33339C10.6818 3.33339 9.9155 4.09967 9.9155 5.0416V6.09737H7.69894V5.0416C7.69894 4.09967 6.93267 3.33339 5.99074 3.33339C5.0488 3.33339 4.28236 4.09967 4.28236 5.0416V6.09737H3.36151C2.24329 6.09737 1.3335 7.0071 1.3335 8.12544V8.33707C1.33534 8.44964 1.38134 8.55697 1.4616 8.63592C1.54185 8.71487 1.64992 8.75912 1.7625 8.75912C1.87507 8.75912 1.98314 8.71487 2.0634 8.63592C2.14365 8.55697 2.18966 8.44964 2.1915 8.33707V8.12544C2.1915 7.48033 2.7164 6.95543 3.36151 6.95543H4.28224V8.0112C4.28224 8.95313 5.04852 9.7194 5.99045 9.7194C6.93238 9.7194 7.69866 8.95313 7.69866 8.01114V6.95543H9.91521V8.0112C9.91521 8.95313 10.6815 9.7194 11.6234 9.7194C12.5654 9.7194 13.3316 8.95313 13.3316 8.01114V6.95543H15.5482V8.0112C15.5482 8.95313 16.3145 9.7194 17.2564 9.7194C18.1983 9.7194 18.9646 8.95313 18.9646 8.01114V6.95543H21.1812V8.0112C21.1812 8.95313 21.9474 9.7194 22.8894 9.7194C23.8313 9.7194 24.5976 8.95313 24.5976 8.01114V6.95543H25.5183C26.1635 6.95543 26.6884 7.48033 26.6884 8.12544V11.1533H2.1915V10.0531C2.18966 9.94051 2.14365 9.83318 2.0634 9.75422C1.98314 9.67527 1.87507 9.63103 1.7625 9.63103C1.64992 9.63103 1.54185 9.67527 1.4616 9.75422C1.38134 9.83318 1.33534 9.94051 1.3335 10.0531V24.8585C1.3335 25.9768 2.24329 26.8866 3.36151 26.8866H18.618C19.898 28.0358 21.5889 28.7362 23.4406 28.7362C24.9867 28.7362 26.4617 28.2543 27.7062 27.3428C27.7962 27.2749 27.8559 27.1743 27.8723 27.0628C27.8888 26.9512 27.8606 26.8377 27.794 26.7467C27.7273 26.6557 27.6276 26.5947 27.5163 26.5767C27.4049 26.5587 27.291 26.5853 27.1991 26.6506C26.1027 27.4537 24.8031 27.8781 23.4405 27.8781C19.9291 27.8781 17.0723 25.0213 17.0723 21.5099C17.0723 17.9985 19.9291 15.1417 23.4405 15.1417C24.0759 15.1417 24.7087 15.2368 25.316 15.4236C25.328 15.4273 25.3399 15.4312 25.3519 15.4349C27.9324 16.2486 29.8088 18.6641 29.8088 21.5099C29.8088 22.9781 29.297 24.4109 28.3678 25.5443C28.3316 25.5878 28.3044 25.6381 28.2877 25.6921C28.271 25.7462 28.2652 25.803 28.2706 25.8594C28.276 25.9157 28.2924 25.9704 28.3191 26.0203C28.3457 26.0703 28.3819 26.1144 28.4256 26.1503C28.4694 26.1862 28.5198 26.2131 28.574 26.2294C28.6282 26.2457 28.685 26.2511 28.7413 26.2454C28.7976 26.2396 28.8522 26.2228 28.9019 26.1958C28.9517 26.1689 28.9956 26.1324 29.0312 26.0884C30.0859 24.802 30.6668 23.176 30.6668 21.5099C30.6668 19.0495 29.4304 16.8727 27.5467 15.5671ZM6.84066 8.01114C6.84066 8.47996 6.45927 8.86135 5.99045 8.86135C5.52163 8.86135 5.14024 8.48001 5.14024 8.01114V5.0416C5.14024 4.57278 5.52157 4.19139 5.99045 4.19139C6.45927 4.19139 6.84066 4.57272 6.84066 5.0416V8.01114ZM12.4737 8.01114C12.4737 8.47996 12.0923 8.86135 11.6235 8.86135C11.1547 8.86135 10.7733 8.48001 10.7733 8.01114V5.0416C10.7733 4.57278 11.1547 4.19139 11.6235 4.19139C12.0923 4.19139 12.4737 4.57272 12.4737 5.0416V8.01114ZM18.1068 8.01114C18.1068 8.47996 17.7254 8.86135 17.2566 8.86135C16.7878 8.86135 16.4064 8.48001 16.4064 8.01114V5.0416C16.4064 4.57278 16.7878 4.19139 17.2566 4.19139C17.7254 4.19139 18.1068 4.57272 18.1068 5.0416V8.01114ZM23.7398 8.01114C23.7398 8.47996 23.3584 8.86135 22.8896 8.86135C22.4208 8.86135 22.0394 8.48001 22.0394 8.01114V5.0416C22.0394 4.57278 22.4208 4.19139 22.8896 4.19139C23.3584 4.19139 23.7398 4.57272 23.7398 5.0416V8.01114ZM12.3336 12.0113H16.5466V16.1117H12.3336V12.0113ZM6.4045 26.0285H3.36151C2.7164 26.0285 2.1915 25.5036 2.1915 24.8584V21.9281H6.40444L6.4045 26.0285ZM6.4045 21.0701H2.1915V16.9697H6.40444L6.4045 21.0701ZM6.4045 16.1117H2.1915V12.0113H6.40444L6.4045 16.1117ZM7.2625 16.9697H11.4754V21.0701H7.2625V16.9697ZM11.4756 26.0285H7.26261V21.9281H11.4756V26.0285ZM11.4756 16.1117H7.26261V12.0113H11.4756V16.1117ZM12.3335 16.9697H16.5465V19.3427C16.3701 19.9034 16.2632 20.4835 16.2281 21.0701H12.3335V16.9697ZM17.7994 26.0285H12.3336V21.9281H16.2264C16.3114 23.4425 16.8573 24.8598 17.7994 26.0285ZM17.4046 17.5417V16.9697H17.8234C17.6746 17.1535 17.5348 17.3444 17.4046 17.5417ZM21.6176 14.5168C20.4974 14.809 19.4826 15.3641 18.6425 16.1117H17.4046V12.0113H21.6176V14.5168ZM26.6886 15.0534C26.2854 14.8505 25.8639 14.686 25.4299 14.5622L25.4022 14.5543C24.7639 14.3745 24.1038 14.2834 23.4407 14.2836C23.1134 14.2837 22.7914 14.3059 22.4756 14.3482V12.0112H26.6886V15.0534Z" stroke="#0E556C" stroke-width="0.2" mask="url(#path-3-outside-1_1404_15824)"/>
</svg>
