<svg width="80" height="80" viewBox="0 0 80 80" fill="none" xmlns="http://www.w3.org/2000/svg">
<g clip-path="url(#clip0_245_6034)">
<path d="M21.5725 75.5247H27.846C29.2943 75.5247 30.4684 74.3506 30.4684 72.9022V67.7766C30.4684 66.3282 29.2943 65.1541 27.846 65.1541H2.62345C1.17513 65.1541 0.000976562 66.3282 0.000976562 67.7766V72.9022C0.000976562 74.3506 1.17513 75.5247 2.62345 75.5247H16.1509M53.0355 43.3175L49.7333 40.8449C49.8943 40.0719 49.9752 39.2844 49.9746 38.4949C49.9751 37.7049 49.8942 36.9169 49.7333 36.1435L53.0355 33.6708C53.625 33.2302 53.7911 32.4179 53.4232 31.7798L51.7735 28.922C51.5957 28.6138 51.3111 28.3815 50.9735 28.2692C50.6358 28.1569 50.2688 28.1724 49.9418 28.3128L46.1464 29.9375C44.9672 28.881 43.582 28.08 42.0781 27.5849L41.5875 23.4888C41.5452 23.1356 41.3749 22.8101 41.1088 22.5739C40.8427 22.3377 40.4993 22.2072 40.1436 22.207H36.8428C36.1068 22.207 35.4871 22.7583 35.3988 23.4888L34.9096 27.5849C33.4052 28.0797 32.0195 28.8808 30.8399 29.9375L27.0459 28.3128C26.719 28.1724 26.3519 28.1568 26.0142 28.2691C25.6766 28.3814 25.3919 28.6137 25.2142 28.922L23.5631 31.7798C23.1952 32.4181 23.3614 33.2304 23.9508 33.6708L27.2542 36.1435C27.0933 36.9169 27.0125 37.7049 27.0129 38.4949C27.0129 39.3007 27.0959 40.0866 27.2542 40.8449L23.9508 43.3175C23.6662 43.5308 23.4695 43.841 23.3981 44.1895C23.3266 44.5379 23.3853 44.9005 23.5631 45.2086L25.2142 48.0676C25.3921 48.3756 25.6768 48.6078 26.0144 48.72C26.3519 48.8323 26.7189 48.8169 27.0459 48.6768L30.8399 47.0521C32.0194 48.1089 33.4051 48.9099 34.9096 49.4047L35.3988 53.5007C35.4414 53.8537 35.6119 54.1789 35.8779 54.4149C36.144 54.6508 36.4872 54.7811 36.8428 54.7813H40.1436C40.8795 54.7813 41.5005 54.2314 41.5875 53.5007L42.0781 49.4047C43.582 48.9095 44.9672 48.1085 46.1464 47.0521L49.9418 48.6768C50.2688 48.8168 50.6358 48.8321 50.9733 48.7199C51.3108 48.6076 51.5955 48.3755 51.7735 48.0676L53.4232 45.2086C53.6011 44.9005 53.6598 44.5379 53.5884 44.1895C53.5169 43.841 53.3202 43.5308 53.0355 43.3175ZM38.4937 44.4781C35.1889 44.4781 32.5105 41.7983 32.5105 38.4949C32.5105 35.1901 35.1889 32.5117 38.4937 32.5117C41.7971 32.5117 44.4755 35.1901 44.4755 38.4949C44.4755 41.7984 41.7971 44.4781 38.4937 44.4781ZM27.8457 65.1533H2.62376C1.17528 65.1533 0.00113138 63.9792 0.00113138 62.5307V57.4041C0.00113138 55.9556 1.17528 54.7815 2.62376 54.7815H27.8457C29.2941 54.7815 30.4683 55.9556 30.4683 57.4041V62.5307C30.4683 63.9792 29.2941 65.1533 27.8457 65.1533Z" stroke="white" stroke-width="2" stroke-miterlimit="10" stroke-linecap="round" stroke-linejoin="round"/>
<path d="M5.79519 62.1529C7.00346 62.1529 7.98296 61.1734 7.98296 59.9651C7.98296 58.7568 7.00346 57.7773 5.79519 57.7773C4.58692 57.7773 3.60742 58.7568 3.60742 59.9651C3.60742 61.1734 4.58692 62.1529 5.79519 62.1529Z" stroke="white" stroke-width="2" stroke-miterlimit="10" stroke-linecap="round" stroke-linejoin="round"/>
<path d="M13.0462 62.1529C14.2544 62.1529 15.2339 61.1734 15.2339 59.9651C15.2339 58.7568 14.2544 57.7773 13.0462 57.7773C11.8379 57.7773 10.8584 58.7568 10.8584 59.9651C10.8584 61.1734 11.8379 62.1529 13.0462 62.1529Z" stroke="white" stroke-width="2" stroke-miterlimit="10" stroke-linecap="round" stroke-linejoin="round"/>
<path d="M5.79519 72.524C7.00346 72.524 7.98296 71.5445 7.98296 70.3362C7.98296 69.1279 7.00346 68.1484 5.79519 68.1484C4.58692 68.1484 3.60742 69.1279 3.60742 70.3362C3.60742 71.5445 4.58692 72.524 5.79519 72.524Z" stroke="white" stroke-width="2" stroke-miterlimit="10" stroke-linecap="round" stroke-linejoin="round"/>
<path d="M13.0462 72.524C14.2544 72.524 15.2339 71.5445 15.2339 70.3362C15.2339 69.1279 14.2544 68.1484 13.0462 68.1484C11.8379 68.1484 10.8584 69.1279 10.8584 70.3362C10.8584 71.5445 11.8379 72.524 13.0462 72.524Z" stroke="white" stroke-width="2" stroke-miterlimit="10" stroke-linecap="round" stroke-linejoin="round"/>
<path d="M19.6504 59.9646H26.5127M19.6504 70.3365H26.5127M71.1993 27.2207H74.7356C75.8029 27.2207 76.6673 26.3564 76.6673 25.2891V1.93007C76.6673 0.864347 75.8029 0 74.7356 0H67.9386C66.323 0 64.7724 0.64129 63.6292 1.78446L56.9824 8.43281C55.8404 9.57561 55.1986 11.125 55.198 12.7406V25.2891C55.198 26.3564 56.0623 27.2207 57.1296 27.2207H65.7777" stroke="white" stroke-width="2" stroke-miterlimit="10" stroke-linecap="round" stroke-linejoin="round"/>
<path d="M68.4885 0C66.7907 0 65.4144 1.37629 65.4144 3.07416V8.2872C65.4144 9.35354 64.5499 10.218 63.4835 10.218H58.2724C56.5745 10.218 55.1982 11.5943 55.1982 13.2922M61.0916 15.7847H70.7735M61.0916 20.6255H70.7735M21.8057 11.1597C23.4942 10.1234 25.2755 9.24511 27.125 8.54031L27.5185 10.87C27.6734 11.7901 28.767 12.196 29.4857 11.6027L36.8745 5.49496C37.5932 4.90014 37.3996 3.75077 36.526 3.42548L27.5433 0.07807C26.6681 -0.247222 25.7696 0.496303 25.9245 1.41487L26.3459 3.91806C19.6123 6.29115 13.5944 10.6748 9.26186 16.3984C4.41501 22.802 1.85449 30.4418 1.85449 38.492C1.85449 40.0177 1.94898 41.5497 2.13641 43.0445C2.28202 44.2093 3.27493 45.0629 4.41965 45.0629C4.51414 45.0629 4.61173 45.0567 4.70932 45.0443C5.97176 44.8863 6.86709 43.7338 6.70909 42.4714C6.54489 41.1671 6.4628 39.8272 6.4628 38.492C6.4628 31.4533 8.70111 24.7755 12.9361 19.1805C14.266 17.4253 15.774 15.8124 17.436 14.3677M74.8488 33.9402C74.6906 32.6776 73.5402 31.7821 72.2762 31.9403C71.0136 32.0984 70.1181 33.2503 70.2763 34.5129C70.4407 35.8329 70.5229 37.162 70.5225 38.4923C70.5225 45.531 68.2838 52.209 64.0483 57.8045C60.4201 62.5979 55.4423 66.3157 49.8592 68.4442L49.4665 66.115C49.3115 65.1949 48.2184 64.7878 47.4992 65.3823L40.1102 71.4894C39.391 72.0838 39.585 73.2338 40.4592 73.5595L49.4419 76.9061C50.3163 77.2319 51.2154 76.489 51.0603 75.5689L50.6384 73.0662C57.3722 70.6928 63.3903 66.3095 67.7227 60.5859C72.5691 54.1833 75.1308 46.5434 75.1308 38.4924C75.131 36.9706 75.0368 35.4503 74.8488 33.9402Z" stroke="white" stroke-width="2" stroke-miterlimit="10" stroke-linecap="round" stroke-linejoin="round"/>
</g>
<defs>
<clipPath id="clip0_245_6034">
<rect width="80" height="80" fill="white"/>
</clipPath>
</defs>
</svg>
