<svg width="80" height="80" viewBox="0 0 80 80" fill="none" xmlns="http://www.w3.org/2000/svg">
<rect width="80" height="80" rx="8" fill="#E5F5F2"/>
<g clip-path="url(#clip0_129_8538)">
<path d="M28.9429 61.3148H32.707C33.576 61.3148 34.2805 60.6103 34.2805 59.7413V56.6659C34.2805 55.7969 33.576 55.0925 32.707 55.0925H17.5735C16.7045 55.0925 16 55.7969 16 56.6659V59.7413C16 60.6103 16.7045 61.3148 17.5735 61.3148H25.69M47.8207 41.9905L45.8394 40.5069C45.936 40.0431 45.9845 39.5706 45.9842 39.0969C45.9845 38.6229 45.936 38.1501 45.8394 37.6861L47.8207 36.2025C48.1744 35.9381 48.2741 35.4508 48.0533 35.0679L47.0635 33.3532C46.9569 33.1683 46.7861 33.0289 46.5835 32.9615C46.3809 32.8942 46.1607 32.9035 45.9645 32.9877L43.6873 33.9625C42.9797 33.3286 42.1486 32.848 41.2463 32.5509L40.9519 30.0933C40.9265 29.8813 40.8243 29.6861 40.6647 29.5443C40.5051 29.4026 40.299 29.3243 40.0855 29.3242H38.1051C37.6635 29.3242 37.2917 29.655 37.2387 30.0933L36.9452 32.5509C36.0425 32.8478 35.2111 33.3285 34.5033 33.9625L32.227 32.9877C32.0308 32.9034 31.8105 32.8941 31.6079 32.9615C31.4054 33.0289 31.2346 33.1682 31.1279 33.3532L30.1373 35.0679C29.9165 35.4509 30.0163 35.9382 30.3699 36.2025L32.352 37.6861C32.2554 38.1501 32.2069 38.6229 32.2072 39.0969C32.2072 39.5804 32.257 40.052 32.352 40.5069L30.3699 41.9905C30.1991 42.1185 30.0811 42.3046 30.0382 42.5137C29.9954 42.7228 30.0306 42.9403 30.1373 43.1251L31.1279 44.8406C31.2347 45.0254 31.4055 45.1647 31.608 45.232C31.8106 45.2994 32.0308 45.2902 32.227 45.2061L34.5033 44.2312C35.2111 44.8653 36.0425 45.346 36.9452 45.6428L37.2387 48.1004C37.2643 48.3122 37.3665 48.5074 37.5262 48.6489C37.6858 48.7905 37.8917 48.8687 38.1051 48.8688H40.0855C40.5271 48.8688 40.8997 48.5388 40.9519 48.1004L41.2463 45.6428C42.1486 45.3457 42.9797 44.8651 43.6873 44.2312L45.9645 45.2061C46.1607 45.2901 46.3809 45.2993 46.5834 45.2319C46.7859 45.1646 46.9567 45.0253 47.0635 44.8406L48.0533 43.1251C48.16 42.9403 48.1953 42.7228 48.1524 42.5137C48.1096 42.3046 47.9915 42.1185 47.8207 41.9905ZM39.0956 42.6868C37.1127 42.6868 35.5057 41.079 35.5057 39.0969C35.5057 37.114 37.1127 35.507 39.0956 35.507C41.0777 35.507 42.6847 37.114 42.6847 39.0969C42.6847 41.0791 41.0777 42.6868 39.0956 42.6868ZM32.7068 55.092H17.5737C16.7046 55.092 16.0001 54.3875 16.0001 53.5184V50.4424C16.0001 49.5734 16.7046 48.8689 17.5737 48.8689H32.7068C33.5759 48.8689 34.2804 49.5734 34.2804 50.4424V53.5184C34.2804 54.3875 33.5759 55.092 32.7068 55.092Z" stroke="#0099A3" stroke-miterlimit="10" stroke-linecap="round" stroke-linejoin="round"/>
<path d="M19.4767 53.2933C20.2017 53.2933 20.7894 52.7056 20.7894 51.9806C20.7894 51.2557 20.2017 50.668 19.4767 50.668C18.7518 50.668 18.1641 51.2557 18.1641 51.9806C18.1641 52.7056 18.7518 53.2933 19.4767 53.2933Z" stroke="#0099A3" stroke-miterlimit="10" stroke-linecap="round" stroke-linejoin="round"/>
<path d="M23.8273 53.2933C24.5523 53.2933 25.14 52.7056 25.14 51.9806C25.14 51.2557 24.5523 50.668 23.8273 50.668C23.1023 50.668 22.5146 51.2557 22.5146 51.9806C22.5146 52.7056 23.1023 53.2933 23.8273 53.2933Z" stroke="#0099A3" stroke-miterlimit="10" stroke-linecap="round" stroke-linejoin="round"/>
<path d="M19.4767 59.5159C20.2017 59.5159 20.7894 58.9282 20.7894 58.2033C20.7894 57.4783 20.2017 56.8906 19.4767 56.8906C18.7518 56.8906 18.1641 57.4783 18.1641 58.2033C18.1641 58.9282 18.7518 59.5159 19.4767 59.5159Z" stroke="#0099A3" stroke-miterlimit="10" stroke-linecap="round" stroke-linejoin="round"/>
<path d="M23.8273 59.5159C24.5523 59.5159 25.14 58.9282 25.14 58.2033C25.14 57.4783 24.5523 56.8906 23.8273 56.8906C23.1023 56.8906 22.5146 57.4783 22.5146 58.2033C22.5146 58.9282 23.1023 59.5159 23.8273 59.5159Z" stroke="#0099A3" stroke-miterlimit="10" stroke-linecap="round" stroke-linejoin="round"/>
<path d="M27.79 51.9788H31.9074M27.79 58.2019H31.9074M58.7194 32.3324H60.8412C61.4815 32.3324 62.0002 31.8138 62.0002 31.1735V17.158C62.0002 16.5186 61.4815 16 60.8412 16H56.763C55.7936 16 54.8633 16.3848 54.1774 17.0707L50.1893 21.0597C49.504 21.7454 49.119 22.675 49.1186 23.6444V31.1735C49.1186 31.8138 49.6372 32.3324 50.2776 32.3324H55.4664" stroke="#0099A3" stroke-miterlimit="10" stroke-linecap="round" stroke-linejoin="round"/>
<path d="M57.0927 16C56.074 16 55.2482 16.8258 55.2482 17.8445V20.9723C55.2482 21.6121 54.7295 22.1308 54.0897 22.1308H50.963C49.9443 22.1308 49.1185 22.9566 49.1185 23.9753M52.6545 25.4708H58.4637M52.6545 28.3753H58.4637M29.083 22.6958C30.0961 22.074 31.1649 21.5471 32.2746 21.1242L32.5107 22.522C32.6036 23.0741 33.2598 23.3176 33.691 22.9616L38.1243 19.297C38.5556 18.9401 38.4394 18.2505 37.9152 18.0553L32.5256 16.0468C32.0005 15.8517 31.4614 16.2978 31.5543 16.8489L31.8071 18.3508C27.767 19.7747 24.1563 22.4049 21.5567 25.8391C18.6486 29.6812 17.1123 34.2651 17.1123 39.0952C17.1123 40.0106 17.169 40.9298 17.2815 41.8267C17.3688 42.5256 17.9646 43.0377 18.6514 43.0377C18.7081 43.0377 18.7666 43.034 18.8252 43.0266C19.5827 42.9318 20.1199 42.2403 20.0251 41.4828C19.9265 40.7003 19.8773 39.8963 19.8773 39.0952C19.8773 34.872 21.2203 30.8653 23.7613 27.5083C24.5592 26.4552 25.464 25.4875 26.4612 24.6206M60.9089 36.3641C60.814 35.6066 60.1237 35.0693 59.3653 35.1642C58.6078 35.2591 58.0705 35.9502 58.1654 36.7077C58.264 37.4998 58.3134 38.2972 58.3131 39.0954C58.3131 43.3186 56.9699 47.3254 54.4286 50.6827C52.2516 53.5588 49.265 55.7894 45.9151 57.0665L45.6795 55.669C45.5865 55.1169 44.9306 54.8727 44.4991 55.2294L40.0657 58.8936C39.6342 59.2503 39.7506 59.9403 40.2751 60.1357L45.6648 62.1437C46.1894 62.3391 46.7288 61.8934 46.6358 61.3413L46.3826 59.8397C50.4229 58.4157 54.0338 55.7857 56.6332 52.3516C59.5411 48.51 61.0781 43.926 61.0781 39.0955C61.0782 38.1824 61.0217 37.2702 60.9089 36.3641Z" stroke="#0099A3" stroke-miterlimit="10" stroke-linecap="round" stroke-linejoin="round"/>
</g>
<defs>
<clipPath id="clip0_129_8538">
<rect width="48" height="48" fill="white" transform="translate(16 16)"/>
</clipPath>
</defs>
</svg>
