<svg width="78" height="57" viewBox="0 0 78 57" fill="none" xmlns="http://www.w3.org/2000/svg">
<mask id="path-1-inside-1_1617_16993" fill="white">
<path d="M2.30786 42.1147C2.69888 42.1147 3.07389 41.9594 3.35038 41.6829C3.62688 41.4064 3.78221 41.0314 3.78221 40.6403V34.7429C3.78221 34.3519 3.62688 33.9769 3.35038 33.7004C3.07389 33.4239 2.69888 33.2686 2.30786 33.2686C1.91683 33.2686 1.54182 33.4239 1.26533 33.7004C0.98883 33.9769 0.833496 34.3519 0.833496 34.7429V40.6403C0.833496 41.0314 0.98883 41.4064 1.26533 41.6829C1.54182 41.9594 1.91683 42.1147 2.30786 42.1147Z"/>
</mask>
<path d="M2.30786 42.1147C2.69888 42.1147 3.07389 41.9594 3.35038 41.6829C3.62688 41.4064 3.78221 41.0314 3.78221 40.6403V34.7429C3.78221 34.3519 3.62688 33.9769 3.35038 33.7004C3.07389 33.4239 2.69888 33.2686 2.30786 33.2686C1.91683 33.2686 1.54182 33.4239 1.26533 33.7004C0.98883 33.9769 0.833496 34.3519 0.833496 34.7429V40.6403C0.833496 41.0314 0.98883 41.4064 1.26533 41.6829C1.54182 41.9594 1.91683 42.1147 2.30786 42.1147Z" fill="white"/>
<path d="M2.30786 50.1147C4.8206 50.1147 7.23044 49.1165 9.00724 47.3397L-2.30647 36.026C-1.08267 34.8022 0.577161 34.1147 2.30786 34.1147V50.1147ZM9.00724 47.3397C10.784 45.5629 11.7822 43.1531 11.7822 40.6403H-4.21779C-4.21779 38.9096 -3.53027 37.2498 -2.30647 36.026L9.00724 47.3397ZM11.7822 40.6403V34.7429H-4.21779V40.6403H11.7822ZM11.7822 34.7429C11.7822 32.2302 10.784 29.8203 9.00724 28.0435L-2.30647 39.3572C-3.53027 38.1334 -4.21779 36.4736 -4.21779 34.7429H11.7822ZM9.00724 28.0435C7.23044 26.2667 4.8206 25.2686 2.30786 25.2686V41.2686C0.577161 41.2686 -1.08267 40.581 -2.30647 39.3572L9.00724 28.0435ZM2.30786 25.2686C-0.204887 25.2686 -2.61473 26.2667 -4.39153 28.0435L6.92218 39.3572C5.69838 40.581 4.03855 41.2686 2.30786 41.2686V25.2686ZM-4.39153 28.0435C-6.16832 29.8203 -7.1665 32.2302 -7.1665 34.7429H8.8335C8.8335 36.4736 8.14598 38.1334 6.92218 39.3572L-4.39153 28.0435ZM-7.1665 34.7429V40.6403H8.8335V34.7429H-7.1665ZM-7.1665 40.6403C-7.1665 43.1531 -6.16832 45.5629 -4.39153 47.3397L6.92218 36.026C8.14598 37.2498 8.8335 38.9096 8.8335 40.6403H-7.1665ZM-4.39153 47.3397C-2.61473 49.1165 -0.204887 50.1147 2.30786 50.1147V34.1147C4.03855 34.1147 5.69838 34.8022 6.92218 36.026L-4.39153 47.3397Z" fill="white" mask="url(#path-1-inside-1_1617_16993)"/>
<mask id="path-3-inside-2_1617_16993" fill="white">
<path d="M70.1284 0.833008H8.20529C6.25017 0.833008 4.37512 1.60968 2.99264 2.99216C1.61017 4.37464 0.833496 6.24968 0.833496 8.2048V28.8458C0.833496 29.2369 0.98883 29.6119 1.26533 29.8884C1.54182 30.1649 1.91683 30.3202 2.30786 30.3202C2.69888 30.3202 3.07389 30.1649 3.35038 29.8884C3.62688 29.6119 3.78221 29.2369 3.78221 28.8458V8.2048C3.79045 7.18655 4.14977 6.20232 4.79952 5.41826L33.9476 34.5663C34.6324 35.2528 35.4459 35.7975 36.3415 36.1692C37.2371 36.5408 38.1972 36.7321 39.1668 36.7321C40.1365 36.7321 41.0966 36.5408 41.9922 36.1692C42.8878 35.7975 43.7013 35.2528 44.3861 34.5663L73.5341 5.41826C74.1839 6.20232 74.5432 7.18655 74.5514 8.2048V49.4869C74.5514 50.6599 74.0854 51.785 73.256 52.6144C72.4265 53.4439 71.3014 53.9099 70.1284 53.9099H8.20529C7.03222 53.9099 5.90719 53.4439 5.0777 52.6144C4.24821 51.785 3.78221 50.6599 3.78221 49.4869V46.5381C3.78221 46.1471 3.62688 45.7721 3.35038 45.4956C3.07389 45.2191 2.69888 45.0638 2.30786 45.0638C1.91683 45.0638 1.54182 45.2191 1.26533 45.4956C0.98883 45.7721 0.833496 46.1471 0.833496 46.5381V49.4869C0.833496 51.442 1.61017 53.317 2.99264 54.6995C4.37512 56.082 6.25017 56.8586 8.20529 56.8586H70.1284C72.0835 56.8586 73.9585 56.082 75.341 54.6995C76.7235 53.317 77.5002 51.442 77.5002 49.4869V8.2048C77.5002 6.24968 76.7235 4.37464 75.341 2.99216C73.9585 1.60968 72.0835 0.833008 70.1284 0.833008ZM42.2925 32.4727C41.4631 33.301 40.3389 33.7663 39.1668 33.7663C37.9947 33.7663 36.8705 33.301 36.0412 32.4727L7.42388 3.85544C7.68173 3.80829 7.94318 3.78363 8.20529 3.78173H70.1284C70.3905 3.78363 70.6519 3.80829 70.9098 3.85544L42.2925 32.4727Z"/>
</mask>
<path d="M70.1284 0.833008H8.20529C6.25017 0.833008 4.37512 1.60968 2.99264 2.99216C1.61017 4.37464 0.833496 6.24968 0.833496 8.2048V28.8458C0.833496 29.2369 0.98883 29.6119 1.26533 29.8884C1.54182 30.1649 1.91683 30.3202 2.30786 30.3202C2.69888 30.3202 3.07389 30.1649 3.35038 29.8884C3.62688 29.6119 3.78221 29.2369 3.78221 28.8458V8.2048C3.79045 7.18655 4.14977 6.20232 4.79952 5.41826L33.9476 34.5663C34.6324 35.2528 35.4459 35.7975 36.3415 36.1692C37.2371 36.5408 38.1972 36.7321 39.1668 36.7321C40.1365 36.7321 41.0966 36.5408 41.9922 36.1692C42.8878 35.7975 43.7013 35.2528 44.3861 34.5663L73.5341 5.41826C74.1839 6.20232 74.5432 7.18655 74.5514 8.2048V49.4869C74.5514 50.6599 74.0854 51.785 73.256 52.6144C72.4265 53.4439 71.3014 53.9099 70.1284 53.9099H8.20529C7.03222 53.9099 5.90719 53.4439 5.0777 52.6144C4.24821 51.785 3.78221 50.6599 3.78221 49.4869V46.5381C3.78221 46.1471 3.62688 45.7721 3.35038 45.4956C3.07389 45.2191 2.69888 45.0638 2.30786 45.0638C1.91683 45.0638 1.54182 45.2191 1.26533 45.4956C0.98883 45.7721 0.833496 46.1471 0.833496 46.5381V49.4869C0.833496 51.442 1.61017 53.317 2.99264 54.6995C4.37512 56.082 6.25017 56.8586 8.20529 56.8586H70.1284C72.0835 56.8586 73.9585 56.082 75.341 54.6995C76.7235 53.317 77.5002 51.442 77.5002 49.4869V8.2048C77.5002 6.24968 76.7235 4.37464 75.341 2.99216C73.9585 1.60968 72.0835 0.833008 70.1284 0.833008ZM42.2925 32.4727C41.4631 33.301 40.3389 33.7663 39.1668 33.7663C37.9947 33.7663 36.8705 33.301 36.0412 32.4727L7.42388 3.85544C7.68173 3.80829 7.94318 3.78363 8.20529 3.78173H70.1284C70.3905 3.78363 70.6519 3.80829 70.9098 3.85544L42.2925 32.4727Z" fill="white"/>
<path d="M70.1284 0.833008V-7.16699V0.833008ZM8.20529 0.833008V-7.16699V0.833008ZM0.833496 8.2048H-7.1665H0.833496ZM3.78221 8.2048L-4.21752 8.14014L-4.21779 8.17247V8.2048H3.78221ZM4.79952 5.41826L10.4564 -0.238589L4.24492 -6.45005L-1.36022 0.313598L4.79952 5.41826ZM33.9476 34.5663L39.6116 28.9166L39.6045 28.9095L33.9476 34.5663ZM44.3861 34.5663L38.7292 28.9095L38.7221 28.9166L44.3861 34.5663ZM73.5341 5.41826L79.6939 0.313598L74.0887 -6.45005L67.8773 -0.238589L73.5341 5.41826ZM74.5514 8.2048H82.5514V8.17247L82.5512 8.14014L74.5514 8.2048ZM74.5514 49.4869H82.5514H74.5514ZM70.1284 56.8586V48.8586V56.8586ZM77.5002 8.2048H69.5002H77.5002ZM42.2925 32.4727L47.9458 38.1331L47.9493 38.1296L42.2925 32.4727ZM39.1668 33.7663V25.7663V33.7663ZM36.0412 32.4727L30.3843 38.1296L30.3879 38.1331L36.0412 32.4727ZM7.42388 3.85544L5.98478 -4.01405L-9.0161 -1.27082L1.76703 9.5123L7.42388 3.85544ZM8.20529 3.78173V-4.21827H8.17629L8.14729 -4.21806L8.20529 3.78173ZM70.1284 3.78173L70.1864 -4.21806L70.1574 -4.21827H70.1284V3.78173ZM70.9098 3.85544L76.5666 9.5123L87.3497 -1.27082L72.3489 -4.01405L70.9098 3.85544ZM70.1284 -7.16699H8.20529V8.83301H70.1284V-7.16699ZM8.20529 -7.16699C4.12844 -7.16699 0.218561 -5.54747 -2.66421 -2.6647L8.6495 8.64901C8.53169 8.76682 8.3719 8.83301 8.20529 8.83301V-7.16699ZM-2.66421 -2.6647C-5.54698 0.218073 -7.1665 4.12795 -7.1665 8.2048H8.8335C8.8335 8.37141 8.76731 8.5312 8.6495 8.64901L-2.66421 -2.6647ZM-7.1665 8.2048V28.8458H8.8335V8.2048H-7.1665ZM-7.1665 28.8458C-7.1665 31.3586 -6.16832 33.7684 -4.39153 35.5452L6.92218 24.2315C8.14598 25.4553 8.8335 27.1151 8.8335 28.8458H-7.1665ZM-4.39153 35.5452C-2.61473 37.322 -0.204887 38.3202 2.30786 38.3202V22.3202C4.03855 22.3202 5.69838 23.0077 6.92218 24.2315L-4.39153 35.5452ZM2.30786 38.3202C4.8206 38.3202 7.23044 37.322 9.00724 35.5452L-2.30647 24.2315C-1.08267 23.0077 0.577161 22.3202 2.30786 22.3202V38.3202ZM9.00724 35.5452C10.784 33.7684 11.7822 31.3586 11.7822 28.8458H-4.21779C-4.21779 27.1151 -3.53027 25.4553 -2.30647 24.2315L9.00724 35.5452ZM11.7822 28.8458V8.2048H-4.21779V28.8458H11.7822ZM11.782 8.26947C11.7753 9.09293 11.4847 9.88887 10.9593 10.5229L-1.36022 0.313598C-3.18518 2.51576 -4.19441 5.28016 -4.21752 8.14014L11.782 8.26947ZM-0.857333 11.0751L28.2907 40.2232L39.6045 28.9095L10.4564 -0.238589L-0.857333 11.0751ZM28.2836 40.216C29.7115 41.6476 31.4078 42.7833 33.2753 43.5583L39.4076 28.7801C39.4839 28.8117 39.5532 28.8581 39.6116 28.9166L28.2836 40.216ZM33.2753 43.5583C35.1428 44.3332 37.1449 44.7321 39.1668 44.7321V28.7321C39.2495 28.7321 39.3313 28.7484 39.4076 28.7801L33.2753 43.5583ZM39.1668 44.7321C41.1888 44.7321 43.1908 44.3332 45.0583 43.5583L38.9261 28.7801C39.0024 28.7484 39.0842 28.7321 39.1668 28.7321V44.7321ZM45.0583 43.5583C46.9258 42.7833 48.6221 41.6476 50.0501 40.216L38.7221 28.9166C38.7804 28.8581 38.8498 28.8117 38.9261 28.7801L45.0583 43.5583ZM50.0429 40.2232L79.191 11.0751L67.8773 -0.238589L38.7292 28.9095L50.0429 40.2232ZM67.3744 10.5229C66.8489 9.88887 66.5584 9.09292 66.5517 8.26947L82.5512 8.14014C82.5281 5.28017 81.5188 2.51576 79.6939 0.313598L67.3744 10.5229ZM66.5514 8.2048V49.4869H82.5514V8.2048H66.5514ZM66.5514 49.4869C66.5514 48.5382 66.9283 47.6284 67.5991 46.9576L78.9128 58.2713C81.2426 55.9415 82.5514 52.7817 82.5514 49.4869H66.5514ZM67.5991 46.9576C68.2699 46.2868 69.1797 45.9099 70.1284 45.9099V61.9099C73.4232 61.9099 76.583 60.6011 78.9128 58.2713L67.5991 46.9576ZM70.1284 45.9099H8.20529V61.9099H70.1284V45.9099ZM8.20529 45.9099C9.15396 45.9099 10.0638 46.2868 10.7346 46.9576L-0.579152 58.2713C1.75062 60.6011 4.91048 61.9099 8.20529 61.9099V45.9099ZM10.7346 46.9576C11.4054 47.6284 11.7822 48.5382 11.7822 49.4869H-4.21779C-4.21779 52.7817 -2.90893 55.9415 -0.579152 58.2713L10.7346 46.9576ZM11.7822 49.4869V46.5381H-4.21779V49.4869H11.7822ZM11.7822 46.5381C11.7822 44.0254 10.784 41.6155 9.00724 39.8387L-2.30647 51.1525C-3.53027 49.9287 -4.21779 48.2688 -4.21779 46.5381H11.7822ZM9.00724 39.8387C7.23044 38.062 4.8206 37.0638 2.30786 37.0638V53.0638C0.577161 53.0638 -1.08267 52.3763 -2.30647 51.1525L9.00724 39.8387ZM2.30786 37.0638C-0.204887 37.0638 -2.61473 38.062 -4.39153 39.8387L6.92218 51.1525C5.69838 52.3763 4.03855 53.0638 2.30786 53.0638V37.0638ZM-4.39153 39.8387C-6.16832 41.6155 -7.1665 44.0254 -7.1665 46.5381H8.8335C8.8335 48.2688 8.14598 49.9287 6.92218 51.1525L-4.39153 39.8387ZM-7.1665 46.5381V49.4869H8.8335V46.5381H-7.1665ZM-7.1665 49.4869C-7.1665 53.5637 -5.54698 57.4736 -2.66421 60.3564L8.6495 49.0426C8.76731 49.1605 8.8335 49.3202 8.8335 49.4869H-7.1665ZM-2.66421 60.3564C0.218561 63.2391 4.12844 64.8587 8.20529 64.8587V48.8586C8.3719 48.8586 8.53169 48.9248 8.6495 49.0426L-2.66421 60.3564ZM8.20529 64.8587H70.1284V48.8586H8.20529V64.8587ZM70.1284 64.8587C74.2052 64.8587 78.1151 63.2391 80.9979 60.3564L69.6842 49.0426C69.802 48.9248 69.9618 48.8586 70.1284 48.8586V64.8587ZM80.9979 60.3564C83.8806 57.4736 85.5002 53.5637 85.5002 49.4869H69.5002C69.5002 49.3202 69.5663 49.1605 69.6842 49.0426L80.9979 60.3564ZM85.5002 49.4869V8.2048H69.5002V49.4869H85.5002ZM85.5002 8.2048C85.5002 4.12795 83.8806 0.218073 80.9979 -2.6647L69.6842 8.64901C69.5663 8.5312 69.5002 8.37141 69.5002 8.2048H85.5002ZM80.9979 -2.6647C78.1151 -5.54747 74.2052 -7.16699 70.1284 -7.16699V8.83301C69.9618 8.83301 69.802 8.76682 69.6842 8.64901L80.9979 -2.6647ZM36.6391 26.8124C37.3098 26.1425 38.2189 25.7663 39.1668 25.7663V41.7663C42.459 41.7663 45.6165 40.4595 47.9458 38.1331L36.6391 26.8124ZM39.1668 25.7663C40.1147 25.7663 41.0238 26.1425 41.6945 26.8124L30.3879 38.1331C32.7172 40.4596 35.8747 41.7663 39.1668 41.7663V25.7663ZM41.698 26.8159L13.0807 -1.80141L1.76703 9.5123L30.3843 38.1296L41.698 26.8159ZM8.86299 11.7249C8.66511 11.7611 8.46445 11.7801 8.26329 11.7815L8.14729 -4.21806C7.4219 -4.21281 6.69834 -4.14454 5.98478 -4.01405L8.86299 11.7249ZM8.20529 11.7817H70.1284V-4.21827H8.20529V11.7817ZM70.0704 11.7815C69.8692 11.7801 69.6685 11.7611 69.4707 11.7249L72.3489 -4.01405C71.6353 -4.14454 70.9118 -4.21281 70.1864 -4.21806L70.0704 11.7815ZM65.2529 -1.80141L36.6356 26.8159L47.9493 38.1296L76.5666 9.5123L65.2529 -1.80141Z" fill="white" mask="url(#path-3-inside-2_1617_16993)"/>
</svg>
