<svg width="41" height="40" viewBox="0 0 41 40" fill="none" xmlns="http://www.w3.org/2000/svg">
<path d="M32.1578 31.1164C31.4088 31.7478 30.9339 31.7923 30.2767 31.854C30.1666 31.8643 30.0543 31.8749 29.9383 31.8882C29.7954 31.9053 29.6651 31.9784 29.5759 32.0913C29.4867 32.2043 29.4458 32.3479 29.4622 32.4909C29.4787 32.6339 29.551 32.7646 29.6635 32.8544C29.7759 32.9442 29.9194 32.9858 30.0625 32.9702C30.1707 32.9577 30.2756 32.9479 30.3784 32.9383C31.1018 32.8705 31.8498 32.8003 32.8597 31.9491C34.2261 30.7974 34.8124 28.9362 34.3532 27.2077C34.3242 27.0986 34.2621 27.0013 34.1754 26.9291C34.0887 26.8568 33.9818 26.8133 33.8693 26.8046C32.2733 26.68 30.825 27.0926 29.6809 27.9976C29.5685 28.0875 29.4963 28.2183 29.48 28.3613C29.4637 28.5042 29.5047 28.6479 29.594 28.7607C29.6833 28.8736 29.8136 28.9465 29.9565 28.9636C30.0994 28.9807 30.2432 28.9405 30.3566 28.8518C31.1858 28.1957 32.2235 27.8605 33.38 27.8725C33.5601 29.0802 33.1027 30.32 32.1578 31.1164ZM5.7887 12.1351C5.93312 12.1351 6.07163 12.0778 6.17375 11.9756C6.27588 11.8735 6.33325 11.735 6.33325 11.5906V5.15692C6.33325 4.87702 6.4818 4.6335 6.7307 4.50556C6.97989 4.37748 7.26458 4.39839 7.49221 4.56125L13.6798 8.99465C13.7612 9.05299 13.8571 9.08776 13.9569 9.09513C14.0568 9.1025 14.1568 9.08219 14.2458 9.03643C14.3349 8.99068 14.4096 8.92125 14.4618 8.83577C14.5139 8.7503 14.5415 8.6521 14.5415 8.55197V5.15685C14.5415 4.87695 14.6901 4.63342 14.939 4.50549C15.1881 4.37741 15.4729 4.39832 15.7005 4.56118L21.8881 8.99458C21.9694 9.05292 22.0653 9.08769 22.1652 9.09506C22.2651 9.10243 22.365 9.08212 22.4541 9.03636C22.5431 8.9906 22.6179 8.92117 22.67 8.8357C22.7222 8.75023 22.7498 8.65203 22.7498 8.55189V5.15678C22.7498 4.87673 22.8984 4.63321 23.1474 4.50527C23.3962 4.37741 23.6807 4.39825 23.9081 4.56118L29.6179 8.65173C29.6955 8.70745 29.7587 8.78083 29.8024 8.86581C29.846 8.95078 29.8689 9.04492 29.869 9.14045V11.5526C29.869 11.697 29.9263 11.8355 30.0285 11.9377C30.1306 12.0398 30.2691 12.0972 30.4135 12.0972C30.5579 12.0972 30.6965 12.0398 30.7986 11.9377C30.9007 11.8355 30.9581 11.697 30.9581 11.5526V9.14045C30.9578 8.87185 30.8936 8.60717 30.7709 8.36825C30.6482 8.12933 30.4704 7.92303 30.2522 7.76636L24.5423 3.67573C23.9849 3.27647 23.2596 3.2231 22.6497 3.53655C22.0397 3.84992 21.6607 4.47078 21.6607 5.15671V7.49176L16.3346 3.67559C15.7767 3.27632 15.0511 3.2231 14.4411 3.53676C13.8313 3.85021 13.4525 4.47093 13.4525 5.15671V7.49176L8.12629 3.67581C7.5683 3.27654 6.84281 3.22332 6.23276 3.53698C5.62301 3.85043 5.24414 4.47115 5.24414 5.15692V11.5906C5.24414 11.735 5.30151 11.8735 5.40364 11.9756C5.50576 12.0778 5.64427 12.1351 5.7887 12.1351Z" fill="#0099A3"/>
<path d="M38.3887 20.5526C38.5331 20.5526 38.6716 20.4952 38.7738 20.3931C38.8759 20.291 38.9333 20.1525 38.9333 20.008V16.4972C38.9333 14.2716 37.1226 12.4609 34.897 12.4609H6.30284C4.07728 12.4609 2.2666 14.2716 2.2666 16.4972V36.3565C2.2666 36.5009 2.32397 36.6394 2.4261 36.7416C2.52822 36.8437 2.66673 36.9011 2.81116 36.9011H38.3887C38.5331 36.9011 38.6716 36.8437 38.7738 36.7416C38.8759 36.6394 38.9333 36.5009 38.9333 36.3565V21.8233C38.9333 21.6789 38.8759 21.5403 38.7738 21.4382C38.6716 21.3361 38.5331 21.2787 38.3887 21.2787C38.2443 21.2787 38.1058 21.3361 38.0037 21.4382C37.9015 21.5403 37.8442 21.6789 37.8442 21.8233V35.8119H28.944V32.9764C29.4348 31.7304 29.5327 30.433 29.2242 29.2167C28.935 28.0761 28.2871 27.0362 27.4 26.2884C27.2319 26.1468 26.7359 25.7481 26.5062 25.6023C26.3878 25.5271 26.2449 25.5005 26.1074 25.528C25.9699 25.5556 25.8483 25.6351 25.768 25.7501L25.6363 25.9386C24.8051 25.6495 22.8928 25.0851 21.4821 25.4383C21.3877 25.462 21.3014 25.5105 21.2321 25.5788C21.1628 25.6471 21.1131 25.7327 21.0881 25.8268C20.5276 27.9367 21.2432 30.2084 22.911 31.6142C24.1407 32.6506 25.0134 32.7325 25.9375 32.8191C26.5054 32.8723 27.0907 32.9275 27.8549 33.2324V35.8119H17.0717V28.2216C17.0717 26.2684 15.4827 24.6795 13.5296 24.6795H9.10294C7.1498 24.6795 5.56079 26.2685 5.56079 28.2216V32.2062C5.56079 32.3506 5.61817 32.4891 5.72029 32.5912C5.82241 32.6934 5.96092 32.7507 6.10535 32.7507C6.24977 32.7507 6.38828 32.6934 6.49041 32.5912C6.59253 32.4891 6.6499 32.3506 6.6499 32.2062V28.2216C6.6499 26.869 7.75034 25.7686 9.10294 25.7686H10.7717V35.8119H6.64997V34.0214C6.64997 33.877 6.5926 33.7385 6.49048 33.6364C6.38835 33.5343 6.24984 33.4769 6.10542 33.4769C5.96099 33.4769 5.82249 33.5343 5.72036 33.6364C5.61824 33.7385 5.56087 33.877 5.56087 34.0214V35.8119H3.35571V16.4971C3.35571 14.8721 4.67782 13.55 6.30284 13.55H34.897C36.5221 13.55 37.8442 14.8721 37.8442 16.4971V20.008C37.8441 20.0795 37.8582 20.1503 37.8856 20.2164C37.9129 20.2824 37.9531 20.3425 38.0036 20.3931C38.0542 20.4436 38.1142 20.4838 38.1803 20.5111C38.2464 20.5385 38.3172 20.5526 38.3887 20.5526ZM23.613 30.7813C22.3525 29.7189 21.7656 28.0439 22.0661 26.4365C23.5315 26.2579 25.6009 27.0854 25.6364 27.0997C25.7508 27.1463 25.8776 27.1525 25.996 27.1176C26.1144 27.0826 26.2174 27.0084 26.2881 26.9072L26.3406 26.8322C26.4613 26.9266 26.5805 27.0229 26.6981 27.1211C27.6627 27.9341 28.5197 29.4333 28.2717 31.2899C27.7838 30.3156 26.9985 29.1631 25.3768 28.369C25.2473 28.3073 25.0987 28.2991 24.9633 28.3463C24.8278 28.3935 24.7165 28.4922 24.6534 28.6211C24.5903 28.7499 24.5806 28.8984 24.6264 29.0343C24.6721 29.1702 24.7697 29.2826 24.8978 29.3471C26.3169 30.0419 26.9465 31.0329 27.3756 31.9358C26.8737 31.813 26.441 31.7723 26.0392 31.7346C25.1931 31.6554 24.5819 31.598 23.613 30.7813ZM11.8608 25.7685H13.5295C14.8821 25.7685 15.9825 26.869 15.9825 28.2215V35.8119H11.8607V25.7685H11.8608Z" fill="#0099A3"/>
<path d="M35.6388 20.1782V18.1565C35.6388 16.9274 34.639 15.9276 33.4099 15.9276H7.78952C6.56049 15.9276 5.56055 16.9274 5.56055 18.1565V20.1782C5.56055 21.4072 6.56042 22.4071 7.78952 22.4071H33.4099C34.6389 22.4071 35.6388 21.4072 35.6388 20.1782ZM18.2453 17.0166H22.9541V21.318H18.2453V17.0166ZM17.1562 21.318H12.4475V17.0166H17.1562V21.318ZM24.0432 17.0166H28.7519V21.318H24.0432V17.0166ZM6.64973 20.1782V18.1565C6.64973 17.528 7.16103 17.0167 7.78959 17.0167H11.3585V21.3181H7.78952C7.16103 21.318 6.64973 20.8067 6.64973 20.1782ZM34.5497 20.1782C34.5497 20.8067 34.0384 21.318 33.4099 21.318H29.841V17.0166H33.4099C34.0384 17.0166 34.5497 17.5279 34.5497 18.1564V20.1782ZM10.8412 8.93555H8.66298C8.51856 8.93555 8.38005 8.99292 8.27792 9.09504C8.1758 9.19717 8.11843 9.33568 8.11843 9.4801C8.11843 9.62453 8.1758 9.76304 8.27792 9.86516C8.38005 9.96728 8.51856 10.0247 8.66298 10.0247H10.8412C10.9856 10.0247 11.1241 9.96728 11.2263 9.86516C11.3284 9.76304 11.3858 9.62453 11.3858 9.4801C11.3858 9.33568 11.3284 9.19717 11.2263 9.09504C11.1241 8.99292 10.9856 8.93555 10.8412 8.93555ZM19.191 8.93555H17.0128C16.8684 8.93555 16.7299 8.99292 16.6278 9.09504C16.5256 9.19717 16.4683 9.33568 16.4683 9.4801C16.4683 9.62453 16.5256 9.76304 16.6278 9.86516C16.7299 9.96728 16.8684 10.0247 17.0128 10.0247H19.191C19.3355 10.0247 19.474 9.96728 19.5761 9.86516C19.6782 9.76304 19.7356 9.62453 19.7356 9.4801C19.7356 9.33568 19.6782 9.19717 19.5761 9.09504C19.474 8.99292 19.3355 8.93555 19.191 8.93555ZM27.5408 8.93555H25.3626C25.2182 8.93555 25.0796 8.99292 24.9775 9.09504C24.8754 9.19717 24.818 9.33568 24.818 9.4801C24.818 9.62453 24.8754 9.76304 24.9775 9.86516C25.0796 9.96728 25.2182 10.0247 25.3626 10.0247H27.5408C27.6852 10.0247 27.8237 9.96728 27.9259 9.86516C28.028 9.76304 28.0854 9.62453 28.0854 9.4801C28.0854 9.33568 28.028 9.19717 27.9259 9.09504C27.8237 8.99292 27.6852 8.93555 27.5408 8.93555ZM10.8412 10.6982H8.66298C8.51856 10.6982 8.38005 10.7556 8.27792 10.8577C8.1758 10.9599 8.11843 11.0984 8.11843 11.2428C8.11843 11.3872 8.1758 11.5257 8.27792 11.6278C8.38005 11.73 8.51856 11.7873 8.66298 11.7873H10.8412C10.9856 11.7873 11.1241 11.73 11.2263 11.6278C11.3284 11.5257 11.3858 11.3872 11.3858 11.2428C11.3858 11.0984 11.3284 10.9599 11.2263 10.8577C11.1241 10.7556 10.9856 10.6982 10.8412 10.6982ZM19.191 10.6982H17.0128C16.8684 10.6982 16.7299 10.7556 16.6278 10.8577C16.5256 10.9599 16.4683 11.0984 16.4683 11.2428C16.4683 11.3872 16.5256 11.5257 16.6278 11.6278C16.7299 11.73 16.8684 11.7873 17.0128 11.7873H19.191C19.3355 11.7873 19.474 11.73 19.5761 11.6278C19.6782 11.5257 19.7356 11.3872 19.7356 11.2428C19.7356 11.0984 19.6782 10.9599 19.5761 10.8577C19.474 10.7556 19.3355 10.6982 19.191 10.6982ZM27.5408 10.6982H25.3626C25.2182 10.6982 25.0796 10.7556 24.9775 10.8577C24.8754 10.9599 24.818 11.0984 24.818 11.2428C24.818 11.3872 24.8754 11.5257 24.9775 11.6278C25.0796 11.73 25.2182 11.7873 25.3626 11.7873H27.5408C27.6852 11.7873 27.8237 11.73 27.9259 11.6278C28.028 11.5257 28.0854 11.3872 28.0854 11.2428C28.0854 11.0984 28.028 10.9599 27.9259 10.8577C27.8237 10.7556 27.6852 10.6982 27.5408 10.6982Z" fill="#0099A3"/>
</svg>
