<svg width="24" height="24" viewBox="0 0 24 24" fill="none" xmlns="http://www.w3.org/2000/svg">
<path d="M9.54065 19.3822L11.023 14.9348M12.977 14.9348L14.4594 19.3822M2.34147 11.3334H1V9.72363M6.27641 11.3334H7.61788V9.72363" stroke="#0099A3" stroke-width="0.7" stroke-miterlimit="10" stroke-linecap="round" stroke-linejoin="round"/>
<path d="M7.52254 7.99944C7.58569 8.17998 7.61787 8.3699 7.61771 8.56117V9.72359H6.27646V11.3335H2.34125V9.72359H1V8.56117C1 7.62274 1.76093 6.86182 2.69936 6.86182H5.91879C6.10117 6.86182 6.27646 6.89059 6.44113 6.94415" stroke="#0099A3" stroke-width="0.7" stroke-miterlimit="10" stroke-linecap="round" stroke-linejoin="round"/>
<path d="M4.30848 6.86177C5.09874 6.86177 5.73937 6.22114 5.73937 5.43089C5.73937 4.64063 5.09874 4 4.30848 4C3.51822 4 2.87759 4.64063 2.87759 5.43089C2.87759 6.22114 3.51822 6.86177 4.30848 6.86177Z" stroke="#0099A3" stroke-width="0.7" stroke-miterlimit="10" stroke-linecap="round" stroke-linejoin="round"/>
<path d="M17.7236 11.3334H16.3821V9.72363M21.6585 11.3334H23V9.72363M6.72359 12.6748H1.8943C1.40038 12.6748 1 12.2744 1 11.7805V11.3334H7.61788V11.7805C7.61788 12.2744 7.2175 12.6748 6.72359 12.6748Z" stroke="#0099A3" stroke-width="0.7" stroke-miterlimit="10" stroke-linecap="round" stroke-linejoin="round"/>
<path d="M16.3823 8.561V9.72359H17.7238V11.3333H21.6587V9.72359H23.0002V8.561C23.0002 7.62256 22.2394 6.86182 21.301 6.86182H18.0815C17.143 6.86182 16.3823 7.62256 16.3823 8.561Z" stroke="#0099A3" stroke-width="0.7" stroke-miterlimit="10" stroke-linecap="round" stroke-linejoin="round"/>
<path d="M19.3525 4.04072C19.461 4.01417 19.5743 4 19.6911 4C20.4813 4 21.1218 4.64052 21.1218 5.43066C21.1218 6.22125 20.4813 6.86177 19.6911 6.86177C18.901 6.86177 18.26 6.22125 18.26 5.43066C18.26 5.31425 18.2737 5.20093 18.3003 5.09247M4.30884 12.6747V14.0164H10.6587M22.1057 12.6748H17.2764C16.7825 12.6748 16.3821 12.2744 16.3821 11.7805V11.3333H23V11.7805C23 12.2744 22.5996 12.6748 22.1057 12.6748Z" stroke="#0099A3" stroke-width="0.7" stroke-miterlimit="10" stroke-linecap="round" stroke-linejoin="round"/>
<path d="M19.6908 12.6748V14.0165H13.3409" stroke="#0099A3" stroke-width="0.7" stroke-miterlimit="10" stroke-linecap="round" stroke-linejoin="round"/>
<path d="M11.9997 15.3577C12.7405 15.3577 13.3411 14.7571 13.3411 14.0163C13.3411 13.2754 12.7405 12.6748 11.9997 12.6748C11.2588 12.6748 10.6582 13.2754 10.6582 14.0163C10.6582 14.7571 11.2588 15.3577 11.9997 15.3577Z" stroke="#0099A3" stroke-width="0.7" stroke-miterlimit="10" stroke-linecap="round" stroke-linejoin="round"/>
<path d="M14.9765 20.8127H16.829C17.0265 20.8127 17.1867 20.6525 17.1867 20.4551V19.7397C17.1867 19.5419 17.0265 19.3821 16.829 19.3821H7.17029C6.97286 19.3821 6.81262 19.5419 6.81262 19.7397V20.4551C6.81262 20.6525 6.97286 20.8127 7.17029 20.8127H13.4272M13.6541 5.52799H10.3452C10.2503 5.52799 10.1593 5.49031 10.0923 5.42322C10.0252 5.35614 9.98748 5.26515 9.98748 5.17028V4.54423C9.98748 4.44936 10.0252 4.35838 10.0923 4.29129C10.1593 4.22421 10.2503 4.18652 10.3452 4.18652H13.6541C13.749 4.18652 13.84 4.22421 13.9071 4.29129C13.9742 4.35838 14.0118 4.44936 14.0118 4.54423V5.17024C14.0119 5.21722 14.0026 5.26374 13.9846 5.30714C13.9667 5.35055 13.9403 5.38998 13.9071 5.42321C13.8739 5.45643 13.8344 5.48278 13.791 5.50076C13.7476 5.51874 13.7011 5.52799 13.6541 5.52799ZM13.6541 6.86946H10.3452C10.2503 6.86946 10.1593 6.90715 10.0923 6.97423C10.0252 7.04132 9.98748 7.1323 9.98748 7.22717V7.85318C9.98748 7.94805 10.0252 8.03903 10.0923 8.10611C10.1593 8.1732 10.2503 8.21089 10.3452 8.21089H13.6541C13.749 8.21089 13.84 8.1732 13.9071 8.10611C13.9742 8.03903 14.0118 7.94805 14.0118 7.85318V7.22717C14.0118 7.1323 13.9742 7.04132 13.9071 6.97423C13.84 6.90715 13.749 6.86946 13.6541 6.86946Z" stroke="#0099A3" stroke-width="0.7" stroke-miterlimit="10" stroke-linecap="round" stroke-linejoin="round"/>
</svg>
