<svg width="40" height="40" viewBox="0 0 40 40" fill="none" xmlns="http://www.w3.org/2000/svg">
<g clip-path="url(#clip0_1744_22445)">
<rect width="40" height="40" rx="20" fill="white"/>
<g filter="url(#filter0_i_1744_22445)">
<path d="M40 20C40 8.95313 31.0469 0 20 0C8.95313 0 0 8.95313 0 20C0 31.0469 8.95313 40 20 40C20.1172 40 20.2344 40 20.3516 39.9922V24.4297H16.0547V19.4219H20.3516V15.7344C20.3516 11.4609 22.9609 9.13281 26.7734 9.13281C28.6016 9.13281 30.1719 9.26563 30.625 9.32813V13.7969H28C25.9297 13.7969 25.5234 14.7812 25.5234 16.2266V19.4141H30.4844L29.8359 24.4219H25.5234V39.2266C33.8828 36.8281 40 29.1328 40 20Z" fill="#F0F3BD"/>
</g>
</g>
<defs>
<filter id="filter0_i_1744_22445" x="0" y="0" width="40" height="44" filterUnits="userSpaceOnUse" color-interpolation-filters="sRGB">
<feFlood flood-opacity="0" result="BackgroundImageFix"/>
<feBlend mode="normal" in="SourceGraphic" in2="BackgroundImageFix" result="shape"/>
<feColorMatrix in="SourceAlpha" type="matrix" values="0 0 0 0 0 0 0 0 0 0 0 0 0 0 0 0 0 0 127 0" result="hardAlpha"/>
<feOffset dy="4"/>
<feGaussianBlur stdDeviation="2"/>
<feComposite in2="hardAlpha" operator="arithmetic" k2="-1" k3="1"/>
<feColorMatrix type="matrix" values="0 0 0 0 0 0 0 0 0 0 0 0 0 0 0 0 0 0 0.25 0"/>
<feBlend mode="normal" in2="shape" result="effect1_innerShadow_1744_22445"/>
</filter>
<clipPath id="clip0_1744_22445">
<rect width="40" height="40" rx="20" fill="white"/>
</clipPath>
</defs>
</svg>
