<svg width="37" height="40" viewBox="0 0 37 40" fill="none" xmlns="http://www.w3.org/2000/svg">
<path d="M27.2614 17.3157V9.74579C27.2614 9.52911 27.1613 9.32892 27.0197 9.17053L18.5327 0.258484C18.3743 0.0918579 18.1491 0 17.9242 0H4.46838C1.98425 0 0 2.02576 0 4.51019V29.9542C0 32.4387 1.98425 34.4312 4.46838 34.4312H15.0897C17.0987 37.7658 20.7504 40 24.9103 40C31.2296 40 36.3901 34.8645 36.3901 28.537C36.3986 23.0096 32.4301 18.3911 27.2614 17.3157ZM18.7579 2.92633L24.4519 8.92029H20.7587C19.6582 8.92029 18.7579 8.01178 18.7579 6.91132V2.92633ZM4.46838 32.7637C2.90955 32.7637 1.66748 31.5131 1.66748 29.9542V4.51019C1.66748 2.94281 2.90955 1.66748 4.46838 1.66748H17.0905V6.91132C17.0905 8.93707 18.7329 10.5878 20.7587 10.5878H25.5939V17.0987C25.3439 17.0905 25.1437 17.0654 24.9271 17.0654C22.0175 17.0654 19.3414 18.1827 17.3239 19.9335H6.73615C6.27747 19.9335 5.9024 20.3085 5.9024 20.7669C5.9024 21.2256 6.27747 21.6006 6.73615 21.6006H15.7733C15.1813 22.4344 14.6893 23.2681 14.306 24.1852H6.73615C6.27747 24.1852 5.9024 24.5602 5.9024 25.0189C5.9024 25.4773 6.27747 25.8527 6.73615 25.8527H13.764C13.5556 26.6864 13.4473 27.6117 13.4473 28.537C13.4473 30.0375 13.739 31.5216 14.2642 32.7722H4.46838V32.7637ZM24.9188 38.3411C19.5166 38.3411 15.123 33.9474 15.123 28.5452C15.123 23.143 19.5081 18.7494 24.9188 18.7494C30.3293 18.7494 34.7144 23.143 34.7144 28.5452C34.7144 33.9474 30.321 38.3411 24.9188 38.3411Z" fill="#0E556C"/>
<path d="M6.73608 17.4243H15.1812C15.6399 17.4243 16.015 17.049 16.015 16.5906C16.015 16.1319 15.6399 15.7568 15.1812 15.7568H6.73608C6.2774 15.7568 5.90234 16.1319 5.90234 16.5906C5.90234 17.049 6.2774 17.4243 6.73608 17.4243Z" fill="#0E556C"/>
<path d="M25.5098 22.3927C25.3514 22.2261 25.1347 22.126 24.9013 22.126C24.6678 22.126 24.4512 22.2261 24.2928 22.3927L19.4072 27.6365C19.0904 27.9701 19.1155 28.5035 19.449 28.8121C19.7826 29.1288 20.3243 29.1038 20.641 28.7706L24.0926 25.0773V34.181C24.0926 34.6397 24.4676 35.0148 24.9263 35.0148C25.3847 35.0148 25.76 34.6397 25.76 34.181V25.0773L29.1863 28.7706C29.3532 28.9454 29.5699 29.0373 29.7951 29.0373C29.995 29.0373 30.1952 28.9622 30.3618 28.8121C30.6954 28.4953 30.7204 27.9701 30.4036 27.6365L25.5098 22.3927Z" fill="#0E556C"/>
</svg>
