<svg width="508" height="248" viewBox="0 0 508 248" fill="none" xmlns="http://www.w3.org/2000/svg">
<path fill-rule="evenodd" clip-rule="evenodd" d="M338.35 106.391C466.772 106.391 570.878 210.497 570.878 338.92H511.487C511.487 243.299 433.971 165.782 338.35 165.782C242.729 165.782 165.212 243.298 165.212 338.92H105.821C105.821 210.497 209.928 106.391 338.35 106.391Z" fill="white"/>
<path fill-rule="evenodd" clip-rule="evenodd" d="M338.35 0.981445C524.988 0.981462 676.288 152.282 676.288 338.92H616.896C616.896 185.083 492.187 60.373 338.35 60.373C184.513 60.373 59.8032 185.083 59.8032 338.92H0.411621C0.411637 152.281 151.712 0.981429 338.35 0.981445Z" fill="white"/>
<path fill-rule="evenodd" clip-rule="evenodd" d="M338.35 207.009C411.202 207.009 470.261 266.067 470.261 338.92H410.869C410.869 298.868 378.401 266.4 338.35 266.4C298.298 266.4 265.831 298.868 265.831 338.92H206.439C206.439 266.067 265.497 207.009 338.35 207.009Z" fill="white"/>
</svg>
