<svg width="24" height="24" viewBox="0 0 24 24" fill="none" xmlns="http://www.w3.org/2000/svg">
<path d="M22.7926 16.8165L21.47 16.1822L18.9671 14.9821V12.4227C18.9671 10.5715 19.4775 8.75604 20.4422 7.17599C20.4774 7.11848 20.496 7.05238 20.4961 6.98496V6.98129C20.4954 6.90035 20.4679 6.82191 20.4179 6.75822C20.368 6.69453 20.2983 6.64917 20.2199 6.6292C20.1414 6.60923 20.0586 6.61578 19.9843 6.64784C19.9099 6.67989 19.8483 6.73564 19.809 6.80639C18.8452 8.39275 18.307 10.2009 18.2462 12.056H14.5512C14.5171 11.0299 14.3362 10.0139 14.0141 9.03906L14.0427 9.01522C14.2776 8.82693 14.434 8.55794 14.4814 8.26065C14.5289 7.96336 14.464 7.65906 14.2993 7.407C14.1668 7.20878 13.9765 7.05605 13.7544 6.96942C13.5322 6.8828 13.2888 6.86646 13.0571 6.92262C13.0325 6.87972 13.0094 6.83609 12.9837 6.79356L11.7436 4.76512L12.4036 4.10511L13.2947 5.55347C13.6847 6.18184 14.2562 6.67704 14.9337 6.97359V7.2893C14.9337 7.67829 15.0882 8.05134 15.3633 8.3264C15.6383 8.60146 16.0114 8.75599 16.4004 8.75599C16.7894 8.75599 17.1624 8.60146 17.4375 8.3264C17.7125 8.05134 17.8671 7.67829 17.8671 7.2893V6.97433C18.5448 6.67725 19.1165 6.18172 19.5068 5.5531L20.3978 4.10511L21.0578 4.76512L20.5837 5.541C20.5581 5.58211 20.5408 5.6279 20.533 5.67571C20.5251 5.72353 20.5268 5.77243 20.538 5.81958C20.5492 5.86673 20.5696 5.9112 20.598 5.95043C20.6265 5.98965 20.6624 6.02284 20.7038 6.04809C20.7451 6.07333 20.7911 6.09013 20.839 6.09751C20.8869 6.10489 20.9357 6.10271 20.9828 6.09108C21.0298 6.07946 21.0741 6.05862 21.113 6.02979C21.152 6.00095 21.1848 5.96468 21.2096 5.92308L22.482 3.84074C22.5703 3.70827 22.631 3.55934 22.6604 3.40287C22.6898 3.2464 22.6874 3.0856 22.6533 2.9301C22.6191 2.77459 22.5539 2.62757 22.4617 2.49782C22.3694 2.36808 22.2519 2.25828 22.1162 2.17499C21.9805 2.0917 21.8294 2.03664 21.672 2.01309C21.5145 1.98953 21.3539 1.99798 21.1998 2.03793C21.0457 2.07787 20.9012 2.14849 20.775 2.24556C20.6488 2.34262 20.5435 2.46415 20.4653 2.60286L18.8849 5.16956C18.6945 5.47482 18.4482 5.74141 18.1589 5.95534C18.2071 5.79319 18.2323 5.62508 18.2337 5.45594V3.98925C18.2337 3.50301 18.0406 3.03669 17.6968 2.69286C17.3529 2.34904 16.8866 2.15588 16.4004 2.15588C15.9141 2.15588 15.4478 2.34904 15.104 2.69286C14.7602 3.03669 14.567 3.50301 14.567 3.98925C14.567 4.08649 14.6056 4.17976 14.6744 4.24852C14.7432 4.31729 14.8364 4.35592 14.9337 4.35592H17.5004V5.45594C17.5004 5.74768 17.3845 6.02747 17.1782 6.23377C16.9719 6.44006 16.6921 6.55595 16.4004 6.55595C16.1086 6.55595 15.8288 6.44006 15.6225 6.23377C15.4162 6.02747 15.3004 5.74768 15.3004 5.45594C15.3004 5.35869 15.2617 5.26542 15.193 5.19666C15.1242 5.12789 15.0309 5.08926 14.9337 5.08926C14.8364 5.08926 14.7432 5.12789 14.6744 5.19666C14.6056 5.26542 14.567 5.35869 14.567 5.45594C14.5695 5.62509 14.5957 5.79307 14.6447 5.95498C14.3558 5.74062 14.1094 5.47411 13.9184 5.1692L12.3384 2.60249C12.1741 2.33462 11.9101 2.14299 11.6045 2.06976C11.2989 1.99653 10.9768 2.04769 10.7089 2.21199C10.441 2.37629 10.2494 2.64027 10.1762 2.94586C10.1029 3.25144 10.1541 3.57361 10.3184 3.84148L12.3578 7.1782C12.3787 7.2123 12.397 7.24786 12.4168 7.2827L11.3718 8.12421L10.8057 7.3993C10.6005 7.13573 10.3377 6.92267 10.0373 6.77648C9.73701 6.63029 9.40718 6.55485 9.07316 6.55595H8.72262V6.54459C8.95944 6.23095 9.0881 5.84894 9.08929 5.45594V2.52256C9.08929 2.42531 9.05066 2.33205 8.9819 2.26328C8.91313 2.19452 8.81987 2.15588 8.72262 2.15588H7.25593C6.76987 2.15647 6.30389 2.34981 5.96019 2.69351C5.6165 3.0372 5.42315 3.50319 5.42257 3.98925C5.42257 4.08649 5.4612 4.17976 5.52996 4.24852C5.59873 4.31729 5.69199 4.35592 5.78924 4.35592H8.35595V5.45594C8.35595 5.74768 8.24005 6.02747 8.03376 6.23377C7.82747 6.44006 7.54767 6.55595 7.25593 6.55595C6.96419 6.55595 6.68439 6.44006 6.4781 6.23377C6.27181 6.02747 6.15591 5.74768 6.15591 5.45594C6.15591 5.35869 6.11728 5.26542 6.04852 5.19666C5.97975 5.12789 5.88649 5.08926 5.78924 5.08926C5.69199 5.08926 5.59873 5.12789 5.52996 5.19666C5.4612 5.26542 5.42257 5.35869 5.42257 5.45594C5.42504 5.62498 5.45121 5.79284 5.5003 5.95461C5.21132 5.74039 4.96496 5.474 4.77393 5.1692L3.21044 2.62816C3.07679 2.40357 2.87379 2.22849 2.63201 2.12929C2.39022 2.03009 2.12275 2.01214 1.86988 2.07815C1.69304 2.12703 1.52995 2.21628 1.39345 2.33888C1.25695 2.46148 1.15076 2.61407 1.08324 2.78467C1.01571 2.95526 0.988689 3.1392 1.0043 3.322C1.01991 3.50481 1.07773 3.6815 1.1732 3.83818L3.21264 7.17489C4.17852 8.75487 4.68937 10.5709 4.68886 12.4227C4.68886 12.52 4.72749 12.6132 4.79625 12.682C4.86502 12.7507 4.95828 12.7894 5.05553 12.7894H9.08892V19.3895H7.62224V14.6227C7.62224 14.5255 7.5836 14.4322 7.51484 14.3635C7.44608 14.2947 7.35281 14.2561 7.25556 14.2561C7.15832 14.2561 7.06505 14.2947 6.99629 14.3635C6.92752 14.4322 6.88889 14.5255 6.88889 14.6227V17.1894H3.22217V15.7228H5.05553C5.15278 15.7228 5.24604 15.6841 5.31481 15.6154C5.38357 15.5466 5.4222 15.4533 5.4222 15.3561V13.8894C5.4222 13.7922 5.38357 13.6989 5.31481 13.6301C5.24604 13.5614 5.15278 13.5227 5.05553 13.5227C4.95828 13.5227 4.86502 13.5614 4.79625 13.6301C4.72749 13.6989 4.68886 13.7922 4.68886 13.8894V14.9894H1.38881C1.29156 14.9894 1.1983 15.028 1.12953 15.0968C1.06077 15.1656 1.02213 15.2588 1.02213 15.3561V18.6561C1.02213 18.7534 1.06077 18.8466 1.12953 18.9154C1.1983 18.9842 1.29156 19.0228 1.38881 19.0228C1.74513 19.0223 2.09359 18.918 2.39158 18.7227C2.68957 18.5273 2.92417 18.2494 3.0667 17.9228H6.88926V21.2228C6.88926 21.3201 6.92789 21.4134 6.99665 21.4821C7.06542 21.5509 7.15868 21.5895 7.25593 21.5895H10.556C10.6532 21.5895 10.7465 21.5509 10.8153 21.4821C10.884 21.4134 10.9227 21.3201 10.9227 21.2228C10.922 20.8665 10.8177 20.5181 10.6223 20.2201C10.427 19.922 10.1491 19.6873 9.82264 19.5446V10.076C10.2144 10.4248 10.7178 10.6222 11.2422 10.6325C11.7666 10.6429 12.2775 10.4655 12.6827 10.1325L13.4036 9.5403C13.6867 10.475 13.8316 11.4461 13.8337 12.4227V18.2895C13.8337 18.3867 13.8723 18.48 13.9411 18.5487C14.0098 18.6175 14.1031 18.6561 14.2003 18.6561C14.2976 18.6561 14.3908 18.6175 14.4596 18.5487C14.5284 18.48 14.567 18.3867 14.567 18.2895V12.7894H18.2337V15.2131C18.2338 15.2821 18.2534 15.3496 18.2902 15.408C18.3269 15.4664 18.3794 15.5132 18.4416 15.5431L20.8224 16.6845L20.1929 17.9976L16.767 16.2328V14.6227C16.767 14.5255 16.7284 14.4322 16.6596 14.3635C16.5909 14.2947 16.4976 14.2561 16.4004 14.2561C16.3031 14.2561 16.2099 14.2947 16.1411 14.3635C16.0723 14.4322 16.0337 14.5255 16.0337 14.6227V19.3895H14.567C14.0809 19.3901 13.615 19.5834 13.2713 19.9271C12.9276 20.2708 12.7342 20.7368 12.7336 21.2228C12.7336 21.3201 12.7723 21.4134 12.841 21.4821C12.9098 21.5509 13.0031 21.5895 13.1003 21.5895H16.4004C16.4976 21.5895 16.5909 21.5509 16.6596 21.4821C16.7284 21.4134 16.767 21.3201 16.767 21.2228V17.0574L20.0106 18.7295C19.9959 19.0868 20.0864 19.4405 20.2708 19.7469C20.4553 20.0532 20.7256 20.2987 21.0483 20.4528C21.136 20.4949 21.2368 20.5004 21.3285 20.4681C21.4202 20.4359 21.4954 20.3685 21.5374 20.2809L22.9638 17.3057C23.0059 17.2181 23.0115 17.1174 22.9794 17.0257C22.9473 16.934 22.8801 16.8587 22.7926 16.8165ZM21.6731 2.8159C21.7291 2.84388 21.7786 2.88318 21.8186 2.93132C21.8586 2.97945 21.8882 3.03537 21.9054 3.09553C21.9226 3.15568 21.9272 3.21877 21.9188 3.28077C21.9103 3.34278 21.8891 3.40236 21.8565 3.45574L21.4513 4.11905L20.7931 3.46344L21.0864 2.98676C21.1458 2.89081 21.2386 2.82025 21.347 2.7887C21.4553 2.75714 21.5715 2.76683 21.6731 2.8159ZM15.3631 3.62257C15.4388 3.40796 15.5792 3.22212 15.765 3.09067C15.9508 2.95922 16.1728 2.88863 16.4004 2.88863C16.628 2.88863 16.8499 2.95922 17.0357 3.09067C17.2215 3.22212 17.3619 3.40796 17.4377 3.62257H15.3631ZM17.1337 7.13383V7.2893C17.1337 7.48379 17.0565 7.67032 16.9189 7.80785C16.7814 7.94538 16.5949 8.02264 16.4004 8.02264C16.2059 8.02264 16.0193 7.94538 15.8818 7.80785C15.7443 7.67032 15.667 7.48379 15.667 7.2893V7.13383C15.8979 7.23633 16.1477 7.2893 16.4004 7.2893C16.653 7.2893 16.9028 7.23633 17.1337 7.13383ZM10.8955 3.09823C10.9196 3.01407 10.9677 2.93873 11.0338 2.88139C11.1 2.82405 11.1814 2.78719 11.2681 2.7753C11.3549 2.76341 11.4432 2.777 11.5224 2.81441C11.6015 2.85183 11.6681 2.91146 11.7139 2.98603L12.0073 3.4627L11.3473 4.12271L10.9421 3.45904C10.9094 3.40554 10.8884 3.34576 10.8804 3.2836C10.8723 3.22143 10.8775 3.15827 10.8955 3.09823ZM2.48919 17.1894C2.48891 17.4169 2.41829 17.6387 2.28699 17.8244C2.1557 18.0101 1.97017 18.1506 1.75585 18.2268V15.7228H2.48919V17.1894ZM13.6965 7.8228C13.7564 7.92372 13.7774 8.04304 13.7554 8.15832C13.7335 8.27359 13.6701 8.37687 13.5774 8.44871L13.2243 8.73839L12.697 7.99881L13.0369 7.7249C13.0856 7.68536 13.142 7.65638 13.2025 7.63981C13.2631 7.62323 13.3264 7.61943 13.3884 7.62864C13.4505 7.63784 13.51 7.65986 13.5631 7.69329C13.6162 7.72671 13.6614 7.77082 13.6965 7.8228ZM7.25593 2.88923H8.35595V3.62257H6.21861C6.29473 3.40825 6.43528 3.22272 6.621 3.09143C6.80671 2.96013 7.02849 2.88951 7.25593 2.88923ZM7.98927 7.13383V7.2893C7.98927 7.48379 7.91201 7.67032 7.77448 7.80785C7.63695 7.94538 7.45043 8.02264 7.25593 8.02264C7.06144 8.02264 6.87491 7.94538 6.73738 7.80785C6.59985 7.67032 6.52259 7.48379 6.52259 7.2893V7.13383C6.75348 7.23633 7.0033 7.2893 7.25593 7.2893C7.50856 7.2893 7.75838 7.23633 7.98927 7.13383ZM1.76465 3.05753C1.79059 2.99133 1.83177 2.93217 1.88483 2.88484C1.93789 2.83751 2.00136 2.80334 2.07008 2.78509C2.16908 2.7632 2.27247 2.77343 2.36525 2.81432C2.45803 2.8552 2.53535 2.9246 2.58599 3.01243L2.8632 3.46344L2.20539 4.12125L1.79985 3.45794C1.76334 3.39849 1.74115 3.33138 1.73505 3.26188C1.72894 3.19239 1.73907 3.12243 1.76465 3.05753ZM10.1266 20.8562H7.6226V20.1228H9.08929C9.31673 20.1231 9.53851 20.1937 9.72423 20.325C9.90994 20.4563 10.0505 20.6418 10.1266 20.8562ZM10.1999 9.4204L9.72693 8.90009C9.67712 8.84544 9.61195 8.80714 9.53997 8.7902C9.468 8.77326 9.39258 8.77847 9.32362 8.80516C9.25467 8.83185 9.19539 8.87876 9.15357 8.93974C9.11175 9.00072 9.08934 9.07292 9.08929 9.14686V12.056H5.41634C5.35344 10.1957 4.81027 8.38331 3.83964 6.79502L2.59846 4.76512L3.25847 4.10511L4.14948 5.55347C4.53975 6.18189 5.11153 6.67708 5.78924 6.97359V7.2893C5.78924 7.67829 5.94377 8.05134 6.21882 8.3264C6.49388 8.60146 6.86694 8.75599 7.25593 8.75599C7.64492 8.75599 8.01798 8.60146 8.29304 8.3264C8.56809 8.05134 8.72262 7.67829 8.72262 7.2893H9.07316C9.29587 7.28873 9.51575 7.33917 9.71596 7.43673C9.91617 7.53429 10.0914 7.67639 10.2282 7.85214L11.0231 8.86819C11.0531 8.90645 11.0903 8.93837 11.1327 8.9621C11.1751 8.98583 11.2218 9.0009 11.2701 9.00643C11.3184 9.01195 11.3673 9.00783 11.414 8.9943C11.4606 8.98076 11.5041 8.95809 11.542 8.92759L12.1235 8.45935L12.6563 9.20516L12.2163 9.56633C11.9257 9.80496 11.5546 9.92288 11.1795 9.89572C10.8045 9.86856 10.4542 9.6984 10.201 9.4204H10.1999ZM16.0337 20.8562H13.5297C13.6058 20.6418 13.7464 20.4563 13.9321 20.325C14.1178 20.1937 14.3396 20.1231 14.567 20.1228H16.0337V20.8562ZM21.0619 19.5776C20.9014 19.4163 20.7948 19.2092 20.7567 18.9849C20.7186 18.7605 20.7509 18.5299 20.8492 18.3247L21.4835 17.0021L22.1436 17.3193L21.0619 19.5776Z" fill="#797C7F"/>
</svg>
