<svg width="41" height="40" viewBox="0 0 41 40" fill="none" xmlns="http://www.w3.org/2000/svg">
<path d="M27.2962 5.84247C27.7809 6.83107 28.0532 7.94288 28.0532 9.11887C28.0532 13.2348 24.7163 16.571 20.6003 16.571C16.4843 16.571 13.1475 13.2348 13.1475 9.11887C13.1475 5.0029 16.4843 1.66602 20.6003 1.66602C22.6137 1.66602 24.4396 2.46427 25.7801 3.76052" stroke="#0099A3" stroke-miterlimit="10" stroke-linecap="round" stroke-linejoin="round"/>
<path d="M18.1163 5.76562V7.00772M23.0847 5.76562V7.00772M33.076 32.854C33.4751 32.387 33.799 31.8418 34.0211 31.2302L34.4261 30.1177M24.4973 26.5034L24.0923 27.6167C23.0941 30.3582 24.5084 33.3896 27.2499 34.3878C27.846 34.6047 28.4561 34.708 29.0559 34.708C29.7229 34.708 30.3765 34.5811 30.9852 34.3414M37.4075 27.5192L38.4979 24.5234C39.8572 20.7889 37.9316 16.6596 34.1972 15.3004C30.4627 13.9411 26.3334 15.8667 24.9741 19.6011L23.8837 22.597M25.072 9.55941C25.072 12.029 23.07 14.031 20.6005 14.031C18.1309 14.031 16.1289 12.029 16.1289 9.55941H25.072Z" stroke="#0099A3" stroke-miterlimit="10" stroke-linecap="round" stroke-linejoin="round"/>
<path d="M25.7429 23.0801C27.1276 25.135 29.8127 23.8829 29.8127 23.8829C29.4389 24.91 27.968 24.9562 27.968 24.9562C31.991 26.4205 34.8709 24.3668 34.8709 24.3668L35.6718 26.6939M25.7429 23.0801L24.7158 22.7063C23.7704 22.3621 22.725 22.8496 22.3809 23.7951C22.0367 24.7405 22.5242 25.7859 23.4697 26.13L24.4968 26.5038L25.7429 23.0801ZM6.77424 33.7432L7.17927 34.8559C8.17717 37.5977 11.2088 39.0114 13.9506 38.0135C16.6924 37.0156 18.106 33.9839 17.1081 31.2422L16.7031 30.1295M2.98961 22.5477C2.51435 23.5265 2.26716 24.6002 2.2666 25.6883C2.2666 26.505 2.40678 27.3365 2.70262 28.1487L3.79303 31.1448M4.50865 20.4679C5.20362 19.8069 6.04393 19.275 7.00302 18.926C10.7376 17.567 14.8668 19.4926 16.2265 23.2271L17.3169 26.2224M35.4528 30.4915L34.4257 30.1177L35.6719 26.6939L36.699 27.0678C37.6444 27.4119 38.1319 28.4573 37.7878 29.4027C37.4437 30.3481 36.3983 30.8356 35.4528 30.4915ZM31.4528 30.6835C30.946 32.0758 29.4064 32.7937 28.014 32.287C26.6215 31.7802 25.9037 30.2406 26.4105 28.8482L31.4528 30.6835Z" stroke="#0099A3" stroke-miterlimit="10" stroke-linecap="round" stroke-linejoin="round"/>
<path d="M15.4577 26.7055L16.7039 30.1292L17.731 29.7554C18.6764 29.4112 19.1639 28.3659 18.8198 27.4205C18.4757 26.475 17.4303 25.9876 16.4848 26.3317L15.4577 26.7055ZM15.4577 26.7055L12.0069 25.214L8.01157 29.6096L7.74767 28.0043L5.52879 30.3193M5.52879 30.3193L4.50168 30.6931C3.55624 31.0373 3.0688 32.0827 3.41289 33.028C3.75698 33.9735 4.80239 34.4609 5.74783 34.1168L6.77494 33.743L5.52879 30.3193ZM33.3588 10.3058L34.4128 9.25187M34.473 12.2557H35.9635M31.409 9.19174V7.70117M6.34711 16.1732L5.9291 14.7426M4.43321 17.348L3.12598 16.6319M8.59241 16.1329L9.30848 14.8256M9.73616 34.3131C10.2429 35.7055 11.7826 36.4234 13.1749 35.9167C14.5673 35.4099 15.2852 33.8703 14.7785 32.4779L9.73616 34.3131Z" stroke="#0099A3" stroke-miterlimit="10" stroke-linecap="round" stroke-linejoin="round"/>
</svg>
