<svg width="308" height="32" viewBox="0 0 308 32" fill="none" xmlns="http://www.w3.org/2000/svg">
<g opacity="0.5">
<path d="M304.849 7.76235C303.251 7.75313 301.962 6.4059 301.972 4.75321C301.981 3.10052 303.285 1.76821 304.884 1.77743C306.482 1.78665 307.771 3.13392 307.761 4.78661C307.752 6.4393 306.448 7.77158 304.849 7.76235Z" fill="white"/>
<path d="M289.774 7.67529C288.176 7.66607 286.887 6.31883 286.897 4.66614C286.907 3.01345 288.21 1.68114 289.809 1.69036C291.408 1.69959 292.696 3.04685 292.686 4.69954C292.677 6.35223 291.373 7.68451 289.774 7.67529Z" fill="white"/>
<path d="M274.681 7.58822C273.082 7.579 271.794 6.23177 271.803 4.57908C271.813 2.92638 273.117 1.59407 274.715 1.6033C276.314 1.61252 277.602 2.95978 277.593 4.61247C277.583 6.26516 276.28 7.59744 274.681 7.58822Z" fill="white"/>
<path d="M259.587 7.50115C257.988 7.49193 256.7 6.1447 256.71 4.49201C256.719 2.83932 258.023 1.50701 259.622 1.51623C261.22 1.52545 262.509 2.87272 262.499 4.52541C262.489 6.1781 261.186 7.51038 259.587 7.50115Z" fill="white"/>
<path d="M244.494 7.41409C242.895 7.40487 241.607 6.05763 241.616 4.40494C241.626 2.75225 242.929 1.41994 244.528 1.42916C246.127 1.43839 247.415 2.78565 247.405 4.43834C247.396 6.09103 246.092 7.42331 244.494 7.41409Z" fill="white"/>
<path d="M229.4 7.32702C227.801 7.3178 226.513 5.97057 226.523 4.31788C226.532 2.66519 227.836 1.33287 229.434 1.3421C231.033 1.35132 232.321 2.69858 232.312 4.35127C232.302 6.00396 230.999 7.33624 229.4 7.32702Z" fill="white"/>
<path d="M214.306 7.23995C212.708 7.23073 211.419 5.8835 211.429 4.23081C211.438 2.57812 212.742 1.24581 214.341 1.25503C215.939 1.26425 217.228 2.61152 217.218 4.26421C217.209 5.9169 215.905 7.24918 214.306 7.23995Z" fill="white"/>
<path d="M199.213 7.15289C197.614 7.14367 196.326 5.79643 196.335 4.14374C196.345 2.49105 197.648 1.15874 199.247 1.16796C200.846 1.17719 202.134 2.52445 202.125 4.17714C202.115 5.82983 200.811 7.16211 199.213 7.15289Z" fill="white"/>
<path d="M184.119 7.06579C182.52 7.05657 181.232 5.70934 181.242 4.05664C181.251 2.40395 182.555 1.07164 184.154 1.08087C185.752 1.09009 187.04 2.43735 187.031 4.09004C187.021 5.74273 185.718 7.07501 184.119 7.06579Z" fill="white"/>
<path d="M166.148 3.96954C166.143 4.76319 166.444 5.52607 166.984 6.09039C167.523 6.65472 168.258 6.97423 169.025 6.97866C169.795 6.98311 170.535 6.67273 171.084 6.11523C171.633 5.55774 171.947 4.79845 171.956 4.00305C171.961 3.20425 171.658 2.4364 171.115 1.86841C170.572 1.30042 169.833 0.978831 169.06 0.974373C168.678 0.972163 168.3 1.048 167.947 1.19757C167.593 1.34713 167.272 1.56748 167.001 1.84587C166.731 2.12425 166.516 2.45517 166.37 2.81964C166.223 3.18412 166.148 3.57492 166.148 3.96954Z" fill="white"/>
<path d="M153.95 6.89178C152.352 6.88256 151.064 5.53532 151.073 3.88263C151.083 2.22994 152.386 0.897632 153.985 0.906855C155.584 0.916077 156.872 2.26334 156.862 3.91603C156.853 5.56872 155.549 6.901 153.95 6.89178Z" fill="white"/>
<path d="M138.857 6.80471C137.258 6.79549 135.97 5.44826 135.979 3.79557C135.989 2.14288 137.293 0.810566 138.891 0.819788C140.49 0.829011 141.778 2.17627 141.769 3.82896C141.759 5.48165 140.456 6.81394 138.857 6.80471Z" fill="white"/>
<path d="M120.867 3.70828C120.862 4.50193 121.163 5.26481 121.703 5.82913C122.242 6.39346 122.977 6.71297 123.744 6.7174C124.126 6.72217 124.505 6.64888 124.859 6.50168C125.213 6.35449 125.536 6.13638 125.808 5.85982C126.081 5.58325 126.298 5.25371 126.446 4.89022C126.595 4.52674 126.673 4.13641 126.675 3.74179C126.68 3.34556 126.609 2.95232 126.465 2.58489C126.322 2.21747 126.109 1.88313 125.84 1.60137C125.57 1.31961 125.249 1.09609 124.896 0.9436C124.542 0.791107 124.162 0.712744 123.779 0.713114C123.397 0.710904 123.019 0.786744 122.666 0.93631C122.312 1.08588 121.991 1.30622 121.72 1.58461C121.45 1.86299 121.235 2.19391 121.089 2.55838C120.942 2.92286 120.867 3.31366 120.867 3.70828Z" fill="white"/>
<path d="M108.67 6.63055C107.071 6.62133 105.783 5.27409 105.792 3.6214C105.802 1.96871 107.106 0.636402 108.704 0.645624C110.303 0.654847 111.591 2.00211 111.582 3.6548C111.572 5.30749 110.268 6.63977 108.67 6.63055Z" fill="white"/>
<path d="M93.576 6.54348C91.9773 6.53426 90.689 5.18703 90.6986 3.53434C90.7081 1.88165 92.0118 0.549335 93.6105 0.558558C95.2092 0.56778 96.4975 1.91504 96.4879 3.56773C96.4784 5.22042 95.1747 6.5527 93.576 6.54348Z" fill="white"/>
<path d="M75.5861 3.44714C75.5865 4.2426 75.8913 5.00546 76.4339 5.56925C76.9765 6.13304 77.7129 6.45195 78.4824 6.45637C79.2501 6.4608 79.9882 6.14978 80.5343 5.59172C81.0803 5.03365 81.3897 4.2743 81.3943 3.48065C81.399 3.08606 81.3283 2.69441 81.186 2.32827C81.0438 1.96213 80.8329 1.62876 80.5654 1.34727C80.298 1.06578 79.9793 0.84174 79.6278 0.688108C79.2762 0.534476 78.8987 0.454276 78.517 0.452082C77.7443 0.447624 77.0014 0.760663 76.4518 1.32235C75.9021 1.88404 75.5908 2.64834 75.5861 3.44714Z" fill="white"/>
<path d="M63.3887 6.36935C61.79 6.36013 60.5017 5.01289 60.5113 3.3602C60.5208 1.70751 61.8245 0.375202 63.4232 0.384425C65.0219 0.393647 66.3101 1.74091 66.3006 3.3936C66.291 5.04629 64.9874 6.37857 63.3887 6.36935Z" fill="white"/>
<path d="M48.2951 6.28228C46.6964 6.27306 45.4082 4.92583 45.4177 3.27314C45.4272 1.62045 46.731 0.288136 48.3296 0.297358C49.9283 0.30658 51.2165 1.65384 51.207 3.30653C51.1975 4.95922 49.8938 6.29151 48.2951 6.28228Z" fill="white"/>
<path d="M30.3241 3.18603C30.3195 3.97968 30.6201 4.74256 31.1597 5.30688C31.6993 5.87121 32.4338 6.19072 33.2015 6.19515C33.9709 6.19961 34.7109 5.88922 35.26 5.33172C35.8091 4.77423 36.1226 4.01494 36.1322 3.21954C36.1368 2.42074 35.8343 1.65289 35.2912 1.0849C34.748 0.516911 34.0088 0.195323 33.2361 0.190865C32.8544 0.188655 32.476 0.264495 32.1227 0.414061C31.7694 0.563627 31.4482 0.783973 31.1775 1.06236C30.9068 1.34074 30.6921 1.67166 30.5456 2.03614C30.3992 2.40061 30.3239 2.79141 30.3241 3.18603Z" fill="white"/>
<path d="M18.1267 6.10824C16.528 6.09902 15.2398 4.75179 15.2493 3.09909C15.2588 1.4464 16.5625 0.114094 18.1612 0.123316C19.7599 0.132538 21.0481 1.4798 21.0386 3.13249C21.0291 4.78518 19.7253 6.11746 18.1267 6.10824Z" fill="white"/>
<path d="M3.03292 6.02117C1.43424 6.01195 0.146017 4.66472 0.155551 3.01203C0.165085 1.35934 1.46876 0.027027 3.06744 0.0362493C4.66612 0.0454717 5.9544 1.39273 5.94486 3.04543C5.93533 4.69812 4.6316 6.0304 3.03292 6.02117Z" fill="white"/>
<path d="M294.346 16.6987C294.342 17.0949 294.413 17.4882 294.556 17.8556C294.7 18.223 294.912 18.5573 295.182 18.8391C295.451 19.1209 295.772 19.3445 296.126 19.497C296.48 19.6495 296.859 19.7279 297.242 19.7275C297.624 19.7297 298.003 19.6537 298.356 19.5042C298.709 19.3546 299.03 19.1344 299.301 18.856C299.572 18.5776 299.787 18.2466 299.933 17.8821C300.079 17.5176 300.155 17.1268 300.155 16.7322C300.159 15.9385 299.859 15.1757 299.319 14.6113C298.779 14.047 298.045 13.7275 297.277 13.7231C296.895 13.7183 296.517 13.7916 296.162 13.9388C295.808 14.086 295.486 14.3042 295.213 14.5808C294.941 14.8574 294.724 15.1869 294.575 15.5504C294.426 15.9139 294.349 16.3041 294.346 16.6987Z" fill="white"/>
<path d="M282.149 19.6404C280.55 19.6312 279.262 18.284 279.272 16.6313C279.281 14.9786 280.585 13.6463 282.184 13.6555C283.782 13.6647 285.07 15.012 285.061 16.6647C285.051 18.3173 283.748 19.6497 282.149 19.6404Z" fill="white"/>
<path d="M267.055 19.5534C265.457 19.5441 264.168 18.1969 264.178 16.5442C264.187 14.8915 265.491 13.5592 267.09 13.5684C268.688 13.5777 269.977 14.9249 269.967 16.5776C269.958 18.2303 268.654 19.5626 267.055 19.5534Z" fill="white"/>
<path d="M251.962 19.4663C250.363 19.4571 249.075 18.1098 249.084 16.4571C249.094 14.8044 250.398 13.4722 251.996 13.4814C253.595 13.4906 254.883 14.8378 254.874 16.4905C254.864 18.1432 253.56 19.4755 251.962 19.4663Z" fill="white"/>
<path d="M236.868 19.3792C235.269 19.37 233.981 18.0227 233.991 16.37C234 14.7174 235.304 13.3851 236.903 13.3943C238.501 13.4035 239.79 14.7508 239.78 16.4034C239.77 18.0561 238.467 19.3884 236.868 19.3792Z" fill="white"/>
<path d="M221.793 19.2923C220.195 19.283 218.906 17.9358 218.916 16.2831C218.925 14.6304 220.229 13.2981 221.828 13.3073C223.426 13.3166 224.715 14.6638 224.705 16.3165C224.696 17.9692 223.392 19.3015 221.793 19.2923Z" fill="white"/>
<path d="M206.7 19.2052C205.101 19.196 203.813 17.8487 203.822 16.196C203.832 14.5433 205.135 13.211 206.734 13.2203C208.333 13.2295 209.621 14.5767 209.611 16.2294C209.602 17.8821 208.298 19.2144 206.7 19.2052Z" fill="white"/>
<path d="M191.606 19.1181C190.007 19.1089 188.719 17.7616 188.729 16.1089C188.738 14.4562 190.042 13.124 191.64 13.1332C193.239 13.1424 194.527 14.4896 194.518 16.1423C194.508 17.795 193.205 19.1273 191.606 19.1181Z" fill="white"/>
<path d="M176.512 19.031C174.914 19.0218 173.625 17.6746 173.635 16.0219C173.644 14.3692 174.948 13.0369 176.547 13.0461C178.146 13.0553 179.434 14.4026 179.424 16.0553C179.415 17.708 178.111 19.0403 176.512 19.031Z" fill="white"/>
<path d="M161.419 18.944C159.82 18.9348 158.532 17.5875 158.541 15.9348C158.551 14.2821 159.854 12.9498 161.453 12.9591C163.052 12.9683 164.34 14.3155 164.331 15.9682C164.321 17.6209 163.017 18.9532 161.419 18.944Z" fill="white"/>
<path d="M146.325 18.8569C144.726 18.8477 143.438 17.5004 143.448 15.8477C143.457 14.195 144.761 12.8628 146.36 12.872C147.958 12.8812 149.246 14.2284 149.237 15.8811C149.227 17.5338 147.924 18.8661 146.325 18.8569Z" fill="white"/>
<path d="M131.231 18.7698C129.633 18.7606 128.345 17.4133 128.354 15.7607C128.364 14.108 129.667 12.7757 131.266 12.7849C132.865 12.7941 134.153 14.1414 134.143 15.7941C134.134 17.4467 132.83 18.7791 131.231 18.7698Z" fill="white"/>
<path d="M116.138 18.6828C114.539 18.6735 113.251 17.3263 113.26 15.6736C113.27 14.0209 114.574 12.6886 116.172 12.6978C117.771 12.7071 119.059 14.0543 119.05 15.707C119.04 17.3597 117.736 18.692 116.138 18.6828Z" fill="white"/>
<path d="M101.063 18.5958C99.4642 18.5866 98.1759 17.2393 98.1855 15.5866C98.195 13.9339 99.4987 12.6017 101.097 12.6109C102.696 12.6201 103.984 13.9673 103.975 15.62C103.965 17.2727 102.662 18.605 101.063 18.5958Z" fill="white"/>
<path d="M85.9693 18.5087C84.3706 18.4995 83.0823 17.1522 83.0919 15.4995C83.1014 13.8469 84.4051 12.5146 86.0038 12.5238C87.6025 12.533 88.8908 13.8803 88.8812 15.5329C88.8717 17.1856 87.568 18.5179 85.9693 18.5087Z" fill="white"/>
<path d="M70.8757 18.4217C69.277 18.4124 67.9887 17.0652 67.9983 15.4125C68.0078 13.7598 69.3115 12.4275 70.9102 12.4367C72.5089 12.446 73.7972 13.7932 73.7876 15.4459C73.7781 17.0986 72.4744 18.4309 70.8757 18.4217Z" fill="white"/>
<path d="M55.7821 18.3346C54.1834 18.3254 52.8951 16.9781 52.9047 15.3254C52.9142 13.6727 54.2179 12.3404 55.8166 12.3497C57.4153 12.3589 58.7036 13.7061 58.694 15.3588C58.6845 17.0115 57.3808 18.3438 55.7821 18.3346Z" fill="white"/>
<path d="M40.6884 18.2475C39.0897 18.2383 37.8014 16.891 37.811 15.2383C37.8205 13.5856 39.1242 12.2534 40.7229 12.2626C42.3216 12.2718 43.6099 13.619 43.6003 15.2717C43.5908 16.9244 42.2871 18.2567 40.6884 18.2475Z" fill="white"/>
<path d="M25.5948 18.1604C23.9961 18.1512 22.7078 16.804 22.7174 15.1513C22.7269 13.4986 24.0306 12.1663 25.6293 12.1755C27.228 12.1847 28.5163 13.532 28.5067 15.1847C28.4972 16.8374 27.1935 18.1697 25.5948 18.1604Z" fill="white"/>
<path d="M10.5012 18.0734C8.9025 18.0642 7.61422 16.7169 7.62376 15.0642C7.63329 13.4115 8.93702 12.0792 10.5357 12.0884C12.1344 12.0977 13.4227 13.4449 13.4131 15.0976C13.4036 16.7503 12.0999 18.0826 10.5012 18.0734Z" fill="white"/>
<path d="M304.711 31.7603C303.112 31.751 301.824 30.4038 301.833 28.7511C301.843 27.0984 303.147 25.7661 304.745 25.7753C306.344 25.7846 307.632 27.1318 307.623 28.7845C307.613 30.4372 306.31 31.7695 304.711 31.7603Z" fill="white"/>
<path d="M289.636 31.6733C288.037 31.6641 286.749 30.3168 286.759 28.6641C286.768 27.0114 288.072 25.6791 289.671 25.6884C291.269 25.6976 292.558 27.0448 292.548 28.6975C292.538 30.3502 291.235 31.6825 289.636 31.6733Z" fill="white"/>
<path d="M274.542 31.5862C272.944 31.577 271.655 30.2297 271.665 28.577C271.675 26.9244 272.978 25.5921 274.577 25.6013C276.176 25.6105 277.464 26.9578 277.454 28.6104C277.445 30.2631 276.141 31.5954 274.542 31.5862Z" fill="white"/>
<path d="M259.449 31.4992C257.85 31.4899 256.562 30.1427 256.571 28.49C256.581 26.8373 257.885 25.505 259.483 25.5142C261.082 25.5235 262.37 26.8707 262.361 28.5234C262.351 30.1761 261.047 31.5084 259.449 31.4992Z" fill="white"/>
<path d="M244.355 31.4121C242.756 31.4029 241.468 30.0556 241.478 28.4029C241.487 26.7502 242.791 25.4179 244.39 25.4271C245.988 25.4364 247.277 26.7836 247.267 28.4363C247.258 30.089 245.954 31.4213 244.355 31.4121Z" fill="white"/>
<path d="M229.262 31.325C227.663 31.3158 226.375 29.9685 226.384 28.3158C226.394 26.6631 227.697 25.3309 229.296 25.3401C230.895 25.3493 232.183 26.6965 232.173 28.3492C232.164 30.0019 230.86 31.3342 229.262 31.325Z" fill="white"/>
<path d="M214.168 31.2379C212.569 31.2287 211.281 29.8815 211.29 28.2288C211.3 26.5761 212.604 25.2438 214.202 25.253C215.801 25.2622 217.089 26.6095 217.08 28.2622C217.07 29.9149 215.766 31.2472 214.168 31.2379Z" fill="white"/>
<path d="M199.074 31.1509C197.476 31.1417 196.187 29.7944 196.197 28.1417C196.206 26.489 197.51 25.1567 199.109 25.1659C200.707 25.1752 201.996 26.5224 201.986 28.1751C201.977 29.8278 200.673 31.1601 199.074 31.1509Z" fill="white"/>
<path d="M183.981 31.0638C182.382 31.0546 181.094 29.7073 181.103 28.0546C181.113 26.4019 182.416 25.0697 184.015 25.0789C185.614 25.0881 186.902 26.4353 186.893 28.088C186.883 29.7407 185.579 31.073 183.981 31.0638Z" fill="white"/>
<path d="M166.01 27.9675C166.005 28.7611 166.306 29.5241 166.845 30.0885C167.385 30.6528 168.119 30.9723 168.887 30.9767C169.656 30.9812 170.396 30.6708 170.946 30.1133C171.495 29.5558 171.808 28.7964 171.818 28.001C171.817 27.2055 171.513 26.4427 170.97 25.8789C170.427 25.3151 169.691 24.9962 168.921 24.9918C168.154 24.9873 167.416 25.2984 166.87 25.8564C166.324 26.4145 166.014 27.1738 166.01 27.9675Z" fill="white"/>
<path d="M153.812 30.8898C152.213 30.8805 150.925 29.5333 150.935 27.8806C150.944 26.2279 152.248 24.8956 153.847 24.9048C155.445 24.9141 156.734 26.2613 156.724 27.914C156.714 29.5667 155.411 30.899 153.812 30.8898Z" fill="white"/>
<path d="M138.718 30.8027C137.12 30.7935 135.832 29.4462 135.841 27.7935C135.851 26.1408 137.154 24.8086 138.753 24.8178C140.352 24.827 141.64 26.1742 141.63 27.8269C141.621 29.4796 140.317 30.8119 138.718 30.8027Z" fill="white"/>
<path d="M120.729 27.7062C120.724 28.4999 121.025 29.2629 121.564 29.8272C122.104 30.3915 122.838 30.711 123.606 30.7155C123.988 30.7202 124.367 30.6468 124.721 30.4996C125.075 30.3524 125.398 30.1343 125.67 29.8578C125.942 29.5812 126.159 29.2517 126.308 28.8882C126.457 28.5247 126.535 28.1344 126.537 27.7397C126.539 27.3451 126.466 26.954 126.321 26.5889C126.177 26.2237 125.964 25.8917 125.695 25.612C125.425 25.3323 125.105 25.1105 124.753 24.9592C124.4 24.8079 124.022 24.7301 123.641 24.7305C122.873 24.7261 122.135 25.0371 121.589 25.5952C121.043 26.1532 120.733 26.9126 120.729 27.7062Z" fill="white"/>
<path d="M108.531 30.6286C106.933 30.6193 105.644 29.2721 105.654 27.6194C105.663 25.9667 106.967 24.6344 108.566 24.6436C110.164 24.6528 111.453 26.0001 111.443 27.6528C111.434 29.3055 110.13 30.6378 108.531 30.6286Z" fill="white"/>
<path d="M93.4375 30.5415C91.8389 30.5323 90.5506 29.185 90.5601 27.5323C90.5697 25.8796 91.8734 24.5473 93.4721 24.5566C95.0708 24.5658 96.359 25.913 96.3495 27.5657C96.34 29.2184 95.0362 30.5507 93.4375 30.5415Z" fill="white"/>
<path d="M75.4478 27.4451C75.4481 28.2405 75.7529 29.0035 76.2955 29.5673C76.8381 30.1311 77.5746 30.45 78.344 30.4544C79.1117 30.4588 79.8498 30.1478 80.3959 29.5898C80.942 29.0317 81.2513 28.2722 81.2559 27.4786C81.2605 26.6849 80.9599 25.9221 80.4203 25.3577C79.8807 24.7934 79.1462 24.4739 78.3785 24.4695C77.6091 24.465 76.869 24.7754 76.32 25.3329C75.7709 25.8904 75.4573 26.6497 75.4478 27.4451Z" fill="white"/>
<path d="M63.2503 30.3673C61.6516 30.3581 60.3633 29.0108 60.3729 27.3582C60.3824 25.7055 61.6861 24.3732 63.2848 24.3824C64.8835 24.3916 66.1717 25.7389 66.1622 27.3916C66.1526 29.0442 64.849 30.3766 63.2503 30.3673Z" fill="white"/>
<path d="M48.1567 30.2803C46.558 30.271 45.2697 28.9238 45.2793 27.2711C45.2888 25.6184 46.5925 24.2861 48.1912 24.2953C49.7899 24.3046 51.0781 25.6518 51.0686 27.3045C51.059 28.9572 49.7554 30.2895 48.1567 30.2803Z" fill="white"/>
<path d="M30.1856 27.184C30.181 27.9776 30.4816 28.7406 31.0212 29.3049C31.5609 29.8693 32.2953 30.1888 33.063 30.1932C33.8325 30.1977 34.5725 29.8873 35.1216 29.3298C35.6706 28.7723 35.9842 28.0129 35.9938 27.2175C35.9934 26.422 35.6886 25.6592 35.146 25.0954C34.6034 24.5316 33.867 24.2127 33.0976 24.2082C32.3299 24.2038 31.5917 24.5148 31.0456 25.0729C30.4996 25.631 30.1902 26.3903 30.1856 27.184Z" fill="white"/>
<path d="M17.9882 30.1062C16.3896 30.097 15.1013 28.7497 15.1109 27.0971C15.1204 25.4444 16.4241 24.1121 18.0228 24.1213C19.6214 24.1305 20.9097 25.4778 20.9002 27.1304C20.8907 28.7831 19.5869 30.1154 17.9882 30.1062Z" fill="white"/>
<path d="M2.89452 30.0192C1.29584 30.0099 0.00762022 28.6627 0.0171541 27.01C0.0266881 25.3573 1.33036 24.025 2.92905 24.0342C4.52773 24.0435 5.816 25.3907 5.80647 27.0434C5.79693 28.6961 4.4932 30.0284 2.89452 30.0192Z" fill="white"/>
</g>
</svg>
