<svg width="1440" height="258" viewBox="0 0 1440 258" fill="none" xmlns="http://www.w3.org/2000/svg">
<path fill-rule="evenodd" clip-rule="evenodd" d="M1534.47 216.689C1502.52 250.176 1588.75 293.937 1488.65 326.679C1385.88 360.295 1170.86 355.558 1031.89 381.077C926.397 400.447 846.32 426.094 741.388 445.723C595.475 473.018 449.657 509.788 297.067 518.537C140.492 527.514 -2.3483 516.718 -67.183 492.081C-131.028 467.819 -97.9321 427.286 -41.7902 389.769C5.75581 357.996 183.491 330.694 221.401 299.234C275.931 253.981 56.1808 218.967 212.691 178.586C362.732 139.874 535.857 179.096 711.42 172.804C819.062 168.947 928.204 159.58 1041.16 148.898C1257.07 128.478 1535.36 61.653 1678.59 81.3351C1808.76 99.2232 1578 171.072 1534.47 216.689Z" fill="url(#paint0_linear_751_16190)"/>
<path fill-rule="evenodd" clip-rule="evenodd" d="M786.063 108.661C953.712 84.5658 1020.47 47.9345 1204.21 30.1514C1351.78 15.8687 1470.4 21.235 1520.87 32.9894C1569.84 44.3956 1487.68 73.3175 1468.66 91.7459C1452.43 107.47 1457.6 121.365 1409.29 138.953C1357.51 157.805 1304.75 179.901 1181.43 196.318C1055.3 213.111 919.846 215.526 796.338 220.558C706.572 224.215 660.721 214.974 565.049 221.431C399.273 232.619 209.586 267.648 67.6338 269.738C-55.5995 271.552 -84.0946 250.741 -40.8185 230.351C3.13596 209.642 168.953 187.662 287.169 166.303C364.859 152.267 438.742 137.469 534.5 126.405C619.148 116.625 707.215 119.993 786.063 108.661Z" fill="url(#paint1_linear_751_16190)"/>
<defs>
<linearGradient id="paint0_linear_751_16190" x1="93.4062" y1="522.467" x2="72.3939" y2="137.643" gradientUnits="userSpaceOnUse">
<stop stop-color="#10566D"/>
<stop offset="1" stop-color="#0099A3"/>
</linearGradient>
<linearGradient id="paint1_linear_751_16190" x1="1454.88" y1="155.88" x2="1205.9" y2="-379.794" gradientUnits="userSpaceOnUse">
<stop stop-color="#10566D"/>
<stop offset="1" stop-color="#0099A3"/>
</linearGradient>
</defs>
</svg>
