<svg width="32" height="32" viewBox="0 0 32 32" fill="none" xmlns="http://www.w3.org/2000/svg">
<g clip-path="url(#clip0_1308_5163)">
<path d="M15.8544 12.5107L13.7245 14.6407C13.6402 14.725 13.5928 14.8393 13.5929 14.9586C13.5929 15.0778 13.6402 15.1922 13.7246 15.2765C13.8089 15.3608 13.9232 15.4081 14.0425 15.4081C14.1617 15.4081 14.2761 15.3608 14.3604 15.2764L16.4903 13.1465C16.8554 12.7814 17.3408 12.5803 17.8572 12.5803H22.2228C22.7391 12.5803 23.2246 12.7814 23.5897 13.1465L25.0362 14.5931C25.1206 14.6774 25.2349 14.7247 25.3542 14.7247H31.5504C31.7987 14.7247 31.9999 14.5235 31.9999 14.2751C31.9999 14.0268 31.7987 13.8256 31.5504 13.8256H25.5403L24.2254 12.5107C23.6905 11.9758 22.9793 11.6812 22.2228 11.6812H17.8572C17.1007 11.6812 16.3894 11.9758 15.8544 12.5107ZM12.9978 16.639C13.0821 16.5547 13.1295 16.4403 13.1295 16.3211C13.1295 16.2019 13.0821 16.0875 12.9978 16.0032C12.9135 15.9189 12.7991 15.8715 12.6799 15.8715C12.5607 15.8715 12.4463 15.9189 12.362 16.0032L11.7513 16.6139C10.9075 17.4578 10.9075 18.831 11.7514 19.6749C12.1733 20.0969 12.7276 20.3078 13.2819 20.3078C13.8361 20.3078 14.3903 20.0969 14.8123 19.6749L16.3041 18.1831C16.8807 18.6235 17.582 18.8618 18.32 18.8618H19.4108C20.3005 18.8618 21.1368 18.5154 21.7657 17.8864L22.1791 17.473L24.0249 19.3188C24.0666 19.3606 24.1161 19.3938 24.1707 19.4164C24.2253 19.4389 24.2837 19.4505 24.3428 19.4505C24.4317 19.4505 24.5186 19.4241 24.5926 19.3747C24.6665 19.3253 24.7241 19.2551 24.7581 19.173C24.7922 19.0908 24.8011 19.0004 24.7837 18.9132C24.7664 18.826 24.7236 18.7459 24.6607 18.683L22.815 16.8372L23.375 16.2772C23.4593 16.1929 23.5067 16.0785 23.5067 15.9593C23.5067 15.8401 23.4593 15.7257 23.375 15.6414C23.2907 15.5571 23.1763 15.5097 23.0571 15.5097C22.9379 15.5097 22.8235 15.5571 22.7392 15.6414L21.8616 16.5191L21.8613 16.5194C21.8612 16.5195 21.8611 16.5196 21.861 16.5197L21.13 17.2508C20.6709 17.7099 20.0603 17.9628 19.4108 17.9628H18.32C17.6706 17.9628 17.06 17.7099 16.6009 17.2507C16.5166 17.1664 16.4022 17.1191 16.283 17.1191C16.1638 17.1191 16.0494 17.1664 15.9651 17.2507L14.1766 19.0392C13.6833 19.5326 12.8804 19.5325 12.3872 19.0393C11.8939 18.5459 11.8939 17.7431 12.3872 17.2498L12.9978 16.639Z" fill="#0099A3"/>
<path d="M31.5503 22.4775H27.4847C27.4902 22.4184 27.4932 22.3587 27.4932 22.2986C27.4932 21.7934 27.2965 21.3184 26.9393 20.9612L26.0155 20.0374C25.9312 19.9531 25.8169 19.9058 25.6977 19.9058C25.5784 19.9058 25.4641 19.9531 25.3798 20.0374C25.2955 20.1217 25.2481 20.2361 25.2481 20.3553C25.2481 20.4746 25.2955 20.5889 25.3798 20.6732L26.3035 21.597C26.6904 21.9838 26.6904 22.6132 26.3036 23.0001C25.9167 23.387 25.2872 23.387 24.9004 23.0001L22.3672 20.4669C22.2829 20.3826 22.1686 20.3352 22.0493 20.3352C21.9301 20.3352 21.8157 20.3826 21.7314 20.4669C21.6471 20.5512 21.5998 20.6656 21.5998 20.7848C21.5998 20.904 21.6471 21.0184 21.7314 21.1027L24.6273 23.9987C25.0142 24.3855 25.0142 25.0149 24.6273 25.4018C24.2405 25.7888 23.6109 25.7887 23.2242 25.4018L19.5393 21.717C19.455 21.6326 19.3407 21.5853 19.2215 21.5853C19.1022 21.5853 18.9879 21.6326 18.9036 21.717C18.8192 21.8013 18.7719 21.9156 18.7719 22.0349C18.7719 22.1541 18.8192 22.2684 18.9036 22.3527L21.6256 25.0748C22.0113 25.4618 22.011 26.0903 21.6246 26.4768C21.2378 26.8637 20.6083 26.8637 20.2214 26.4768L17.5152 23.7705C17.4734 23.7288 17.4238 23.6957 17.3693 23.6731C17.3148 23.6505 17.2563 23.6388 17.1973 23.6388C17.1382 23.6388 17.0798 23.6505 17.0252 23.6731C16.9707 23.6957 16.9211 23.7288 16.8794 23.7705C16.8376 23.8123 16.8045 23.8618 16.7819 23.9164C16.7593 23.9709 16.7477 24.0294 16.7477 24.0884C16.7477 24.1475 16.7593 24.2059 16.7819 24.2605C16.8045 24.315 16.8376 24.3646 16.8794 24.4063L19.1938 26.7208C19.2863 26.8127 19.3596 26.922 19.4095 27.0424C19.4594 27.1629 19.4849 27.292 19.4845 27.4223C19.4845 27.6874 19.3813 27.9366 19.1938 28.124C19.1019 28.2164 18.9926 28.2897 18.8722 28.3396C18.7518 28.3894 18.6226 28.4149 18.4923 28.4146C18.362 28.4149 18.2328 28.3894 18.1124 28.3395C17.992 28.2897 17.8827 28.2164 17.7908 28.1239L17.0687 27.4018C17.0803 27.3165 17.0866 27.2298 17.0866 27.1422C17.0866 26.637 16.8899 26.162 16.5327 25.8048C16.1755 25.4476 15.7005 25.2509 15.1953 25.2509C15.1434 25.2509 15.0921 25.2534 15.041 25.2576C15.0451 25.2065 15.0477 25.1551 15.0477 25.1032C15.0477 24.598 14.851 24.123 14.4938 23.7659C14.1366 23.4087 13.6616 23.2119 13.1564 23.2119C13.1043 23.2119 13.0525 23.2145 13.0011 23.2187C13.0445 22.6843 12.8627 22.1348 12.4548 21.7269C12.0976 21.3697 11.6226 21.173 11.1174 21.173C11.0655 21.173 11.0141 21.1756 10.9631 21.1797C10.9671 21.1286 10.9698 21.0772 10.9698 21.0254C10.9698 20.5201 10.7731 20.0452 10.4159 19.6879C9.67848 18.9505 8.4786 18.9505 7.74109 19.6879L6.29221 21.1369C5.71067 21.7184 5.58821 22.5874 5.92393 23.2906H1.78289C1.53456 23.2906 1.33334 23.4918 1.33334 23.7401C1.33334 23.9885 1.53456 24.1897 1.78289 24.1897H6.83125C7.12863 24.328 7.45695 24.3863 7.78377 24.3588C7.77948 24.4102 7.77724 24.4617 7.77705 24.5132C7.77705 25.0184 7.97378 25.4934 8.33096 25.8506C8.69972 26.2193 9.18392 26.4036 9.66841 26.4036C9.7199 26.4036 9.77145 26.4011 9.82282 26.3969C9.81868 26.4483 9.81605 26.5 9.81605 26.5522C9.81605 27.0574 10.0128 27.5323 10.37 27.8896C10.7272 28.2467 11.2022 28.4435 11.7073 28.4435C11.7595 28.4435 11.8112 28.4409 11.8627 28.4367C11.8193 28.9711 12.0011 29.5206 12.4089 29.9285C12.7751 30.2947 13.2602 30.4783 13.7457 30.4782C14.2197 30.4782 14.6941 30.3031 15.0583 29.9519C15.1008 29.911 15.1348 29.862 15.1583 29.8079C15.1819 29.7538 15.1946 29.6955 15.1957 29.6365C15.1967 29.5775 15.1862 29.5188 15.1646 29.4639C15.143 29.409 15.1107 29.3588 15.0698 29.3163C15.0288 29.2738 14.9798 29.2398 14.9257 29.2163C14.8716 29.1927 14.8134 29.18 14.7543 29.1789C14.6953 29.1779 14.6367 29.1884 14.5817 29.21C14.5268 29.2316 14.4766 29.2638 14.4342 29.3048C14.0475 29.6777 13.4242 29.6723 13.0447 29.2928C12.6579 28.9059 12.6579 28.2765 13.0447 27.8896L14.4936 26.4407C14.8805 26.0538 15.51 26.0538 15.8968 26.4407C16.2836 26.8276 16.2836 27.457 15.8968 27.8439L15.7919 27.9488C15.7076 28.0331 15.6602 28.1474 15.6602 28.2667C15.6602 28.3859 15.7076 28.5003 15.7919 28.5846C15.8762 28.6689 15.9905 28.7163 16.1098 28.7163C16.229 28.7163 16.3433 28.6689 16.4277 28.5846L16.5326 28.4797C16.5896 28.4224 16.643 28.3615 16.6924 28.2975L17.1548 28.7598C17.512 29.117 17.987 29.3137 18.4922 29.3137C18.9974 29.3137 19.4724 29.117 19.8296 28.7598C20.1477 28.4416 20.3382 28.0299 20.3761 27.5866C20.5535 27.6398 20.7377 27.6668 20.9229 27.6666C21.4281 27.6666 21.9031 27.4699 22.2603 27.1127C22.513 26.861 22.6889 26.5426 22.7673 26.1947C23.0988 26.4518 23.5064 26.5911 23.9258 26.5907C24.4102 26.5907 24.8945 26.4064 25.2632 26.0376C25.7646 25.5363 25.9246 24.8213 25.7443 24.183C26.18 24.1504 26.6068 23.9684 26.9394 23.6359C27.0191 23.556 27.0916 23.4692 27.156 23.3765H31.5504C31.6697 23.3765 31.784 23.3291 31.8683 23.2448C31.9526 23.1605 31.9999 23.0462 31.9999 22.9269C31.9999 22.8077 31.9525 22.6934 31.8682 22.6091C31.7839 22.5248 31.6696 22.4775 31.5503 22.4775ZM6.92788 23.1761C6.54102 22.7892 6.54102 22.1597 6.92788 21.7729L8.37676 20.324C8.46881 20.2318 8.57818 20.1587 8.69857 20.1089C8.81897 20.0591 8.94801 20.0336 9.0783 20.0338C9.33239 20.0338 9.58653 20.1305 9.7799 20.324C10.1668 20.7109 10.1668 21.3403 9.7799 21.7271L8.33102 23.176C7.94417 23.5628 7.31473 23.563 6.92788 23.1761ZM8.96681 25.2149C8.87439 25.123 8.80112 25.0137 8.75124 24.8932C8.70136 24.7728 8.67586 24.6437 8.67622 24.5134C8.67622 24.2484 8.77944 23.9992 8.96687 23.8118L10.4158 22.3629C10.5078 22.2707 10.6172 22.1976 10.7376 22.1478C10.858 22.098 10.9871 22.0725 11.1174 22.0728C11.2476 22.0725 11.3767 22.098 11.4971 22.1478C11.6175 22.1976 11.7268 22.2707 11.8189 22.3629C12.2056 22.7497 12.2058 23.3789 11.8193 23.7657L11.8189 23.7661L10.37 25.2149C9.98316 25.6019 9.35367 25.6018 8.96681 25.2149ZM12.4089 27.254C12.317 27.3464 12.2076 27.4196 12.0872 27.4695C11.9668 27.5194 11.8377 27.5449 11.7073 27.5445C11.577 27.5449 11.4479 27.5194 11.3275 27.4695C11.207 27.4196 11.0977 27.3463 11.0058 27.2539C10.9134 27.162 10.8401 27.0527 10.7902 26.9322C10.7403 26.8118 10.7148 26.6827 10.7152 26.5524C10.7148 26.422 10.7403 26.2929 10.7902 26.1725C10.8401 26.052 10.9134 25.9427 11.0058 25.8508L12.4547 24.4019V24.4019C12.6421 24.2145 12.8912 24.1113 13.1562 24.1113C13.4213 24.1113 13.6704 24.2145 13.8578 24.4019C13.9502 24.4938 14.0235 24.6032 14.0734 24.7236C14.1233 24.844 14.1488 24.9731 14.1484 25.1035C14.1484 25.3685 14.0452 25.6176 13.8578 25.805L12.4089 27.254ZM1.82689 14.927H7.57433C7.68132 14.927 7.7848 14.8889 7.86618 14.8194L9.00889 13.8441C9.34616 13.5565 9.77487 13.3984 10.2181 13.3982H13.6585C13.9069 13.3982 14.1081 13.197 14.1081 12.9487C14.1081 12.7004 13.9069 12.4991 13.6585 12.4991H10.2181C9.56093 12.4994 8.92531 12.7337 8.42525 13.1602L7.40854 14.028H1.82689C1.57855 14.028 1.37733 14.2292 1.37733 14.4775C1.37733 14.7259 1.57861 14.927 1.82689 14.927ZM14.6993 7.94133L14.3012 9.183C14.2638 9.30008 14.261 9.42547 14.2931 9.5441C14.3252 9.66274 14.3909 9.76959 14.4822 9.85181C14.5738 9.93386 14.687 9.98775 14.8084 10.007C14.9299 10.0263 15.0542 10.0101 15.1667 9.96042L16.5757 9.33572C16.6082 9.32137 16.6433 9.31396 16.6788 9.31396C16.7143 9.31396 16.7494 9.32137 16.7819 9.33572L18.191 9.96042C18.3035 10.0102 18.4279 10.0264 18.5493 10.0071C18.6707 9.98783 18.7839 9.93391 18.8754 9.85181C18.9668 9.7696 19.0325 9.66275 19.0646 9.54411C19.0967 9.42547 19.0939 9.30008 19.0565 9.183L19.0565 9.18294L18.6584 7.94133L19.5357 6.86444C19.729 6.6272 19.7674 6.30813 19.6361 6.03169C19.5048 5.75536 19.2331 5.58363 18.9272 5.58363H18.0173L17.3458 4.50177C17.2017 4.2695 16.9524 4.13086 16.6789 4.13086C16.4055 4.13086 16.1562 4.2695 16.012 4.50177L15.3405 5.58369H14.4306C14.1246 5.58369 13.8529 5.75536 13.7216 6.03175C13.5903 6.30813 13.6287 6.62726 13.822 6.8645L14.6993 7.94133ZM15.4039 6.4828C15.6774 6.4828 15.9267 6.3441 16.0708 6.11183L16.6789 5.13228L17.287 6.11177C17.357 6.22556 17.4552 6.31944 17.572 6.38441C17.6888 6.44938 17.8203 6.48326 17.9539 6.4828H18.6871L17.9223 7.42147C17.8396 7.52268 17.7835 7.64304 17.7592 7.77152C17.735 7.9 17.7433 8.03251 17.7835 8.15693L18.0224 8.90211L17.1464 8.51376C16.9991 8.44863 16.8399 8.41499 16.6789 8.41499C16.5179 8.41499 16.3586 8.44863 16.2114 8.51376L15.3355 8.90211L15.5743 8.15693C15.6145 8.03249 15.6228 7.89997 15.5986 7.77149C15.5743 7.643 15.5182 7.52264 15.4355 7.42141L14.6708 6.4828H15.4039ZM16.6789 2.85616C16.9273 2.85616 17.1285 2.65494 17.1285 2.40661V1.78305C17.1285 1.53472 16.9273 1.3335 16.6789 1.3335C16.4306 1.3335 16.2294 1.53472 16.2294 1.78305V2.40655C16.2294 2.46559 16.241 2.52406 16.2636 2.5786C16.2862 2.63315 16.3193 2.68272 16.361 2.72447C16.4028 2.76622 16.4523 2.79934 16.5069 2.82194C16.5614 2.84453 16.6199 2.85616 16.6789 2.85616ZM12.8111 4.21975C12.8989 4.3075 13.014 4.35138 13.129 4.35138C13.244 4.35138 13.3591 4.3075 13.4469 4.21975C13.4887 4.178 13.5218 4.12844 13.5444 4.0739C13.567 4.01935 13.5786 3.96089 13.5786 3.90185C13.5786 3.84281 13.567 3.78435 13.5444 3.72981C13.5218 3.67526 13.4887 3.6257 13.4469 3.58396L13.0061 3.1431C12.9643 3.10135 12.9148 3.06824 12.8602 3.04564C12.8057 3.02305 12.7472 3.01142 12.6882 3.01142C12.6291 3.01142 12.5707 3.02305 12.5161 3.04564C12.4616 3.06824 12.412 3.10135 12.3703 3.1431C12.3285 3.18484 12.2954 3.2344 12.2728 3.28895C12.2502 3.34349 12.2386 3.40195 12.2386 3.46099C12.2386 3.52003 12.2502 3.57849 12.2728 3.63303C12.2954 3.68758 12.3285 3.73714 12.3703 3.77889L12.8111 4.21975ZM20.2288 4.35138C20.2878 4.35145 20.3463 4.33986 20.4009 4.31727C20.4554 4.29468 20.505 4.26154 20.5467 4.21975L20.9876 3.77889C21.0293 3.73714 21.0624 3.68758 21.085 3.63303C21.1076 3.57849 21.1192 3.52003 21.1192 3.46099C21.1192 3.40195 21.1076 3.34349 21.085 3.28895C21.0624 3.2344 21.0293 3.18484 20.9876 3.1431C20.9458 3.10135 20.8963 3.06824 20.8417 3.04564C20.7872 3.02305 20.7287 3.01142 20.6697 3.01142C20.6106 3.01142 20.5522 3.02305 20.4976 3.04564C20.4431 3.06824 20.3935 3.10135 20.3518 3.1431L19.9109 3.58396C19.8481 3.64683 19.8052 3.72693 19.7879 3.81413C19.7706 3.90133 19.7795 3.99171 19.8135 4.07386C19.8475 4.156 19.9051 4.2262 19.979 4.2756C20.053 4.325 20.1399 4.35137 20.2288 4.35138Z" fill="#0099A3"/>
</g>
<defs>
<clipPath id="clip0_1308_5163">
<rect width="32" height="32" fill="white"/>
</clipPath>
</defs>
</svg>
