<svg width="24" height="24" viewBox="0 0 24 24" fill="none" xmlns="http://www.w3.org/2000/svg">
<g clip-path="url(#clip0_1378_7226)">
<path d="M16.862 17.8007L15.6644 16.6031M16.596 15.6567L17.8059 16.8666M10.74 9.27734H11.1811C12.1589 9.27734 12.9517 10.0701 12.9517 11.048V13.5268C12.9517 13.8691 12.6742 14.1466 12.332 14.1466H7.37423C7.03197 14.1466 6.75452 13.8691 6.75452 13.5268V11.048C6.75452 10.0701 7.54727 9.27734 8.52514 9.27734H8.96624" stroke="#797C7F" stroke-miterlimit="10" stroke-linecap="round" stroke-linejoin="round"/>
<path d="M10.4636 9.48104L10.7357 11.6399C10.7463 11.7236 10.7354 11.8087 10.704 11.8871C10.6726 11.9655 10.6217 12.0346 10.5562 12.0879L10.0237 12.5212C9.9754 12.5604 9.91505 12.5819 9.8528 12.5819C9.79055 12.5819 9.7302 12.5604 9.68191 12.5212L9.1494 12.0879C9.08389 12.0346 9.03304 11.9655 9.00163 11.8871C8.97022 11.8087 8.95928 11.7236 8.96986 11.6399L9.2443 9.46289" stroke="#797C7F" stroke-miterlimit="10" stroke-linecap="round" stroke-linejoin="round"/>
<path d="M8.42964 7.19084H11.2626M8.36926 8.06097V7.04286C8.36926 6.22311 9.03378 5.55859 9.85353 5.55859C10.6733 5.55859 11.3378 6.22311 11.3378 7.04286V8.05539C11.3378 8.8767 10.672 9.54245 9.85074 9.54245C9.03254 9.54245 8.36926 8.87917 8.36926 8.06097Z" stroke="#797C7F" stroke-miterlimit="10" stroke-linecap="round" stroke-linejoin="round"/>
<path d="M3.35935 15.8706C1.89514 14.2912 1 12.1767 1 9.85311C1 4.96367 4.96367 1 9.85311 1C11.838 1 13.6703 1.65318 15.1468 2.75637M11.4663 18.5596C10.9107 18.6617 10.3467 18.7107 9.7818 18.706M18.7052 9.9887C18.649 13.7294 16.2729 16.9078 12.9517 18.1488" stroke="#797C7F" stroke-miterlimit="10" stroke-linecap="round" stroke-linejoin="round"/>
<path d="M5.30551 15.8452C3.4973 14.4695 2.32794 12.2954 2.32794 9.85327C2.32794 5.7039 5.70372 2.32812 9.85309 2.32812C11.5028 2.32812 13.0302 2.86175 14.2719 3.76543M17.3771 9.98359C17.3073 14.0731 13.9589 17.3784 9.85309 17.3784C9.82927 17.3784 9.8055 17.3783 9.78177 17.3781M22.1825 19.9075L22.788 20.513C23.0706 20.7957 23.0706 21.254 22.788 21.5367L21.5365 22.7881C21.2538 23.0708 20.7955 23.0708 20.5128 22.7881L19.9221 22.1974M17.3215 19.5968L16.7402 19.0155C16.4575 18.7328 16.4575 18.2745 16.7402 17.9918L17.9917 16.7404C18.2743 16.4577 18.7326 16.4577 19.0153 16.7404L19.5819 17.3069M19.3185 2.81155H20.479C20.977 2.81155 21.3808 3.21525 21.3808 3.71328V8.9923C21.3808 9.49029 20.9771 9.89404 20.479 9.89404H15.2C14.702 9.89404 14.2982 9.49034 14.2982 8.9923V3.71328C14.2982 3.2153 14.7019 2.81155 15.2 2.81155H17.7102M19.5086 22.1739L17.3266 19.9919C17.3047 19.9699 17.2873 19.9439 17.2754 19.9153C17.2635 19.8867 17.2574 19.856 17.2574 19.825C17.2574 19.794 17.2635 19.7633 17.2754 19.7347C17.2873 19.7061 17.3047 19.68 17.3266 19.6581L19.6579 17.3268C19.6799 17.3048 19.7059 17.2875 19.7345 17.2756C19.7631 17.2637 19.7938 17.2576 19.8248 17.2576C19.8558 17.2576 19.8865 17.2637 19.9151 17.2756C19.9437 17.2875 19.9698 17.3048 19.9917 17.3268L22.1737 19.5088C22.1956 19.5307 22.213 19.5567 22.2249 19.5853C22.2367 19.614 22.2428 19.6446 22.2428 19.6756C22.2428 19.7066 22.2367 19.7373 22.2249 19.7659C22.213 19.7946 22.1956 19.8206 22.1737 19.8425L19.8423 22.1739C19.8204 22.1958 19.7944 22.2132 19.7658 22.225C19.7371 22.2369 19.7064 22.243 19.6755 22.243C19.6445 22.243 19.6138 22.2369 19.5851 22.225C19.5565 22.2132 19.5305 22.1958 19.5086 22.1739ZM8.80399 23.0001H3.52493C3.02694 23.0001 2.62319 22.5964 2.62319 22.0984V16.8194C2.62319 16.3214 3.02689 15.9176 3.52493 15.9176H8.80399C9.30198 15.9176 9.70573 16.3214 9.70573 16.8194V22.0984C9.70573 22.5964 9.30198 23.0001 8.80399 23.0001Z" stroke="#797C7F" stroke-miterlimit="10" stroke-linecap="round" stroke-linejoin="round"/>
<path d="M16.287 6.29652L17.556 7.289L19.3917 5.26367M4.43799 18.1309H6.91885M4.43799 19.4588H8.31105M4.43799 20.7868H7.47952" stroke="#797C7F" stroke-miterlimit="10" stroke-linecap="round" stroke-linejoin="round"/>
</g>
<defs>
<clipPath id="clip0_1378_7226">
<rect width="24" height="24" fill="white"/>
</clipPath>
</defs>
</svg>
