<svg width="81" height="81" viewBox="0 0 81 81" fill="none" xmlns="http://www.w3.org/2000/svg">
<path d="M56.7068 59.837L52.7146 55.8449M55.8201 52.6904L59.8532 56.7234M36.2999 31.4258H37.7703C41.0298 31.4258 43.6723 34.0683 43.6723 37.3279V45.5908C43.6723 46.7316 42.7475 47.6565 41.6066 47.6565H25.0808C23.9399 47.6565 23.0151 46.7316 23.0151 45.5908V37.3279C23.0151 34.0683 25.6576 31.4258 28.9171 31.4258H30.3875" stroke="white" stroke-width="2" stroke-miterlimit="10" stroke-linecap="round" stroke-linejoin="round"/>
<path d="M35.3785 32.1074L36.2858 39.3035C36.321 39.5827 36.2846 39.8664 36.1799 40.1276C36.0752 40.3889 35.9057 40.6192 35.6873 40.7968L33.9123 42.2411C33.7513 42.3721 33.5502 42.4436 33.3427 42.4436C33.1352 42.4436 32.934 42.3721 32.773 42.2411L30.998 40.7968C30.7796 40.6192 30.6101 40.3889 30.5054 40.1276C30.4007 39.8664 30.3643 39.5827 30.3995 39.3035L31.3143 32.0469" stroke="white" stroke-width="2" stroke-miterlimit="10" stroke-linecap="round" stroke-linejoin="round"/>
<path d="M28.5989 24.4721H38.0422M28.3976 27.3725V23.9788C28.3976 21.2463 30.6127 19.0312 33.3452 19.0312C36.0777 19.0312 38.2928 21.2463 38.2928 23.9788V27.3539C38.2928 30.0916 36.0734 32.3108 33.3359 32.3108C30.6086 32.3108 28.3976 30.0999 28.3976 27.3725Z" stroke="white" stroke-width="2" stroke-miterlimit="10" stroke-linecap="round" stroke-linejoin="round"/>
<path d="M11.6978 53.4025C6.81711 48.1379 3.83331 41.0895 3.83331 33.3444C3.83331 17.0462 17.0455 3.83398 33.3437 3.83398C39.9599 3.83398 46.0675 6.01126 50.9892 9.68855M38.7211 62.366C36.8691 62.7064 34.9889 62.8698 33.106 62.8538M62.8506 33.7963C62.6634 46.2652 54.743 56.8598 43.6725 60.9966" stroke="white" stroke-width="2" stroke-miterlimit="10" stroke-linecap="round" stroke-linejoin="round"/>
<path d="M18.1851 53.3168C12.1578 48.7312 8.25989 41.484 8.25989 33.3436C8.25989 19.5124 19.5125 8.25977 33.3437 8.25977C38.8428 8.25977 43.9342 10.0385 48.0731 13.0508M58.4238 33.778C58.1911 47.4097 47.0299 58.4274 33.3437 58.4274C33.2643 58.4274 33.1851 58.4269 33.106 58.4262M74.4416 66.8578L76.46 68.8761C77.4022 69.8184 77.4022 71.346 76.46 72.2883L72.2884 76.4598C71.3461 77.4021 69.8185 77.4021 68.8762 76.4598L66.907 74.4906M58.2383 65.8219L56.3007 63.8843C55.3584 62.942 55.3584 61.4144 56.3007 60.4722L60.4723 56.3006C61.4146 55.3583 62.9422 55.3583 63.8844 56.3006L65.7729 58.1891M64.8952 9.87118H68.7635C70.4235 9.87118 71.7693 11.2169 71.7693 12.877V30.4737C71.7693 32.1337 70.4236 33.4795 68.7635 33.4795H51.1666C49.5067 33.4795 48.1609 32.1338 48.1609 30.4737V12.877C48.1609 11.217 49.5065 9.87118 51.1666 9.87118H59.5342M65.5287 74.4123L58.2553 67.1389C58.1823 67.0658 58.1243 66.9791 58.0848 66.8837C58.0452 66.7882 58.0249 66.686 58.0249 66.5827C58.0249 66.4794 58.0452 66.3771 58.0848 66.2816C58.1243 66.1862 58.1823 66.0995 58.2553 66.0265L66.0266 58.2552C66.0996 58.1821 66.1863 58.1242 66.2818 58.0846C66.3772 58.0451 66.4795 58.0248 66.5828 58.0248C66.6861 58.0248 66.7884 58.0451 66.8838 58.0846C66.9792 58.1242 67.0659 58.1821 67.139 58.2552L74.4124 65.5286C74.4855 65.6017 74.5434 65.6884 74.5829 65.7838C74.6225 65.8792 74.6428 65.9815 74.6428 66.0848C74.6428 66.1881 74.6225 66.2904 74.5829 66.3858C74.5434 66.4813 74.4855 66.568 74.4124 66.641L66.6411 74.4123C66.5681 74.4853 66.4814 74.5433 66.386 74.5828C66.2905 74.6224 66.1882 74.6427 66.0849 74.6427C65.9816 74.6427 65.8793 74.6224 65.7839 74.5828C65.6885 74.5433 65.6018 74.4853 65.5287 74.4123ZM29.8467 77.1665H12.2498C10.5899 77.1665 9.24406 75.8208 9.24406 74.1607V56.564C9.24406 54.904 10.5897 53.5582 12.2498 53.5582H29.8467C31.5067 53.5582 32.8525 54.9039 32.8525 56.564V74.1607C32.8525 75.8208 31.5067 77.1665 29.8467 77.1665Z" stroke="white" stroke-width="2" stroke-miterlimit="10" stroke-linecap="round" stroke-linejoin="round"/>
<path d="M54.7898 21.4877L59.0197 24.796L65.139 18.0449M15.2932 60.9356H23.5627M15.2932 65.3621H28.2033M15.2932 69.7887H25.4316" stroke="white" stroke-width="2" stroke-miterlimit="10" stroke-linecap="round" stroke-linejoin="round"/>
</svg>
