<svg width="32" height="32" viewBox="0 0 32 32" fill="none" xmlns="http://www.w3.org/2000/svg">
<g clip-path="url(#clip0_599_16995)">
<path d="M22.4466 8.21585C22.16 5.44534 19.9149 3.20027 17.1444 2.91367C13.4663 2.53153 10.5048 5.39757 10.5048 8.88459C10.5048 12.5149 13.0842 12.7538 13.1797 15.8109C12.8454 15.9542 12.6543 16.2885 12.6543 16.6229V19.2024C12.6543 19.4412 12.7498 19.68 12.9409 19.8711C13.132 20.0622 13.323 20.1577 13.5619 20.1577H14.0873C14.3261 21.3041 15.3293 22.1639 16.5234 22.1639C17.7176 22.1639 18.7207 21.3041 18.9596 20.1577H19.485C20.0105 20.1577 20.3926 19.7278 20.3926 19.2501V16.6707C20.3926 16.3363 20.2015 16.0019 19.8672 15.8586C19.9149 12.4194 22.9243 12.4671 22.4466 8.21585ZM13.6096 16.6707H19.3895V17.435H13.6096V16.6707ZM16.5234 21.1608C15.8547 21.1608 15.2815 20.7309 15.0904 20.1099H17.9565C17.7654 20.6831 17.1922 21.1608 16.5234 21.1608ZM13.6574 19.1546V18.3903H19.4373V19.1546H13.6574ZM18.864 15.6676H14.1351C13.9918 12.1805 11.4601 12.1805 11.4601 8.88459C11.4601 5.97078 13.944 3.53464 17.0489 3.86902C19.3895 4.10785 21.2524 5.97078 21.4913 8.31138C21.8734 12.0372 19.0073 12.085 18.864 15.6676Z" fill="#0099A3"/>
<path d="M18.1953 8.31153C19.0551 8.31153 19.7238 7.64278 19.7238 6.78297C19.7238 5.92316 19.0551 5.25441 18.1953 5.25441C17.3355 5.25441 16.6667 5.92316 16.6667 6.78297V7.02181L15.0426 7.83385C14.756 7.54725 14.3739 7.35618 13.944 7.35618C13.0842 7.35618 12.4154 8.02492 12.4154 8.88474C12.4154 9.74455 13.0842 10.4133 13.944 10.4133C14.3739 10.4133 14.756 10.2222 15.0426 9.98339L16.6667 10.7954V11.0343C16.6667 11.8941 17.3355 12.5628 18.1953 12.5628C19.0551 12.5628 19.7238 11.8941 19.7238 11.0343C19.7238 10.1745 19.0551 9.50571 18.1953 9.50571C17.7654 9.50571 17.3832 9.69678 17.0966 9.93562L15.4725 9.12357C15.5203 8.9325 15.5203 8.88474 15.4725 8.69367L17.0966 7.88162C17.3832 8.12046 17.7654 8.31153 18.1953 8.31153ZM18.1953 10.4133C18.5297 10.4133 18.7685 10.6521 18.7685 10.9865C18.7685 11.3209 18.5297 11.5597 18.1953 11.5597C17.8609 11.5597 17.6221 11.3209 17.6221 10.9865C17.6221 10.6521 17.8609 10.4133 18.1953 10.4133ZM13.944 9.45794C13.6096 9.45794 13.3708 9.21911 13.3708 8.88474C13.3708 8.55036 13.6096 8.31153 13.944 8.31153C14.2784 8.31153 14.5172 8.55036 14.5172 8.88474C14.5172 9.21911 14.2784 9.45794 13.944 9.45794ZM18.1953 6.20976C18.5297 6.20976 18.7685 6.4486 18.7685 6.78297C18.7685 7.11734 18.5297 7.35618 18.1953 7.35618C17.8609 7.35618 17.6221 7.11734 17.6221 6.78297C17.6221 6.4486 17.8609 6.20976 18.1953 6.20976ZM25.4559 11.5119C25.1693 11.5119 24.9783 11.703 24.9783 11.9896V14.5213C24.9783 14.7601 25.2171 14.999 25.4559 14.999H27.9876C28.2742 14.999 28.4653 14.8079 28.4653 14.5213C28.4653 14.2347 28.2742 14.0436 27.9876 14.0436H26.6023C27.4144 13.0405 27.8921 11.8463 28.0354 10.5088C28.1787 8.7892 27.6532 7.16511 26.5546 5.82762C26.3635 5.63655 26.0769 5.58879 25.8858 5.77986C25.6948 5.97092 25.647 6.25753 25.8381 6.4486C26.7934 7.54725 27.2233 8.98027 27.1278 10.4133C27.0322 11.4642 26.6501 12.4673 25.9814 13.2793V11.9896C25.9336 11.7508 25.6948 11.5119 25.4559 11.5119ZM5.15478 14.5213C5.15478 14.8079 5.34585 14.999 5.63245 14.999H8.16413C8.45073 14.999 8.6418 14.7601 8.6418 14.5213V11.9896C8.6418 11.703 8.45073 11.5119 8.16413 11.5119C7.87752 11.5119 7.68645 11.703 7.68645 11.9896V13.3271C6.1579 11.3209 6.1579 8.45483 7.82976 6.4486C8.02083 6.25753 7.97306 5.92316 7.78199 5.77986C7.59092 5.58879 7.25655 5.63655 7.11324 5.82762C5.10701 8.21599 5.15478 11.6552 7.06548 13.9958H5.68022C5.39362 14.0436 5.15478 14.2825 5.15478 14.5213ZM29.8028 25.1257C29.5639 25.0779 29.3729 24.9823 29.2295 24.8868C28.4653 24.4569 28.3697 23.5971 28.322 23.406C28.9907 22.5462 29.4206 21.3998 29.4206 20.3967C29.4206 18.486 27.8921 16.9574 25.9814 16.9574C24.0707 16.9574 22.5421 18.486 22.5421 20.3967C22.5421 21.4476 22.972 22.5462 23.6408 23.406C23.6408 23.6449 23.4975 24.4569 22.7332 24.8868C22.5421 24.9823 22.351 25.0301 22.1122 25.1257C21.4435 25.3167 20.4881 25.6033 20.4403 27.4185V29.6636C20.4403 30.2368 20.8703 30.6667 21.4435 30.6667H23.1153C23.4019 30.6667 23.593 30.4756 23.593 30.189C23.593 29.9024 23.4019 29.7113 23.1153 29.7113H21.4435C21.4435 29.7113 21.3957 29.7113 21.3957 29.6636V27.3707C21.4435 26.2721 21.7301 26.1765 22.351 25.9855C22.5421 25.9377 22.7332 25.8899 22.9243 25.7944L25.5992 28.4694C25.6948 28.5649 25.8381 28.6127 25.9336 28.6127C26.0291 28.6127 26.1724 28.5649 26.268 28.4694L28.9429 25.7944C29.134 25.8899 29.3251 25.9377 29.5162 25.9855C30.1371 26.1765 30.4715 26.2721 30.4715 27.3707V29.6636C30.4715 29.6636 30.4715 29.7113 30.4237 29.7113H25.6948C25.4082 29.7113 25.2171 29.9024 25.2171 30.189C25.2171 30.4756 25.4082 30.6667 25.6948 30.6667H30.4237C30.9969 30.6667 31.4268 30.2368 31.4268 29.6636V27.3707C31.4268 25.5556 30.4715 25.3167 29.8028 25.1257ZM25.9814 17.865C27.3666 17.865 28.4653 18.9637 28.4653 20.3489C28.4653 21.8297 27.2711 23.7404 25.9814 23.7404C24.6916 23.7404 23.4975 21.8297 23.4975 20.3489C23.4497 19.0114 24.5961 17.865 25.9814 17.865ZM25.9814 27.4663L23.7841 25.269C24.1184 24.9346 24.3095 24.5047 24.4528 24.1703C24.9305 24.5047 25.4559 24.6957 26.0291 24.6957C26.6023 24.6957 27.1278 24.5047 27.6055 24.1703C27.701 24.5047 27.8921 24.9346 28.2742 25.269L25.9814 27.4663ZM5.58469 30.189C5.58469 30.4756 5.77576 30.6667 6.06236 30.6667H10.4092C10.9346 30.6667 11.3645 30.2368 11.3645 29.7113V27.6096C11.3168 25.9377 10.457 25.6989 9.83599 25.5078C9.64492 25.46 9.45385 25.4123 9.31054 25.3167C8.73734 24.9823 8.54627 24.3614 8.54627 24.0748C8.73734 23.7882 8.83287 23.406 8.88064 23.0239C8.92841 23.0239 10.1226 23.0717 10.1704 23.0717C10.457 23.0717 10.648 22.8806 10.648 22.594V20.731C10.648 18.3427 8.73734 16.432 6.34897 16.432C3.9606 16.432 2.0499 18.3427 2.0499 20.731V22.6895C2.0499 22.9761 2.24097 23.1672 2.52757 23.1672H3.81729C3.86506 23.4538 3.9606 23.7404 4.15167 24.0748C4.1039 24.3614 3.9606 24.9346 3.38739 25.3167C3.24409 25.4123 3.05302 25.46 2.86195 25.5078C2.24097 25.6989 1.33339 25.9377 1.33339 27.6096V29.7113C1.33339 30.2368 1.7633 30.6667 2.28874 30.6667H3.81729C4.1039 30.6667 4.29497 30.4756 4.29497 30.189C4.29497 29.9024 4.1039 29.7113 3.81729 29.7113H2.28874V27.6573C2.3365 26.6542 2.57534 26.6064 3.14855 26.4631C3.29185 26.4154 3.48292 26.3676 3.67399 26.2721L6.11013 28.6604C6.20566 28.756 6.34897 28.8037 6.4445 28.8037C6.54004 28.8037 6.68334 28.756 6.77887 28.6604L9.16724 26.2721C9.35831 26.3676 9.50161 26.4154 9.69268 26.4631C10.2659 26.6064 10.5047 26.702 10.5525 27.6573V29.7113H6.20566C5.77576 29.7113 5.58469 29.9502 5.58469 30.189ZM7.01771 24.2181C6.54004 24.4569 6.01459 24.4569 5.53692 24.2181C4.2472 23.5493 4.77264 21.9252 4.67711 20.7788C5.72799 21.1132 6.82664 21.1132 7.87752 20.7788C7.82975 22.2596 8.16413 23.5971 7.01771 24.2181ZM2.90971 20.7788C2.90971 18.9159 4.3905 17.4351 6.25343 17.4351C8.11636 17.4351 9.59715 18.9159 9.59715 20.7788V22.1163H8.83287V20.1101C8.83287 19.9668 8.73734 19.8235 8.6418 19.7279C8.4985 19.6324 8.3552 19.6324 8.21189 19.6802C6.92217 20.2056 5.68022 20.2056 4.43827 19.6802C4.19943 19.5846 4.05613 19.6324 3.91283 19.7279C3.76953 19.8235 3.72176 19.9668 3.72176 20.1101V22.2596H2.90971V20.7788ZM6.25343 27.6573L4.29497 25.6989C4.53381 25.46 4.67711 25.1734 4.82041 24.8868C5.68022 25.46 6.82664 25.5078 7.68645 24.8868C7.78199 25.1734 7.97306 25.4123 8.21189 25.6989L6.25343 27.6573ZM17.2877 1.28972V0.477674C17.2877 0.19107 17.0966 0 16.81 0C16.5234 0 16.3324 0.19107 16.3324 0.477674V1.28972C16.3324 1.57632 16.5234 1.76739 16.81 1.76739C17.0966 1.76739 17.2877 1.52856 17.2877 1.28972ZM12.2721 3.29595C12.4632 3.10488 12.4632 2.81828 12.2721 2.62721L11.6989 2.054C11.5078 1.86293 11.2212 1.86293 11.0302 2.054C10.8391 2.24507 10.8391 2.53167 11.0302 2.72274L11.6034 3.29595C11.7944 3.48702 12.0811 3.48702 12.2721 3.29595ZM22.5899 2.054C22.3988 1.86293 22.1122 1.86293 21.9211 2.054L21.3479 2.62721C21.1569 2.81828 21.1569 3.10488 21.3479 3.29595C21.539 3.48702 21.8256 3.48702 22.0167 3.29595L22.5899 2.72274C22.781 2.57944 22.781 2.24507 22.5899 2.054Z" fill="#0099A3"/>
</g>
<defs>
<clipPath id="clip0_599_16995">
<rect width="32" height="32" fill="white"/>
</clipPath>
</defs>
</svg>
