<svg width="40" height="41" viewBox="0 0 40 41" fill="none" xmlns="http://www.w3.org/2000/svg">
<g clip-path="url(#clip0_2104_15946)">
<path d="M19.1673 2.1665C29.7362 2.1665 38.334 10.7643 38.334 21.3332C38.334 31.902 29.7362 40.4998 19.1673 40.4998C8.59847 40.4998 0.000652313 31.902 0.000652313 21.3332C0.000652313 10.7643 8.59847 2.1665 19.1673 2.1665ZM13.2464 22.4624L21.2325 30.4485C21.3807 30.597 21.5567 30.7148 21.7505 30.7951C21.9443 30.8755 22.152 30.9167 22.3618 30.9165C22.5716 30.9167 22.7793 30.8754 22.9731 30.7951C23.1669 30.7148 23.3429 30.597 23.491 30.4485C24.1155 29.824 24.1155 28.8145 23.491 28.19L16.6341 21.3332L23.491 14.4763C24.1155 13.8518 24.1155 12.8423 23.491 12.2178C22.8665 11.5934 21.857 11.5934 21.2325 12.2178L13.2464 20.204C12.6219 20.8285 12.6219 21.8379 13.2464 22.4624Z" fill="#FF7A00"/>
</g>
<defs>
<clipPath id="clip0_2104_15946">
<rect width="40" height="40" fill="white" transform="translate(0 0.5)"/>
</clipPath>
</defs>
</svg>
