<svg width="24" height="24" viewBox="0 0 24 24" fill="none" xmlns="http://www.w3.org/2000/svg">
<path d="M16.3142 4.93167C16.3142 3.27848 15.3522 1.75094 13.8639 1.03979C13.8041 1.01106 13.738 0.997997 13.6718 1.00184C13.6056 1.00569 13.5414 1.02632 13.4853 1.06178C13.4291 1.09707 13.3828 1.14607 13.3507 1.20418C13.3186 1.2623 13.3019 1.32761 13.302 1.39399V4.89947L11.9955 5.65538L10.6891 4.89947V1.39399C10.6977 1.11519 10.3753 0.910206 10.1267 1.03979C6.99194 2.51863 6.84587 7.0659 9.90369 8.70889L9.90565 14.6172C9.99322 17.3805 14.0072 17.3817 14.0897 14.6156L14.0893 14.3521C14.0892 14.3006 14.079 14.2495 14.0592 14.2019C14.0395 14.1543 14.0105 14.111 13.974 14.0746C13.9375 14.0381 13.8942 14.0093 13.8465 13.9896C13.7989 13.9699 13.7478 13.9598 13.6962 13.9598C13.6446 13.9599 13.5936 13.9701 13.546 13.9899C13.4983 14.0097 13.4551 14.0386 13.4187 14.0751C13.3822 14.1116 13.3534 14.1549 13.3337 14.2026C13.314 14.2503 13.3039 14.3013 13.3039 14.3529L13.3043 14.616C13.3048 14.7877 13.2712 14.9578 13.2056 15.1165C13.1399 15.2751 13.0435 15.4192 12.9218 15.5404C12.1333 16.3611 10.669 15.7595 10.691 14.6172L10.6891 8.46935C10.6891 8.31817 10.6027 8.18033 10.4656 8.11476C8.07378 7.03213 7.78124 3.58987 9.90369 2.08551V5.12605C9.90372 5.19487 9.92183 5.26248 9.95623 5.32209C9.99062 5.38171 10.0401 5.43124 10.0996 5.46572L11.7988 6.4486C11.9205 6.51929 12.0701 6.51929 12.1922 6.4486L13.8914 5.46572C13.951 5.43129 14.0005 5.38178 14.035 5.32216C14.0695 5.26254 14.0876 5.19491 14.0877 5.12605V2.08511C14.5333 2.41422 14.8957 2.84302 15.1459 3.33723C15.3962 3.83143 15.5273 4.37733 15.5289 4.93128C15.5289 6.30292 14.7612 7.52298 13.5254 8.11436C13.4584 8.1464 13.4019 8.19674 13.3624 8.25956C13.3228 8.32238 13.3019 8.39512 13.302 8.46935L13.3039 12.3891C13.3118 12.9023 14.081 12.9071 14.0893 12.3883L14.0873 8.7081C15.4676 7.94904 16.3142 6.524 16.3142 4.93167Z" fill="#797C7F"/>
<path d="M3.3561 22.9923H20.6341C20.9441 22.9926 21.251 22.9319 21.5375 22.8135C21.8239 22.6951 22.0842 22.5214 22.3034 22.3023C22.7165 21.9725 23.4677 20.3346 22.5979 20.2435H22.2049V9.64104C22.2049 8.77479 21.5004 8.07031 20.6341 8.07031H16.7152C16.1984 8.07738 16.2027 8.85097 16.7152 8.85568H20.6341C21.0673 8.85568 21.4195 9.20791 21.4195 9.64104V20.6362C21.4195 20.7403 21.4609 20.8402 21.5345 20.9138C21.6082 20.9875 21.708 21.0288 21.8122 21.0288H22.1558C21.9932 21.7082 21.3327 22.2187 20.6341 22.2069H3.3561C3.00797 22.2065 2.66982 22.0906 2.3946 21.8774C2.11939 21.6643 1.92266 21.3658 1.83524 21.0288H9.86913C10.0191 21.1466 10.2013 21.4474 10.4244 21.4215H13.5658C13.7818 21.4463 13.9809 21.1506 14.1211 21.0288H19.8488C20.3612 21.0202 20.3683 20.2529 19.8488 20.2435H13.9585C13.7426 20.2242 13.5435 20.5105 13.4033 20.6362H10.587L10.3093 20.3585C10.2357 20.2849 10.1358 20.2435 10.0317 20.2435H2.57073V13.5679C2.56916 13.0574 1.79086 13.0487 1.78537 13.5679V20.2435H1.39268C1.28854 20.2435 1.18866 20.2848 1.11501 20.3585C1.04137 20.4321 1 20.532 1 20.6362C1 21.9355 2.05671 22.9923 3.3561 22.9923ZM3.3561 8.07031C2.48984 8.07031 1.78537 8.77479 1.78537 9.64104V11.6045C1.78537 11.7086 1.82674 11.8085 1.90038 11.8821C1.97402 11.9558 2.0739 11.9971 2.17805 11.9971C2.28219 11.9971 2.38207 11.9558 2.45572 11.8821C2.52936 11.8085 2.57073 11.7086 2.57073 11.6045V9.64104C2.57073 9.20791 2.92297 8.85568 3.3561 8.85568H7.27507C7.37922 8.85568 7.4791 8.81431 7.55274 8.74066C7.62638 8.66702 7.66775 8.56714 7.66775 8.463C7.66775 8.35885 7.62638 8.25897 7.55274 8.18533C7.4791 8.11168 7.37922 8.07031 7.27507 8.07031H3.3561Z" fill="#797C7F"/>
</svg>
