<svg width="40" height="41" viewBox="0 0 40 41" fill="none" xmlns="http://www.w3.org/2000/svg">
<g clip-path="url(#clip0_2104_15950)">
<path d="M19.1667 2.1665C8.59782 2.1665 0 10.7643 0 21.3332C0 31.902 8.59782 40.4998 19.1667 40.4998C29.7355 40.4998 38.3333 31.902 38.3333 21.3332C38.3333 10.7643 29.7355 2.1665 19.1667 2.1665ZM25.0876 22.4624L17.1015 30.4485C16.9533 30.597 16.7773 30.7148 16.5835 30.7951C16.3897 30.8755 16.182 30.9167 15.9722 30.9165C15.7624 30.9167 15.5547 30.8754 15.3609 30.7951C15.1671 30.7148 14.9911 30.597 14.8429 30.4485C14.2184 29.824 14.2184 28.8145 14.8429 28.19L21.6999 21.3332L14.843 14.4763C14.2185 13.8518 14.2185 12.8423 14.843 12.2178C15.4675 11.5934 16.477 11.5934 17.1015 12.2178L25.0876 20.204C25.7121 20.8285 25.7121 21.8379 25.0876 22.4624Z" fill="#FF7A00"/>
</g>
<defs>
<clipPath id="clip0_2104_15950">
<rect width="40" height="40" fill="white" transform="translate(0 0.5)"/>
</clipPath>
</defs>
</svg>
