<svg width="24" height="24" viewBox="0 0 24 24" fill="none" xmlns="http://www.w3.org/2000/svg">
<path d="M8.88155 7.46364V7.80519C8.88155 8.43961 9.39751 8.95519 10.0315 8.95519H12.9694C13.6034 8.95519 14.1194 8.43961 14.1194 7.80519V7.46403C14.1191 6.98896 13.9896 6.52293 13.7448 6.11578C13.5001 5.70863 13.1492 5.37567 12.7298 5.15253C13.1465 4.80139 13.4171 4.28198 13.4171 3.69548C13.4171 2.63863 12.5573 1.77881 11.5005 1.77881C10.4436 1.77881 9.58382 2.63863 9.58382 3.69548C9.58382 4.28198 9.85445 4.80139 10.2711 5.15329C9.8518 5.37641 9.50099 5.7093 9.25623 6.11638C9.01147 6.52346 8.88196 6.98941 8.88155 7.46441V7.46364ZM10.3505 3.69548C10.3505 3.06106 10.8664 2.54548 11.5005 2.54548C12.1345 2.54548 12.6505 3.06106 12.6505 3.69548C12.6505 4.32989 12.1345 4.84547 11.5005 4.84547C10.8664 4.84547 10.3505 4.32951 10.3505 3.69548ZM11.5005 5.61214C11.9915 5.61275 12.4623 5.80809 12.8096 6.15533C13.1568 6.50257 13.3521 6.97334 13.3527 7.46441V7.80557C13.3527 7.90724 13.3124 8.00474 13.2405 8.07663C13.1686 8.14852 13.0711 8.18891 12.9694 8.18891H10.0315C9.92988 8.18891 9.83238 8.14852 9.76049 8.07663C9.6886 8.00474 9.64821 7.90724 9.64821 7.80557V7.46441C9.64872 6.97328 9.84402 6.5024 10.1913 6.15508C10.5385 5.80776 11.0094 5.61275 11.5005 5.61214ZM6.5965 17.4196C7.01318 17.0677 7.28381 16.5483 7.28381 15.9618C7.28381 14.9049 6.424 14.0451 5.36715 14.0451C4.3103 14.0451 3.45048 14.9049 3.45048 15.9618C3.45048 16.5483 3.72111 17.0677 4.1378 17.4196C3.71846 17.6427 3.36766 17.9756 3.1229 18.3827C2.87814 18.7897 2.74863 19.2557 2.74821 19.7307V20.0719C2.74821 20.7063 3.26418 21.2219 3.89821 21.2219H6.83608C7.47011 21.2219 7.98608 20.7063 7.98608 20.0719V19.7307C7.98574 19.2556 7.85626 18.7896 7.6115 18.3824C7.36673 17.9753 7.01589 17.6427 6.5965 17.4196ZM4.21715 15.9618C4.21715 15.3273 4.73311 14.8118 5.36715 14.8118C6.00118 14.8118 6.51715 15.3273 6.51715 15.9618C6.51715 16.5962 6.00118 17.1118 5.36715 17.1118C4.73311 17.1118 4.21715 16.5958 4.21715 15.9618ZM7.21941 20.0719C7.21941 20.1735 7.17903 20.271 7.10714 20.3429C7.03525 20.4148 6.93775 20.4552 6.83608 20.4552H3.89821C3.79655 20.4552 3.69905 20.4148 3.62716 20.3429C3.55527 20.271 3.51488 20.1735 3.51488 20.0719V19.7307C3.51488 18.7095 4.34595 17.8784 5.36715 17.8784C6.38835 17.8784 7.21941 18.7095 7.21941 19.7307V20.0719ZM15.0149 19.7303V20.0719C15.0149 20.7063 15.5308 21.2219 16.1649 21.2219H19.1027C19.7368 21.2219 20.2527 20.7063 20.2527 20.0719V19.7307C20.2524 19.2556 20.1229 18.7896 19.8782 18.3824C19.6334 17.9753 19.2826 17.6423 18.8632 17.4192C19.2798 17.0681 19.5505 16.5486 19.5505 15.9621C19.5505 14.9053 18.6907 14.0455 17.6338 14.0455C16.577 14.0455 15.7171 14.9053 15.7171 15.9621C15.7171 16.5486 15.9878 17.0681 16.4045 17.42C15.9851 17.6431 15.6343 17.976 15.3896 18.383C15.1448 18.7901 15.0153 19.2561 15.0149 19.7311V19.7303ZM16.4838 15.9621C16.4838 15.3277 16.9998 14.8121 17.6338 14.8121C18.2678 14.8121 18.7838 15.3277 18.7838 15.9621C18.7838 16.5966 18.2678 17.1121 17.6338 17.1121C16.9998 17.1121 16.4838 16.5962 16.4838 15.9621ZM17.6338 17.8788C18.1249 17.8794 18.5957 18.0748 18.9429 18.422C19.2901 18.7692 19.4855 19.24 19.4861 19.7311V20.0722C19.4861 20.1739 19.4457 20.2714 19.3738 20.3433C19.3019 20.4152 19.2044 20.4556 19.1027 20.4556H16.1649C16.0632 20.4556 15.9657 20.4152 15.8938 20.3433C15.8219 20.2714 15.7815 20.1739 15.7815 20.0722V19.7311C15.7821 19.2399 15.9774 18.7691 16.3246 18.4217C16.6718 18.0744 17.1427 17.8794 17.6338 17.8788Z" fill="#0099A3"/>
<path d="M17.6333 12.2667C17.2278 12.2667 16.8345 12.3157 16.4546 12.4012L14.822 9.57337C16.0651 8.58973 16.8667 7.07135 16.8667 5.36667C16.8667 2.40733 14.4593 0 11.5 0C8.54067 0 6.13333 2.40733 6.13333 5.36667C6.13333 5.46833 6.17372 5.56584 6.24561 5.63772C6.3175 5.70961 6.415 5.75 6.51667 5.75C6.61833 5.75 6.71584 5.70961 6.78772 5.63772C6.85961 5.56584 6.9 5.46833 6.9 5.36667C6.9 2.83015 8.96348 0.766667 11.5 0.766667C14.0365 0.766667 16.1 2.83015 16.1 5.36667C16.1 7.90318 14.0365 9.96667 11.5 9.96667C9.4714 9.96398 7.69925 8.66142 7.10087 6.716C7.08669 6.6672 7.06295 6.62171 7.03104 6.58217C6.99912 6.54263 6.95967 6.50983 6.91496 6.48568C6.87025 6.46153 6.82119 6.44651 6.77063 6.44149C6.72006 6.43646 6.66901 6.44155 6.62042 6.45644C6.57184 6.47133 6.5267 6.49573 6.48764 6.52822C6.44857 6.56071 6.41635 6.60064 6.39286 6.6457C6.36936 6.69075 6.35506 6.74003 6.35078 6.79066C6.3465 6.8413 6.35233 6.89227 6.36793 6.94063C6.68609 7.98478 7.31596 8.90665 8.17305 9.58257L6.54542 12.4012C6.1587 12.3128 5.76336 12.2677 5.36667 12.2667C2.40733 12.2667 0 14.674 0 17.6333C0 20.5927 2.40733 23 5.36667 23C7.92618 23 10.0694 21.1976 10.603 18.7964H12.397C12.931 21.1976 15.0742 23 17.6333 23C17.735 23 17.8325 22.9596 17.9044 22.8877C17.9763 22.8158 18.0167 22.7183 18.0167 22.6167C18.0167 22.515 17.9763 22.4175 17.9044 22.3456C17.8325 22.2737 17.735 22.2333 17.6333 22.2333C15.0968 22.2333 13.0333 20.1698 13.0333 17.6333C13.0333 15.0968 15.0968 13.0333 17.6333 13.0333C20.1698 13.0333 22.2333 15.0968 22.2333 17.6333C22.2333 19.6366 20.9534 21.3961 19.0486 22.0118C18.9995 22.0262 18.9537 22.0504 18.9141 22.0828C18.8744 22.1152 18.8417 22.1553 18.8178 22.2006C18.7939 22.2458 18.7793 22.2955 18.7749 22.3465C18.7705 22.3975 18.7763 22.4489 18.7921 22.4976C18.8079 22.5464 18.8333 22.5914 18.8667 22.6302C18.9002 22.6689 18.9411 22.7006 18.9871 22.7232C19.033 22.7459 19.083 22.7592 19.1341 22.7622C19.1852 22.7652 19.2365 22.758 19.2847 22.7409C20.3657 22.3936 21.3082 21.7117 21.9761 20.7935C22.6439 19.8754 23.0025 18.7687 23 17.6333C23 14.674 20.5927 12.2667 17.6333 12.2667ZM5.36667 22.2333C2.83015 22.2333 0.766667 20.1698 0.766667 17.6333C0.766667 15.0968 2.83015 13.0333 5.36667 13.0333C7.90318 13.0333 9.96667 15.0968 9.96667 17.6333C9.96667 20.1698 7.90318 22.2333 5.36667 22.2333ZM12.2667 17.6333C12.2667 17.7675 12.277 17.8982 12.2866 18.0297H10.7134C10.723 17.8982 10.7333 17.7671 10.7333 17.6333C10.7333 15.3556 9.30427 13.4094 7.29752 12.632L8.80938 10.0138C9.62736 10.4861 10.5555 10.7343 11.5 10.7333C12.479 10.7333 13.3948 10.4654 14.186 10.0054L15.7025 12.632C13.6957 13.409 12.2667 15.3556 12.2667 17.6333Z" fill="#0099A3"/>
</svg>
