<svg width="32" height="32" viewBox="0 0 32 32" fill="none" xmlns="http://www.w3.org/2000/svg">
<g clip-path="url(#clip0_2104_7297)">
<path d="M15.334 13.8133C17.0837 13.8133 18.502 12.395 18.502 10.6453C18.502 8.89566 17.0837 7.47729 15.334 7.47729C13.5844 7.47729 12.166 8.89566 12.166 10.6453C12.166 12.395 13.5844 13.8133 15.334 13.8133Z" stroke="white" stroke-miterlimit="10" stroke-linecap="round" stroke-linejoin="round"/>
<path d="M19.4389 6.8556C20.9639 6.8556 22.2001 5.61938 22.2001 4.09443C22.2001 2.56947 20.9639 1.33325 19.4389 1.33325C17.914 1.33325 16.6777 2.56947 16.6777 4.09443C16.6777 5.61938 17.914 6.8556 19.4389 6.8556Z" stroke="white" stroke-miterlimit="10" stroke-linecap="round" stroke-linejoin="round"/>
<path d="M11.2651 6.8556C12.79 6.8556 14.0263 5.61938 14.0263 4.09443C14.0263 2.56947 12.79 1.33325 11.2651 1.33325C9.74013 1.33325 8.50391 2.56947 8.50391 4.09443C8.50391 5.61938 9.74013 6.8556 11.2651 6.8556Z" stroke="white" stroke-miterlimit="10" stroke-linecap="round" stroke-linejoin="round"/>
<path d="M7.17121 12.8522C8.72414 12.8522 9.98304 11.5933 9.98304 10.0403C9.98304 8.48742 8.72414 7.22852 7.17121 7.22852C5.61828 7.22852 4.35938 8.48742 4.35938 10.0403C4.35938 11.5933 5.61828 12.8522 7.17121 12.8522Z" stroke="white" stroke-miterlimit="10" stroke-linecap="round" stroke-linejoin="round"/>
<path d="M23.4381 12.8522C21.4545 12.8788 19.8209 14.3074 19.4129 16.1763C19.8265 16.8893 20.0442 17.699 20.0436 18.5234V20.6505C20.0852 20.6567 20.1274 20.6609 20.1707 20.6609H26.8187C27.2921 20.6609 27.6757 20.2772 27.6757 19.804V17.0328C27.6757 14.7144 25.7633 12.821 23.4381 12.8522ZM10.6224 18.5852C10.6219 17.7426 10.8437 16.9148 11.2653 16.1852C10.867 14.2706 9.14874 12.825 7.1146 12.8522C4.81865 12.883 2.99023 14.7916 2.99023 17.0877V19.804C2.99023 20.2773 3.37391 20.661 3.84718 20.661H10.4953C10.5386 20.661 10.5808 20.6567 10.6224 20.6505V18.5852Z" stroke="white" stroke-miterlimit="10" stroke-linecap="round" stroke-linejoin="round"/>
<path d="M9.98347 10.0402C9.98347 11.5931 8.72459 12.852 7.17162 12.852C7.16773 12.852 7.1639 12.8518 7.15995 12.8517V12.8524C9.17435 12.8469 10.8703 14.2845 11.2656 16.1849L11.2649 16.1861C12.0696 14.7909 13.5532 13.836 15.2695 13.813C15.2903 13.8127 15.3111 13.813 15.3319 13.8129C13.5829 13.8122 12.1653 12.3942 12.1653 10.645C12.1653 9.41114 12.8711 8.3428 13.9006 7.81967C13.1729 7.20769 12.2325 6.8416 11.21 6.85536C10.286 6.86776 9.43943 7.19022 8.76167 7.72125C9.49947 8.22815 9.98347 9.07751 9.98347 10.0402ZM18.5014 10.645C18.5014 12.3942 17.0838 13.8123 15.3348 13.813C17.0722 13.8136 18.5977 14.7671 19.4137 16.1769L19.4132 16.1761C19.8213 14.3072 21.4548 12.8786 23.4384 12.852C23.474 12.8515 23.5093 12.8529 23.5447 12.8533V12.8507C23.5282 12.851 23.5117 12.852 23.4951 12.852C21.9421 12.852 20.6832 11.5931 20.6832 10.0401C20.6832 9.06652 21.1781 8.20871 21.9299 7.70397C21.224 7.16202 20.3396 6.84252 19.3834 6.85536C18.395 6.86862 17.4951 7.23626 16.7957 7.83491C17.8091 8.36347 18.5014 9.42311 18.5014 10.645ZM18.6061 28.5165C19.0105 28.1224 18.7874 27.4356 18.2284 27.3543L17.0047 27.1765C16.8953 27.1606 16.7915 27.1184 16.7022 27.0535C16.6128 26.9886 16.5405 26.9029 16.4917 26.8038L15.9443 25.6949C15.6944 25.1885 14.9723 25.1885 14.7224 25.6949L14.175 26.8038C14.1261 26.9029 14.0539 26.9886 13.9645 27.0535C13.8751 27.1184 13.7713 27.1606 13.662 27.1765L12.4381 27.3543C11.8793 27.4356 11.6562 28.1224 12.0605 28.5165L12.9461 29.3797C13.0252 29.4568 13.0844 29.552 13.1185 29.6571C13.1526 29.7622 13.1607 29.8739 13.142 29.9828L12.933 31.2017C12.8375 31.7583 13.4218 32.1828 13.9216 31.92L15.0162 31.3445C15.114 31.2931 15.2228 31.2663 15.3333 31.2663C15.4437 31.2663 15.5525 31.2931 15.6503 31.3445L16.7449 31.92C17.2448 32.1828 17.829 31.7583 17.7335 31.2017L17.5245 29.9828C17.5058 29.8739 17.5139 29.7621 17.548 29.6571C17.5821 29.552 17.6413 29.4568 17.7204 29.3797L18.6061 28.5165ZM25.2055 26.8031C25.5038 26.5123 25.3392 26.0056 24.9269 25.9457L24.0241 25.8145C23.9434 25.8028 23.8669 25.7716 23.8009 25.7237C23.735 25.6758 23.6817 25.6126 23.6456 25.5396L23.2419 24.7215C23.0575 24.3479 22.5248 24.3479 22.3404 24.7215L21.9367 25.5396C21.9006 25.6126 21.8473 25.6758 21.7814 25.7237C21.7154 25.7716 21.6388 25.8028 21.5582 25.8145L20.6554 25.9457C20.2432 26.0056 20.0785 26.5123 20.3768 26.8031L21.0301 27.4399C21.0884 27.4968 21.1321 27.567 21.1573 27.6445C21.1824 27.722 21.1884 27.8044 21.1746 27.8848L21.0204 28.7839C20.95 29.1946 21.381 29.5076 21.7497 29.3138L22.5572 28.8892C22.6293 28.8513 22.7096 28.8315 22.7911 28.8315C22.8726 28.8315 22.9528 28.8513 23.025 28.8892L23.8324 29.3138C24.2012 29.5076 24.6322 29.1945 24.5618 28.7839L24.4076 27.8848C24.3938 27.8044 24.3998 27.722 24.4249 27.6445C24.4501 27.567 24.4938 27.4967 24.5521 27.4399L25.2055 26.8031ZM30.5402 24.2933C30.7878 24.0519 30.6512 23.6312 30.3089 23.5814L29.5593 23.4725C29.4923 23.4628 29.4287 23.4369 29.374 23.3972C29.3193 23.3574 29.275 23.3049 29.245 23.2442L28.9098 22.565C28.7567 22.2548 28.3144 22.2548 28.1613 22.565L27.8261 23.2442C27.7962 23.3049 27.7519 23.3574 27.6972 23.3972C27.6424 23.4369 27.5788 23.4628 27.5118 23.4725L26.7623 23.5814C26.4199 23.6312 26.2833 24.0519 26.531 24.2933L27.0734 24.8221C27.1219 24.8693 27.1581 24.9276 27.179 24.992C27.2 25.0563 27.2049 25.1248 27.1934 25.1915L27.0654 25.9381C27.0069 26.279 27.3648 26.539 27.671 26.378L28.3415 26.0255C28.4013 25.9941 28.468 25.9776 28.5357 25.9776C28.6033 25.9776 28.67 25.9941 28.7299 26.0255L29.4004 26.378C29.7065 26.539 30.0644 26.279 30.0059 25.9381L29.8779 25.1915C29.8665 25.1248 29.8714 25.0563 29.8923 24.992C29.9132 24.9276 29.9495 24.8693 29.9979 24.8221L30.5402 24.2933ZM5.46118 26.8031C5.16284 26.5123 5.32746 26.0056 5.73977 25.9457L6.64256 25.8145C6.72321 25.8028 6.79979 25.7716 6.86571 25.7237C6.93164 25.6758 6.98493 25.6126 7.021 25.5396L7.42473 24.7215C7.6091 24.3479 8.14185 24.3479 8.32622 24.7215L8.72995 25.5396C8.76603 25.6126 8.81934 25.6758 8.88527 25.7237C8.95121 25.7716 9.0278 25.8028 9.10845 25.8145L10.0112 25.9457C10.4235 26.0056 10.5881 26.5123 10.2898 26.8031L9.63657 27.4399C9.57822 27.4968 9.53457 27.567 9.50939 27.6445C9.4842 27.722 9.47823 27.8044 9.492 27.8848L9.6462 28.7839C9.7166 29.1946 9.28566 29.5076 8.91686 29.3138L8.10939 28.8892C8.03727 28.8513 7.957 28.8315 7.87551 28.8315C7.79401 28.8315 7.71374 28.8513 7.64162 28.8892L6.83416 29.3138C6.46541 29.5076 6.03441 29.1945 6.10481 28.7839L6.25901 27.8848C6.27279 27.8044 6.26683 27.722 6.24164 27.6445C6.21645 27.567 6.1728 27.4967 6.11444 27.4399L5.46118 26.8031ZM0.126479 24.2933C-0.121202 24.0519 0.0154731 23.6312 0.357746 23.5814L1.10733 23.4725C1.17429 23.4628 1.23789 23.4369 1.29264 23.3972C1.34738 23.3574 1.39164 23.3049 1.42159 23.2442L1.75683 22.565C1.90991 22.2548 2.35227 22.2548 2.5053 22.565L2.84054 23.2442C2.87049 23.3049 2.91474 23.3574 2.96949 23.3972C3.02424 23.4369 3.08783 23.4628 3.1548 23.4725L3.90438 23.5814C4.24671 23.6312 4.38339 24.0519 4.13565 24.2933L3.5932 24.8221C3.54475 24.8693 3.5085 24.9276 3.4876 24.992C3.46669 25.0563 3.46174 25.1248 3.47319 25.1915L3.60123 25.9381C3.65972 26.279 3.30184 26.539 2.99566 26.378L2.32518 26.0255C2.26529 25.9941 2.19864 25.9776 2.13097 25.9776C2.0633 25.9776 1.99665 25.9941 1.93676 26.0255L1.26628 26.378C0.960102 26.539 0.602218 26.279 0.660714 25.9381L0.78875 25.1915C0.800186 25.1248 0.795237 25.0563 0.77433 24.992C0.753422 24.9276 0.717184 24.8693 0.668735 24.8221L0.126479 24.2933Z" stroke="white" stroke-miterlimit="10" stroke-linecap="round" stroke-linejoin="round"/>
<path d="M16.4135 22.6111H19.0787C19.612 22.6111 20.0443 22.1788 20.0443 21.6456V18.5235C20.0443 15.9114 17.8896 13.7782 15.2699 13.8133C12.6831 13.848 10.623 15.9983 10.623 18.5852V21.6455C10.623 22.1788 11.0553 22.6111 11.5886 22.6111H14.2538M26.1157 9.02065C25.7073 7.97199 24.6885 7.22852 23.4953 7.22852C21.9424 7.22852 20.6835 8.4874 20.6835 10.0404C20.6835 11.5933 21.9424 12.8522 23.4953 12.8522C24.6424 12.8522 25.6283 12.1651 26.0657 11.1803" stroke="white" stroke-miterlimit="10" stroke-linecap="round" stroke-linejoin="round"/>
</g>
<defs>
<clipPath id="clip0_2104_7297">
<rect width="32" height="32" fill="white"/>
</clipPath>
</defs>
</svg>
