<svg width="32" height="33" viewBox="0 0 32 33" fill="none" xmlns="http://www.w3.org/2000/svg">
<path d="M20.2332 12.3322C20.1983 12.3351 20.1635 12.3421 20.1295 12.3534L19.0768 12.7043C18.9672 12.7411 18.8475 12.7332 18.7436 12.6823C18.5023 12.5632 18.2535 12.4601 17.9987 12.3734C17.8895 12.336 17.7994 12.257 17.748 12.1535L17.2519 11.1614C17.2151 11.0879 17.1586 11.0261 17.0887 10.9829C17.0188 10.9396 16.9382 10.9167 16.856 10.9167H15.1467C15.0645 10.9167 14.984 10.9396 14.914 10.9829C14.8441 11.0261 14.7876 11.0879 14.7508 11.1614L14.2548 12.1535C14.2034 12.257 14.1133 12.336 14.004 12.3734C13.7492 12.46 13.5004 12.5632 13.2591 12.6823C13.1552 12.7332 13.0355 12.7411 12.9259 12.7043L11.8732 12.3534C11.7952 12.3274 11.7115 12.3237 11.6315 12.3426C11.5515 12.3615 11.4784 12.4022 11.4202 12.4604L10.2116 13.669C10.1535 13.7271 10.1127 13.8003 10.0938 13.8803C10.0749 13.9603 10.0787 14.044 10.1047 14.122L10.4555 15.1747C10.4924 15.2843 10.4845 15.404 10.4335 15.5079C10.3145 15.7492 10.2113 15.998 10.1247 16.2528C10.0872 16.362 10.0082 16.4521 9.90475 16.5035L8.91267 16.9996C8.83914 17.0364 8.7773 17.0929 8.73408 17.1628C8.69086 17.2327 8.66796 17.3133 8.66797 17.3955V19.1048C8.66796 19.187 8.69086 19.2676 8.73408 19.3375C8.7773 19.4074 8.83914 19.4639 8.91267 19.5007L9.90475 19.9967C10.0082 20.0481 10.0872 20.1382 10.1247 20.2475C10.2112 20.5023 10.3144 20.7511 10.4335 20.9924C10.4844 21.0963 10.4923 21.216 10.4555 21.3256L10.1047 22.3783C10.0787 22.4563 10.0749 22.54 10.0938 22.62C10.1127 22.7 10.1535 22.7731 10.2116 22.8313L11.4202 24.0399C11.4784 24.098 11.5515 24.1388 11.6315 24.1577C11.7115 24.1766 11.7952 24.1728 11.8732 24.1468L12.9259 23.796C13.0355 23.7591 13.1553 23.767 13.2591 23.818C13.5004 23.937 13.7492 24.0402 14.004 24.1268C14.1132 24.1643 14.2034 24.2433 14.2548 24.3468L14.7508 25.3388C14.7876 25.4124 14.8441 25.4742 14.914 25.5174C14.984 25.5606 15.0645 25.5835 15.1467 25.5835H16.856C16.9382 25.5835 17.0188 25.5606 17.0887 25.5174C17.1586 25.4742 17.2151 25.4124 17.2519 25.3388L17.748 24.3468C17.7994 24.2433 17.8895 24.1643 17.9987 24.1268C18.2535 24.0403 18.5024 23.9371 18.7436 23.818C18.8475 23.7671 18.9672 23.7592 19.0768 23.796L20.1295 24.1468C20.2075 24.1728 20.2912 24.1766 20.3712 24.1577C20.4512 24.1388 20.5244 24.098 20.5825 24.0399L21.7911 22.8313C21.8493 22.7731 21.8901 22.7 21.9089 22.62C21.9278 22.54 21.9241 22.4563 21.8981 22.3783L21.5472 21.3256C21.5104 21.216 21.5183 21.0962 21.5692 20.9924C21.6883 20.7511 21.7914 20.5023 21.8781 20.2475C21.9155 20.1383 21.9945 20.0481 22.098 19.9967L23.0901 19.5007C23.1636 19.4639 23.2254 19.4074 23.2686 19.3375C23.3119 19.2676 23.3348 19.187 23.3348 19.1048V17.3955C23.3348 17.3133 23.3119 17.2327 23.2686 17.1628C23.2254 17.0929 23.1636 17.0364 23.0901 16.9996L22.098 16.5035C21.9945 16.4521 21.9155 16.362 21.8781 16.2528C21.7915 15.998 21.6883 15.7491 21.5692 15.5079C21.5183 15.404 21.5104 15.2843 21.5472 15.1747L21.8981 14.122C21.9241 14.044 21.9278 13.9603 21.9089 13.8803C21.8901 13.8003 21.8493 13.7271 21.7911 13.669" stroke="white" stroke-miterlimit="10" stroke-linecap="round" stroke-linejoin="round"/>
<path d="M13.2513 16.4167L11.418 18.2501L13.2513 20.0834M18.7513 16.4167L20.5846 18.2501L18.7513 20.0834M16.9179 16.4167L15.0846 20.0834" stroke="white" stroke-miterlimit="10" stroke-linecap="round" stroke-linejoin="round"/>
<path d="M8.34955 28.3333H29.1918C30.0067 28.3333 30.6673 27.6727 30.6673 26.8578V8.16667M30.6673 8.16667H1.33398M30.6673 8.16667V5.97552C30.6673 5.16062 30.0067 4.5 29.1918 4.5H6.24174M1.33398 8.16667V26.8578C1.33398 27.6727 1.9946 28.3334 2.8095 28.3334H6.28382M1.33398 8.16667V5.97552C1.33398 5.16062 1.9946 4.5 2.8095 4.5H4.17601" stroke="white" stroke-miterlimit="10" stroke-linecap="round" stroke-linejoin="round"/>
</svg>
