<svg width="32" height="33" viewBox="0 0 32 33" fill="none" xmlns="http://www.w3.org/2000/svg">
<g clip-path="url(#clip0_2104_7278)">
<path d="M20.098 28.2749L14.4635 23.8543M18.7797 29.9552L13.1452 25.5347M16.1398 30.5987L11.8268 27.2151M8.03119 15.4581L6.17205 13.9364C5.91536 13.7263 5.53699 13.7641 5.32695 14.0207L0.135859 20.3627C-0.0742435 20.6194 -0.0364806 20.9977 0.220208 21.2078L2.07935 22.7295C2.33604 22.9396 2.71441 22.9019 2.92445 22.6452L8.11548 16.3032C8.32558 16.0466 8.28782 15.6682 8.03119 15.4581ZM22.8198 16.6316L22.6866 16.7361C21.5333 17.6409 19.8685 17.8429 18.7549 17.8641C17.8551 17.881 16.9655 18.059 16.1284 18.3896L15.3485 18.6977L12.5396 19.8074C12.0083 20.0173 11.7468 20.6125 11.9413 21.1426C12.123 21.6379 12.6556 21.9081 13.1676 21.8004C13.5288 21.7245 13.8917 21.6568 14.256 21.5975C14.7236 21.5215 15.2003 21.6643 15.5471 21.987C15.9618 22.3247 17.2685 23.3403 21.4163 26.5944C21.7299 26.8404 21.8678 27.2268 21.8123 27.5947C23.871 25.8272 24.3402 24.7596 26.5786 23.0035L27.4657 22.3075L22.8198 16.6316Z" stroke="white" stroke-miterlimit="10" stroke-linecap="round" stroke-linejoin="round"/>
<path d="M27.2407 16.3429L25.3399 14.0208C25.1298 13.7641 24.7514 13.7263 24.4947 13.9364L22.6356 15.4582C22.5745 15.5082 22.5239 15.5697 22.4867 15.6392C22.4494 15.7087 22.4262 15.7849 22.4183 15.8633C22.4105 15.9418 22.4182 16.0211 22.441 16.0966C22.4638 16.1721 22.5013 16.2424 22.5512 16.3034L27.7423 22.6453C27.9524 22.9019 28.3307 22.9398 28.5874 22.7297L30.4466 21.2079C30.5076 21.1579 30.5582 21.0964 30.5955 21.0269C30.6327 20.9574 30.6559 20.8812 30.6638 20.8028C30.6716 20.7243 30.6639 20.645 30.6411 20.5695C30.6183 20.494 30.5809 20.4237 30.5309 20.3627L28.6086 18.0141M17.2277 10.7592V8.49993C17.2277 8.37736 17.2763 8.25981 17.363 8.17314C17.4497 8.08646 17.5672 8.03777 17.6898 8.03777H19.2186C19.5632 8.03777 19.7626 7.64706 19.5603 7.36804L15.6752 2.00763C15.5067 1.77513 15.1603 1.77513 14.9918 2.00763L11.1067 7.36804C10.9045 7.64706 11.1038 8.03777 11.4485 8.03777H12.9772C13.0998 8.03777 13.2174 8.08646 13.304 8.17314C13.3907 8.25981 13.4394 8.37736 13.4394 8.49993V14.4733C13.4394 14.5505 13.4546 14.627 13.4842 14.6983C13.5137 14.7697 13.557 14.8345 13.6116 14.8891C13.6662 14.9437 13.7311 14.987 13.8024 15.0165C13.8738 15.0461 13.9502 15.0613 14.0274 15.0613H16.6397C16.9645 15.0613 17.2277 14.798 17.2277 14.4733V12.9189M21.417 26.5949L21.4165 26.5945C17.2687 23.3404 15.962 22.3248 15.5473 21.9871C15.2005 21.6644 14.7239 21.5216 14.2562 21.5976C13.8919 21.6569 13.529 21.7246 13.1678 21.8005C12.6558 21.9081 12.1232 21.6379 11.9415 21.1427C11.747 20.6126 12.0085 20.0174 12.5398 19.8075L15.3488 18.6977L14.5689 18.3897C13.7318 18.0591 12.8423 17.8811 11.9425 17.8642C10.8289 17.843 9.16393 17.641 8.01056 16.7361L7.85883 16.6171L3.21289 22.2931L4.11858 23.0036C5.12275 23.7915 6.04455 24.6775 6.89032 25.6335C7.71944 26.5706 8.63593 27.4264 9.62035 28.1987L14.8015 32.2634C15.2571 32.6209 15.923 32.571 16.2964 32.1284C16.6884 31.6637 16.6141 30.9709 16.1399 30.5988L17.4413 31.6199C17.897 31.9772 18.5629 31.9274 18.9363 31.4849C19.3284 31.0203 19.2541 30.3273 18.7799 29.9553L20.0891 30.9825C20.5633 31.3545 21.254 31.2617 21.6119 30.7704C21.9529 30.3024 21.8428 29.6437 21.3872 29.2863L20.0981 28.2749C20.7414 28.7796 21.6909 28.4016 21.8126 27.5948C21.8686 27.224 21.7248 26.8366 21.417 26.5949ZM27.2989 5.71998L24.5707 1.95573C24.4523 1.79247 24.2091 1.79247 24.0907 1.95573L21.3625 5.71998C21.2205 5.91596 21.3605 6.19029 21.6025 6.19029H22.676C22.7621 6.19029 22.8446 6.22449 22.9055 6.28535C22.9664 6.34622 23.0006 6.42878 23.0006 6.51486V10.3464C23.0006 10.4559 23.0441 10.5609 23.1215 10.6383C23.1989 10.7158 23.304 10.7593 23.4135 10.7593H25.2479C25.3574 10.7593 25.4625 10.7158 25.5399 10.6383C25.6174 10.5609 25.6609 10.4559 25.6609 10.3464V6.51486C25.6609 6.42878 25.6951 6.34622 25.7559 6.28535C25.8168 6.22449 25.8993 6.19029 25.9854 6.19029H27.0589C27.3009 6.19029 27.4409 5.91596 27.2989 5.71998ZM9.30449 5.71998L6.57625 1.95573C6.4579 1.79247 6.21467 1.79247 6.09632 1.95573L3.36814 5.71998C3.2261 5.91596 3.3661 6.19029 3.6081 6.19029H4.68163C4.72425 6.19029 4.76646 6.19869 4.80583 6.215C4.84521 6.23131 4.88099 6.25522 4.91113 6.28535C4.94127 6.31549 4.96518 6.35127 4.98149 6.39065C4.9978 6.43003 5.00619 6.47223 5.00619 6.51486V10.3464C5.00619 10.4559 5.0497 10.5609 5.12714 10.6383C5.20457 10.7158 5.3096 10.7593 5.41912 10.7593H7.25358C7.36309 10.7593 7.46812 10.7158 7.54556 10.6383C7.62299 10.5609 7.6665 10.4559 7.6665 10.3464V6.51486C7.6665 6.42878 7.70069 6.34622 7.76156 6.28535C7.82243 6.22449 7.90498 6.19029 7.99106 6.19029H9.06452C9.30653 6.19029 9.44653 5.91596 9.30449 5.71998Z" stroke="white" stroke-miterlimit="10" stroke-linecap="round" stroke-linejoin="round"/>
</g>
<defs>
<clipPath id="clip0_2104_7278">
<rect width="32" height="32" fill="white" transform="translate(0 0.5)"/>
</clipPath>
</defs>
</svg>
