<svg width="32" height="33" viewBox="0 0 32 33" fill="none" xmlns="http://www.w3.org/2000/svg">
<path d="M30.2174 26.1315C30.0982 26.1315 29.984 26.1788 29.8997 26.263C29.8155 26.3473 29.7682 26.4615 29.7682 26.5807V29.5822C29.7682 29.6239 29.7343 29.6579 29.6925 29.6579H27.9856V23.0947C27.9856 22.8466 27.7845 22.6455 27.5364 22.6455C27.2883 22.6455 27.0872 22.8466 27.0872 23.0947V29.6579H23.7887L24.6815 28.6758C24.8194 28.5241 24.8843 28.3087 24.8554 28.0994C24.8548 28.095 24.8541 28.0905 24.8533 28.086L23.8498 22.1566L24.0344 21.8786L24.0825 21.9128C24.1652 21.9716 24.2597 22.0118 24.3595 22.0306C24.4592 22.0494 24.5619 22.0463 24.6603 22.0217C24.7588 21.9971 24.8508 21.9514 24.93 21.8879C25.0091 21.8243 25.0736 21.7444 25.1189 21.6535V21.6535L26.1401 19.6068L28.4727 20.5102C28.5648 20.5502 29.7679 21.1019 29.7679 22.5374V24.4842C29.7693 24.6025 29.8172 24.7154 29.9013 24.7985C29.9854 24.8817 30.0989 24.9283 30.2171 24.9283C30.3354 24.9283 30.4489 24.8817 30.533 24.7986C30.6171 24.7155 30.6651 24.6025 30.6664 24.4843V22.5374C30.6664 20.4644 28.8884 19.7097 28.8128 19.6785C28.8099 19.6774 28.8071 19.6762 28.8042 19.6751L24.8321 18.1368V17.3186C25.4522 16.8198 25.8876 16.1009 26.0183 15.2813C26.3276 15.2425 26.6145 15.1187 26.8526 14.9139C27.0213 14.7688 27.1567 14.589 27.2494 14.3867C27.3422 14.1844 27.3901 13.9644 27.3899 13.7419C27.3901 13.3852 27.2668 13.0395 27.0411 12.7634V11.5512C27.0411 9.17897 25.1111 7.24907 22.739 7.24907C21.674 7.24907 20.6989 7.63887 19.9468 8.28227C19.9375 7.9408 19.8152 7.61205 19.5992 7.34748V6.13537C19.5992 3.76315 17.6692 1.83325 15.2971 1.83325C12.9249 1.83325 10.995 3.76321 10.995 6.13537V7.37911C10.7791 7.63714 10.6582 7.94823 10.6476 8.27844C10.1569 7.85869 9.5777 7.55532 8.95325 7.39102C8.71295 7.32778 8.46756 7.47111 8.40437 7.71105C8.34118 7.95099 8.48445 8.19674 8.72439 8.25993C10.2166 8.65285 11.2588 10.0063 11.2588 11.5511V12.223C11.2308 12.2177 11.2027 12.2126 11.1747 12.2079C11.1686 12.0811 11.1364 12.0036 11.0673 11.9042C10.9523 11.739 10.7458 11.5331 10.0816 10.8191C9.96744 10.6961 9.8134 10.6174 9.64678 10.5971C9.48017 10.5768 9.31174 10.6162 9.17139 10.7082C8.03368 11.4514 6.65147 11.8302 5.36874 11.7549C4.95091 11.7304 4.68995 11.914 4.57872 12.2148C4.56878 12.2165 4.45767 12.2389 4.4515 12.2404V11.5511C4.4515 10.0616 5.44685 8.72155 6.87194 8.29227C6.92915 8.27588 6.98253 8.24829 7.02899 8.21109C7.07545 8.17389 7.11405 8.12784 7.14256 8.0756C7.17107 8.02336 7.18891 7.96598 7.19506 7.90678C7.20121 7.84759 7.19553 7.78776 7.17837 7.73078C7.1612 7.6738 7.13288 7.6208 7.09506 7.57485C7.05724 7.5289 7.01066 7.49092 6.95804 7.46313C6.90542 7.43533 6.8478 7.41826 6.78853 7.41292C6.72926 7.40757 6.66952 7.41406 6.61277 7.43199C5.74608 7.69302 4.96702 8.23651 4.41928 8.96221C3.85248 9.71294 3.55295 10.6082 3.55295 11.5512V12.795C3.32666 13.0654 3.20429 13.3939 3.20429 13.7419C3.20429 14.5109 3.77091 15.1816 4.57818 15.2817C4.71043 16.0821 5.14467 16.8496 5.83 17.3715V18.137L1.86233 19.6753C1.85951 19.6763 1.85669 19.6775 1.85389 19.6786C1.77806 19.7097 0 20.4644 0 22.5374V29.5822C0 30.1194 0.436998 30.5564 0.974202 30.5564H14.8083C14.9946 30.5563 15.1769 30.5026 15.3333 30.4015C15.4898 30.5026 15.6721 30.5564 15.8583 30.5564H29.6925C30.2297 30.5564 30.6667 30.1194 30.6667 29.5822V26.5807C30.6667 26.4615 30.6193 26.3473 30.5351 26.263C30.4508 26.1788 30.3365 26.1315 30.2174 26.1315ZM4.53422 14.3535C4.27086 14.2579 4.10261 14.0143 4.10261 13.7418C4.10261 13.4774 4.29427 13.2603 4.53422 13.1572V14.3535ZM25.2986 19.2809L24.4169 21.0482L23.4235 20.3426L24.5261 18.9817L25.2986 19.2809ZM22.7741 19.7168L21.6123 18.2827V17.8518C21.99 17.9824 22.3968 18.0426 22.7797 18.0427H22.78C23.1759 18.0427 23.5767 17.9675 23.9337 17.8332V18.2855L22.7741 19.7168ZM23.3015 21.3581L23.1363 21.6069H22.4121L22.2468 21.3581L22.7742 20.9836L23.3015 21.3581ZM15.3321 14.3009L14.1703 12.8669V12.4359C14.5465 12.5659 14.9529 12.6267 15.3377 12.6269H15.338C15.7332 12.6269 16.134 12.5519 16.4917 12.4173V12.8696L15.3321 14.3009ZM15.8595 15.9424L15.6943 16.1911H14.9701L14.8048 15.9424L15.3322 15.5679L15.8595 15.9424ZM11.7945 9.82273C11.868 9.84273 11.9434 9.85633 12.02 9.86579C12.1523 10.6662 12.5865 11.4337 13.2718 11.9556V12.7211L12.3554 13.0764C12.3021 12.9644 12.2355 12.8593 12.157 12.7633V11.5512C12.1573 10.9561 12.0339 10.3675 11.7945 9.82273ZM17.7193 9.34704C17.7193 10.6619 16.6467 11.7282 15.338 11.7282C13.8615 11.7282 12.8748 10.5839 12.8748 9.34704V7.24278C14.2933 7.29956 15.7669 6.87916 16.9717 6.12926C17.3768 6.56363 17.6178 6.81597 17.7193 6.93312L17.7193 9.34704ZM18.5764 9.86549C18.6521 9.85641 18.7271 9.84197 18.8007 9.82231C18.5604 10.367 18.4365 10.9558 18.4368 11.5512V12.7949C18.3687 12.8761 18.3092 12.964 18.2592 13.0574L17.3902 12.721V11.9028C18.0102 11.4039 18.4457 10.685 18.5764 9.86549ZM13.5786 13.5666L14.6814 14.9277L13.9294 15.4619L13.9282 15.4628L13.6896 15.6324L12.8077 13.8651L13.5786 13.5666ZM16.3661 14.4521L17.084 13.5658L17.8566 13.865L16.9749 15.6324L16.7357 15.4625L16.735 15.4619L15.9815 14.9267L16.3661 14.4521ZM16.5925 16.4628L16.6406 16.497C16.7233 16.5558 16.8178 16.596 16.9175 16.6148C17.0173 16.6336 17.1199 16.6305 17.2184 16.6058C17.3169 16.5813 17.4089 16.5356 17.488 16.4721C17.5672 16.4085 17.6316 16.3286 17.6769 16.2377V16.2377L18.4351 14.7182C18.6956 15.0392 19.0723 15.2345 19.4603 15.2829C19.5974 16.1418 20.0616 16.8748 20.7139 17.3715V18.137L16.8947 19.6176L16.4077 16.7408L16.5925 16.4628ZM21.0206 18.9824L22.1234 20.3436L21.1315 21.0482L20.2497 19.281L21.0206 18.9824ZM25.1612 14.7629C25.1613 16.0457 24.1195 17.1441 22.78 17.1441C21.2531 17.1441 20.3168 15.9482 20.3168 14.7629V12.6587C21.7252 12.7149 23.2007 12.3001 24.4136 11.5451C24.8187 11.9795 25.0597 12.2318 25.1612 12.349L25.1612 14.7629ZM26.4915 13.7418C26.4915 14.0148 26.3227 14.2579 26.0599 14.3535V13.1314C26.3315 13.2304 26.4915 13.4786 26.4915 13.7418ZM19.3353 11.5511C19.3353 9.67436 20.8622 8.14751 22.7389 8.14751C24.6157 8.14751 26.1425 9.67442 26.1425 11.5511V12.223C26.1146 12.2176 26.0865 12.2125 26.0584 12.2079C26.0523 12.081 26.02 12.0033 25.9511 11.9042C25.833 11.7347 25.6288 11.5323 24.9653 10.8191C24.7336 10.5705 24.3516 10.5145 24.0552 10.7082C22.9483 11.4313 21.5498 11.8397 20.2191 11.7533C19.8453 11.7288 19.5745 11.9118 19.4625 12.2149C19.4525 12.2165 19.3415 12.2389 19.3353 12.2404L19.3353 11.5511ZM19.4183 13.1572V14.3529C19.1541 14.2576 18.9867 14.0134 18.9867 13.7418C18.9866 13.4774 19.1782 13.2604 19.4183 13.1572ZM19.0494 8.32599C19.0494 8.51515 18.9675 8.69405 18.8248 8.81678C18.7637 8.86926 18.6935 8.91019 18.6178 8.93759V7.71554C18.8864 7.81305 19.0494 8.06 19.0494 8.32599ZM15.2969 2.73169C17.1737 2.73169 18.7005 4.25854 18.7005 6.13531V6.80716C18.6726 6.80176 18.6445 6.79673 18.6164 6.79207C18.6098 6.65449 18.5702 6.56992 18.4892 6.46049C18.369 6.29769 18.1472 6.07386 17.5234 5.40327C17.4092 5.28024 17.2552 5.2016 17.0886 5.18129C16.922 5.16099 16.7535 5.20033 16.6132 5.29234C15.4443 6.05601 14.0262 6.42766 12.7409 6.3356C12.4265 6.31183 12.1304 6.50181 12.0206 6.79896C12.0106 6.80057 11.8996 6.82297 11.8933 6.82447V6.13537C11.8933 4.25854 13.4202 2.73169 15.2969 2.73169ZM11.9762 7.74135V8.93765C11.7128 8.84206 11.5446 8.59846 11.5446 8.32594C11.5446 8.06311 11.7347 7.84515 11.9762 7.74135ZM11.1757 13.1314C11.4271 13.2229 11.5885 13.4422 11.6045 13.7028C11.6246 13.9925 11.4465 14.2546 11.1757 14.3529V13.1314ZM11.1341 15.2828C11.5578 15.2298 11.9467 15.0065 12.2018 14.663L12.9875 16.2377L12.9875 16.2377C13.0328 16.3286 13.0972 16.4085 13.1764 16.4721C13.2555 16.5356 13.3475 16.5813 13.446 16.6058C13.6433 16.6551 13.8543 16.6174 14.0238 16.497L14.0719 16.4628L14.2566 16.7408L13.7698 19.6168L9.94824 18.1367V17.3189H9.94818C10.5844 16.8059 11.0064 16.081 11.1341 15.2828ZM7.89005 19.7168L6.72825 18.2827V17.8518C7.1044 17.9818 7.51085 18.0426 7.89568 18.0427H7.89592C8.28987 18.0419 8.68053 17.9709 9.04963 17.8332V18.2855L7.89005 19.7168ZM8.41749 21.3581L8.25224 21.6069H7.52804L7.36279 21.3581L7.89017 20.9836L8.41749 21.3581ZM9.64193 18.9817L10.4146 19.281L9.5328 21.0482L9.29358 20.8783L9.29286 20.8777L8.53944 20.3426L9.64193 18.9817ZM5.43271 14.7629V12.6587C6.85876 12.7156 8.33333 12.2896 9.52957 11.5451C9.93081 11.9754 10.1755 12.2317 10.2772 12.349V14.7629C10.2772 16.0694 9.21194 17.1441 7.89592 17.1441C6.43069 17.1441 5.43271 16.0129 5.43271 14.7629ZM6.1366 18.9824L7.2394 20.3436L6.48735 20.8777L6.48621 20.8786L6.24753 21.0482L5.36569 19.281L6.1366 18.9824ZM3.57954 29.658V23.0947C3.57954 22.8466 3.37847 22.6455 3.13032 22.6455C2.88218 22.6455 2.68111 22.8466 2.68111 23.0947V29.6579H0.974202C0.954138 29.6579 0.9349 29.6499 0.920707 29.6358C0.906514 29.6216 0.898526 29.6023 0.898494 29.5823V22.5374C0.898494 21.0945 2.11419 20.5446 2.1929 20.5106L4.52409 19.6068L5.54537 21.6535L5.54543 21.6535C5.59071 21.7444 5.65515 21.8244 5.73432 21.8879C5.81348 21.9515 5.90549 21.9971 6.00399 22.0217C6.20123 22.071 6.41224 22.0332 6.58181 21.9128L6.6299 21.8786L6.81456 22.1566L5.81101 28.086C5.81025 28.0905 5.80955 28.095 5.80891 28.0994C5.78005 28.3085 5.84503 28.524 5.98297 28.6759L6.8756 29.6579H3.57954V29.658ZM6.71268 28.1428L7.66676 22.5054H8.11352L9.06765 28.1428L7.89017 29.4382L6.71268 28.1428ZM14.884 29.5822C14.884 29.624 14.8501 29.6579 14.8083 29.6579H13.1016V23.0947C13.1016 22.9756 13.0542 22.8613 12.97 22.777C12.8857 22.6928 12.7715 22.6455 12.6523 22.6455C12.5332 22.6455 12.4189 22.6928 12.3347 22.777C12.2505 22.8613 12.2031 22.9756 12.2031 23.0947V29.6579H8.90468L9.79742 28.6758C9.9353 28.5241 10.0003 28.3087 9.97136 28.0994C9.97072 28.095 9.97002 28.0905 9.96926 28.086L8.96571 22.1566L9.15037 21.8786L9.19847 21.9128C9.28122 21.9715 9.37572 22.0117 9.47547 22.0305C9.57522 22.0493 9.67786 22.0463 9.77633 22.0216C9.8748 21.997 9.96678 21.9514 10.0459 21.8878C10.1251 21.8243 10.1896 21.7444 10.2349 21.6535V21.6535L11.2561 19.6069L13.5887 20.5103C14.2686 20.806 14.8839 21.5688 14.8839 22.5374L14.884 29.5822ZM15.3333 20.905C15.1472 20.6051 14.8994 20.3277 14.6008 20.0909L15.1088 17.0896H15.5555L16.0638 20.0925C15.7572 20.336 15.5127 20.6159 15.3333 20.905ZM18.4635 29.658V23.0947C18.4635 22.8466 18.2625 22.6455 18.0143 22.6455C17.7662 22.6455 17.5651 22.8466 17.5651 23.0947V29.6579H15.8583C15.8382 29.6579 15.819 29.6499 15.8048 29.6358C15.7906 29.6216 15.7826 29.6023 15.7825 29.5823V22.5374C15.7825 22.0033 15.95 21.5115 16.3068 21.0983C16.5446 20.8254 16.8601 20.6045 17.077 20.5106L19.4082 19.6067L20.4295 21.6535L20.4296 21.6535C20.4748 21.7444 20.5393 21.8244 20.6184 21.8879C20.6976 21.9515 20.7896 21.9971 20.8881 22.0217C21.0853 22.071 21.2963 22.0332 21.4659 21.9128L21.514 21.8786L21.6986 22.1566L20.6951 28.086C20.6943 28.0905 20.6936 28.095 20.693 28.0994C20.6641 28.3085 20.7291 28.524 20.867 28.6759L21.7597 29.6579H18.4635V29.658ZM21.5967 28.1429L22.5508 22.5054H22.9976L23.9517 28.1429L22.7742 29.4382L21.5967 28.1429Z" fill="white"/>
</svg>
