<svg width="40" height="40" viewBox="0 0 40 40" fill="none" xmlns="http://www.w3.org/2000/svg">
<path d="M22.9894 11.246V5.40038C23.003 5.22022 23.0841 5.05185 23.2166 4.929C23.3491 4.80615 23.5231 4.73789 23.7038 4.73789C23.8845 4.73789 24.0585 4.80615 24.1909 4.929C24.3234 5.05185 24.4046 5.22022 24.4182 5.40038V6.78443C24.4172 6.8423 24.4301 6.89957 24.4558 6.95144C24.4815 7.00331 24.5192 7.04827 24.5659 7.08255C24.6125 7.11683 24.6667 7.13944 24.7239 7.14848C24.781 7.15752 24.8395 7.15273 24.8945 7.13451L28.1511 5.70568C28.2181 5.6816 28.2761 5.63739 28.3171 5.57911C28.3582 5.52082 28.3802 5.45129 28.3802 5.38002C28.3802 5.30876 28.3582 5.23923 28.3171 5.18094C28.2761 5.12265 28.2181 5.07844 28.1511 5.05436L23.4371 3.01899C22.5742 2.67298 23.1359 1.39069 23.9989 1.72042L30.9192 4.75313C31.0486 4.80536 31.1595 4.89508 31.2375 5.01077C31.3156 5.12646 31.3573 5.26285 31.3573 5.40241C31.3573 5.54198 31.3156 5.67836 31.2375 5.79405C31.1595 5.90974 31.0486 5.99946 30.9192 6.0517L24.6055 8.77909C24.5478 8.80355 24.4998 8.8463 24.4689 8.90075C24.438 8.9552 24.4259 9.01831 24.4345 9.08033V11.3762C24.4287 11.4226 24.4334 11.4698 24.4482 11.5141C24.4629 11.5585 24.4875 11.599 24.52 11.6327L28.7576 16.3547C28.8024 16.4402 28.8431 16.4809 28.8879 16.5705L38.2506 37.2621C38.3105 37.3747 38.3388 37.5014 38.3326 37.6288C38.3265 37.7562 38.286 37.8796 38.2156 37.9859C38.1451 38.0922 38.0473 38.1775 37.9323 38.2328C37.8174 38.2881 37.6897 38.3114 37.5626 38.3001H2.35884C2.1753 38.3001 1.99928 38.2272 1.8695 38.0974C1.73972 37.9677 1.66681 37.7916 1.66681 37.6081C1.66681 37.4246 1.73972 37.2485 1.8695 37.1188C1.99928 36.989 2.1753 36.9161 2.35884 36.9161H3.70218C3.79498 36.914 3.88475 36.8827 3.95864 36.8265L9.93042 31.2008C9.9829 31.1408 10.0131 31.0646 10.0159 30.985L11.2371 23.8856C11.2414 23.8027 11.2628 23.7216 11.2999 23.6473C11.3371 23.5731 11.3891 23.5073 11.4529 23.4541L15.259 20.1202C15.3355 20.0416 15.429 19.9816 15.5323 19.9448C15.6356 19.908 15.7459 19.8954 15.8549 19.908C15.9638 19.9205 16.0684 19.958 16.1606 20.0173C16.2528 20.0767 16.3301 20.1565 16.3866 20.2504L21.5931 29.3445C21.6436 29.4228 21.6769 29.5109 21.6911 29.6029C21.7053 29.695 21.6999 29.789 21.6753 29.8789C21.6507 29.9687 21.6075 30.0524 21.5485 30.1245C21.4894 30.1965 21.4159 30.2553 21.3326 30.297C21.2539 30.345 21.1663 30.3763 21.075 30.3891C20.9838 30.4019 20.8909 30.3959 20.8021 30.3715C20.7133 30.3471 20.6304 30.3048 20.5585 30.2472C20.4866 30.1896 20.4272 30.1179 20.3841 30.0365L15.7679 22.066C15.7411 22.024 15.7058 21.988 15.6642 21.9606C15.6226 21.9331 15.5756 21.9148 15.5265 21.9067C15.4773 21.8987 15.4269 21.9011 15.3788 21.9138C15.3306 21.9265 15.2856 21.9492 15.2468 21.9805L12.6375 24.2764C12.5831 24.3411 12.5392 24.4139 12.5072 24.4922L11.3552 31.5915C11.3335 31.7484 11.2571 31.8926 11.1394 31.9986C9.66989 33.4722 8.07009 34.9011 6.55577 36.3299C6.50488 36.3799 6.47028 36.4441 6.45651 36.5141C6.44274 36.5842 6.45044 36.6567 6.4786 36.7223C6.50676 36.7878 6.55407 36.8433 6.61433 36.8816C6.67459 36.9198 6.74499 36.9389 6.8163 36.9364H23.3354C23.399 36.9378 23.4618 36.9216 23.5168 36.8897C23.5718 36.8577 23.617 36.8112 23.6473 36.7552C23.6775 36.6993 23.6918 36.636 23.6885 36.5725C23.6852 36.5089 23.6644 36.4475 23.6285 36.395L22.0816 33.1059C22.0168 32.9733 21.9946 32.8239 22.0179 32.6782C22.0412 32.5324 22.1089 32.3975 22.2119 32.2917L27.056 27.3091C27.0986 27.2731 27.1294 27.2252 27.1447 27.1715C27.1599 27.1179 27.1588 27.0609 27.1415 27.0079L23.5104 14.4049C23.4911 14.3378 23.4527 14.2779 23.3998 14.2324C23.3469 14.1869 23.2819 14.1578 23.2128 14.1487C23.1436 14.1396 23.0733 14.1509 23.0105 14.1813C22.9476 14.2116 22.895 14.2596 22.8591 14.3194L19.0122 20.9832C18.9641 21.0634 18.9007 21.1333 18.8256 21.189C18.7504 21.2446 18.6651 21.285 18.5743 21.3076C18.4836 21.3303 18.3893 21.3349 18.2968 21.3211C18.2043 21.3074 18.1155 21.2755 18.0353 21.2274C17.9551 21.1793 17.8852 21.1159 17.8295 21.0407C17.7738 20.9656 17.7335 20.8802 17.7108 20.7895C17.6881 20.6988 17.6835 20.6045 17.6973 20.512C17.7111 20.4195 17.7429 20.3306 17.791 20.2504L22.9446 11.4332C22.9894 11.3925 22.9894 11.3477 22.9894 11.2622V11.246ZM25.6638 36.9161H35.9221C35.9834 36.9144 36.0434 36.898 36.097 36.8682C36.1506 36.8385 36.1963 36.7963 36.2302 36.7453C36.2641 36.6942 36.2853 36.6357 36.2919 36.5748C36.2985 36.5138 36.2903 36.4522 36.2681 36.395L27.6585 17.2625L27.573 17.177L25.9732 15.3574C25.917 15.3016 25.8441 15.2657 25.7655 15.2553C25.687 15.2449 25.6072 15.2605 25.5384 15.2997C25.4695 15.339 25.4155 15.3997 25.3845 15.4726C25.3535 15.5456 25.3472 15.6266 25.3667 15.7034L28.6558 27.1748C28.6947 27.2949 28.6988 27.4236 28.6679 27.546C28.6369 27.6684 28.5721 27.7796 28.4808 27.8668L23.7262 32.7517C23.6679 32.7998 23.6274 32.866 23.6111 32.9398C23.5949 33.0136 23.6039 33.0907 23.6366 33.1588L25.326 36.7085C25.3625 36.7692 25.4128 36.8205 25.473 36.858C25.5331 36.8955 25.6013 36.9182 25.672 36.9242L25.6638 36.9161Z" fill="#0099A3"/>
</svg>
