<svg width="24" height="24" viewBox="0 0 24 24" fill="none" xmlns="http://www.w3.org/2000/svg">
<path d="M9.54065 19.3822L11.023 14.9348M12.977 14.9348L14.4594 19.3822M2.34147 11.3334H1V9.72363M6.27641 11.3334H7.61788V9.72363" stroke="#FF7A00" stroke-width="0.7" stroke-miterlimit="10" stroke-linecap="round" stroke-linejoin="round"/>
<path d="M7.52254 7.99993C7.58569 8.18047 7.61787 8.37039 7.61771 8.56166V9.72408H6.27646V11.334H2.34125V9.72408H1V8.56166C1 7.62323 1.76093 6.8623 2.69936 6.8623H5.91879C6.10117 6.8623 6.27646 6.89108 6.44113 6.94464" stroke="#FF7A00" stroke-width="0.7" stroke-miterlimit="10" stroke-linecap="round" stroke-linejoin="round"/>
<path d="M4.30784 6.86177C5.09809 6.86177 5.73872 6.22114 5.73872 5.43089C5.73872 4.64063 5.09809 4 4.30784 4C3.51758 4 2.87695 4.64063 2.87695 5.43089C2.87695 6.22114 3.51758 6.86177 4.30784 6.86177Z" stroke="#FF7A00" stroke-width="0.7" stroke-miterlimit="10" stroke-linecap="round" stroke-linejoin="round"/>
<path d="M17.7236 11.3334H16.3821V9.72363M21.6585 11.3334H23V9.72363M6.72359 12.6748H1.8943C1.40038 12.6748 1 12.2744 1 11.7805V11.3334H7.61788V11.7805C7.61788 12.2744 7.2175 12.6748 6.72359 12.6748Z" stroke="#FF7A00" stroke-width="0.7" stroke-miterlimit="10" stroke-linecap="round" stroke-linejoin="round"/>
<path d="M16.3828 8.56148V9.72408H17.7243V11.3338H21.6592V9.72408H23.0007V8.56148C23.0007 7.62305 22.2399 6.8623 21.3015 6.8623H18.082C17.1436 6.8623 16.3828 7.62305 16.3828 8.56148Z" stroke="#FF7A00" stroke-width="0.7" stroke-miterlimit="10" stroke-linecap="round" stroke-linejoin="round"/>
<path d="M19.3523 4.04072C19.4607 4.01417 19.574 4 19.6909 4C20.481 4 21.1216 4.64052 21.1216 5.43066C21.1216 6.22125 20.481 6.86177 19.6909 6.86177C18.9007 6.86177 18.2598 6.22125 18.2598 5.43066C18.2598 5.31425 18.2735 5.20093 18.3001 5.09247M4.30859 12.6747V14.0164H10.6585M22.1054 12.6748H17.2762C16.7822 12.6748 16.3819 12.2744 16.3819 11.7805V11.3333H22.9997V11.7805C22.9997 12.2744 22.5994 12.6748 22.1054 12.6748Z" stroke="#FF7A00" stroke-width="0.7" stroke-miterlimit="10" stroke-linecap="round" stroke-linejoin="round"/>
<path d="M19.6917 12.6748V14.0165H13.3418" stroke="#FF7A00" stroke-width="0.7" stroke-miterlimit="10" stroke-linecap="round" stroke-linejoin="round"/>
<path d="M11.9997 15.3577C12.7405 15.3577 13.3411 14.7571 13.3411 14.0163C13.3411 13.2754 12.7405 12.6748 11.9997 12.6748C11.2588 12.6748 10.6582 13.2754 10.6582 14.0163C10.6582 14.7571 11.2588 15.3577 11.9997 15.3577Z" stroke="#FF7A00" stroke-width="0.7" stroke-miterlimit="10" stroke-linecap="round" stroke-linejoin="round"/>
<path d="M14.9764 20.8127H16.8289C17.0263 20.8127 17.1866 20.6525 17.1866 20.4551V19.7397C17.1866 19.5419 17.0263 19.3821 16.8289 19.3821H7.17017C6.97274 19.3821 6.8125 19.5419 6.8125 19.7397V20.4551C6.8125 20.6525 6.97274 20.8127 7.17017 20.8127H13.4271M13.654 5.52799H10.3451C10.2502 5.52799 10.1592 5.49031 10.0921 5.42322C10.025 5.35614 9.98736 5.26515 9.98736 5.17028V4.54423C9.98736 4.44936 10.025 4.35838 10.0921 4.29129C10.1592 4.22421 10.2502 4.18652 10.3451 4.18652H13.654C13.7489 4.18652 13.8399 4.22421 13.907 4.29129C13.974 4.35838 14.0117 4.44936 14.0117 4.54423V5.17024C14.0117 5.21722 14.0025 5.26374 13.9845 5.30714C13.9665 5.35055 13.9402 5.38998 13.907 5.42321C13.8738 5.45643 13.8343 5.48278 13.7909 5.50076C13.7475 5.51874 13.701 5.52799 13.654 5.52799ZM13.654 6.86946H10.3451C10.2502 6.86946 10.1592 6.90715 10.0921 6.97423C10.025 7.04132 9.98736 7.1323 9.98736 7.22717V7.85318C9.98736 7.94805 10.025 8.03903 10.0921 8.10611C10.1592 8.1732 10.2502 8.21089 10.3451 8.21089H13.654C13.7489 8.21089 13.8399 8.1732 13.907 8.10611C13.974 8.03903 14.0117 7.94805 14.0117 7.85318V7.22717C14.0117 7.1323 13.974 7.04132 13.907 6.97423C13.8399 6.90715 13.7489 6.86946 13.654 6.86946Z" stroke="#FF7A00" stroke-width="0.7" stroke-miterlimit="10" stroke-linecap="round" stroke-linejoin="round"/>
</svg>
