<svg width="40" height="40" viewBox="0 0 40 40" fill="none" xmlns="http://www.w3.org/2000/svg">
<g clip-path="url(#clip0_1971_2080)">
<path d="M20 24.1016C22.2652 24.1016 24.1016 22.2652 24.1016 20C24.1016 17.7348 22.2652 15.8984 20 15.8984C17.7348 15.8984 15.8984 17.7348 15.8984 20C15.8984 22.2652 17.7348 24.1016 20 24.1016Z" fill="#00ACC2"/>
<path d="M20 0.46875C9.2132 0.46875 0.46875 9.2132 0.46875 20C0.46875 30.7868 9.2132 39.5312 20 39.5312C30.7868 39.5312 39.5312 30.7868 39.5312 20C39.5312 9.2132 30.7868 0.46875 20 0.46875ZM32.067 24.9641C31.9733 26.8209 31.4515 28.652 30.0983 29.9909C28.732 31.3424 26.8922 31.846 25.0174 31.9388H14.9827C13.1077 31.846 11.2681 31.3427 9.9018 29.9909C8.54852 28.652 8.0268 26.8209 7.93305 24.9641V15.0359C8.0268 13.1791 8.54859 11.348 9.9018 10.0091C11.2681 8.6575 13.1079 8.15391 14.9827 8.06117H25.0173C26.8923 8.15391 28.7319 8.65727 30.0982 10.0091C31.4515 11.348 31.9732 13.1791 32.067 15.0359L32.067 24.9641Z" fill="#00ACC2"/>
<path d="M24.8916 10.3233C22.4473 10.2563 17.5551 10.2563 15.1109 10.3233C13.839 10.3582 12.397 10.6748 11.4908 11.6428C10.5491 12.649 10.1932 13.8646 10.1571 15.2245C10.0937 17.6114 10.1571 24.7755 10.1571 24.7755C10.1984 26.1352 10.5491 27.351 11.4908 28.3572C12.397 29.3255 13.839 29.6418 15.1109 29.6767C17.5551 29.7438 22.4473 29.7438 24.8916 29.6767C26.1635 29.6418 27.6055 29.3252 28.5117 28.3572C29.4534 27.351 29.8093 26.1354 29.8454 24.7755V15.2245C29.8093 13.8646 29.4534 12.649 28.5117 11.6428C27.6051 10.6745 26.1632 10.3582 24.8916 10.3233ZM20.0009 26.3574C18.7435 26.3574 17.5144 25.9846 16.4689 25.286C15.4235 24.5874 14.6086 23.5945 14.1274 22.4329C13.6463 21.2712 13.5204 19.993 13.7657 18.7597C14.011 17.5265 14.6165 16.3937 15.5056 15.5046C16.3947 14.6155 17.5274 14.01 18.7607 13.7647C19.9939 13.5194 21.2721 13.6453 22.4338 14.1265C23.5955 14.6077 24.5884 15.4225 25.2869 16.468C25.9855 17.5135 26.3584 18.7426 26.3584 20C26.3584 21.6861 25.6886 23.3031 24.4963 24.4954C23.3041 25.6876 21.687 26.3574 20.0009 26.3574ZM26.3854 14.9548C26.1339 14.9548 25.8881 14.8802 25.6791 14.7404C25.47 14.6007 25.3071 14.4021 25.2109 14.1697C25.1147 13.9374 25.0896 13.6817 25.1387 13.4351C25.1878 13.1885 25.3089 12.962 25.4867 12.7842C25.6646 12.6064 25.8911 12.4853 26.1378 12.4363C26.3844 12.3873 26.64 12.4124 26.8723 12.5087C27.1047 12.6049 27.3032 12.7679 27.4429 12.977C27.5826 13.1861 27.6572 13.4319 27.6572 13.6834C27.6572 13.8504 27.6243 14.0157 27.5604 14.17C27.4964 14.3243 27.4028 14.4645 27.2847 14.5825C27.1666 14.7006 27.0264 14.7943 26.8721 14.8581C26.7178 14.922 26.5524 14.9549 26.3854 14.9548Z" fill="#00ACC2"/>
</g>
<defs>
<clipPath id="clip0_1971_2080">
<rect width="40" height="40" fill="white"/>
</clipPath>
</defs>
</svg>
