<svg width="81" height="81" viewBox="0 0 81 81" fill="none" xmlns="http://www.w3.org/2000/svg">
<path d="M54.8809 16.9396C54.8809 11.4289 51.6739 6.33712 46.7131 3.96662C46.5138 3.87084 46.2934 3.82731 46.0727 3.84013C45.8519 3.85295 45.6381 3.92171 45.4512 4.03992C45.2638 4.15754 45.1094 4.32089 45.0025 4.5146C44.8955 4.70831 44.8396 4.92602 44.84 5.14729V16.8322L40.4851 19.3519L36.1303 16.8322V5.14729C36.159 4.21794 35.0844 3.53467 34.2558 3.96662C23.8066 8.8961 23.3196 24.0537 33.5124 29.5303L33.5189 49.2246C33.8108 58.4356 47.1908 58.4396 47.4657 49.2194L47.4644 48.3411C47.4642 48.1692 47.4302 47.999 47.3642 47.8403C47.2983 47.6815 47.2017 47.5373 47.0801 47.4159C46.9584 47.2945 46.814 47.1982 46.6551 47.1326C46.4963 47.067 46.326 47.0333 46.1541 47.0334C45.9822 47.0336 45.8121 47.0676 45.6533 47.1336C45.4946 47.1995 45.3504 47.2961 45.229 47.4178C45.1075 47.5394 45.0113 47.6838 44.9456 47.8427C44.88 48.0016 44.8463 48.1718 44.8465 48.3437L44.8478 49.2207C44.8494 49.793 44.7375 50.36 44.5187 50.8889C44.2998 51.4177 43.9784 51.898 43.5729 52.3019C40.9445 55.0376 36.0635 53.0323 36.1368 49.2246L36.1303 28.7318C36.1303 28.2279 35.8423 27.7684 35.3855 27.5498C27.4127 23.9411 26.4375 12.4669 33.5124 7.45234V17.5875C33.5125 17.8169 33.5729 18.0422 33.6875 18.241C33.8021 18.4397 33.967 18.6048 34.1655 18.7197L39.8293 21.996C40.2351 22.2316 40.7338 22.2316 41.1409 21.996L46.8047 18.7197C47.0035 18.6049 47.1686 18.4399 47.2834 18.2412C47.3983 18.0425 47.4589 17.817 47.4591 17.5875V7.45103C48.9444 8.54805 50.1524 9.97738 50.9866 11.6247C51.8207 13.2721 52.2578 15.0918 52.263 16.9382C52.263 21.5104 49.704 25.5773 45.5847 27.5485C45.3615 27.6553 45.1731 27.8231 45.0413 28.0325C44.9095 28.2419 44.8397 28.4844 44.84 28.7318L44.8465 41.7977C44.8727 43.5085 47.4369 43.5242 47.4644 41.7951L47.4578 29.5277C52.0588 26.9975 54.8809 22.2473 54.8809 16.9396Z" fill="white"/>
<path d="M11.687 77.1383H69.2805C70.3136 77.1395 71.3368 76.937 72.2916 76.5423C73.2464 76.1477 74.114 75.5687 74.8448 74.8384C76.2218 73.7389 78.7258 68.2793 75.8265 67.9757H74.5163V32.6342C74.5163 29.7467 72.168 27.3984 69.2805 27.3984H56.2173C54.4947 27.422 54.5091 30.0006 56.2173 30.0163H69.2805C70.7243 30.0163 71.8984 31.1904 71.8984 32.6342V69.2846C71.8984 69.6318 72.0363 69.9647 72.2818 70.2102C72.5272 70.4556 72.8602 70.5935 73.2073 70.5935H74.3526C73.8107 72.858 71.6091 74.5596 69.2805 74.5204H11.687C10.5266 74.519 9.39943 74.1328 8.48205 73.4222C7.56466 72.7116 6.9089 71.7168 6.61749 70.5935H33.3971C33.8972 70.9862 34.5045 71.9889 35.248 71.9025H45.7195C46.4394 71.9849 47.1031 70.9993 47.5704 70.5935H66.6626C68.3708 70.5647 68.3943 68.0071 66.6626 67.9757H47.0285C46.3086 67.9115 45.6449 68.8657 45.1776 69.2846H35.7899L34.8645 68.3592C34.6191 68.1137 34.2862 67.9757 33.9391 67.9757H9.06914V45.7236C9.06391 44.022 6.46958 43.9932 6.45126 45.7236V67.9757H5.14232C4.79516 67.9757 4.46223 68.1136 4.21675 68.359C3.97128 68.6045 3.83337 68.9374 3.83337 69.2846C3.83337 73.6159 7.35574 77.1383 11.687 77.1383ZM11.687 27.3984C8.7995 27.3984 6.45126 29.7467 6.45126 32.6342V39.1789C6.45126 39.5261 6.58917 39.859 6.83464 40.1045C7.08011 40.35 7.41305 40.4879 7.7602 40.4879C8.10735 40.4879 8.44029 40.35 8.68576 40.1045C8.93124 39.859 9.06914 39.5261 9.06914 39.1789V32.6342C9.06914 31.1904 10.2433 30.0163 11.687 30.0163H24.7503C25.0974 30.0163 25.4304 29.8784 25.6758 29.6329C25.9213 29.3875 26.0592 29.0545 26.0592 28.7074C26.0592 28.3602 25.9213 28.0273 25.6758 27.7818C25.4304 27.5363 25.0974 27.3984 24.7503 27.3984H11.687Z" fill="white"/>
</svg>
