<svg width="24" height="24" viewBox="0 0 24 24" fill="none" xmlns="http://www.w3.org/2000/svg">
<path d="M8.83887 5.15021V8.55906C8.83887 8.79105 9.11871 8.90796 9.28374 8.74489L10.2807 7.75971C10.4037 7.63816 10.5697 7.56999 10.7426 7.56999H14.7812C15.1278 7.56999 15.4088 7.28899 15.4088 6.94239V1.6276C15.4088 1.281 15.1278 1 14.7812 1H9.46651C9.11991 1 8.83891 1.281 8.83891 1.6276V3.60472" stroke="#797C7F" stroke-width="0.75" stroke-miterlimit="10" stroke-linecap="round" stroke-linejoin="round"/>
<path d="M11.1971 2.6781C11.4168 2.42481 11.7447 2.26797 12.1088 2.27953C12.711 2.29865 13.2033 2.7869 13.227 3.38887C13.2461 3.87349 12.9669 4.29516 12.5582 4.48515C12.2595 4.62401 12.0712 4.92661 12.0712 5.25599M2.09327 10.6816C1.98601 11.0134 1.95892 11.4232 2.07786 11.9325C2.17197 12.3356 2.38511 12.7503 2.54367 13.022C2.79842 13.4586 3.42447 13.5112 3.72317 13.1034C3.74048 13.0798 3.7565 13.0549 3.77102 13.0288L4.59414 11.5336H5.84911C6.45281 11.5336 7.01773 11.2119 7.30421 10.6805C7.52643 10.2683 7.64948 9.75271 7.36233 9.24047C6.97355 8.54692 5.91264 8.5764 5.20691 8.89263C4.89307 9.03326 4.55851 9.12113 4.21669 9.15898C3.89594 9.19448 3.49197 9.28093 3.13537 9.48309M21.7857 13.2068C21.5236 13.6502 20.8314 13.7017 20.5584 13.2135L19.7353 11.7184L18.7855 11.8575C18.1818 11.8575 17.3647 11.8492 17.2197 11.2354C16.957 10.1237 18.9373 8.88072 20.6883 9.57255C21.7398 9.98798 22.1662 10.9372 22.0883 12.0943C22.0605 12.5073 21.9443 12.9351 21.7857 13.2068Z" stroke="#797C7F" stroke-width="0.75" stroke-miterlimit="10" stroke-linecap="round" stroke-linejoin="round"/>
<path d="M6.4027 11.4405C6.54134 11.7188 6.61328 12.0256 6.61283 12.3366C6.61283 13.4476 5.7122 14.3482 4.60122 14.3482C3.83897 14.3482 3.17578 13.9242 2.8345 13.2993M2 23V17.3008C2 16.3699 2.75468 15.6152 3.68559 15.6152H5.1159C6.0468 15.6152 6.80149 16.3699 6.80149 17.3008V18.0568M6.80149 20.6051V23M17.7238 11.744C17.6648 11.936 17.6349 12.1357 17.6351 12.3366C17.6351 13.4476 18.5357 14.3482 19.6467 14.3482C20.2973 14.3482 20.8758 14.0392 21.2435 13.5601M22.2479 23V17.3008C22.2479 16.3699 21.4932 15.6152 20.5623 15.6152H19.132C18.2011 15.6152 17.4464 16.3699 17.4464 17.3008V23" stroke="#797C7F" stroke-width="0.75" stroke-miterlimit="10" stroke-linecap="round" stroke-linejoin="round"/>
<path d="M5.88284 17.0143L7.09062 18.3854C7.30196 18.6253 7.56196 18.8175 7.85332 18.9491C8.14469 19.0807 8.46074 19.1488 8.78046 19.1488H10.216C10.7322 19.1488 11.1507 19.5673 11.1507 20.0835C11.1507 20.5998 10.7322 21.0183 10.216 21.0183H8.31098C7.91839 21.0183 7.5297 20.9404 7.16744 20.789C6.80519 20.6377 6.47658 20.416 6.20066 20.1367L3.93652 17.841M9.23113 19.1488V21.0183" stroke="#797C7F" stroke-width="0.75" stroke-miterlimit="10" stroke-linecap="round" stroke-linejoin="round"/>
<path d="M12.4225 23H8.71917C8.61105 23 8.50737 22.957 8.43092 22.8806C8.35447 22.8041 8.31152 22.7005 8.31152 22.5924V21.426C8.31152 21.3178 8.35447 21.2142 8.43092 21.1377C8.50737 21.0613 8.61105 21.0183 8.71917 21.0183H15.5288C15.6369 21.0183 15.7406 21.0613 15.817 21.1377C15.8935 21.2142 15.9364 21.3178 15.9364 21.426V22.5924C15.9364 22.7005 15.8935 22.8041 15.817 22.8806C15.7406 22.957 15.6369 23 15.5288 23H13.968" stroke="#797C7F" stroke-width="0.75" stroke-miterlimit="10" stroke-linecap="round" stroke-linejoin="round"/>
</svg>
