<svg width="87" height="61" viewBox="0 0 87 61" fill="none" xmlns="http://www.w3.org/2000/svg">
<path fill-rule="evenodd" clip-rule="evenodd" d="M11.573 40.4854C12.373 40.3854 13.273 40.1854 14.173 39.5854C16.673 37.9854 18.873 36.0854 20.973 33.7854C21.573 28.7854 22.573 23.6854 23.773 18.5854C24.573 15.1854 24.973 11.5854 25.573 8.08537C25.773 6.88537 25.973 5.88536 26.773 4.78536C27.773 3.38536 28.873 2.48537 30.473 1.88537C32.273 1.28537 34.073 0.585362 36.073 0.785362C37.173 0.885362 38.273 0.685365 39.373 0.585365C45.073 0.0853651 50.773 -0.214644 56.573 0.185356C59.973 0.385356 63.473 0.285368 66.973 0.385368C68.573 0.385368 70.173 0.685362 71.773 0.785362C72.673 0.885362 73.673 0.985359 74.573 0.985359C77.773 0.885359 80.773 1.58537 83.773 2.38537C85.073 2.68537 85.973 3.88537 85.973 5.38537C86.073 8.68537 86.073 11.9854 85.273 15.1854C84.773 17.0854 84.773 18.9854 84.473 20.8854C83.473 26.8854 82.073 32.7854 80.673 38.6854C80.573 39.1854 80.373 39.6854 80.173 40.0854C79.373 41.1854 79.273 42.3854 79.373 43.6854C79.373 44.3854 79.373 44.9854 79.373 45.6854C79.473 47.3854 79.273 48.8854 77.873 50.2854C76.773 51.3854 75.973 52.7854 75.073 54.1854C73.673 56.4854 71.573 58.0854 69.773 59.9854C68.873 60.8854 67.873 61.1854 66.573 60.8854C62.473 59.9854 58.173 60.1854 54.073 60.1854C50.573 60.1854 46.973 60.1854 43.473 60.1854C41.073 60.1854 38.773 60.2854 36.473 59.6854C35.673 59.4854 34.773 59.5854 33.973 59.5854C31.573 59.5854 29.273 59.4854 26.873 59.5854C21.773 59.7854 16.773 59.2854 11.773 58.6854C8.97303 58.3854 6.173 57.5854 3.373 56.8854C1.373 56.3854 0.173022 55.0854 0.173022 52.8854C0.173022 51.7854 -0.326996 50.6854 0.373004 49.4854C0.973004 48.3854 1.57303 47.3854 2.77303 46.9854C4.77303 46.1854 6.37302 44.7854 8.07302 43.5854C8.87302 43.0854 9.673 42.5854 10.373 41.9854C10.673 41.7854 10.973 41.2854 11.573 40.4854ZM78.273 37.6854C79.073 34.0854 80.073 30.3854 80.873 26.5854C81.873 21.4854 82.773 16.2854 83.673 11.1854C83.973 9.18536 84.473 7.18536 83.973 4.98536C83.373 4.78536 82.673 4.38536 81.973 4.18536C78.673 3.48536 75.373 2.78536 72.073 2.68536C71.473 2.68536 70.873 2.48536 70.373 2.48536C69.473 2.38536 68.573 2.08537 67.673 2.08537C61.973 2.08537 56.273 1.88536 50.473 2.48536C45.173 3.08536 39.673 2.98536 34.373 3.18536C32.873 3.18536 31.573 3.58536 30.273 4.18536C29.173 4.68536 28.473 5.48536 28.373 6.68536C28.273 8.88536 27.673 10.9854 27.373 13.1854C26.773 18.0854 25.273 22.8854 24.573 27.7854C24.073 30.7854 23.573 33.7854 23.773 36.7854C25.473 37.8854 27.173 37.6854 28.973 37.5854C29.673 37.5854 30.273 37.4854 30.973 37.4854C32.073 37.4854 33.173 37.6854 34.273 37.6854C47.173 37.7854 59.973 37.5854 72.873 38.3854C74.573 38.3854 76.373 38.5854 78.273 37.6854ZM67.773 55.3854C66.573 55.3854 65.773 55.2854 64.973 55.2854C60.673 55.2854 56.373 55.3854 52.073 55.2854C48.073 55.1854 43.973 54.8854 39.973 54.6854C39.673 54.6854 39.473 54.5854 39.173 54.5854C37.973 54.4854 36.673 54.1854 35.473 54.1854C26.973 54.1854 18.473 54.1854 9.97301 54.1854C8.17301 54.1854 6.47302 54.2854 4.67302 53.6854C3.97302 53.4854 3.273 53.2854 2.373 53.9854C3.073 54.3854 3.47301 54.7854 3.97301 54.8854C7.37301 55.7854 10.773 56.6854 14.373 56.6854C14.973 56.6854 15.573 56.6854 16.173 56.7854C18.473 57.3854 20.873 57.1854 23.173 57.1854C26.673 57.1854 30.273 57.1854 33.773 57.1854C34.773 57.1854 35.773 57.2854 36.773 57.3854C38.373 57.4854 39.973 57.7854 41.573 57.7854C48.173 57.7854 54.773 57.7854 61.273 57.7854C62.573 57.7854 63.973 57.6854 65.273 58.2854C65.973 58.5854 66.773 58.5854 67.573 57.8854C67.673 57.3854 67.673 56.5854 67.773 55.3854ZM15.673 51.4854C16.973 51.5854 17.773 51.5854 18.573 51.5854C24.473 51.5854 30.373 51.5854 36.273 51.5854C37.073 51.5854 37.973 51.6854 38.773 51.6854C40.073 51.7854 41.473 51.9854 42.773 52.0854C43.973 52.1854 45.073 52.2854 46.273 52.3854C47.073 52.4854 47.773 52.5854 48.573 52.5854C49.373 52.5854 50.273 52.7854 51.073 52.3854C51.073 51.7854 51.073 51.1854 51.073 50.6854C50.173 50.4854 49.373 50.1854 48.573 49.9854C47.673 49.8854 46.673 50.0854 45.773 49.8854C42.573 49.0854 39.373 49.2854 36.273 49.2854C33.573 49.2854 30.873 49.2854 28.273 48.6854C27.373 48.4854 26.473 48.4854 25.473 48.5854C23.573 48.6854 21.673 48.8854 19.773 49.0854C18.273 49.3854 17.173 50.1854 15.673 51.4854ZM71.973 48.6854C70.373 48.6854 69.373 48.6854 68.373 48.6854C67.173 48.6854 65.973 48.6854 64.873 48.4854C62.973 48.0854 60.873 48.5854 58.973 47.5854C58.673 47.3854 58.173 47.4854 57.773 47.4854C55.373 47.4854 52.873 47.4854 50.473 47.4854C50.073 47.4854 49.773 47.5854 49.073 47.7854C49.673 48.1854 49.973 48.4854 50.173 48.4854C50.773 48.5854 51.373 48.5854 51.873 48.6854C53.173 48.8854 53.573 49.3854 53.373 50.6854C53.273 51.2854 53.073 51.8854 52.973 52.5854C53.673 52.5854 54.173 52.6854 54.673 52.6854C58.673 52.6854 62.573 52.6854 66.573 52.6854C67.173 52.6854 67.773 52.6854 68.373 52.5854C68.873 52.3854 69.573 52.1854 69.873 51.7854C70.573 50.9854 71.073 50.0854 71.973 48.6854ZM20.373 47.2854C19.673 47.0854 19.173 46.8854 18.673 46.8854C15.973 46.7854 13.373 46.4854 10.773 45.5854C10.073 45.3854 9.473 45.5854 8.873 45.9854C7.273 47.1854 5.77303 48.4854 3.77303 49.1854C3.47303 49.2854 3.07302 49.7854 3.17302 50.0854C3.17302 50.3854 3.67301 50.6854 3.97301 50.7854C7.37301 51.6854 10.773 51.4854 14.073 51.3854C15.373 48.8854 17.573 47.9854 20.373 47.2854ZM32.373 45.5854C35.173 45.5854 37.573 45.5854 39.973 45.5854C40.373 44.7854 40.773 44.0854 41.173 43.1854C39.473 42.8854 37.973 43.1854 36.573 42.9854C34.673 42.7854 33.473 43.7854 32.373 45.5854ZM74.473 44.6854C74.373 44.4854 74.273 44.1854 74.173 44.1854C72.573 44.1854 70.973 44.0854 69.473 44.3854C68.373 44.5854 67.773 45.5854 67.773 46.8854C69.573 46.8854 71.173 46.8854 72.873 46.8854C73.473 46.0854 73.973 45.3854 74.473 44.6854ZM49.673 43.1854C48.273 42.9854 46.873 43.1854 45.573 43.0854C43.673 42.8854 42.873 43.8854 42.173 45.5854C44.373 45.8854 46.373 45.7854 48.473 45.5854C48.873 44.9854 49.273 44.3854 49.673 43.8854C49.773 43.6854 49.673 43.4854 49.673 43.1854ZM76.873 45.5854C75.973 46.7854 75.273 47.5854 74.773 48.5854C73.473 51.0854 72.173 53.5854 70.073 55.5854C69.873 55.7854 70.073 56.2854 70.173 56.8854C70.673 56.4854 70.973 56.3854 71.173 56.0854C73.173 53.8854 74.973 51.6854 76.273 49.0854C76.773 47.9854 77.473 47.1854 76.873 45.5854ZM44.173 39.4854C42.573 39.0854 40.973 39.1854 39.373 39.0854C37.973 38.9854 37.273 39.7854 36.873 41.1854C38.873 41.3854 40.673 41.3854 42.473 41.1854C43.273 41.1854 43.873 40.4854 44.173 39.4854ZM11.773 44.3854C13.273 44.7854 14.473 44.9854 15.773 45.1854C17.473 45.3854 18.373 44.4854 18.973 42.9854C16.373 41.9854 13.973 41.9854 11.773 44.3854ZM56.673 45.4854C58.473 45.6854 59.973 45.9854 61.573 46.1854C62.173 45.3854 62.673 44.6854 63.373 43.7854C61.573 43.3854 59.973 42.7854 58.173 43.2854C57.773 43.8854 57.273 44.5854 56.673 45.4854ZM25.873 43.1854C24.673 42.8854 23.473 42.9854 22.373 42.9854C20.973 42.9854 20.473 43.4854 19.973 45.3854C21.473 45.5854 22.873 45.8854 24.373 45.5854C24.973 44.8854 25.673 44.2854 25.873 43.1854ZM52.773 40.0854C50.573 39.6854 48.873 39.5854 47.273 39.5854C46.173 39.4854 45.873 40.1854 45.573 41.1854C47.673 41.4854 49.573 41.4854 51.473 41.1854C51.773 41.0854 52.073 40.6854 52.773 40.0854ZM29.773 39.5854C27.873 38.9854 26.073 39.3854 24.373 39.0854C24.073 39.7854 23.873 40.4854 23.573 41.2854C24.873 41.2854 25.973 41.2854 27.073 41.2854C28.173 41.3854 28.873 40.6854 29.773 39.5854ZM26.773 45.4854C29.973 45.9854 30.773 45.5854 31.573 43.1854C27.873 42.7854 27.773 42.8854 26.773 45.4854ZM55.873 43.3854C52.573 42.7854 51.973 42.9854 51.073 45.5854C52.173 45.5854 53.173 45.5854 54.273 45.5854C54.973 44.8854 55.673 44.2854 55.873 43.3854ZM22.773 39.2854C21.973 39.3854 21.273 39.5854 20.773 39.3854C19.173 38.6854 18.373 39.7854 17.173 40.7854C19.373 41.1854 21.373 41.9854 22.773 39.2854ZM30.673 41.2854C32.673 41.2854 34.473 41.9854 35.473 39.7854C32.073 39.2854 32.073 39.2854 30.673 41.2854ZM76.173 41.0854C74.773 41.0854 73.673 41.0854 72.573 41.0854C71.773 41.0854 71.273 41.4854 70.873 42.3854C72.473 43.0854 74.073 42.4854 75.573 42.6854C75.873 42.1854 75.973 41.7854 76.173 41.0854ZM60.173 41.1854C61.673 41.5854 63.073 42.0854 64.573 41.7854C64.773 41.7854 64.873 41.4854 65.073 41.2854C63.173 40.2854 61.473 40.2854 60.173 41.1854ZM67.173 43.9854C66.473 43.7854 66.073 43.5854 65.873 43.6854C64.773 44.1854 64.173 45.1854 63.773 46.2854C64.573 46.5854 65.173 46.7854 65.673 46.0854C66.073 45.4854 66.473 44.8854 67.173 43.9854ZM54.373 41.2854C55.873 41.2854 57.073 41.7854 58.273 40.7854C55.573 39.8854 55.373 39.8854 54.373 41.2854ZM66.773 41.5854C67.373 42.1854 67.973 42.5854 68.673 42.0854C68.873 41.9854 68.973 41.4854 69.173 41.0854C68.173 41.0854 67.373 40.7854 66.773 41.5854ZM45.473 47.5854C45.473 47.6854 45.573 47.8854 45.573 47.9854C46.073 47.9854 46.573 47.8854 47.673 47.8854C46.873 47.5854 46.673 47.4854 46.373 47.4854C46.073 47.4854 45.773 47.5854 45.473 47.5854Z" fill="#CDEBED"/>
</svg>
