<svg width="156" height="60" viewBox="0 0 156 60" fill="none" xmlns="http://www.w3.org/2000/svg">
<path d="M82.7175 35.1575H77.8877V30.2038L74.0404 30.2864V47.6241H69.1693V26.1584H74.0404V26.984L77.0373 26.4391C78.0412 26.2388 79.0605 26.1256 80.0838 26.1006C81.8506 26.1006 82.7423 26.9757 82.7423 28.7178L82.7175 35.1575Z" fill="#0099A3"/>
<path d="M99.2956 47.6572H94.6392V46.9141L91.3368 47.426C90.2446 47.6082 89.1412 47.7158 88.0344 47.748C86.2621 47.748 85.3759 46.8756 85.3759 45.1308V37.3866C85.3759 35.6198 86.2841 34.7364 88.1169 34.7364H94.7218V29.7828H90.0653V32.8458H85.6649V28.8416C85.6649 27.0748 86.573 26.1832 88.4059 26.1832H96.6619C98.4618 26.1832 99.3617 27.0748 99.3617 28.8416L99.2956 47.6572ZM94.6887 43.7768V37.9976H90.0323V43.9254L94.6887 43.7768Z" fill="#0099A3"/>
<path d="M117.12 43.3475C117.153 43.9304 117.062 44.5137 116.853 45.0587C116.644 45.6038 116.321 46.0983 115.907 46.5096C115.022 47.3041 113.858 47.7166 112.67 47.6572H102.763V14.3853H107.634V26.9757C108.765 26.8024 109.896 26.629 111.036 26.4391C112.16 26.2435 113.297 26.1303 114.437 26.1006C116.204 26.1006 117.096 26.9757 117.096 28.7178L117.12 43.3475ZM112.225 42.0018V30.2451L107.659 30.3277V43.6199H110.672C111.713 43.6199 112.225 43.0833 112.225 42.0018Z" fill="#0099A3"/>
<path d="M137.447 41.3908C137.493 42.2371 137.361 43.0837 137.059 43.8758C136.758 44.6679 136.294 45.388 135.697 45.9895C135.061 46.5608 134.319 47.0008 133.513 47.2842C132.706 47.5676 131.852 47.6887 130.999 47.6407H120.86V14.3853H130.999C131.855 14.34 132.712 14.4663 133.519 14.757C134.325 15.0477 135.066 15.4967 135.697 16.0778C136.293 16.6845 136.757 17.409 137.059 18.2051C137.36 19.0011 137.492 19.8512 137.447 20.7011V41.3908ZM132.444 40.5652V21.4855C132.444 19.6306 131.475 18.7032 129.537 18.7032H125.831V43.4714H129.405C131.436 43.3888 132.444 42.4476 132.444 40.557V40.5652Z" fill="#0E556C"/>
<path d="M155.75 18.7857H150.26V47.6819H145.307V18.7857H139.825V14.3853H155.75V18.7857Z" fill="#0E556C"/>
<path d="M62.903 48.0369C62.8728 48.7787 62.6456 49.499 62.2446 50.1238C61.8437 50.7486 61.2835 51.2553 60.6217 51.5916C59.9599 51.928 59.2204 52.0819 58.4793 52.0376C57.7383 51.9932 57.0224 51.7522 56.4054 51.3394C55.8984 50.9833 55.4779 50.5177 55.1753 49.9771L54.8616 49.4405L33.0243 12.1644L32.0666 10.5132C31.8916 9.95586 31.8326 9.36862 31.8932 8.78764C31.9675 7.96115 32.2765 7.17313 32.7839 6.51653C33.2913 5.85992 33.9759 5.3621 34.757 5.0818C35.538 4.80149 36.3829 4.75038 37.1921 4.9345C38.0012 5.11861 38.7408 5.53028 39.3237 6.12093C39.4227 6.21175 39.5135 6.31908 39.6126 6.42641L40.2896 7.69784L62.1929 45.5601C62.1968 45.5736 62.1968 45.5879 62.1929 45.6014L62.4489 46.039C62.7634 46.6571 62.9194 47.3436 62.903 48.0369Z" fill="url(#paint0_linear_612_18900)"/>
<path d="M7.05068 51.5127C6.4636 51.8744 5.79058 52.0728 5.10117 52.0873C4.41177 52.1018 3.731 51.9319 3.12921 51.5953C2.52743 51.2586 2.02646 50.7674 1.67809 50.1723C1.32972 49.5772 1.14658 48.8999 1.1476 48.2103C1.16305 47.6344 1.30989 47.0696 1.57692 46.5591L1.8246 46.0472L4.73899 38.2205L5.56459 36.6271C5.90382 36.2077 6.32526 35.8621 6.803 35.6116C7.61805 35.1907 8.55174 35.0587 9.4515 35.2372C10.3513 35.4156 11.1639 35.894 11.7566 36.594C12.138 37.0577 12.4101 37.6012 12.5531 38.1843C12.696 38.7673 12.7059 39.3751 12.5822 39.9625C12.5598 40.0936 12.5295 40.2232 12.4914 40.3506L11.8887 41.5642L8.58631 49.7047C8.58631 49.7047 8.58631 49.7047 8.58631 49.7459L8.37991 50.167C8.37991 50.167 8.37991 50.167 8.37991 50.2083C8.046 50.7419 7.59051 51.1889 7.05068 51.5127Z" fill="url(#paint1_linear_612_18900)"/>
<path d="M38.9521 5.60082C38.4913 5.14157 37.9326 4.79239 37.3179 4.57937C36.7031 4.36636 36.0482 4.29501 35.402 4.37067C34.5798 4.46764 33.8017 4.79502 33.1575 5.31504C32.5134 5.83507 32.0293 6.52658 31.7611 7.30983C31.6664 7.61743 31.5505 7.91812 31.4143 8.20974C31.3131 8.41539 31.1854 8.60691 31.0345 8.77941L28.4586 13.2294L21.0695 8.9693L24.2233 3.50379C25.0006 2.41972 26.025 1.53645 27.2116 0.927134C28.3982 0.31782 29.713 0 31.0469 0C32.3808 0 33.6956 0.31782 34.8822 0.927134C36.0689 1.53645 37.0933 2.41972 37.8705 3.50379L38.6962 4.93208C38.8035 5.17151 38.8778 5.38617 38.9521 5.60082Z" fill="url(#paint2_linear_612_18900)"/>
<path d="M64.3972 51.2072C64.3972 51.3311 64.3972 51.4549 64.3972 51.5788C64.3972 51.7026 64.3972 51.6861 64.3972 51.7521C64.3478 53.3548 63.875 54.9158 63.0267 56.2765L62.8616 56.5076L62.6635 56.7801C62.6635 56.7801 62.6635 56.7801 62.6222 56.8296C62.5809 56.8792 62.4818 56.9947 62.4158 57.0856C61.9461 57.6393 61.4047 58.1279 60.8059 58.5386L60.6407 58.6542C60.36 58.8276 60.0793 58.9927 59.8151 59.1413L59.5262 59.2734L59.2372 59.389L58.9235 59.5128C58.7123 59.5875 58.4974 59.6509 58.2795 59.7027H58.1557L57.9328 59.7523C57.6686 59.8101 57.4044 59.8513 57.1072 59.8844H56.876H56.6366H56.1495C54.9926 59.8884 53.8478 59.6494 52.7892 59.1826L51.1876 58.4313L14.5554 37.3288L11.1292 35.3639L10.931 35.2483C9.95825 34.7253 8.82732 34.5776 7.75286 34.8333C6.6784 35.089 5.7352 35.7302 5.10226 36.6353L6.75347 33.7705C6.76211 33.7407 6.7761 33.7127 6.79475 33.6879L7.15801 33.0439L7.57907 32.3091C8.75942 30.6744 10.4921 29.5228 12.4563 29.0674C14.4205 28.612 16.4832 28.8838 18.2624 29.8323L18.7082 30.0965L18.7908 30.1378L53.2929 49.8698L55.2413 50.9843C55.3982 51.0834 56.2568 51.6531 57.0246 52.0576C57.1645 52.1407 57.3108 52.2125 57.4622 52.2723C57.5967 52.3299 57.7346 52.3795 57.875 52.4209L58.0153 52.4622C58.3995 52.5696 58.797 52.6224 59.1959 52.619C60.2316 52.6272 61.2372 52.2712 62.037 51.6133C62.8368 50.9553 63.38 50.0372 63.5716 49.0194C63.5755 48.9506 63.5755 48.8817 63.5716 48.813C63.5716 48.7552 63.5716 48.7057 63.5716 48.6561C63.5837 48.4857 63.5837 48.3147 63.5716 48.1442C63.584 47.9656 63.584 47.7863 63.5716 47.6076V47.6819C64.1043 48.7815 64.3863 49.9855 64.3972 51.2072Z" fill="url(#paint3_linear_612_18900)"/>
<path d="M31.0758 48.1525L13.251 58.4148L11.7236 59.2982C10.6647 59.7638 9.52016 60.0028 8.36342 60H7.85154H7.61211H7.38094C7.10323 59.9734 6.82748 59.9293 6.55534 59.8679L6.33243 59.8183H6.20858C5.99393 59.7578 5.77927 59.6917 5.56461 59.6202L5.24263 59.4633C5.14336 59.4136 5.0469 59.3585 4.95366 59.2982L4.6647 59.1661C4.38087 59.0188 4.10526 58.8562 3.8391 58.679L3.67398 58.5634C3.07517 58.1527 2.53376 57.6641 2.06404 57.1103C1.998 57.0195 1.92369 56.937 1.8659 56.8627C1.84489 56.8478 1.82788 56.8279 1.81636 56.8049L1.61822 56.5324L1.4531 56.3013C0.57299 54.9441 0.0713476 53.3764 3.04201e-05 51.7604C3.04201e-05 51.7026 3.04201e-05 51.6448 3.04201e-05 51.587C3.04201e-05 51.5293 3.04201e-05 51.3394 3.04201e-05 51.2155C-0.00326813 50.0003 0.261726 48.7994 0.7761 47.6984L0.825636 47.6076C0.813064 47.7863 0.813064 47.9656 0.825636 48.1443C0.813341 48.3119 0.813341 48.4802 0.825636 48.6479C0.825636 48.7305 0.825636 48.7305 0.825636 48.8048C0.83464 48.8771 0.84843 48.9489 0.866916 49.0194C1.05725 50.0302 1.59439 50.9429 2.38567 51.6001C3.17695 52.2572 4.17277 52.6176 5.20135 52.6191C5.6003 52.6224 5.99773 52.5696 6.38196 52.4622L6.51406 52.4209C6.6576 52.3809 6.79828 52.3313 6.93512 52.2723C7.10709 52.2075 7.27288 52.1274 7.43048 52.0329C8.19829 51.6283 9.08169 51.0587 9.21379 50.9596L11.154 49.845L22.7124 43.2402L31.0758 48.1525Z" fill="url(#paint4_linear_612_18900)"/>
<path d="M27.8215 14.4309L20.4284 10.1625L16.16 17.5556L23.5531 21.824L27.8215 14.4309Z" fill="url(#paint5_linear_612_18900)"/>
<path d="M29.7989 21.3069L26.6386 19.4823L24.814 22.6426L27.9743 24.4672L29.7989 21.3069Z" fill="url(#paint6_linear_612_18900)"/>
<path d="M24.6268 23.8594L19.9149 21.1514L17.2069 25.8633L21.9188 28.5712L24.6268 23.8594Z" fill="url(#paint7_linear_612_18900)"/>
<defs>
<linearGradient id="paint0_linear_612_18900" x1="38.3329" y1="11.702" x2="55.167" y2="42.9347" gradientUnits="userSpaceOnUse">
<stop stop-color="#10566D"/>
<stop offset="1" stop-color="#0099A3"/>
</linearGradient>
<linearGradient id="paint1_linear_612_18900" x1="10.5581" y1="36.9828" x2="5.05297" y2="47.2775" gradientUnits="userSpaceOnUse">
<stop stop-color="#10566D"/>
<stop offset="1" stop-color="#0099A3"/>
</linearGradient>
<linearGradient id="paint2_linear_612_18900" x1="24.9498" y1="12.2965" x2="34.8901" y2="0.663704" gradientUnits="userSpaceOnUse">
<stop stop-color="#10566D"/>
<stop offset="1" stop-color="#0099A3"/>
</linearGradient>
<linearGradient id="paint3_linear_612_18900" x1="61.0288" y1="56.7388" x2="11.2778" y2="29.4938" gradientUnits="userSpaceOnUse">
<stop stop-color="#10566D"/>
<stop offset="1" stop-color="#0099A3"/>
</linearGradient>
<linearGradient id="paint4_linear_612_18900" x1="3.82258" y1="54.7409" x2="24.2316" y2="44.0328" gradientUnits="userSpaceOnUse">
<stop stop-color="#10566D"/>
<stop offset="1" stop-color="#0099A3"/>
</linearGradient>
<linearGradient id="paint5_linear_612_18900" x1="11.3148" y1="22.4802" x2="25.2345" y2="14.0241" gradientUnits="userSpaceOnUse">
<stop stop-color="#10566D"/>
<stop offset="1" stop-color="#0099A3"/>
</linearGradient>
<linearGradient id="paint6_linear_612_18900" x1="15.4096" y1="29.2058" x2="29.3334" y2="20.7426" gradientUnits="userSpaceOnUse">
<stop stop-color="#10566D"/>
<stop offset="1" stop-color="#0099A3"/>
</linearGradient>
<linearGradient id="paint7_linear_612_18900" x1="14.9726" y1="28.4873" x2="28.9275" y2="19.9673" gradientUnits="userSpaceOnUse">
<stop stop-color="#10566D"/>
<stop offset="1" stop-color="#0099A3"/>
</linearGradient>
</defs>
</svg>
