<svg width="81" height="80" viewBox="0 0 81 80" fill="none" xmlns="http://www.w3.org/2000/svg">
<g clip-path="url(#clip0_1617_686)">
<mask id="path-1-inside-1_1617_686" fill="white">
<path d="M25.1723 3.33301H10.9587C7.02984 3.33301 3.83365 6.52935 3.83365 10.4582V56.8517C3.83365 57.1537 3.95361 57.4433 4.16714 57.6569C4.38067 57.8704 4.67028 57.9903 4.97227 57.9903C5.27425 57.9903 5.56386 57.8704 5.77739 57.6569C5.99092 57.4433 6.11089 57.1537 6.11089 56.8517V10.4582C6.11089 7.78507 8.2857 5.61025 10.9587 5.61025H25.1724C27.8454 5.61025 30.0204 7.78507 30.0204 10.4582V72.8748C30.0204 75.5478 27.8456 77.7226 25.1724 77.7226H10.9587C8.2857 77.7226 6.11074 75.5478 6.11074 72.8748V60.6473C6.11074 60.3453 5.99077 60.0557 5.77724 59.8422C5.56371 59.6287 5.2741 59.5087 4.97212 59.5087C4.67014 59.5087 4.38052 59.6287 4.16699 59.8422C3.95346 60.0557 3.8335 60.3453 3.8335 60.6473V72.8748C3.83365 76.8033 7.02984 79.9997 10.9587 79.9997H25.1724C29.1013 79.9997 32.2976 76.8033 32.2976 72.8746V10.4582C32.2975 6.52935 29.1012 3.33301 25.1723 3.33301ZM73.5844 7.39544H34.6381C34.3361 7.39544 34.0465 7.5154 33.8329 7.72894C33.6194 7.94247 33.4995 8.23208 33.4995 8.53406C33.4995 8.83604 33.6194 9.12566 33.8329 9.33919C34.0465 9.55272 34.3361 9.67268 34.6381 9.67268H73.5846C76.0525 9.67268 78.0602 11.6804 78.0602 14.1482V69.1843C78.0602 71.652 76.0525 73.6599 73.5846 73.6599H34.6381C34.3361 73.6599 34.0465 73.7798 33.8329 73.9933C33.6194 74.2069 33.4995 74.4965 33.4995 74.7985C33.4995 75.1004 33.6194 75.3901 33.8329 75.6036C34.0465 75.8171 34.3361 75.9371 34.6381 75.9371H73.5846C77.308 75.9371 80.3374 72.9077 80.3374 69.1843V14.1482C80.3372 10.4248 77.3079 7.39544 73.5844 7.39544Z"/>
</mask>
<path d="M25.1723 3.33301H10.9587C7.02984 3.33301 3.83365 6.52935 3.83365 10.4582V56.8517C3.83365 57.1537 3.95361 57.4433 4.16714 57.6569C4.38067 57.8704 4.67028 57.9903 4.97227 57.9903C5.27425 57.9903 5.56386 57.8704 5.77739 57.6569C5.99092 57.4433 6.11089 57.1537 6.11089 56.8517V10.4582C6.11089 7.78507 8.2857 5.61025 10.9587 5.61025H25.1724C27.8454 5.61025 30.0204 7.78507 30.0204 10.4582V72.8748C30.0204 75.5478 27.8456 77.7226 25.1724 77.7226H10.9587C8.2857 77.7226 6.11074 75.5478 6.11074 72.8748V60.6473C6.11074 60.3453 5.99077 60.0557 5.77724 59.8422C5.56371 59.6287 5.2741 59.5087 4.97212 59.5087C4.67014 59.5087 4.38052 59.6287 4.16699 59.8422C3.95346 60.0557 3.8335 60.3453 3.8335 60.6473V72.8748C3.83365 76.8033 7.02984 79.9997 10.9587 79.9997H25.1724C29.1013 79.9997 32.2976 76.8033 32.2976 72.8746V10.4582C32.2975 6.52935 29.1012 3.33301 25.1723 3.33301ZM73.5844 7.39544H34.6381C34.3361 7.39544 34.0465 7.5154 33.8329 7.72894C33.6194 7.94247 33.4995 8.23208 33.4995 8.53406C33.4995 8.83604 33.6194 9.12566 33.8329 9.33919C34.0465 9.55272 34.3361 9.67268 34.6381 9.67268H73.5846C76.0525 9.67268 78.0602 11.6804 78.0602 14.1482V69.1843C78.0602 71.652 76.0525 73.6599 73.5846 73.6599H34.6381C34.3361 73.6599 34.0465 73.7798 33.8329 73.9933C33.6194 74.2069 33.4995 74.4965 33.4995 74.7985C33.4995 75.1004 33.6194 75.3901 33.8329 75.6036C34.0465 75.8171 34.3361 75.9371 34.6381 75.9371H73.5846C77.308 75.9371 80.3374 72.9077 80.3374 69.1843V14.1482C80.3372 10.4248 77.3079 7.39544 73.5844 7.39544Z" fill="#0E556C"/>
<path d="M3.83365 56.8517H-4.16635H3.83365ZM6.11089 56.8517H14.1109H6.11089ZM6.11074 60.6473H14.1107H6.11074ZM3.8335 60.6473H-4.1665H3.8335ZM3.8335 72.8748H-4.1665V72.8751L3.8335 72.8748ZM32.2976 10.4582H40.2976V10.4579L32.2976 10.4582ZM34.6381 73.6599V81.6599V73.6599ZM80.3374 14.1482H88.3374V14.1479L80.3374 14.1482ZM25.1723 -4.66699H10.9587V11.333H25.1723V-4.66699ZM10.9587 -4.66699C2.61134 -4.66699 -4.16635 2.11129 -4.16635 10.4582H11.8336C11.8336 10.9474 11.4483 11.333 10.9587 11.333V-4.66699ZM-4.16635 10.4582V56.8517H11.8336V10.4582H-4.16635ZM-4.16635 56.8517C-4.16635 59.2754 -3.20356 61.5999 -1.48971 63.3137L9.82399 52C11.1108 53.2868 11.8336 55.032 11.8336 56.8517H-4.16635ZM-1.48971 63.3137C0.224144 65.0276 2.5486 65.9903 4.97227 65.9903V49.9903C6.79197 49.9903 8.5372 50.7132 9.82399 52L-1.48971 63.3137ZM4.97227 65.9903C7.39593 65.9903 9.72039 65.0276 11.4342 63.3137L0.120538 52C1.40733 50.7132 3.15256 49.9903 4.97227 49.9903V65.9903ZM11.4342 63.3137C13.1481 61.5999 14.1109 59.2754 14.1109 56.8517H-1.88911C-1.88911 55.032 -1.16624 53.2868 0.120538 52L11.4342 63.3137ZM14.1109 56.8517V10.4582H-1.88911V56.8517H14.1109ZM14.1109 10.4582C14.1109 12.2032 12.7041 13.6102 10.9587 13.6102V-2.38975C3.86727 -2.38975 -1.88911 3.36695 -1.88911 10.4582H14.1109ZM10.9587 13.6102H25.1724V-2.38975H10.9587V13.6102ZM25.1724 13.6102C23.4273 13.6102 22.0204 12.2035 22.0204 10.4582H38.0204C38.0204 3.36662 32.2635 -2.38975 25.1724 -2.38975V13.6102ZM22.0204 10.4582V72.8748H38.0204V10.4582H22.0204ZM22.0204 72.8748C22.0204 71.1293 23.4275 69.7226 25.1724 69.7226V85.7226C32.2637 85.7226 38.0204 79.9662 38.0204 72.8748H22.0204ZM25.1724 69.7226H10.9587V85.7226H25.1724V69.7226ZM10.9587 69.7226C12.7037 69.7226 14.1107 71.1292 14.1107 72.8748H-1.88926C-1.88926 79.9664 3.86775 85.7226 10.9587 85.7226V69.7226ZM14.1107 72.8748V60.6473H-1.88926V72.8748H14.1107ZM14.1107 60.6473C14.1107 58.2236 13.1479 55.8992 11.4341 54.1853L0.120388 65.4991C-1.16639 64.2123 -1.88926 62.4671 -1.88926 60.6473H14.1107ZM11.4341 54.1853C9.72024 52.4715 7.39578 51.5087 4.97212 51.5087V67.5087C3.15241 67.5087 1.40718 66.7859 0.120388 65.4991L11.4341 54.1853ZM4.97212 51.5087C2.54845 51.5087 0.223993 52.4715 -1.48986 54.1853L9.82384 65.4991C8.53705 66.7858 6.79182 67.5087 4.97212 67.5087V51.5087ZM-1.48986 54.1853C-3.2037 55.8992 -4.1665 58.2236 -4.1665 60.6473H11.8335C11.8335 62.4671 11.1106 64.2123 9.82384 65.4991L-1.48986 54.1853ZM-4.1665 60.6473V72.8748H11.8335V60.6473H-4.1665ZM-4.1665 72.8751C-4.16619 81.2216 2.6115 87.9997 10.9587 87.9997V71.9997C11.4482 71.9997 11.8335 72.385 11.8335 72.8745L-4.1665 72.8751ZM10.9587 87.9997H25.1724V71.9997H10.9587V87.9997ZM25.1724 87.9997C33.5195 87.9997 40.2976 81.2217 40.2976 72.8746H24.2976C24.2976 72.3849 24.6831 71.9997 25.1724 71.9997V87.9997ZM40.2976 72.8746V10.4582H24.2976V72.8746H40.2976ZM40.2976 10.4579C40.2973 2.11106 33.5195 -4.66699 25.1723 -4.66699V11.333C24.6828 11.333 24.2977 10.9476 24.2976 10.4585L40.2976 10.4579ZM73.5844 -0.604558H34.6381V15.3954H73.5844V-0.604558ZM34.6381 -0.604558C32.2144 -0.604558 29.8899 0.358256 28.1761 2.07208L39.4898 13.3858C38.203 14.6726 36.4578 15.3954 34.6381 15.3954V-0.604558ZM28.1761 2.07208C26.4623 3.78591 25.4995 6.11036 25.4995 8.53406H41.4995C41.4995 10.3538 40.7766 12.099 39.4898 13.3858L28.1761 2.07208ZM25.4995 8.53406C25.4995 10.9578 26.4623 13.2822 28.1761 14.996L39.4898 3.68233C40.7766 4.9691 41.4995 6.71432 41.4995 8.53406H25.4995ZM28.1761 14.996C29.8899 16.7099 32.2144 17.6727 34.6381 17.6727V1.67268C36.4578 1.67268 38.203 2.39557 39.4898 3.68233L28.1761 14.996ZM34.6381 17.6727H73.5846V1.67268H34.6381V17.6727ZM73.5846 17.6727C71.6342 17.6727 70.0602 16.0987 70.0602 14.1482H86.0602C86.0602 7.26211 80.4707 1.67268 73.5846 1.67268V17.6727ZM70.0602 14.1482V69.1843H86.0602V14.1482H70.0602ZM70.0602 69.1843C70.0602 67.2339 71.634 65.6599 73.5846 65.6599V81.6599C80.4709 81.6599 86.0602 76.0701 86.0602 69.1843H70.0602ZM73.5846 65.6599H34.6381V81.6599H73.5846V65.6599ZM34.6381 65.6599C32.2144 65.6599 29.89 66.6226 28.1761 68.3365L39.4898 79.6502C38.203 80.937 36.4578 81.6599 34.6381 81.6599V65.6599ZM28.1761 68.3365C26.4622 70.0503 25.4995 72.3748 25.4995 74.7985H41.4995C41.4995 76.6182 40.7766 78.3634 39.4898 79.6502L28.1761 68.3365ZM25.4995 74.7985C25.4995 77.2222 26.4623 79.5466 28.1761 81.2605L39.4898 69.9467C40.7766 71.2335 41.4995 72.9787 41.4995 74.7985H25.4995ZM28.1761 81.2605C29.89 82.9743 32.2144 83.9371 34.6381 83.9371V67.9371C36.4578 67.9371 38.203 68.6599 39.4898 69.9467L28.1761 81.2605ZM34.6381 83.9371H73.5846V67.9371H34.6381V83.9371ZM73.5846 83.9371C81.7263 83.9371 88.3374 77.326 88.3374 69.1843H72.3374C72.3374 68.4894 72.8897 67.9371 73.5846 67.9371V83.9371ZM88.3374 69.1843V14.1482H72.3374V69.1843H88.3374ZM88.3374 14.1479C88.3371 6.00654 81.7262 -0.604558 73.5844 -0.604558V15.3954C72.8895 15.3954 72.3374 14.8431 72.3374 14.1486L88.3374 14.1479Z" fill="white" mask="url(#path-1-inside-1_1617_686)"/>
<mask id="path-3-inside-2_1617_686" fill="white">
<path d="M70.4402 14.877H68.0489C67.7469 14.877 67.4573 14.9969 67.2438 15.2104C67.0302 15.424 66.9103 15.7136 66.9103 16.0156C66.9103 16.3176 67.0302 16.6072 67.2438 16.8207C67.4573 17.0342 67.7469 17.1542 68.0489 17.1542H70.4402C71.2976 17.1542 71.9954 17.852 71.9954 18.7094V26.3012C71.9954 27.1586 71.2976 27.8564 70.4402 27.8564H39.3082C38.4508 27.8564 37.753 27.1586 37.753 26.3012V18.7094C37.7528 17.852 38.4506 17.1542 39.3082 17.1542H64.2534C64.5554 17.1542 64.845 17.0342 65.0586 16.8207C65.2721 16.6072 65.3921 16.3176 65.3921 16.0156C65.3921 15.7136 65.2721 15.424 65.0586 15.2104C64.845 14.9969 64.5554 14.877 64.2534 14.877H39.3082C37.1949 14.877 35.4757 16.5963 35.4757 18.7094V26.3012C35.4757 28.4145 37.1949 30.1336 39.3082 30.1336H70.4404C72.5537 30.1336 74.2728 28.4145 74.2728 26.3012V18.7094C74.2727 16.5963 72.5535 14.877 70.4402 14.877ZM43.9869 33.7012H39.119C37.1101 33.7012 35.4756 35.3356 35.4756 37.3448C35.4756 39.3537 37.11 40.9882 39.119 40.9882H43.9869C45.9958 40.9882 47.6304 39.3538 47.6304 37.3448C47.6304 35.3357 45.996 33.7012 43.9869 33.7012ZM43.9869 38.711H39.119C38.3657 38.711 37.7528 38.0981 37.7528 37.3448C37.7528 36.5913 38.3659 35.9784 39.119 35.9784H43.9869C44.7403 35.9784 45.3532 36.5913 45.3532 37.3448C45.3532 38.0981 44.7403 38.711 43.9869 38.711ZM57.3081 33.7013H52.4403C50.4314 33.7013 48.7969 35.3357 48.7969 37.3449C48.7969 39.3538 50.4313 40.9884 52.4403 40.9884H57.3081C59.317 40.9884 60.9515 39.354 60.9515 37.3449C60.9515 35.3357 59.3171 33.7013 57.3081 33.7013ZM57.3081 38.7109H52.4403C51.687 38.7109 51.0741 38.098 51.0741 37.3446C51.0741 36.5913 51.687 35.9783 52.4403 35.9783H57.3081C58.0614 35.9783 58.6743 36.5911 58.6743 37.3446C58.6743 38.098 58.0614 38.7109 57.3081 38.7109ZM70.6293 33.7013H65.7615C63.7526 33.7013 62.118 35.3357 62.118 37.3449C62.118 39.3538 63.7524 40.9884 65.7615 40.9884H70.6293C72.6383 40.9884 74.2728 39.354 74.2728 37.3449C74.2727 35.3357 72.6383 33.7013 70.6293 33.7013ZM70.6293 38.7109H65.7615C65.0081 38.7109 64.3952 38.098 64.3952 37.3446C64.3952 36.5913 65.0081 35.9783 65.7615 35.9783H70.6293C71.3827 35.9783 71.9956 36.5911 71.9956 37.3446C71.9954 38.098 71.3825 38.7109 70.6293 38.7109ZM43.9869 43.0373H39.119C37.1101 43.0373 35.4756 44.6717 35.4756 46.6809C35.4756 48.6898 37.11 50.3244 39.119 50.3244H43.9869C45.9958 50.3244 47.6304 48.69 47.6304 46.6807C47.6304 44.6717 45.996 43.0373 43.9869 43.0373ZM43.9869 48.0473H39.119C38.3657 48.0473 37.7528 47.4344 37.7528 46.6809C37.7528 45.9276 38.3659 45.3147 39.119 45.3147H43.9869C44.7403 45.3147 45.3532 45.9276 45.3532 46.681C45.3532 47.4344 44.7403 48.0473 43.9869 48.0473ZM57.3081 43.0374H52.4403C50.4314 43.0374 48.7969 44.6718 48.7969 46.681C48.7969 48.6899 50.4313 50.3245 52.4403 50.3245H57.3081C59.317 50.3245 60.9515 48.6901 60.9515 46.6809C60.9515 44.6718 59.3171 43.0374 57.3081 43.0374ZM57.3081 48.0471H52.4403C51.687 48.0471 51.0741 47.4342 51.0741 46.6807C51.0741 45.9274 51.687 45.3145 52.4403 45.3145H57.3081C58.0614 45.3145 58.6743 45.9274 58.6743 46.6809C58.6743 47.4342 58.0614 48.0471 57.3081 48.0471ZM70.6293 43.0374H65.7615C63.7526 43.0374 62.118 44.6718 62.118 46.681C62.118 48.6899 63.7524 50.3245 65.7615 50.3245H70.6293C72.6383 50.3245 74.2728 48.6901 74.2728 46.6809C74.2727 44.6718 72.6383 43.0374 70.6293 43.0374ZM70.6293 48.0471H65.7615C65.0081 48.0471 64.3952 47.4342 64.3952 46.6807C64.3952 45.9274 65.0081 45.3145 65.7615 45.3145H70.6293C71.3827 45.3145 71.9956 45.9274 71.9956 46.6809C71.9954 47.4342 71.3825 48.0471 70.6293 48.0471ZM43.9869 52.3735H39.119C37.1101 52.3735 35.4756 54.0079 35.4756 56.017C35.4756 58.0261 37.11 59.6606 39.119 59.6606H43.9869C45.9958 59.6606 47.6304 58.0262 47.6304 56.017C47.6304 54.0079 45.996 52.3735 43.9869 52.3735ZM43.9869 57.3834H39.119C38.3657 57.3834 37.7528 56.7705 37.7528 56.017C37.7528 55.2637 38.3659 54.6508 39.119 54.6508H43.9869C44.7403 54.6508 45.3532 55.2637 45.3532 56.017C45.3532 56.7703 44.7403 57.3834 43.9869 57.3834ZM57.3081 52.3737H52.4403C50.4314 52.3737 48.7969 54.0081 48.7969 56.0172C48.7969 58.0262 50.4313 59.6608 52.4403 59.6608H57.3081C59.317 59.6608 60.9515 58.0264 60.9515 56.0172C60.9515 54.0081 59.3171 52.3737 57.3081 52.3737ZM57.3081 57.3832H52.4403C51.687 57.3832 51.0741 56.7704 51.0741 56.0169C51.0741 55.2635 51.687 54.6506 52.4403 54.6506H57.3081C58.0614 54.6506 58.6743 55.2635 58.6743 56.0169C58.6743 56.7704 58.0614 57.3832 57.3081 57.3832ZM70.6293 52.3737H65.7615C63.7526 52.3737 62.118 54.0081 62.118 56.0172C62.118 58.0262 63.7524 59.6608 65.7615 59.6608H70.6293C72.6383 59.6608 74.2728 58.0264 74.2728 56.0172C74.2727 54.0081 72.6383 52.3737 70.6293 52.3737ZM70.6293 57.3832H65.7615C65.0081 57.3832 64.3952 56.7704 64.3952 56.0169C64.3952 55.2635 65.0081 54.6506 65.7615 54.6506H70.6293C71.3827 54.6506 71.9956 55.2635 71.9956 56.0169C71.9954 56.7704 71.3825 57.3832 70.6293 57.3832ZM43.9869 61.7098H39.119C37.1101 61.7098 35.4756 63.3442 35.4756 65.3533C35.4756 67.3622 37.11 68.9967 39.119 68.9967H43.9869C45.9958 68.9967 47.6304 67.3623 47.6304 65.3533C47.6304 63.3442 45.996 61.7098 43.9869 61.7098ZM43.9869 66.7195H39.119C38.3657 66.7195 37.7528 66.1066 37.7528 65.3533C37.7528 64.5999 38.3659 63.987 39.119 63.987H43.9869C44.7403 63.987 45.3532 64.5999 45.3532 65.3533C45.3532 66.1066 44.7403 66.7195 43.9869 66.7195ZM57.3081 61.7098H52.4403C50.4314 61.7098 48.7969 63.3442 48.7969 65.3533C48.7969 67.3622 50.4313 68.9967 52.4403 68.9967H57.3081C59.317 68.9967 60.9515 67.3623 60.9515 65.3533C60.9515 63.3442 59.3171 61.7098 57.3081 61.7098ZM57.3081 66.7195H52.4403C51.687 66.7195 51.0741 66.1066 51.0741 65.3533C51.0741 64.5999 51.687 63.987 52.4403 63.987H57.3081C58.0614 63.987 58.6743 64.5999 58.6743 65.3533C58.6743 66.1066 58.0614 66.7195 57.3081 66.7195ZM70.6293 61.7098H65.7615C63.7526 61.7098 62.118 63.3442 62.118 65.3533C62.118 67.3622 63.7524 68.9967 65.7615 68.9967H70.6293C72.6383 68.9967 74.2728 67.3623 74.2728 65.3533C74.2727 63.3442 72.6383 61.7098 70.6293 61.7098ZM70.6293 66.7195H65.7615C65.0081 66.7195 64.3952 66.1066 64.3952 65.3533C64.3952 64.5999 65.0081 63.987 65.7615 63.987H70.6293C71.3827 63.987 71.9956 64.5999 71.9956 65.3533C71.9954 66.1066 71.3825 66.7195 70.6293 66.7195Z"/>
</mask>
<path d="M70.4402 14.877H68.0489C67.7469 14.877 67.4573 14.9969 67.2438 15.2104C67.0302 15.424 66.9103 15.7136 66.9103 16.0156C66.9103 16.3176 67.0302 16.6072 67.2438 16.8207C67.4573 17.0342 67.7469 17.1542 68.0489 17.1542H70.4402C71.2976 17.1542 71.9954 17.852 71.9954 18.7094V26.3012C71.9954 27.1586 71.2976 27.8564 70.4402 27.8564H39.3082C38.4508 27.8564 37.753 27.1586 37.753 26.3012V18.7094C37.7528 17.852 38.4506 17.1542 39.3082 17.1542H64.2534C64.5554 17.1542 64.845 17.0342 65.0586 16.8207C65.2721 16.6072 65.3921 16.3176 65.3921 16.0156C65.3921 15.7136 65.2721 15.424 65.0586 15.2104C64.845 14.9969 64.5554 14.877 64.2534 14.877H39.3082C37.1949 14.877 35.4757 16.5963 35.4757 18.7094V26.3012C35.4757 28.4145 37.1949 30.1336 39.3082 30.1336H70.4404C72.5537 30.1336 74.2728 28.4145 74.2728 26.3012V18.7094C74.2727 16.5963 72.5535 14.877 70.4402 14.877ZM43.9869 33.7012H39.119C37.1101 33.7012 35.4756 35.3356 35.4756 37.3448C35.4756 39.3537 37.11 40.9882 39.119 40.9882H43.9869C45.9958 40.9882 47.6304 39.3538 47.6304 37.3448C47.6304 35.3357 45.996 33.7012 43.9869 33.7012ZM43.9869 38.711H39.119C38.3657 38.711 37.7528 38.0981 37.7528 37.3448C37.7528 36.5913 38.3659 35.9784 39.119 35.9784H43.9869C44.7403 35.9784 45.3532 36.5913 45.3532 37.3448C45.3532 38.0981 44.7403 38.711 43.9869 38.711ZM57.3081 33.7013H52.4403C50.4314 33.7013 48.7969 35.3357 48.7969 37.3449C48.7969 39.3538 50.4313 40.9884 52.4403 40.9884H57.3081C59.317 40.9884 60.9515 39.354 60.9515 37.3449C60.9515 35.3357 59.3171 33.7013 57.3081 33.7013ZM57.3081 38.7109H52.4403C51.687 38.7109 51.0741 38.098 51.0741 37.3446C51.0741 36.5913 51.687 35.9783 52.4403 35.9783H57.3081C58.0614 35.9783 58.6743 36.5911 58.6743 37.3446C58.6743 38.098 58.0614 38.7109 57.3081 38.7109ZM70.6293 33.7013H65.7615C63.7526 33.7013 62.118 35.3357 62.118 37.3449C62.118 39.3538 63.7524 40.9884 65.7615 40.9884H70.6293C72.6383 40.9884 74.2728 39.354 74.2728 37.3449C74.2727 35.3357 72.6383 33.7013 70.6293 33.7013ZM70.6293 38.7109H65.7615C65.0081 38.7109 64.3952 38.098 64.3952 37.3446C64.3952 36.5913 65.0081 35.9783 65.7615 35.9783H70.6293C71.3827 35.9783 71.9956 36.5911 71.9956 37.3446C71.9954 38.098 71.3825 38.7109 70.6293 38.7109ZM43.9869 43.0373H39.119C37.1101 43.0373 35.4756 44.6717 35.4756 46.6809C35.4756 48.6898 37.11 50.3244 39.119 50.3244H43.9869C45.9958 50.3244 47.6304 48.69 47.6304 46.6807C47.6304 44.6717 45.996 43.0373 43.9869 43.0373ZM43.9869 48.0473H39.119C38.3657 48.0473 37.7528 47.4344 37.7528 46.6809C37.7528 45.9276 38.3659 45.3147 39.119 45.3147H43.9869C44.7403 45.3147 45.3532 45.9276 45.3532 46.681C45.3532 47.4344 44.7403 48.0473 43.9869 48.0473ZM57.3081 43.0374H52.4403C50.4314 43.0374 48.7969 44.6718 48.7969 46.681C48.7969 48.6899 50.4313 50.3245 52.4403 50.3245H57.3081C59.317 50.3245 60.9515 48.6901 60.9515 46.6809C60.9515 44.6718 59.3171 43.0374 57.3081 43.0374ZM57.3081 48.0471H52.4403C51.687 48.0471 51.0741 47.4342 51.0741 46.6807C51.0741 45.9274 51.687 45.3145 52.4403 45.3145H57.3081C58.0614 45.3145 58.6743 45.9274 58.6743 46.6809C58.6743 47.4342 58.0614 48.0471 57.3081 48.0471ZM70.6293 43.0374H65.7615C63.7526 43.0374 62.118 44.6718 62.118 46.681C62.118 48.6899 63.7524 50.3245 65.7615 50.3245H70.6293C72.6383 50.3245 74.2728 48.6901 74.2728 46.6809C74.2727 44.6718 72.6383 43.0374 70.6293 43.0374ZM70.6293 48.0471H65.7615C65.0081 48.0471 64.3952 47.4342 64.3952 46.6807C64.3952 45.9274 65.0081 45.3145 65.7615 45.3145H70.6293C71.3827 45.3145 71.9956 45.9274 71.9956 46.6809C71.9954 47.4342 71.3825 48.0471 70.6293 48.0471ZM43.9869 52.3735H39.119C37.1101 52.3735 35.4756 54.0079 35.4756 56.017C35.4756 58.0261 37.11 59.6606 39.119 59.6606H43.9869C45.9958 59.6606 47.6304 58.0262 47.6304 56.017C47.6304 54.0079 45.996 52.3735 43.9869 52.3735ZM43.9869 57.3834H39.119C38.3657 57.3834 37.7528 56.7705 37.7528 56.017C37.7528 55.2637 38.3659 54.6508 39.119 54.6508H43.9869C44.7403 54.6508 45.3532 55.2637 45.3532 56.017C45.3532 56.7703 44.7403 57.3834 43.9869 57.3834ZM57.3081 52.3737H52.4403C50.4314 52.3737 48.7969 54.0081 48.7969 56.0172C48.7969 58.0262 50.4313 59.6608 52.4403 59.6608H57.3081C59.317 59.6608 60.9515 58.0264 60.9515 56.0172C60.9515 54.0081 59.3171 52.3737 57.3081 52.3737ZM57.3081 57.3832H52.4403C51.687 57.3832 51.0741 56.7704 51.0741 56.0169C51.0741 55.2635 51.687 54.6506 52.4403 54.6506H57.3081C58.0614 54.6506 58.6743 55.2635 58.6743 56.0169C58.6743 56.7704 58.0614 57.3832 57.3081 57.3832ZM70.6293 52.3737H65.7615C63.7526 52.3737 62.118 54.0081 62.118 56.0172C62.118 58.0262 63.7524 59.6608 65.7615 59.6608H70.6293C72.6383 59.6608 74.2728 58.0264 74.2728 56.0172C74.2727 54.0081 72.6383 52.3737 70.6293 52.3737ZM70.6293 57.3832H65.7615C65.0081 57.3832 64.3952 56.7704 64.3952 56.0169C64.3952 55.2635 65.0081 54.6506 65.7615 54.6506H70.6293C71.3827 54.6506 71.9956 55.2635 71.9956 56.0169C71.9954 56.7704 71.3825 57.3832 70.6293 57.3832ZM43.9869 61.7098H39.119C37.1101 61.7098 35.4756 63.3442 35.4756 65.3533C35.4756 67.3622 37.11 68.9967 39.119 68.9967H43.9869C45.9958 68.9967 47.6304 67.3623 47.6304 65.3533C47.6304 63.3442 45.996 61.7098 43.9869 61.7098ZM43.9869 66.7195H39.119C38.3657 66.7195 37.7528 66.1066 37.7528 65.3533C37.7528 64.5999 38.3659 63.987 39.119 63.987H43.9869C44.7403 63.987 45.3532 64.5999 45.3532 65.3533C45.3532 66.1066 44.7403 66.7195 43.9869 66.7195ZM57.3081 61.7098H52.4403C50.4314 61.7098 48.7969 63.3442 48.7969 65.3533C48.7969 67.3622 50.4313 68.9967 52.4403 68.9967H57.3081C59.317 68.9967 60.9515 67.3623 60.9515 65.3533C60.9515 63.3442 59.3171 61.7098 57.3081 61.7098ZM57.3081 66.7195H52.4403C51.687 66.7195 51.0741 66.1066 51.0741 65.3533C51.0741 64.5999 51.687 63.987 52.4403 63.987H57.3081C58.0614 63.987 58.6743 64.5999 58.6743 65.3533C58.6743 66.1066 58.0614 66.7195 57.3081 66.7195ZM70.6293 61.7098H65.7615C63.7526 61.7098 62.118 63.3442 62.118 65.3533C62.118 67.3622 63.7524 68.9967 65.7615 68.9967H70.6293C72.6383 68.9967 74.2728 67.3623 74.2728 65.3533C74.2727 63.3442 72.6383 61.7098 70.6293 61.7098ZM70.6293 66.7195H65.7615C65.0081 66.7195 64.3952 66.1066 64.3952 65.3533C64.3952 64.5999 65.0081 63.987 65.7615 63.987H70.6293C71.3827 63.987 71.9956 64.5999 71.9956 65.3533C71.9954 66.1066 71.3825 66.7195 70.6293 66.7195Z" fill="#0E556C" stroke="white" stroke-width="16" mask="url(#path-3-inside-2_1617_686)"/>
</g>
<defs>
<clipPath id="clip0_1617_686">
<rect width="80" height="80" fill="white" transform="translate(0.5)"/>
</clipPath>
</defs>
</svg>
