<svg width="51" height="48" viewBox="0 0 51 48" fill="none" xmlns="http://www.w3.org/2000/svg">
<path fill-rule="evenodd" clip-rule="evenodd" d="M30.1363 21.1865C30.6897 21.1286 31.3041 21.1326 31.8574 21.0747C32.1674 20.6466 32.0473 20.2157 32.0497 19.847C32.084 14.5016 32.1184 9.15622 32.0913 3.81042C32.096 3.07313 31.8546 2.39569 31.7365 1.6576C31.7373 1.53472 31.6152 1.41104 31.616 1.28816C31.4368 0.488238 31.9311 0.0613072 32.7286 0.250767C33.894 0.565477 34.256 1.61235 34.1276 2.47175C34.1264 2.65607 34.0637 2.84 34.0011 3.02392C33.5029 4.06527 33.4962 5.10977 33.489 6.21572C33.4606 10.6395 33.3703 15.1243 33.3419 19.5481C33.3391 19.9782 33.336 20.4697 33.3332 20.8998C33.8842 21.2106 34.6834 21.1543 34.9244 21.8932C35.4754 22.2039 35.9027 22.6368 35.8976 23.4355C37.74 23.5702 39.5226 23.4588 41.3044 23.4703C43.0248 23.4813 44.8066 23.4928 46.5269 23.5038C47.2091 22.5251 48.1914 22.6543 49.1122 22.7831C49.2965 22.7843 49.4801 22.9084 49.6022 23.032C50.0295 23.4649 50.0259 24.0179 49.7766 24.5693C49.5891 25.0596 49.2796 25.4263 48.7262 25.4842C48.2343 25.5425 47.6817 25.4775 47.3154 25.1064C47.0102 24.7973 46.6423 24.672 46.2122 24.6692C42.8944 24.6479 39.638 24.627 36.3202 24.6057C36.2587 24.6053 36.1354 24.6659 36.0126 24.6651C35.7014 25.2776 35.8814 25.9546 35.8156 26.6301C35.8112 27.3059 35.8069 27.9818 35.8022 28.7191C36.109 28.7825 36.2929 28.8451 36.5387 28.8467C37.9518 28.8558 39.365 28.8649 40.7781 28.8739C41.2082 28.8767 41.6387 28.818 42.0097 28.4518C42.7514 27.7806 43.7927 28.2789 43.9707 29.2631C43.9703 29.3246 44.031 29.4479 44.0306 29.5093C44.0869 30.3084 43.8376 30.8598 43.2216 31.1016C42.6056 31.3435 42.1763 31.2178 41.5666 30.4766C41.506 30.3533 41.3839 30.2296 41.2622 30.0445C40.402 30.039 39.4808 29.9716 38.6206 29.9661C37.7604 29.9605 36.9002 29.955 36.04 29.9495C35.7277 30.7463 35.656 32.3433 35.8911 34.0038C36.8111 34.2555 38.6544 34.2674 41.9116 34.1654C42.0352 34.0433 42.1593 33.8598 42.3444 33.7381C42.962 33.2505 43.7587 33.5629 43.9383 34.3013C43.9375 34.4242 43.9982 34.5475 43.997 34.7318C44.0509 35.8996 43.4334 36.3872 42.268 36.0725C42.2065 36.0721 42.084 36.0098 42.023 35.948C41.7201 35.2702 41.1049 35.3891 40.6134 35.386C39.0159 35.3757 37.4184 35.3654 35.7595 35.3548C35.6347 35.6612 35.5094 36.029 35.446 36.3358C35.1935 37.3788 34.5145 37.866 33.5302 38.044C33.2226 38.1034 32.9154 38.1014 32.5464 38.1605C32.3534 39.511 32.3451 40.8013 33.321 41.9136C33.748 42.4079 33.7413 43.4524 33.4305 44.0034C33.3687 44.0644 33.3068 44.1255 33.245 44.1865C32.8129 44.491 31.8299 44.4846 31.4636 44.1136C30.9748 43.6804 30.8567 42.9423 31.1674 42.3913C31.2919 42.1463 31.5392 41.9021 31.6633 41.7186C31.4865 40.55 31.3699 39.5662 31.1931 38.3976C30.7642 38.2105 30.3333 38.3306 29.7185 38.3881C29.5271 39.4929 29.4585 40.5984 29.6976 41.6445C29.8775 42.3216 29.8732 42.9974 29.8689 43.6733C29.8649 44.2877 29.7991 44.9631 30.1642 45.5185C30.3466 45.8269 30.4053 46.2574 30.219 46.5634C30.0945 46.8084 29.9086 47.0529 29.7235 47.1746C29.046 47.4161 28.3698 47.4732 27.7573 47.162C27.3284 46.9749 27.1465 46.6051 27.2725 46.1143C27.399 45.5622 27.5872 44.9489 28.2036 44.6457C28.1513 43.2321 28.3447 41.8201 28.0466 40.405C27.8666 39.728 27.9938 39.0529 28.2439 38.3786C27.0167 38.125 25.9091 38.3636 24.7414 38.4176C24.6775 38.7858 24.6756 39.093 24.6736 39.4002C24.6681 40.2604 24.6625 41.1206 24.5956 41.9804C24.5924 42.4719 24.6515 42.841 24.9559 43.273C25.4439 43.8292 25.3167 44.5042 25.067 45.1171C24.7546 45.9138 24.3856 45.9729 23.2194 45.7811C22.8543 45.2257 22.4896 44.6089 22.6172 43.8724C22.6802 43.6271 22.6826 43.2584 22.8677 43.1367C23.3616 42.7712 23.3033 42.2793 23.3065 41.7878C23.3136 40.6818 23.3207 39.5759 23.2664 38.4695C22.9595 38.4061 22.7142 38.3431 22.5299 38.3419C21.485 38.3966 20.6283 37.8381 19.6469 37.5861C19.2786 37.5222 19.1581 37.1528 19.0986 36.8452C18.9797 36.23 18.9222 35.6152 18.8041 34.8771C16.3476 34.677 13.8876 35.0298 11.4303 34.9526C9.03447 34.8757 6.57681 34.86 4.18099 34.7831C3.80997 35.1494 3.56184 35.5165 3.13057 35.698C2.76073 35.88 2.33104 35.8158 1.90055 35.8744C1.40863 35.9327 1.04155 35.6846 0.612649 35.4975C0.000209579 35.1863 -0.115566 34.0796 0.440566 33.5916C1.18181 32.982 2.41183 32.8055 3.26845 33.364C3.57408 33.6118 3.88089 33.6752 4.24954 33.6776C7.75209 33.6386 11.1932 33.5993 14.6962 33.4989C15.4949 33.5041 16.3555 33.4482 17.1542 33.4533C17.6457 33.4564 18.1377 33.3982 18.691 33.3403C18.8829 32.1741 18.7667 31.1288 18.7128 29.961C18.4059 29.8976 18.1606 29.8346 17.9148 29.833C16.7474 29.8255 15.5186 29.8176 14.3512 29.8101C13.7368 29.8061 13.0609 29.8018 12.4477 29.6135C11.0369 29.2358 9.62338 29.2881 8.14878 29.2787C7.46582 30.3803 6.42289 30.1278 5.37957 29.9367C5.25669 29.936 5.1346 29.8123 5.01212 29.75C4.5844 29.3786 4.59071 28.3956 4.90147 27.8446C5.27367 27.294 5.95071 27.114 6.6246 27.4255C6.80852 27.4882 6.93062 27.6118 7.05271 27.7355C7.29689 27.9829 7.60371 28.0463 7.91092 28.0483C8.40245 28.0514 8.89398 28.0546 9.44695 28.0581C10.4919 28.0034 11.5356 28.133 12.5789 28.324C13.0696 28.4501 13.5612 28.4532 14.0527 28.4564C15.2201 28.4639 16.4489 28.4718 17.6163 28.4793C17.9235 28.4813 18.2311 28.4218 18.5997 28.4242C18.792 27.1965 18.9228 25.9685 19.1146 24.8023C18.6869 24.4309 18.1945 24.5506 17.7645 24.5478C14.0165 24.5237 10.269 24.4382 6.52107 24.4141C5.72233 24.409 4.86214 24.4035 4.00196 24.3979C3.75264 24.9493 3.38242 25.1927 2.76761 25.2502C1.90743 25.2447 1.41867 24.8114 1.17882 23.8882C1.0591 23.3959 1.36946 22.9064 1.86099 22.9095C2.22964 22.9119 2.65934 22.9761 3.0272 23.1013C3.39506 23.2266 3.70187 23.29 4.07052 23.2924C9.04767 23.2629 14.0244 23.2949 19.063 23.2659C19.1859 23.2667 19.3092 23.206 19.5549 23.2076C20.3624 21.861 21.594 21.4388 23.1304 21.3872C23.5605 21.39 24.0528 21.2703 24.5447 21.212C24.5479 20.7205 24.551 20.2289 24.5538 19.7988C24.5597 18.8772 24.5657 17.9556 24.5101 17.0336C24.5137 16.4806 24.3944 15.9269 24.2746 15.4345C24.2164 14.9426 24.1581 14.4507 24.1612 13.9591C24.168 12.9146 24.1132 11.8697 24.1814 10.8256C24.1857 10.1498 24.0668 9.53458 23.5166 9.10093C23.3941 9.0387 23.272 8.91503 23.2728 8.79214C23.2125 8.60742 23.2145 8.30022 23.2767 8.17773C23.71 7.68896 24.2653 7.32386 24.8805 7.20493C25.3725 7.14665 25.7391 7.45622 26.044 7.82685C26.2874 8.19707 26.5296 8.75163 26.1586 9.11791C25.602 9.66733 25.6591 10.3436 25.6548 11.0194C25.65 11.7567 25.6453 12.494 25.6406 13.2313C25.6354 14.0301 25.6307 14.7674 25.8717 15.5062C25.9914 15.9986 26.0497 16.4905 26.0466 16.982C26.0379 18.3337 26.0296 19.624 26.0205 21.0371C26.8791 21.2884 27.8019 21.11 28.6621 21.1156C28.9154 19.9498 28.9426 15.7103 28.843 12.0845C28.7209 11.9608 28.4149 11.7745 28.2322 11.5276C28.1097 11.4653 28.0494 11.2806 27.9884 11.2188C27.6843 10.7253 27.6264 10.1719 27.9372 9.6209C28.2476 9.13134 28.8005 9.1349 29.2917 9.1995C30.0286 9.26568 30.4555 9.75997 30.7592 10.3149C31.0632 10.8084 30.9368 11.3606 30.4425 11.7875C30.257 11.9707 30.1321 12.2771 30.1305 12.5229C30.1128 15.2877 30.0954 17.9911 30.0776 20.756C29.9539 20.8781 30.015 20.9399 30.1363 21.1865ZM20.1451 36.5447C21.0636 37.0422 21.923 37.1706 22.7835 37.1147C26.0403 37.0742 29.2971 37.0336 32.4924 36.9927C32.7997 36.9947 33.1073 36.9352 33.4149 36.8758C33.9127 35.8959 34.1038 34.8526 34.1105 33.8081C34.1318 30.4902 34.1527 27.2338 34.174 23.916C34.1756 23.6702 34.1162 23.3626 34.1169 23.2397C33.6904 22.684 33.2607 22.6198 32.7078 22.6162C29.3891 22.7178 26.1319 22.8197 22.8133 22.9213C22.4447 22.9189 22.0752 23.0394 21.7676 23.0989C21.2139 23.2182 20.9043 23.5849 20.7778 24.1371C20.4619 25.4868 20.0842 26.8976 20.0751 28.3108C20.0609 30.5227 20.0471 32.6731 20.0329 34.885C20.0908 35.4384 20.1487 35.9917 20.1451 36.5447Z" fill="#A6CFD4"/>
<path fill-rule="evenodd" clip-rule="evenodd" d="M27.5901 25.5328C28.6961 25.5399 29.802 25.547 30.908 25.5541C31.891 25.5604 32.3806 25.8708 32.496 27.039C32.5503 28.1453 32.5432 29.2513 32.4746 30.3568C32.4049 31.6467 32.2737 32.9362 32.1429 34.1642C32.0752 35.1469 31.8282 35.3296 30.9054 35.508C30.6593 35.5679 30.4749 35.5667 30.2292 35.5651C28.3245 35.5529 26.4812 35.541 24.5766 35.5288C24.3308 35.5272 24.1465 35.526 23.9011 35.463C23.41 35.3984 23.2272 35.1515 23.1689 34.6595C23.0543 33.3685 22.9394 32.1388 22.8862 30.8482C22.8335 29.4961 22.7189 28.205 22.7276 26.8533C22.7339 25.8702 23.1045 25.5654 24.088 25.5103C25.2557 25.4563 26.4842 25.5257 27.6516 25.5332C27.5905 25.4713 27.5905 25.4713 27.5901 25.5328ZM24.4037 33.7458C25.8771 33.9396 29.5021 33.9629 30.5482 33.7238C30.8082 31.5135 31.1292 29.3651 30.8977 27.1516C29.9154 27.0224 25.3699 26.8088 24.5704 26.9266C24.4475 26.9258 24.3239 27.0479 24.2006 27.1085C23.8792 29.3185 24.4183 31.4725 24.4037 33.7458Z" fill="#A6CFD4"/>
</svg>
