<svg width="40" height="40" viewBox="0 0 40 40" fill="none" xmlns="http://www.w3.org/2000/svg">
<path d="M14.1842 32.2105H15.2369H15.8684H16.9211H21.2658H22.95V30.5263V23.5658C22.95 22.7008 23.0575 22.1744 23.2106 21.9022C23.2671 21.8018 23.3144 21.7641 23.3591 21.7393C23.4116 21.7102 23.5618 21.6447 23.8974 21.6447C24.1198 21.6447 24.2103 21.6825 24.2307 21.6934C24.2405 21.7036 24.2684 21.7393 24.3042 21.8299C24.3648 21.983 24.4177 22.2191 24.4483 22.5635C24.4788 22.9048 24.4816 23.2714 24.4816 23.6842V30.5263V32.2105H26.1658H30.5263H32.2105V30.5263V22.8053C32.2105 20.8791 32.022 18.781 30.9932 17.1463C29.8518 15.3329 27.9213 14.4316 25.2974 14.4316C24.3695 14.4316 23.5303 14.6032 22.7921 14.8927V14.7868H21.1079H16.9211H15.8684H15.2369H15.1706C15.8428 14.0162 16.2153 13.0252 16.2132 11.9965L16.2131 11.9913C16.2088 11.1561 15.957 10.341 15.4895 9.6489C15.022 8.95683 14.3598 8.41889 13.5866 8.10309C12.8134 7.78729 11.964 7.70779 11.1457 7.87465C10.3273 8.04151 9.57683 8.44723 8.98903 9.04054C8.40124 9.63384 8.00252 10.3881 7.8433 11.2079C7.68408 12.0278 7.77149 12.8765 8.09449 13.6467C8.26967 14.0644 8.5099 14.4489 8.80419 14.7868H8.13685V16.4711V30.5263V32.2105H9.82106H14.1842ZM24.2268 21.69C24.2268 21.6898 24.2281 21.6908 24.2306 21.6933C24.228 21.6914 24.2268 21.6902 24.2268 21.69ZM9.8243 4.77098C12.8363 2.75841 16.3775 1.68421 20 1.68421C24.8577 1.68421 29.5163 3.6139 32.9512 7.04878C36.3861 10.4837 38.3158 15.1424 38.3158 20C38.3158 23.6225 37.2416 27.1637 35.229 30.1757C33.2165 33.1877 30.3559 35.5353 27.0092 36.9216C23.6624 38.3079 19.9797 38.6706 16.4268 37.9639C12.8739 37.2571 9.6103 35.5127 7.04879 32.9512C4.48728 30.3897 2.74287 27.1262 2.03615 23.5732C1.32943 20.0203 1.69215 16.3376 3.07843 12.9909C4.4647 9.64408 6.81229 6.78354 9.8243 4.77098Z" fill="#E4E8A8" stroke="#E4E8A8" stroke-width="3.36842"/>
</svg>
