<svg width="24" height="25" viewBox="0 0 24 25" fill="none" xmlns="http://www.w3.org/2000/svg">
<g clip-path="url(#clip0_2421_20418)">
<path d="M10.4881 2.93144L10.4881 2.93143C10.3666 2.95407 10.2411 2.92799 10.1387 2.85883C10.0362 2.78966 9.96513 2.68296 9.94073 2.5618C9.91633 2.44063 9.9406 2.31473 10.0083 2.21131C10.076 2.10789 10.1816 2.03526 10.3024 2.00911L10.3046 2.00864L10.3046 2.00865C10.8308 1.90305 11.3661 1.8499 11.9027 1.85M10.4881 2.93144L17.4619 17.1976L17.4617 17.3476C17.5465 17.3477 17.6297 17.3249 17.7026 17.2815C17.7754 17.2382 17.8352 17.176 17.8756 17.1015M10.4881 2.93144L10.4903 2.93101M10.4881 2.93144L10.4903 2.93101M11.9027 1.85L11.9027 2M11.9027 1.85L11.9027 2M11.9027 1.85C16.3431 1.85 19.9554 5.46229 19.9554 9.90268C19.9554 12.1425 19.252 14.565 17.8756 17.1015M11.9027 2C11.376 1.9999 10.8506 2.05206 10.3342 2.15572L11.9027 2ZM17.8756 17.1015L17.7437 17.03L17.8756 17.1014C17.8756 17.1014 17.8756 17.1015 17.8756 17.1015ZM10.4903 2.93101C10.9519 2.83799 11.4272 2.79084 11.9027 2.79084C15.8241 2.79084 19.0146 5.98131 19.0146 9.90268C19.0146 11.9716 18.3569 14.2421 17.0487 16.6528L10.4903 2.93101ZM9.0724 2.61769L9.12811 2.4803C9.24373 2.52718 9.336 2.61807 9.38461 2.73298C9.43322 2.84788 9.43419 2.9774 9.38732 3.09302C9.34044 3.20864 9.24955 3.30091 9.13464 3.34952L9.13463 3.34953C6.49573 4.46567 4.79084 7.03773 4.79084 9.90268C4.79084 12.7797 6.07949 15.6593 7.5794 18.0334C9.0776 20.4049 10.7758 22.2552 11.5723 23.07L11.5723 23.07C11.6603 23.16 11.7771 23.2092 11.9027 23.2092C12.0283 23.2092 12.1451 23.16 12.2331 23.07L12.2331 23.07C13.1186 22.1642 14.8243 20.2922 16.3002 17.9333L16.3011 17.9318C16.3681 17.8277 16.4733 17.7541 16.5941 17.7271C16.7149 17.7 16.8415 17.7217 16.9465 17.7873C17.0514 17.853 17.1262 17.9574 17.1548 18.0778C17.1833 18.1983 17.1631 18.3251 17.0987 18.4309L17.0978 18.4324C15.5743 20.8673 13.8174 22.7951 12.9059 23.7276L12.7986 23.6228L12.9059 23.7276C12.6399 23.9997 12.2831 24.15 11.9027 24.15C11.5223 24.15 11.1655 23.9997 10.8995 23.7276C9.98143 22.7885 8.2131 20.8471 6.68497 18.3961C4.80927 15.3877 3.85 12.5294 3.85 9.90268C3.85 6.65917 5.78056 3.74661 8.76806 2.48301L9.0724 2.61769ZM9.0724 2.61769L9.12811 2.4803M9.0724 2.61769L9.12811 2.4803M9.12811 2.4803C9.01249 2.43343 8.88298 2.4344 8.76808 2.48301L9.12811 2.4803Z" fill="#0E556C" stroke="#0E556C" stroke-width="0.3"/>
<path d="M9.03343 11.5986L9.09938 11.7333C9.21064 11.6788 9.29593 11.5827 9.33673 11.4657C9.37754 11.3487 9.37056 11.2204 9.31732 11.1085L9.31733 11.1085L9.3166 11.1071C9.12324 10.7121 9.02521 10.2874 9.02521 9.84356C9.02521 8.25681 10.3163 6.96564 11.9031 6.96564C13.4899 6.96564 14.7811 8.25685 14.7811 9.84361C14.7811 11.4304 13.49 12.7215 11.9032 12.7215C11.2617 12.7215 10.6558 12.5156 10.1493 12.1255C10.1003 12.0879 10.0444 12.0602 9.9848 12.0441C9.92515 12.028 9.86292 12.0238 9.80167 12.0318C9.74041 12.0397 9.68131 12.0597 9.62777 12.0905C9.57422 12.1213 9.52727 12.1623 9.48958 12.2113C9.45189 12.2602 9.42421 12.3161 9.40812 12.3758C9.39203 12.4354 9.38785 12.4976 9.39581 12.5589C9.40377 12.6202 9.42372 12.6793 9.45452 12.7328C9.48532 12.7864 9.52636 12.8333 9.57531 12.871C10.2475 13.3886 11.053 13.6624 11.9031 13.6624C14.0089 13.6624 15.7219 11.9494 15.7219 9.84356C15.7219 7.73775 14.0089 6.0248 11.9031 6.0248C9.79732 6.0248 8.08437 7.73775 8.08437 9.84356C8.08437 10.4313 8.21466 10.996 8.47155 11.5208L8.47154 11.5208L8.47228 11.5222C8.52797 11.6329 8.62505 11.7171 8.74246 11.7566C8.85987 11.7961 8.98812 11.7878 9.09938 11.7333L9.03343 11.5986Z" fill="#0E556C" stroke="#0E556C" stroke-width="0.3"/>
</g>
<defs>
<clipPath id="clip0_2421_20418">
<rect width="24" height="24" fill="white" transform="translate(0 0.5)"/>
</clipPath>
</defs>
</svg>
