<svg width="32" height="32" viewBox="0 0 32 32" fill="none" xmlns="http://www.w3.org/2000/svg">
<path d="M13.9752 3.19276L13.9752 3.19275C13.8261 3.22054 13.672 3.18854 13.5464 3.10367C13.4207 3.01879 13.3334 2.88787 13.3035 2.73919C13.2735 2.59051 13.3033 2.43602 13.3864 2.30912C13.4694 2.18222 13.5991 2.0931 13.7473 2.06102L13.7495 2.06054L13.7495 2.06056C14.4478 1.9204 15.1582 1.84987 15.8704 1.85M13.9752 3.19276L23.2825 22.4135C23.3865 22.4136 23.4886 22.3856 23.578 22.3324C23.6674 22.2792 23.7408 22.2029 23.7903 22.1114C25.6228 18.7347 26.5573 15.5128 26.5573 12.5369C26.5573 6.64401 21.7633 1.85 15.8704 1.85M13.9752 3.19276L13.9773 3.19233M13.9752 3.19276L13.9773 3.19233M15.8704 1.85L15.8704 2M15.8704 1.85L15.8704 2M15.8704 2C15.1681 1.99987 14.4676 2.06942 13.779 2.20763L15.8704 2ZM13.9773 3.19233C14.5961 3.06764 15.2331 3.00445 15.8705 3.00445C21.1265 3.00445 25.4029 7.2808 25.4029 12.5369C25.4029 15.3059 24.5228 18.3414 22.7757 21.5608M13.9773 3.19233L23.2825 22.4135C23.1825 22.4134 23.0842 22.3874 22.9973 22.3379C22.9104 22.2884 22.8379 22.2172 22.7868 22.1312C22.7357 22.0452 22.7078 21.9475 22.7058 21.8475C22.7039 21.7475 22.728 21.6487 22.7757 21.5608M12.1602 3.75331L12.1602 3.75332C8.62316 5.24933 6.33794 8.69688 6.33794 12.5369C6.33794 16.3868 8.06187 20.2359 10.0638 23.4046C12.0639 26.5706 14.3308 29.0405 15.3941 30.1283L15.3941 30.1283C15.5208 30.2579 15.6894 30.3289 15.8704 30.3289C16.0514 30.3289 16.22 30.2579 16.3467 30.1283L16.3467 30.1283C17.5287 28.9191 19.8056 26.4202 21.7761 23.271L21.7771 23.2694C21.8592 23.1417 21.9884 23.0514 22.1366 23.0182C22.2848 22.985 22.4402 23.0116 22.5689 23.0921C22.6977 23.1727 22.7895 23.3008 22.8245 23.4486C22.8595 23.5964 22.8348 23.7521 22.7558 23.8818L22.7548 23.8833C20.7261 27.1256 18.3863 29.6932 17.1723 30.9352L17.065 30.8304L17.1723 30.9352C16.827 31.2884 16.3641 31.4833 15.8704 31.4833C15.3767 31.4833 14.9138 31.2884 14.5686 30.9352C13.3458 29.6844 10.9908 27.0989 8.95589 23.8351C6.45817 19.829 5.1835 16.027 5.1835 12.5369C5.1835 8.23231 7.74556 4.36703 11.7104 2.69006M12.1602 3.75331L11.7104 2.69006M12.1602 3.75331C12.3012 3.69367 12.4127 3.58045 12.4702 3.43857C12.5278 3.2967 12.5266 3.13778 12.4669 2.99678C12.4073 2.85579 12.2941 2.74426 12.1522 2.68674C12.0103 2.62922 11.8514 2.63041 11.7104 2.69006M12.1602 3.75331L11.7104 2.69006M22.7757 21.5608L22.9075 21.6324L22.7757 21.5609C22.7757 21.5609 22.7757 21.5608 22.7757 21.5608Z" fill="#0E556C" stroke="#0E556C" stroke-width="0.3"/>
<path d="M12.3778 14.1666L12.3778 14.1666C12.4431 14.3039 12.4517 14.4614 12.4016 14.6049C12.3515 14.7484 12.2469 14.8664 12.1104 14.9332C11.9738 15.0001 11.8165 15.0104 11.6724 14.9619C11.5283 14.9134 11.4092 14.81 11.3409 14.6743L11.3401 14.6728L11.3401 14.6728C11.001 13.98 10.829 13.2346 10.829 12.4585C10.829 9.67838 13.0905 7.41683 15.8707 7.41683C18.6508 7.41683 20.9124 9.67838 20.9124 12.4585C20.9124 15.2386 18.6508 17.5002 15.8707 17.5002C14.7482 17.5002 13.6849 17.1388 12.7974 16.4555C12.7374 16.4092 12.687 16.3516 12.6492 16.2859C12.6114 16.2202 12.5869 16.1477 12.5772 16.0725C12.5674 15.9973 12.5725 15.921 12.5923 15.8478L12.3778 14.1666ZM12.3778 14.1666L12.3771 14.1652M12.3778 14.1666L12.3771 14.1652M12.3771 14.1652C12.1159 13.6317 11.9835 13.0579 11.9835 12.4585C11.9835 10.3152 13.7273 8.57128 15.8707 8.57128C18.014 8.57128 19.758 10.3153 19.758 12.4586C19.758 14.6019 18.0141 16.3458 15.8707 16.3458C15.0045 16.3458 14.1858 16.0675 13.5017 15.5408C13.4416 15.4945 13.3731 15.4606 13.2999 15.4408C13.2267 15.4211 13.1503 15.416 13.0752 15.4257C13 15.4355 12.9275 15.46 12.8618 15.4978C12.7961 15.5356 12.7385 15.5859 12.6922 15.646L12.3771 14.1652Z" fill="#0E556C" stroke="#0E556C" stroke-width="0.3"/>
</svg>
