<svg width="24" height="24" viewBox="0 0 24 24" fill="none" xmlns="http://www.w3.org/2000/svg">
<path d="M18.0738 16.8884C18.0157 16.8884 17.9587 16.8733 17.9082 16.8445C17.8578 16.8158 17.8157 16.7745 17.786 16.7246C17.7564 16.6747 17.7402 16.618 17.7391 16.56C17.738 16.5019 17.7519 16.4446 17.7796 16.3936C19.156 13.8573 19.8539 11.4579 19.8539 9.2619C19.8539 5.07567 16.4481 1.66996 12.2619 1.66996C11.7545 1.66996 11.2472 1.72028 10.7543 1.8196C10.6678 1.83573 10.5784 1.81716 10.5054 1.7679C10.4325 1.71865 10.3819 1.64266 10.3645 1.55638C10.3471 1.47009 10.3644 1.38043 10.4126 1.30678C10.4608 1.23314 10.536 1.18141 10.6221 1.1628C11.1619 1.05443 11.7112 0.999899 12.2619 1C16.8175 1 20.5238 4.70628 20.5238 9.2619C20.5238 11.5707 19.7986 14.0777 18.3684 16.7131C18.3397 16.7662 18.2971 16.8105 18.2452 16.8414C18.1934 16.8722 18.1341 16.8885 18.0738 16.8884ZM12.2619 24C11.9065 24 11.5738 23.8599 11.3252 23.6056C10.3697 22.6281 8.52943 20.6076 6.94009 18.0585C4.98922 14.9295 4 11.9699 4 9.2619C4 5.93395 5.98061 2.94588 9.04589 1.64939C9.12772 1.61477 9.21995 1.61408 9.30228 1.64746C9.38462 1.68085 9.45032 1.74557 9.48494 1.82739C9.51955 1.90922 9.52025 2.00144 9.48687 2.08378C9.45348 2.16612 9.38876 2.23182 9.30694 2.26644C6.49006 3.45786 4.66996 6.20371 4.66996 9.2619C4.66996 15.3644 10.1307 21.4251 11.8043 23.1373C11.9258 23.2616 12.0883 23.33 12.2619 23.33C12.4355 23.33 12.598 23.2616 12.7195 23.1373C13.6494 22.186 15.441 20.2199 16.9922 17.7408C17.0399 17.6666 17.1148 17.6142 17.2009 17.5949C17.2869 17.5757 17.377 17.5911 17.4518 17.6379C17.5265 17.6846 17.5798 17.759 17.6001 17.8447C17.6204 17.9305 17.6061 18.0209 17.5602 18.0961C15.9756 20.6286 14.1473 22.635 13.1986 23.6056C12.95 23.8599 12.6173 24 12.2619 24Z" fill="white"/>
<path d="M12.2618 13.0361C11.4076 13.0361 10.5991 12.7612 9.92383 12.2413C9.88897 12.2145 9.85975 12.181 9.83781 12.1429C9.81588 12.1048 9.80168 12.0627 9.79601 12.0191C9.79034 11.9754 9.79332 11.9311 9.80477 11.8887C9.81623 11.8462 9.83594 11.8064 9.86278 11.7715C9.88962 11.7367 9.92305 11.7074 9.96118 11.6855C9.99931 11.6636 10.0414 11.6494 10.085 11.6437C10.1286 11.638 10.1729 11.641 10.2154 11.6525C10.2579 11.6639 10.2977 11.6836 10.3325 11.7105C10.8896 12.1394 11.5567 12.3661 12.2618 12.3661C14.0074 12.3661 15.4274 10.946 15.4274 9.20055C15.4274 7.45507 14.0073 6.03496 12.2618 6.03496C10.5163 6.03496 9.09623 7.45503 9.09623 9.20051C9.09623 9.68823 9.20409 10.1559 9.41684 10.5904C9.45476 10.67 9.45973 10.7614 9.43067 10.8447C9.40161 10.928 9.34088 10.9965 9.26164 11.0353C9.18241 11.0741 9.09108 11.08 9.00747 11.0519C8.92386 11.0238 8.85472 10.9638 8.81507 10.885C8.55708 10.358 8.42627 9.79123 8.42627 9.20051C8.42627 7.08559 10.1469 5.36499 12.2618 5.36499C14.3767 5.36499 16.0973 7.08559 16.0973 9.20051C16.0973 11.3154 14.3767 13.0361 12.2618 13.0361Z" fill="white"/>
</svg>
