<svg width="81" height="80" viewBox="0 0 81 80" fill="none" xmlns="http://www.w3.org/2000/svg">
<mask id="path-1-inside-1_1617_7063" fill="white">
<path d="M60.746 56.2944C60.5525 56.2943 60.3624 56.2439 60.1943 56.1482C60.0262 56.0524 59.8858 55.9147 59.787 55.7484C59.6881 55.5821 59.6342 55.3929 59.6305 55.1995C59.6267 55.0061 59.6733 54.815 59.7657 54.645C64.3535 46.1907 66.6797 38.1925 66.6797 30.8727C66.6797 16.9186 55.3272 5.56622 41.3733 5.56622C39.6817 5.56622 37.991 5.73393 36.3479 6.06501C36.0595 6.11877 35.7615 6.05686 35.5183 5.89268C35.2752 5.72849 35.1064 5.47522 35.0485 5.1876C34.9906 4.89998 35.0482 4.60112 35.2088 4.35562C35.3695 4.11013 35.6203 3.93772 35.9071 3.87566C37.7067 3.51445 39.5377 3.33267 41.3731 3.33301C56.5585 3.33301 68.9128 15.6873 68.9128 30.8727C68.9128 38.5687 66.4956 46.9252 61.7283 55.7101C61.6324 55.887 61.4905 56.0347 61.3176 56.1375C61.1447 56.2404 60.9472 56.2946 60.746 56.2944ZM41.3731 79.9997C40.1884 79.9997 39.0796 79.5328 38.2509 78.6851C35.0658 75.4268 28.9316 68.6918 23.6338 60.1945C17.1309 49.7646 13.8335 39.8993 13.8335 30.8727C13.8335 19.7795 20.4355 9.81928 30.6531 5.49764C30.9259 5.38226 31.2333 5.37995 31.5078 5.49122C31.7822 5.60249 32.0012 5.81824 32.1166 6.09099C32.232 6.36374 32.2343 6.67116 32.123 6.94561C32.0118 7.22007 31.796 7.43908 31.5233 7.55447C22.1337 11.5259 16.0667 20.6787 16.0667 30.8727C16.0667 51.2145 34.2691 71.4167 39.8479 77.1241C40.2528 77.5384 40.7946 77.7665 41.3731 77.7665C41.9517 77.7665 42.4935 77.5384 42.8984 77.1241C45.9982 73.953 51.9702 67.3994 57.1409 59.1356C57.2997 58.8884 57.5496 58.7137 57.8364 58.6495C58.1231 58.5853 58.4236 58.6367 58.6727 58.7926C58.9218 58.9484 59.0995 59.1962 59.1671 59.4821C59.2348 59.7681 59.187 60.0692 59.0342 60.3201C53.7523 68.7616 47.6579 75.4498 44.4954 78.6851C43.6667 79.5328 42.5579 79.9997 41.3731 79.9997Z"/>
</mask>
<path d="M60.746 56.2944C60.5525 56.2943 60.3624 56.2439 60.1943 56.1482C60.0262 56.0524 59.8858 55.9147 59.787 55.7484C59.6881 55.5821 59.6342 55.3929 59.6305 55.1995C59.6267 55.0061 59.6733 54.815 59.7657 54.645C64.3535 46.1907 66.6797 38.1925 66.6797 30.8727C66.6797 16.9186 55.3272 5.56622 41.3733 5.56622C39.6817 5.56622 37.991 5.73393 36.3479 6.06501C36.0595 6.11877 35.7615 6.05686 35.5183 5.89268C35.2752 5.72849 35.1064 5.47522 35.0485 5.1876C34.9906 4.89998 35.0482 4.60112 35.2088 4.35562C35.3695 4.11013 35.6203 3.93772 35.9071 3.87566C37.7067 3.51445 39.5377 3.33267 41.3731 3.33301C56.5585 3.33301 68.9128 15.6873 68.9128 30.8727C68.9128 38.5687 66.4956 46.9252 61.7283 55.7101C61.6324 55.887 61.4905 56.0347 61.3176 56.1375C61.1447 56.2404 60.9472 56.2946 60.746 56.2944ZM41.3731 79.9997C40.1884 79.9997 39.0796 79.5328 38.2509 78.6851C35.0658 75.4268 28.9316 68.6918 23.6338 60.1945C17.1309 49.7646 13.8335 39.8993 13.8335 30.8727C13.8335 19.7795 20.4355 9.81928 30.6531 5.49764C30.9259 5.38226 31.2333 5.37995 31.5078 5.49122C31.7822 5.60249 32.0012 5.81824 32.1166 6.09099C32.232 6.36374 32.2343 6.67116 32.123 6.94561C32.0118 7.22007 31.796 7.43908 31.5233 7.55447C22.1337 11.5259 16.0667 20.6787 16.0667 30.8727C16.0667 51.2145 34.2691 71.4167 39.8479 77.1241C40.2528 77.5384 40.7946 77.7665 41.3731 77.7665C41.9517 77.7665 42.4935 77.5384 42.8984 77.1241C45.9982 73.953 51.9702 67.3994 57.1409 59.1356C57.2997 58.8884 57.5496 58.7137 57.8364 58.6495C58.1231 58.5853 58.4236 58.6367 58.6727 58.7926C58.9218 58.9484 59.0995 59.1962 59.1671 59.4821C59.2348 59.7681 59.187 60.0692 59.0342 60.3201C53.7523 68.7616 47.6579 75.4498 44.4954 78.6851C43.6667 79.5328 42.5579 79.9997 41.3731 79.9997Z" fill="#0E556C"/>
<path d="M60.746 56.2944L60.7539 48.2944H60.7511L60.746 56.2944ZM59.7657 54.645L66.7954 58.4637L66.797 58.4607L59.7657 54.645ZM36.3479 6.06501L37.8138 13.9296L37.871 13.9189L37.9281 13.9074L36.3479 6.06501ZM35.9071 3.87566L34.3327 -3.96789L34.2737 -3.95606L34.215 -3.94334L35.9071 3.87566ZM41.3731 3.33301L41.3717 11.333H41.3731V3.33301ZM61.7283 55.7101L54.6969 51.8944L54.6947 51.8985L61.7283 55.7101ZM38.2509 78.6851L32.5302 84.2773L32.5303 84.2774L38.2509 78.6851ZM23.6338 60.1945L30.4225 55.962L30.4224 55.9619L23.6338 60.1945ZM30.6531 5.49764L33.7695 12.8657L33.7701 12.8655L30.6531 5.49764ZM31.5233 7.55447L34.6397 14.9225L34.6402 14.9223L31.5233 7.55447ZM39.8479 77.1241L45.5695 71.5327L45.5688 71.532L39.8479 77.1241ZM42.8984 77.1241L37.1776 71.5319L37.1768 71.5327L42.8984 77.1241ZM57.1409 59.1356L50.4106 54.8108L50.3846 54.8513L50.359 54.8922L57.1409 59.1356ZM59.0342 60.3201L65.816 64.5636L65.8417 64.5226L65.8668 64.4813L59.0342 60.3201ZM44.4954 78.6851L50.216 84.2774L50.2162 84.2773L44.4954 78.6851ZM60.7511 48.2944C61.9438 48.2952 63.116 48.6058 64.1526 49.196L56.2361 63.1003C57.6089 63.8819 59.1613 64.2934 60.7409 64.2944L60.7511 48.2944ZM64.1526 49.196C65.1891 49.7862 66.0545 50.6356 66.6639 51.6609L52.91 59.8358C53.7171 61.1938 54.8632 62.3187 56.2361 63.1003L64.1526 49.196ZM66.6639 51.6609C67.2734 52.6863 67.6059 53.8524 67.629 55.0449L51.632 55.3541C51.6625 56.9334 52.1029 58.4778 52.91 59.8358L66.6639 51.6609ZM67.629 55.0449C67.652 56.2374 67.3648 57.4155 66.7954 58.4637L52.7359 50.8263C51.9818 52.2146 51.6014 53.7748 51.632 55.3541L67.629 55.0449ZM66.797 58.4607C71.8276 49.1907 74.6797 39.8785 74.6797 30.8727H58.6797C58.6797 36.5066 56.8795 43.1908 52.7343 50.8293L66.797 58.4607ZM74.6797 30.8727C74.6797 12.5003 59.7455 -2.43378 41.3733 -2.43378V13.5662C50.909 13.5662 58.6797 21.3369 58.6797 30.8727H74.6797ZM41.3733 -2.43378C39.1564 -2.43378 36.9363 -2.21433 34.7677 -1.77738L37.9281 13.9074C39.0457 13.6822 40.2069 13.5662 41.3733 13.5662V-2.43378ZM34.882 -1.79955C36.6598 -2.1309 38.4965 -1.74935 39.9952 -0.737383L31.0415 12.5227C33.0264 13.8631 35.4592 14.3684 37.8138 13.9296L34.882 -1.79955ZM39.9952 -0.737383C41.4939 0.274603 42.5341 1.83571 42.8911 3.60846L27.2059 6.76674C27.6787 9.11472 29.0564 11.1824 31.0415 12.5227L39.9952 -0.737383ZM42.8911 3.60846C43.248 5.38122 42.893 7.22326 41.9028 8.7364L28.5149 -0.0251501C27.2033 1.97898 26.7331 4.41873 27.2059 6.76674L42.8911 3.60846ZM41.9028 8.7364C40.9125 10.2495 39.3666 11.3122 37.5991 11.6947L34.215 -3.94334C31.874 -3.43674 29.8264 -2.02924 28.5149 -0.0251501L41.9028 8.7364ZM37.4814 11.7192C38.7622 11.4621 40.0653 11.3328 41.3717 11.333L41.3746 -4.66699C39.01 -4.66743 36.6511 -4.43325 34.3327 -3.96789L37.4814 11.7192ZM41.3731 11.333C52.1403 11.333 60.9128 20.1055 60.9128 30.8727H76.9128C76.9128 11.269 60.9768 -4.66699 41.3731 -4.66699V11.333ZM60.9128 30.8727C60.9128 36.8967 59.0128 43.9412 54.6969 51.8944L68.7597 59.5258C73.9783 49.9092 76.9128 40.2407 76.9128 30.8727H60.9128ZM54.6947 51.8985C55.286 50.8074 56.1613 49.8964 57.2279 49.2619L65.4074 63.0132C66.8198 62.173 67.9789 60.9667 68.7619 59.5217L54.6947 51.8985ZM57.2279 49.2619C58.2945 48.6275 59.5128 48.2932 60.7539 48.2944L60.7382 64.2944C62.3817 64.296 63.995 63.8533 65.4074 63.0132L57.2279 49.2619ZM41.3731 71.9997C42.3433 71.9997 43.2962 72.4019 43.9716 73.0928L32.5303 84.2774C34.8629 86.6636 38.0336 87.9997 41.3731 87.9997V71.9997ZM43.9717 73.0929C41.0033 70.0563 35.2994 63.7843 30.4225 55.962L16.8451 64.427C22.5638 73.5993 29.1283 80.7973 32.5302 84.2773L43.9717 73.0929ZM30.4224 55.9619C24.4345 46.3579 21.8335 37.9542 21.8335 30.8727H5.8335C5.8335 41.8444 9.82735 53.1712 16.8452 64.4271L30.4224 55.9619ZM21.8335 30.8727C21.8335 22.9938 26.5118 15.9354 33.7695 12.8657L27.5368 -1.87041C14.3592 3.70314 5.8335 16.5652 5.8335 30.8727H21.8335ZM33.7701 12.8655C32.0888 13.5767 30.1938 13.591 28.502 12.9051L34.5136 -1.92262C32.2729 -2.83109 29.763 -2.81222 27.5362 -1.87017L33.7701 12.8655ZM28.502 12.9051C26.8101 12.2191 25.4601 10.8892 24.7488 9.20793L39.4844 2.97404C38.5424 0.747236 36.7543 -1.01415 34.5136 -1.92262L28.502 12.9051ZM24.7488 9.20793C24.0375 7.52662 24.0233 5.63161 24.7092 3.9398L39.5369 9.95143C40.4454 7.7107 40.4265 5.20086 39.4844 2.97404L24.7488 9.20793ZM24.7092 3.9398C25.3951 2.24799 26.725 0.897938 28.4063 0.186655L34.6402 14.9223C36.8671 13.9802 38.6284 12.1921 39.5369 9.95143L24.7092 3.9398ZM28.4069 0.186414C16.0575 5.40968 8.06671 17.4643 8.06671 30.8727H24.0667C24.0667 23.8931 28.2099 17.642 34.6397 14.9225L28.4069 0.186414ZM8.06671 30.8727C8.06671 43.2632 13.5327 54.9439 19.1019 63.7592C24.7624 72.7189 31.1257 79.6458 34.127 82.7162L45.5688 71.532C42.9912 68.8951 37.464 62.8672 32.6286 55.2134C27.7019 47.4153 24.0667 38.824 24.0667 30.8727H8.06671ZM34.1263 82.7154C36.0355 84.6691 38.6395 85.7665 41.3731 85.7665V69.7665C42.9496 69.7665 44.4701 70.4077 45.5695 71.5327L34.1263 82.7154ZM41.3731 85.7665C44.1067 85.7665 46.7108 84.6691 48.62 82.7154L37.1768 71.5327C38.2762 70.4077 39.7967 69.7665 41.3731 69.7665V85.7665ZM48.6192 82.7163C51.9342 79.325 58.3334 72.312 63.9227 63.379L50.359 54.8922C45.6071 62.4868 40.0621 68.5811 37.1776 71.5319L48.6192 82.7163ZM63.8711 63.4604C62.892 64.984 61.3518 66.0604 59.5844 66.4562L56.0883 50.8428C53.7474 51.367 51.7074 52.7927 50.4106 54.8108L63.8711 63.4604ZM59.5844 66.4562C57.817 66.8519 55.9649 66.5352 54.4295 65.5745L62.916 52.0106C60.8824 50.7382 58.4292 50.3187 56.0883 50.8428L59.5844 66.4562ZM54.4295 65.5745C52.894 64.6138 51.7991 63.0867 51.3821 61.3242L66.9522 57.64C66.3998 55.3057 64.9497 53.283 62.916 52.0106L54.4295 65.5745ZM51.3821 61.3242C50.9651 59.5618 51.2595 57.7059 52.2015 56.159L65.8668 64.4813C67.1146 62.4324 67.5045 59.9744 66.9522 57.64L51.3821 61.3242ZM52.2524 56.0767C47.3889 63.8494 41.7213 70.0784 38.7745 73.093L50.2162 84.2773C53.5944 80.8213 60.1156 73.6738 65.816 64.5636L52.2524 56.0767ZM38.7747 73.0928C39.4501 72.4019 40.403 71.9997 41.3731 71.9997V87.9997C44.7127 87.9997 47.8834 86.6636 50.216 84.2774L38.7747 73.0928Z" fill="white" mask="url(#path-1-inside-1_1617_7063)"/>
<mask id="path-3-inside-2_1617_7063" fill="white">
<path d="M41.3734 43.4531C38.526 43.4531 35.831 42.537 33.5802 40.8039C33.4641 40.7144 33.3666 40.603 33.2935 40.4759C33.2204 40.3487 33.1731 40.2085 33.1542 40.0631C33.1353 39.9176 33.1452 39.7699 33.1834 39.6284C33.2216 39.4868 33.2873 39.3541 33.3768 39.2379C33.4662 39.1217 33.5777 39.0243 33.7048 38.9512C33.8319 38.8781 33.9721 38.8308 34.1175 38.8119C34.2629 38.793 34.4106 38.8029 34.5522 38.8411C34.6937 38.8793 34.8264 38.945 34.9426 39.0344C36.7995 40.4641 39.0233 41.2199 41.3736 41.2199C47.192 41.2199 51.9254 36.4863 51.9254 30.668C51.9254 24.8497 47.1919 20.116 41.3734 20.116C35.555 20.116 30.8216 24.8496 30.8216 30.6679C30.8216 32.2936 31.1811 33.8524 31.8903 35.3008C32.0167 35.5663 32.0332 35.871 31.9364 36.1486C31.8395 36.4263 31.6371 36.6545 31.373 36.7838C31.1089 36.9131 30.8044 36.933 30.5257 36.8392C30.247 36.7454 30.0166 36.5455 29.8844 36.2828C29.0244 34.5261 28.5884 32.637 28.5884 30.6679C28.5884 23.6181 34.3237 17.8828 41.3734 17.8828C48.4232 17.8828 54.1585 23.6181 54.1585 30.6679C54.1585 37.7176 48.4232 43.4531 41.3734 43.4531Z"/>
</mask>
<path d="M41.3734 43.4531C38.526 43.4531 35.831 42.537 33.5802 40.8039C33.4641 40.7144 33.3666 40.603 33.2935 40.4759C33.2204 40.3487 33.1731 40.2085 33.1542 40.0631C33.1353 39.9176 33.1452 39.7699 33.1834 39.6284C33.2216 39.4868 33.2873 39.3541 33.3768 39.2379C33.4662 39.1217 33.5777 39.0243 33.7048 38.9512C33.8319 38.8781 33.9721 38.8308 34.1175 38.8119C34.2629 38.793 34.4106 38.8029 34.5522 38.8411C34.6937 38.8793 34.8264 38.945 34.9426 39.0344C36.7995 40.4641 39.0233 41.2199 41.3736 41.2199C47.192 41.2199 51.9254 36.4863 51.9254 30.668C51.9254 24.8497 47.1919 20.116 41.3734 20.116C35.555 20.116 30.8216 24.8496 30.8216 30.6679C30.8216 32.2936 31.1811 33.8524 31.8903 35.3008C32.0167 35.5663 32.0332 35.871 31.9364 36.1486C31.8395 36.4263 31.6371 36.6545 31.373 36.7838C31.1089 36.9131 30.8044 36.933 30.5257 36.8392C30.247 36.7454 30.0166 36.5455 29.8844 36.2828C29.0244 34.5261 28.5884 32.637 28.5884 30.6679C28.5884 23.6181 34.3237 17.8828 41.3734 17.8828C48.4232 17.8828 54.1585 23.6181 54.1585 30.6679C54.1585 37.7176 48.4232 43.4531 41.3734 43.4531Z" fill="#0E556C"/>
<path d="M33.5802 40.8039L38.461 34.4653L38.4609 34.4652L33.5802 40.8039ZM33.3768 39.2379L39.7153 44.1187L39.7157 44.1182L33.3768 39.2379ZM34.9426 39.0344L30.0616 45.3729L30.0621 45.3733L34.9426 39.0344ZM31.8903 35.3008L39.1137 31.8625L39.0947 31.8226L39.0753 31.783L31.8903 35.3008ZM29.8844 36.2828L22.6991 39.8001L22.7185 39.8397L22.7383 39.8791L29.8844 36.2828ZM41.3734 35.4531C40.287 35.4531 39.3091 35.1183 38.461 34.4653L28.6995 47.1425C32.3529 49.9557 36.765 51.4531 41.3734 51.4531V35.4531ZM38.4609 34.4652C39.1771 35.0166 39.7777 35.7038 40.2284 36.4874L26.3587 44.4643C26.9556 45.5021 27.751 46.4122 28.6996 47.1426L38.4609 34.4652ZM40.2284 36.4874C40.6791 37.2711 40.971 38.1358 41.0875 39.0321L25.2209 41.094C25.3751 42.2812 25.7617 43.4264 26.3587 44.4643L40.2284 36.4874ZM41.0875 39.0321C41.2039 39.9285 41.1428 40.8391 40.9073 41.7119L25.4595 37.5448C25.1477 38.7008 25.0666 39.9068 25.2209 41.094L41.0875 39.0321ZM40.9073 41.7119C40.6719 42.5847 40.2668 43.4025 39.7153 44.1187L27.0382 34.3571C26.3077 35.3057 25.7713 36.3889 25.4595 37.5448L40.9073 41.7119ZM39.7157 44.1182C39.1642 44.8346 38.477 45.4352 37.6934 45.886L29.7161 32.0165C28.6783 32.6134 27.7682 33.4089 27.0378 34.3576L39.7157 44.1182ZM37.6934 45.886C36.9098 46.3367 36.0451 46.6286 35.1485 46.7451L33.0865 30.8786C31.8992 31.0329 30.7539 31.4196 29.7161 32.0165L37.6934 45.886ZM35.1485 46.7451C34.2521 46.8616 33.3414 46.8004 32.4686 46.565L36.6358 31.1172C35.4798 30.8053 34.2738 30.7243 33.0865 30.8786L35.1485 46.7451ZM32.4686 46.565C31.5957 46.3295 30.7779 45.9244 30.0616 45.3729L39.8236 32.696C38.875 31.9655 37.7917 31.429 36.6358 31.1172L32.4686 46.565ZM30.0621 45.3733C33.3222 47.8834 37.2631 49.2199 41.3736 49.2199V33.2199C40.7834 33.2199 40.2768 33.0449 39.8231 32.6956L30.0621 45.3733ZM41.3736 49.2199C51.6104 49.2199 59.9254 40.9045 59.9254 30.668H43.9254C43.9254 32.0681 42.7737 33.2199 41.3736 33.2199V49.2199ZM59.9254 30.668C59.9254 20.4315 51.6102 12.116 41.3734 12.116V28.116C42.7735 28.116 43.9254 29.2679 43.9254 30.668H59.9254ZM41.3734 12.116C31.1367 12.116 22.8216 20.4314 22.8216 30.6679H38.8216C38.8216 29.2678 39.9734 28.116 41.3734 28.116V12.116ZM22.8216 30.6679C22.8216 33.5026 23.4553 36.2657 24.7053 38.8187L39.0753 31.783C38.9069 31.439 38.8216 31.0846 38.8216 30.6679H22.8216ZM24.6669 38.7391C23.8879 37.1026 23.7858 35.2249 24.3828 33.5136L39.49 38.7836C40.2806 36.517 40.1455 34.0301 39.1137 31.8625L24.6669 38.7391ZM24.3828 33.5136C24.9798 31.8023 26.2276 30.3955 27.8555 29.5986L34.8905 43.969C37.0465 42.9135 38.6993 41.0502 39.49 38.7836L24.3828 33.5136ZM27.8555 29.5986C29.4833 28.8017 31.3598 28.679 33.0775 29.2571L27.9739 44.4213C30.2491 45.187 32.7344 45.0245 34.8905 43.969L27.8555 29.5986ZM33.0775 29.2571C34.7953 29.8352 36.2157 31.0675 37.0305 32.6865L22.7383 39.8791C23.8174 42.0234 25.6988 43.6556 27.9739 44.4213L33.0775 29.2571ZM37.0697 32.7655C36.7495 32.1114 36.5884 31.4262 36.5884 30.6679H20.5884C20.5884 33.8477 21.2994 36.9408 22.6991 39.8001L37.0697 32.7655ZM36.5884 30.6679C36.5884 28.0364 38.742 25.8828 41.3734 25.8828V9.88281C29.9054 9.88281 20.5884 19.1999 20.5884 30.6679H36.5884ZM41.3734 25.8828C44.0049 25.8828 46.1585 28.0364 46.1585 30.6679H62.1585C62.1585 19.1999 52.8415 9.88281 41.3734 9.88281V25.8828ZM46.1585 30.6679C46.1585 33.2995 44.0048 35.4531 41.3734 35.4531V51.4531C52.8416 51.4531 62.1585 42.1358 62.1585 30.6679H46.1585Z" fill="white" mask="url(#path-3-inside-2_1617_7063)"/>
</svg>
