<svg width="182" height="70" viewBox="0 0 182 70" fill="none" xmlns="http://www.w3.org/2000/svg">
<path d="M96.649 41.0171H91.0142V35.2378L86.5257 35.3341V55.5615H80.8428V30.5181H86.5257V31.4813L90.0221 30.8456C91.1933 30.612 92.3825 30.4798 93.5764 30.4507C95.6376 30.4507 96.6779 31.4717 96.6779 33.504L96.649 41.0171Z" fill="#0099A3"/>
<path d="M115.99 55.6001H110.558V54.7332L106.705 55.3304C105.431 55.543 104.143 55.6686 102.852 55.7061C100.784 55.7061 99.7505 54.6883 99.7505 52.6527V43.6178C99.7505 41.5566 100.81 40.5259 102.948 40.5259H110.654V34.7467H105.221V38.3202H100.088V33.6486C100.088 31.5874 101.147 30.5471 103.285 30.5471H112.918C115.017 30.5471 116.067 31.5874 116.067 33.6486L115.99 55.6001ZM110.615 51.073V44.3306H105.183V51.2464L110.615 51.073Z" fill="#0099A3"/>
<path d="M136.786 50.572C136.824 51.2521 136.718 51.9325 136.474 52.5684C136.23 53.2044 135.853 53.7813 135.37 54.2611C134.337 55.188 132.98 55.6693 131.594 55.5999H120.036V16.7827H125.719V31.4716C127.038 31.2693 128.358 31.0671 129.687 30.8455C130.998 30.6173 132.325 30.4853 133.655 30.4506C135.717 30.4506 136.757 31.4716 136.757 33.504L136.786 50.572ZM131.074 49.002V35.2859L125.747 35.3822V50.8899H129.263C130.477 50.8899 131.074 50.2638 131.074 49.002Z" fill="#0099A3"/>
<path d="M160.5 48.2894C160.554 49.2768 160.4 50.2644 160.048 51.1885C159.697 52.1127 159.155 52.9527 158.458 53.6545C157.717 54.3211 156.851 54.8344 155.91 55.1651C154.97 55.4957 153.973 55.637 152.978 55.5809H141.149V16.7829H152.978C153.977 16.7301 154.976 16.8775 155.917 17.2166C156.859 17.5557 157.722 18.0796 158.458 18.7575C159.155 19.4654 159.696 20.3107 160.047 21.2394C160.399 22.1681 160.553 23.1599 160.5 24.1515V48.2894ZM154.663 47.3262V25.0665C154.663 22.9025 153.533 21.8205 151.273 21.8205H146.948V50.7167H151.119C153.488 50.6204 154.663 49.5223 154.663 47.3166V47.3262Z" fill="#0099A3"/>
<path d="M181.855 21.9166H175.449V55.6288H169.67V21.9166H163.274V16.7827H181.855V21.9166Z" fill="#0099A3"/>
<path d="M73.5322 56.0431C73.497 56.9085 73.2319 57.7489 72.7641 58.4778C72.2963 59.2067 71.6427 59.7978 70.8706 60.1902C70.0985 60.5826 69.2358 60.7622 68.3712 60.7105C67.5067 60.6588 66.6715 60.3776 65.9517 59.8959C65.3601 59.4805 64.8696 58.9374 64.5165 58.3066L64.1505 57.6805L38.6737 14.1917L37.5564 12.2653C37.3522 11.6151 37.2834 10.93 37.3541 10.2522C37.4408 9.28799 37.8013 8.36864 38.3933 7.60259C38.9853 6.83655 39.784 6.25577 40.6952 5.92874C41.6064 5.60172 42.5921 5.54209 43.5361 5.75689C44.4801 5.9717 45.343 6.45197 46.023 7.14107C46.1386 7.24702 46.2445 7.37224 46.3601 7.49745L47.1499 8.98079L72.7038 53.1534C72.7084 53.1692 72.7084 53.1859 72.7038 53.2016L73.0024 53.7121C73.3694 54.4332 73.5514 55.2342 73.5322 56.0431Z" fill="#0099A3"/>
<path d="M8.37131 60.0983C7.68637 60.5203 6.90118 60.7517 6.09688 60.7686C5.29257 60.7855 4.49834 60.5874 3.79626 60.1946C3.09417 59.8018 2.50972 59.2287 2.10328 58.5344C1.69685 57.8401 1.48319 57.0499 1.48438 56.2455C1.5024 55.5736 1.67371 54.9146 1.98525 54.319L2.27421 53.7219L5.67433 44.5907L6.63754 42.7317C7.0333 42.2424 7.52498 41.8392 8.08234 41.5469C9.03323 41.0559 10.1225 40.9019 11.1723 41.1101C12.222 41.3183 13.1701 41.8764 13.8616 42.6931C14.3065 43.2341 14.624 43.8681 14.7907 44.5484C14.9575 45.2286 14.9691 45.9377 14.8248 46.623C14.7986 46.7759 14.7632 46.9271 14.7188 47.0757L14.0157 48.4917L10.1629 57.9889C10.1629 57.9889 10.1629 57.9889 10.1629 58.037L9.92207 58.5283C9.92207 58.5283 9.92207 58.5283 9.92207 58.5764C9.53251 59.199 9.0011 59.7205 8.37131 60.0983Z" fill="#0099A3"/>
<path d="M45.5896 6.5343C45.052 5.9985 44.4002 5.59112 43.683 5.3426C42.9658 5.09408 42.2017 5.01085 41.4478 5.09912C40.4886 5.21225 39.5809 5.59418 38.8293 6.20088C38.0778 6.80758 37.513 7.61434 37.2001 8.52813C37.0896 8.887 36.9544 9.2378 36.7955 9.57803C36.6775 9.81796 36.5285 10.0414 36.3525 10.2426L33.3473 15.4343L24.7266 10.4642L28.406 4.08775C29.3128 2.82301 30.508 1.79252 31.8924 1.08166C33.2768 0.37079 34.8107 0 36.3669 0C37.9232 0 39.457 0.37079 40.8414 1.08166C42.2259 1.79252 43.421 2.82301 44.3278 4.08775L45.291 5.7541C45.4162 6.03343 45.5029 6.28386 45.5896 6.5343Z" fill="#0099A3"/>
<path d="M75.2756 59.7418C75.2756 59.8863 75.2756 60.0308 75.2756 60.1753C75.2756 60.3198 75.2756 60.3005 75.2756 60.3776C75.218 62.2473 74.6663 64.0685 73.6767 65.6559L73.4841 65.9256L73.2529 66.2435C73.2529 66.2435 73.2529 66.2435 73.2047 66.3013C73.1566 66.3591 73.041 66.4939 72.9639 66.5999C72.4159 67.2459 71.7843 67.816 71.0857 68.2951L70.893 68.43C70.5656 68.6322 70.2381 68.8249 69.9298 68.9983L69.5927 69.1524L69.2556 69.2872L68.8896 69.4317C68.6432 69.5188 68.3924 69.5927 68.1383 69.6532H67.9938L67.7337 69.711C67.4255 69.7785 67.1173 69.8266 66.7705 69.8652H66.5008H66.2215H65.6532C64.3035 69.8699 62.9679 69.591 61.7329 69.0464L59.8643 68.1699L17.1269 43.5503L13.1296 41.2579L12.8984 41.1231C11.7635 40.5129 10.4441 40.3406 9.19052 40.6389C7.93698 40.9372 6.83658 41.6853 6.09814 42.7412L8.02456 39.3989C8.03464 39.3642 8.05096 39.3315 8.07272 39.3026L8.49653 38.5513L8.98776 37.694C10.3648 35.7869 12.3863 34.4433 14.6779 33.912C16.9694 33.3807 19.3759 33.6978 21.4517 34.8044L21.9718 35.1127L22.0681 35.1608L62.3205 58.1815L64.5937 59.4818C64.7767 59.5974 65.7784 60.262 66.6742 60.7339C66.8374 60.8309 67.0081 60.9146 67.1847 60.9844C67.3417 61.0516 67.5025 61.1095 67.6663 61.1578L67.83 61.2059C68.2783 61.3312 68.742 61.3928 69.2074 61.3889C70.4157 61.3985 71.5889 60.9832 72.522 60.2155C73.4552 59.4479 74.0889 58.3768 74.3124 57.1893C74.317 57.1091 74.317 57.0287 74.3124 56.9485C74.3124 56.8811 74.3124 56.8233 74.3124 56.7655C74.3265 56.5667 74.3265 56.3672 74.3124 56.1684C74.3268 55.9599 74.3268 55.7507 74.3124 55.5423V55.629C74.9339 56.9118 75.2628 58.3165 75.2756 59.7418Z" fill="#0099A3"/>
<path d="M36.4006 56.1779L15.605 68.1505L13.8231 69.1811C12.5877 69.7243 11.2524 70.0032 9.90283 69.9999H9.30564H9.02631H8.75661C8.43261 69.9689 8.11089 69.9174 7.7934 69.8458L7.53334 69.788H7.38886C7.13842 69.7173 6.88799 69.6403 6.63756 69.5568L6.2619 69.3738C6.1461 69.3158 6.03355 69.2515 5.92478 69.1811L5.58766 69.027C5.25652 68.8552 4.93498 68.6655 4.62445 68.4587L4.43181 68.3239C3.73321 67.8448 3.10156 67.2747 2.55356 66.6287C2.4765 66.5227 2.38981 66.4264 2.32239 66.3397C2.29788 66.3223 2.27803 66.2991 2.2646 66.2723L2.03343 65.9544L1.84079 65.6847C0.813996 64.1013 0.228747 62.2724 0.145543 60.3871C0.145543 60.3196 0.145543 60.2522 0.145543 60.1848C0.145543 60.1174 0.145543 59.8958 0.145543 59.7514C0.141695 58.3336 0.450855 56.9325 1.05096 55.6481L1.10875 55.5421C1.09408 55.7506 1.09408 55.9598 1.10875 56.1682C1.09441 56.3638 1.09441 56.5602 1.10875 56.7558C1.10875 56.8521 1.10875 56.8521 1.10875 56.9388C1.11925 57.0232 1.13534 57.1069 1.15691 57.1892C1.37897 58.3685 2.00562 59.4333 2.92879 60.2C3.85196 60.9666 5.01374 61.3871 6.21374 61.3888C6.67919 61.3927 7.14286 61.3311 7.59113 61.2058L7.74524 61.1576C7.91271 61.111 8.07683 61.0531 8.23648 60.9843C8.43711 60.9087 8.63053 60.8152 8.8144 60.7049C9.71018 60.233 10.7408 59.5683 10.8949 59.4528L13.1585 58.1524L26.6434 50.4468L36.4006 56.1779Z" fill="#0099A3"/>
<path d="M32.6037 16.836L23.9785 11.8562L18.9987 20.4814L27.624 25.4612L32.6037 16.836Z" fill="#0099A3"/>
<path d="M34.9111 24.8579L31.2241 22.7292L29.0954 26.4162L32.7824 28.5449L34.9111 24.8579Z" fill="#0099A3"/>
<path d="M28.8766 27.8358L23.3794 24.6765L20.2201 30.1737L25.7173 33.333L28.8766 27.8358Z" fill="#0099A3"/>
</svg>
