<svg width="24" height="24" viewBox="0 0 24 24" fill="none" xmlns="http://www.w3.org/2000/svg">
<path d="M1.44231 16.3846C1.55961 16.3846 1.67212 16.338 1.75507 16.255C1.83802 16.1721 1.88462 16.0596 1.88462 15.9423V14.173C1.88462 14.0557 1.83802 13.9432 1.75507 13.8603C1.67212 13.7773 1.55961 13.7307 1.44231 13.7307C1.325 13.7307 1.2125 13.7773 1.12955 13.8603C1.0466 13.9432 1 14.0557 1 14.173V15.9423C1 16.0596 1.0466 16.1721 1.12955 16.255C1.2125 16.338 1.325 16.3846 1.44231 16.3846Z" fill="white"/>
<path d="M21.7885 4H3.21154C2.625 4 2.06249 4.233 1.64774 4.64774C1.233 5.06249 1 5.625 1 6.21154V12.4038C1 12.5212 1.0466 12.6337 1.12955 12.7166C1.2125 12.7996 1.325 12.8462 1.44231 12.8462C1.55961 12.8462 1.67212 12.7996 1.75507 12.7166C1.83802 12.6337 1.88462 12.5212 1.88462 12.4038V6.21154C1.88708 5.90606 1.99488 5.61079 2.18981 5.37558L10.9342 14.12C11.1397 14.326 11.3837 14.4894 11.6524 14.6008C11.9211 14.7123 12.2091 14.7697 12.5 14.7697C12.7909 14.7697 13.0789 14.7123 13.3476 14.6008C13.6163 14.4894 13.8603 14.326 14.0658 14.12L22.8102 5.37558C23.0051 5.61079 23.1129 5.90606 23.1154 6.21154V18.5962C23.1154 18.9481 22.9756 19.2856 22.7267 19.5344C22.4779 19.7833 22.1404 19.9231 21.7885 19.9231H3.21154C2.85962 19.9231 2.52211 19.7833 2.27326 19.5344C2.02442 19.2856 1.88462 18.9481 1.88462 18.5962V17.7115C1.88462 17.5942 1.83802 17.4817 1.75507 17.3988C1.67212 17.3158 1.55961 17.2692 1.44231 17.2692C1.325 17.2692 1.2125 17.3158 1.12955 17.3988C1.0466 17.4817 1 17.5942 1 17.7115V18.5962C1 19.1827 1.233 19.7452 1.64774 20.1599C2.06249 20.5747 2.625 20.8077 3.21154 20.8077H21.7885C22.375 20.8077 22.9375 20.5747 23.3523 20.1599C23.767 19.7452 24 19.1827 24 18.5962V6.21154C24 5.625 23.767 5.06249 23.3523 4.64774C22.9375 4.233 22.375 4 21.7885 4ZM13.4377 13.4919C13.1889 13.7404 12.8516 13.88 12.5 13.88C12.1484 13.88 11.8111 13.7404 11.5623 13.4919L2.97712 4.90673C3.05447 4.89259 3.1329 4.88519 3.21154 4.88462H21.7885C21.8671 4.88519 21.9455 4.89259 22.0229 4.90673L13.4377 13.4919Z" fill="white"/>
</svg>
