<svg width="939" height="190" viewBox="0 0 939 190" fill="none" xmlns="http://www.w3.org/2000/svg">
<mask id="mask0_857_75056" style="mask-type:alpha" maskUnits="userSpaceOnUse" x="0" y="0" width="939" height="190">
<rect width="939" height="190" transform="matrix(-1 0 0 1 939 0)" fill="white"/>
</mask>
<g mask="url(#mask0_857_75056)">
<g opacity="0.1">
<mask id="mask1_857_75056" style="mask-type:luminance" maskUnits="userSpaceOnUse" x="117" y="0" width="822" height="626">
<path d="M117.018 0H939V626H117.018V0Z" fill="white"/>
</mask>
<g mask="url(#mask1_857_75056)">
<path d="M803.278 84.9785L940.508 171.249V171.273L803.278 257.543L803.264 257.535V84.9863L803.278 84.9785Z" fill="#1A5D7D"/>
<path style="mix-blend-mode:multiply" opacity="0.5" d="M940.508 343.823L915.294 327.969L803.278 257.552L940.508 171.281V343.823Z" fill="url(#paint0_linear_857_75056)"/>
<path style="mix-blend-mode:multiply" opacity="0.5" d="M528.765 -87.5791L528.779 -87.5869L666.016 -1.30846V-1.29281L528.779 84.9778L528.765 84.97V-87.5791Z" fill="url(#paint1_linear_857_75056)"/>
<path d="M666.016 171.249L528.779 84.9786L666.016 -1.29199V171.249Z" fill="#40A1BC"/>
<path d="M666.029 -1.30078L803.266 84.9699V84.9855L666.029 171.256L666.015 171.248V-1.29295L666.029 -1.30078Z" fill="#649A98"/>
<path d="M391.451 -2.33203L528.688 83.9386V83.9542L391.451 170.225L391.437 170.217V-2.32421L391.451 -2.33203Z" fill="#649A98"/>
<path d="M254.279 84.9787L391.516 -1.29187V171.249L254.279 84.9787Z" fill="#9FC6C5"/>
<path style="mix-blend-mode:multiply" opacity="0.3" d="M391.516 -1.30821V-1.29256L254.279 84.9781L254.265 84.9702V-87.5788L254.279 -87.5867L391.516 -1.30821Z" fill="url(#paint2_linear_857_75056)"/>
<path d="M117.029 -1.30064L254.266 -87.5791V84.97L117.029 -1.30064Z" fill="#2A3538"/>
<path d="M803.264 84.97V-87.5713L803.278 -87.5869L940.508 -1.30846V-1.29281L803.278 84.9778L803.264 84.97Z" fill="#649A98"/>
<path d="M666.015 -1.30734V-173.856L666.029 -173.864L803.266 -87.5936V-87.5702V84.9711L666.029 -1.29953L666.015 -1.30734Z" fill="#9FC6C5"/>
<path d="M391.517 -173.856L391.531 -173.864L528.768 -87.5936L528.781 -87.5858L528.768 -87.578V84.9711L391.531 -1.29953L391.517 -1.30734V-173.856Z" fill="#2A3538"/>
<path d="M391.516 171.249V171.265L254.279 257.543L254.265 257.535V84.9863L254.279 84.9785L391.516 171.249Z" fill="#1A5D7D"/>
<path style="mix-blend-mode:multiply" opacity="0.5" d="M803.28 430.107L803.267 430.092L666.03 343.821L803.267 257.55L803.274 257.543L803.267 257.55V257.535L803.28 257.543L915.296 327.96L940.51 343.813V171.272V171.248L803.28 84.9778L940.51 -1.29284V-1.30849L940.531 -1.30067L1077.76 -87.5713V84.9621V84.97L1077.78 84.9778L1077.76 84.9856L940.531 171.256L1077.76 257.527L940.531 343.797L940.551 343.805L940.531 343.821L940.517 343.829H940.51L902.192 367.922L803.28 430.107Z" fill="url(#paint3_linear_857_75056)"/>
<path d="M803.266 257.536V257.552L666.029 343.823L666.015 343.815V171.273L666.029 171.258L803.266 257.536Z" fill="white"/>
<path d="M803.267 84.9707L803.281 84.9787L803.267 84.9866V84.9707Z" fill="#0E1E23"/>
<path d="M238.719 259.414V259.422L163.829 212.339L238.719 165.264V259.414Z" fill="#40A1BC"/>
<path d="M254.267 84.9876V84.9717L254.281 84.9796L254.267 84.9876Z" fill="#0E1E23"/>
<path d="M528.767 257.536V84.9873V84.9717L528.781 84.9795L666.018 171.25L666.031 171.258L666.018 171.274L528.781 257.544L528.767 257.552V257.536Z" fill="#1A5D7D"/>
<path d="M391.531 171.257L391.517 171.265V171.249L391.531 171.257Z" fill="#0E1E23"/>
<path d="M391.521 171.227L528.744 84.9561L528.758 84.9482V84.9717V257.497L391.521 171.227Z" fill="white"/>
<path d="M391.523 171.273V171.296L254.314 257.551L254.294 257.535L254.273 257.551V85.0176L254.294 85.002L391.523 171.273Z" fill="url(#paint4_linear_857_75056)"/>
<path d="M803.031 256.393L777.817 240.539L665.801 170.122L803.031 83.8516V256.393Z" fill="#2A3538"/>
<path d="M939 343.11L913.779 327.256L801.763 256.839L939 170.568V343.11Z" fill="#649A98"/>
</g>
</g>
</g>
<defs>
<linearGradient id="paint0_linear_857_75056" x1="817.183" y1="127.195" x2="969.777" y2="313.61" gradientUnits="userSpaceOnUse">
<stop offset="0.37" stop-color="#0E1E23"/>
<stop offset="0.4" stop-color="#39464A"/>
<stop offset="0.42" stop-color="#626D70"/>
<stop offset="0.46" stop-color="#889092"/>
<stop offset="0.49" stop-color="#A8AEB0"/>
<stop offset="0.53" stop-color="#C4C8C9"/>
<stop offset="0.57" stop-color="#DADCDD"/>
<stop offset="0.62" stop-color="#EBECEC"/>
<stop offset="0.68" stop-color="#F6F7F7"/>
<stop offset="0.76" stop-color="#FDFDFD"/>
<stop offset="1" stop-color="white"/>
</linearGradient>
<linearGradient id="paint1_linear_857_75056" x1="626.896" y1="102.506" x2="538.76" y2="-36.3675" gradientUnits="userSpaceOnUse">
<stop offset="0.37" stop-color="#0E1E23"/>
<stop offset="0.4" stop-color="#39464A"/>
<stop offset="0.42" stop-color="#626D70"/>
<stop offset="0.46" stop-color="#889092"/>
<stop offset="0.49" stop-color="#A8AEB0"/>
<stop offset="0.53" stop-color="#C4C8C9"/>
<stop offset="0.57" stop-color="#DADCDD"/>
<stop offset="0.62" stop-color="#EBECEC"/>
<stop offset="0.68" stop-color="#F6F7F7"/>
<stop offset="0.76" stop-color="#FDFDFD"/>
<stop offset="1" stop-color="white"/>
</linearGradient>
<linearGradient id="paint2_linear_857_75056" x1="231.942" y1="-62.0694" x2="352.404" y2="43.3879" gradientUnits="userSpaceOnUse">
<stop offset="0.4" stop-color="white"/>
<stop offset="0.56" stop-color="#FDFDFD"/>
<stop offset="0.65" stop-color="#F5F5F5"/>
<stop offset="0.71" stop-color="#E7E7E7"/>
<stop offset="0.77" stop-color="#D4D4D4"/>
<stop offset="0.82" stop-color="#BBBBBB"/>
<stop offset="0.87" stop-color="#9C9C9C"/>
<stop offset="0.92" stop-color="#787877"/>
<stop offset="0.96" stop-color="#4E4E4D"/>
<stop offset="1" stop-color="#1C1C1B"/>
</linearGradient>
<linearGradient id="paint3_linear_857_75056" x1="997.042" y1="363.743" x2="938.108" y2="278.723" gradientUnits="userSpaceOnUse">
<stop offset="0.37" stop-color="#0E1E23"/>
<stop offset="0.4" stop-color="#39464A"/>
<stop offset="0.42" stop-color="#626D70"/>
<stop offset="0.46" stop-color="#889092"/>
<stop offset="0.49" stop-color="#A8AEB0"/>
<stop offset="0.53" stop-color="#C4C8C9"/>
<stop offset="0.57" stop-color="#DADCDD"/>
<stop offset="0.62" stop-color="#EBECEC"/>
<stop offset="0.68" stop-color="#F6F7F7"/>
<stop offset="0.76" stop-color="#FDFDFD"/>
<stop offset="1" stop-color="white"/>
</linearGradient>
<linearGradient id="paint4_linear_857_75056" x1="212.722" y1="171.28" x2="349.972" y2="171.28" gradientUnits="userSpaceOnUse">
<stop offset="0.17" stop-color="#231F20"/>
<stop offset="0.19" stop-color="#22262B"/>
<stop offset="0.26" stop-color="#1F3A48"/>
<stop offset="0.33" stop-color="#1D4960"/>
<stop offset="0.41" stop-color="#1B5470"/>
<stop offset="0.5" stop-color="#1A5B7A"/>
<stop offset="0.61" stop-color="#1A5D7D"/>
</linearGradient>
</defs>
</svg>
