<svg width="41" height="40" viewBox="0 0 41 40" fill="none" xmlns="http://www.w3.org/2000/svg">
<path d="M38.0336 15.0035C34.9292 8.27454 28.2626 3.78896 20.7213 3.5855V2.20312C20.7213 1.9065 20.4809 1.66602 20.1842 1.66602C19.8875 1.66602 19.6471 1.9065 19.6471 2.20312V3.58543C12.0866 3.78946 5.43177 8.29029 2.33466 15.0035C2.04455 15.6325 2.73921 16.2602 3.33783 15.9132C5.61948 14.5904 8.55174 15.2302 10.0791 17.4047C10.3188 17.7457 10.8879 17.8864 11.2815 17.3434C12.2439 16.0171 13.7852 15.2272 15.4213 15.2271C17.1217 15.2272 18.6808 16.0789 19.6053 17.4048C19.6089 17.4098 19.6448 17.4545 19.6471 17.4571V22.4355C19.5436 22.5428 19.4426 22.6526 19.3443 22.7647C17.8472 24.4754 17.0223 26.6715 17.0231 28.9447C17.0231 30.9534 17.6576 32.8166 18.7361 34.345C18.5462 35.0403 17.9053 35.5438 17.1697 35.5438C16.2736 35.5438 15.5446 34.8147 15.5446 33.9186C15.5446 33.1497 14.9191 32.5242 14.1502 32.5242C13.3813 32.5242 12.7558 33.1498 12.7558 33.9186C12.7558 36.3525 14.7359 38.3327 17.1698 38.3327C18.6288 38.3327 19.9618 37.6261 20.7819 36.453C22.3513 37.6326 24.3009 38.3326 26.411 38.3326C28.6862 38.3326 30.8809 37.5083 32.5909 36.0114C34.2844 34.5289 35.3904 32.4911 35.7048 30.2735C35.7248 30.1324 35.688 29.9892 35.6024 29.8753C35.5168 29.7614 35.3895 29.6862 35.2484 29.6662C35.1073 29.6462 34.9641 29.6831 34.8502 29.7687C34.7364 29.8543 34.6611 29.9816 34.6411 30.1226C34.0644 34.1906 30.5262 37.2582 26.411 37.2582C21.8269 37.2582 18.0975 33.5288 18.0975 28.9447C18.0975 24.8294 21.1651 21.2912 25.2331 20.7145C25.303 20.7046 25.3702 20.681 25.4309 20.6451C25.4917 20.6093 25.5447 20.5618 25.5871 20.5054C25.6295 20.449 25.6604 20.3848 25.6779 20.3165C25.6955 20.2482 25.6995 20.1771 25.6896 20.1072C25.6797 20.0374 25.6561 19.9702 25.6202 19.9094C25.5844 19.8487 25.5369 19.7956 25.4805 19.7533C25.4241 19.7109 25.3599 19.68 25.2916 19.6624C25.2233 19.6448 25.1522 19.6409 25.0823 19.6508C23.4895 19.8766 21.9895 20.5107 20.7213 21.4777V17.457C20.7357 17.4401 20.7501 17.4232 20.7629 17.4049C21.7223 16.0413 23.2864 15.2271 24.9473 15.227C26.6068 15.227 28.1719 16.0405 29.1315 17.405C29.4093 17.7996 30.0047 17.8095 30.2891 17.4045C31.8181 15.2281 34.7511 14.5918 37.0306 15.9132C37.6281 16.2598 38.3241 15.6332 38.0336 15.0035ZM19.4924 35.2899C19.6409 35.4518 19.795 35.6084 19.9545 35.7596C19.3389 36.6931 18.3045 37.2583 17.1698 37.2583C15.3282 37.2583 13.83 35.7601 13.83 33.9186C13.83 33.742 13.9736 33.5985 14.1501 33.5985C14.3267 33.5985 14.4703 33.742 14.4703 33.9186C14.4703 35.407 15.6812 36.618 17.1696 36.618C18.1425 36.6182 19.0169 36.0885 19.4924 35.2899ZM10.4111 16.1145C8.72425 14.3127 6.11491 13.6706 3.76788 14.53C6.36054 9.6466 11.0047 6.19728 16.3284 5.05969C13.2627 7.50905 11.3998 12.3092 10.4111 16.1145ZM19.6471 15.8226C17.4254 13.7462 14.0773 13.6176 11.7253 15.3816C12.8894 11.3501 15.5296 5.22146 19.6471 4.68722V15.8226ZM20.7213 15.8247V4.68722C24.8417 5.22275 27.4745 11.3353 28.6431 15.3816C26.3202 13.6272 22.9575 13.7331 20.7213 15.8247ZM29.9572 16.1145C28.9684 12.3091 27.1048 7.5084 24.0399 5.05969C29.3636 6.19728 34.0077 9.64653 36.6004 14.5301C34.2588 13.6726 31.648 14.3086 29.9572 16.1145Z" fill="#0099A3"/>
<path d="M30.465 26.8217H28.5346V24.8912C28.5346 24.5285 28.2394 24.2333 27.8766 24.2333H24.9445C24.5819 24.2333 24.2866 24.5284 24.2866 24.8912V26.8217H22.3562C21.9935 26.8217 21.6982 27.1168 21.6982 27.4796V30.4117C21.6982 30.7744 21.9934 31.0696 22.3562 31.0696H24.2866V33.0001C24.2867 33.3629 24.5818 33.658 24.9445 33.658H27.8766C28.2393 33.658 28.5346 33.3629 28.5346 33.0001V31.0696H30.465C30.8277 31.0696 31.1229 30.7745 31.1229 30.4117V27.4796C31.1229 27.1169 30.8278 26.8217 30.465 26.8217ZM30.0487 29.9954H28.1183C27.7556 29.9954 27.4604 30.2905 27.4604 30.6533V32.5838H25.361V30.6533C25.361 30.2906 25.0659 29.9954 24.7031 29.9954H22.7728V27.8961H24.7033C25.0659 27.8961 25.3612 27.601 25.3612 27.2382V25.3077H27.4605V27.2382C27.4605 27.6009 27.7556 27.8961 28.1184 27.8961H30.0489V29.9954H30.0487ZM35.7046 27.6169C35.1222 23.5095 31.847 20.2343 27.7395 19.6518C27.6697 19.6419 27.5986 19.6458 27.5302 19.6634C27.4619 19.681 27.3977 19.7118 27.3414 19.7542C27.285 19.7966 27.2375 19.8497 27.2016 19.9104C27.1657 19.9711 27.1422 20.0383 27.1322 20.1082C27.1223 20.178 27.1263 20.2491 27.1439 20.3174C27.1614 20.3857 27.1923 20.4499 27.2347 20.5063C27.277 20.5627 27.3301 20.6102 27.3908 20.6461C27.4516 20.682 27.5188 20.7055 27.5886 20.7154C31.2252 21.2311 34.1252 24.1311 34.6408 27.7677C34.6626 27.9071 34.7384 28.0324 34.8519 28.1163C34.9653 28.2003 35.1072 28.2363 35.247 28.2165C35.3867 28.1967 35.513 28.1227 35.5987 28.0105C35.6843 27.8983 35.7223 27.7569 35.7046 27.6169Z" fill="#0099A3"/>
</svg>
