<svg width="41" height="40" viewBox="0 0 41 40" fill="none" xmlns="http://www.w3.org/2000/svg">
<path d="M38.0336 15.0045C34.9292 8.27551 28.2626 3.78993 20.7213 3.58648V2.2041C20.7213 1.90747 20.4809 1.66699 20.1842 1.66699C19.8875 1.66699 19.6471 1.90747 19.6471 2.2041V3.58641C12.0866 3.79044 5.43177 8.29127 2.33466 15.0045C2.04455 15.6335 2.73921 16.2612 3.33783 15.9142C5.61948 14.5913 8.55174 15.2312 10.0791 17.4057C10.3188 17.7467 10.8879 17.8873 11.2815 17.3444C12.2439 16.0181 13.7852 15.2281 15.4213 15.2281C17.1217 15.2281 18.6808 16.0799 19.6053 17.4057C19.6089 17.4107 19.6448 17.4555 19.6471 17.4581V22.4364C19.5436 22.5438 19.4426 22.6536 19.3443 22.7657C17.8472 24.4763 17.0223 26.6725 17.0231 28.9457C17.0231 30.9544 17.6576 32.8175 18.7361 34.346C18.5462 35.0412 17.9053 35.5448 17.1697 35.5448C16.2736 35.5448 15.5446 34.8157 15.5446 33.9196C15.5446 33.1507 14.9191 32.5252 14.1502 32.5252C13.3813 32.5252 12.7558 33.1508 12.7558 33.9196C12.7558 36.3535 14.7359 38.3337 17.1698 38.3337C18.6288 38.3337 19.9618 37.627 20.7819 36.454C22.3513 37.6336 24.3009 38.3336 26.411 38.3336C28.6862 38.3336 30.8809 37.5092 32.5909 36.0123C34.2844 34.5298 35.3904 32.4921 35.7048 30.2744C35.7248 30.1334 35.688 29.9902 35.6024 29.8763C35.5168 29.7624 35.3895 29.6872 35.2484 29.6672C35.1073 29.6472 34.9641 29.684 34.8502 29.7696C34.7364 29.8552 34.6611 29.9826 34.6411 30.1236C34.0644 34.1915 30.5262 37.2592 26.411 37.2592C21.8269 37.2592 18.0975 33.5298 18.0975 28.9456C18.0975 24.8304 21.1651 21.2922 25.2331 20.7155C25.303 20.7056 25.3702 20.682 25.4309 20.6461C25.4917 20.6102 25.5447 20.5628 25.5871 20.5064C25.6295 20.45 25.6604 20.3858 25.6779 20.3175C25.6955 20.2492 25.6995 20.1781 25.6896 20.1082C25.6797 20.0384 25.6561 19.9712 25.6202 19.9104C25.5844 19.8497 25.5369 19.7966 25.4805 19.7542C25.4241 19.7118 25.3599 19.681 25.2916 19.6634C25.2233 19.6458 25.1522 19.6419 25.0823 19.6518C23.4895 19.8776 21.9895 20.5117 20.7213 21.4787V17.4579C20.7357 17.4411 20.7501 17.4241 20.7629 17.4059C21.7223 16.0423 23.2864 15.2281 24.9473 15.228C26.6068 15.228 28.1719 16.0415 29.1315 17.406C29.4093 17.8006 30.0047 17.8105 30.2891 17.4055C31.8181 15.2291 34.7511 14.5928 37.0306 15.9142C37.6281 16.2608 38.3241 15.6341 38.0336 15.0045ZM19.4924 35.2909C19.6409 35.4528 19.795 35.6094 19.9545 35.7605C19.3389 36.694 18.3045 37.2593 17.1698 37.2593C15.3282 37.2593 13.83 35.7611 13.83 33.9195C13.83 33.743 13.9736 33.5994 14.1501 33.5994C14.3267 33.5994 14.4703 33.743 14.4703 33.9195C14.4703 35.408 15.6812 36.619 17.1696 36.619C18.1425 36.6191 19.0169 36.0895 19.4924 35.2909ZM10.4111 16.1154C8.72425 14.3137 6.11491 13.6716 3.76788 14.531C6.36054 9.64758 11.0047 6.19826 16.3284 5.06066C13.2627 7.51003 11.3998 12.3101 10.4111 16.1154ZM19.6471 15.8235C17.4254 13.7472 14.0773 13.6185 11.7253 15.3826C12.8894 11.3511 15.5296 5.22244 19.6471 4.6882V15.8235ZM20.7213 15.8257V4.6882C24.8417 5.22373 27.4745 11.3362 28.6431 15.3826C26.3202 13.6282 22.9575 13.734 20.7213 15.8257ZM29.9572 16.1154C28.9684 12.3101 27.1048 7.50938 24.0399 5.06066C29.3636 6.19826 34.0077 9.64751 36.6004 14.531C34.2588 13.6735 31.648 14.3096 29.9572 16.1154Z" fill="#0099A3"/>
<path d="M30.465 26.8217H28.5346V24.8912C28.5346 24.5285 28.2394 24.2333 27.8766 24.2333H24.9445C24.5819 24.2333 24.2866 24.5284 24.2866 24.8912V26.8217H22.3562C21.9935 26.8217 21.6982 27.1168 21.6982 27.4796V30.4117C21.6982 30.7744 21.9934 31.0696 22.3562 31.0696H24.2866V33.0001C24.2867 33.3629 24.5818 33.658 24.9445 33.658H27.8766C28.2393 33.658 28.5346 33.3629 28.5346 33.0001V31.0696H30.465C30.8277 31.0696 31.1229 30.7745 31.1229 30.4117V27.4796C31.1229 27.1169 30.8278 26.8217 30.465 26.8217ZM30.0487 29.9954H28.1183C27.7556 29.9954 27.4604 30.2905 27.4604 30.6533V32.5838H25.361V30.6533C25.361 30.2906 25.0659 29.9954 24.7031 29.9954H22.7728V27.8961H24.7033C25.0659 27.8961 25.3612 27.601 25.3612 27.2382V25.3077H27.4605V27.2382C27.4605 27.6009 27.7556 27.8961 28.1184 27.8961H30.0489V29.9954H30.0487ZM35.7046 27.6169C35.1222 23.5095 31.847 20.2343 27.7395 19.6518C27.6697 19.6419 27.5986 19.6458 27.5302 19.6634C27.4619 19.681 27.3977 19.7118 27.3414 19.7542C27.285 19.7966 27.2375 19.8497 27.2016 19.9104C27.1657 19.9711 27.1422 20.0383 27.1322 20.1082C27.1223 20.178 27.1263 20.2491 27.1439 20.3174C27.1614 20.3857 27.1923 20.4499 27.2347 20.5063C27.277 20.5627 27.3301 20.6102 27.3908 20.6461C27.4516 20.682 27.5188 20.7055 27.5886 20.7154C31.2252 21.2311 34.1252 24.1311 34.6408 27.7677C34.6626 27.9071 34.7384 28.0324 34.8519 28.1163C34.9653 28.2003 35.1072 28.2363 35.247 28.2165C35.3867 28.1967 35.513 28.1227 35.5987 28.0105C35.6843 27.8983 35.7223 27.7569 35.7046 27.6169Z" fill="#0099A3"/>
</svg>
