<svg width="79" height="76" viewBox="0 0 79 76" fill="none" xmlns="http://www.w3.org/2000/svg">
<path fill-rule="evenodd" clip-rule="evenodd" d="M13.666 16.65C14.4329 16.65 15.1146 16.5644 15.711 16.65C17.4152 16.8212 18.2673 17.7626 18.3525 19.4742C18.3525 20.0732 18.4377 20.5867 18.4377 21.2713C19.2046 21.6992 19.9715 22.1272 20.7384 22.4695C22.1017 23.1541 23.2095 24.1811 24.0615 25.4648C25.0841 27.0052 25.9361 28.5457 26.7882 30.0861C27.1291 30.7708 27.3847 31.541 27.4699 32.3112C28.0664 35.7344 28.2368 39.1577 28.1516 42.6665C28.1516 46.0041 27.3847 49.085 26.3622 52.1659C25.5953 54.6477 24.5728 57.0439 23.039 59.0979C22.1869 60.2104 21.2496 60.9807 20.0567 61.4941C18.949 61.922 17.7561 62.2643 16.5631 62.4355C15.1146 62.6067 13.5808 62.5211 12.1323 62.949C10.9394 63.2913 9.83162 62.6067 8.80911 62.2643C5.74159 61.2374 3.61138 59.3546 2.58887 56.017C0.373436 49.1705 0.799491 42.3241 1.90721 35.4777C2.16283 33.7661 2.67408 32.1401 3.10013 30.4284C3.7818 27.4331 5.40076 25.0369 7.61619 22.8974C8.12745 22.3839 8.72391 21.8704 9.32037 21.6137C11.1098 20.929 11.1098 19.1318 11.8766 17.8481C11.4506 16.7356 11.7914 15.5375 11.9619 14.4249C12.2175 12.6277 12.5583 10.9161 13.0696 9.20452C13.24 8.51988 13.8364 7.83523 14.3477 7.23617C15.0294 6.38037 15.9667 6.03804 16.9892 6.03804C19.375 6.03804 21.7609 5.95246 24.0615 6.03804C25.0841 6.03804 26.0213 6.29478 27.0439 6.55152C27.5551 6.72268 28.2368 6.97942 28.4924 7.32174C29.6001 8.69103 30.6226 10.1459 31.7304 11.6008C32.5824 14.5961 33.6049 17.5058 34.2866 20.5011C35.0535 24.1811 35.5647 27.861 35.3943 31.6266C35.3943 32.0545 35.3943 32.4824 35.3943 32.9103C35.5647 37.8739 35.1387 42.8376 34.4571 47.8013C34.3718 48.7427 34.2866 49.684 34.2866 50.6254C34.2866 55.5891 34.2866 60.5527 34.3718 65.5164C34.3718 67.228 34.7126 68.9396 35.0535 70.6512C35.3091 72.1061 36.3316 73.0475 37.9506 73.133C39.5696 73.2186 41.1885 73.2186 42.8927 72.7907C44.5969 72.3628 45.5342 71.3359 46.1306 69.9666C46.7271 68.5973 47.068 67.1424 47.068 65.5164C46.9828 62.949 47.2384 60.3816 47.4088 57.7286C47.6644 54.5621 48.0053 51.4812 48.5165 48.3147C48.8574 46.0896 49.3686 44.1213 50.4763 42.2386C50.8172 41.6395 51.3284 41.0404 51.8396 40.6125C53.7142 39.3288 55.674 38.473 58.0599 38.5586C60.531 38.6442 63.0872 38.5586 65.4731 38.5586C66.24 37.7884 66.1547 37.0181 66.1547 36.2479C66.1547 35.5633 66.4956 35.1354 67.0921 35.0498C69.3075 34.793 71.5229 34.7075 73.7384 35.1354C74.3348 35.3065 75.0165 35.5633 75.5277 35.9056C76.2094 36.4191 76.9763 36.847 77.9136 36.7614C78.5953 36.7614 78.9361 37.2749 78.9361 37.8739C79.0213 39.1577 79.0213 40.4414 78.9361 41.8106C78.9361 42.6665 78.5953 43.0944 77.7432 43.0944C74.42 43.1799 71.1821 43.2655 67.8589 43.3511C67.0068 43.3511 66.3252 42.9232 66.0696 42.0674C65.8991 41.6395 65.8139 41.2116 65.6435 40.7837C65.047 40.7837 64.5358 40.6981 63.9393 40.6981C61.7239 40.6981 59.5085 40.6981 57.293 40.6981C55.1628 40.6125 53.7142 41.8106 52.6917 43.4367C51.6692 44.8915 50.9024 46.6031 51.0728 48.4859C51.0728 48.5715 51.0728 48.6571 51.0728 48.7426C50.0503 52.5082 50.0503 56.4449 49.7094 60.296C49.539 62.1788 49.539 64.0615 49.539 65.9443C49.539 67.4847 49.2834 68.9396 48.8573 70.3945C48.3461 72.2773 47.1531 73.561 45.7046 74.6735C44.5117 75.6149 43.0631 75.7005 41.6146 75.8716C40.5069 76.0428 39.3139 76.0428 38.2062 75.8716C35.0535 75.5293 33.2641 73.9888 32.6676 70.5656C32.1564 67.5703 32.2416 64.575 32.2416 61.4941C32.2416 58.67 32.3268 55.8458 32.2416 53.0217C32.1564 49.3417 32.6676 45.6618 33.0937 42.0674C33.1789 41.2116 33.2641 40.3558 33.3493 39.5C33.3493 36.0768 33.5197 32.7391 33.3493 29.3159C33.1789 24.3522 32.412 19.3886 30.793 14.6817C30.1966 12.9701 29.4297 11.344 28.322 9.97474C27.6403 9.11893 26.8734 8.51987 25.8509 8.43429C25.084 8.34871 24.3172 8.17755 23.4651 8.17755C21.6757 8.09196 19.8863 8.17755 18.0969 8.17755C16.3927 8.17755 15.6258 8.69103 15.0294 10.3171C14.5181 11.7719 14.0921 13.2268 14.0921 14.7672C13.666 15.3663 13.666 15.8798 13.666 16.65ZM3.18534 43.3511C3.10013 43.5222 3.10012 43.6078 3.01491 43.779C2.58887 48.2292 3.27054 52.5082 4.71909 56.7016C5.14514 57.8142 5.6564 59.0979 6.93453 59.4402C8.46829 59.9537 10.0873 60.296 11.7062 60.7239C11.8767 60.7239 11.9619 60.7239 12.1323 60.6383C13.4104 60.1249 14.7737 60.2104 16.1371 60.1248C18.8638 59.9537 21.0792 58.7556 22.3574 56.1881C22.4426 56.017 22.5278 55.7602 22.613 55.5891C24.232 52.5938 25.0841 49.3417 25.7657 46.0041C25.8509 45.405 25.8509 44.7204 25.9361 44.2069C24.9988 43.0943 23.9763 42.5809 22.6982 42.3241C21.5053 42.0674 20.3123 41.9818 19.1194 41.6395C17.33 41.126 15.5406 41.2971 13.7513 41.4683C11.3654 41.725 8.97955 42.0674 6.50849 42.3241C5.40077 42.4097 4.20785 42.6664 3.18534 43.3511ZM25.8509 41.2116C25.9361 41.0404 26.0213 40.9548 26.0213 40.8693C26.3622 37.8739 25.6805 34.9642 25.3397 32.0545C25.2545 31.6266 25.0841 31.1987 24.9136 30.8563C24.1468 29.4871 23.4651 28.0322 22.5278 26.7485C21.8461 25.8071 20.994 25.0369 20.0567 24.4378C18.949 23.7532 17.7561 23.2397 16.6484 22.6406C15.9667 22.2983 15.1998 22.0416 14.3477 22.4695C14.0921 24.1811 14.2625 25.8927 14.3477 27.3476C15.0294 28.2034 15.711 28.8024 16.0519 29.4871C16.7336 30.7708 17.0744 32.1401 17.0744 33.5949C16.9892 35.0498 17.0744 36.5047 17.0744 37.9595C17.0744 38.473 17.1596 38.9009 17.2448 39.3288C19.9715 40.0134 22.8686 40.6125 25.8509 41.2116ZM12.3879 22.7262C11.0246 23.0685 10.0021 23.4964 9.14997 24.3522C7.19017 26.1494 5.7416 28.2889 5.05992 30.8563C4.54867 32.9959 3.95222 35.2209 3.52617 37.3605C3.27055 38.5586 3.0149 39.8423 3.27053 41.2972C5.65638 40.4414 8.12746 40.6125 10.3429 39.8423C10.2577 37.9595 10.3429 36.1623 10.1725 34.3651C10.002 31.9689 10.6837 30.0005 12.3027 28.2889C12.3879 26.4917 12.3879 24.7801 12.3879 22.7262ZM67.7737 41.2972C69.9892 41.7251 72.1194 41.6395 73.6532 41.2116C73.8236 40.099 74.5905 39.0721 74.0792 37.7884C72.2046 36.5902 70.1596 37.1893 68.1998 37.1037C67.5181 38.6442 67.6885 39.9279 67.7737 41.2972ZM13.8365 29.915C13.4956 30.0861 13.1548 30.1717 13.0696 30.3429C12.4731 31.1987 12.0471 32.0545 12.0471 33.0814C12.0471 34.7075 12.0471 36.3335 12.0471 38.0451C12.0471 38.473 12.3027 38.8153 12.3879 39.2432C14.5181 39.7567 15.0294 39.4144 15.0294 37.446C15.0294 36.0768 15.1146 34.7075 15.0294 33.3382C14.9442 32.14 14.6033 31.0275 13.8365 29.915ZM16.5631 20.1588C16.8188 19.2174 16.6484 18.7039 15.7963 18.3616C15.1998 18.1049 14.6885 18.1905 14.1773 18.5328C13.4956 18.8751 12.7287 19.2174 12.7287 20.1588C14.0921 20.1588 15.3702 20.1588 16.5631 20.1588ZM76.5502 38.5586C76.039 39.4144 75.7834 40.2702 75.7834 41.2116C75.7834 41.8962 76.2946 41.8962 76.8059 41.6395C77.2319 39.6711 77.2319 39.6711 76.5502 38.5586Z" fill="#FF7A00"/>
<g clip-path="url(#clip0_1720_45667)">
<g clip-path="url(#clip1_1720_45667)">
<g clip-path="url(#clip2_1720_45667)">
<path fill-rule="evenodd" clip-rule="evenodd" d="M13.666 16.65C14.4329 16.65 15.1146 16.5644 15.711 16.65C17.4152 16.8212 18.2673 17.7626 18.3525 19.4742C18.3525 20.0732 18.4377 20.5867 18.4377 21.2713C19.2046 21.6992 19.9715 22.1272 20.7384 22.4695C22.1017 23.1541 23.2095 24.1811 24.0615 25.4648C25.0841 27.0052 25.9361 28.5457 26.7882 30.0861C27.1291 30.7708 27.3847 31.541 27.4699 32.3112C28.0664 35.7344 28.2368 39.1577 28.1516 42.6665C28.1516 46.0041 27.3847 49.085 26.3622 52.1659C25.5953 54.6477 24.5728 57.0439 23.039 59.0979C22.1869 60.2104 21.2496 60.9807 20.0567 61.4941C18.949 61.922 17.7561 62.2643 16.5631 62.4355C15.1146 62.6067 13.5808 62.5211 12.1323 62.949C10.9394 63.2913 9.83162 62.6067 8.80911 62.2643C5.74159 61.2374 3.61138 59.3546 2.58887 56.017C0.373436 49.1705 0.799491 42.3241 1.90721 35.4777C2.16283 33.7661 2.67408 32.1401 3.10013 30.4284C3.7818 27.4331 5.40076 25.0369 7.61619 22.8974C8.12745 22.3839 8.72391 21.8704 9.32037 21.6137C11.1098 20.929 11.1098 19.1318 11.8766 17.8481C11.4506 16.7356 11.7914 15.5375 11.9619 14.4249C12.2175 12.6277 12.5583 10.9161 13.0696 9.20452C13.24 8.51988 13.8364 7.83523 14.3477 7.23617C15.0294 6.38037 15.9667 6.03804 16.9892 6.03804C19.375 6.03804 21.7609 5.95246 24.0615 6.03804C25.0841 6.03804 26.0213 6.29478 27.0439 6.55152C27.5551 6.72268 28.2368 6.97942 28.4924 7.32174C29.6001 8.69103 30.6226 10.1459 31.7304 11.6008C32.5824 14.5961 33.6049 17.5058 34.2866 20.5011C35.0535 24.1811 35.5647 27.861 35.3943 31.6266C35.3943 32.0545 35.3943 32.4824 35.3943 32.9103C35.5647 37.8739 35.1387 42.8376 34.4571 47.8013C34.3718 48.7427 34.2866 49.684 34.2866 50.6254C34.2866 55.5891 34.2866 60.5527 34.3718 65.5164C34.3718 67.228 34.7126 68.9396 35.0535 70.6512C35.3091 72.1061 36.3316 73.0475 37.9506 73.133C39.5696 73.2186 41.1885 73.2186 42.8927 72.7907C44.5969 72.3628 45.5342 71.3359 46.1306 69.9666C46.7271 68.5973 47.068 67.1424 47.068 65.5164C46.9828 62.949 47.2384 60.3816 47.4088 57.7286C47.6644 54.5621 48.0053 51.4812 48.5165 48.3147C48.8574 46.0896 49.3686 44.1213 50.4763 42.2386C50.8172 41.6395 51.3284 41.0404 51.8396 40.6125C53.7142 39.3288 55.674 38.473 58.0599 38.5586C60.531 38.6442 63.0872 38.5586 65.4731 38.5586C66.24 37.7884 66.1547 37.0181 66.1547 36.2479C66.1547 35.5633 66.4956 35.1354 67.0921 35.0498C69.3075 34.793 71.5229 34.7075 73.7384 35.1354C74.3348 35.3065 75.0165 35.5633 75.5277 35.9056C76.2094 36.4191 76.9763 36.847 77.9136 36.7614C78.5953 36.7614 78.9361 37.2749 78.9361 37.8739C79.0213 39.1577 79.0213 40.4414 78.9361 41.8106C78.9361 42.6665 78.5953 43.0944 77.7432 43.0944C74.42 43.1799 71.1821 43.2655 67.8589 43.3511C67.0068 43.3511 66.3252 42.9232 66.0696 42.0674C65.8991 41.6395 65.8139 41.2116 65.6435 40.7837C65.047 40.7837 64.5358 40.6981 63.9393 40.6981C61.7239 40.6981 59.5085 40.6981 57.293 40.6981C55.1628 40.6125 53.7142 41.8106 52.6917 43.4367C51.6692 44.8915 50.9024 46.6031 51.0728 48.4859C51.0728 48.5715 51.0728 48.6571 51.0728 48.7426C50.0503 52.5082 50.0503 56.4449 49.7094 60.296C49.539 62.1788 49.539 64.0615 49.539 65.9443C49.539 67.4847 49.2834 68.9396 48.8573 70.3945C48.3461 72.2773 47.1531 73.561 45.7046 74.6735C44.5117 75.6149 43.0631 75.7005 41.6146 75.8716C40.5069 76.0428 39.3139 76.0428 38.2062 75.8716C35.0535 75.5293 33.2641 73.9888 32.6676 70.5656C32.1564 67.5703 32.2416 64.575 32.2416 61.4941C32.2416 58.67 32.3268 55.8458 32.2416 53.0217C32.1564 49.3417 32.6676 45.6618 33.0937 42.0674C33.1789 41.2116 33.2641 40.3558 33.3493 39.5C33.3493 36.0768 33.5197 32.7391 33.3493 29.3159C33.1789 24.3522 32.412 19.3886 30.793 14.6817C30.1966 12.9701 29.4297 11.344 28.322 9.97474C27.6403 9.11893 26.8734 8.51987 25.8509 8.43429C25.084 8.34871 24.3172 8.17755 23.4651 8.17755C21.6757 8.09196 19.8863 8.17755 18.0969 8.17755C16.3927 8.17755 15.6258 8.69103 15.0294 10.3171C14.5181 11.7719 14.0921 13.2268 14.0921 14.7672C13.666 15.3663 13.666 15.8798 13.666 16.65ZM3.18534 43.3511C3.10013 43.5222 3.10012 43.6078 3.01491 43.779C2.58887 48.2292 3.27054 52.5082 4.71909 56.7016C5.14514 57.8142 5.6564 59.0979 6.93453 59.4402C8.46829 59.9537 10.0873 60.296 11.7062 60.7239C11.8767 60.7239 11.9619 60.7239 12.1323 60.6383C13.4104 60.1249 14.7737 60.2104 16.1371 60.1248C18.8638 59.9537 21.0792 58.7556 22.3574 56.1881C22.4426 56.017 22.5278 55.7602 22.613 55.5891C24.232 52.5938 25.0841 49.3417 25.7657 46.0041C25.8509 45.405 25.8509 44.7204 25.9361 44.2069C24.9988 43.0943 23.9763 42.5809 22.6982 42.3241C21.5053 42.0674 20.3123 41.9818 19.1194 41.6395C17.33 41.126 15.5406 41.2971 13.7513 41.4683C11.3654 41.725 8.97955 42.0674 6.50849 42.3241C5.40077 42.4097 4.20785 42.6664 3.18534 43.3511ZM25.8509 41.2116C25.9361 41.0404 26.0213 40.9548 26.0213 40.8693C26.3622 37.8739 25.6805 34.9642 25.3397 32.0545C25.2545 31.6266 25.0841 31.1987 24.9136 30.8563C24.1468 29.4871 23.4651 28.0322 22.5278 26.7485C21.8461 25.8071 20.994 25.0369 20.0567 24.4378C18.949 23.7532 17.7561 23.2397 16.6484 22.6406C15.9667 22.2983 15.1998 22.0416 14.3477 22.4695C14.0921 24.1811 14.2625 25.8927 14.3477 27.3476C15.0294 28.2034 15.711 28.8024 16.0519 29.4871C16.7336 30.7708 17.0744 32.1401 17.0744 33.5949C16.9892 35.0498 17.0744 36.5047 17.0744 37.9595C17.0744 38.473 17.1596 38.9009 17.2448 39.3288C19.9715 40.0134 22.8686 40.6125 25.8509 41.2116ZM12.3879 22.7262C11.0246 23.0685 10.0021 23.4964 9.14997 24.3522C7.19017 26.1494 5.7416 28.2889 5.05992 30.8563C4.54867 32.9959 3.95222 35.2209 3.52617 37.3605C3.27055 38.5586 3.0149 39.8423 3.27053 41.2972C5.65638 40.4414 8.12746 40.6125 10.3429 39.8423C10.2577 37.9595 10.3429 36.1623 10.1725 34.3651C10.002 31.9689 10.6837 30.0005 12.3027 28.2889C12.3879 26.4917 12.3879 24.7801 12.3879 22.7262ZM67.7737 41.2972C69.9892 41.7251 72.1194 41.6395 73.6532 41.2116C73.8236 40.099 74.5905 39.0721 74.0792 37.7884C72.2046 36.5902 70.1596 37.1893 68.1998 37.1037C67.5181 38.6442 67.6885 39.9279 67.7737 41.2972ZM13.8365 29.915C13.4956 30.0861 13.1548 30.1717 13.0696 30.3429C12.4731 31.1987 12.0471 32.0545 12.0471 33.0814C12.0471 34.7075 12.0471 36.3335 12.0471 38.0451C12.0471 38.473 12.3027 38.8153 12.3879 39.2432C14.5181 39.7567 15.0294 39.4144 15.0294 37.446C15.0294 36.0768 15.1146 34.7075 15.0294 33.3382C14.9442 32.14 14.6033 31.0275 13.8365 29.915ZM16.5631 20.1588C16.8188 19.2174 16.6484 18.7039 15.7963 18.3616C15.1998 18.1049 14.6885 18.1905 14.1773 18.5328C13.4956 18.8751 12.7287 19.2174 12.7287 20.1588C14.0921 20.1588 15.3702 20.1588 16.5631 20.1588ZM76.5502 38.5586C76.039 39.4144 75.7834 40.2702 75.7834 41.2116C75.7834 41.8962 76.2946 41.8962 76.8059 41.6395C77.2319 39.6711 77.2319 39.6711 76.5502 38.5586Z" fill="#FF7A00"/>
</g>
</g>
</g>
<g clip-path="url(#clip3_1720_45667)">
<g clip-path="url(#clip4_1720_45667)">
<path fill-rule="evenodd" clip-rule="evenodd" d="M13.6827 16.9351C14.4494 16.9525 15.1328 16.8824 15.7272 16.9815C17.427 17.1913 18.2575 18.1518 18.3039 19.8649C18.2903 20.4638 18.3638 20.9791 18.3482 21.6636C19.1052 22.1088 19.8622 22.554 20.6211 22.9136C21.9685 23.629 23.0527 24.6809 23.8754 25.9836C24.8627 27.5469 25.6795 29.1063 26.4964 30.6657C26.8216 31.3579 27.0597 32.1337 27.1274 32.9057C27.646 36.3415 27.7386 39.7677 27.5738 43.2737C27.498 46.6105 26.6614 49.6731 25.5692 52.73C24.7461 55.1938 23.6695 57.5662 22.0895 59.5848C21.2124 60.6777 20.2578 61.4265 19.0536 61.9127C17.9364 62.3154 16.736 62.6305 15.5395 62.7745C14.0874 62.9128 12.556 62.7924 11.0981 63.1873C9.89775 63.5024 8.80584 62.7928 7.79137 62.4274C4.74795 61.331 2.66104 59.4004 1.71457 56.0404C-0.344847 49.1454 0.236543 42.3104 1.49942 35.4909C1.79384 33.7856 2.34188 32.1716 2.80667 30.4701C3.55617 27.491 5.22912 25.1321 7.49256 23.0435C8.01534 22.5417 8.62331 22.0419 9.22545 21.7988C11.0299 21.155 11.0707 19.3582 11.8666 18.0923C11.4659 16.9703 11.8338 15.7803 12.0295 14.6719C12.3258 12.8809 12.7054 11.1775 13.2554 9.47797C13.4413 8.79737 14.0532 8.12645 14.5779 7.53915C15.2788 6.69904 16.2237 6.37808 17.2459 6.4013C19.6312 6.45547 22.0183 6.42408 24.3165 6.56187C25.3387 6.58509 26.2699 6.86305 27.2863 7.14294C27.7936 7.32566 28.4693 7.59781 28.717 7.94585C29.7934 9.33993 30.7826 10.8176 31.857 12.2973C32.6408 15.3112 33.597 18.2434 34.2105 21.2534C34.8936 24.9498 35.3212 28.6404 35.0653 32.4011C35.0556 32.8289 35.0459 33.2567 35.0362 33.6845C35.0939 38.6507 34.5553 43.6035 33.7611 48.5504C33.6545 49.4896 33.5479 50.4288 33.5266 51.3699C33.4139 56.3323 33.3012 61.2947 33.2736 66.259C33.2348 67.9701 33.5367 69.6891 33.8385 71.408C34.0611 72.8683 35.062 73.8326 36.6786 73.9549C38.2952 74.0772 39.9137 74.114 41.6272 73.7249C43.3406 73.3358 44.301 72.3304 44.9284 70.975C45.5558 69.6196 45.9296 68.1728 45.9665 66.5472C45.9396 63.9786 46.2535 61.4176 46.4841 58.7692C46.8115 55.6093 47.2223 52.537 47.8053 49.3829C48.1965 47.1661 48.7523 45.2099 49.9025 43.3528C50.2569 42.7616 50.7816 42.1743 51.3024 41.7581C53.2057 40.5173 55.1844 39.7062 57.5677 39.8459C60.0362 39.9876 62.5937 39.9601 64.979 40.0143C65.7631 39.2616 65.6954 38.4897 65.7129 37.7197C65.7285 37.0352 66.0789 36.6151 66.6772 36.5431C68.8979 36.3367 71.1147 36.3015 73.3198 36.7796C73.9123 36.9642 74.5879 37.2364 75.0912 37.5902C75.7611 38.1191 76.5181 38.5643 77.4571 38.5C78.1386 38.5155 78.4676 39.0366 78.454 39.6355C78.5101 40.9208 78.4809 42.2042 78.3647 43.5712C78.3452 44.4267 77.9948 44.8468 77.1429 44.8274C73.8187 44.8376 70.5796 44.8496 67.2554 44.8597C66.4035 44.8403 65.7317 44.3971 65.4956 43.5357C65.335 43.104 65.2595 42.6743 65.0988 42.2426C64.5025 42.2291 63.9933 42.1319 63.397 42.1184C61.1822 42.0681 58.9673 42.0178 56.7524 41.9675C54.6247 41.8336 53.1493 42.9985 52.0902 44.6009C51.0349 46.0322 50.2294 47.7259 50.357 49.6121C50.355 49.6976 50.3531 49.7832 50.3512 49.8687C49.2434 53.6101 49.154 57.5458 48.7258 61.3882C48.5127 63.2666 48.4699 65.1489 48.4272 67.0311C48.3922 68.5712 48.1036 70.0199 47.6447 71.4647C47.0908 73.3354 45.869 74.5917 44.3956 75.671C43.1816 76.5851 41.7315 76.6378 40.2794 76.776C39.1681 76.922 37.9755 76.8949 36.8719 76.6986C33.7278 76.2848 31.9738 74.7041 31.4553 71.2682C31.0121 68.2621 31.1653 65.2695 31.2353 62.1894C31.2994 59.366 31.4487 56.5445 31.4276 53.7191C31.426 50.0382 32.0207 46.3708 32.5282 42.787C32.6328 41.9333 32.7375 41.0797 32.8421 40.2261C32.9198 36.8037 33.1659 33.4708 33.0733 30.0446C33.0156 25.0784 32.3616 20.0986 30.8499 15.3561C30.2925 13.6314 29.5628 11.9884 28.4864 10.5943C27.8244 9.72323 27.0713 9.10691 26.051 8.99813C25.2862 8.89516 24.5234 8.70663 23.6716 8.68728C21.8846 8.5611 20.0937 8.60603 18.3048 8.5654C16.601 8.52671 15.8227 9.02265 15.1895 10.6347C14.6453 12.0776 14.1863 13.5224 14.1514 15.0625C13.7118 15.6517 13.7002 16.1651 13.6827 16.9351ZM2.59846 43.3913C2.50939 43.5605 2.50744 43.6461 2.41836 43.8152C1.89139 48.2546 2.47573 52.548 3.8287 56.7732C4.22938 57.8952 4.71136 59.1901 5.98139 59.5614C7.5031 60.1096 9.11389 60.4886 10.7227 60.9531C10.8931 60.957 10.9783 60.9589 11.1506 60.8772C12.4401 60.3929 13.8011 60.5094 15.166 60.4548C17.8959 60.3456 20.138 59.1981 21.4741 56.6604C21.5632 56.4912 21.6542 56.2364 21.7432 56.0672C23.4298 53.1095 24.3555 49.8776 25.1128 46.5563C25.2116 45.9593 25.2271 45.2749 25.3239 44.7634C24.4122 43.6299 23.4016 43.0933 22.1296 42.8076C20.9428 42.5239 19.7521 42.4112 18.5673 42.0419C16.79 41.4879 14.9972 41.6184 13.2044 41.7489C10.8133 41.9514 8.42032 42.2395 5.94407 42.4401C4.83469 42.5005 3.63625 42.7301 2.59846 43.3913ZM25.3068 41.767C25.3958 41.5978 25.483 41.5142 25.4849 41.4286C25.8937 38.4418 25.2783 35.5173 25.0036 32.6006C24.9281 32.1709 24.7674 31.7392 24.6048 31.3931C23.8692 30.0068 23.2208 28.5368 22.3129 27.2322C21.6527 26.2756 20.8184 25.4862 19.8949 24.866C18.803 24.1564 17.622 23.6159 16.5282 22.9919C15.8545 22.6342 15.0936 22.3601 14.232 22.7685C13.9376 24.4739 14.0691 26.1889 14.1213 27.6454C14.7834 28.5164 15.4513 29.1308 15.7765 29.823C16.4288 31.1218 16.7385 32.4985 16.7054 33.953C16.5872 35.4056 16.6394 36.862 16.6063 38.3165C16.5947 38.8298 16.6702 39.2596 16.7456 39.6893C19.4561 40.4357 22.3388 41.1003 25.3068 41.767ZM12.2669 22.9807C10.8962 23.292 9.86421 23.6966 8.99291 24.5328C6.99281 26.285 5.49603 28.3911 4.75625 30.9424C4.19655 33.0697 3.54973 35.2807 3.07522 37.41C2.79246 38.602 2.50773 39.8796 2.73026 41.3399C5.13493 40.5384 7.60148 40.7657 9.83383 40.0459C9.79139 38.1617 9.91737 36.3669 9.7878 34.5663C9.67183 32.1668 10.398 30.2145 12.0554 28.5401C12.1814 26.7453 12.2203 25.0341 12.2669 22.9807ZM67.2168 42.8044C69.422 43.2825 71.5536 43.2453 73.0967 42.8523C73.2923 41.7439 74.0823 40.7346 73.6004 39.4396C71.7535 38.1993 69.6953 38.7517 67.738 38.6217C67.0215 40.1463 67.1627 41.4335 67.2168 42.8044ZM13.5519 30.2005C13.2073 30.3639 12.8646 30.4417 12.7755 30.6109C12.1597 31.4529 11.7144 32.2988 11.6911 33.3255C11.6542 34.9511 11.6172 36.5767 11.5784 38.2879C11.5687 38.7157 11.8164 39.0637 11.8919 39.4935C14.0099 40.0552 14.5288 39.7246 14.5735 37.7567C14.6046 36.3878 14.7209 35.0208 14.6668 33.6499C14.6088 32.4501 14.2933 31.3301 13.5519 30.2005ZM16.4994 20.5087C16.7763 19.5734 16.6176 19.0562 15.7735 18.6946C15.183 18.4244 14.67 18.4983 14.1511 18.829C13.4618 19.1557 12.6873 19.4805 12.666 20.4217C14.029 20.4526 15.3068 20.4817 16.4994 20.5087ZM76.0533 40.2658C75.5227 41.1097 75.2478 41.9595 75.2264 42.9007C75.2108 43.5851 75.7219 43.5967 76.2389 43.3517C76.7095 41.3935 76.7095 41.3935 76.0533 40.2658Z" fill="#FF7A00"/>
</g>
</g>
<defs>
<clipPath id="clip0_1720_45667">
<rect width="13" height="45" fill="white" transform="translate(1 21)"/>
</clipPath>
<clipPath id="clip1_1720_45667">
<rect width="13" height="60" fill="white" transform="translate(1 6)"/>
</clipPath>
<clipPath id="clip2_1720_45667">
<rect width="78" height="70" fill="white" transform="translate(1 6)"/>
</clipPath>
<clipPath id="clip3_1720_45667">
<rect width="29.9561" height="13.1196" fill="white" transform="translate(0 13.1863) rotate(-26.1159)"/>
</clipPath>
<clipPath id="clip4_1720_45667">
<rect width="78" height="70" fill="white" transform="translate(0 13.1863) rotate(-26.1159)"/>
</clipPath>
</defs>
</svg>
