<svg width="40" height="41" viewBox="0 0 40 41" fill="none" xmlns="http://www.w3.org/2000/svg">
<g clip-path="url(#clip0_1404_5530)">
<path d="M19.1667 2.16669C8.59782 2.16669 0 10.7645 0 21.3334C0 31.9022 8.59782 40.5 19.1667 40.5C29.7355 40.5 38.3333 31.9022 38.3333 21.3334C38.3333 10.7645 29.7355 2.16669 19.1667 2.16669ZM25.0876 22.4626L17.1015 30.4487C16.9533 30.5972 16.7773 30.715 16.5835 30.7953C16.3897 30.8756 16.182 30.9169 15.9722 30.9167C15.7624 30.9169 15.5547 30.8756 15.3609 30.7953C15.1671 30.715 14.9911 30.5972 14.8429 30.4487C14.2184 29.8242 14.2184 28.8147 14.8429 28.1902L21.6999 21.3334L14.843 14.4765C14.2185 13.852 14.2185 12.8425 14.843 12.218C15.4675 11.5935 16.477 11.5935 17.1015 12.218L25.0876 20.2042C25.7121 20.8287 25.7121 21.8381 25.0876 22.4626Z" fill="#0099A3"/>
</g>
<defs>
<clipPath id="clip0_1404_5530">
<rect width="40" height="40" fill="white" transform="translate(0 0.5)"/>
</clipPath>
</defs>
</svg>
