<svg width="40" height="41" viewBox="0 0 40 41" fill="none" xmlns="http://www.w3.org/2000/svg">
<g clip-path="url(#clip0_1404_5526)">
<path d="M19.1668 2.16669C29.7357 2.16669 38.3335 10.7645 38.3335 21.3334C38.3335 31.9022 29.7357 40.5 19.1668 40.5C8.59799 40.5 0.000164032 31.9022 0.000164032 21.3334C0.000164032 10.7645 8.59799 2.16669 19.1668 2.16669ZM13.2459 22.4626L21.232 30.4487C21.3802 30.5972 21.5562 30.715 21.75 30.7953C21.9438 30.8756 22.1515 30.9169 22.3613 30.9167C22.5711 30.9169 22.7788 30.8756 22.9726 30.7953C23.1664 30.715 23.3424 30.5972 23.4906 30.4487C24.115 29.8242 24.115 28.8147 23.4906 28.1902L16.6336 21.3334L23.4905 14.4765C24.115 13.852 24.115 12.8425 23.4905 12.218C22.866 11.5935 21.8565 11.5935 21.232 12.218L13.2459 20.2042C12.6214 20.8287 12.6214 21.8381 13.2459 22.4626Z" fill="#0099A3"/>
</g>
<defs>
<clipPath id="clip0_1404_5526">
<rect width="40" height="40" fill="white" transform="translate(0 0.5)"/>
</clipPath>
</defs>
</svg>
