<svg width="1166" height="405" viewBox="0 0 1166 405" fill="none" xmlns="http://www.w3.org/2000/svg">
<g clip-path="url(#clip0_1290_21267)">
<path d="M563.719 151.653C538.826 161.751 514.767 175.984 498.309 197.69C467.336 238.452 469.974 299.531 495.324 344.887C520.673 390.244 564.844 421.667 611.387 442.484C685.012 475.293 766.116 485.126 844.581 470.755C884.951 463.314 927.899 446.191 946.164 408.474C957.329 385.413 957.332 357.681 950.334 332.717C943.337 307.754 929.874 285.166 914.981 264.135C905.31 250.317 894.751 237.18 883.375 224.813C802.923 138.401 670.73 108.153 563.719 151.653Z" fill="#F0F3BD"/>
<path opacity="0.5" d="M1198.93 405.367C1214.51 426.826 1221.6 453.622 1224.2 480.171C1226.61 504.871 1225.26 530.374 1216.21 553.266C1200.56 593.127 1162.73 620.733 1122.02 630.417C1093.47 637.154 1063.62 636.093 1035.4 627.341C1011.52 619.872 989.575 607.131 967.195 595.541C916.526 569.42 860.716 548.98 804.663 554.579C829.72 528.292 855.465 501.472 887.718 485.507C911.237 473.777 937.262 468.462 963.215 465.084C996.246 460.221 1029.83 460.13 1062.99 464.811C1083.18 468.005 1103.1 473.614 1123.48 475.109C1143.85 476.604 1165.41 473.444 1181.67 460.908C1197.92 448.373 1207.15 424.744 1198.93 405.367Z" fill="url(#paint0_linear_1290_21267)"/>
<path d="M841.465 579.595C870.075 549.166 905.421 526.344 944.541 513.04C983.662 499.737 1025.41 496.341 1066.3 503.137C1092.19 507.757 1118.1 516.552 1144.46 515.797C1169.37 514.697 1193.35 506.128 1213.45 491.137C1227.15 481.474 1238.6 468.814 1247 454.043C1260.41 429.791 1262.5 400.565 1259.42 372.773C1249.19 280.998 1180.74 200.509 1096.11 169.665C1011.49 138.82 914.584 155.055 839.374 204.008C804.86 226.528 774.308 255.602 737.53 273.991C692.118 296.478 640.221 301.402 591.188 287.875C562.194 279.797 535.113 265.413 506.419 256.244C427.898 231.153 338.921 248.108 273.509 298.212C208.097 348.317 141.012 445.616 166.612 576.748C177.781 633.851 210.894 804.382 419.882 810.381C547.861 814.08 698.637 747.021 784.444 650.191C804.46 627.607 820.948 601.791 841.465 579.595Z" fill="url(#paint1_linear_1290_21267)"/>
<path d="M874.891 157.823C872.689 159.029 870.271 159.764 867.778 159.985C854.542 161.722 837.29 156.804 825.62 150.155C815.096 144.752 805.629 137.365 797.714 128.38C790.261 118.993 785.855 106.346 788.714 94.6894C790.173 89.1674 793.129 84.206 797.238 80.3845C801.347 76.563 806.439 74.0391 811.92 73.1074C822.841 71.4272 833.751 76.4787 843.337 82.107C853.545 88.5027 862.792 96.4189 870.772 105.596C882.962 119.138 891.131 148.322 874.891 157.823Z" fill="url(#paint2_linear_1290_21267)"/>
<path d="M922.649 138.852C921.814 140.843 920.406 142.516 918.613 143.647C916.821 144.777 914.729 145.31 912.619 145.175C909.996 144.862 907.514 143.744 905.497 141.967C903.479 140.189 902.018 137.834 901.304 135.207C899.397 128.163 900.807 122.615 906.768 120.999C908.339 120.637 909.974 120.665 911.54 121.081C918.433 122.768 925.382 131.36 922.649 138.852Z" fill="url(#paint3_linear_1290_21267)"/>
<path d="M154.837 661.109C201.297 689.422 255.906 715.616 306.485 703.735C369.94 688.51 416.581 622.834 414.448 557.061C413.133 526.724 404.673 497.087 389.8 470.715C374.926 444.343 354.087 422.029 329.084 405.702C280.528 373.894 208.778 343.184 150.401 349.356C130.929 351.448 112.119 357.608 95.1159 367.461C78.1131 377.313 63.2728 390.653 51.498 406.668C39.8834 422.834 31.7878 441.415 27.7547 461.164C23.7217 480.912 23.8447 501.372 28.1155 521.167C39.1245 569.777 75.7338 609.963 115.832 636.185C127.963 644.095 140.995 652.721 154.837 661.109Z" fill="url(#paint4_linear_1290_21267)"/>
<g opacity="0.5">
<path d="M506.849 304.762C505.251 304.753 503.962 303.406 503.972 301.753C503.981 300.101 505.285 298.768 506.884 298.777C508.482 298.787 509.771 300.134 509.761 301.787C509.752 303.439 508.448 304.772 506.849 304.762Z" fill="white"/>
<path d="M491.774 304.675C490.176 304.666 488.887 303.319 488.897 301.666C488.907 300.013 490.21 298.681 491.809 298.69C493.408 298.7 494.696 300.047 494.686 301.7C494.677 303.352 493.373 304.685 491.774 304.675Z" fill="white"/>
<path d="M476.681 304.588C475.082 304.579 473.794 303.232 473.803 301.579C473.813 299.926 475.117 298.594 476.715 298.603C478.314 298.613 479.602 299.96 479.593 301.612C479.583 303.265 478.279 304.597 476.681 304.588Z" fill="white"/>
<path d="M461.587 304.501C459.988 304.492 458.7 303.145 458.71 301.492C458.719 299.839 460.023 298.507 461.622 298.516C463.22 298.525 464.509 299.873 464.499 301.525C464.49 303.178 463.186 304.51 461.587 304.501Z" fill="white"/>
<path d="M446.494 304.414C444.895 304.405 443.607 303.058 443.616 301.405C443.626 299.752 444.929 298.42 446.528 298.429C448.127 298.438 449.415 299.786 449.405 301.438C449.396 303.091 448.092 304.423 446.494 304.414Z" fill="white"/>
<path d="M431.4 304.327C429.801 304.318 428.513 302.971 428.523 301.318C428.532 299.665 429.836 298.333 431.434 298.342C433.033 298.351 434.321 299.699 434.312 301.351C434.302 303.004 432.999 304.336 431.4 304.327Z" fill="white"/>
<path d="M416.306 304.24C414.707 304.231 413.419 302.883 413.429 301.231C413.438 299.578 414.742 298.246 416.341 298.255C417.939 298.264 419.228 299.612 419.218 301.264C419.209 302.917 417.905 304.249 416.306 304.24Z" fill="white"/>
<path d="M401.213 304.153C399.614 304.144 398.326 302.796 398.335 301.144C398.345 299.491 399.649 298.159 401.247 298.168C402.846 298.177 404.134 299.524 404.125 301.177C404.115 302.83 402.811 304.162 401.213 304.153Z" fill="white"/>
<path d="M386.119 304.066C384.52 304.057 383.232 302.709 383.242 301.057C383.251 299.404 384.555 298.072 386.154 298.081C387.752 298.09 389.04 299.437 389.031 301.09C389.021 302.743 387.718 304.075 386.119 304.066Z" fill="white"/>
<path d="M368.148 300.97C368.143 301.763 368.444 302.526 368.984 303.09C369.523 303.655 370.258 303.974 371.025 303.979C371.795 303.983 372.535 303.673 373.084 303.115C373.633 302.558 373.947 301.798 373.956 301.003C373.961 300.204 373.658 299.436 373.115 298.868C372.572 298.3 371.833 297.979 371.06 297.974C370.678 297.972 370.3 298.048 369.947 298.198C369.593 298.347 369.272 298.567 369.001 298.846C368.731 299.124 368.516 299.455 368.37 299.82C368.223 300.184 368.148 300.575 368.148 300.97Z" fill="white"/>
<path d="M355.95 303.892C354.352 303.883 353.063 302.535 353.073 300.883C353.083 299.23 354.386 297.898 355.985 297.907C357.584 297.916 358.872 299.263 358.862 300.916C358.853 302.569 357.549 303.901 355.95 303.892Z" fill="white"/>
<path d="M340.857 303.805C339.258 303.795 337.97 302.448 337.979 300.796C337.989 299.143 339.293 297.811 340.891 297.82C342.49 297.829 343.778 299.176 343.769 300.829C343.759 302.482 342.456 303.814 340.857 303.805Z" fill="white"/>
<path d="M322.867 300.708C322.862 301.502 323.163 302.265 323.703 302.829C324.242 303.393 324.977 303.713 325.744 303.717C326.126 303.722 326.505 303.649 326.859 303.502C327.213 303.354 327.536 303.136 327.808 302.86C328.081 302.583 328.298 302.254 328.446 301.89C328.595 301.527 328.673 301.136 328.675 300.742C328.68 300.346 328.609 299.952 328.465 299.585C328.322 299.217 328.109 298.883 327.84 298.601C327.57 298.32 327.249 298.096 326.896 297.944C326.542 297.791 326.162 297.713 325.779 297.713C325.397 297.711 325.019 297.787 324.666 297.936C324.312 298.086 323.991 298.306 323.72 298.585C323.45 298.863 323.235 299.194 323.089 299.558C322.942 299.923 322.867 300.314 322.867 300.708Z" fill="white"/>
<path d="M310.67 303.631C309.071 303.621 307.783 302.274 307.792 300.621C307.802 298.969 309.106 297.636 310.704 297.646C312.303 297.655 313.591 299.002 313.582 300.655C313.572 302.307 312.268 303.64 310.67 303.631Z" fill="white"/>
<path d="M295.576 303.543C293.977 303.534 292.689 302.187 292.698 300.534C292.708 298.882 294.012 297.549 295.61 297.559C297.209 297.568 298.497 298.915 298.488 300.568C298.478 302.22 297.175 303.553 295.576 303.543Z" fill="white"/>
<path d="M277.586 300.447C277.587 301.243 277.891 302.005 278.434 302.569C278.977 303.133 279.713 303.452 280.482 303.456C281.25 303.461 281.988 303.15 282.534 302.592C283.08 302.034 283.39 301.274 283.394 300.481C283.399 300.086 283.328 299.694 283.186 299.328C283.044 298.962 282.833 298.629 282.565 298.347C282.298 298.066 281.979 297.842 281.628 297.688C281.276 297.534 280.899 297.454 280.517 297.452C279.744 297.448 279.001 297.761 278.452 298.322C277.902 298.884 277.591 299.648 277.586 300.447Z" fill="white"/>
<path d="M265.389 303.369C263.79 303.36 262.502 302.013 262.511 300.36C262.521 298.708 263.825 297.375 265.423 297.384C267.022 297.394 268.31 298.741 268.301 300.394C268.291 302.046 266.987 303.379 265.389 303.369Z" fill="white"/>
<path d="M250.295 303.282C248.696 303.273 247.408 301.926 247.418 300.273C247.427 298.62 248.731 297.288 250.33 297.297C251.928 297.307 253.217 298.654 253.207 300.307C253.197 301.959 251.894 303.292 250.295 303.282Z" fill="white"/>
<path d="M232.324 300.186C232.319 300.98 232.62 301.743 233.16 302.307C233.699 302.871 234.434 303.191 235.201 303.195C235.971 303.2 236.711 302.889 237.26 302.332C237.809 301.774 238.123 301.015 238.132 300.22C238.137 299.421 237.834 298.653 237.291 298.085C236.748 297.517 236.009 297.195 235.236 297.191C234.854 297.189 234.476 297.264 234.123 297.414C233.769 297.564 233.448 297.784 233.177 298.062C232.907 298.341 232.692 298.672 232.546 299.036C232.399 299.401 232.324 299.791 232.324 300.186Z" fill="white"/>
<path d="M220.127 303.108C218.528 303.099 217.24 301.752 217.249 300.099C217.259 298.446 218.563 297.114 220.161 297.123C221.76 297.133 223.048 298.48 223.039 300.132C223.029 301.785 221.725 303.117 220.127 303.108Z" fill="white"/>
<path d="M205.033 303.021C203.434 303.012 202.146 301.665 202.156 300.012C202.165 298.359 203.469 297.027 205.067 297.036C206.666 297.045 207.954 298.393 207.945 300.045C207.935 301.698 206.632 303.03 205.033 303.021Z" fill="white"/>
<path d="M496.346 313.699C496.342 314.095 496.413 314.488 496.556 314.856C496.7 315.223 496.912 315.557 497.182 315.839C497.451 316.121 497.772 316.345 498.126 316.497C498.48 316.649 498.859 316.728 499.242 316.727C499.624 316.73 500.003 316.654 500.356 316.504C500.709 316.355 501.03 316.134 501.301 315.856C501.572 315.578 501.787 315.247 501.933 314.882C502.079 314.518 502.155 314.127 502.155 313.732C502.159 312.939 501.859 312.176 501.319 311.611C500.779 311.047 500.045 310.728 499.277 310.723C498.895 310.718 498.517 310.792 498.162 310.939C497.808 311.086 497.486 311.304 497.213 311.581C496.941 311.857 496.724 312.187 496.575 312.55C496.426 312.914 496.349 313.304 496.346 313.699Z" fill="white"/>
<path d="M484.149 316.64C482.55 316.631 481.262 315.284 481.272 313.631C481.281 311.979 482.585 310.646 484.183 310.656C485.782 310.665 487.07 312.012 487.061 313.665C487.051 315.317 485.748 316.65 484.149 316.64Z" fill="white"/>
<path d="M469.055 316.553C467.457 316.544 466.168 315.197 466.178 313.544C466.187 311.892 467.491 310.559 469.09 310.568C470.688 310.578 471.977 311.925 471.967 313.578C471.958 315.23 470.654 316.563 469.055 316.553Z" fill="white"/>
<path d="M453.962 316.466C452.363 316.457 451.075 315.11 451.084 313.457C451.094 311.804 452.398 310.472 453.996 310.481C455.595 310.491 456.883 311.838 456.874 313.491C456.864 315.143 455.56 316.476 453.962 316.466Z" fill="white"/>
<path d="M438.868 316.379C437.269 316.37 435.981 315.023 435.991 313.37C436 311.717 437.304 310.385 438.903 310.394C440.501 310.404 441.79 311.751 441.78 313.403C441.77 315.056 440.467 316.388 438.868 316.379Z" fill="white"/>
<path d="M423.793 316.292C422.195 316.283 420.906 314.936 420.916 313.283C420.925 311.63 422.229 310.298 423.828 310.307C425.426 310.317 426.715 311.664 426.705 313.316C426.696 314.969 425.392 316.301 423.793 316.292Z" fill="white"/>
<path d="M408.7 316.205C407.101 316.196 405.813 314.849 405.822 313.196C405.832 311.543 407.135 310.211 408.734 310.22C410.333 310.229 411.621 311.577 411.612 313.229C411.602 314.882 410.298 316.214 408.7 316.205Z" fill="white"/>
<path d="M393.606 316.118C392.007 316.109 390.719 314.762 390.729 313.109C390.738 311.456 392.042 310.124 393.64 310.133C395.239 310.142 396.527 311.49 396.518 313.142C396.508 314.795 395.205 316.127 393.606 316.118Z" fill="white"/>
<path d="M378.512 316.031C376.914 316.022 375.625 314.675 375.635 313.022C375.644 311.369 376.948 310.037 378.547 310.046C380.146 310.055 381.434 311.403 381.424 313.055C381.415 314.708 380.111 316.04 378.512 316.031Z" fill="white"/>
<path d="M363.419 315.944C361.82 315.935 360.532 314.587 360.541 312.935C360.551 311.282 361.854 309.95 363.453 309.959C365.052 309.968 366.34 311.316 366.331 312.968C366.321 314.621 365.017 315.953 363.419 315.944Z" fill="white"/>
<path d="M348.325 315.857C346.726 315.848 345.438 314.5 345.448 312.848C345.457 311.195 346.761 309.863 348.36 309.872C349.958 309.881 351.247 311.228 351.237 312.881C351.227 314.534 349.924 315.866 348.325 315.857Z" fill="white"/>
<path d="M333.231 315.77C331.633 315.761 330.345 314.413 330.354 312.761C330.364 311.108 331.667 309.776 333.266 309.785C334.865 309.794 336.153 311.141 336.143 312.794C336.134 314.447 334.83 315.779 333.231 315.77Z" fill="white"/>
<path d="M318.138 315.683C316.539 315.674 315.251 314.326 315.26 312.674C315.27 311.021 316.574 309.689 318.172 309.698C319.771 309.707 321.059 311.054 321.05 312.707C321.04 314.36 319.736 315.692 318.138 315.683Z" fill="white"/>
<path d="M303.063 315.596C301.464 315.587 300.176 314.239 300.185 312.587C300.195 310.934 301.499 309.602 303.097 309.611C304.696 309.62 305.984 310.967 305.975 312.62C305.965 314.273 304.662 315.605 303.063 315.596Z" fill="white"/>
<path d="M287.969 315.509C286.371 315.5 285.082 314.152 285.092 312.5C285.101 310.847 286.405 309.515 288.004 309.524C289.603 309.533 290.891 310.88 290.881 312.533C290.872 314.186 289.568 315.518 287.969 315.509Z" fill="white"/>
<path d="M272.876 315.422C271.277 315.412 269.989 314.065 269.998 312.412C270.008 310.76 271.312 309.428 272.91 309.437C274.509 309.446 275.797 310.793 275.788 312.446C275.778 314.099 274.474 315.431 272.876 315.422Z" fill="white"/>
<path d="M257.782 315.335C256.183 315.325 254.895 313.978 254.905 312.325C254.914 310.673 256.218 309.34 257.817 309.35C259.415 309.359 260.704 310.706 260.694 312.359C260.685 314.012 259.381 315.344 257.782 315.335Z" fill="white"/>
<path d="M242.688 315.248C241.09 315.238 239.801 313.891 239.811 312.238C239.82 310.586 241.124 309.253 242.723 309.263C244.322 309.272 245.61 310.619 245.6 312.272C245.591 313.924 244.287 315.257 242.688 315.248Z" fill="white"/>
<path d="M227.595 315.16C225.996 315.151 224.708 313.804 224.717 312.151C224.727 310.499 226.031 309.166 227.629 309.176C229.228 309.185 230.516 310.532 230.507 312.185C230.497 313.837 229.193 315.17 227.595 315.16Z" fill="white"/>
<path d="M212.501 315.073C210.903 315.064 209.614 313.717 209.624 312.064C209.633 310.412 210.937 309.079 212.536 309.088C214.134 309.098 215.423 310.445 215.413 312.098C215.404 313.75 214.1 315.083 212.501 315.073Z" fill="white"/>
<path d="M506.711 328.76C505.112 328.751 503.824 327.404 503.833 325.751C503.843 324.098 505.147 322.766 506.745 322.775C508.344 322.785 509.632 324.132 509.623 325.784C509.613 327.437 508.31 328.769 506.711 328.76Z" fill="white"/>
<path d="M491.636 328.673C490.037 328.664 488.749 327.317 488.759 325.664C488.768 324.011 490.072 322.679 491.671 322.688C493.269 322.698 494.557 324.045 494.548 325.698C494.538 327.35 493.235 328.683 491.636 328.673Z" fill="white"/>
<path d="M476.542 328.586C474.944 328.577 473.656 327.23 473.665 325.577C473.675 323.924 474.978 322.592 476.577 322.601C478.176 322.611 479.464 323.958 479.454 325.61C479.445 327.263 478.141 328.595 476.542 328.586Z" fill="white"/>
<path d="M461.449 328.499C459.85 328.49 458.562 327.143 458.571 325.49C458.581 323.837 459.885 322.505 461.483 322.514C463.082 322.523 464.37 323.871 464.361 325.523C464.351 327.176 463.047 328.508 461.449 328.499Z" fill="white"/>
<path d="M446.355 328.412C444.756 328.403 443.468 327.056 443.478 325.403C443.487 323.75 444.791 322.418 446.39 322.427C447.988 322.436 449.277 323.784 449.267 325.436C449.258 327.089 447.954 328.421 446.355 328.412Z" fill="white"/>
<path d="M431.261 328.325C429.663 328.316 428.375 326.969 428.384 325.316C428.394 323.663 429.697 322.331 431.296 322.34C432.895 322.349 434.183 323.697 434.173 325.349C434.164 327.002 432.86 328.334 431.261 328.325Z" fill="white"/>
<path d="M416.168 328.238C414.569 328.229 413.281 326.881 413.29 325.229C413.3 323.576 414.604 322.244 416.202 322.253C417.801 322.262 419.089 323.609 419.08 325.262C419.07 326.915 417.766 328.247 416.168 328.238Z" fill="white"/>
<path d="M401.074 328.151C399.476 328.142 398.187 326.794 398.197 325.142C398.206 323.489 399.51 322.157 401.109 322.166C402.707 322.175 403.996 323.522 403.986 325.175C403.977 326.828 402.673 328.16 401.074 328.151Z" fill="white"/>
<path d="M385.981 328.064C384.382 328.055 383.094 326.707 383.103 325.055C383.113 323.402 384.416 322.07 386.015 322.079C387.614 322.088 388.902 323.435 388.893 325.088C388.883 326.741 387.579 328.073 385.981 328.064Z" fill="white"/>
<path d="M368.01 324.967C368.005 325.761 368.306 326.524 368.845 327.088C369.385 327.653 370.119 327.972 370.887 327.977C371.656 327.981 372.396 327.671 372.946 327.113C373.495 326.556 373.808 325.796 373.818 325.001C373.817 324.206 373.513 323.443 372.97 322.879C372.427 322.315 371.691 321.996 370.921 321.992C370.154 321.987 369.416 322.298 368.87 322.856C368.324 323.414 368.014 324.174 368.01 324.967Z" fill="white"/>
<path d="M355.812 327.89C354.213 327.881 352.925 326.533 352.935 324.881C352.944 323.228 354.248 321.896 355.847 321.905C357.445 321.914 358.733 323.261 358.724 324.914C358.714 326.567 357.411 327.899 355.812 327.89Z" fill="white"/>
<path d="M340.718 327.803C339.12 327.793 337.832 326.446 337.841 324.794C337.851 323.141 339.154 321.809 340.753 321.818C342.352 321.827 343.64 323.174 343.63 324.827C343.621 326.48 342.317 327.812 340.718 327.803Z" fill="white"/>
<path d="M322.729 324.706C322.724 325.5 323.025 326.263 323.564 326.827C324.104 327.392 324.838 327.711 325.606 327.715C325.988 327.72 326.367 327.647 326.721 327.5C327.075 327.352 327.398 327.134 327.67 326.858C327.942 326.581 328.159 326.252 328.308 325.888C328.457 325.525 328.535 325.134 328.537 324.74C328.539 324.345 328.466 323.954 328.321 323.589C328.177 323.224 327.964 322.892 327.695 322.612C327.425 322.332 327.105 322.11 326.753 321.959C326.4 321.808 326.022 321.73 325.641 321.731C324.873 321.726 324.135 322.037 323.589 322.595C323.043 323.153 322.733 323.913 322.729 324.706Z" fill="white"/>
<path d="M310.531 327.629C308.933 327.619 307.644 326.272 307.654 324.619C307.663 322.967 308.967 321.634 310.566 321.644C312.164 321.653 313.453 323 313.443 324.653C313.434 326.305 312.13 327.638 310.531 327.629Z" fill="white"/>
<path d="M295.437 327.541C293.839 327.532 292.551 326.185 292.56 324.532C292.57 322.88 293.873 321.547 295.472 321.557C297.071 321.566 298.359 322.913 298.349 324.566C298.34 326.218 297.036 327.551 295.437 327.541Z" fill="white"/>
<path d="M277.448 324.445C277.448 325.241 277.753 326.004 278.296 326.567C278.838 327.131 279.575 327.45 280.344 327.454C281.112 327.459 281.85 327.148 282.396 326.59C282.942 326.032 283.251 325.272 283.256 324.479C283.261 323.685 282.96 322.922 282.42 322.358C281.881 321.793 281.146 321.474 280.379 321.469C279.609 321.465 278.869 321.775 278.32 322.333C277.771 322.89 277.457 323.65 277.448 324.445Z" fill="white"/>
<path d="M265.25 327.367C263.652 327.358 262.363 326.011 262.373 324.358C262.382 322.705 263.686 321.373 265.285 321.382C266.883 321.392 268.172 322.739 268.162 324.392C268.153 326.044 266.849 327.377 265.25 327.367Z" fill="white"/>
<path d="M250.157 327.28C248.558 327.271 247.27 325.924 247.279 324.271C247.289 322.618 248.593 321.286 250.191 321.295C251.79 321.305 253.078 322.652 253.069 324.304C253.059 325.957 251.755 327.289 250.157 327.28Z" fill="white"/>
<path d="M232.186 324.184C232.181 324.978 232.482 325.741 233.021 326.305C233.561 326.869 234.295 327.189 235.063 327.193C235.832 327.198 236.572 326.887 237.122 326.33C237.671 325.772 237.984 325.013 237.994 324.217C237.993 323.422 237.689 322.659 237.146 322.095C236.603 321.532 235.867 321.213 235.098 321.208C234.33 321.204 233.592 321.515 233.046 322.073C232.5 322.631 232.19 323.39 232.186 324.184Z" fill="white"/>
<path d="M219.988 327.106C218.39 327.097 217.101 325.75 217.111 324.097C217.12 322.444 218.424 321.112 220.023 321.121C221.621 321.131 222.91 322.478 222.9 324.13C222.891 325.783 221.587 327.115 219.988 327.106Z" fill="white"/>
<path d="M204.895 327.019C203.296 327.01 202.008 325.663 202.017 324.01C202.027 322.357 203.33 321.025 204.929 321.034C206.528 321.043 207.816 322.391 207.806 324.043C207.797 325.696 206.493 327.028 204.895 327.019Z" fill="white"/>
</g>
<path d="M1213.19 184.561L1215.18 187.226C1225.08 200.149 1230.39 216.15 1230.22 232.523C1229.43 248.791 1220.5 264.968 1206.05 271.366C1188.85 278.973 1168.74 271.735 1152.45 261.795C1135.36 251.338 1121.56 240.903 1102.36 236.456C1085.33 232.533 1067.14 231.114 1058.27 211.859C1049.86 193.59 1060.84 171.117 1077.42 160.519C1119.51 133.718 1181.82 144.197 1213.19 184.561Z" fill="url(#paint5_linear_1290_21267)"/>
</g>
<defs>
<linearGradient id="paint0_linear_1290_21267" x1="1053.59" y1="672.685" x2="998.978" y2="453.298" gradientUnits="userSpaceOnUse">
<stop stop-color="#10A2B5"/>
<stop offset="0.22" stop-color="#0E96AB"/>
<stop offset="0.62" stop-color="#077590"/>
<stop offset="1" stop-color="#004F72"/>
</linearGradient>
<linearGradient id="paint1_linear_1290_21267" x1="269.824" y1="788.232" x2="1082.23" y2="111.469" gradientUnits="userSpaceOnUse">
<stop stop-color="#10566D"/>
<stop offset="1" stop-color="#0099A3"/>
</linearGradient>
<linearGradient id="paint2_linear_1290_21267" x1="802.524" y1="85.7841" x2="883.903" y2="161.17" gradientUnits="userSpaceOnUse">
<stop stop-color="#65C8D0"/>
<stop offset="0.19" stop-color="#59C2CC"/>
<stop offset="0.53" stop-color="#37B1C0"/>
<stop offset="0.98" stop-color="#0297AD"/>
<stop offset="1" stop-color="#0096AC"/>
</linearGradient>
<linearGradient id="paint3_linear_1290_21267" x1="907.518" y1="121.378" x2="917.298" y2="146.916" gradientUnits="userSpaceOnUse">
<stop stop-color="#10A2B5"/>
<stop offset="0.24" stop-color="#0F9EB2"/>
<stop offset="0.45" stop-color="#0D94A9"/>
<stop offset="0.65" stop-color="#0A819B"/>
<stop offset="0.85" stop-color="#056886"/>
<stop offset="1" stop-color="#004F72"/>
</linearGradient>
<linearGradient id="paint4_linear_1290_21267" x1="83.8009" y1="706.016" x2="436.573" y2="531.23" gradientUnits="userSpaceOnUse">
<stop stop-color="#10566D"/>
<stop offset="1" stop-color="#0099A3"/>
</linearGradient>
<linearGradient id="paint5_linear_1290_21267" x1="1079.75" y1="281.212" x2="1230.49" y2="196.337" gradientUnits="userSpaceOnUse">
<stop stop-color="#10566D"/>
<stop offset="1" stop-color="#0099A3"/>
</linearGradient>
<clipPath id="clip0_1290_21267">
<rect width="1228.91" height="662.507" fill="white" transform="matrix(-0.983434 0.181265 0.181265 0.983434 1208.56 0)"/>
</clipPath>
</defs>
</svg>
