<svg width="32" height="32" viewBox="0 0 32 32" fill="none" xmlns="http://www.w3.org/2000/svg">
<path d="M4.02406 32C4.05791 32.0001 4.09162 31.9956 4.12421 31.9867L8.30987 30.9782C11.8819 30.1159 15.3245 28.8089 18.5521 27.0898C22.3193 25.0797 25.7517 22.5271 28.7329 19.5189L31.8602 16.3671C31.95 16.2747 32 16.1524 32 16.0253C32 15.8983 31.95 15.776 31.8602 15.6836L28.8171 12.5008L28.7898 12.4787C23.4118 6.86007 16.4583 2.89483 8.78784 1.07251C8.75452 1.06035 8.72028 1.05074 8.68542 1.04376C8.65128 1.04376 8.61941 1.04376 8.58982 1.02607C8.46691 0.997312 8.34173 0.964135 8.21882 0.935382L4.08779 0.0130647C3.96512 -0.0149294 3.83613 0.00241493 3.7259 0.0617241C3.67224 0.0898108 3.6244 0.127305 3.58478 0.172314C3.54341 0.219437 3.51103 0.273368 3.48919 0.331563L2.07121 4.2022L2.02568 4.33491L1.97106 4.48752L1.95058 4.54724L1.88457 4.73966L1.71387 5.24395L1.69794 5.29261C0.641945 8.50676 0.0700397 11.8525 0 15.2258C0 15.4669 0 15.7102 0 15.9534V15.98C0.0015583 19.0628 0.421703 22.132 1.24955 25.1081C1.49233 25.9839 1.77001 26.8509 2.08259 27.7091L2.46041 28.742L3.5256 31.6572C3.55717 31.7438 3.61279 31.8202 3.68631 31.878C3.75982 31.9358 3.84837 31.9726 3.94212 31.9845C3.97313 31.9879 4.00443 31.9879 4.03544 31.9845L4.02406 32ZM6.52772 30.3765C6.04975 29.118 3.29345 21.6289 3.44594 16.387C3.53745 12.8599 4.03832 9.35414 4.93903 5.93624L5.75614 6.14636C5.76136 6.14768 5.76684 6.14768 5.77207 6.14636C5.96781 6.1906 6.16582 6.23926 6.36156 6.28792C5.62939 8.34566 5.14888 10.48 4.92993 12.6468C4.8049 13.7486 4.74183 14.8561 4.74102 15.9645V16.2454C4.74102 19.8174 5.42383 23.2214 7.03755 27.6229L7.90245 30.0404C7.54967 30.1288 7.05349 30.2483 6.52999 30.3765H6.52772ZM22.6262 17.4354C22.5284 17.5194 22.4328 17.6079 22.3326 17.6919C22.3121 17.7118 22.2894 17.7295 22.2666 17.7494C21.1611 18.721 19.9801 19.6084 18.7342 20.4036C18.6591 20.4544 18.5794 20.5031 18.5066 20.554C18.3677 20.6424 18.2289 20.7331 18.0878 20.8194L17.7418 21.0406C17.4778 21.202 17.2138 21.3613 16.9475 21.5161L16.8951 21.5449C16.5219 21.766 16.1486 21.9739 15.773 22.173C14.4781 22.8618 13.1419 23.4748 11.7717 24.0088L11.6557 24.0552C11.3712 24.1636 11.0844 24.2764 10.7976 24.3715L10.57 24.4534C10.306 24.5463 10.0419 24.6325 9.77564 24.721L9.47065 24.8205C9.22256 24.8979 8.97447 24.9731 8.72411 25.0417C8.60348 25.0771 8.48285 25.1147 8.35994 25.1479C8.13234 25.2164 7.8888 25.2784 7.65209 25.3403C7.55649 25.3646 7.4609 25.3912 7.3653 25.4155L7.16956 24.7984C6.81678 23.6527 6.53455 22.5689 6.3206 21.5227C5.95902 19.7871 5.77604 18.0207 5.77435 16.2498V15.9247C5.77435 15.5929 5.77434 15.2612 5.79483 14.9338L5.81076 14.5556C5.81076 14.3211 5.83807 14.0889 5.85628 13.8567C5.87449 13.6244 5.8927 13.3966 5.91546 13.1644C5.92912 13.025 5.9405 12.8857 5.95643 12.7464L5.97464 12.5915L6.02471 12.1846C6.25918 10.2719 6.70403 8.38925 7.35165 6.56882L7.37441 6.50689C7.51097 6.53785 7.64754 6.57324 7.7841 6.60642C7.97984 6.65508 8.17785 6.70374 8.3736 6.75682C8.56934 6.8099 8.76052 6.8652 8.95399 6.92049C9.14746 6.97579 9.32726 7.02666 9.51162 7.08195C9.69598 7.13725 9.92359 7.21245 10.1307 7.2788C10.2991 7.3341 10.4676 7.38718 10.636 7.44469C10.8636 7.51989 11.0912 7.60172 11.3029 7.68135C11.4508 7.73443 11.5988 7.78751 11.7444 7.84281C11.9857 7.93349 12.2247 8.03081 12.4637 8.12592C12.5888 8.17679 12.714 8.22545 12.8392 8.27853C13.0964 8.3847 13.349 8.49971 13.604 8.6103C13.7109 8.65675 13.8179 8.7032 13.9226 8.75185C14.1866 8.87129 14.4484 8.99736 14.7101 9.12565L14.9969 9.26278C15.2587 9.39328 15.5158 9.52819 15.773 9.66533C15.8504 9.70514 15.9278 9.74274 16.0006 9.78476L16.1805 9.87766C16.2578 9.91526 16.333 9.95507 16.4081 9.99488C17.0363 10.3399 17.6872 10.7358 18.3427 11.1671L18.4656 11.249C18.5089 11.2755 18.5498 11.3021 18.5908 11.3308C18.741 11.4281 18.8867 11.5299 19.046 11.6294C19.31 11.8086 19.5695 11.9921 19.829 12.1779C19.9746 12.2841 20.1226 12.388 20.266 12.4964C20.4094 12.6048 20.5778 12.7309 20.7212 12.8481C20.8646 12.9653 21.0171 13.0693 21.1627 13.1953C21.3084 13.3214 21.445 13.4165 21.5838 13.5337C21.8114 13.7107 22.0117 13.8898 22.2234 14.0734L22.5375 14.3477C22.7651 14.5556 23.0063 14.7679 23.2362 14.9825L23.4866 15.2213C23.6937 15.4204 23.9008 15.6217 24.1034 15.8252L24.224 15.9446C23.696 16.4577 23.1679 16.951 22.6262 17.4354ZM24.9023 16.6856C25.1936 16.9797 25.485 17.2739 25.7558 17.5703L25.9151 17.7494C23.3796 19.7975 20.8509 21.87 17.974 23.4647C14.8534 25.1926 11.5691 26.6251 8.16648 27.7423L8.00715 27.2999C7.89107 26.9837 7.77955 26.674 7.67712 26.3688C10.6664 25.6065 13.5488 24.4924 16.2601 23.0511C17.2934 22.5004 18.3199 21.8877 19.3009 21.2396C21.3307 19.9176 23.2113 18.3911 24.9114 16.6856H24.9023ZM27.3923 19.4061C24.6218 22.0923 21.4748 24.385 18.0445 26.2162C15.1508 27.7577 12.0785 28.959 8.89254 29.7948L8.49423 28.6889C11.9594 27.5501 15.3039 26.0903 18.4815 24.3295C21.4222 22.7038 24.001 20.669 26.5979 18.5788L27.3923 19.4061ZM4.30174 1.08136L7.98667 1.90636C15.6788 3.62385 22.6643 7.54304 28.041 13.1577L30.7722 16.0154L29.9938 16.8094C26.6917 13.0535 22.7527 9.87426 18.3473 7.4093C13.8725 4.88224 8.99201 3.10494 3.91026 2.15187L4.30174 1.08136ZM6.01105 5.18202L3.0795 4.42338L3.55292 3.0963C8.57727 4.02213 13.403 5.77153 17.8238 8.26968C22.1589 10.6939 26.0317 13.8259 29.2723 17.5282L28.1161 18.6939L26.5228 16.8957C26.1518 16.5108 25.7717 16.1215 25.3848 15.7367C25.3632 15.6974 25.3364 15.6609 25.3051 15.6283C23.462 13.7043 21.4004 11.9896 19.1598 10.5169C18.3973 10.0059 17.6371 9.54146 16.902 9.13671L16.647 9.004C16.5924 8.97525 16.5355 8.9487 16.4854 8.91995C13.5581 7.34036 10.4167 6.16844 7.15363 5.43859C7.11714 5.42982 7.07969 5.42536 7.04211 5.42532C6.69615 5.34127 6.35474 5.25944 6.01105 5.18202ZM3.03625 27.3884C1.69946 23.7288 1.01517 19.8744 1.01284 15.9911V15.9667C1.01215 12.3684 1.59751 8.7927 2.7472 5.37224L3.9535 5.68189C3.02708 9.17573 2.51092 12.7603 2.41489 16.3671V16.8094C2.41489 22.1177 4.93903 29.0716 5.52625 30.6154C5.05511 30.7282 4.61584 30.8366 4.31995 30.9074L3.03625 27.3884Z" fill="#0099A3"/>
</svg>
