<svg width="80" height="80" viewBox="0 0 80 80" fill="none" xmlns="http://www.w3.org/2000/svg">
<rect width="80" height="80" rx="8" fill="#E5F5F2"/>
<g clip-path="url(#clip0_247_6486)">
<path d="M41.0006 53.882C33.8959 53.882 28.083 48.0691 28.083 40.9645C28.083 33.8598 33.8959 28.0469 41.0006 28.0469C48.1053 28.0469 53.9182 33.8598 53.9182 40.9645C53.9182 48.0691 48.1053 53.882 41.0006 53.882ZM41.0006 29.4822C34.6853 29.4822 29.5183 34.6492 29.5183 40.9645C29.5183 47.2797 34.6853 52.4468 41.0006 52.4468C47.3159 52.4468 52.4829 47.2797 52.4829 40.9645C52.4829 34.6492 47.3159 29.4822 41.0006 29.4822Z" fill="#0099A3"/>
<path d="M41.0017 53.882C37.1264 53.882 34.1123 48.2127 34.1123 40.9645C34.1123 33.7163 37.1264 28.0469 41.0017 28.0469C44.877 28.0469 47.8911 33.7163 47.8911 40.9645C47.8911 48.2127 44.877 53.882 41.0017 53.882ZM41.0017 29.4822C38.0593 29.4822 35.5476 34.721 35.5476 40.9645C35.5476 47.208 38.0593 52.4468 41.0017 52.4468C43.944 52.4468 46.4558 47.208 46.4558 40.9645C46.4558 34.721 43.944 29.4822 41.0017 29.4822Z" fill="#0099A3"/>
<path d="M41.0006 47.853C33.7524 47.853 28.083 44.8389 28.083 40.9636C28.083 37.0883 33.7524 34.0742 41.0006 34.0742C48.2488 34.0742 53.9182 37.0883 53.9182 40.9636C53.9182 44.8389 48.2488 47.853 41.0006 47.853ZM41.0006 35.5095C34.7571 35.5095 29.5183 38.0213 29.5183 40.9636C29.5183 43.9059 34.7571 46.4177 41.0006 46.4177C47.2441 46.4177 52.4829 43.9059 52.4829 40.9636C52.4829 38.0213 47.2441 35.5095 41.0006 35.5095Z" fill="#0099A3"/>
<path d="M41.0008 53.882C40.5703 53.882 40.2832 53.595 40.2832 53.1644V28.7645C40.2832 28.3339 40.5703 28.0469 41.0008 28.0469C41.4314 28.0469 41.7185 28.3339 41.7185 28.7645V53.1644C41.7185 53.595 41.4314 53.882 41.0008 53.882Z" fill="#0099A3"/>
<path d="M53.2013 41.6813H28.8014C28.3708 41.6813 28.0838 41.3942 28.0838 40.9636C28.0838 40.5331 28.3708 40.246 28.8014 40.246H53.2013C53.6319 40.246 53.9189 40.5331 53.9189 40.9636C53.9189 41.3942 53.6319 41.6813 53.2013 41.6813ZM25.572 32.926C24.7108 32.926 23.7779 32.7825 22.9167 32.4237C21.0509 31.706 19.5438 30.3425 18.7544 28.5484C17.8932 26.7543 17.8215 24.6731 18.5391 22.8073C19.2568 20.9414 20.6203 19.5061 22.4144 18.7167C24.2085 17.8555 26.2179 17.7838 28.0838 18.4296C29.9496 19.1473 31.4567 20.5108 32.2461 22.3049C33.1073 24.099 33.179 26.1084 32.4614 28.0461C31.7437 29.9119 30.3802 31.419 28.5861 32.2802C27.6532 32.7107 26.5767 32.926 25.572 32.926ZM25.572 19.4343C24.7108 19.4343 23.8497 19.6496 23.0603 20.0085C21.5532 20.6543 20.405 21.8026 19.8309 23.3096C19.2568 24.8167 19.3285 26.4672 20.0462 27.9743C20.692 29.4096 21.912 30.5578 23.4191 31.1319C24.9261 31.706 26.5767 31.6343 28.012 30.9884C29.4473 30.3425 30.5955 29.1225 31.1696 27.6155C31.7437 26.1084 31.672 24.4578 30.9543 23.0226C30.2367 21.5155 29.0885 20.439 27.5814 19.8649C26.9355 19.5779 26.2179 19.4343 25.572 19.4343Z" fill="#0099A3"/>
<path d="M25.5726 28.6915C23.635 28.6915 22.1279 26.4668 22.1279 24.6009C22.1279 22.7351 23.7067 21.1562 25.5726 21.1562C27.4385 21.1562 29.0173 22.7351 29.0173 24.6009C29.0173 26.4668 27.5103 28.6915 25.5726 28.6915ZM25.5726 22.5915C24.4962 22.5915 23.5632 23.5245 23.5632 24.6009C23.5632 25.7492 24.5679 27.2562 25.5726 27.2562C26.5773 27.2562 27.582 25.7492 27.582 24.6009C27.582 23.5245 26.6491 22.5915 25.5726 22.5915Z" fill="#0099A3"/>
<path d="M29.4468 31.5621C29.3032 31.5621 29.2315 31.5621 29.088 31.4904L27.868 30.8445L27.2221 30.4857C26.5044 30.1268 26.0739 29.3374 26.0739 28.6198V27.6151C26.0739 27.1845 26.3609 26.8974 26.7915 26.8974C27.2221 26.8974 27.5091 27.1845 27.5091 27.6151V28.6198C27.5091 28.9068 27.6527 29.1221 27.9397 29.2657L28.5138 29.6245L29.6621 30.2704C30.0209 30.4857 30.1644 30.9162 29.9491 31.2751C29.9491 31.4186 29.7338 31.5621 29.4468 31.5621ZM21.5527 31.4904C21.2656 31.4904 21.0503 31.3468 20.9068 31.1315C20.6915 30.7727 20.8351 30.3421 21.1939 30.1268L23.0597 29.1221C23.4186 28.9068 23.4903 28.6198 23.4903 28.4763V27.4715C23.4903 27.041 23.7774 26.7539 24.208 26.7539C24.6386 26.7539 24.9256 27.041 24.9256 27.4715V28.4763C24.9256 29.2657 24.495 29.9833 23.7774 30.4139L21.9115 31.4186C21.768 31.4904 21.6962 31.4904 21.5527 31.4904Z" fill="#0099A3"/>
<path d="M25.572 32.926C24.7108 32.926 23.7779 32.7825 22.9167 32.4237C21.0509 31.706 19.5438 30.3425 18.7544 28.5484C17.8932 26.7543 17.8215 24.6731 18.5391 22.8073C19.2568 20.9414 20.6203 19.5061 22.4144 18.7167C24.2085 17.8555 26.2179 17.7838 28.0838 18.4296C29.9496 19.1473 31.4567 20.5108 32.2461 22.3049C33.1073 24.099 33.179 26.1084 32.4614 28.0461C31.7437 29.9119 30.3802 31.419 28.5861 32.2802C27.6532 32.7107 26.5767 32.926 25.572 32.926ZM25.572 19.4343C24.7108 19.4343 23.8497 19.6496 23.0603 20.0085C21.5532 20.6543 20.405 21.8026 19.8309 23.3096C19.2568 24.8167 19.3285 26.4672 20.0462 27.9743C20.692 29.4096 21.912 30.5578 23.4191 31.1319C24.9261 31.706 26.5767 31.6343 28.012 30.9884C29.4473 30.3425 30.5955 29.1225 31.1696 27.6155C31.7437 26.1084 31.672 24.4578 30.9543 23.0226C30.2367 21.5155 29.0885 20.439 27.5814 19.8649C26.9355 19.5779 26.2179 19.4343 25.572 19.4343Z" fill="#0099A3"/>
<path d="M25.5726 28.6915C23.635 28.6915 22.1279 26.4668 22.1279 24.6009C22.1279 22.7351 23.7067 21.1562 25.5726 21.1562C27.4385 21.1562 29.0173 22.7351 29.0173 24.6009C29.0173 26.4668 27.5103 28.6915 25.5726 28.6915ZM25.5726 22.5915C24.4962 22.5915 23.5632 23.5245 23.5632 24.6009C23.5632 25.7492 24.5679 27.2562 25.5726 27.2562C26.5773 27.2562 27.582 25.7492 27.582 24.6009C27.582 23.5245 26.6491 22.5915 25.5726 22.5915Z" fill="#0099A3"/>
<path d="M29.4468 31.5616C29.3032 31.5616 29.2315 31.5616 29.088 31.4899L27.868 30.844L27.2221 30.4852C26.5044 30.1264 26.0739 29.337 26.0739 28.6193V27.6146C26.0739 27.184 26.3609 26.897 26.7915 26.897C27.2221 26.897 27.5091 27.184 27.5091 27.6146V28.6193C27.5091 28.9064 27.6527 29.1217 27.9397 29.2652L28.5138 29.624L29.6621 30.2699C30.0209 30.4852 30.1644 30.9158 29.9491 31.2746C29.9491 31.4181 29.7338 31.5616 29.4468 31.5616ZM21.5527 31.4899C21.2656 31.4899 21.0503 31.3464 20.9068 31.1311C20.6915 30.7722 20.8351 30.3417 21.1939 30.1264L23.0597 29.1217C23.4186 28.9064 23.4903 28.6193 23.4903 28.4758V27.4711C23.4903 27.0405 23.7774 26.7534 24.208 26.7534C24.6386 26.7534 24.9256 27.0405 24.9256 27.4711V28.4758C24.9256 29.2652 24.495 29.9828 23.7774 30.4134L21.9115 31.4181C21.768 31.4899 21.6962 31.4899 21.5527 31.4899ZM56.5019 32.9969C55.6408 32.9969 54.7796 32.8534 53.9184 32.4946C52.0525 31.7769 50.5455 30.4134 49.6843 28.6193C48.0337 24.8158 49.6843 20.3664 53.4161 18.7158C55.2819 17.8547 57.3631 17.8547 59.229 18.5723C61.0231 19.2899 62.4584 20.6535 63.2478 22.3758C64.109 24.1699 64.1807 26.1793 63.4631 28.0452C62.7454 29.9111 61.3819 31.4181 59.5878 32.2793C58.5831 32.7816 57.5784 32.9969 56.5019 32.9969ZM56.5737 19.5052C55.7125 19.5052 54.8514 19.7205 53.9902 20.0793C50.9761 21.3711 49.6126 24.9593 50.9761 28.0452C52.4114 31.0593 55.9996 32.4228 59.0137 30.9875C62.0278 29.5522 63.3913 25.964 61.956 22.9499C61.3101 21.5146 60.1619 20.4382 58.7266 19.8641C58.009 19.577 57.2913 19.5052 56.5737 19.5052Z" fill="#0099A3"/>
<path d="M56.5746 28.6915C54.6369 28.6915 53.1299 26.4668 53.1299 24.6009C53.1299 22.7351 54.7087 21.1562 56.5746 21.1562C58.4404 21.1562 60.0193 22.7351 60.0193 24.6009C60.0193 26.4668 58.5122 28.6915 56.5746 28.6915ZM56.5746 22.5915C55.4981 22.5915 54.5652 23.5245 54.5652 24.6009C54.5652 25.7492 55.5699 27.2562 56.5746 27.2562C57.5793 27.2562 58.584 25.7492 58.584 24.6009C58.584 23.5245 57.651 22.5915 56.5746 22.5915Z" fill="#0099A3"/>
<path d="M60.4497 31.5621C60.3062 31.5621 60.2344 31.5621 60.0909 31.4904L58.8709 30.8445L58.225 30.4857C57.5074 30.1268 57.0768 29.3374 57.0768 28.6198V27.6151C57.0768 27.1845 57.3639 26.8974 57.7944 26.8974C58.225 26.8974 58.5121 27.1845 58.5121 27.6151V28.6198C58.5121 28.9068 58.6556 29.1221 58.9427 29.2657L59.5168 29.6245L60.665 30.2704C61.0238 30.4857 61.1674 30.9162 60.9521 31.2751C60.9521 31.4186 60.7368 31.5621 60.4497 31.5621ZM52.5556 31.4904C52.2686 31.4904 52.0533 31.3468 51.9098 31.1315C51.6945 30.7727 51.838 30.3421 52.1968 30.1268L54.0627 29.1221C54.4215 28.9068 54.4933 28.6198 54.4933 28.4763V27.4715C54.4933 27.041 54.7803 26.7539 55.2109 26.7539C55.6415 26.7539 55.9286 27.041 55.9286 27.4715V28.4763C55.9286 29.2657 55.498 29.9833 54.7803 30.4139L52.9145 31.4186C52.7709 31.4904 52.6992 31.4904 52.5556 31.4904ZM25.5005 63.9278C24.5675 63.9278 23.7064 63.7843 22.7734 63.4255C20.9076 62.7079 19.4723 61.3443 18.6829 59.5502C16.9605 55.8185 18.6111 51.3691 22.3429 49.6467C26.0746 47.9962 30.4522 49.6467 32.1746 53.3785C33.0357 55.1726 33.1075 57.182 32.3899 59.1196C31.6722 60.9855 30.3087 62.4926 28.5146 63.3537C27.5817 63.7125 26.577 63.9278 25.5005 63.9278ZM25.4287 50.4361C24.6393 50.4361 23.7781 50.5797 22.9887 50.9385C19.9746 52.3738 18.6111 55.962 20.0464 58.9761C20.6923 60.4114 21.8405 61.5596 23.3476 62.1337C24.8546 62.7078 26.5052 62.7078 28.0122 61.9902C29.4475 61.3443 30.5958 60.1243 31.1699 58.6173C31.744 57.1102 31.6722 55.4596 30.9546 54.0244C29.8781 51.7279 27.7252 50.4361 25.4287 50.4361Z" fill="#0099A3"/>
<path d="M25.5726 59.767C23.635 59.767 22.1279 57.5423 22.1279 55.6764C22.1279 53.8105 23.7067 52.2317 25.5726 52.2317C26.4338 52.1599 27.295 52.5188 27.9408 53.1646C28.6585 53.8105 29.0173 54.7435 29.0173 55.6764C29.0173 57.5423 27.5103 59.767 25.5726 59.767ZM25.7161 53.667H25.6444C24.4962 53.667 23.635 54.5999 23.635 55.6764C23.635 56.8246 24.6397 58.3317 25.6444 58.3317C26.6491 58.3317 27.6538 56.8246 27.6538 55.6764C27.6538 55.1023 27.4385 54.5999 27.0079 54.1694C26.5773 53.8105 26.1467 53.667 25.7161 53.667Z" fill="#0099A3"/>
<path d="M29.4468 62.6378C29.3032 62.6378 29.2315 62.6378 29.088 62.566L27.868 61.9201L27.2221 61.5613C26.5044 61.2025 26.0739 60.4131 26.0739 59.6954V58.619C26.0739 58.1884 26.3609 57.9013 26.7915 57.9013C27.2221 57.9013 27.5091 58.1884 27.5091 58.619V59.6237C27.5091 59.9107 27.6527 60.126 27.9397 60.2696L28.5138 60.6284L29.6621 61.2743C30.0209 61.4896 30.1644 61.9201 29.9491 62.279C29.9491 62.4943 29.7338 62.6378 29.4468 62.6378ZM21.5527 62.4943C21.2656 62.4943 21.0503 62.3507 20.9068 62.1354C20.6915 61.7766 20.8351 61.346 21.1939 61.1307L23.0597 60.126C23.4186 59.9107 23.4903 59.6237 23.4903 59.4802V58.4755C23.4903 58.0449 23.7774 57.7578 24.208 57.7578C24.6386 57.7578 24.9256 58.0449 24.9256 58.4755V59.4802C24.9256 60.2696 24.495 60.9872 23.7774 61.4178L21.9115 62.4225C21.768 62.4943 21.6962 62.4943 21.5527 62.4943Z" fill="#0099A3"/>
<path d="M25.5005 63.9284C24.5675 63.9284 23.7064 63.7849 22.7734 63.4261C20.9076 62.7084 19.4723 61.3449 18.6829 59.5508C16.9605 55.819 18.6111 51.3696 22.3429 49.6473C26.0746 47.9967 30.4522 49.6473 32.1746 53.379C33.0357 55.1732 33.1075 57.1826 32.3899 59.1202C31.6722 60.9861 30.3087 62.4931 28.5146 63.3543C27.5817 63.7131 26.577 63.9284 25.5005 63.9284ZM25.4287 50.4367C24.6393 50.4367 23.7781 50.5802 22.9887 50.9391C19.9746 52.3743 18.6111 55.9626 20.0464 58.9767C20.6923 60.412 21.8405 61.5602 23.3476 62.1343C24.8546 62.7084 26.5052 62.7084 28.0122 61.9908C29.4475 61.3449 30.5958 60.1249 31.1699 58.6178C31.744 57.1108 31.6722 55.4602 30.9546 54.0249C29.8781 51.7285 27.7252 50.4367 25.4287 50.4367Z" fill="#0099A3"/>
<path d="M25.5726 59.767C23.635 59.767 22.1279 57.5423 22.1279 55.6764C22.1279 53.8105 23.7067 52.2317 25.5726 52.2317C26.4338 52.1599 27.295 52.5188 27.9408 53.1646C28.6585 53.8105 29.0173 54.7435 29.0173 55.6764C29.0173 57.5423 27.5103 59.767 25.5726 59.767ZM25.7161 53.667H25.6444C24.4962 53.667 23.635 54.5999 23.635 55.6764C23.635 56.8246 24.6397 58.3317 25.6444 58.3317C26.6491 58.3317 27.6538 56.8246 27.6538 55.6764C27.6538 55.1023 27.4385 54.5999 27.0079 54.1694C26.5773 53.8105 26.1467 53.667 25.7161 53.667Z" fill="#0099A3"/>
<path d="M29.4468 62.6378C29.3032 62.6378 29.2315 62.6378 29.088 62.566L27.868 61.9202L27.2221 61.5613C26.5044 61.2025 26.0739 60.4131 26.0739 59.6955V58.619C26.0739 58.1884 26.3609 57.9014 26.7915 57.9014C27.2221 57.9014 27.5091 58.1884 27.5091 58.619V59.6237C27.5091 59.9108 27.6527 60.1261 27.9397 60.2696L28.5138 60.6284L29.6621 61.2743C30.0209 61.4896 30.1644 61.9202 29.9491 62.279C29.9491 62.4943 29.7338 62.6378 29.4468 62.6378ZM21.5527 62.4943C21.2656 62.4943 21.0503 62.3507 20.9068 62.1355C20.6915 61.7766 20.8351 61.346 21.1939 61.1307L23.0597 60.1261C23.4186 59.9108 23.4903 59.6237 23.4903 59.4802V58.4755C23.4903 58.0449 23.7774 57.7578 24.208 57.7578C24.6386 57.7578 24.9256 58.0449 24.9256 58.4755V59.4802C24.9256 60.2696 24.495 60.9872 23.7774 61.4178L21.9115 62.4225C21.768 62.4943 21.6962 62.4943 21.5527 62.4943ZM56.5019 64.0013C55.6408 64.0013 54.7796 63.8578 53.9184 63.499C52.0525 62.7813 50.5455 61.4178 49.6843 59.6237C47.962 55.892 49.6126 51.4426 53.3443 49.7202C55.2102 48.859 57.2913 48.7873 59.1572 49.5049C61.0231 50.2226 62.4584 51.5861 63.2478 53.3802C64.9701 57.1119 63.3196 61.5613 59.5878 63.2837C58.5831 63.786 57.5784 64.0013 56.5019 64.0013ZM56.5019 50.4379C55.6408 50.4379 54.7796 50.6532 53.9184 51.012C50.9043 52.4473 49.5408 56.0355 50.9761 59.0496C51.6937 60.4849 52.842 61.6331 54.4208 62.2072C55.9278 62.7813 57.5784 62.7096 59.0137 61.9919C62.0278 60.5566 63.3913 56.9684 61.956 53.9543C61.3102 52.519 60.1619 51.3708 58.6549 50.8684C57.9372 50.5814 57.2196 50.4379 56.5019 50.4379Z" fill="#0099A3"/>
<path d="M56.5746 59.767C54.6369 59.767 53.1299 57.5423 53.1299 55.6764C53.1299 53.8105 54.7087 52.2317 56.5746 52.2317C57.4357 52.1599 58.2969 52.5188 58.9428 53.1646C59.6604 53.8105 60.0193 54.7435 60.0193 55.6764C60.0193 57.5423 58.5122 59.767 56.5746 59.767ZM56.7181 53.667H56.6463C55.4981 53.667 54.6369 54.5999 54.6369 55.6764C54.6369 56.8246 55.6416 58.3317 56.6463 58.3317C57.651 58.3317 58.6557 56.8246 58.6557 55.6764C58.6557 55.1023 58.4404 54.5999 58.0099 54.1694C57.5793 53.8105 57.1487 53.667 56.7181 53.667Z" fill="#0099A3"/>
<path d="M60.4494 62.6383C60.3059 62.6383 60.2341 62.6383 60.0906 62.5665L58.8706 61.9206L58.2247 61.5618C57.5071 61.203 57.0765 60.4136 57.0765 59.6959V58.6195C57.0765 58.1889 57.3636 57.9018 57.7941 57.9018C58.2247 57.9018 58.5118 58.1889 58.5118 58.6195V59.6242C58.5118 59.9112 58.6553 60.1265 58.9424 60.2701L59.5165 60.6289L60.6647 61.2748C61.0235 61.4901 61.1671 61.9206 60.9518 62.2795C60.9518 62.4948 60.7365 62.6383 60.4494 62.6383ZM52.5553 62.4948C52.2683 62.4948 52.053 62.3512 51.9095 62.1359C51.6942 61.7771 51.8377 61.3465 52.1965 61.1312L54.0624 60.1265C54.4212 59.9112 54.493 59.6242 54.493 59.4806V58.4759C54.493 58.0454 54.78 57.7583 55.2106 57.7583C55.6412 57.7583 55.9283 58.0454 55.9283 58.4759V59.4806C55.9283 60.2701 55.4977 60.9877 54.78 61.4183L52.9142 62.423C52.7706 62.4948 52.6989 62.4948 52.5553 62.4948ZM41.0013 60.9159C37.7001 60.9159 34.6143 60.1265 31.7437 58.6195C31.3849 58.4042 31.2413 57.9736 31.4566 57.6148C31.6719 57.256 32.1025 57.1124 32.4613 57.3277C35.1166 58.763 37.9872 59.4806 41.0013 59.4806C42.1495 59.4806 43.3695 59.3371 44.6613 59.1218C45.0201 59.0501 45.4507 59.3371 45.5224 59.6959C45.5942 60.0548 45.3071 60.4853 44.9483 60.5571C43.513 60.7724 42.2213 60.9159 41.0013 60.9159ZM48.4648 59.4089C48.1777 59.4089 47.8907 59.1936 47.8189 58.9065C47.6754 58.5477 47.8907 58.1171 48.2495 57.9736C48.6083 57.8301 49.0389 57.6148 49.4695 57.4712L50.1154 58.763C49.6848 58.9783 49.1824 59.1936 48.7518 59.3371C48.6083 59.4089 48.5365 59.4089 48.4648 59.4089Z" fill="#0099A3"/>
<path d="M44.8764 60.555C44.5893 60.555 44.3023 60.3397 44.2305 60.0527C44.087 59.6938 44.3023 59.2633 44.6611 59.1197C44.8764 59.048 45.1634 58.9762 45.3787 58.9044C45.594 58.8327 45.8093 58.8327 46.0246 58.7609C46.3834 58.6174 46.814 58.8327 46.9575 59.1915C47.1011 59.5503 46.8858 59.9809 46.527 60.1244C46.3117 60.1962 46.0246 60.268 45.8093 60.3397C45.594 60.4115 45.3787 60.4115 45.1634 60.4833C45.0199 60.555 44.9481 60.555 44.8764 60.555ZM58.0093 50.5798C57.8657 50.5798 57.794 50.5798 57.6504 50.508C57.2916 50.2927 57.1481 49.8621 57.3634 49.5033C58.7269 46.9916 59.4445 44.121 59.5163 41.1786C59.5881 40.1022 59.5163 38.9539 59.2293 37.5187C59.1575 37.1598 59.4445 36.7293 59.8034 36.6575C60.1622 36.5857 60.5928 36.8728 60.6645 37.2316C60.9516 38.7387 61.0234 40.0304 60.9516 41.1786C60.8798 44.2645 60.0904 47.3504 58.6551 50.0774C58.5116 50.4362 58.2963 50.5798 58.0093 50.5798ZM58.8704 34.5046C58.5834 34.5046 58.2963 34.2893 58.2246 34.0022C58.081 33.6434 57.8657 33.2128 57.7222 32.7822C57.5787 32.4234 57.7222 31.9928 58.0093 31.8493C58.3681 31.7057 58.7987 31.8493 58.9422 32.1363C59.1575 32.5669 59.3728 33.0693 59.5881 33.4999C59.7316 33.8587 59.5163 34.2893 59.1575 34.4328C59.014 34.5046 58.9422 34.5046 58.8704 34.5046Z" fill="#0099A3"/>
<path d="M59.9481 38.2352C59.5893 38.2352 59.3023 37.9481 59.2305 37.6611C59.1587 37.1587 59.087 36.7281 58.9434 36.3693C58.7999 36.0105 59.0152 35.5799 59.374 35.4364C59.7329 35.2928 60.1634 35.5081 60.307 35.8669C60.4505 36.3693 60.5223 36.8716 60.594 37.4458C60.6658 37.8046 60.3787 38.2352 60.0199 38.2352H59.9481ZM49.9011 24.6717C49.7576 24.6717 49.6858 24.6717 49.5423 24.5999C46.887 23.1646 44.0165 22.447 41.0024 22.447C39.8541 22.447 38.6341 22.5905 37.3424 22.8058C36.9836 22.8776 36.553 22.5905 36.4812 22.2317C36.4094 21.8729 36.6965 21.4423 37.0553 21.3705C38.4188 21.1552 39.7824 21.0117 41.0024 21.0117C44.3035 21.0117 47.3894 21.8011 50.26 23.3082C50.6188 23.5235 50.7623 23.9541 50.547 24.3129C50.4035 24.5282 50.1882 24.6717 49.9011 24.6717ZM32.2471 24.5282C31.9601 24.5282 31.7448 24.3846 31.6012 24.0976C31.4577 23.7388 31.6012 23.3082 31.8883 23.1646C32.3189 22.9494 32.8212 22.7341 33.2518 22.5188C33.6106 22.3752 34.0412 22.5905 34.1847 22.9494C34.3283 23.3082 34.113 23.7388 33.7542 23.8823C33.3953 24.0258 32.9648 24.2411 32.5342 24.3846C32.4624 24.5282 32.3906 24.5282 32.2471 24.5282Z" fill="#0099A3"/>
<path d="M35.8342 23.1657C35.5472 23.1657 35.2601 22.9504 35.1884 22.6634C35.0448 22.3046 35.2601 21.874 35.6189 21.8022C35.8342 21.7305 36.1213 21.6587 36.3366 21.5869C36.5519 21.5152 36.7672 21.5152 36.9825 21.4434C37.3413 21.2999 37.7719 21.5152 37.9154 21.874C38.0589 22.2328 37.8436 22.6634 37.4848 22.8069C37.2695 22.8787 36.9825 22.9504 36.7672 23.0222C36.5519 23.094 36.3366 23.094 36.1213 23.1657H35.8342ZM22.1272 45.5562C21.7684 45.5562 21.4814 45.3409 21.4096 44.9821C21.1225 43.9056 21.0508 42.6139 21.0508 41.0351C21.0508 37.8057 21.7684 34.7198 23.2755 31.7775C23.4908 31.4186 23.9214 31.2751 24.2084 31.4904C24.5672 31.7057 24.7108 32.1363 24.4955 32.4233C23.1319 35.0786 22.4143 38.021 22.4143 40.9633C22.4143 42.4703 22.4861 43.6186 22.7731 44.6233C22.8449 44.9821 22.6296 45.4127 22.2708 45.4845C22.2708 45.5562 22.199 45.5562 22.1272 45.5562ZM23.8496 50.508C23.5625 50.508 23.3472 50.3644 23.2037 50.0774C22.9884 49.6468 22.7731 49.1444 22.5578 48.7138C22.4143 48.355 22.6296 47.9244 22.9884 47.7809C23.3472 47.6374 23.7778 47.8527 23.9214 48.2115C24.0649 48.5703 24.2802 49.0009 24.4237 49.4315C24.5672 49.7903 24.4237 50.2209 24.1366 50.3644C24.0649 50.508 23.9931 50.508 23.8496 50.508Z" fill="#0099A3"/>
<path d="M22.4868 46.9193C22.1997 46.9193 21.9127 46.704 21.8409 46.4169C21.6974 46.0581 21.5538 45.484 21.4821 44.9099C21.3386 44.551 21.6256 44.1922 21.9844 44.1204C22.3433 44.0487 22.7738 44.3357 22.8456 44.6946C22.9174 45.0534 22.9891 45.484 23.2044 45.9146C23.348 46.2734 23.1327 46.704 22.7738 46.8475C22.6303 46.9193 22.5585 46.9193 22.4868 46.9193Z" fill="#0099A3"/>
</g>
<defs>
<clipPath id="clip0_247_6486">
<rect width="48" height="48" fill="white" transform="translate(16 16)"/>
</clipPath>
</defs>
</svg>
