<svg width="80" height="80" viewBox="0 0 80 80" fill="none" xmlns="http://www.w3.org/2000/svg">
<rect width="80" height="80" rx="8" fill="#D2D3D5"/>
<g clip-path="url(#clip0_21_4027)">
<path d="M41.0016 53.8811C33.8969 53.8811 28.084 48.0682 28.084 40.9635C28.084 33.8588 33.8969 28.0459 41.0016 28.0459C48.1062 28.0459 53.9192 33.8588 53.9192 40.9635C53.9192 48.0682 48.1062 53.8811 41.0016 53.8811ZM41.0016 29.4812C34.6863 29.4812 29.5193 34.6482 29.5193 40.9635C29.5193 47.2787 34.6863 52.4458 41.0016 52.4458C47.3168 52.4458 52.4839 47.2787 52.4839 40.9635C52.4839 34.6482 47.3168 29.4812 41.0016 29.4812Z" fill="#797C7F"/>
<path d="M41.0017 53.8811C37.1264 53.8811 34.1123 48.2117 34.1123 40.9635C34.1123 33.7153 37.1264 28.0459 41.0017 28.0459C44.877 28.0459 47.8911 33.7153 47.8911 40.9635C47.8911 48.2117 44.877 53.8811 41.0017 53.8811ZM41.0017 29.4812C38.0593 29.4812 35.5476 34.72 35.5476 40.9635C35.5476 47.207 38.0593 52.4458 41.0017 52.4458C43.944 52.4458 46.4558 47.207 46.4558 40.9635C46.4558 34.72 43.944 29.4812 41.0017 29.4812Z" fill="#797C7F"/>
<path d="M41.0016 47.853C33.7534 47.853 28.084 44.8389 28.084 40.9636C28.084 37.0883 33.7534 34.0742 41.0016 34.0742C48.2498 34.0742 53.9192 37.0883 53.9192 40.9636C53.9192 44.8389 48.2498 47.853 41.0016 47.853ZM41.0016 35.5095C34.7581 35.5095 29.5193 38.0213 29.5193 40.9636C29.5193 43.9059 34.7581 46.4177 41.0016 46.4177C47.2451 46.4177 52.4839 43.9059 52.4839 40.9636C52.4839 38.0213 47.2451 35.5095 41.0016 35.5095Z" fill="#797C7F"/>
<path d="M41.0013 53.8811C40.5707 53.8811 40.2837 53.594 40.2837 53.1634V28.7635C40.2837 28.333 40.5707 28.0459 41.0013 28.0459C41.4319 28.0459 41.719 28.333 41.719 28.7635V53.1634C41.719 53.594 41.4319 53.8811 41.0013 53.8811Z" fill="#797C7F"/>
<path d="M53.2023 41.6813H28.8024C28.3718 41.6813 28.0847 41.3942 28.0847 40.9636C28.0847 40.5331 28.3718 40.246 28.8024 40.246H53.2023C53.6328 40.246 53.9199 40.5331 53.9199 40.9636C53.9199 41.3942 53.6328 41.6813 53.2023 41.6813ZM25.573 32.926C24.7118 32.926 23.7789 32.7825 22.9177 32.4237C21.0518 31.706 19.5448 30.3425 18.7554 28.5484C17.8942 26.7543 17.8224 24.6731 18.5401 22.8073C19.2577 20.9414 20.6212 19.5061 22.4154 18.7167C24.2095 17.8555 26.2189 17.7838 28.0847 18.4296C29.9506 19.1473 31.4577 20.5108 32.2471 22.3049C33.1082 24.099 33.18 26.1084 32.4624 28.0461C31.7447 29.9119 30.3812 31.419 28.5871 32.2802C27.6542 32.7107 26.5777 32.926 25.573 32.926ZM25.573 19.4343C24.7118 19.4343 23.8506 19.6496 23.0612 20.0085C21.5542 20.6543 20.406 21.8026 19.8318 23.3096C19.2577 24.8167 19.3295 26.4672 20.0471 27.9743C20.693 29.4096 21.913 30.5578 23.4201 31.1319C24.9271 31.706 26.5777 31.6343 28.013 30.9884C29.4483 30.3425 30.5965 29.1225 31.1706 27.6155C31.7447 26.1084 31.673 24.4578 30.9553 23.0226C30.2377 21.5155 29.0894 20.439 27.5824 19.8649C26.9365 19.5779 26.2189 19.4343 25.573 19.4343Z" fill="#797C7F"/>
<path d="M25.5736 28.692C23.636 28.692 22.1289 26.4673 22.1289 24.6014C22.1289 22.7356 23.7077 21.1567 25.5736 21.1567C27.4395 21.1567 29.0183 22.7356 29.0183 24.6014C29.0183 26.4673 27.5112 28.692 25.5736 28.692ZM25.5736 22.592C24.4971 22.592 23.5642 23.525 23.5642 24.6014C23.5642 25.7497 24.5689 27.2567 25.5736 27.2567C26.5783 27.2567 27.583 25.7497 27.583 24.6014C27.583 23.525 26.6501 22.592 25.5736 22.592Z" fill="#797C7F"/>
<path d="M29.4478 31.5626C29.3042 31.5626 29.2325 31.5626 29.0889 31.4908L27.8689 30.845L27.2231 30.4861C26.5054 30.1273 26.0748 29.3379 26.0748 28.6203V27.6156C26.0748 27.185 26.3619 26.8979 26.7925 26.8979C27.2231 26.8979 27.5101 27.185 27.5101 27.6156V28.6203C27.5101 28.9073 27.6536 29.1226 27.9407 29.2661L28.5148 29.625L29.663 30.2708C30.0219 30.4861 30.1654 30.9167 29.9501 31.2755C29.9501 31.4191 29.7348 31.5626 29.4478 31.5626ZM21.5537 31.4908C21.2666 31.4908 21.0513 31.3473 20.9078 31.132C20.6925 30.7732 20.836 30.3426 21.1949 30.1273L23.0607 29.1226C23.4195 28.9073 23.4913 28.6203 23.4913 28.4767V27.472C23.4913 27.0415 23.7784 26.7544 24.209 26.7544C24.6395 26.7544 24.9266 27.0415 24.9266 27.472V28.4767C24.9266 29.2661 24.496 29.9838 23.7784 30.4144L21.9125 31.4191C21.769 31.4908 21.6972 31.4908 21.5537 31.4908Z" fill="#797C7F"/>
<path d="M25.573 32.926C24.7118 32.926 23.7789 32.7825 22.9177 32.4237C21.0518 31.706 19.5448 30.3425 18.7554 28.5484C17.8942 26.7543 17.8224 24.6731 18.5401 22.8073C19.2577 20.9414 20.6212 19.5061 22.4154 18.7167C24.2095 17.8555 26.2189 17.7838 28.0847 18.4296C29.9506 19.1473 31.4577 20.5108 32.2471 22.3049C33.1082 24.099 33.18 26.1084 32.4624 28.0461C31.7447 29.9119 30.3812 31.419 28.5871 32.2802C27.6542 32.7107 26.5777 32.926 25.573 32.926ZM25.573 19.4343C24.7118 19.4343 23.8506 19.6496 23.0612 20.0085C21.5542 20.6543 20.406 21.8026 19.8318 23.3096C19.2577 24.8167 19.3295 26.4672 20.0471 27.9743C20.693 29.4096 21.913 30.5578 23.4201 31.1319C24.9271 31.706 26.5777 31.6343 28.013 30.9884C29.4483 30.3425 30.5965 29.1225 31.1706 27.6155C31.7447 26.1084 31.673 24.4578 30.9553 23.0226C30.2377 21.5155 29.0894 20.439 27.5824 19.8649C26.9365 19.5779 26.2189 19.4343 25.573 19.4343Z" fill="#797C7F"/>
<path d="M25.5736 28.692C23.636 28.692 22.1289 26.4673 22.1289 24.6014C22.1289 22.7356 23.7077 21.1567 25.5736 21.1567C27.4395 21.1567 29.0183 22.7356 29.0183 24.6014C29.0183 26.4673 27.5112 28.692 25.5736 28.692ZM25.5736 22.592C24.4971 22.592 23.5642 23.525 23.5642 24.6014C23.5642 25.7497 24.5689 27.2567 25.5736 27.2567C26.5783 27.2567 27.583 25.7497 27.583 24.6014C27.583 23.525 26.6501 22.592 25.5736 22.592Z" fill="#797C7F"/>
<path d="M29.4478 31.5626C29.3042 31.5626 29.2325 31.5626 29.0889 31.4909L27.8689 30.845L27.2231 30.4862C26.5054 30.1273 26.0748 29.3379 26.0748 28.6203V27.6156C26.0748 27.185 26.3619 26.8979 26.7925 26.8979C27.2231 26.8979 27.5101 27.185 27.5101 27.6156V28.6203C27.5101 28.9073 27.6536 29.1226 27.9407 29.2662L28.5148 29.625L29.663 30.2709C30.0219 30.4862 30.1654 30.9167 29.9501 31.2756C29.9501 31.4191 29.7348 31.5626 29.4478 31.5626ZM21.5537 31.4909C21.2666 31.4909 21.0513 31.3473 20.9078 31.132C20.6925 30.7732 20.836 30.3426 21.1949 30.1273L23.0607 29.1226C23.4195 28.9073 23.4913 28.6203 23.4913 28.4768V27.4721C23.4913 27.0415 23.7784 26.7544 24.209 26.7544C24.6395 26.7544 24.9266 27.0415 24.9266 27.4721V28.4768C24.9266 29.2662 24.496 29.9838 23.7784 30.4144L21.9125 31.4191C21.769 31.4909 21.6972 31.4909 21.5537 31.4909ZM56.5029 32.9979C55.6417 32.9979 54.7806 32.8544 53.9194 32.4956C52.0535 31.7779 50.5465 30.4144 49.6853 28.6203C48.0347 24.8168 49.6853 20.3674 53.417 18.7168C55.2829 17.8556 57.3641 17.8556 59.23 18.5733C61.0241 19.2909 62.4594 20.6544 63.2488 22.3768C64.1099 24.1709 64.1817 26.1803 63.4641 28.0462C62.7464 29.912 61.3829 31.4191 59.5888 32.2803C58.5841 32.7826 57.5794 32.9979 56.5029 32.9979ZM56.5747 19.5062C55.7135 19.5062 54.8523 19.7215 53.9912 20.0803C50.9771 21.3721 49.6135 24.9603 50.9771 28.0462C52.4123 31.0603 56.0006 32.4238 59.0147 30.9885C62.0288 29.5532 63.3923 25.965 61.957 22.9509C61.3111 21.5156 60.1629 20.4391 58.7276 19.865C58.01 19.578 57.2923 19.5062 56.5747 19.5062Z" fill="#797C7F"/>
<path d="M56.5755 28.692C54.6379 28.692 53.1309 26.4673 53.1309 24.6014C53.1309 22.7356 54.7097 21.1567 56.5755 21.1567C58.4414 21.1567 60.0202 22.7356 60.0202 24.6014C60.0202 26.4673 58.5132 28.692 56.5755 28.692ZM56.5755 22.592C55.4991 22.592 54.5661 23.525 54.5661 24.6014C54.5661 25.7497 55.5708 27.2567 56.5755 27.2567C57.5802 27.2567 58.5849 25.7497 58.5849 24.6014C58.5849 23.525 57.652 22.592 56.5755 22.592Z" fill="#797C7F"/>
<path d="M60.4502 31.5626C60.3067 31.5626 60.2349 31.5626 60.0914 31.4908L58.8714 30.845L58.2255 30.4861C57.5079 30.1273 57.0773 29.3379 57.0773 28.6203V27.6156C57.0773 27.185 57.3643 26.8979 57.7949 26.8979C58.2255 26.8979 58.5126 27.185 58.5126 27.6156V28.6203C58.5126 28.9073 58.6561 29.1226 58.9432 29.2661L59.5173 29.625L60.6655 30.2708C61.0243 30.4861 61.1679 30.9167 60.9526 31.2755C60.9526 31.4191 60.7373 31.5626 60.4502 31.5626ZM52.5561 31.4908C52.2691 31.4908 52.0538 31.3473 51.9103 31.132C51.695 30.7732 51.8385 30.3426 52.1973 30.1273L54.0632 29.1226C54.422 28.9073 54.4938 28.6203 54.4938 28.4767V27.472C54.4938 27.0415 54.7808 26.7544 55.2114 26.7544C55.642 26.7544 55.9291 27.0415 55.9291 27.472V28.4767C55.9291 29.2661 55.4985 29.9838 54.7808 30.4144L52.915 31.4191C52.7714 31.4908 52.6997 31.4908 52.5561 31.4908ZM25.501 63.9283C24.568 63.9283 23.7069 63.7848 22.7739 63.426C20.9081 62.7083 19.4728 61.3448 18.6834 59.5507C16.961 55.819 18.6116 51.3696 22.3433 49.6472C26.0751 47.9966 30.4527 49.6472 32.1751 53.379C33.0362 55.1731 33.108 57.1825 32.3904 59.1201C31.6727 60.986 30.3092 62.493 28.5151 63.3542C27.5821 63.713 26.5774 63.9283 25.501 63.9283ZM25.4292 50.4366C24.6398 50.4366 23.7786 50.5802 22.9892 50.939C19.9751 52.3743 18.6116 55.9625 20.0469 58.9766C20.6928 60.4119 21.841 61.5601 23.348 62.1342C24.8551 62.7083 26.5057 62.7083 28.0127 61.9907C29.448 61.3448 30.5962 60.1248 31.1704 58.6178C31.7445 57.1107 31.6727 55.4601 30.9551 54.0248C29.8786 51.7284 27.7257 50.4366 25.4292 50.4366Z" fill="#797C7F"/>
<path d="M25.5736 59.766C23.636 59.766 22.1289 57.5413 22.1289 55.6754C22.1289 53.8096 23.7077 52.2307 25.5736 52.2307C26.4348 52.159 27.2959 52.5178 27.9418 53.1637C28.6595 53.8096 29.0183 54.7425 29.0183 55.6754C29.0183 57.5413 27.5112 59.766 25.5736 59.766ZM25.7171 53.666H25.6454C24.4971 53.666 23.636 54.599 23.636 55.6754C23.636 56.8237 24.6407 58.3307 25.6454 58.3307C26.6501 58.3307 27.6548 56.8237 27.6548 55.6754C27.6548 55.1013 27.4395 54.599 27.0089 54.1684C26.5783 53.8096 26.1477 53.666 25.7171 53.666Z" fill="#797C7F"/>
<path d="M29.4478 62.6363C29.3042 62.6363 29.2325 62.6363 29.0889 62.5646L27.8689 61.9187L27.2231 61.5599C26.5054 61.201 26.0748 60.4116 26.0748 59.694V58.6175C26.0748 58.1869 26.3619 57.8999 26.7925 57.8999C27.2231 57.8999 27.5101 58.1869 27.5101 58.6175V59.6222C27.5101 59.9093 27.6536 60.1246 27.9407 60.2681L28.5148 60.6269L29.663 61.2728C30.0219 61.4881 30.1654 61.9187 29.9501 62.2775C29.9501 62.4928 29.7348 62.6363 29.4478 62.6363ZM21.5537 62.4928C21.2666 62.4928 21.0513 62.3493 20.9078 62.134C20.6925 61.7752 20.836 61.3446 21.1949 61.1293L23.0607 60.1246C23.4195 59.9093 23.4913 59.6222 23.4913 59.4787V58.474C23.4913 58.0434 23.7784 57.7563 24.209 57.7563C24.6395 57.7563 24.9266 58.0434 24.9266 58.474V59.4787C24.9266 60.2681 24.496 60.9857 23.7784 61.4163L21.9125 62.421C21.769 62.4928 21.6972 62.4928 21.5537 62.4928Z" fill="#797C7F"/>
<path d="M25.501 63.9284C24.568 63.9284 23.7069 63.7849 22.7739 63.4261C20.9081 62.7084 19.4728 61.3449 18.6834 59.5508C16.961 55.819 18.6116 51.3696 22.3433 49.6473C26.0751 47.9967 30.4527 49.6473 32.1751 53.379C33.0362 55.1732 33.108 57.1826 32.3904 59.1202C31.6727 60.9861 30.3092 62.4931 28.5151 63.3543C27.5821 63.7131 26.5774 63.9284 25.501 63.9284ZM25.4292 50.4367C24.6398 50.4367 23.7786 50.5802 22.9892 50.9391C19.9751 52.3743 18.6116 55.9626 20.0469 58.9767C20.6928 60.412 21.841 61.5602 23.348 62.1343C24.8551 62.7084 26.5057 62.7084 28.0127 61.9908C29.448 61.3449 30.5962 60.1249 31.1704 58.6178C31.7445 57.1108 31.6727 55.4602 30.9551 54.0249C29.8786 51.7285 27.7257 50.4367 25.4292 50.4367Z" fill="#797C7F"/>
<path d="M25.5736 59.766C23.636 59.766 22.1289 57.5413 22.1289 55.6754C22.1289 53.8096 23.7077 52.2307 25.5736 52.2307C26.4348 52.159 27.2959 52.5178 27.9418 53.1637C28.6595 53.8096 29.0183 54.7425 29.0183 55.6754C29.0183 57.5413 27.5112 59.766 25.5736 59.766ZM25.7171 53.666H25.6454C24.4971 53.666 23.636 54.599 23.636 55.6754C23.636 56.8237 24.6407 58.3307 25.6454 58.3307C26.6501 58.3307 27.6548 56.8237 27.6548 55.6754C27.6548 55.1013 27.4395 54.599 27.0089 54.1684C26.5783 53.8096 26.1477 53.666 25.7171 53.666Z" fill="#797C7F"/>
<path d="M29.4478 62.6363C29.3042 62.6363 29.2325 62.6363 29.0889 62.5646L27.8689 61.9187L27.2231 61.5599C26.5054 61.2011 26.0748 60.4116 26.0748 59.694V58.6175C26.0748 58.1869 26.3619 57.8999 26.7925 57.8999C27.2231 57.8999 27.5101 58.1869 27.5101 58.6175V59.6222C27.5101 59.9093 27.6536 60.1246 27.9407 60.2681L28.5148 60.6269L29.663 61.2728C30.0219 61.4881 30.1654 61.9187 29.9501 62.2775C29.9501 62.4928 29.7348 62.6363 29.4478 62.6363ZM21.5537 62.4928C21.2666 62.4928 21.0513 62.3493 20.9078 62.134C20.6925 61.7752 20.836 61.3446 21.1949 61.1293L23.0607 60.1246C23.4195 59.9093 23.4913 59.6222 23.4913 59.4787V58.474C23.4913 58.0434 23.7784 57.7564 24.209 57.7564C24.6395 57.7564 24.9266 58.0434 24.9266 58.474V59.4787C24.9266 60.2681 24.496 60.9858 23.7784 61.4163L21.9125 62.421C21.769 62.4928 21.6972 62.4928 21.5537 62.4928ZM56.5029 63.9999C55.6417 63.9999 54.7806 63.8563 53.9194 63.4975C52.0535 62.7799 50.5465 61.4163 49.6853 59.6222C47.963 55.8905 49.6135 51.4411 53.3453 49.7188C55.2112 48.8576 57.2923 48.7858 59.1582 49.5035C61.0241 50.2211 62.4594 51.5846 63.2488 53.3787C64.9711 57.1105 63.3205 61.5599 59.5888 63.2822C58.5841 63.7846 57.5794 63.9999 56.5029 63.9999ZM56.5029 50.4364C55.6417 50.4364 54.7806 50.6517 53.9194 51.0105C50.9053 52.4458 49.5418 56.034 50.9771 59.0481C51.6947 60.4834 52.8429 61.6316 54.4217 62.2058C55.9288 62.7799 57.5794 62.7081 59.0147 61.9905C62.0288 60.5552 63.3923 56.967 61.957 53.9529C61.3111 52.5176 60.1629 51.3693 58.6558 50.867C57.9382 50.5799 57.2206 50.4364 56.5029 50.4364Z" fill="#797C7F"/>
<path d="M56.5755 59.766C54.6379 59.766 53.1309 57.5413 53.1309 55.6754C53.1309 53.8096 54.7097 52.2307 56.5755 52.2307C57.4367 52.159 58.2979 52.5178 58.9438 53.1637C59.6614 53.8096 60.0202 54.7425 60.0202 55.6754C60.0202 57.5413 58.5132 59.766 56.5755 59.766ZM56.7191 53.666H56.6473C55.4991 53.666 54.6379 54.599 54.6379 55.6754C54.6379 56.8237 55.6426 58.3307 56.6473 58.3307C57.652 58.3307 58.6567 56.8237 58.6567 55.6754C58.6567 55.1013 58.4414 54.599 58.0108 54.1684C57.5802 53.8096 57.1497 53.666 56.7191 53.666Z" fill="#797C7F"/>
<path d="M60.4504 62.6363C60.3069 62.6363 60.2351 62.6363 60.0916 62.5646L58.8716 61.9187L58.2257 61.5599C57.5081 61.201 57.0775 60.4116 57.0775 59.694V58.6175C57.0775 58.1869 57.3645 57.8999 57.7951 57.8999C58.2257 57.8999 58.5128 58.1869 58.5128 58.6175V59.6222C58.5128 59.9093 58.6563 60.1246 58.9433 60.2681L59.5175 60.6269L60.6657 61.2728C61.0245 61.4881 61.168 61.9187 60.9527 62.2775C60.9527 62.4928 60.7375 62.6363 60.4504 62.6363ZM52.5563 62.4928C52.2693 62.4928 52.054 62.3493 51.9104 62.134C51.6951 61.7752 51.8387 61.3446 52.1975 61.1293L54.0634 60.1246C54.4222 59.9093 54.494 59.6222 54.494 59.4787V58.474C54.494 58.0434 54.781 57.7564 55.2116 57.7564C55.6422 57.7564 55.9292 58.0434 55.9292 58.474V59.4787C55.9292 60.2681 55.4987 60.9857 54.781 61.4163L52.9151 62.421C52.7716 62.4928 52.6998 62.4928 52.5563 62.4928ZM41.0023 60.914C37.7011 60.914 34.6152 60.1246 31.7447 58.6175C31.3858 58.4022 31.2423 57.9716 31.4576 57.6128C31.6729 57.254 32.1035 57.1105 32.4623 57.3258C35.1176 58.7611 37.9882 59.4787 41.0023 59.4787C42.1505 59.4787 43.3705 59.3352 44.6622 59.1199C45.0211 59.0481 45.4516 59.3352 45.5234 59.694C45.5952 60.0528 45.3081 60.4834 44.9493 60.5552C43.514 60.7705 42.2223 60.914 41.0023 60.914ZM48.4658 59.4069C48.1787 59.4069 47.8916 59.1916 47.8199 58.9046C47.6763 58.5458 47.8916 58.1152 48.2505 57.9716C48.6093 57.8281 49.0399 57.6128 49.4705 57.4693L50.1163 58.7611C49.6857 58.9763 49.1834 59.1916 48.7528 59.3352C48.6093 59.4069 48.5375 59.4069 48.4658 59.4069Z" fill="#797C7F"/>
<path d="M44.8769 60.5555C44.5898 60.5555 44.3028 60.3402 44.231 60.0532C44.0875 59.6943 44.3028 59.2637 44.6616 59.1202C44.8769 59.0485 45.1639 58.9767 45.3792 58.9049C45.5945 58.8332 45.8098 58.8332 46.0251 58.7614C46.3839 58.6179 46.8145 58.8332 46.958 59.192C47.1016 59.5508 46.8863 59.9814 46.5275 60.1249C46.3122 60.1967 46.0251 60.2684 45.8098 60.3402C45.5945 60.412 45.3792 60.412 45.1639 60.4837C45.0204 60.5555 44.9486 60.5555 44.8769 60.5555ZM58.0097 50.5803C57.8662 50.5803 57.7945 50.5803 57.6509 50.5085C57.2921 50.2932 57.1486 49.8626 57.3639 49.5038C58.7274 46.992 59.445 44.1215 59.5168 41.1791C59.5886 40.1027 59.5168 38.9544 59.2297 37.5191C59.158 37.1603 59.445 36.7297 59.8039 36.658C60.1627 36.5862 60.5933 36.8733 60.665 37.2321C60.9521 38.7391 61.0238 40.0309 60.9521 41.1791C60.8803 44.265 60.0909 47.3509 58.6556 50.0779C58.5121 50.4367 58.2968 50.5803 58.0097 50.5803ZM58.8709 34.505C58.5839 34.505 58.2968 34.2898 58.225 34.0027C58.0815 33.6439 57.8662 33.2133 57.7227 32.7827C57.5792 32.4239 57.7227 31.9933 58.0097 31.8498C58.3686 31.7062 58.7992 31.8498 58.9427 32.1368C59.158 32.5674 59.3733 33.0698 59.5886 33.5003C59.7321 33.8592 59.5168 34.2898 59.158 34.4333C59.0144 34.505 58.9427 34.505 58.8709 34.505Z" fill="#797C7F"/>
<path d="M59.9486 38.2366C59.5898 38.2366 59.3028 37.9496 59.231 37.6625C59.1592 37.1602 59.0875 36.7296 58.9439 36.3708C58.8004 36.0119 59.0157 35.5813 59.3745 35.4378C59.7333 35.2943 60.1639 35.5096 60.3075 35.8684C60.451 36.3708 60.5228 36.8731 60.5945 37.4472C60.6663 37.806 60.3792 38.2366 60.0204 38.2366H59.9486ZM49.9016 24.6732C49.7581 24.6732 49.6863 24.6732 49.5428 24.6014C46.8875 23.1661 44.0169 22.4485 41.0028 22.4485C39.8546 22.4485 38.6346 22.592 37.3429 22.8073C36.984 22.8791 36.5535 22.592 36.4817 22.2332C36.4099 21.8744 36.697 21.4438 37.0558 21.372C38.4193 21.1567 39.7829 21.0132 41.0028 21.0132C44.304 21.0132 47.3899 21.8026 50.2604 23.3096C50.6193 23.5249 50.7628 23.9555 50.5475 24.3143C50.404 24.5296 50.1887 24.6732 49.9016 24.6732ZM32.2476 24.5296C31.9605 24.5296 31.7452 24.3861 31.6017 24.0991C31.4582 23.7402 31.6017 23.3096 31.8888 23.1661C32.3194 22.9508 32.8217 22.7355 33.2523 22.5202C33.6111 22.3767 34.0417 22.592 34.1852 22.9508C34.3288 23.3096 34.1135 23.7402 33.7546 23.8838C33.3958 24.0273 32.9652 24.2426 32.5347 24.3861C32.4629 24.5296 32.3911 24.5296 32.2476 24.5296Z" fill="#797C7F"/>
<path d="M35.8347 23.1662C35.5477 23.1662 35.2606 22.9509 35.1888 22.6639C35.0453 22.3051 35.2606 21.8745 35.6194 21.8027C35.8347 21.7309 36.1218 21.6592 36.3371 21.5874C36.5524 21.5156 36.7677 21.5156 36.983 21.4439C37.3418 21.3004 37.7724 21.5156 37.9159 21.8745C38.0594 22.2333 37.8441 22.6639 37.4853 22.8074C37.27 22.8792 36.983 22.9509 36.7677 23.0227C36.5524 23.0945 36.3371 23.0945 36.1218 23.1662H35.8347ZM22.1277 45.5567C21.7689 45.5567 21.4819 45.3414 21.4101 44.9826C21.123 43.9061 21.0513 42.6144 21.0513 41.0355C21.0513 37.8062 21.7689 34.7203 23.276 31.778C23.4913 31.4191 23.9218 31.2756 24.2089 31.4909C24.5677 31.7062 24.7113 32.1368 24.496 32.4238C23.1324 35.0791 22.4148 38.0214 22.4148 40.9638C22.4148 42.4708 22.4866 43.6191 22.7736 44.6238C22.8454 44.9826 22.6301 45.4132 22.2713 45.4849C22.2713 45.5567 22.1995 45.5567 22.1277 45.5567ZM23.8501 50.5084C23.563 50.5084 23.3477 50.3649 23.2042 50.0779C22.9889 49.6473 22.7736 49.1449 22.5583 48.7143C22.4148 48.3555 22.6301 47.9249 22.9889 47.7814C23.3477 47.6379 23.7783 47.8532 23.9218 48.212C24.0654 48.5708 24.2807 49.0014 24.4242 49.432C24.5677 49.7908 24.4242 50.2214 24.1371 50.3649C24.0654 50.5084 23.9936 50.5084 23.8501 50.5084Z" fill="#797C7F"/>
<path d="M22.4868 46.9202C22.1997 46.9202 21.9127 46.7049 21.8409 46.4179C21.6974 46.0591 21.5538 45.4849 21.4821 44.9108C21.3386 44.552 21.6256 44.1932 21.9844 44.1214C22.3433 44.0497 22.7738 44.3367 22.8456 44.6955C22.9174 45.0544 22.9891 45.4849 23.2044 45.9155C23.348 46.2744 23.1327 46.7049 22.7738 46.8485C22.6303 46.9202 22.5585 46.9202 22.4868 46.9202Z" fill="#797C7F"/>
</g>
<defs>
<clipPath id="clip0_21_4027">
<rect width="48" height="48" fill="white" transform="translate(16 16)"/>
</clipPath>
</defs>
</svg>
