<svg width="80" height="80" viewBox="0 0 80 80" fill="none" xmlns="http://www.w3.org/2000/svg">
<path d="M41.669 63.1328C29.8278 63.1328 20.1396 53.4446 20.1396 41.6035C20.1396 29.7624 29.8278 20.0742 41.669 20.0742C53.5101 20.0742 63.1983 29.7624 63.1983 41.6035C63.1983 53.4446 53.5101 63.1328 41.669 63.1328ZM41.669 22.4664C31.1435 22.4664 22.5318 31.0781 22.5318 41.6035C22.5318 52.129 31.1435 60.7407 41.669 60.7407C52.1944 60.7407 60.8061 52.129 60.8061 41.6035C60.8061 31.0781 52.1944 22.4664 41.669 22.4664Z" fill="white"/>
<path d="M41.6698 63.1328C35.211 63.1328 30.1875 53.6839 30.1875 41.6035C30.1875 29.5232 35.211 20.0742 41.6698 20.0742C48.1286 20.0742 53.1521 29.5232 53.1521 41.6035C53.1521 53.6839 48.1286 63.1328 41.6698 63.1328ZM41.6698 22.4664C36.7659 22.4664 32.5796 31.1977 32.5796 41.6035C32.5796 52.0094 36.7659 60.7407 41.6698 60.7407C46.5737 60.7407 50.7599 52.0094 50.7599 41.6035C50.7599 31.1977 46.5737 22.4664 41.6698 22.4664Z" fill="white"/>
<path d="M41.669 53.0857C29.5886 53.0857 20.1396 48.0622 20.1396 41.6034C20.1396 35.1446 29.5886 30.1211 41.669 30.1211C53.7493 30.1211 63.1983 35.1446 63.1983 41.6034C63.1983 48.0622 53.7493 53.0857 41.669 53.0857ZM41.669 32.5132C31.2631 32.5132 22.5318 36.6995 22.5318 41.6034C22.5318 46.5073 31.2631 50.6935 41.669 50.6935C52.0748 50.6935 60.8061 46.5073 60.8061 41.6034C60.8061 36.6995 52.0748 32.5132 41.669 32.5132Z" fill="white"/>
<path d="M41.6687 63.1328C40.9511 63.1328 40.4727 62.6544 40.4727 61.9368V21.2703C40.4727 20.5526 40.9511 20.0742 41.6687 20.0742C42.3864 20.0742 42.8648 20.5526 42.8648 21.2703V61.9368C42.8648 62.6544 42.3864 63.1328 41.6687 63.1328Z" fill="white"/>
<path d="M62.0038 42.8008H21.3373C20.6197 42.8008 20.1412 42.3224 20.1412 41.6048C20.1412 40.8871 20.6197 40.4087 21.3373 40.4087H62.0038C62.7214 40.4087 63.1998 40.8871 63.1998 41.6048C63.1998 42.3224 62.7214 42.8008 62.0038 42.8008ZM15.955 28.2088C14.5197 28.2088 12.9648 27.9695 11.5295 27.3715C8.41973 26.1754 5.90797 23.9029 4.59229 20.9127C3.15701 17.9225 3.0374 14.4539 4.23347 11.3441C5.42955 8.23435 7.70208 5.84221 10.6923 4.52653C13.6824 3.09124 17.0314 2.97163 20.1412 4.0481C23.251 5.24417 25.7628 7.51671 27.0785 10.5069C28.5137 13.4971 28.6334 16.8461 27.4373 20.0755C26.2412 23.1853 23.9687 25.697 20.9785 27.1323C19.4236 27.8499 17.6295 28.2088 15.955 28.2088ZM15.955 5.7226C14.5197 5.7226 13.0844 6.08142 11.7687 6.67946C9.25698 7.75592 7.34326 9.66964 6.3864 12.1814C5.42955 14.6931 5.54915 17.4441 6.74522 19.9559C7.82169 22.348 9.85501 24.2617 12.3668 25.2186C14.8785 26.1754 17.6295 26.0558 20.0216 24.9794C22.4138 23.9029 24.3275 21.8696 25.2843 19.3578C26.2412 16.8461 26.1216 14.0951 24.9255 11.703C23.7295 9.19121 21.8157 7.3971 19.304 6.44024C18.2275 5.96181 17.0314 5.7226 15.955 5.7226Z" fill="white"/>
<path d="M15.955 21.1525C12.7256 21.1525 10.2139 17.4447 10.2139 14.3349C10.2139 11.2251 12.8452 8.59375 15.955 8.59375C19.0648 8.59375 21.6962 11.2251 21.6962 14.3349C21.6962 17.4447 19.1844 21.1525 15.955 21.1525ZM15.955 10.9859C14.1609 10.9859 12.606 12.5408 12.606 14.3349C12.606 16.2486 14.2805 18.7604 15.955 18.7604C17.6295 18.7604 19.304 16.2486 19.304 14.3349C19.304 12.5408 17.7491 10.9859 15.955 10.9859Z" fill="white"/>
<path d="M22.4126 25.9356C22.1734 25.9356 22.0538 25.9356 21.8146 25.816L19.7812 24.7395L18.7048 24.1415C17.5087 23.5434 16.7911 22.2277 16.7911 21.0317V19.3572C16.7911 18.6395 17.2695 18.1611 17.9871 18.1611C18.7048 18.1611 19.1832 18.6395 19.1832 19.3572V21.0317C19.1832 21.5101 19.4224 21.8689 19.9008 22.1081L20.8577 22.7062L22.7714 23.7826C23.3695 24.1415 23.6087 24.8591 23.2498 25.4571C23.2498 25.6963 22.891 25.9356 22.4126 25.9356ZM9.2558 25.816C8.77737 25.816 8.41855 25.5767 8.17933 25.2179C7.82051 24.6199 8.05973 23.9022 8.65776 23.5434L11.7676 21.8689C12.3656 21.5101 12.4852 21.0317 12.4852 20.7924V19.1179C12.4852 18.4003 12.9636 17.9219 13.6813 17.9219C14.3989 17.9219 14.8773 18.4003 14.8773 19.1179V20.7924C14.8773 22.1081 14.1597 23.3042 12.9636 24.0218L9.85383 25.6963C9.61462 25.816 9.49501 25.816 9.2558 25.816Z" fill="white"/>
<path d="M15.955 28.2088C14.5197 28.2088 12.9648 27.9695 11.5295 27.3715C8.41973 26.1754 5.90797 23.9029 4.59229 20.9127C3.15701 17.9225 3.0374 14.4539 4.23347 11.3441C5.42955 8.23435 7.70208 5.84221 10.6923 4.52653C13.6824 3.09124 17.0314 2.97163 20.1412 4.0481C23.251 5.24417 25.7628 7.51671 27.0785 10.5069C28.5137 13.4971 28.6334 16.8461 27.4373 20.0755C26.2412 23.1853 23.9687 25.697 20.9785 27.1323C19.4236 27.8499 17.6295 28.2088 15.955 28.2088ZM15.955 5.7226C14.5197 5.7226 13.0844 6.08142 11.7687 6.67946C9.25698 7.75592 7.34326 9.66964 6.3864 12.1814C5.42955 14.6931 5.54915 17.4441 6.74523 19.9559C7.82169 22.348 9.85501 24.2617 12.3668 25.2186C14.8785 26.1754 17.6295 26.0558 20.0216 24.9794C22.4138 23.9029 24.3275 21.8696 25.2843 19.3578C26.2412 16.8461 26.1216 14.0951 24.9255 11.703C23.7295 9.19121 21.8157 7.3971 19.304 6.44024C18.2275 5.96181 17.0314 5.7226 15.955 5.7226Z" fill="white"/>
<path d="M15.955 21.1525C12.7256 21.1525 10.2139 17.4447 10.2139 14.3349C10.2139 11.2251 12.8452 8.59375 15.955 8.59375C19.0648 8.59375 21.6962 11.2251 21.6962 14.3349C21.6962 17.4447 19.1844 21.1525 15.955 21.1525ZM15.955 10.9859C14.1609 10.9859 12.606 12.5408 12.606 14.3349C12.606 16.2486 14.2805 18.7604 15.955 18.7604C17.6295 18.7604 19.304 16.2486 19.304 14.3349C19.304 12.5408 17.7491 10.9859 15.955 10.9859Z" fill="white"/>
<path d="M22.4126 25.9361C22.1734 25.9361 22.0538 25.9361 21.8146 25.8165L19.7812 24.74L18.7048 24.142C17.5087 23.5439 16.7911 22.2283 16.7911 21.0322V19.3577C16.7911 18.64 17.2695 18.1616 17.9871 18.1616C18.7048 18.1616 19.1832 18.64 19.1832 19.3577V21.0322C19.1832 21.5106 19.4224 21.8694 19.9008 22.1086L20.8577 22.7067L22.7714 23.7831C23.3695 24.142 23.6087 24.8596 23.2498 25.4576C23.2498 25.6969 22.891 25.9361 22.4126 25.9361ZM9.2558 25.8165C8.77737 25.8165 8.41855 25.5773 8.17933 25.2184C7.82051 24.6204 8.05973 23.9028 8.65776 23.5439L11.7676 21.8694C12.3656 21.5106 12.4852 21.0322 12.4852 20.793V19.1185C12.4852 18.4008 12.9636 17.9224 13.6813 17.9224C14.3989 17.9224 14.8773 18.4008 14.8773 19.1185V20.793C14.8773 22.1086 14.1597 23.3047 12.9636 24.0224L9.85383 25.6969C9.61462 25.8165 9.49501 25.8165 9.2558 25.8165ZM67.5045 28.3282C66.0692 28.3282 64.634 28.089 63.1987 27.491C60.0889 26.2949 57.5771 24.0224 56.1418 21.0322C53.3909 14.693 56.1418 7.27734 62.3614 4.52638C65.4712 3.09109 68.9398 3.09109 72.0496 4.28716C75.0398 5.48324 77.4319 7.75577 78.7476 10.6263C80.1829 13.6165 80.3025 16.9655 79.1064 20.0753C77.9104 23.1851 75.6378 25.6969 72.6476 27.1321C70.9731 27.9694 69.2986 28.3282 67.5045 28.3282ZM67.6241 5.84206C66.1888 5.84206 64.7536 6.20088 63.3183 6.79892C58.2948 8.95185 56.0222 14.9322 58.2948 20.0753C60.6869 25.0988 66.6673 27.3714 71.6908 24.9792C76.7143 22.5871 78.9868 16.6067 76.5947 11.5832C75.5182 9.19106 73.6045 7.39695 71.2124 6.44009C70.0163 5.96166 68.8202 5.84206 67.6241 5.84206Z" fill="white"/>
<path d="M67.6259 21.1525C64.3965 21.1525 61.8848 17.4447 61.8848 14.3349C61.8848 11.2251 64.5161 8.59375 67.6259 8.59375C70.7357 8.59375 73.3671 11.2251 73.3671 14.3349C73.3671 17.4447 70.8553 21.1525 67.6259 21.1525ZM67.6259 10.9859C65.8318 10.9859 64.2769 12.5408 64.2769 14.3349C64.2769 16.2486 65.9514 18.7604 67.6259 18.7604C69.3004 18.7604 70.9749 16.2486 70.9749 14.3349C70.9749 12.5408 69.42 10.9859 67.6259 10.9859Z" fill="white"/>
<path d="M74.0835 25.9356C73.8443 25.9356 73.7247 25.9356 73.4855 25.816L71.4522 24.7395L70.3757 24.1415C69.1796 23.5434 68.462 22.2277 68.462 21.0317V19.3572C68.462 18.6395 68.9404 18.1611 69.6581 18.1611C70.3757 18.1611 70.8541 18.6395 70.8541 19.3572V21.0317C70.8541 21.5101 71.0933 21.8689 71.5718 22.1081L72.5286 22.7062L74.4423 23.7826C75.0404 24.1415 75.2796 24.8591 74.9208 25.4571C74.9208 25.6963 74.562 25.9356 74.0835 25.9356ZM60.9267 25.816C60.4483 25.816 60.0895 25.5767 59.8503 25.2179C59.4914 24.6199 59.7307 23.9022 60.3287 23.5434L63.4385 21.8689C64.0365 21.5101 64.1561 21.0317 64.1561 20.7924V19.1179C64.1561 18.4003 64.6345 17.9219 65.3522 17.9219C66.0698 17.9219 66.5483 18.4003 66.5483 19.1179V20.7924C66.5483 22.1081 65.8306 23.3042 64.6346 24.0218L61.5248 25.6963C61.2855 25.816 61.1659 25.816 60.9267 25.816ZM15.8348 79.8784C14.2799 79.8784 12.8446 79.6392 11.2897 79.0412C8.17993 77.8451 5.78778 75.5726 4.4721 72.5824C1.60153 66.3628 4.3525 58.9472 10.5721 56.0766C16.7916 53.3256 24.0877 56.0766 26.9583 62.2962C28.3936 65.2863 28.5132 68.6353 27.3171 71.8647C26.121 74.9745 23.8485 77.4863 20.8583 78.9216C19.3034 79.5196 17.6289 79.8784 15.8348 79.8784ZM15.7152 57.3923C14.3995 57.3923 12.9642 57.6315 11.6485 58.2295C6.62504 60.6217 4.3525 66.602 6.74464 71.6255C7.82111 74.0177 9.73482 75.9314 12.2466 76.8883C14.7583 77.8451 17.5093 77.8451 20.021 76.649C22.4132 75.5726 24.3269 73.5392 25.2838 71.0275C26.2406 68.5157 26.121 65.7648 24.9249 63.3726C23.1308 59.5452 19.5426 57.3923 15.7152 57.3923Z" fill="white"/>
<path d="M15.955 72.941C12.7256 72.941 10.2139 69.2332 10.2139 66.1234C10.2139 63.0136 12.8452 60.3823 15.955 60.3823C17.3903 60.2627 18.8256 60.8607 19.9021 61.9372C21.0981 63.0136 21.6962 64.5685 21.6962 66.1234C21.6962 69.2332 19.1844 72.941 15.955 72.941ZM16.1942 62.7744H16.0746C14.1609 62.7744 12.7256 64.3293 12.7256 66.1234C12.7256 68.0371 14.4001 70.5489 16.0746 70.5489C17.7491 70.5489 19.4236 68.0371 19.4236 66.1234C19.4236 65.1666 19.0648 64.3293 18.3472 63.6117C17.6295 63.0136 16.9119 62.7744 16.1942 62.7744Z" fill="white"/>
<path d="M22.4126 77.727C22.1734 77.727 22.0538 77.727 21.8146 77.6074L19.7812 76.531L18.7048 75.9329C17.5087 75.3349 16.7911 74.0192 16.7911 72.8231V71.029C16.7911 70.3114 17.2695 69.833 17.9871 69.833C18.7048 69.833 19.1832 70.3114 19.1832 71.029V72.7035C19.1832 73.182 19.4224 73.5408 19.9008 73.78L20.8577 74.378L22.7714 75.4545C23.3695 75.8133 23.6087 76.531 23.2498 77.129C23.2498 77.4878 22.891 77.727 22.4126 77.727ZM9.2558 77.4878C8.77737 77.4878 8.41855 77.2486 8.17933 76.8898C7.82051 76.2918 8.05973 75.5741 8.65776 75.2153L11.7676 73.5408C12.3656 73.182 12.4852 72.7035 12.4852 72.4643V70.7898C12.4852 70.0722 12.9636 69.5938 13.6813 69.5938C14.3989 69.5938 14.8773 70.0722 14.8773 70.7898V72.4643C14.8773 73.78 14.1597 74.9761 12.9636 75.6937L9.85383 77.3682C9.61462 77.4878 9.49501 77.4878 9.2558 77.4878Z" fill="white"/>
<path d="M15.8348 79.8794C14.2799 79.8794 12.8446 79.6402 11.2897 79.0421C8.17993 77.8461 5.78778 75.5735 4.4721 72.5833C1.60153 66.3638 4.3525 58.9481 10.5721 56.0775C16.7916 53.3266 24.0877 56.0775 26.9583 62.2971C28.3936 65.2873 28.5132 68.6363 27.3171 71.8657C26.121 74.9755 23.8485 77.4872 20.8583 78.9225C19.3034 79.5205 17.6289 79.8794 15.8348 79.8794ZM15.7152 57.3932C14.3995 57.3932 12.9642 57.6324 11.6485 58.2305C6.62504 60.6226 4.3525 66.603 6.74464 71.6265C7.82111 74.0186 9.73482 75.9323 12.2466 76.8892C14.7583 77.8461 17.5093 77.8461 20.021 76.65C22.4132 75.5735 24.3269 73.5402 25.2838 71.0284C26.2406 68.5167 26.121 65.7657 24.9249 63.3736C23.1308 59.5461 19.5426 57.3932 15.7152 57.3932Z" fill="white"/>
<path d="M15.955 72.941C12.7256 72.941 10.2139 69.2332 10.2139 66.1234C10.2139 63.0136 12.8452 60.3823 15.955 60.3823C17.3903 60.2627 18.8256 60.8607 19.9021 61.9372C21.0981 63.0136 21.6962 64.5685 21.6962 66.1234C21.6962 69.2332 19.1844 72.941 15.955 72.941ZM16.1942 62.7744H16.0746C14.1609 62.7744 12.7256 64.3293 12.7256 66.1234C12.7256 68.0371 14.4001 70.5489 16.0746 70.5489C17.7491 70.5489 19.4236 68.0371 19.4236 66.1234C19.4236 65.1666 19.0648 64.3293 18.3472 63.6117C17.6295 63.0136 16.9119 62.7744 16.1942 62.7744Z" fill="white"/>
<path d="M22.4126 77.7271C22.1734 77.7271 22.0538 77.7271 21.8146 77.6075L19.7812 76.531L18.7048 75.933C17.5087 75.3349 16.7911 74.0192 16.7911 72.8232V71.0291C16.7911 70.3114 17.2695 69.833 17.9871 69.833C18.7048 69.833 19.1832 70.3114 19.1832 71.0291V72.7036C19.1832 73.182 19.4224 73.5408 19.9008 73.78L20.8577 74.3781L22.7714 75.4545C23.3695 75.8133 23.6087 76.531 23.2498 77.129C23.2498 77.4879 22.891 77.7271 22.4126 77.7271ZM9.2558 77.4878C8.77737 77.4878 8.41855 77.2486 8.17933 76.8898C7.82051 76.2918 8.05973 75.5741 8.65776 75.2153L11.7676 73.5408C12.3656 73.182 12.4852 72.7036 12.4852 72.4643V70.7898C12.4852 70.0722 12.9636 69.5938 13.6813 69.5938C14.3989 69.5938 14.8773 70.0722 14.8773 70.7898V72.4643C14.8773 73.78 14.1597 74.9761 12.9636 75.6937L9.85384 77.3682C9.61462 77.4879 9.49501 77.4878 9.2558 77.4878ZM67.5045 79.9996C66.0692 79.9996 64.634 79.7604 63.1987 79.1624C60.0889 77.9663 57.5771 75.6937 56.1418 72.7036C53.2713 66.484 56.0222 59.0683 62.2418 56.1978C65.3516 54.7625 68.8202 54.6429 71.93 55.8389C75.0398 57.035 77.4319 59.3075 78.7476 62.2977C81.6182 68.5173 78.8672 75.933 72.6476 78.8035C70.9731 79.6408 69.2986 79.9996 67.5045 79.9996ZM67.5045 57.3938C66.0692 57.3938 64.634 57.7527 63.1987 58.3507C58.1752 60.7428 55.9026 66.7232 58.2948 71.7467C59.4908 74.1388 61.4046 76.0526 64.0359 77.0094C66.5477 77.9663 69.2986 77.8467 71.6908 76.6506C76.7143 74.2585 78.9868 68.2781 76.5947 63.2546C75.5182 60.8624 73.6045 58.9487 71.0927 58.1115C69.8967 57.633 68.7006 57.3938 67.5045 57.3938Z" fill="white"/>
<path d="M67.6259 72.941C64.3965 72.941 61.8848 69.2332 61.8848 66.1234C61.8848 63.0136 64.5161 60.3823 67.6259 60.3823C69.0612 60.2627 70.4965 60.8607 71.5729 61.9372C72.769 63.0136 73.3671 64.5685 73.3671 66.1234C73.3671 69.2332 70.8553 72.941 67.6259 72.941ZM67.8651 62.7744H67.7455C65.8318 62.7744 64.3965 64.3293 64.3965 66.1234C64.3965 68.0371 66.071 70.5489 67.7455 70.5489C69.42 70.5489 71.0945 68.0371 71.0945 66.1234C71.0945 65.1666 70.7357 64.3293 70.0181 63.6117C69.3004 63.0136 68.5828 62.7744 67.8651 62.7744Z" fill="white"/>
<path d="M74.0837 77.7266C73.8444 77.7266 73.7248 77.7266 73.4856 77.6069L71.4523 76.5305L70.3758 75.9324C69.1798 75.3344 68.4621 74.0187 68.4621 72.8227V71.0286C68.4621 70.3109 68.9406 69.8325 69.6582 69.8325C70.3758 69.8325 70.8543 70.3109 70.8543 71.0286V72.7031C70.8543 73.1815 71.0935 73.5403 71.5719 73.7795L72.5288 74.3776L74.4425 75.454C75.0405 75.8128 75.2797 76.5305 74.9209 77.1285C74.9209 77.4873 74.5621 77.7266 74.0837 77.7266ZM60.9269 77.4873C60.4484 77.4873 60.0896 77.2481 59.8504 76.8893C59.4916 76.2913 59.7308 75.5736 60.3288 75.2148L63.4386 73.5403C64.0367 73.1815 64.1563 72.7031 64.1563 72.4638V70.7893C64.1563 70.0717 64.6347 69.5933 65.3523 69.5933C66.07 69.5933 66.5484 70.0717 66.5484 70.7893V72.4638C66.5484 73.7795 65.8308 74.9756 64.6347 75.6932L61.5249 77.3677C61.2857 77.4873 61.1661 77.4873 60.9269 77.4873ZM41.6701 74.856C36.1682 74.856 31.0251 73.5403 26.2408 71.0286C25.6427 70.6697 25.4035 69.9521 25.7623 69.3541C26.1212 68.756 26.8388 68.5168 27.4368 68.8756C31.8623 71.2678 36.6466 72.4638 41.6701 72.4638C43.5838 72.4638 45.6171 72.2246 47.7701 71.8658C48.3681 71.7462 49.0858 72.2246 49.2054 72.8227C49.325 73.4207 48.8465 74.1383 48.2485 74.2579C45.8564 74.6168 43.7034 74.856 41.6701 74.856ZM54.1093 72.3442C53.6308 72.3442 53.1524 71.9854 53.0328 71.507C52.7936 70.9089 53.1524 70.1913 53.7504 69.9521C54.3485 69.7129 55.0661 69.3541 55.7838 69.1148L56.8602 71.2678C56.1426 71.6266 55.3053 71.9854 54.5877 72.2246C54.3485 72.3442 54.2289 72.3442 54.1093 72.3442Z" fill="white"/>
<path d="M48.128 74.2571C47.6495 74.2571 47.1711 73.8982 47.0515 73.4198C46.8123 72.8218 47.1711 72.1041 47.7691 71.8649C48.128 71.7453 48.6064 71.6257 48.9652 71.5061C49.324 71.3865 49.6829 71.3865 50.0417 71.2669C50.6397 71.0277 51.3574 71.3865 51.5966 71.9845C51.8358 72.5826 51.477 73.3002 50.8789 73.5394C50.5201 73.659 50.0417 73.7786 49.6829 73.8982C49.324 74.0178 48.9652 74.0178 48.6064 74.1375C48.3672 74.2571 48.2476 74.2571 48.128 74.2571ZM70.0161 57.6317C69.7769 57.6317 69.6573 57.6316 69.4181 57.512C68.82 57.1532 68.5808 56.4356 68.9396 55.8375C71.2122 51.6513 72.4082 46.867 72.5278 41.9631C72.6474 40.169 72.5278 38.2553 72.0494 35.8631C71.9298 35.2651 72.4082 34.5475 73.0063 34.4278C73.6043 34.3082 74.3219 34.7867 74.4416 35.3847C74.92 37.8965 75.0396 40.0494 74.92 41.9631C74.8004 47.1062 73.4847 52.2493 71.0926 56.7944C70.8533 57.3924 70.4945 57.6317 70.0161 57.6317ZM71.4514 30.8396C70.9729 30.8396 70.4945 30.4808 70.3749 30.0024C70.1357 29.4043 69.7769 28.6867 69.5377 27.9691C69.2984 27.371 69.5377 26.6534 70.0161 26.4142C70.6141 26.1749 71.3318 26.4142 71.571 26.8926C71.9298 27.6102 72.2886 28.4475 72.6474 29.1651C72.8867 29.7632 72.5278 30.4808 71.9298 30.72C71.6906 30.8396 71.571 30.8396 71.4514 30.8396Z" fill="white"/>
<path d="M73.2469 37.0612C72.6489 37.0612 72.1705 36.5828 72.0508 36.1044C71.9312 35.2671 71.8116 34.5495 71.5724 33.9514C71.3332 33.3534 71.692 32.6357 72.2901 32.3965C72.8881 32.1573 73.6057 32.5161 73.845 33.1142C74.0842 33.9514 74.2038 34.7887 74.3234 35.7455C74.443 36.3436 73.9646 37.0612 73.3665 37.0612H73.2469ZM56.5019 14.4554C56.2627 14.4554 56.1431 14.4554 55.9039 14.3358C51.4784 11.9437 46.6941 10.7476 41.6706 10.7476C39.7569 10.7476 37.7236 10.9868 35.5706 11.3457C34.9726 11.4653 34.255 10.9868 34.1353 10.3888C34.0157 9.79076 34.4942 9.07311 35.0922 8.95351C37.3647 8.59468 39.6373 8.35547 41.6706 8.35547C47.1725 8.35547 52.3156 9.67115 57.0999 12.1829C57.698 12.5417 57.9372 13.2594 57.5784 13.8574C57.3391 14.2162 56.9803 14.4554 56.5019 14.4554ZM27.0785 14.2162C26.6001 14.2162 26.2413 13.977 26.002 13.4986C25.7628 12.9005 26.002 12.1829 26.4805 11.9437C27.1981 11.5849 28.0354 11.226 28.753 10.8672C29.3511 10.628 30.0687 10.9868 30.3079 11.5849C30.5471 12.1829 30.1883 12.9005 29.5903 13.1398C28.9922 13.379 28.2746 13.7378 27.5569 13.977C27.4373 14.2162 27.3177 14.2162 27.0785 14.2162Z" fill="white"/>
<path d="M33.058 11.9416C32.5796 11.9416 32.1012 11.5828 31.9816 11.1043C31.7424 10.5063 32.1012 9.78867 32.6992 9.66906C33.058 9.54945 33.5365 9.42984 33.8953 9.31024C34.2541 9.19063 34.6129 9.19063 34.9718 9.07102C35.5698 8.83181 36.2874 9.19063 36.5266 9.78867C36.7659 10.3867 36.407 11.1043 35.809 11.3436C35.4502 11.4632 34.9718 11.5828 34.6129 11.7024C34.2541 11.822 33.8953 11.822 33.5365 11.9416H33.058ZM10.2131 49.2591C9.61502 49.2591 9.13659 48.9002 9.01698 48.3022C8.53855 46.5081 8.41895 44.3552 8.41895 41.7238C8.41895 36.3415 9.61502 31.1984 12.1268 26.2945C12.4856 25.6964 13.2032 25.4572 13.6817 25.816C14.2797 26.1749 14.5189 26.8925 14.1601 27.3709C11.8876 31.7964 10.6915 36.7003 10.6915 41.6042C10.6915 44.1159 10.8111 46.0297 11.2895 47.7042C11.4091 48.3022 11.0503 49.0198 10.4523 49.1395C10.4523 49.2591 10.3327 49.2591 10.2131 49.2591ZM13.0836 57.512C12.6052 57.512 12.2464 57.2727 12.0072 56.7943C11.6483 56.0767 11.2895 55.2394 10.9307 54.5218C10.6915 53.9237 11.0503 53.2061 11.6483 52.9669C12.2464 52.7277 12.964 53.0865 13.2032 53.6845C13.4424 54.2826 13.8013 55.0002 14.0405 55.7178C14.2797 56.3159 14.0405 57.0335 13.5621 57.2727C13.4425 57.512 13.3228 57.512 13.0836 57.512Z" fill="white"/>
<path d="M10.8116 51.5308C10.3332 51.5308 9.85477 51.172 9.73516 50.6935C9.49595 50.0955 9.25673 49.1386 9.13713 48.1818C8.89791 47.5837 9.37634 46.9857 9.97438 46.8661C10.5724 46.7465 11.2901 47.2249 11.4097 47.823C11.5293 48.421 11.6489 49.1386 12.0077 49.8563C12.2469 50.4543 11.8881 51.172 11.2901 51.4112C11.0508 51.5308 10.9312 51.5308 10.8116 51.5308Z" fill="white"/>
</svg>
