<svg width="64" height="65" viewBox="0 0 64 65" fill="none" xmlns="http://www.w3.org/2000/svg">
<rect y="0.5" width="64" height="64" rx="8" fill="#DEF1F2"/>
<g clip-path="url(#clip0_21_5064)">
<path d="M36.098 44.2749L30.4635 39.8543M34.7797 45.9552L29.1452 41.5347M32.1398 46.5987L27.8268 43.2151M24.0312 31.4581L22.172 29.9364C21.9154 29.7263 21.537 29.7641 21.327 30.0207L16.1359 36.3627C15.9258 36.6194 15.9635 36.9977 16.2202 37.2078L18.0793 38.7295C18.336 38.9396 18.7144 38.9019 18.9244 38.6452L24.1155 32.3032C24.3256 32.0466 24.2878 31.6682 24.0312 31.4581ZM38.8198 32.6316L38.6866 32.7361C37.5333 33.6409 35.8685 33.8429 34.7549 33.8641C33.8551 33.881 32.9655 34.059 32.1284 34.3896L31.3485 34.6977L28.5396 35.8074C28.0083 36.0173 27.7468 36.6125 27.9413 37.1426C28.123 37.6379 28.6556 37.9081 29.1676 37.8004C29.5288 37.7245 29.8917 37.6568 30.256 37.5975C30.7236 37.5215 31.2003 37.6643 31.5471 37.987C31.9618 38.3247 33.2685 39.3403 37.4163 42.5944C37.7299 42.8404 37.8678 43.2268 37.8123 43.5947C39.871 41.8272 40.3402 40.7596 42.5786 39.0035L43.4657 38.3075L38.8198 32.6316Z" stroke="#0E556C" stroke-miterlimit="10" stroke-linecap="round" stroke-linejoin="round"/>
<path d="M43.2407 32.3429L41.3399 30.0208C41.1298 29.7641 40.7514 29.7263 40.4947 29.9364L38.6356 31.4582C38.5745 31.5082 38.5239 31.5697 38.4867 31.6392C38.4494 31.7087 38.4262 31.7849 38.4183 31.8633C38.4105 31.9418 38.4182 32.0211 38.441 32.0966C38.4638 32.1721 38.5013 32.2424 38.5512 32.3034L43.7423 38.6453C43.9524 38.9019 44.3307 38.9398 44.5874 38.7297L46.4466 37.2079C46.5076 37.1579 46.5582 37.0964 46.5955 37.0269C46.6327 36.9574 46.6559 36.8812 46.6638 36.8028C46.6716 36.7243 46.6639 36.645 46.6411 36.5695C46.6183 36.494 46.5809 36.4237 46.5309 36.3627L44.6086 34.0141M33.2277 26.7592V24.4999C33.2277 24.3774 33.2763 24.2598 33.363 24.1731C33.4497 24.0865 33.5672 24.0378 33.6898 24.0378H35.2186C35.5632 24.0378 35.7626 23.6471 35.5603 23.368L31.6752 18.0076C31.5067 17.7751 31.1603 17.7751 30.9918 18.0076L27.1067 23.368C26.9045 23.6471 27.1038 24.0378 27.4485 24.0378H28.9772C29.0998 24.0378 29.2174 24.0865 29.304 24.1731C29.3907 24.2598 29.4394 24.3774 29.4394 24.4999V30.4733C29.4394 30.5505 29.4546 30.627 29.4842 30.6983C29.5137 30.7697 29.557 30.8345 29.6116 30.8891C29.6662 30.9437 29.7311 30.987 29.8024 31.0165C29.8738 31.0461 29.9502 31.0613 30.0274 31.0613H32.6397C32.9645 31.0613 33.2277 30.798 33.2277 30.4733V28.9189M37.417 42.5949L37.4165 42.5945C33.2687 39.3404 31.962 38.3248 31.5473 37.9871C31.2005 37.6644 30.7239 37.5216 30.2562 37.5976C29.8919 37.6569 29.529 37.7246 29.1678 37.8005C28.6558 37.9081 28.1232 37.6379 27.9415 37.1427C27.747 36.6126 28.0085 36.0174 28.5398 35.8075L31.3488 34.6977L30.5689 34.3897C29.7318 34.0591 28.8423 33.8811 27.9425 33.8642C26.8289 33.843 25.1639 33.641 24.0106 32.7361L23.8588 32.6171L19.2129 38.2931L20.1186 39.0036C21.1228 39.7915 22.0445 40.6775 22.8903 41.6335C23.7194 42.5706 24.6359 43.4264 25.6204 44.1987L30.8015 48.2634C31.2571 48.6209 31.923 48.571 32.2964 48.1284C32.6884 47.6637 32.6141 46.9709 32.1399 46.5988L33.4413 47.6199C33.897 47.9772 34.5629 47.9274 34.9363 47.4849C35.3284 47.0203 35.2541 46.3273 34.7799 45.9553L36.0891 46.9825C36.5633 47.3545 37.254 47.2617 37.6119 46.7704C37.9529 46.3024 37.8428 45.6437 37.3872 45.2863L36.0981 44.2749C36.7414 44.7796 37.6909 44.4016 37.8126 43.5948C37.8686 43.224 37.7248 42.8366 37.417 42.5949ZM43.2989 21.72L40.5707 17.9557C40.4523 17.7925 40.2091 17.7925 40.0907 17.9557L37.3625 21.72C37.2205 21.916 37.3605 22.1903 37.6025 22.1903H38.676C38.7621 22.1903 38.8446 22.2245 38.9055 22.2854C38.9664 22.3462 39.0006 22.4288 39.0006 22.5149V26.3464C39.0006 26.4559 39.0441 26.5609 39.1215 26.6383C39.1989 26.7158 39.304 26.7593 39.4135 26.7593H41.2479C41.3574 26.7593 41.4625 26.7158 41.5399 26.6383C41.6174 26.5609 41.6609 26.4559 41.6609 26.3464V22.5149C41.6609 22.4288 41.6951 22.3462 41.7559 22.2854C41.8168 22.2245 41.8993 22.1903 41.9854 22.1903H43.0589C43.3009 22.1903 43.4409 21.916 43.2989 21.72ZM25.3045 21.72L22.5763 17.9557C22.4579 17.7925 22.2147 17.7925 22.0963 17.9557L19.3681 21.72C19.2261 21.916 19.3661 22.1903 19.6081 22.1903H20.6816C20.7243 22.1903 20.7665 22.1987 20.8058 22.215C20.8452 22.2313 20.881 22.2552 20.9111 22.2854C20.9413 22.3155 20.9652 22.3513 20.9815 22.3907C20.9978 22.43 21.0062 22.4722 21.0062 22.5149V26.3464C21.0062 26.4559 21.0497 26.5609 21.1271 26.6383C21.2046 26.7158 21.3096 26.7593 21.4191 26.7593H23.2536C23.3631 26.7593 23.4681 26.7158 23.5456 26.6383C23.623 26.5609 23.6665 26.4559 23.6665 26.3464V22.5149C23.6665 22.4288 23.7007 22.3462 23.7616 22.2854C23.8224 22.2245 23.905 22.1903 23.9911 22.1903H25.0645C25.3065 22.1903 25.4465 21.916 25.3045 21.72Z" stroke="#0E556C" stroke-miterlimit="10" stroke-linecap="round" stroke-linejoin="round"/>
</g>
<defs>
<clipPath id="clip0_21_5064">
<rect width="32" height="32" fill="white" transform="translate(16 16.5)"/>
</clipPath>
</defs>
</svg>
