<svg width="24" height="24" viewBox="0 0 24 24" fill="none" xmlns="http://www.w3.org/2000/svg">
<path d="M7.40164 1H3.13756C1.9589 1 1.00004 1.9589 1.00004 3.13756V17.0556C1.00004 17.1462 1.03603 17.2331 1.10009 17.2972C1.16415 17.3612 1.25104 17.3972 1.34163 17.3972C1.43223 17.3972 1.51911 17.3612 1.58317 17.2972C1.64723 17.2331 1.68322 17.1462 1.68322 17.0556V3.13756C1.68322 2.33562 2.33566 1.68317 3.13756 1.68317H7.40168C8.20358 1.68317 8.85607 2.33562 8.85607 3.13756V21.8625C8.85607 22.6644 8.20363 23.3169 7.40168 23.3169H3.13756C2.33566 23.3169 1.68317 22.6644 1.68317 21.8625V18.1943C1.68317 18.1037 1.64718 18.0168 1.58312 17.9528C1.51906 17.8887 1.43218 17.8527 1.34159 17.8527C1.25099 17.8527 1.16411 17.8887 1.10005 17.9528C1.03599 18.0168 1 18.1037 1 18.1943V21.8625C1.00004 23.0411 1.9589 24 3.13756 24H7.40168C8.58034 24 9.53924 23.0411 9.53924 21.8625V3.13756C9.5392 1.9589 8.5803 1 7.40164 1ZM21.9253 2.21873H10.2414C10.1508 2.21873 10.0639 2.25472 9.99984 2.31878C9.93577 2.38284 9.89979 2.46972 9.89979 2.56032C9.89979 2.65091 9.93577 2.73779 9.99984 2.80185C10.0639 2.86591 10.1508 2.9019 10.2414 2.9019H21.9253C22.6657 2.9019 23.268 3.50421 23.268 4.24457V20.7554C23.268 21.4957 22.6657 22.0981 21.9253 22.0981H10.2414C10.1508 22.0981 10.0639 22.134 9.99984 22.1981C9.93577 22.2622 9.89979 22.349 9.89979 22.4396C9.89979 22.5302 9.93577 22.6171 9.99984 22.6812C10.0639 22.7452 10.1508 22.7812 10.2414 22.7812H21.9253C23.0424 22.7812 23.9512 21.8724 23.9512 20.7554V4.24457C23.9511 3.12754 23.0423 2.21873 21.9253 2.21873Z" fill="white"/>
<path d="M20.9821 4.46313H20.2647C20.1741 4.46313 20.0872 4.49912 20.0231 4.56318C19.9591 4.62724 19.9231 4.71413 19.9231 4.80472C19.9231 4.89531 19.9591 4.9822 20.0231 5.04626C20.0872 5.11032 20.1741 5.14631 20.2647 5.14631H20.9821C21.2393 5.14631 21.4486 5.35564 21.4486 5.61287V7.8904C21.4486 8.14763 21.2393 8.35696 20.9821 8.35696H11.6425C11.3852 8.35696 11.1759 8.14763 11.1759 7.8904V5.61287C11.1758 5.35564 11.3852 5.14631 11.6425 5.14631H19.126C19.2166 5.14631 19.3035 5.11032 19.3676 5.04626C19.4316 4.9822 19.4676 4.89531 19.4676 4.80472C19.4676 4.71413 19.4316 4.62724 19.3676 4.56318C19.3035 4.49912 19.2166 4.46313 19.126 4.46313H11.6425C11.0085 4.46313 10.4927 4.97893 10.4927 5.61287V7.8904C10.4927 8.52439 11.0085 9.04013 11.6425 9.04013H20.9821C21.6161 9.04013 22.1318 8.52439 22.1318 7.8904V5.61287C22.1318 4.97893 21.6161 4.46313 20.9821 4.46313ZM13.0461 10.1104H11.5857C10.983 10.1104 10.4927 10.6007 10.4927 11.2035C10.4927 11.8062 10.983 12.2965 11.5857 12.2965H13.0461C13.6488 12.2965 14.1391 11.8062 14.1391 11.2035C14.1391 10.6008 13.6488 10.1104 13.0461 10.1104ZM13.0461 11.6133H11.5857C11.3597 11.6133 11.1758 11.4295 11.1758 11.2035C11.1758 10.9774 11.3598 10.7936 11.5857 10.7936H13.0461C13.2721 10.7936 13.4559 10.9774 13.4559 11.2035C13.4559 11.4295 13.2721 11.6133 13.0461 11.6133ZM17.0424 10.1104H15.5821C14.9794 10.1104 14.4891 10.6008 14.4891 11.2035C14.4891 11.8062 14.9794 12.2966 15.5821 12.2966H17.0424C17.6451 12.2966 18.1355 11.8062 18.1355 11.2035C18.1355 10.6008 17.6451 10.1104 17.0424 10.1104ZM17.0424 11.6133H15.5821C15.3561 11.6133 15.1722 11.4294 15.1722 11.2034C15.1722 10.9774 15.3561 10.7935 15.5821 10.7935H17.0424C17.2684 10.7935 17.4523 10.9774 17.4523 11.2034C17.4523 11.4294 17.2684 11.6133 17.0424 11.6133ZM21.0388 10.1104H19.5784C18.9758 10.1104 18.4854 10.6008 18.4854 11.2035C18.4854 11.8062 18.9757 12.2966 19.5784 12.2966H21.0388C21.6415 12.2966 22.1318 11.8062 22.1318 11.2035C22.1318 10.6008 21.6415 10.1104 21.0388 10.1104ZM21.0388 11.6133H19.5784C19.3524 11.6133 19.1686 11.4294 19.1686 11.2034C19.1686 10.9774 19.3524 10.7935 19.5784 10.7935H21.0388C21.2648 10.7935 21.4487 10.9774 21.4487 11.2034C21.4486 11.4294 21.2648 11.6133 21.0388 11.6133ZM13.0461 12.9112H11.5857C10.983 12.9112 10.4927 13.4016 10.4927 14.0043C10.4927 14.607 10.983 15.0974 11.5857 15.0974H13.0461C13.6488 15.0974 14.1391 14.607 14.1391 14.0043C14.1391 13.4016 13.6488 12.9112 13.0461 12.9112ZM13.0461 14.4142H11.5857C11.3597 14.4142 11.1758 14.2304 11.1758 14.0043C11.1758 13.7783 11.3598 13.5944 11.5857 13.5944H13.0461C13.2721 13.5944 13.4559 13.7783 13.4559 14.0044C13.4559 14.2304 13.2721 14.4142 13.0461 14.4142ZM17.0424 12.9113H15.5821C14.9794 12.9113 14.4891 13.4016 14.4891 14.0044C14.4891 14.607 14.9794 15.0974 15.5821 15.0974H17.0424C17.6451 15.0974 18.1355 14.6071 18.1355 14.0043C18.1355 13.4016 17.6451 12.9113 17.0424 12.9113ZM17.0424 14.4142H15.5821C15.3561 14.4142 15.1722 14.2303 15.1722 14.0043C15.1722 13.7783 15.3561 13.5944 15.5821 13.5944H17.0424C17.2684 13.5944 17.4523 13.7783 17.4523 14.0043C17.4523 14.2303 17.2684 14.4142 17.0424 14.4142ZM21.0388 12.9113H19.5784C18.9758 12.9113 18.4854 13.4016 18.4854 14.0044C18.4854 14.607 18.9757 15.0974 19.5784 15.0974H21.0388C21.6415 15.0974 22.1318 14.6071 22.1318 14.0043C22.1318 13.4016 21.6415 12.9113 21.0388 12.9113ZM21.0388 14.4142H19.5784C19.3524 14.4142 19.1686 14.2303 19.1686 14.0043C19.1686 13.7783 19.3524 13.5944 19.5784 13.5944H21.0388C21.2648 13.5944 21.4487 13.7783 21.4487 14.0043C21.4486 14.2303 21.2648 14.4142 21.0388 14.4142ZM13.0461 15.7121H11.5857C10.983 15.7121 10.4927 16.2024 10.4927 16.8052C10.4927 17.4079 10.983 17.8982 11.5857 17.8982H13.0461C13.6488 17.8982 14.1391 17.4079 14.1391 16.8052C14.1391 16.2024 13.6488 15.7121 13.0461 15.7121ZM13.0461 17.2151H11.5857C11.3597 17.2151 11.1758 17.0312 11.1758 16.8052C11.1758 16.5791 11.3598 16.3953 11.5857 16.3953H13.0461C13.2721 16.3953 13.4559 16.5791 13.4559 16.8052C13.4559 17.0312 13.2721 17.2151 13.0461 17.2151ZM17.0424 15.7122H15.5821C14.9794 15.7122 14.4891 16.2025 14.4891 16.8052C14.4891 17.4079 14.9794 17.8983 15.5821 17.8983H17.0424C17.6451 17.8983 18.1355 17.408 18.1355 16.8052C18.1355 16.2025 17.6451 15.7122 17.0424 15.7122ZM17.0424 17.215H15.5821C15.3561 17.215 15.1722 17.0312 15.1722 16.8051C15.1722 16.5791 15.3561 16.3952 15.5821 16.3952H17.0424C17.2684 16.3952 17.4523 16.5791 17.4523 16.8051C17.4523 17.0312 17.2684 17.215 17.0424 17.215ZM21.0388 15.7122H19.5784C18.9758 15.7122 18.4854 16.2025 18.4854 16.8052C18.4854 17.4079 18.9757 17.8983 19.5784 17.8983H21.0388C21.6415 17.8983 22.1318 17.408 22.1318 16.8052C22.1318 16.2025 21.6415 15.7122 21.0388 15.7122ZM21.0388 17.215H19.5784C19.3524 17.215 19.1686 17.0312 19.1686 16.8051C19.1686 16.5791 19.3524 16.3952 19.5784 16.3952H21.0388C21.2648 16.3952 21.4487 16.5791 21.4487 16.8051C21.4486 17.0312 21.2648 17.215 21.0388 17.215ZM13.0461 18.513H11.5857C10.983 18.513 10.4927 19.0033 10.4927 19.606C10.4927 20.2087 10.983 20.6991 11.5857 20.6991H13.0461C13.6488 20.6991 14.1391 20.2087 14.1391 19.606C14.1391 19.0033 13.6488 18.513 13.0461 18.513ZM13.0461 20.0159H11.5857C11.3597 20.0159 11.1758 19.832 11.1758 19.606C11.1758 19.38 11.3598 19.1962 11.5857 19.1962H13.0461C13.2721 19.1962 13.4559 19.38 13.4559 19.606C13.4559 19.832 13.2721 20.0159 13.0461 20.0159ZM17.0424 18.513H15.5821C14.9794 18.513 14.4891 19.0033 14.4891 19.606C14.4891 20.2087 14.9794 20.6991 15.5821 20.6991H17.0424C17.6451 20.6991 18.1355 20.2087 18.1355 19.606C18.1355 19.0033 17.6451 18.513 17.0424 18.513ZM17.0424 20.0159H15.5821C15.3561 20.0159 15.1722 19.832 15.1722 19.606C15.1722 19.38 15.3561 19.1962 15.5821 19.1962H17.0424C17.2684 19.1962 17.4523 19.38 17.4523 19.606C17.4523 19.832 17.2684 20.0159 17.0424 20.0159ZM21.0388 18.513H19.5784C18.9758 18.513 18.4854 19.0033 18.4854 19.606C18.4854 20.2087 18.9757 20.6991 19.5784 20.6991H21.0388C21.6415 20.6991 22.1318 20.2087 22.1318 19.606C22.1318 19.0033 21.6415 18.513 21.0388 18.513ZM21.0388 20.0159H19.5784C19.3524 20.0159 19.1686 19.832 19.1686 19.606C19.1686 19.38 19.3524 19.1962 19.5784 19.1962H21.0388C21.2648 19.1962 21.4487 19.38 21.4487 19.606C21.4486 19.832 21.2648 20.0159 21.0388 20.0159Z" fill="white"/>
</svg>
