<svg width="80" height="80" viewBox="0 0 80 80" fill="none" xmlns="http://www.w3.org/2000/svg">
<rect width="80" height="80" rx="8" fill="#D2D3D5"/>
<path d="M59.9251 25.5469H50.5C50.4115 25.5468 50.3239 25.5642 50.2421 25.5981C50.1603 25.6319 50.086 25.6816 50.0235 25.7442C49.9609 25.8067 49.9112 25.881 49.8774 25.9628C49.8435 26.0446 49.8261 26.1322 49.8262 26.2207C49.8262 26.5931 50.1276 26.8945 50.5 26.8945H59.9251C60.3263 26.8945 60.6523 27.2206 60.6523 27.6217V53.5697C60.6523 53.9708 60.3263 54.2969 59.9251 54.2969H18.0749C17.6737 54.2969 17.3477 53.9708 17.3477 53.5697V27.6217C17.3477 27.2206 17.6737 26.8945 18.0749 26.8945H32.8794V28.2422H19.3691C19.2806 28.2422 19.193 28.2596 19.1112 28.2934C19.0295 28.3273 18.9552 28.3769 18.8926 28.4395C18.83 28.502 18.7804 28.5763 18.7465 28.6581C18.7127 28.7399 18.6953 28.8275 18.6953 28.916V46.7202C18.6953 46.8989 18.7663 47.0703 18.8927 47.1966C19.019 47.323 19.1904 47.394 19.3691 47.394C19.5479 47.394 19.7192 47.323 19.8456 47.1966C19.972 47.0703 20.043 46.8989 20.043 46.7202V29.5898H32.8794V33.2046L29.9945 34.5828C29.8801 34.6382 29.7835 34.7245 29.7158 34.832C29.648 34.9396 29.6118 35.064 29.6113 35.1911V46.18C29.6113 46.4397 29.7605 46.6763 29.9946 46.7883L38.7094 50.952C38.8004 50.9947 38.8996 51.0169 39 51.0169C39.1004 51.0169 39.1997 50.9947 39.2906 50.952L44.1899 48.6111C44.2698 48.5729 44.3413 48.5194 44.4005 48.4536C44.4596 48.3878 44.5052 48.311 44.5347 48.2275C44.5642 48.1441 44.5769 48.0556 44.5722 47.9673C44.5675 47.8789 44.5455 47.7923 44.5073 47.7125C44.4691 47.6326 44.4156 47.5611 44.3498 47.5019C44.284 47.4427 44.2071 47.3971 44.1237 47.3676C44.0402 47.3382 43.9518 47.3254 43.8634 47.3301C43.7751 47.3348 43.6885 47.3569 43.6086 47.3951L39.6738 49.2751V39.7795L47.041 36.2597V45.7554L46.0402 46.2334C45.8806 46.3115 45.7584 46.4493 45.7 46.6171C45.6416 46.7848 45.6518 46.9688 45.7283 47.129C45.8048 47.2893 45.9415 47.4129 46.1087 47.4729C46.2758 47.5329 46.4599 47.5244 46.6209 47.4494L48.0054 46.7882C48.1201 46.7333 48.217 46.6471 48.2849 46.5395C48.3527 46.4318 48.3887 46.3072 48.3887 46.18V35.1911C48.3882 35.0639 48.3521 34.9395 48.2843 34.832C48.2165 34.7244 48.1199 34.6381 48.0054 34.5828L45.1206 33.2046V29.5898H57.957V51.6016H20.043V49.5952C20.043 49.2228 19.7415 48.9213 19.3691 48.9213C19.2806 48.9213 19.193 48.9387 19.1112 48.9726C19.0295 49.0064 18.9552 49.056 18.8926 49.1186C18.83 49.1812 18.7804 49.2555 18.7465 49.3373C18.7127 49.419 18.6953 49.5067 18.6953 49.5952V52.2754C18.6953 52.6478 18.9967 52.9492 19.3691 52.9492H58.6309C59.0033 52.9492 59.3047 52.6478 59.3047 52.2754V28.916C59.3047 28.5436 59.0033 28.2422 58.6309 28.2422H45.1206V26.8945H47.625C47.9974 26.8945 48.2988 26.5931 48.2988 26.2207C48.2988 25.8483 47.9974 25.5469 47.625 25.5469H45.1206V24.1992H51.1626C51.535 24.1992 51.8364 23.8978 51.8364 23.5254V21.9271C52.6208 21.6488 53.1841 20.8999 53.1841 20.0215C53.1841 18.9069 52.2772 18 51.1626 18C50.048 18 49.1411 18.9069 49.1411 20.0215C49.1411 20.8999 49.7044 21.6488 50.4888 21.9271V22.8516H44.4468C44.3583 22.8515 44.2706 22.8689 44.1889 22.9028C44.1071 22.9366 44.0328 22.9863 43.9702 23.0488C43.9077 23.1114 43.858 23.1857 43.8242 23.2675C43.7903 23.3493 43.7729 23.4369 43.7729 23.5254V25.5469H39.6738V21.9271C40.4582 21.6488 41.0215 20.8999 41.0215 20.0215C41.0215 18.9069 40.1146 18 39 18C37.8854 18 36.9785 18.9069 36.9785 20.0215C36.9785 20.8999 37.5418 21.6488 38.3262 21.9271V25.5469H34.2271V23.5254C34.2271 23.153 33.9256 22.8516 33.5532 22.8516H27.5112V21.9271C28.2956 21.6488 28.8589 20.8999 28.8589 20.0215C28.8589 18.9069 27.952 18 26.8374 18C25.7228 18 24.8159 18.9069 24.8159 20.0215C24.8159 20.8999 25.3792 21.6488 26.1636 21.9271V23.5254C26.1636 23.8978 26.465 24.1992 26.8374 24.1992H32.8794V25.5469H18.0749C16.9307 25.5469 16 26.4777 16 27.6217V53.5697C16 54.7138 16.9308 55.6445 18.0749 55.6445H32.6835C32.4228 58.1163 30.7885 59.5597 30.2732 59.957H27.4102C26.2956 59.957 25.3887 60.8639 25.3887 61.9785C25.3887 63.0931 26.2956 64 27.4102 64H50.5898C51.7044 64 52.6113 63.0931 52.6113 61.9785C52.6113 60.8639 51.7044 59.957 50.5898 59.957H47.7285C47.22 59.5612 45.58 58.1047 45.3171 55.6445H59.9251C61.0693 55.6445 62 54.7137 62 53.5697V27.6217C62 26.4776 61.0692 25.5469 59.9251 25.5469ZM51.1626 19.3477C51.5343 19.3477 51.8364 19.6498 51.8364 20.0215C51.8364 20.3932 51.5343 20.6953 51.1626 20.6953C50.7909 20.6953 50.4888 20.3932 50.4888 20.0215C50.4888 19.6498 50.7909 19.3477 51.1626 19.3477ZM39 19.3477C39.3717 19.3477 39.6738 19.6498 39.6738 20.0215C39.6738 20.3932 39.3717 20.6953 39 20.6953C38.6283 20.6953 38.3262 20.3932 38.3262 20.0215C38.3262 19.6498 38.6283 19.3477 39 19.3477ZM26.8374 19.3477C27.2091 19.3477 27.5112 19.6498 27.5112 20.0215C27.5112 20.3932 27.2091 20.6953 26.8374 20.6953C26.4657 20.6953 26.1636 20.3932 26.1636 20.0215C26.1636 19.6498 26.4657 19.3477 26.8374 19.3477ZM34.2271 29.5898H38.3262V30.6024L34.2271 32.561V29.5898ZM46.1517 35.1911L39 38.6075L31.8483 35.191L39 31.7742L46.1517 35.1911ZM30.959 36.2597L38.3262 39.7794V49.2751L30.959 45.7554V36.2597ZM43.7729 32.561L39.6738 30.6024V29.5898H43.7729V32.561ZM43.7729 26.8945V28.2422H39.6738V26.8945H43.7729ZM38.3262 26.8945V28.2422H34.2271V26.8945H38.3262ZM51.2637 61.9785C51.2637 62.3502 50.9615 62.6523 50.5898 62.6523H27.4102C27.0385 62.6523 26.7363 62.3502 26.7363 61.9785C26.7363 61.6068 27.0385 61.3047 27.4102 61.3047H50.5898C50.9615 61.3047 51.2637 61.6068 51.2637 61.9785ZM45.7958 59.957H32.2042C32.9941 59.0343 33.8705 57.5966 34.0386 55.6445H43.9614C44.1294 57.5966 45.0058 59.0343 45.7958 59.957Z" fill="#797C7F"/>
</svg>
