<svg width="48" height="48" viewBox="0 0 48 48" fill="none" xmlns="http://www.w3.org/2000/svg">
<path d="M43.9251 9.54688H34.5C34.4115 9.54684 34.3239 9.56424 34.2421 9.59809C34.1603 9.63195 34.086 9.68158 34.0235 9.74416C33.9609 9.80673 33.9112 9.88103 33.8774 9.9628C33.8435 10.0446 33.8261 10.1322 33.8262 10.2207C33.8262 10.5931 34.1276 10.8945 34.5 10.8945H43.9251C44.3263 10.8945 44.6523 11.2206 44.6523 11.6217V37.5697C44.6523 37.9708 44.3263 38.2969 43.9251 38.2969H2.07485C1.6737 38.2969 1.34766 37.9708 1.34766 37.5697V11.6217C1.34766 11.2206 1.6737 10.8945 2.07485 10.8945H16.8794V12.2422H3.36914C3.28064 12.2422 3.193 12.2596 3.11124 12.2934C3.02947 12.3273 2.95517 12.3769 2.89259 12.4395C2.83002 12.502 2.78038 12.5763 2.74653 12.6581C2.71268 12.7399 2.69528 12.8275 2.69531 12.916V30.7202C2.69531 30.8989 2.7663 31.0703 2.89267 31.1966C3.01904 31.323 3.19043 31.394 3.36914 31.394C3.54785 31.394 3.71924 31.323 3.84561 31.1966C3.97198 31.0703 4.04297 30.8989 4.04297 30.7202V13.5898H16.8794V17.2046L13.9945 18.5828C13.8801 18.6382 13.7835 18.7245 13.7158 18.832C13.648 18.9396 13.6118 19.064 13.6113 19.1911V30.18C13.6113 30.4397 13.7605 30.6763 13.9946 30.7883L22.7094 34.952C22.8004 34.9947 22.8996 35.0169 23 35.0169C23.1004 35.0169 23.1997 34.9947 23.2906 34.952L28.1899 32.6111C28.2698 32.5729 28.3413 32.5194 28.4005 32.4536C28.4596 32.3878 28.5052 32.311 28.5347 32.2275C28.5642 32.1441 28.5769 32.0556 28.5722 31.9673C28.5675 31.8789 28.5455 31.7923 28.5073 31.7125C28.4691 31.6326 28.4156 31.5611 28.3498 31.5019C28.284 31.4427 28.2071 31.3971 28.1237 31.3676C28.0402 31.3382 27.9518 31.3254 27.8634 31.3301C27.7751 31.3348 27.6885 31.3569 27.6086 31.3951L23.6738 33.2751V23.7795L31.041 20.2597V29.7554L30.0402 30.2334C29.8806 30.3115 29.7584 30.4493 29.7 30.6171C29.6416 30.7848 29.6518 30.9688 29.7283 31.129C29.8048 31.2893 29.9415 31.4129 30.1087 31.4729C30.2758 31.5329 30.4599 31.5244 30.6209 31.4494L32.0054 30.7882C32.1201 30.7333 32.217 30.6471 32.2849 30.5395C32.3527 30.4318 32.3887 30.3072 32.3887 30.18V19.1911C32.3882 19.0639 32.3521 18.9395 32.2843 18.832C32.2165 18.7244 32.1199 18.6381 32.0054 18.5828L29.1206 17.2046V13.5898H41.957V35.6016H4.04297V33.5952C4.04297 33.2228 3.74154 32.9213 3.36914 32.9213C3.28064 32.9213 3.193 32.9387 3.11124 32.9726C3.02947 33.0064 2.95517 33.056 2.89259 33.1186C2.83002 33.1812 2.78038 33.2555 2.74653 33.3373C2.71268 33.419 2.69528 33.5067 2.69531 33.5952V36.2754C2.69531 36.6478 2.99674 36.9492 3.36914 36.9492H42.6309C43.0033 36.9492 43.3047 36.6478 43.3047 36.2754V12.916C43.3047 12.5436 43.0033 12.2422 42.6309 12.2422H29.1206V10.8945H31.625C31.9974 10.8945 32.2988 10.5931 32.2988 10.2207C32.2988 9.8483 31.9974 9.54688 31.625 9.54688H29.1206V8.19922H35.1626C35.535 8.19922 35.8364 7.89779 35.8364 7.52539V5.92707C36.6208 5.64882 37.1841 4.89989 37.1841 4.02148C37.1841 2.90688 36.2772 2 35.1626 2C34.048 2 33.1411 2.90688 33.1411 4.02148C33.1411 4.89989 33.7044 5.64882 34.4888 5.92707V6.85156H28.4468C28.3583 6.85153 28.2706 6.86893 28.1889 6.90278C28.1071 6.93663 28.0328 6.98627 27.9702 7.04884C27.9077 7.11142 27.858 7.18572 27.8242 7.26749C27.7903 7.34925 27.7729 7.43689 27.7729 7.52539V9.54688H23.6738V5.92707C24.4582 5.64882 25.0215 4.89989 25.0215 4.02148C25.0215 2.90688 24.1146 2 23 2C21.8854 2 20.9785 2.90688 20.9785 4.02148C20.9785 4.89989 21.5418 5.64882 22.3262 5.92707V9.54688H18.2271V7.52539C18.2271 7.15299 17.9256 6.85156 17.5532 6.85156H11.5112V5.92707C12.2956 5.64882 12.8589 4.89989 12.8589 4.02148C12.8589 2.90688 11.952 2 10.8374 2C9.7228 2 8.81592 2.90688 8.81592 4.02148C8.81592 4.89989 9.37924 5.64882 10.1636 5.92707V7.52539C10.1636 7.89779 10.465 8.19922 10.8374 8.19922H16.8794V9.54688H2.07485C0.930691 9.54688 0 10.4777 0 11.6217V37.5697C0 38.7138 0.930781 39.6445 2.07485 39.6445H16.6835C16.4228 42.1163 14.7885 43.5597 14.2732 43.957H11.4102C10.2956 43.957 9.38867 44.8639 9.38867 45.9785C9.38867 47.0931 10.2956 48 11.4102 48H34.5898C35.7044 48 36.6113 47.0931 36.6113 45.9785C36.6113 44.8639 35.7044 43.957 34.5898 43.957H31.7285C31.22 43.5612 29.58 42.1047 29.3171 39.6445H43.9251C45.0693 39.6445 46 38.7137 46 37.5697V11.6217C46 10.4776 45.0692 9.54688 43.9251 9.54688ZM35.1626 3.34766C35.5343 3.34766 35.8364 3.6498 35.8364 4.02148C35.8364 4.39317 35.5343 4.69531 35.1626 4.69531C34.7909 4.69531 34.4888 4.39317 34.4888 4.02148C34.4888 3.6498 34.7909 3.34766 35.1626 3.34766ZM23 3.34766C23.3717 3.34766 23.6738 3.6498 23.6738 4.02148C23.6738 4.39317 23.3717 4.69531 23 4.69531C22.6283 4.69531 22.3262 4.39317 22.3262 4.02148C22.3262 3.6498 22.6283 3.34766 23 3.34766ZM10.8374 3.34766C11.2091 3.34766 11.5112 3.6498 11.5112 4.02148C11.5112 4.39317 11.2091 4.69531 10.8374 4.69531C10.4657 4.69531 10.1636 4.39317 10.1636 4.02148C10.1636 3.6498 10.4657 3.34766 10.8374 3.34766ZM18.2271 13.5898H22.3262V14.6024L18.2271 16.561V13.5898ZM30.1517 19.1911L23 22.6075L15.8483 19.191L23 15.7742L30.1517 19.1911ZM14.959 20.2597L22.3262 23.7794V33.2751L14.959 29.7554V20.2597ZM27.7729 16.561L23.6738 14.6024V13.5898H27.7729V16.561ZM27.7729 10.8945V12.2422H23.6738V10.8945H27.7729ZM22.3262 10.8945V12.2422H18.2271V10.8945H22.3262ZM35.2637 45.9785C35.2637 46.3502 34.9615 46.6523 34.5898 46.6523H11.4102C11.0385 46.6523 10.7363 46.3502 10.7363 45.9785C10.7363 45.6068 11.0385 45.3047 11.4102 45.3047H34.5898C34.9615 45.3047 35.2637 45.6068 35.2637 45.9785ZM29.7958 43.957H16.2042C16.9941 43.0343 17.8705 41.5966 18.0386 39.6445H27.9614C28.1294 41.5966 29.0058 43.0343 29.7958 43.957Z" fill="#D2D3D5"/>
</svg>
