<svg width="78" height="77" viewBox="0 0 78 77" fill="none" xmlns="http://www.w3.org/2000/svg">
<mask id="path-1-inside-1_1445_3496" fill="white">
<path d="M72.2293 0.33313H5.43845C2.71571 0.33313 0.499999 2.54824 0.499999 5.27158V59.5626C0.499999 62.2854 2.71571 64.5005 5.43845 64.5005H9.66114C9.80847 64.5005 9.95436 64.4715 10.0905 64.4151C10.2266 64.3588 10.3503 64.2761 10.4545 64.1719C10.5586 64.0678 10.6413 63.9441 10.6976 63.808C10.754 63.6719 10.783 63.526 10.783 63.3786C10.7829 63.0811 10.6647 62.7958 10.4543 62.5854C10.244 62.3751 9.95865 62.2569 9.66114 62.2568H5.43845C3.95287 62.2568 2.74431 61.0484 2.74431 59.5626V55.306H43.6229V57.2397H42.7333C41.5161 57.2397 40.5264 58.2295 40.5264 59.4466V62.2566H16.483C16.1855 62.2567 15.9002 62.3749 15.6898 62.5853C15.4795 62.7957 15.3612 63.081 15.3612 63.3785C15.3611 63.5258 15.3902 63.6717 15.4465 63.8078C15.5029 63.9439 15.5855 64.0676 15.6897 64.1718C15.7939 64.276 15.9176 64.3586 16.0537 64.415C16.1898 64.4714 16.3357 64.5004 16.483 64.5003H27.2714V68.5246H23.8835C21.6233 68.5246 19.7851 70.3637 19.7851 72.6233V75.0472C19.7851 76.0784 20.6237 76.9171 21.6549 76.9171H55.9268C56.9581 76.9171 57.7969 76.0784 57.7969 75.0472V72.6235C57.7969 70.3639 55.9584 68.5248 53.6984 68.5248H50.3105V67.1064H71.0536C72.2703 67.1064 73.2599 66.1166 73.2599 64.8994V64.3713C75.447 63.8636 77.0819 61.9011 77.0819 59.5626L77.1667 5.27113C77.1673 2.54824 74.9521 0.33313 72.2293 0.33313ZM42.7708 52.6347V47.2563H71.0162V52.6347H42.7708ZM45.8668 45.012V42.6512H67.9196V45.012H45.8668ZM67.9196 54.8784V57.2399H45.867V54.8784H67.9196ZM29.5153 64.5006H40.5264V64.9001C40.5264 66.1168 41.5162 67.1066 42.7333 67.1066H48.0666V68.5249H29.5153V64.5006ZM53.6988 70.7694C54.7214 70.7694 55.5531 71.601 55.5531 72.6236V74.6736H22.0287V72.6236C22.0287 71.601 22.8611 70.7694 23.8835 70.7694H53.6988ZM71.0162 64.8621H42.7708V59.4843H71.0162V64.8621ZM74.838 59.5628C74.838 60.6496 74.19 61.5861 73.2605 62.0112V59.4463C73.2605 58.2296 72.2703 57.2399 71.0536 57.2399H70.1639V55.3061H74.838V59.5628ZM74.838 53.0625H73.2238C73.2465 52.9356 73.2605 47.2191 73.2605 47.2191C73.2605 46.0018 72.2703 45.0122 71.0536 45.0122H70.1639V42.6514H71.0536C72.2703 42.6514 73.2605 41.6611 73.2605 40.4445V34.9912C73.2605 33.7746 72.2703 32.7843 71.0536 32.7843H64.716C64.5686 32.7843 64.4227 32.8134 64.2865 32.8698C64.1503 32.9262 64.0266 33.0089 63.9224 33.1131C63.8182 33.2173 63.7356 33.3411 63.6792 33.4773C63.6229 33.6135 63.5939 33.7594 63.594 33.9068C63.594 34.0541 63.623 34.2001 63.6794 34.3362C63.7358 34.4723 63.8184 34.596 63.9226 34.7002C64.0268 34.8044 64.1505 34.887 64.2866 34.9433C64.4228 34.9997 64.5687 35.0287 64.716 35.0287H71.0162V40.4071H42.7708V35.0287H57.7344C57.8817 35.0287 58.0276 34.9997 58.1637 34.9433C58.2998 34.8869 58.4235 34.8043 58.5277 34.7001C58.6319 34.5959 58.7145 34.4723 58.7709 34.3361C58.8272 34.2 58.8562 34.0541 58.8562 33.9068C58.8563 33.7594 58.8273 33.6135 58.771 33.4773C58.7146 33.3411 58.632 33.2174 58.5278 33.1131C58.4237 33.0089 58.3 32.9262 58.1638 32.8698C58.0277 32.8134 57.8817 32.7843 57.7344 32.7843H42.7333C41.5161 32.7843 40.5264 33.7746 40.5264 34.9912V40.4445C40.5264 41.6611 41.5162 42.6514 42.7333 42.6514H43.6229V45.0122H42.7333C41.5161 45.0122 40.5264 46.0024 40.5264 47.2191C40.5264 47.2191 40.5404 52.9356 40.5633 53.0625H2.74431V15.5962H74.838V53.0625ZM74.838 13.3519H2.82697V5.27113C2.82697 3.786 4.03538 2.57744 5.52111 2.57744H72.1441C73.6298 2.57744 74.8382 3.78585 74.8382 5.27158L74.838 13.3519Z"/>
</mask>
<path d="M72.2293 0.33313H5.43845C2.71571 0.33313 0.499999 2.54824 0.499999 5.27158V59.5626C0.499999 62.2854 2.71571 64.5005 5.43845 64.5005H9.66114C9.80847 64.5005 9.95436 64.4715 10.0905 64.4151C10.2266 64.3588 10.3503 64.2761 10.4545 64.1719C10.5586 64.0678 10.6413 63.9441 10.6976 63.808C10.754 63.6719 10.783 63.526 10.783 63.3786C10.7829 63.0811 10.6647 62.7958 10.4543 62.5854C10.244 62.3751 9.95865 62.2569 9.66114 62.2568H5.43845C3.95287 62.2568 2.74431 61.0484 2.74431 59.5626V55.306H43.6229V57.2397H42.7333C41.5161 57.2397 40.5264 58.2295 40.5264 59.4466V62.2566H16.483C16.1855 62.2567 15.9002 62.3749 15.6898 62.5853C15.4795 62.7957 15.3612 63.081 15.3612 63.3785C15.3611 63.5258 15.3902 63.6717 15.4465 63.8078C15.5029 63.9439 15.5855 64.0676 15.6897 64.1718C15.7939 64.276 15.9176 64.3586 16.0537 64.415C16.1898 64.4714 16.3357 64.5004 16.483 64.5003H27.2714V68.5246H23.8835C21.6233 68.5246 19.7851 70.3637 19.7851 72.6233V75.0472C19.7851 76.0784 20.6237 76.9171 21.6549 76.9171H55.9268C56.9581 76.9171 57.7969 76.0784 57.7969 75.0472V72.6235C57.7969 70.3639 55.9584 68.5248 53.6984 68.5248H50.3105V67.1064H71.0536C72.2703 67.1064 73.2599 66.1166 73.2599 64.8994V64.3713C75.447 63.8636 77.0819 61.9011 77.0819 59.5626L77.1667 5.27113C77.1673 2.54824 74.9521 0.33313 72.2293 0.33313ZM42.7708 52.6347V47.2563H71.0162V52.6347H42.7708ZM45.8668 45.012V42.6512H67.9196V45.012H45.8668ZM67.9196 54.8784V57.2399H45.867V54.8784H67.9196ZM29.5153 64.5006H40.5264V64.9001C40.5264 66.1168 41.5162 67.1066 42.7333 67.1066H48.0666V68.5249H29.5153V64.5006ZM53.6988 70.7694C54.7214 70.7694 55.5531 71.601 55.5531 72.6236V74.6736H22.0287V72.6236C22.0287 71.601 22.8611 70.7694 23.8835 70.7694H53.6988ZM71.0162 64.8621H42.7708V59.4843H71.0162V64.8621ZM74.838 59.5628C74.838 60.6496 74.19 61.5861 73.2605 62.0112V59.4463C73.2605 58.2296 72.2703 57.2399 71.0536 57.2399H70.1639V55.3061H74.838V59.5628ZM74.838 53.0625H73.2238C73.2465 52.9356 73.2605 47.2191 73.2605 47.2191C73.2605 46.0018 72.2703 45.0122 71.0536 45.0122H70.1639V42.6514H71.0536C72.2703 42.6514 73.2605 41.6611 73.2605 40.4445V34.9912C73.2605 33.7746 72.2703 32.7843 71.0536 32.7843H64.716C64.5686 32.7843 64.4227 32.8134 64.2865 32.8698C64.1503 32.9262 64.0266 33.0089 63.9224 33.1131C63.8182 33.2173 63.7356 33.3411 63.6792 33.4773C63.6229 33.6135 63.5939 33.7594 63.594 33.9068C63.594 34.0541 63.623 34.2001 63.6794 34.3362C63.7358 34.4723 63.8184 34.596 63.9226 34.7002C64.0268 34.8044 64.1505 34.887 64.2866 34.9433C64.4228 34.9997 64.5687 35.0287 64.716 35.0287H71.0162V40.4071H42.7708V35.0287H57.7344C57.8817 35.0287 58.0276 34.9997 58.1637 34.9433C58.2998 34.8869 58.4235 34.8043 58.5277 34.7001C58.6319 34.5959 58.7145 34.4723 58.7709 34.3361C58.8272 34.2 58.8562 34.0541 58.8562 33.9068C58.8563 33.7594 58.8273 33.6135 58.771 33.4773C58.7146 33.3411 58.632 33.2174 58.5278 33.1131C58.4237 33.0089 58.3 32.9262 58.1638 32.8698C58.0277 32.8134 57.8817 32.7843 57.7344 32.7843H42.7333C41.5161 32.7843 40.5264 33.7746 40.5264 34.9912V40.4445C40.5264 41.6611 41.5162 42.6514 42.7333 42.6514H43.6229V45.0122H42.7333C41.5161 45.0122 40.5264 46.0024 40.5264 47.2191C40.5264 47.2191 40.5404 52.9356 40.5633 53.0625H2.74431V15.5962H74.838V53.0625ZM74.838 13.3519H2.82697V5.27113C2.82697 3.786 4.03538 2.57744 5.52111 2.57744H72.1441C73.6298 2.57744 74.8382 3.78585 74.8382 5.27158L74.838 13.3519Z" fill="#0E556C" stroke="white" stroke-width="4" mask="url(#path-1-inside-1_1445_3496)"/>
</svg>
