<svg width="64" height="65" viewBox="0 0 64 65" fill="none" xmlns="http://www.w3.org/2000/svg">
<rect y="0.5" width="64" height="64" rx="8" fill="#DEF1F2"/>
<path d="M36.2322 28.3322C36.1974 28.3351 36.1625 28.3421 36.1285 28.3534L35.0758 28.7043C34.9662 28.7411 34.8465 28.7332 34.7427 28.6823C34.5014 28.5632 34.2525 28.4601 33.9978 28.3734C33.8885 28.336 33.7984 28.257 33.747 28.1535L33.2509 27.1614C33.2142 27.0879 33.1577 27.0261 33.0877 26.9829C33.0178 26.9396 32.9372 26.9167 32.855 26.9167H31.1458C31.0636 26.9167 30.983 26.9396 30.913 26.9829C30.8431 27.0261 30.7866 27.0879 30.7499 27.1614L30.2538 28.1535C30.2024 28.257 30.1123 28.336 30.003 28.3734C29.7482 28.46 29.4994 28.5632 29.2581 28.6823C29.1543 28.7332 29.0346 28.7411 28.9249 28.7043L27.8722 28.3534C27.7942 28.3274 27.7106 28.3237 27.6306 28.3426C27.5505 28.3615 27.4774 28.4022 27.4192 28.4604L26.2106 29.669C26.1525 29.7271 26.1117 29.8003 26.0928 29.8803C26.0739 29.9603 26.0777 30.044 26.1037 30.122L26.4546 31.1747C26.4914 31.2843 26.4835 31.404 26.4325 31.5079C26.3135 31.7492 26.2103 31.998 26.1237 32.2528C26.0862 32.362 26.0072 32.4521 25.9038 32.5035L24.9117 32.9996C24.8382 33.0364 24.7763 33.0929 24.7331 33.1628C24.6899 33.2327 24.667 33.3133 24.667 33.3955V35.1048C24.667 35.187 24.6899 35.2676 24.7331 35.3375C24.7763 35.4074 24.8382 35.4639 24.9117 35.5007L25.9038 35.9967C26.0072 36.0481 26.0862 36.1382 26.1237 36.2475C26.2102 36.5023 26.3134 36.7511 26.4325 36.9924C26.4835 37.0963 26.4914 37.216 26.4546 37.3256L26.1037 38.3783C26.0777 38.4563 26.0739 38.54 26.0928 38.62C26.1117 38.7 26.1525 38.7731 26.2106 38.8313L27.4192 40.0399C27.4774 40.098 27.5505 40.1388 27.6306 40.1577C27.7106 40.1766 27.7942 40.1728 27.8722 40.1468L28.9249 39.796C29.0346 39.7591 29.1543 39.767 29.2581 39.818C29.4994 39.937 29.7482 40.0402 30.003 40.1268C30.1123 40.1643 30.2024 40.2433 30.2538 40.3468L30.7499 41.3388C30.7866 41.4124 30.8431 41.4742 30.913 41.5174C30.983 41.5606 31.0636 41.5835 31.1458 41.5835H32.855C32.9372 41.5835 33.0178 41.5606 33.0877 41.5174C33.1577 41.4742 33.2142 41.4124 33.2509 41.3388L33.747 40.3468C33.7984 40.2433 33.8885 40.1643 33.9978 40.1268C34.2526 40.0403 34.5014 39.9371 34.7427 39.818C34.8465 39.7671 34.9662 39.7592 35.0758 39.796L36.1285 40.1468C36.2065 40.1728 36.2902 40.1766 36.3702 40.1577C36.4502 40.1388 36.5234 40.098 36.5815 40.0399L37.7901 38.8313C37.8483 38.7731 37.8891 38.7 37.908 38.62C37.9269 38.54 37.9231 38.4563 37.8971 38.3783L37.5462 37.3256C37.5094 37.216 37.5173 37.0962 37.5682 36.9924C37.6873 36.7511 37.7905 36.5023 37.8771 36.2475C37.9145 36.1383 37.9936 36.0481 38.097 35.9967L39.0891 35.5007C39.1626 35.4639 39.2244 35.4074 39.2677 35.3375C39.3109 35.2676 39.3338 35.187 39.3338 35.1048V33.3955C39.3338 33.3133 39.3109 33.2327 39.2677 33.1628C39.2244 33.0929 39.1626 33.0364 39.0891 32.9996L38.097 32.5035C37.9935 32.4521 37.9145 32.362 37.8771 32.2528C37.7905 31.998 37.6874 31.7491 37.5682 31.5079C37.5173 31.404 37.5094 31.2843 37.5462 31.1747L37.8971 30.122C37.9231 30.044 37.9269 29.9603 37.908 29.8803C37.8891 29.8003 37.8483 29.7271 37.7901 29.669" stroke="#0E556C" stroke-miterlimit="10" stroke-linecap="round" stroke-linejoin="round"/>
<path d="M29.2503 32.4167L27.417 34.2501L29.2503 36.0834M34.7503 32.4167L36.5836 34.2501L34.7503 36.0834M32.917 32.4167L31.0837 36.0834" stroke="#0E556C" stroke-miterlimit="10" stroke-linecap="round" stroke-linejoin="round"/>
<path d="M24.3491 44.3333H45.1913C46.0062 44.3333 46.6668 43.6727 46.6668 42.8578V24.1667M46.6668 24.1667H17.3335M46.6668 24.1667V21.9755C46.6668 21.1606 46.0062 20.5 45.1913 20.5H22.2413M17.3335 24.1667V42.8578C17.3335 43.6727 17.9941 44.3334 18.809 44.3334H22.2833M17.3335 24.1667V21.9755C17.3335 21.1606 17.9941 20.5 18.809 20.5H20.1755" stroke="#0E556C" stroke-miterlimit="10" stroke-linecap="round" stroke-linejoin="round"/>
</svg>
