<svg width="80" height="81" viewBox="0 0 80 81" fill="none" xmlns="http://www.w3.org/2000/svg">
<path d="M65.4901 26.8378L62.047 22.6606C61.5754 22.0901 61.286 21.3912 61.2163 20.6544L60.6971 15.2659C60.4274 12.4663 58.1995 10.2384 55.3998 9.96872L50.0114 9.45009C49.2747 9.37988 48.5758 9.09053 48.0051 8.61937L43.828 5.17546C41.6578 3.38683 38.5074 3.38683 36.3372 5.17546L32.1598 8.61922C31.5892 9.09056 30.8904 9.37993 30.1536 9.44994L24.7651 9.96872C21.9657 10.2384 19.7385 12.4663 19.4681 15.2659L18.9495 20.6542C18.8793 21.391 18.5899 22.0898 18.1188 22.6606L14.6748 26.8378C12.8862 29.0081 12.8862 32.1586 14.6748 34.3287L18.1185 38.5058C18.5896 39.0766 18.879 39.7754 18.9492 40.5122L19.468 45.9005C19.7377 48.7002 21.9656 50.9276 24.7651 51.1978L28.0589 51.5149L20.2334 70.2146C20.1291 70.4619 20.0973 70.7337 20.1415 70.9983C20.1858 71.263 20.3044 71.5096 20.4834 71.7095C20.8498 72.122 21.4066 72.2852 21.9358 72.1348L28.7252 70.2179C28.7386 70.2138 28.753 70.2144 28.766 70.2196C28.7791 70.2248 28.7899 70.2343 28.7968 70.2465L32.1968 76.4288C32.3185 76.6528 32.4987 76.8397 32.7181 76.9696C32.9374 77.0995 33.1879 77.1676 33.4428 77.1667C33.4673 77.1667 33.492 77.1662 33.5172 77.165C34.0672 77.1371 34.5427 76.8048 34.7604 76.2923L43.0222 56.5481C43.3061 56.3852 43.5758 56.1988 43.8286 55.9909L48.0055 52.5477C48.5314 52.114 49.1672 51.8342 49.8423 51.7394L57.3254 69.6199L52.0299 68.1249C51.5437 67.9861 51.0248 68.0168 50.5583 68.2119C50.0919 68.407 49.7056 68.7549 49.463 69.1985L46.8116 74.0196L43.2986 65.6246C43.1872 65.3585 42.9747 65.1475 42.7078 65.038C42.4408 64.9286 42.1414 64.9297 41.8752 65.0411C41.7435 65.0962 41.6239 65.1767 41.5233 65.278C41.4228 65.3793 41.3431 65.4995 41.289 65.6316C41.2348 65.7637 41.2073 65.9052 41.2078 66.048C41.2084 66.1908 41.2371 66.3321 41.2923 66.4637L45.4072 76.2978C45.5109 76.5449 45.6825 76.7576 45.9022 76.9111C46.1219 77.0646 46.3806 77.1527 46.6483 77.165C46.6734 77.1662 46.698 77.1673 46.7228 77.1673C46.9777 77.1681 47.2281 77.0998 47.4475 76.9698C47.6668 76.8398 47.8469 76.6529 47.9686 76.4288L51.3681 70.2475C51.375 70.2353 51.3858 70.2258 51.3988 70.2204C51.4118 70.215 51.4262 70.2141 51.4397 70.2179L58.2278 72.1347C58.4855 72.2089 58.759 72.2083 59.0163 72.133C59.2737 72.0577 59.5044 71.9108 59.6814 71.7095C60.0478 71.2967 60.1435 70.7243 59.931 70.2135L52.106 51.5144L55.3997 51.1973C58.1993 50.9276 60.4272 48.7002 60.6969 45.9007L61.2161 40.5116C61.2866 39.7725 61.5742 39.0793 62.0469 38.5058L65.4901 34.3287C67.2793 32.1586 67.2793 29.008 65.4901 26.8378ZM33.354 74.0194L30.702 69.1973C30.4594 68.7538 30.073 68.406 29.6066 68.2111C29.1401 68.0162 28.6212 67.9857 28.1351 68.1248L22.8401 69.6192L30.3226 51.7392C30.9978 51.8339 31.6337 52.1135 32.16 52.547L36.337 55.9907C37.4226 56.8853 38.7524 57.3324 40.0829 57.3324C40.1684 57.3324 40.2535 57.3301 40.3391 57.3262L33.354 74.0194ZM63.8123 32.9456L60.3691 37.1227C59.6213 38.0271 59.1622 39.1351 59.051 40.3033L58.5325 45.6917C58.3623 47.4574 56.9574 48.8624 55.1917 49.0324L50.4584 49.4884C50.44 49.4895 50.4209 49.4913 50.4026 49.494L49.8033 49.5516C48.635 49.6627 47.5268 50.1217 46.6221 50.8693L42.445 54.3123C41.0765 55.4408 39.0892 55.4408 37.7208 54.3123L33.5435 50.8691C32.6389 50.1214 31.5308 49.6625 30.3624 49.5516L29.7603 49.4934C29.7438 49.4914 29.7272 49.4899 29.7106 49.489L24.9741 49.0324C23.2082 48.8624 21.8034 47.4574 21.6333 45.6917L21.1148 40.3039C21.0037 39.1355 20.5444 38.0273 19.7965 37.1227L16.3533 32.9456C15.225 31.5765 15.225 29.5892 16.3533 28.2208L19.7965 24.0437C20.5444 23.1391 21.0036 22.0309 21.1147 20.8625L21.6334 15.4741C21.8036 13.7082 23.2084 12.3035 24.9741 12.1333L30.3626 11.6148C31.5309 11.5036 32.639 11.0446 33.5437 10.2971L37.7209 6.85394C38.4051 6.29005 39.2443 6.00747 40.083 6.00747C40.9218 6.00747 41.7609 6.28962 42.4451 6.85394L46.6222 10.2971C47.5268 11.0449 48.635 11.5039 49.8033 11.6148L55.1918 12.1333C56.9575 12.3035 58.3625 13.7082 58.5325 15.4741L59.0511 20.8623C59.1622 22.0308 59.6213 23.1391 60.3692 24.0437L63.8124 28.2208C64.9402 29.5898 64.9402 31.5766 63.8124 32.9456H63.8123Z" fill="white"/>
<path d="M40.0815 13.5957C39.3553 13.5957 38.6246 13.6415 37.9084 13.7333C37.6224 13.77 37.3627 13.9187 37.1863 14.1468C37.01 14.3749 36.9314 14.6636 36.9678 14.9496C37.044 15.5455 37.5895 15.9663 38.1843 15.8907C38.8086 15.8107 39.447 15.7703 40.0815 15.7703C48.2494 15.7703 54.8944 22.4154 54.8944 30.5834C54.8944 38.7513 48.2488 45.3958 40.0815 45.3958C31.9135 45.3958 25.2685 38.7507 25.2685 30.5829C25.2685 24.7569 28.7037 19.4502 34.0199 17.0628C34.1502 17.0044 34.2677 16.9208 34.3657 16.817C34.4637 16.7131 34.5403 16.5909 34.591 16.4574C34.6418 16.324 34.6658 16.1818 34.6616 16.0391C34.6574 15.8963 34.6251 15.7558 34.5666 15.6255C34.5082 15.4953 34.4246 15.3778 34.3207 15.2798C34.2168 15.1818 34.0947 15.1053 33.9612 15.0545C33.8277 15.0037 33.6856 14.9798 33.5428 14.984C33.4001 14.9882 33.2596 15.0205 33.1293 15.079C27.0325 17.8165 23.0938 23.902 23.0938 30.5829C23.0938 39.9503 30.7145 47.5705 40.0815 47.5705C49.4483 47.5705 57.0691 39.9503 57.0691 30.5829C57.0691 21.2159 49.4483 13.5957 40.0815 13.5957Z" fill="white"/>
<path d="M29.282 29.3236C27.9856 30.6198 27.9856 32.7297 29.282 34.026L34.0314 38.7761C34.3396 39.0857 34.706 39.3311 35.1096 39.4982C35.5132 39.6653 35.946 39.7508 36.3828 39.7496C36.8196 39.7507 37.2524 39.6653 37.656 39.4982C38.0596 39.3311 38.4261 39.0857 38.7343 38.7761L49.1022 28.4078C50.3985 27.1108 50.3985 25.0015 49.1022 23.7046C47.806 22.4084 45.6961 22.4084 44.3991 23.7046L36.3828 31.7215L33.9843 29.3236C32.6881 28.0274 30.5785 28.0274 29.282 29.3236ZM36.3829 34.3472C36.5257 34.3471 36.6671 34.3189 36.799 34.2642C36.9309 34.2095 37.0507 34.1294 37.1516 34.0283L45.9373 25.2427C46.3859 24.794 47.1155 24.7944 47.5642 25.2427C48.0129 25.6913 48.0129 26.4215 47.5642 26.8696L37.1963 37.2379C37.0897 37.3451 36.9629 37.43 36.8233 37.4878C36.6836 37.5456 36.5339 37.5752 36.3828 37.5748C36.2317 37.5753 36.0819 37.5458 35.9423 37.488C35.8026 37.4302 35.6758 37.3452 35.5693 37.2381L30.8194 32.4886C30.3711 32.0399 30.3711 31.3097 30.8194 30.8616C30.9262 30.7546 31.0531 30.6698 31.1928 30.612C31.3325 30.5542 31.4822 30.5246 31.6333 30.5248C31.7843 30.5246 31.9338 30.5542 32.0733 30.6119C32.2128 30.6696 32.3396 30.7542 32.4463 30.861L35.6135 34.0282C35.7145 34.1293 35.8344 34.2095 35.9664 34.2642C36.0984 34.319 36.2399 34.3471 36.3828 34.3472H36.3829Z" fill="white"/>
</svg>
