<svg width="32" height="32" viewBox="0 0 32 32" fill="none" xmlns="http://www.w3.org/2000/svg">
<path d="M27.145 10.9528L25.7051 9.20594C25.5079 8.96739 25.3869 8.67512 25.3577 8.36699L25.1406 6.11361C25.0278 4.94289 24.0962 4.01122 22.9254 3.89844L20.6721 3.68156C20.364 3.6522 20.0717 3.5312 19.8331 3.33417L18.0863 1.89399C17.1787 1.14601 15.8613 1.14601 14.9538 1.89399L13.2069 3.33411C12.9682 3.53121 12.676 3.65222 12.3679 3.6815L10.1145 3.89844C8.94387 4.01122 8.0125 4.94289 7.89942 6.11361L7.68254 8.36692C7.65318 8.67503 7.53218 8.96726 7.33514 9.20594L5.89496 10.9528C5.14699 11.8604 5.14699 13.1778 5.89496 14.0854L7.33502 15.8321C7.53206 16.0708 7.65306 16.3631 7.68242 16.6712L7.89936 18.9245C8.01214 20.0953 8.94381 21.0267 10.1145 21.1397L11.4919 21.2723L8.21944 29.0922C8.17584 29.1956 8.16252 29.3092 8.18103 29.4199C8.19955 29.5306 8.24913 29.6337 8.32401 29.7173C8.47723 29.8898 8.71004 29.9581 8.93135 29.8952L11.7706 29.0936C11.7762 29.0918 11.7822 29.0921 11.7876 29.0943C11.7931 29.0965 11.7976 29.1004 11.8005 29.1055L13.2223 31.6908C13.2732 31.7845 13.3486 31.8627 13.4403 31.917C13.532 31.9713 13.6368 31.9998 13.7434 31.9994C13.7536 31.9994 13.7639 31.9992 13.7745 31.9987C14.0045 31.987 14.2033 31.8481 14.2944 31.6338L17.7493 23.3771C17.868 23.309 17.9808 23.231 18.0865 23.1441L19.8332 21.7042C20.0532 21.5228 20.319 21.4058 20.6013 21.3662L23.7306 28.8435L21.5162 28.2183C21.3129 28.1603 21.0958 28.1731 20.9008 28.2547C20.7057 28.3363 20.5442 28.4818 20.4427 28.6673L19.334 30.6834L17.8649 27.1727C17.8183 27.0614 17.7295 26.9732 17.6178 26.9274C17.5062 26.8817 17.381 26.8821 17.2697 26.9287C17.2146 26.9517 17.1646 26.9854 17.1225 27.0278C17.0805 27.0702 17.0471 27.1204 17.0245 27.1757C17.0019 27.2309 16.9903 27.2901 16.9906 27.3498C16.9908 27.4095 17.0028 27.4686 17.0259 27.5236L18.7467 31.636C18.79 31.7394 18.8618 31.8283 18.9537 31.8925C19.0455 31.9567 19.1537 31.9935 19.2657 31.9987C19.2762 31.9992 19.2865 31.9997 19.2968 31.9997C19.4034 32 19.5082 31.9714 19.5999 31.9171C19.6916 31.8627 19.7669 31.7845 19.8178 31.6908L21.2394 29.106C21.2423 29.1008 21.2468 29.0968 21.2522 29.0946C21.2577 29.0924 21.2637 29.092 21.2694 29.0936L24.108 29.8951C24.2158 29.9261 24.3301 29.9259 24.4378 29.8944C24.5454 29.8629 24.6418 29.8015 24.7159 29.7173C24.8691 29.5447 24.9091 29.3053 24.8202 29.0917L21.548 21.2721L22.9253 21.1395C24.0961 21.0267 25.0278 20.0953 25.1406 18.9245L25.3577 16.6709C25.3872 16.3619 25.5074 16.072 25.7051 15.8321L27.145 14.0854C27.8932 13.1778 27.8932 11.8603 27.145 10.9528ZM13.7063 30.6833L12.5972 28.6667C12.4958 28.4813 12.3342 28.3358 12.1391 28.2543C11.9441 28.1728 11.7271 28.1601 11.5238 28.2182L9.30953 28.8432L12.4386 21.3661C12.7209 21.4057 12.9868 21.5226 13.2069 21.7039L14.9537 23.144C15.4076 23.5181 15.9638 23.7051 16.5201 23.7051C16.5559 23.7051 16.5915 23.7041 16.6273 23.7025L13.7063 30.6833ZM26.4433 13.507L25.0035 15.2537C24.6908 15.632 24.4987 16.0953 24.4522 16.5838L24.2354 18.8372C24.1643 19.5755 23.5768 20.1631 22.8384 20.2341L20.859 20.4249C20.8513 20.4253 20.8433 20.4261 20.8357 20.4272L20.5851 20.4513C20.0965 20.4978 19.6331 20.6897 19.2547 21.0023L17.5079 22.4421C16.9356 22.914 16.1046 22.914 15.5323 22.4421L13.7855 21.0022C13.4072 20.6896 12.9438 20.4976 12.4552 20.4513L12.2034 20.427C12.1965 20.4261 12.1896 20.4255 12.1826 20.4251L10.2019 20.2341C9.46346 20.1631 8.87601 19.5755 8.80485 18.8372L8.58803 16.5841C8.54156 16.0954 8.34952 15.632 8.03676 15.2537L6.59688 13.507C6.12502 12.9344 6.12502 12.1034 6.59688 11.5311L8.03676 9.78435C8.3495 9.40606 8.54152 8.94263 8.58797 8.45401L8.80491 6.20069C8.87607 5.46225 9.46352 4.87479 10.2019 4.80364L12.4553 4.58682C12.9438 4.54032 13.4072 4.34837 13.7856 4.03578L15.5324 2.5959C15.8185 2.36009 16.1695 2.24192 16.5202 2.24192C16.8709 2.24192 17.2219 2.35991 17.508 2.5959L19.2548 4.03578C19.6331 4.34846 20.0965 4.54042 20.5851 4.58682L22.8384 4.80364C23.5768 4.87479 24.1643 5.46225 24.2354 6.20069L24.4523 8.45395C24.4987 8.94259 24.6908 9.40605 25.0035 9.78435L26.4434 11.5311C26.915 12.1036 26.915 12.9345 26.4434 13.507H26.4433Z" fill="#FF7A00"/>
<path d="M16.52 5.41504C16.2163 5.41504 15.9107 5.43421 15.6112 5.4726C15.4917 5.48792 15.383 5.55011 15.3093 5.64549C15.2355 5.74087 15.2027 5.86163 15.2179 5.98123C15.2498 6.2304 15.4779 6.40637 15.7266 6.37474C15.9877 6.34132 16.2546 6.32443 16.52 6.32443C19.9356 6.32443 22.7145 9.10328 22.7145 12.519C22.7145 15.9347 19.9354 18.7133 16.52 18.7133C13.1043 18.7133 10.3255 15.9344 10.3255 12.5188C10.3255 10.0825 11.762 7.86327 13.9851 6.86493C14.0396 6.84049 14.0888 6.80555 14.1297 6.76211C14.1707 6.71867 14.2027 6.66758 14.224 6.61177C14.2452 6.55595 14.2552 6.4965 14.2535 6.43681C14.2517 6.37711 14.2382 6.31835 14.2138 6.26388C14.1893 6.2094 14.1544 6.16027 14.1109 6.11929C14.0675 6.07832 14.0164 6.0463 13.9606 6.02508C13.9048 6.00385 13.8453 5.99383 13.7856 5.99559C13.7259 5.99735 13.6672 6.01085 13.6127 6.03532C11.0631 7.1801 9.41602 9.72494 9.41602 12.5188C9.41602 16.436 12.6029 19.6227 16.52 19.6227C20.437 19.6227 23.6239 16.436 23.6239 12.5188C23.6239 8.60166 20.437 5.41504 16.52 5.41504Z" fill="#FF7A00"/>
<path d="M12.0042 11.9926C11.4621 12.5347 11.4621 13.417 12.0042 13.9591L13.9904 15.9455C14.1192 16.075 14.2725 16.1776 14.4413 16.2475C14.61 16.3174 14.791 16.3531 14.9737 16.3526C15.1564 16.3531 15.3373 16.3174 15.5061 16.2475C15.6749 16.1776 15.8282 16.075 15.957 15.9455L20.2927 11.6097C20.8348 11.0673 20.8348 10.1852 20.2927 9.64287C19.7506 9.10081 18.8683 9.10081 18.326 9.64287L14.9737 12.9954L13.9707 11.9926C13.4286 11.4506 12.5464 11.4506 12.0042 11.9926ZM14.9737 14.0934C15.0335 14.0934 15.0926 14.0816 15.1477 14.0587C15.2029 14.0358 15.253 14.0023 15.2952 13.9601L18.9692 10.2861C19.1568 10.0984 19.4619 10.0986 19.6495 10.2861C19.8372 10.4737 19.8372 10.779 19.6495 10.9664L15.3139 15.3023C15.2693 15.3471 15.2163 15.3826 15.1579 15.4068C15.0995 15.4309 15.0369 15.4433 14.9737 15.4431C14.9105 15.4433 14.8479 15.431 14.7895 15.4068C14.7311 15.3827 14.678 15.3471 14.6335 15.3023L12.6472 13.3162C12.4597 13.1285 12.4597 12.8232 12.6472 12.6358C12.6918 12.5911 12.7449 12.5556 12.8033 12.5314C12.8617 12.5073 12.9243 12.4949 12.9875 12.495C13.0507 12.4949 13.1132 12.5073 13.1715 12.5314C13.2299 12.5555 13.2829 12.5909 13.3275 12.6355L14.652 13.96C14.6942 14.0023 14.7444 14.0358 14.7996 14.0587C14.8548 14.0816 14.9139 14.0934 14.9737 14.0934H14.9737Z" fill="#FF7A00"/>
</svg>
