<svg width="81" height="81" viewBox="0 0 81 81" fill="none" xmlns="http://www.w3.org/2000/svg">
<path d="M65.9901 26.8378L62.547 22.6606C62.0754 22.0901 61.786 21.3912 61.7163 20.6544L61.1971 15.2659C60.9274 12.4663 58.6995 10.2384 55.8998 9.96872L50.5114 9.45009C49.7747 9.37988 49.0758 9.09053 48.5051 8.61937L44.328 5.17546C42.1578 3.38683 39.0074 3.38683 36.8372 5.17546L32.6598 8.61922C32.0892 9.09056 31.3904 9.37993 30.6536 9.44994L25.2651 9.96872C22.4657 10.2384 20.2385 12.4663 19.9681 15.2659L19.4495 20.6542C19.3793 21.391 19.0899 22.0898 18.6188 22.6606L15.1748 26.8378C13.3862 29.0081 13.3862 32.1586 15.1748 34.3287L18.6185 38.5058C19.0896 39.0766 19.379 39.7754 19.4492 40.5122L19.968 45.9005C20.2377 48.7002 22.4656 50.9276 25.2651 51.1978L28.5589 51.5149L20.7334 70.2146C20.6291 70.4619 20.5973 70.7337 20.6415 70.9983C20.6858 71.263 20.8044 71.5096 20.9834 71.7095C21.3498 72.122 21.9066 72.2852 22.4358 72.1348L29.2252 70.2179C29.2386 70.2138 29.253 70.2144 29.266 70.2196C29.2791 70.2248 29.2899 70.2343 29.2968 70.2465L32.6968 76.4288C32.8185 76.6528 32.9987 76.8397 33.2181 76.9696C33.4374 77.0995 33.6879 77.1676 33.9428 77.1667C33.9673 77.1667 33.992 77.1662 34.0172 77.165C34.5672 77.1371 35.0427 76.8048 35.2604 76.2923L43.5222 56.5481C43.8061 56.3852 44.0758 56.1988 44.3286 55.9909L48.5055 52.5477C49.0314 52.114 49.6672 51.8342 50.3423 51.7394L57.8254 69.6199L52.5299 68.1249C52.0437 67.9861 51.5248 68.0168 51.0583 68.2119C50.5919 68.407 50.2056 68.7549 49.963 69.1985L47.3116 74.0196L43.7986 65.6246C43.6872 65.3585 43.4747 65.1475 43.2078 65.038C42.9408 64.9286 42.6414 64.9297 42.3752 65.0411C42.2435 65.0962 42.1239 65.1767 42.0233 65.278C41.9228 65.3793 41.8431 65.4995 41.789 65.6316C41.7348 65.7637 41.7073 65.9052 41.7078 66.048C41.7084 66.1908 41.7371 66.3321 41.7923 66.4637L45.9072 76.2978C46.0109 76.5449 46.1825 76.7576 46.4022 76.9111C46.6219 77.0646 46.8806 77.1527 47.1483 77.165C47.1734 77.1662 47.198 77.1673 47.2228 77.1673C47.4777 77.1681 47.7281 77.0998 47.9475 76.9698C48.1668 76.8398 48.3469 76.6529 48.4686 76.4288L51.8681 70.2475C51.875 70.2353 51.8858 70.2258 51.8988 70.2204C51.9118 70.215 51.9262 70.2141 51.9397 70.2179L58.7278 72.1347C58.9855 72.2089 59.259 72.2083 59.5163 72.133C59.7737 72.0577 60.0044 71.9108 60.1814 71.7095C60.5478 71.2967 60.6435 70.7243 60.431 70.2135L52.606 51.5144L55.8997 51.1973C58.6993 50.9276 60.9272 48.7002 61.1969 45.9007L61.7161 40.5116C61.7866 39.7725 62.0742 39.0793 62.5469 38.5058L65.9901 34.3287C67.7793 32.1586 67.7793 29.008 65.9901 26.8378ZM33.854 74.0194L31.202 69.1973C30.9594 68.7538 30.573 68.406 30.1066 68.2111C29.6401 68.0162 29.1212 67.9857 28.6351 68.1248L23.3401 69.6192L30.8226 51.7392C31.4978 51.8339 32.1337 52.1135 32.66 52.547L36.837 55.9907C37.9226 56.8853 39.2524 57.3324 40.5829 57.3324C40.6684 57.3324 40.7535 57.3301 40.8391 57.3262L33.854 74.0194ZM64.3123 32.9456L60.8691 37.1227C60.1213 38.0271 59.6622 39.1351 59.551 40.3033L59.0325 45.6917C58.8623 47.4574 57.4574 48.8624 55.6917 49.0324L50.9584 49.4884C50.94 49.4895 50.9209 49.4913 50.9026 49.494L50.3033 49.5516C49.135 49.6627 48.0268 50.1217 47.1221 50.8693L42.945 54.3123C41.5765 55.4408 39.5892 55.4408 38.2208 54.3123L34.0435 50.8691C33.1389 50.1214 32.0308 49.6625 30.8624 49.5516L30.2603 49.4934C30.2438 49.4914 30.2272 49.4899 30.2106 49.489L25.4741 49.0324C23.7082 48.8624 22.3034 47.4574 22.1333 45.6917L21.6148 40.3039C21.5037 39.1355 21.0444 38.0273 20.2965 37.1227L16.8533 32.9456C15.725 31.5765 15.725 29.5892 16.8533 28.2208L20.2965 24.0437C21.0444 23.1391 21.5036 22.0309 21.6147 20.8625L22.1334 15.4741C22.3036 13.7082 23.7084 12.3035 25.4741 12.1333L30.8626 11.6148C32.0309 11.5036 33.139 11.0446 34.0437 10.2971L38.2209 6.85394C38.9051 6.29005 39.7443 6.00747 40.583 6.00747C41.4218 6.00747 42.2609 6.28962 42.9451 6.85394L47.1222 10.2971C48.0268 11.0449 49.135 11.5039 50.3033 11.6148L55.6918 12.1333C57.4575 12.3035 58.8625 13.7082 59.0325 15.4741L59.5511 20.8623C59.6622 22.0308 60.1213 23.1391 60.8692 24.0437L64.3124 28.2208C65.4402 29.5898 65.4402 31.5766 64.3124 32.9456H64.3123Z" fill="white"/>
<path d="M40.5815 13.5957C39.8553 13.5957 39.1246 13.6415 38.4084 13.7333C38.1224 13.77 37.8627 13.9187 37.6863 14.1468C37.51 14.3749 37.4314 14.6636 37.4678 14.9496C37.544 15.5455 38.0895 15.9663 38.6843 15.8907C39.3086 15.8107 39.947 15.7703 40.5815 15.7703C48.7494 15.7703 55.3944 22.4154 55.3944 30.5834C55.3944 38.7513 48.7488 45.3958 40.5815 45.3958C32.4135 45.3958 25.7685 38.7507 25.7685 30.5829C25.7685 24.7569 29.2037 19.4502 34.5199 17.0628C34.6502 17.0044 34.7677 16.9208 34.8657 16.817C34.9637 16.7131 35.0403 16.5909 35.091 16.4574C35.1418 16.324 35.1658 16.1818 35.1616 16.0391C35.1574 15.8963 35.1251 15.7558 35.0666 15.6255C35.0082 15.4953 34.9246 15.3778 34.8207 15.2798C34.7168 15.1818 34.5947 15.1053 34.4612 15.0545C34.3277 15.0037 34.1856 14.9798 34.0428 14.984C33.9001 14.9882 33.7596 15.0205 33.6293 15.079C27.5325 17.8165 23.5938 23.902 23.5938 30.5829C23.5938 39.9503 31.2145 47.5705 40.5815 47.5705C49.9483 47.5705 57.5691 39.9503 57.5691 30.5829C57.5691 21.2159 49.9483 13.5957 40.5815 13.5957Z" fill="white"/>
<path d="M29.782 29.3236C28.4856 30.6198 28.4856 32.7297 29.782 34.026L34.5314 38.7761C34.8396 39.0857 35.206 39.3311 35.6096 39.4982C36.0132 39.6653 36.446 39.7508 36.8828 39.7496C37.3196 39.7507 37.7524 39.6653 38.156 39.4982C38.5596 39.3311 38.9261 39.0857 39.2343 38.7761L49.6022 28.4078C50.8985 27.1108 50.8985 25.0015 49.6022 23.7046C48.306 22.4084 46.1961 22.4084 44.8991 23.7046L36.8828 31.7215L34.4843 29.3236C33.1881 28.0274 31.0785 28.0274 29.782 29.3236ZM36.8829 34.3472C37.0257 34.3471 37.1671 34.3189 37.299 34.2642C37.4309 34.2095 37.5507 34.1294 37.6516 34.0283L46.4373 25.2427C46.8859 24.794 47.6155 24.7944 48.0642 25.2427C48.5129 25.6913 48.5129 26.4215 48.0642 26.8696L37.6963 37.2379C37.5897 37.3451 37.4629 37.43 37.3233 37.4878C37.1836 37.5456 37.0339 37.5752 36.8828 37.5748C36.7317 37.5753 36.5819 37.5458 36.4423 37.488C36.3026 37.4302 36.1758 37.3452 36.0693 37.2381L31.3194 32.4886C30.8711 32.0399 30.8711 31.3097 31.3194 30.8616C31.4262 30.7546 31.5531 30.6698 31.6928 30.612C31.8325 30.5542 31.9822 30.5246 32.1333 30.5248C32.2843 30.5246 32.4338 30.5542 32.5733 30.6119C32.7128 30.6696 32.8396 30.7542 32.9463 30.861L36.1135 34.0282C36.2145 34.1293 36.3344 34.2095 36.4664 34.2642C36.5984 34.319 36.7399 34.3471 36.8828 34.3472H36.8829Z" fill="white"/>
</svg>
