<svg width="24" height="24" viewBox="0 0 24 24" fill="none" xmlns="http://www.w3.org/2000/svg">
<path d="M19.647 7.90114L18.6141 6.64797C18.4726 6.47684 18.3858 6.26717 18.3649 6.04611L18.2091 4.42956C18.1282 3.5897 17.4598 2.92133 16.6199 2.84042L15.0034 2.68483C14.7824 2.66377 14.5727 2.57697 14.4015 2.43561L13.1484 1.40244C12.4973 0.865853 11.5522 0.865853 10.9011 1.40244L9.64793 2.43557C9.47675 2.57697 9.2671 2.66378 9.04607 2.68479L7.42952 2.84042C6.5897 2.92133 5.92154 3.5897 5.84042 4.42956L5.68483 6.04607C5.66377 6.2671 5.57697 6.47675 5.43561 6.64797L4.40244 7.90114C3.86585 8.55224 3.86585 9.49737 4.40244 10.1484L5.43553 11.4016C5.57688 11.5728 5.66368 11.7824 5.68475 12.0035L5.84038 13.62C5.92129 14.4599 6.58966 15.1281 7.42952 15.2092L8.41766 15.3043L6.07 20.9142C6.03872 20.9884 6.02917 21.0699 6.04245 21.1493C6.05573 21.2287 6.0913 21.3027 6.14502 21.3626C6.25493 21.4864 6.42195 21.5354 6.58072 21.4903L8.61755 20.9152C8.62157 20.9139 8.6259 20.9141 8.6298 20.9157C8.63371 20.9173 8.63696 20.9201 8.63903 20.9238L9.65901 22.7785C9.69555 22.8457 9.74959 22.9017 9.8154 22.9407C9.88122 22.9797 9.95635 23.0001 10.0328 22.9998C10.0402 22.9998 10.0476 22.9997 10.0551 22.9993C10.2201 22.9909 10.3628 22.8912 10.4281 22.7375L12.9066 16.8142C12.9918 16.7654 13.0727 16.7094 13.1486 16.6471L14.4016 15.6141C14.5594 15.484 14.7501 15.4001 14.9527 15.3716L17.1976 20.7358L15.609 20.2873C15.4631 20.2456 15.3074 20.2548 15.1675 20.3134C15.0275 20.3719 14.9117 20.4763 14.8389 20.6094L14.0435 22.0557L12.9896 19.5372C12.9562 19.4573 12.8924 19.394 12.8123 19.3612C12.7322 19.3284 12.6424 19.3287 12.5626 19.3621C12.523 19.3787 12.4872 19.4028 12.457 19.4332C12.4268 19.4636 12.4029 19.4997 12.3867 19.5393C12.3704 19.5789 12.3622 19.6214 12.3623 19.6642C12.3625 19.707 12.3711 19.7494 12.3877 19.7889L13.6222 22.7391C13.6532 22.8133 13.7047 22.8771 13.7706 22.9231C13.8365 22.9692 13.9142 22.9956 13.9945 22.9993C14.002 22.9997 14.0094 23 14.0168 23C14.0933 23.0002 14.1684 22.9797 14.2342 22.9407C14.3 22.9017 14.354 22.8457 14.3906 22.7785L15.4104 20.9241C15.4125 20.9204 15.4157 20.9175 15.4196 20.9159C15.4235 20.9143 15.4278 20.9141 15.4319 20.9152L17.4683 21.4902C17.5456 21.5125 17.6277 21.5123 17.7049 21.4897C17.7821 21.4671 17.8513 21.423 17.9044 21.3626C18.0143 21.2388 18.043 21.0671 17.9793 20.9138L15.6318 15.3041L16.6199 15.209C17.4598 15.1281 18.1282 14.4599 18.2091 13.62L18.3648 12.0033C18.386 11.7816 18.4722 11.5736 18.614 11.4016L19.647 10.1484C20.1838 9.49737 20.1838 8.5522 19.647 7.90114ZM10.0062 22.0556L9.2106 20.609C9.13779 20.4759 9.0219 20.3716 8.88195 20.3131C8.74201 20.2547 8.58634 20.2455 8.44052 20.2872L6.85202 20.7356L9.09677 15.3716C9.29934 15.4 9.4901 15.4839 9.64797 15.6139L10.9011 16.647C11.2268 16.9154 11.6257 17.0495 12.0248 17.0495C12.0505 17.0495 12.076 17.0488 12.1017 17.0477L10.0062 22.0556ZM19.1437 9.73348L18.1107 10.9866C17.8864 11.2579 17.7486 11.5903 17.7153 11.9408L17.5597 13.5573C17.5087 14.087 17.0872 14.5085 16.5575 14.5595L15.1375 14.6963C15.132 14.6967 15.1263 14.6972 15.1208 14.698L14.941 14.7153C14.5905 14.7486 14.258 14.8863 13.9866 15.1106L12.7335 16.1435C12.3229 16.482 11.7267 16.482 11.3162 16.1435L10.063 15.1105C9.79167 14.8862 9.45922 14.7485 9.10872 14.7153L8.92808 14.6978C8.92313 14.6972 8.91815 14.6968 8.91317 14.6965L7.49221 14.5595C6.96245 14.5085 6.54102 14.087 6.48997 13.5573L6.33443 11.941C6.30109 11.5904 6.16332 11.258 5.93895 10.9866L4.90599 9.73348C4.56748 9.32275 4.56748 8.72656 4.90599 8.31605L5.93895 7.06292C6.1633 6.79154 6.30106 6.45908 6.33438 6.10855L6.49001 4.49204C6.54106 3.96228 6.96249 3.54085 7.49221 3.4898L9.10876 3.33425C9.45925 3.3009 9.79168 3.1632 10.0631 2.93895L11.3163 1.90599C11.5215 1.73682 11.7733 1.65204 12.0249 1.65204C12.2765 1.65204 12.5283 1.73669 12.7335 1.90599L13.9867 2.93895C14.258 3.16326 14.5905 3.30097 14.941 3.33425L16.5575 3.4898C17.0872 3.54085 17.5087 3.96228 17.5597 4.49204L17.7153 6.1085C17.7486 6.45905 17.8864 6.79153 18.1108 7.06292L19.1437 8.31605C19.482 8.72674 19.482 9.32279 19.1437 9.73348H19.1437Z" fill="#797C7F"/>
<path d="M12.0244 3.92773C11.8066 3.92773 11.5873 3.94148 11.3725 3.96903C11.2867 3.98002 11.2088 4.02463 11.1559 4.09306C11.103 4.16148 11.0794 4.24811 11.0903 4.33392C11.1132 4.51266 11.2768 4.63891 11.4553 4.61622C11.6426 4.59224 11.8341 4.58012 12.0244 4.58012C14.4748 4.58012 16.4683 6.57365 16.4683 9.02406C16.4683 11.4744 14.4746 13.4678 12.0244 13.4678C9.57401 13.4678 7.58053 11.4742 7.58053 9.02388C7.58053 7.2761 8.61109 5.68407 10.206 4.96787C10.245 4.95034 10.2803 4.92527 10.3097 4.89411C10.3391 4.86295 10.3621 4.8263 10.3773 4.78626C10.3925 4.74622 10.3997 4.70356 10.3985 4.66074C10.3972 4.61792 10.3875 4.57576 10.37 4.53668C10.3524 4.4976 10.3274 4.46235 10.2962 4.43296C10.265 4.40357 10.2284 4.3806 10.1883 4.36537C10.1483 4.35015 10.1056 4.34296 10.0628 4.34422C10.02 4.34548 9.97785 4.35516 9.93877 4.37272C8.10973 5.19397 6.9281 7.01962 6.9281 9.02388C6.9281 11.8341 9.21432 14.1202 12.0244 14.1202C14.8345 14.1202 17.1207 11.8341 17.1207 9.02388C17.1207 6.21379 14.8345 3.92773 12.0244 3.92773Z" fill="#797C7F"/>
<path d="M8.7846 8.64727C8.39569 9.03613 8.39569 9.6691 8.7846 10.058L10.2094 11.483C10.3019 11.5759 10.4118 11.6495 10.5329 11.6997C10.654 11.7498 10.7838 11.7754 10.9148 11.7751C11.0459 11.7754 11.1757 11.7498 11.2968 11.6997C11.4179 11.6495 11.5278 11.5759 11.6203 11.483L14.7307 8.37253C15.1196 7.98345 15.1196 7.35065 14.7307 6.96157C14.3418 6.57271 13.7088 6.57271 13.3198 6.96157L10.9148 9.36665L10.1953 8.64727C9.80643 8.2584 9.17355 8.2584 8.7846 8.64727ZM10.9149 10.1543C10.9577 10.1543 11.0001 10.1459 11.0397 10.1295C11.0793 10.1131 11.1152 10.089 11.1455 10.0587L13.7812 7.42301C13.9158 7.28839 14.1347 7.28852 14.2693 7.42301C14.4039 7.55759 14.4039 7.77664 14.2693 7.91109L11.1589 11.0216C11.1269 11.0537 11.0889 11.0792 11.047 11.0965C11.0051 11.1139 10.9602 11.1228 10.9148 11.1226C10.8695 11.1228 10.8246 11.1139 10.7827 11.0966C10.7408 11.0792 10.7028 11.0538 10.6708 11.0216L9.24582 9.59679C9.11133 9.46217 9.11133 9.24311 9.24582 9.10866C9.27787 9.07658 9.31594 9.05114 9.35785 9.0338C9.39975 9.01646 9.44467 9.00758 9.49001 9.00764C9.5353 9.00758 9.58016 9.01646 9.62201 9.03376C9.66386 9.05107 9.70189 9.07646 9.7339 9.10849L10.6841 10.0587C10.7144 10.089 10.7503 10.113 10.7899 10.1295C10.8295 10.1459 10.872 10.1543 10.9148 10.1543H10.9149Z" fill="#797C7F"/>
</svg>
