<svg width="64" height="64" viewBox="0 0 64 64" fill="none" xmlns="http://www.w3.org/2000/svg">
<rect width="64" height="64" rx="8" fill="#DEF1F2"/>
<g clip-path="url(#clip0_21_5083)">
<path d="M31.3331 29.8133C33.0827 29.8133 34.5011 28.395 34.5011 26.6453C34.5011 24.8957 33.0827 23.4773 31.3331 23.4773C29.5834 23.4773 28.165 24.8957 28.165 26.6453C28.165 28.395 29.5834 29.8133 31.3331 29.8133Z" stroke="#0E556C" stroke-miterlimit="10" stroke-linecap="round" stroke-linejoin="round"/>
<path d="M35.4389 22.8556C36.9639 22.8556 38.2001 21.6194 38.2001 20.0944C38.2001 18.5695 36.9639 17.3333 35.4389 17.3333C33.914 17.3333 32.6777 18.5695 32.6777 20.0944C32.6777 21.6194 33.914 22.8556 35.4389 22.8556Z" stroke="#0E556C" stroke-miterlimit="10" stroke-linecap="round" stroke-linejoin="round"/>
<path d="M27.2656 22.8556C28.7905 22.8556 30.0267 21.6194 30.0267 20.0944C30.0267 18.5695 28.7905 17.3333 27.2656 17.3333C25.7406 17.3333 24.5044 18.5695 24.5044 20.0944C24.5044 21.6194 25.7406 22.8556 27.2656 22.8556Z" stroke="#0E556C" stroke-miterlimit="10" stroke-linecap="round" stroke-linejoin="round"/>
<path d="M23.1717 28.8522C24.7246 28.8522 25.9835 27.5933 25.9835 26.0403C25.9835 24.4874 24.7246 23.2285 23.1717 23.2285C21.6188 23.2285 20.3599 24.4874 20.3599 26.0403C20.3599 27.5933 21.6188 28.8522 23.1717 28.8522Z" stroke="#0E556C" stroke-miterlimit="10" stroke-linecap="round" stroke-linejoin="round"/>
<path d="M39.4386 28.8522C37.455 28.8788 35.8214 30.3074 35.4134 32.1763C35.827 32.8893 36.0446 33.699 36.0441 34.5234V36.6505C36.0857 36.6567 36.1279 36.6609 36.1711 36.6609H42.8192C43.2925 36.6609 43.6762 36.2772 43.6762 35.804V33.0328C43.6762 30.7144 41.7638 28.821 39.4386 28.8522ZM26.6229 34.5852C26.6224 33.7426 26.8441 32.9148 27.2657 32.1852C26.8674 30.2706 25.1492 28.825 23.1151 28.8522C20.8191 28.883 18.9907 30.7916 18.9907 33.0877V35.804C18.9907 36.2773 19.3744 36.661 19.8477 36.661H26.4957C26.5391 36.661 26.5813 36.6567 26.6229 36.6505V34.5852Z" stroke="#0E556C" stroke-miterlimit="10" stroke-linecap="round" stroke-linejoin="round"/>
<path d="M25.9835 26.0402C25.9835 27.5931 24.7246 28.852 23.1716 28.852C23.1677 28.852 23.1639 28.8518 23.16 28.8517V28.8524C25.1743 28.8469 26.8703 30.2845 27.2656 32.1849L27.2649 32.1861C28.0696 30.7909 29.5532 29.836 31.2695 29.813C31.2903 29.8127 31.3111 29.813 31.3319 29.8129C29.5829 29.8122 28.1653 28.3942 28.1653 26.645C28.1653 25.4111 28.8711 24.3428 29.9006 23.8197C29.1729 23.2077 28.2325 22.8416 27.21 22.8554C26.286 22.8678 25.4394 23.1902 24.7617 23.7212C25.4995 24.2281 25.9835 25.0775 25.9835 26.0402ZM34.5014 26.645C34.5014 28.3942 33.0838 29.8123 31.3348 29.813C33.0722 29.8136 34.5977 30.7671 35.4137 32.1769L35.4132 32.1761C35.8213 30.3072 37.4548 28.8786 39.4384 28.852C39.474 28.8515 39.5093 28.8529 39.5447 28.8533V28.8507C39.5282 28.851 39.5117 28.852 39.4951 28.852C37.9421 28.852 36.6832 27.5931 36.6832 26.0401C36.6832 25.0665 37.1781 24.2087 37.9299 23.704C37.224 23.162 36.3396 22.8425 35.3834 22.8554C34.395 22.8686 33.4951 23.2363 32.7957 23.8349C33.8091 24.3635 34.5014 25.4231 34.5014 26.645ZM34.6061 44.5165C35.0105 44.1224 34.7874 43.4356 34.2284 43.3543L33.0047 43.1765C32.8953 43.1606 32.7915 43.1184 32.7022 43.0535C32.6128 42.9886 32.5405 42.9029 32.4917 42.8038L31.9443 41.6949C31.6944 41.1885 30.9723 41.1885 30.7224 41.6949L30.175 42.8038C30.1261 42.9029 30.0539 42.9886 29.9645 43.0535C29.8751 43.1184 29.7713 43.1606 29.662 43.1765L28.4381 43.3543C27.8793 43.4356 27.6562 44.1224 28.0605 44.5165L28.9461 45.3797C29.0252 45.4568 29.0844 45.552 29.1185 45.6571C29.1526 45.7622 29.1607 45.8739 29.142 45.9828L28.933 47.2017C28.8375 47.7583 29.4218 48.1828 29.9216 47.92L31.0162 47.3445C31.114 47.2931 31.2228 47.2663 31.3333 47.2663C31.4437 47.2663 31.5525 47.2931 31.6503 47.3445L32.7449 47.92C33.2448 48.1828 33.829 47.7583 33.7335 47.2017L33.5245 45.9828C33.5058 45.8739 33.5139 45.7621 33.548 45.6571C33.5821 45.552 33.6413 45.4568 33.7204 45.3797L34.6061 44.5165ZM41.2055 42.8031C41.5038 42.5123 41.3392 42.0056 40.9269 41.9457L40.0241 41.8145C39.9434 41.8028 39.8669 41.7716 39.8009 41.7237C39.735 41.6758 39.6817 41.6126 39.6456 41.5396L39.2419 40.7215C39.0575 40.3479 38.5248 40.3479 38.3404 40.7215L37.9367 41.5396C37.9006 41.6126 37.8473 41.6758 37.7814 41.7237C37.7154 41.7716 37.6388 41.8028 37.5582 41.8145L36.6554 41.9457C36.2432 42.0056 36.0785 42.5123 36.3768 42.8031L37.0301 43.4399C37.0884 43.4968 37.1321 43.567 37.1573 43.6445C37.1824 43.722 37.1884 43.8044 37.1746 43.8848L37.0204 44.7839C36.95 45.1946 37.381 45.5076 37.7497 45.3138L38.5572 44.8892C38.6293 44.8513 38.7096 44.8315 38.7911 44.8315C38.8726 44.8315 38.9528 44.8513 39.025 44.8892L39.8324 45.3138C40.2012 45.5076 40.6322 45.1945 40.5618 44.7839L40.4076 43.8848C40.3938 43.8044 40.3998 43.722 40.4249 43.6445C40.4501 43.567 40.4938 43.4967 40.5521 43.4399L41.2055 42.8031ZM46.5402 40.2933C46.7878 40.0519 46.6512 39.6312 46.3089 39.5814L45.5593 39.4725C45.4923 39.4628 45.4287 39.4369 45.374 39.3972C45.3193 39.3574 45.275 39.3049 45.245 39.2442L44.9098 38.565C44.7567 38.2548 44.3144 38.2548 44.1613 38.565L43.8261 39.2442C43.7962 39.3049 43.7519 39.3574 43.6972 39.3972C43.6424 39.4369 43.5788 39.4628 43.5118 39.4725L42.7623 39.5814C42.4199 39.6312 42.2833 40.0519 42.531 40.2933L43.0734 40.8221C43.1219 40.8693 43.1581 40.9276 43.179 40.992C43.2 41.0563 43.2049 41.1248 43.1934 41.1915L43.0654 41.9381C43.0069 42.279 43.3648 42.539 43.671 42.378L44.3415 42.0255C44.4013 41.9941 44.468 41.9776 44.5357 41.9776C44.6033 41.9776 44.67 41.9941 44.7299 42.0255L45.4004 42.378C45.7065 42.539 46.0644 42.279 46.0059 41.9381L45.8779 41.1915C45.8665 41.1248 45.8714 41.0563 45.8923 40.992C45.9132 40.9276 45.9495 40.8693 45.9979 40.8221L46.5402 40.2933ZM21.4612 42.8031C21.1628 42.5123 21.3275 42.0056 21.7398 41.9457L22.6426 41.8145C22.7232 41.8028 22.7998 41.7716 22.8657 41.7237C22.9316 41.6758 22.9849 41.6126 23.021 41.5396L23.4247 40.7215C23.6091 40.3479 24.1419 40.3479 24.3262 40.7215L24.73 41.5396C24.766 41.6126 24.8193 41.6758 24.8853 41.7237C24.9512 41.7716 25.0278 41.8028 25.1084 41.8145L26.0112 41.9457C26.4235 42.0056 26.5881 42.5123 26.2898 42.8031L25.6366 43.4399C25.5782 43.4968 25.5346 43.567 25.5094 43.6445C25.4842 43.722 25.4782 43.8044 25.492 43.8848L25.6462 44.7839C25.7166 45.1946 25.2857 45.5076 24.9169 45.3138L24.1094 44.8892C24.0373 44.8513 23.957 44.8315 23.8755 44.8315C23.794 44.8315 23.7137 44.8513 23.6416 44.8892L22.8342 45.3138C22.4654 45.5076 22.0344 45.1945 22.1048 44.7839L22.259 43.8848C22.2728 43.8044 22.2668 43.722 22.2416 43.6445C22.2165 43.567 22.1728 43.4967 22.1144 43.4399L21.4612 42.8031ZM16.1265 40.2933C15.8788 40.0519 16.0155 39.6312 16.3577 39.5814L17.1073 39.4725C17.1743 39.4628 17.2379 39.4369 17.2926 39.3972C17.3474 39.3574 17.3916 39.3049 17.4216 39.2442L17.7568 38.565C17.9099 38.2548 18.3523 38.2548 18.5053 38.565L18.8405 39.2442C18.8705 39.3049 18.9147 39.3574 18.9695 39.3972C19.0242 39.4369 19.0878 39.4628 19.1548 39.4725L19.9044 39.5814C20.2467 39.6312 20.3834 40.0519 20.1356 40.2933L19.5932 40.8221C19.5447 40.8693 19.5085 40.9276 19.4876 40.992C19.4667 41.0563 19.4617 41.1248 19.4732 41.1915L19.6012 41.9381C19.6597 42.279 19.3018 42.539 18.9957 42.378L18.3252 42.0255C18.2653 41.9941 18.1986 41.9776 18.131 41.9776C18.0633 41.9776 17.9967 41.9941 17.9368 42.0255L17.2663 42.378C16.9601 42.539 16.6022 42.279 16.6607 41.9381L16.7887 41.1915C16.8002 41.1248 16.7952 41.0563 16.7743 40.992C16.7534 40.9276 16.7172 40.8693 16.6687 40.8221L16.1265 40.2933Z" stroke="#0E556C" stroke-miterlimit="10" stroke-linecap="round" stroke-linejoin="round"/>
<path d="M32.413 38.6111H35.0783C35.6115 38.6111 36.0438 38.1788 36.0438 37.6456V34.5235C36.0438 31.9114 33.8892 29.7782 31.2694 29.8133C28.6826 29.848 26.6226 31.9983 26.6226 34.5852V37.6455C26.6226 38.1788 27.0549 38.6111 27.5881 38.6111H30.2534M42.1152 25.0207C41.7068 23.972 40.688 23.2285 39.4949 23.2285C37.9419 23.2285 36.683 24.4874 36.683 26.0404C36.683 27.5933 37.9419 28.8522 39.4949 28.8522C40.6419 28.8522 41.6278 28.1651 42.0652 27.1803" stroke="#0E556C" stroke-miterlimit="10" stroke-linecap="round" stroke-linejoin="round"/>
</g>
<defs>
<clipPath id="clip0_21_5083">
<rect width="32" height="32" fill="white" transform="translate(16 16)"/>
</clipPath>
</defs>
</svg>
