<svg width="24" height="13" viewBox="0 0 24 13" fill="none" xmlns="http://www.w3.org/2000/svg">
<path d="M23.725 5.83639C23.7248 5.83611 23.7245 5.83578 23.7242 5.8355L18.8256 0.960497C18.4586 0.595294 17.865 0.596653 17.4997 0.963684C17.1345 1.33067 17.1359 1.92425 17.5028 2.2895L20.7918 5.5625H0.9375C0.419719 5.5625 0 5.98222 0 6.5C0 7.01778 0.419719 7.4375 0.9375 7.4375H20.7917L17.5029 10.7105C17.1359 11.0757 17.1345 11.6693 17.4998 12.0363C17.865 12.4034 18.4587 12.4047 18.8256 12.0395L23.7242 7.1645C23.7245 7.16422 23.7248 7.16389 23.7251 7.16361C24.0923 6.79714 24.0911 6.20164 23.725 5.83639Z" fill="#0E556C"/>
</svg>
