<svg width="341" height="331" viewBox="0 0 341 331" fill="none" xmlns="http://www.w3.org/2000/svg">
<path opacity="0.1" d="M254.313 120.54L263.788 124.76L182.558 307.141L173.083 302.921L254.313 120.54Z" fill="#7AC6CB"/>
<path opacity="0.1" d="M232.261 105.506L250.982 113.844L183.44 265.493L164.719 257.155L232.261 105.506Z" fill="#7AC6CB"/>
<path opacity="0.1" d="M159.803 73.2328L175.26 80.1172L100.183 248.683L84.726 241.798L159.803 73.2328Z" fill="#7AC6CB"/>
<path opacity="0.1" d="M140.305 72.9193L149.783 77.1406L70.4751 255.207L60.9971 250.986L140.305 72.9193Z" fill="#7AC6CB"/>
<path d="M118.037 244.156L144.963 256.148L139.069 269.223C138.186 271.207 135.996 272.61 132.717 272.957C126.16 273.646 117.599 269.833 113.696 264.485C111.742 261.812 111.317 259.244 112.202 257.257L112.15 257.233L118.037 244.156Z" fill="white"/>
<path d="M112.538 255.43L119.029 218.83C123.337 194.536 129.817 170.654 138.767 147.661C139.362 146.139 139.951 144.641 140.545 143.169C155.411 106.208 179.625 73.7429 210.408 48.4552L226.325 35.3825L227.647 35.9712L228.577 56.5476C230.376 96.3468 222.438 136.061 204.912 171.837C204.211 173.262 203.498 174.704 202.759 176.162C191.658 198.197 178.24 218.989 163.064 238.442L140.198 267.749L112.538 255.43Z" fill="white"/>
<path d="M189.783 195.525L206.879 231.942L182.437 323.27L148.391 254.457L187.056 196.572L189.783 195.525Z" fill="#7AC6CB"/>
<path d="M187.056 196.572L204.152 232.988L182.437 323.27L145.664 255.503L187.056 196.572Z" fill="url(#paint0_linear_751_16263)"/>
<path d="M133.669 170.534L95.1643 182.186L43.6275 261.447L117.556 240.724L134.719 173.262L133.669 170.534Z" fill="#7AC6CB"/>
<path d="M134.719 173.26L96.2072 184.909L43.6275 261.444L118.598 243.447L134.719 173.26Z" fill="url(#paint1_linear_751_16263)"/>
<path d="M188.483 68.8528C195.35 61.6287 202.671 54.8145 210.412 48.4566L226.329 35.3839L227.651 35.9726L228.581 56.549C229.035 66.5681 228.866 76.5799 228.089 86.5278C214.092 84.5843 199.303 77.99 188.483 68.8528Z" fill="url(#paint2_linear_751_16263)"/>
<path d="M196.357 185.672C196.891 185.616 197.392 185.526 197.899 185.443C197.099 186.921 196.279 188.386 195.458 189.851C184.699 190.683 172.536 188.117 161.391 183.153C150.216 178.176 140.115 170.814 133.497 162.208C134.037 160.618 134.575 159.023 135.14 157.44C135.437 157.897 135.722 158.353 136.06 158.816C148.469 175.81 175.514 187.86 196.357 185.672Z" fill="#0099A3"/>
<path d="M168.109 121.905C165.556 130.878 170.465 140.273 178.762 143.968C187.058 147.663 197.32 145.029 202.287 137.127C208.071 127.927 204.632 115.326 193.689 110.452C182.746 105.579 171.078 111.454 168.109 121.905Z" fill="#0099A3"/>
<path d="M171.125 122.791C169.003 130.27 173.089 138.097 180.004 141.178C186.917 144.256 195.475 142.06 199.611 135.478C204.427 127.81 201.567 117.309 192.445 113.247C183.322 109.184 173.602 114.077 171.125 122.791Z" fill="#7AC6CB"/>
<path d="M192.376 113.216L200.384 134.085C200.155 134.554 199.898 135.019 199.616 135.476C197.834 138.308 195.236 140.323 192.304 141.461L181.192 112.509C184.639 111.436 188.555 111.537 192.376 113.216Z" fill="#DEF1F2"/>
<path d="M175.723 115.569C176.67 114.743 177.72 114.037 178.841 113.469L189.862 142.185C188.619 142.448 187.344 142.561 186.068 142.529L175.723 115.569Z" fill="#DEF1F2"/>
<path d="M114.55 244.1C114.932 245.647 115.72 247.277 116.925 248.928C122.477 256.536 134.585 261.929 143.919 260.951C144.562 260.885 145.165 260.778 145.748 260.655L143.906 263.018C138.97 263.483 133.331 262.313 128.184 260.021C122.952 257.691 118.232 254.212 115.261 250.143C114.719 249.401 114.275 248.659 113.876 247.922L114.55 244.1Z" fill="#0099A3"/>
<path d="M143.508 171.002C142.37 170.496 141.859 169.163 142.366 168.026C142.872 166.888 144.205 166.377 145.342 166.884C146.48 167.39 146.991 168.723 146.484 169.86C145.978 170.998 144.645 171.509 143.508 171.002Z" fill="#0E556C"/>
<path opacity="0.4" d="M154.52 72.567C163.026 72.6045 172.796 74.089 182.897 76.875L182.085 78.0148C172.369 75.3812 163.001 73.9779 154.833 73.9461C140.33 73.8853 130.49 78.0019 127.133 85.5411C123.775 93.0804 127.297 103.148 137.043 113.888C157.494 136.423 198.774 154.809 229.064 154.873C243.496 154.901 253.301 150.766 256.659 143.226C260.018 135.684 256.533 125.637 246.857 114.924C241.527 109.03 234.441 103.144 226.24 97.7865L226.322 96.2746C234.994 101.858 242.488 108.039 248.09 114.238C258.172 125.393 261.766 135.93 258.209 143.917C254.652 151.903 244.416 156.277 229.38 156.245C213.98 156.215 195.785 151.526 178.843 143.98C161.901 136.434 146.206 126.026 135.807 114.573C125.657 103.388 122.027 92.8337 125.584 84.8474C129.141 76.861 139.416 72.5043 154.52 72.567Z" fill="#0E556C"/>
<path d="M221.324 158.615C219.432 157.772 218.581 155.554 219.424 153.661C220.267 151.769 222.484 150.918 224.377 151.761C226.27 152.604 227.121 154.821 226.278 156.714C225.435 158.607 223.217 159.458 221.324 158.615Z" fill="#0E556C"/>
<path d="M157.082 134.984C155.66 134.35 155.021 132.684 155.654 131.262C156.288 129.84 157.954 129.2 159.376 129.834C160.798 130.467 161.438 132.133 160.804 133.556C160.171 134.978 158.504 135.617 157.082 134.984Z" fill="#0E556C"/>
<path d="M126.911 102.995C125.99 102.585 125.576 101.506 125.986 100.585C126.396 99.6635 127.475 99.2494 128.397 99.6596C129.318 100.07 129.732 101.149 129.321 102.07C128.911 102.991 127.832 103.405 126.911 102.995Z" fill="#0E556C"/>
<path d="M83.391 184.876C82.944 184.676 82.743 184.153 82.9421 183.706C83.1412 183.259 83.665 183.058 84.112 183.257C84.5591 183.456 84.7601 183.98 84.561 184.427C84.3619 184.874 83.838 185.075 83.391 184.876Z" fill="#0E556C"/>
<path d="M164.868 84.8306C164.421 84.6315 164.22 84.1077 164.419 83.6607C164.618 83.2136 165.142 83.0126 165.589 83.2117C166.036 83.4108 166.237 83.9347 166.038 84.3817C165.839 84.8287 165.315 85.0297 164.868 84.8306Z" fill="#0E556C"/>
<path d="M108.456 113.702C108.009 113.503 107.808 112.979 108.007 112.532C108.207 112.085 108.73 111.884 109.177 112.083C109.624 112.282 109.825 112.806 109.626 113.253C109.427 113.7 108.903 113.901 108.456 113.702Z" fill="#0E556C"/>
<path d="M161.888 316.06C161.439 315.86 161.237 315.335 161.437 314.886C161.637 314.437 162.163 314.235 162.612 314.435C163.061 314.635 163.263 315.161 163.063 315.61C162.863 316.058 162.337 316.26 161.888 316.06Z" fill="#0E556C"/>
<path d="M117.533 164.313C117.085 164.114 116.885 163.59 117.084 163.143C117.283 162.696 117.806 162.495 118.254 162.694C118.701 162.893 118.902 163.417 118.702 163.864C118.503 164.311 117.98 164.512 117.533 164.313Z" fill="#0E556C"/>
<path d="M108.54 137.602C108.093 137.403 107.892 136.879 108.091 136.432C108.291 135.985 108.814 135.784 109.261 135.983C109.708 136.182 109.909 136.706 109.71 137.153C109.511 137.6 108.987 137.801 108.54 137.602Z" fill="#0E556C"/>
<path d="M82.3677 267.883C81.9207 267.684 81.7196 267.16 81.9187 266.713C82.1178 266.266 82.6417 266.065 83.0887 266.265C83.5357 266.464 83.7367 266.987 83.5376 267.434C83.3385 267.881 82.8147 268.082 82.3677 267.883Z" fill="#0E556C"/>
<path d="M111.819 226.312C111.37 226.112 111.169 225.586 111.369 225.138C111.569 224.689 112.094 224.487 112.543 224.687C112.992 224.887 113.194 225.413 112.994 225.862C112.794 226.31 112.268 226.512 111.819 226.312Z" fill="#0E556C"/>
<path d="M136.922 122.96C136.475 122.76 136.274 122.237 136.473 121.79C136.672 121.343 137.196 121.142 137.643 121.341C138.09 121.54 138.291 122.064 138.091 122.511C137.892 122.958 137.369 123.159 136.922 122.96Z" fill="#0E556C"/>
<path d="M186.551 218.701C186.102 218.501 185.9 217.975 186.1 217.526C186.3 217.077 186.826 216.876 187.275 217.076C187.723 217.275 187.925 217.801 187.725 218.25C187.525 218.699 186.999 218.901 186.551 218.701Z" fill="#0E556C"/>
<path d="M152.02 84.7037C151.573 84.5046 151.372 83.9807 151.571 83.5337C151.77 83.0867 152.294 82.8857 152.741 83.0848C153.188 83.2839 153.389 83.8077 153.19 84.2547C152.991 84.7018 152.467 84.9028 152.02 84.7037Z" fill="#0E556C"/>
<path d="M242.331 168.94C241.884 168.741 241.683 168.217 241.882 167.77C242.082 167.323 242.605 167.122 243.052 167.321C243.499 167.52 243.7 168.044 243.501 168.491C243.302 168.938 242.778 169.139 242.331 168.94Z" fill="#0E556C"/>
<path d="M180.286 286.573C179.839 286.374 179.638 285.85 179.837 285.403C180.036 284.956 180.56 284.755 181.007 284.954C181.454 285.153 181.655 285.677 181.456 286.124C181.257 286.571 180.733 286.772 180.286 286.573Z" fill="#0E556C"/>
<path d="M84.85 248.479C84.403 248.28 84.2021 247.756 84.4012 247.309C84.6003 246.862 85.124 246.661 85.571 246.86C86.018 247.059 86.219 247.583 86.0199 248.03C85.8208 248.477 85.297 248.678 84.85 248.479Z" fill="#0E556C"/>
<path d="M226.535 143.541C226.088 143.342 225.887 142.819 226.086 142.372C226.285 141.925 226.809 141.724 227.256 141.923C227.703 142.122 227.904 142.646 227.705 143.093C227.505 143.54 226.982 143.741 226.535 143.541Z" fill="#0E556C"/>
<path d="M223.671 233.29C223.224 233.09 223.023 232.567 223.223 232.12C223.422 231.673 223.945 231.472 224.392 231.671C224.84 231.87 225.041 232.394 224.841 232.841C224.642 233.288 224.119 233.489 223.671 233.29Z" fill="#0E556C"/>
<path d="M231.001 111.127C230.554 110.928 230.353 110.405 230.552 109.958C230.751 109.511 231.275 109.31 231.722 109.509C232.169 109.708 232.37 110.232 232.171 110.679C231.972 111.126 231.448 111.327 231.001 111.127Z" fill="#0E556C"/>
<path d="M207.944 190.834C207.497 190.635 207.296 190.112 207.495 189.665C207.694 189.218 208.218 189.017 208.665 189.216C209.112 189.415 209.313 189.939 209.114 190.386C208.914 190.833 208.391 191.034 207.944 190.834Z" fill="#0E556C"/>
<path d="M95.1384 223.044C94.8987 222.937 94.7909 222.656 94.8977 222.417C95.0045 222.177 95.2853 222.069 95.5251 222.176C95.7648 222.283 95.8726 222.563 95.7658 222.803C95.659 223.043 95.3781 223.151 95.1384 223.044Z" fill="#0E556C"/>
<path d="M56.3924 252.511C56.1527 252.404 56.045 252.123 56.1517 251.883C56.2585 251.644 56.5394 251.536 56.7791 251.643C57.0188 251.749 57.1266 252.03 57.0198 252.27C56.913 252.51 56.6322 252.618 56.3924 252.511Z" fill="#0E556C"/>
<path d="M116.348 126.71C116.108 126.603 116 126.322 116.107 126.083C116.214 125.843 116.495 125.735 116.734 125.842C116.974 125.949 117.082 126.23 116.975 126.469C116.868 126.709 116.587 126.817 116.348 126.71Z" fill="#0E556C"/>
<path d="M80.807 153.638C80.5673 153.531 80.4595 153.25 80.5663 153.01C80.6731 152.771 80.954 152.663 81.1937 152.77C81.4335 152.876 81.5413 153.157 81.4345 153.397C81.3277 153.637 81.0468 153.745 80.807 153.638Z" fill="#0E556C"/>
<path d="M91.7113 162.847C91.4716 162.74 91.3637 162.459 91.4705 162.219C91.5773 161.979 91.8582 161.872 92.098 161.979C92.3378 162.085 92.4456 162.366 92.3388 162.606C92.232 162.846 91.9511 162.953 91.7113 162.847Z" fill="#0E556C"/>
<path d="M262.446 134.409C262.207 134.302 262.099 134.022 262.206 133.782C262.312 133.542 262.593 133.434 262.833 133.541C263.073 133.648 263.18 133.929 263.074 134.168C262.967 134.408 262.686 134.516 262.446 134.409Z" fill="#0E556C"/>
<path d="M125.512 77.5948C125.272 77.488 125.165 77.2071 125.271 76.9673C125.378 76.7276 125.659 76.6198 125.899 76.7266C126.139 76.8334 126.246 77.1143 126.14 77.354C126.033 77.5937 125.752 77.7015 125.512 77.5948Z" fill="#0E556C"/>
<path d="M242.747 124.663C242.507 124.556 242.4 124.275 242.506 124.036C242.613 123.796 242.894 123.688 243.134 123.795C243.374 123.902 243.482 124.183 243.375 124.422C243.268 124.662 242.987 124.77 242.747 124.663Z" fill="#0E556C"/>
<path d="M98.5544 270.769C98.3146 270.662 98.2067 270.381 98.3135 270.141C98.4203 269.901 98.7013 269.794 98.941 269.9C99.1808 270.007 99.2886 270.288 99.1818 270.528C99.075 270.768 98.7941 270.875 98.5544 270.769Z" fill="#0E556C"/>
<path d="M158.262 259.403C158.022 259.297 157.914 259.016 158.021 258.776C158.128 258.536 158.409 258.428 158.648 258.535C158.888 258.642 158.996 258.923 158.889 259.163C158.782 259.402 158.502 259.51 158.262 259.403Z" fill="#0E556C"/>
<path d="M243.215 214.198C242.975 214.091 242.868 213.811 242.974 213.571C243.081 213.331 243.362 213.223 243.602 213.33C243.841 213.437 243.949 213.718 243.842 213.957C243.736 214.197 243.455 214.305 243.215 214.198Z" fill="#0E556C"/>
<path d="M119.788 207.243C119.548 207.136 119.44 206.855 119.547 206.616C119.654 206.376 119.935 206.268 120.174 206.375C120.414 206.482 120.522 206.763 120.415 207.002C120.308 207.242 120.028 207.35 119.788 207.243Z" fill="#0E556C"/>
<path d="M147.985 108.903C147.745 108.797 147.638 108.516 147.744 108.276C147.851 108.036 148.132 107.928 148.372 108.035C148.611 108.142 148.719 108.423 148.612 108.663C148.506 108.902 148.225 109.01 147.985 108.903Z" fill="#0E556C"/>
<path d="M187.283 248.032C187.043 247.926 186.935 247.645 187.042 247.405C187.149 247.165 187.43 247.057 187.669 247.164C187.909 247.271 188.017 247.552 187.91 247.792C187.803 248.031 187.523 248.139 187.283 248.032Z" fill="#0E556C"/>
<path d="M243.375 133.101C243.135 132.994 243.028 132.713 243.134 132.473C243.241 132.233 243.522 132.126 243.762 132.232C244.001 132.339 244.109 132.62 244.002 132.86C243.896 133.1 243.615 133.207 243.375 133.101Z" fill="#0E556C"/>
<path d="M134.887 134.966C134.647 134.859 134.539 134.578 134.646 134.338C134.753 134.099 135.034 133.991 135.273 134.098C135.513 134.204 135.621 134.485 135.514 134.725C135.407 134.965 135.126 135.073 134.887 134.966Z" fill="#0E556C"/>
<path d="M211.735 174.595C211.496 174.488 211.388 174.207 211.495 173.967C211.601 173.728 211.882 173.62 212.122 173.727C212.362 173.833 212.469 174.114 212.363 174.354C212.256 174.594 211.975 174.702 211.735 174.595Z" fill="#0E556C"/>
<path d="M103.187 200.886C102.948 200.779 102.84 200.498 102.947 200.258C103.054 200.019 103.334 199.911 103.574 200.018C103.814 200.124 103.922 200.405 103.815 200.645C103.708 200.885 103.427 200.993 103.187 200.886Z" fill="#0E556C"/>
<path d="M191.433 269.917C191.193 269.81 191.085 269.529 191.192 269.29C191.299 269.05 191.58 268.942 191.819 269.049C192.059 269.156 192.167 269.437 192.06 269.676C191.953 269.916 191.673 270.024 191.433 269.917Z" fill="#0E556C"/>
<path d="M210.193 255.19C209.954 255.084 209.846 254.803 209.953 254.563C210.059 254.323 210.34 254.216 210.58 254.322C210.82 254.429 210.927 254.71 210.821 254.95C210.714 255.189 210.433 255.297 210.193 255.19Z" fill="#0E556C"/>
<path d="M221.221 161.024C220.981 160.918 220.873 160.637 220.98 160.397C221.087 160.157 221.368 160.05 221.608 160.156C221.847 160.263 221.955 160.544 221.848 160.784C221.742 161.023 221.461 161.131 221.221 161.024Z" fill="#0E556C"/>
<path d="M231.451 197.855C231.211 197.748 231.103 197.467 231.21 197.227C231.317 196.987 231.598 196.88 231.837 196.986C232.077 197.093 232.185 197.374 232.078 197.614C231.971 197.854 231.69 197.961 231.451 197.855Z" fill="#0E556C"/>
<path d="M121.029 149.194C120.79 149.088 120.682 148.807 120.789 148.567C120.895 148.327 121.176 148.219 121.416 148.326C121.656 148.433 121.763 148.714 121.657 148.954C121.55 149.193 121.269 149.301 121.029 149.194Z" fill="#0E556C"/>
<path d="M213.7 213.728C213.46 213.621 213.353 213.34 213.459 213.1C213.566 212.86 213.847 212.753 214.087 212.859C214.326 212.966 214.434 213.247 214.327 213.487C214.221 213.727 213.94 213.834 213.7 213.728Z" fill="#0E556C"/>
<path d="M270.465 157.558C270.226 157.451 270.118 157.17 270.225 156.93C270.331 156.691 270.612 156.583 270.852 156.689C271.092 156.796 271.199 157.077 271.093 157.317C270.986 157.557 270.705 157.664 270.465 157.558Z" fill="#0E556C"/>
<path d="M149.503 292.942C149.263 292.836 149.155 292.555 149.262 292.315C149.369 292.075 149.65 291.967 149.89 292.074C150.129 292.181 150.237 292.462 150.13 292.702C150.024 292.941 149.743 293.049 149.503 292.942Z" fill="#0E556C"/>
<path d="M71.2745 209.899C71.0348 209.793 70.927 209.512 71.0338 209.272C71.1406 209.032 71.4215 208.925 71.6612 209.031C71.9009 209.138 72.0087 209.419 71.9019 209.659C71.7951 209.898 71.5142 210.006 71.2745 209.899Z" fill="#0E556C"/>
<path d="M137.755 283.644C137.516 283.537 137.408 283.256 137.515 283.016C137.622 282.776 137.902 282.669 138.142 282.775C138.382 282.882 138.49 283.163 138.383 283.403C138.276 283.643 137.995 283.75 137.755 283.644Z" fill="#0E556C"/>
<defs>
<linearGradient id="paint0_linear_751_16263" x1="134.59" y1="288.908" x2="198.161" y2="306.575" gradientUnits="userSpaceOnUse">
<stop stop-color="#0E313D"/>
<stop offset="1" stop-color="#23B0B9"/>
</linearGradient>
<linearGradient id="paint1_linear_751_16263" x1="51.6522" y1="251.967" x2="115.223" y2="269.633" gradientUnits="userSpaceOnUse">
<stop stop-color="#0E313D"/>
<stop offset="1" stop-color="#23B0B9"/>
</linearGradient>
<linearGradient id="paint2_linear_751_16263" x1="191.546" y1="68.0325" x2="236.73" y2="75.8009" gradientUnits="userSpaceOnUse">
<stop stop-color="#0E313D"/>
<stop offset="1" stop-color="#23B0B9"/>
</linearGradient>
</defs>
</svg>
