<svg width="342" height="409" viewBox="0 0 342 409" fill="none" xmlns="http://www.w3.org/2000/svg">
<path opacity="0.1" d="M273.62 149.12L285.354 154.346L184.755 380.215L173.021 374.988L273.62 149.12Z" fill="#7AC6CB"/>
<path opacity="0.1" d="M246.31 130.499L269.495 140.825L185.847 328.635L162.662 318.309L246.31 130.499Z" fill="#7AC6CB"/>
<path opacity="0.1" d="M156.574 90.5315L175.717 99.0574L82.7384 307.817L63.5958 299.291L156.574 90.5315Z" fill="#7AC6CB"/>
<path opacity="0.1" d="M132.428 90.1432L144.166 95.3711L45.9468 315.896L34.2089 310.669L132.428 90.1432Z" fill="#7AC6CB"/>
<path d="M104.85 302.21L138.196 317.062L130.897 333.254C129.803 335.711 127.091 337.449 123.03 337.878C114.909 338.732 104.307 334.01 99.4735 327.386C97.0536 324.075 96.5274 320.896 97.6237 318.434L97.5591 318.405L104.85 302.21Z" fill="white"/>
<path d="M98.0388 316.173L106.078 270.847C111.414 240.76 119.438 211.183 130.522 182.708C131.26 180.823 131.989 178.968 132.724 177.144C151.135 131.37 181.122 91.1641 219.246 59.8467L238.958 43.6568L240.595 44.3859L241.748 69.8686C243.975 119.158 234.145 168.342 212.439 212.649C211.571 214.413 210.689 216.199 209.773 218.005C196.025 245.294 179.408 271.044 160.613 295.135L132.294 331.43L98.0388 316.173Z" fill="white"/>
<path d="M193.703 241.983L214.875 287.083L184.606 400.188L142.442 314.967L190.326 243.279L193.703 241.983Z" fill="#7AC6CB"/>
<path d="M190.326 243.279L211.498 288.379L184.606 400.188L139.065 316.263L190.326 243.279Z" fill="url(#paint0_linear_1308_7549)"/>
<path d="M124.209 211.033L76.5229 225.464L12.6974 323.623L104.253 297.959L125.509 214.412L124.209 211.033Z" fill="#7AC6CB"/>
<path d="M125.509 214.41L77.8146 228.837L12.6975 323.622L105.545 301.333L125.509 214.41Z" fill="url(#paint1_linear_1308_7549)"/>
<path d="M192.093 85.1083C200.597 76.1616 209.665 67.7226 219.25 59.8487L238.963 43.6588L240.6 44.3879L241.752 69.8706C242.314 82.2788 242.105 94.6779 241.142 106.998C223.808 104.591 205.494 96.4241 192.093 85.1083Z" fill="url(#paint2_linear_1308_7549)"/>
<path d="M201.845 229.78C202.506 229.711 203.127 229.6 203.754 229.497C202.764 231.328 201.748 233.142 200.731 234.956C187.407 235.987 172.344 232.81 158.541 226.662C144.701 220.498 132.191 211.38 123.996 200.721C124.665 198.752 125.331 196.777 126.03 194.817C126.398 195.383 126.752 195.947 127.17 196.521C142.538 217.568 176.032 232.49 201.845 229.78Z" fill="#F0F3BD"/>
<path d="M166.861 150.808C163.699 161.921 169.779 173.556 180.054 178.132C190.328 182.708 203.038 179.447 209.189 169.66C216.351 158.266 212.093 142.661 198.54 136.625C184.988 130.589 170.538 137.866 166.861 150.808Z" fill="#0099A3"/>
<path d="M170.597 151.906C167.968 161.168 173.028 170.862 181.593 174.677C190.154 178.49 200.752 175.77 205.875 167.618C211.839 158.121 208.297 145.117 196.999 140.086C185.702 135.054 173.664 141.114 170.597 151.906Z" fill="#7AC6CB"/>
<path d="M196.914 140.048L206.832 165.894C206.549 166.475 206.23 167.049 205.881 167.616C203.674 171.123 200.456 173.618 196.825 175.028L183.063 139.173C187.332 137.843 192.183 137.969 196.914 140.048Z" fill="#DEF1F2"/>
<path d="M176.291 142.961C177.463 141.938 178.763 141.064 180.152 140.36L193.802 175.923C192.261 176.249 190.683 176.389 189.102 176.349L176.291 142.961Z" fill="#DEF1F2"/>
<path d="M100.531 302.141C101.005 304.057 101.98 306.075 103.472 308.12C110.348 317.543 125.344 324.221 136.903 323.01C137.7 322.929 138.446 322.796 139.168 322.643L136.887 325.57C130.774 326.146 123.79 324.697 117.416 321.858C110.937 318.972 105.091 314.664 101.412 309.624C100.741 308.706 100.191 307.787 99.6963 306.875L100.531 302.141Z" fill="#0099A3"/>
<path d="M136.394 211.614C134.985 210.986 134.352 209.336 134.979 207.927C135.607 206.519 137.257 205.885 138.666 206.513C140.074 207.14 140.707 208.79 140.08 210.199C139.452 211.608 137.802 212.241 136.394 211.614Z" fill="#0E556C"/>
<path opacity="0.4" d="M150.032 89.7057C160.566 89.7522 172.665 91.5907 185.175 95.0409L184.169 96.4526C172.137 93.191 160.535 91.4531 150.419 91.4137C132.458 91.3385 120.272 96.4366 116.114 105.774C111.955 115.11 116.317 127.579 128.388 140.879C153.715 168.788 204.838 191.557 242.351 191.637C260.223 191.672 272.366 186.55 276.525 177.213C280.685 167.873 276.37 155.43 264.386 142.163C257.785 134.864 249.009 127.574 238.853 120.939L238.955 119.066C249.695 125.981 258.976 133.636 265.913 141.313C278.399 155.127 282.85 168.178 278.445 178.069C274.04 187.959 261.363 193.376 242.742 193.337C223.669 193.299 201.136 187.492 180.154 178.147C159.173 168.802 139.736 155.911 126.857 141.728C114.286 127.875 109.791 114.805 114.196 104.914C118.601 95.0237 131.326 89.6281 150.032 89.7057Z" fill="#0E556C"/>
<path d="M232.765 196.271C230.421 195.227 229.368 192.48 230.411 190.136C231.455 187.792 234.202 186.739 236.546 187.783C238.89 188.827 239.944 191.573 238.9 193.917C237.856 196.261 235.109 197.315 232.765 196.271Z" fill="#0E556C"/>
<path d="M153.205 167.007C151.444 166.222 150.652 164.158 151.436 162.397C152.221 160.636 154.285 159.844 156.046 160.628C157.807 161.413 158.599 163.477 157.815 165.238C157.03 166.999 154.966 167.791 153.205 167.007Z" fill="#0E556C"/>
<path d="M115.839 127.391C114.699 126.883 114.186 125.546 114.694 124.405C115.202 123.265 116.539 122.752 117.679 123.26C118.82 123.768 119.333 125.104 118.825 126.245C118.317 127.386 116.98 127.899 115.839 127.391Z" fill="#0E556C"/>
<path d="M61.9425 228.795C61.3889 228.548 61.14 227.899 61.3866 227.346C61.6332 226.792 62.2818 226.543 62.8355 226.79C63.3891 227.036 63.6381 227.685 63.3915 228.239C63.1449 228.792 62.4961 229.041 61.9425 228.795Z" fill="#0E556C"/>
<path d="M162.847 104.893C162.293 104.647 162.044 103.998 162.291 103.444C162.537 102.891 163.186 102.642 163.74 102.888C164.293 103.135 164.542 103.784 164.296 104.337C164.049 104.891 163.4 105.14 162.847 104.893Z" fill="#0E556C"/>
<path d="M92.9846 140.649C92.431 140.403 92.182 139.754 92.4286 139.2C92.6751 138.647 93.3239 138.398 93.8775 138.644C94.4311 138.891 94.68 139.54 94.4334 140.093C94.1868 140.647 93.5382 140.896 92.9846 140.649Z" fill="#0E556C"/>
<path d="M159.157 391.26C158.601 391.012 158.351 390.361 158.598 389.805C158.846 389.249 159.497 389 160.053 389.247C160.609 389.495 160.859 390.146 160.611 390.702C160.364 391.258 159.712 391.508 159.157 391.26Z" fill="#0E556C"/>
<path d="M104.225 203.33C103.671 203.083 103.422 202.435 103.669 201.881C103.915 201.327 104.564 201.078 105.118 201.325C105.671 201.572 105.92 202.22 105.674 202.774C105.427 203.327 104.778 203.576 104.225 203.33Z" fill="#0E556C"/>
<path d="M93.0885 170.248C92.5349 170.001 92.286 169.353 92.5326 168.799C92.7791 168.245 93.4278 167.996 93.9814 168.243C94.535 168.49 94.784 169.138 94.5374 169.692C94.2909 170.245 93.6421 170.494 93.0885 170.248Z" fill="#0E556C"/>
<path d="M60.675 331.595C60.1214 331.349 59.8724 330.7 60.119 330.147C60.3656 329.593 61.0143 329.344 61.5679 329.591C62.1216 329.837 62.3704 330.486 62.1239 331.04C61.8773 331.593 61.2287 331.842 60.675 331.595Z" fill="#0E556C"/>
<path d="M97.1493 280.112C96.5935 279.864 96.3436 279.213 96.5912 278.657C96.8387 278.101 97.49 277.851 98.0458 278.099C98.6017 278.346 98.8516 278.997 98.604 279.553C98.3564 280.109 97.7052 280.359 97.1493 280.112Z" fill="#0E556C"/>
<path d="M128.237 152.114C127.684 151.868 127.435 151.219 127.681 150.665C127.928 150.112 128.576 149.863 129.13 150.109C129.684 150.356 129.932 151.004 129.686 151.558C129.439 152.112 128.791 152.361 128.237 152.114Z" fill="#0E556C"/>
<path d="M189.7 270.686C189.144 270.438 188.894 269.787 189.142 269.231C189.389 268.675 190.041 268.425 190.597 268.673C191.152 268.92 191.402 269.572 191.155 270.127C190.907 270.683 190.256 270.933 189.7 270.686Z" fill="#0E556C"/>
<path d="M146.936 104.737C146.382 104.491 146.133 103.842 146.38 103.288C146.626 102.735 147.275 102.486 147.829 102.732C148.382 102.979 148.631 103.628 148.385 104.181C148.138 104.735 147.489 104.984 146.936 104.737Z" fill="#0E556C"/>
<path d="M258.781 209.059C258.228 208.813 257.979 208.164 258.225 207.61C258.472 207.057 259.121 206.808 259.674 207.054C260.228 207.301 260.477 207.95 260.23 208.503C259.984 209.057 259.335 209.306 258.781 209.059Z" fill="#0E556C"/>
<path d="M181.942 354.742C181.388 354.495 181.139 353.847 181.386 353.293C181.632 352.739 182.281 352.491 182.835 352.737C183.388 352.984 183.637 353.632 183.39 354.186C183.144 354.74 182.495 354.988 181.942 354.742Z" fill="#0E556C"/>
<path d="M63.7493 307.565C63.1957 307.319 62.9469 306.67 63.1935 306.116C63.4401 305.563 64.0886 305.314 64.6422 305.56C65.1957 305.807 65.4446 306.456 65.1981 307.009C64.9515 307.563 64.3028 307.812 63.7493 307.565Z" fill="#0E556C"/>
<path d="M239.218 177.604C238.664 177.358 238.415 176.709 238.662 176.155C238.909 175.602 239.557 175.353 240.111 175.599C240.664 175.846 240.913 176.495 240.667 177.048C240.42 177.602 239.771 177.851 239.218 177.604Z" fill="#0E556C"/>
<path d="M235.672 288.754C235.118 288.507 234.869 287.858 235.116 287.305C235.363 286.751 236.011 286.502 236.565 286.749C237.119 286.995 237.367 287.644 237.121 288.198C236.874 288.751 236.226 289 235.672 288.754Z" fill="#0E556C"/>
<path d="M244.749 137.462C244.196 137.215 243.947 136.566 244.193 136.013C244.44 135.459 245.089 135.21 245.642 135.457C246.196 135.703 246.445 136.352 246.198 136.906C245.952 137.459 245.303 137.708 244.749 137.462Z" fill="#0E556C"/>
<path d="M216.194 236.175C215.64 235.928 215.391 235.279 215.638 234.726C215.885 234.172 216.533 233.923 217.087 234.17C217.641 234.416 217.889 235.065 217.643 235.619C217.396 236.172 216.748 236.421 216.194 236.175Z" fill="#0E556C"/>
<path d="M76.491 276.063C76.1941 275.931 76.0607 275.583 76.1929 275.286C76.3251 274.989 76.673 274.856 76.9698 274.988C77.2667 275.12 77.4002 275.468 77.268 275.765C77.1357 276.062 76.7879 276.195 76.491 276.063Z" fill="#0E556C"/>
<path d="M28.5061 312.556C28.2092 312.424 28.0757 312.076 28.208 311.779C28.3402 311.483 28.688 311.349 28.9849 311.481C29.2818 311.614 29.4153 311.961 29.283 312.258C29.1508 312.555 28.803 312.689 28.5061 312.556Z" fill="#0E556C"/>
<path d="M102.758 156.759C102.461 156.626 102.327 156.279 102.459 155.982C102.592 155.685 102.94 155.551 103.236 155.683C103.533 155.816 103.667 156.164 103.534 156.46C103.402 156.757 103.054 156.891 102.758 156.759Z" fill="#0E556C"/>
<path d="M58.7423 190.107C58.4454 189.975 58.3119 189.627 58.4441 189.33C58.5764 189.033 58.9243 188.9 59.2212 189.032C59.5181 189.164 59.6516 189.512 59.5194 189.809C59.3871 190.106 59.0392 190.239 58.7423 190.107Z" fill="#0E556C"/>
<path d="M72.2467 201.512C71.9498 201.38 71.8162 201.032 71.9484 200.735C72.0807 200.438 72.4286 200.305 72.7256 200.437C73.0225 200.57 73.156 200.917 73.0238 201.214C72.8915 201.511 72.5436 201.645 72.2467 201.512Z" fill="#0E556C"/>
<path d="M283.693 166.296C283.396 166.163 283.262 165.816 283.394 165.519C283.527 165.222 283.875 165.088 284.171 165.221C284.468 165.353 284.602 165.701 284.47 165.998C284.337 166.294 283.989 166.428 283.693 166.296Z" fill="#0E556C"/>
<path d="M114.107 95.9324C113.81 95.8002 113.677 95.4523 113.809 95.1554C113.941 94.8585 114.289 94.725 114.586 94.8572C114.883 94.9895 115.016 95.3374 114.884 95.6343C114.752 95.9312 114.404 96.0647 114.107 95.9324Z" fill="#0E556C"/>
<path d="M259.296 154.224C258.999 154.092 258.866 153.744 258.998 153.447C259.13 153.15 259.478 153.017 259.775 153.149C260.072 153.281 260.206 153.629 260.074 153.926C259.941 154.223 259.593 154.357 259.296 154.224Z" fill="#0E556C"/>
<path d="M80.7213 335.169C80.4244 335.036 80.2908 334.689 80.423 334.392C80.5552 334.095 80.9033 333.961 81.2002 334.094C81.4971 334.226 81.6306 334.574 81.4984 334.871C81.3661 335.167 81.0183 335.301 80.7213 335.169Z" fill="#0E556C"/>
<path d="M154.666 321.093C154.369 320.96 154.235 320.613 154.368 320.316C154.5 320.019 154.848 319.885 155.145 320.017C155.441 320.15 155.575 320.498 155.443 320.794C155.31 321.091 154.963 321.225 154.666 321.093Z" fill="#0E556C"/>
<path d="M259.876 265.109C259.579 264.977 259.445 264.629 259.578 264.332C259.71 264.035 260.058 263.902 260.355 264.034C260.651 264.166 260.785 264.514 260.653 264.811C260.52 265.108 260.173 265.241 259.876 265.109Z" fill="#0E556C"/>
<path d="M107.018 256.496C106.721 256.364 106.587 256.016 106.72 255.719C106.852 255.422 107.2 255.288 107.497 255.421C107.793 255.553 107.927 255.901 107.795 256.198C107.663 256.495 107.315 256.628 107.018 256.496Z" fill="#0E556C"/>
<path d="M141.939 134.708C141.642 134.576 141.508 134.228 141.641 133.931C141.773 133.634 142.121 133.5 142.418 133.633C142.714 133.765 142.848 134.113 142.716 134.41C142.583 134.707 142.236 134.84 141.939 134.708Z" fill="#0E556C"/>
<path d="M190.607 307.01C190.31 306.877 190.176 306.53 190.309 306.233C190.441 305.936 190.789 305.802 191.086 305.934C191.382 306.067 191.516 306.415 191.384 306.711C191.251 307.008 190.904 307.142 190.607 307.01Z" fill="#0E556C"/>
<path d="M260.074 164.675C259.777 164.542 259.644 164.195 259.776 163.898C259.908 163.601 260.256 163.467 260.553 163.599C260.85 163.732 260.983 164.08 260.851 164.376C260.719 164.673 260.371 164.807 260.074 164.675Z" fill="#0E556C"/>
<path d="M125.717 166.984C125.42 166.852 125.287 166.504 125.419 166.207C125.551 165.91 125.899 165.777 126.196 165.909C126.493 166.041 126.626 166.389 126.494 166.686C126.362 166.983 126.014 167.116 125.717 166.984Z" fill="#0E556C"/>
<path d="M220.89 216.062C220.593 215.93 220.46 215.582 220.592 215.285C220.724 214.988 221.072 214.855 221.369 214.987C221.666 215.119 221.799 215.467 221.667 215.764C221.535 216.061 221.187 216.195 220.89 216.062Z" fill="#0E556C"/>
<path d="M86.4593 248.623C86.1624 248.491 86.0289 248.143 86.1612 247.846C86.2934 247.549 86.6412 247.415 86.9381 247.548C87.235 247.68 87.3685 248.028 87.2362 248.325C87.104 248.622 86.7561 248.755 86.4593 248.623Z" fill="#0E556C"/>
<path d="M195.746 334.114C195.449 333.982 195.316 333.634 195.448 333.337C195.58 333.04 195.928 332.907 196.225 333.039C196.522 333.171 196.655 333.519 196.523 333.816C196.391 334.113 196.043 334.246 195.746 334.114Z" fill="#0E556C"/>
<path d="M218.98 315.876C218.683 315.744 218.55 315.396 218.682 315.099C218.814 314.802 219.162 314.668 219.459 314.801C219.756 314.933 219.889 315.281 219.757 315.578C219.625 315.875 219.277 316.008 218.98 315.876Z" fill="#0E556C"/>
<path d="M232.637 199.256C232.341 199.123 232.207 198.776 232.339 198.479C232.471 198.182 232.819 198.048 233.116 198.181C233.413 198.313 233.547 198.661 233.414 198.958C233.282 199.254 232.934 199.388 232.637 199.256Z" fill="#0E556C"/>
<path d="M245.306 244.868C245.009 244.736 244.876 244.388 245.008 244.091C245.14 243.794 245.488 243.661 245.785 243.793C246.082 243.925 246.216 244.273 246.083 244.57C245.951 244.867 245.603 245 245.306 244.868Z" fill="#0E556C"/>
<path d="M108.555 184.605C108.259 184.473 108.125 184.125 108.257 183.828C108.39 183.531 108.737 183.398 109.034 183.53C109.331 183.662 109.465 184.01 109.332 184.307C109.2 184.604 108.852 184.737 108.555 184.605Z" fill="#0E556C"/>
<path d="M223.323 264.527C223.026 264.395 222.893 264.047 223.025 263.75C223.157 263.453 223.505 263.32 223.802 263.452C224.099 263.584 224.232 263.932 224.1 264.229C223.968 264.526 223.62 264.659 223.323 264.527Z" fill="#0E556C"/>
<path d="M293.624 194.962C293.327 194.83 293.193 194.482 293.326 194.185C293.458 193.888 293.806 193.754 294.103 193.887C294.399 194.019 294.533 194.367 294.401 194.664C294.268 194.96 293.921 195.094 293.624 194.962Z" fill="#0E556C"/>
<path d="M143.818 362.63C143.521 362.497 143.388 362.15 143.52 361.853C143.652 361.556 144 361.422 144.297 361.554C144.594 361.687 144.728 362.035 144.596 362.332C144.463 362.628 144.115 362.762 143.818 362.63Z" fill="#0E556C"/>
<path d="M46.9368 259.786C46.6399 259.654 46.5064 259.306 46.6387 259.009C46.7709 258.712 47.1188 258.579 47.4157 258.711C47.7125 258.843 47.846 259.191 47.7137 259.488C47.5815 259.785 47.2337 259.918 46.9368 259.786Z" fill="#0E556C"/>
<path d="M129.27 351.113C128.973 350.981 128.839 350.633 128.972 350.336C129.104 350.039 129.452 349.906 129.749 350.038C130.045 350.17 130.179 350.518 130.047 350.815C129.914 351.112 129.567 351.245 129.27 351.113Z" fill="#0E556C"/>
<defs>
<linearGradient id="paint0_linear_1308_7549" x1="125.35" y1="357.633" x2="204.078" y2="379.512" gradientUnits="userSpaceOnUse">
<stop stop-color="#0E313D"/>
<stop offset="1" stop-color="#23B0B9"/>
</linearGradient>
<linearGradient id="paint1_linear_1308_7549" x1="22.6356" y1="311.885" x2="101.364" y2="333.764" gradientUnits="userSpaceOnUse">
<stop stop-color="#0E313D"/>
<stop offset="1" stop-color="#23B0B9"/>
</linearGradient>
<linearGradient id="paint2_linear_1308_7549" x1="195.886" y1="84.0923" x2="251.844" y2="93.7131" gradientUnits="userSpaceOnUse">
<stop stop-color="#0E313D"/>
<stop offset="1" stop-color="#23B0B9"/>
</linearGradient>
</defs>
</svg>
