<svg width="63" height="116" viewBox="0 0 63 116" fill="none" xmlns="http://www.w3.org/2000/svg">
<path fill-rule="evenodd" clip-rule="evenodd" d="M61.3639 70.1923C60.8639 69.7923 60.4639 69.4923 59.8639 69.2923C56.5639 67.8923 53.0639 66.6923 49.3639 66.5923C48.9639 66.5923 48.5639 66.3923 48.0639 66.2923C48.0639 65.2923 48.1639 64.3923 48.1639 63.4923C48.2639 61.4923 48.4639 59.3923 48.3639 57.3923C48.0639 53.2923 48.3639 49.1923 48.4639 44.9923C48.6639 38.9923 49.6639 33.0923 48.7639 27.0923C48.2639 23.7923 47.6639 20.4923 46.5639 17.2923C45.9639 15.2923 45.0639 13.3923 44.2639 11.3923C43.2639 9.09228 42.4639 6.6923 40.7639 4.6923C40.4639 4.3923 40.3639 3.9923 40.1639 3.5923C38.6639 0.592297 35.8639 -0.607691 32.6639 0.292309C32.3639 0.392309 31.9639 0.392291 31.6639 0.492291C29.7639 1.09229 27.9639 1.99229 26.7639 3.49229C25.1639 5.49229 23.8639 7.59231 22.5639 9.79231C21.1639 12.0923 19.8639 14.4923 18.7639 16.8923C17.1639 20.0923 16.1639 23.4923 15.8639 26.9923C15.4639 31.9923 15.2639 36.8923 14.9639 41.8923C14.8639 42.8923 14.9639 43.8923 14.9639 44.8923C15.1639 50.0923 15.4639 55.2923 15.6639 60.5923C15.6639 61.5923 15.6639 62.5923 15.6639 63.5923C15.6639 64.6923 15.6639 65.6923 15.6639 66.8923C15.1639 66.8923 14.8639 66.9923 14.4639 66.9923C11.6639 66.6923 9.06393 67.2923 6.66393 68.5923C6.06393 68.8923 5.36392 69.0923 4.76392 69.2923C2.96392 70.0923 1.56392 71.2923 0.763918 73.2923C-0.436082 76.2923 -0.136079 79.1923 1.06392 82.0923C2.06392 84.3923 3.06393 86.6923 4.16393 88.9923C4.96393 90.6923 5.86392 92.4923 6.86392 94.0923C7.86392 95.8923 9.46393 96.5923 11.4639 96.6923C12.7639 96.7923 13.5639 96.0923 13.9639 94.9923C14.1639 94.4923 14.3639 93.8923 14.4639 93.2923C14.6639 91.4923 14.7639 89.5923 14.3639 87.7923C13.8639 85.6923 13.5639 83.6923 13.8639 81.4923C14.0639 79.8923 14.5639 79.0923 16.1639 77.8923C16.5639 79.3923 17.4639 80.3923 18.8639 80.6923C19.1639 81.7923 18.6639 82.4923 18.2639 83.1923C17.4639 84.4923 16.6639 85.6923 15.8639 87.0923C15.3639 87.9923 15.5639 88.8923 16.3639 89.5923C16.8639 89.8923 17.3639 90.1923 17.9639 90.3923C18.8639 90.7923 19.7639 91.2923 20.9639 91.7923C18.9639 93.5923 17.9639 95.3923 17.7639 97.8923C17.3639 101.592 20.4639 106.892 23.8639 108.092C25.4639 108.692 26.6639 109.792 27.8639 111.092C28.9639 112.292 29.8639 113.792 30.8639 115.092C31.4639 115.792 32.0639 115.992 32.8639 115.592C33.2639 115.392 33.5639 115.192 33.8639 114.792C35.2639 113.192 36.6639 111.492 38.0639 109.792C38.9639 108.792 39.6639 107.692 40.6639 106.692C41.8639 105.492 43.0639 104.392 44.3639 103.192C45.5639 101.992 46.6639 100.792 46.9639 98.9923C47.4639 96.3923 46.4639 94.3923 44.5639 92.6923C43.9639 92.1923 43.3639 91.6923 42.4639 90.9923C43.3639 90.4923 44.0639 89.9923 44.7639 89.5923C45.4639 89.1923 46.2639 88.7923 46.9639 88.3923C47.6639 87.8923 47.8639 87.1923 47.5639 86.3923C46.9639 84.9923 46.2639 83.6923 45.5639 82.2923C45.1639 81.5923 44.8639 80.7923 44.4639 79.9923C44.7639 79.5923 45.0639 79.2923 45.3639 78.9923C45.6639 78.6923 45.9639 78.4923 46.3639 78.2923C48.7639 79.4923 49.6639 81.2923 49.2639 83.8923C48.8639 86.4923 48.6639 89.0923 48.3639 91.6923C48.2639 92.6923 48.3639 93.6923 48.5639 94.6923C49.0639 96.6923 49.9639 97.3923 52.0639 97.1923C52.6639 97.1923 53.2639 96.9923 53.6639 96.5923C54.4639 95.8923 55.3639 95.0923 55.8639 94.1923C57.4639 91.5923 58.9639 88.9923 60.2639 86.2923C61.7639 83.3923 62.7639 80.3923 62.6639 77.0923C62.6639 76.1923 62.5639 75.1923 62.7639 74.2923C63.3639 72.4923 62.6639 71.1923 61.3639 70.1923ZM12.4639 78.7923C12.2639 79.1923 11.8639 79.6923 11.8639 80.1923C11.6639 82.6923 11.1639 85.1923 11.7639 87.6923C12.1639 89.2923 12.6639 90.9923 12.2639 92.6923C12.1639 93.1923 11.8639 93.6923 11.6639 94.1923C10.2639 94.1923 9.36392 93.5923 8.86392 92.5923C8.16392 91.2923 7.46392 90.0923 6.86392 88.7923C5.66392 86.2923 4.56393 83.6923 3.46393 81.1923C2.46393 78.8923 2.16392 76.4923 3.06392 74.0923C3.56392 72.6923 4.46392 71.7923 5.76392 71.2923C6.66392 70.8923 7.66392 70.5923 8.56392 70.0923C10.8639 68.9923 13.2639 68.8923 15.7639 69.2923C16.0639 71.0923 16.3639 72.7923 16.7639 74.5923C14.8639 75.5923 13.4639 76.9923 12.4639 78.7923ZM24.0639 12.1923C24.2639 11.9923 24.3639 11.7923 24.4639 11.4923C25.0639 8.79229 27.2639 7.09228 28.5639 4.89228C29.3639 3.59228 30.9639 3.09229 32.3639 2.49229C32.7639 2.39229 33.1639 2.2923 33.5639 2.1923C35.5639 1.6923 37.3639 2.49228 38.3639 4.39228C38.4639 4.59228 38.4639 4.8923 38.6639 5.0923C41.4639 8.4923 41.9639 12.9923 44.0639 16.6923C44.4639 17.3923 44.5639 18.2923 44.7639 19.2923C43.8639 19.2923 43.1639 19.2923 42.4639 19.1923C41.7639 19.0923 40.9639 18.9923 40.2639 18.7923C39.1639 18.5923 38.1639 18.3923 37.0639 18.1923C36.0639 18.0923 35.0639 18.0923 34.0639 17.9923C31.8639 17.8923 29.6639 17.5923 27.4639 17.6923C25.3639 17.7923 23.3639 18.2923 20.9639 18.5923C21.8639 16.3923 22.2639 13.9923 24.0639 12.1923ZM18.6639 87.7923C18.6639 87.5923 18.6639 87.2923 18.7639 87.0923C18.8639 86.8923 18.9639 86.6923 19.0639 86.4923C19.1639 86.4923 19.2639 86.3923 19.3639 86.3923C21.9639 87.0923 24.5639 87.8923 27.3639 87.7923C27.4639 88.6923 27.4639 89.3923 27.5639 90.0923C24.9639 90.5923 21.8639 89.7923 18.6639 87.7923ZM21.3639 82.3923C23.2639 82.9923 25.0639 83.4923 27.1639 84.0923C27.1639 84.5923 27.0639 85.0923 27.0639 85.6923C24.7639 85.9923 22.6639 85.6923 20.5639 84.6923C20.3639 83.7923 20.9639 83.1923 21.3639 82.3923ZM44.3639 95.2923C45.4639 96.7923 45.4639 98.4923 44.2639 99.8923C43.3639 100.992 42.3639 101.992 41.2639 102.892C38.5639 105.192 36.3639 107.992 34.6639 111.092C34.2639 111.792 33.8639 112.292 33.2639 113.192C32.4639 111.592 30.6639 111.092 30.2639 109.392C29.1639 108.592 28.1639 107.792 27.0639 107.092C26.4639 106.692 25.7639 106.392 25.0639 105.992C21.2639 104.192 19.4639 100.092 20.2639 96.1923C20.6639 94.1923 23.0639 92.4923 25.1639 92.6923C25.6639 92.6923 26.1639 92.7923 26.5639 92.8923C26.2639 94.4923 25.9639 95.9923 25.7639 97.3923C25.6639 98.1923 25.8639 98.8923 26.3639 99.4923C27.9639 101.492 29.8639 103.192 32.0639 104.392C32.7639 104.792 33.3639 104.692 33.8639 104.092C34.0639 103.892 34.1639 103.692 34.2639 103.492C35.4639 101.892 36.5639 100.192 37.7639 98.5923C39.1639 96.6923 39.1639 95.8923 37.5639 94.1923C37.2639 93.8923 36.9639 93.5923 36.7639 93.2923C36.7639 93.1923 36.7639 93.0923 36.6639 92.8923C37.9639 92.3923 39.3639 91.8923 40.9639 91.4923C42.1639 92.8923 43.3639 93.9923 44.3639 95.2923ZM30.4639 98.1923C32.2639 98.3923 32.7639 98.0923 33.6639 96.3923C33.9639 95.6923 34.3639 95.0923 34.7639 94.1923C35.4639 94.8923 36.1639 95.5923 36.8639 96.2923C35.8639 98.4923 33.8639 99.9923 32.8639 102.192C30.8639 101.492 29.7639 100.292 28.6639 99.1923C27.6639 98.1923 27.3639 97.0923 28.0639 95.5923C28.4639 96.3923 28.7639 97.0923 29.0639 97.7923C29.4639 97.9923 29.9639 98.1923 30.4639 98.1923ZM29.5639 78.8923C29.7639 77.3923 30.1639 75.9923 31.0639 74.5923C33.1639 75.2923 33.5639 77.0923 33.7639 78.7923C33.8639 79.3923 33.7639 79.9923 33.6639 80.5923C33.5639 82.8923 33.2639 85.0923 33.2639 87.3923C33.2639 89.6923 32.5639 91.8923 31.9639 93.9923C31.7639 94.5923 31.2639 95.0923 30.8639 95.7923C30.0639 94.1923 29.7639 92.7923 29.6639 91.3923C29.4639 87.2923 29.0639 83.0923 29.5639 78.8923ZM44.2639 86.9923C41.8639 88.8923 39.1639 89.7923 36.2639 90.2923C36.0639 90.2923 35.9639 90.1923 35.5639 90.0923C35.5639 89.2923 35.6639 88.6923 35.6639 87.8923C38.7639 87.6923 41.6639 86.9923 44.3639 85.7923C44.8639 86.3923 44.5639 86.7923 44.2639 86.9923ZM35.7639 85.3923C35.8639 85.0923 35.8639 84.6923 36.0639 84.4923C36.4639 84.1923 36.9639 84.0923 37.4639 83.8923C38.7639 83.4923 39.9639 82.8923 40.9639 81.9923C41.3639 81.6923 41.7639 81.3923 42.2639 81.1923C42.3639 81.0923 42.5639 81.1923 42.8639 81.1923C43.1639 81.8923 43.4639 82.5923 43.7639 83.2923C41.2639 85.0923 38.0639 85.8923 35.7639 85.3923ZM43.8639 64.6923C44.3639 65.1923 44.6639 65.5923 45.2639 66.1923C45.1639 66.9923 45.1639 68.1923 45.0639 69.3923C44.8639 71.2923 44.6639 73.2923 44.5639 75.1923C44.4639 76.2923 44.1639 77.1923 43.1639 77.7923C41.4639 78.8923 39.7639 79.9923 38.0639 81.0923C37.5639 81.3923 36.8639 81.4923 36.0639 81.7923C35.8639 79.8923 35.7639 78.3923 35.4639 76.7923C35.2639 75.0923 34.0639 73.8923 32.7639 72.9923C31.1639 71.8923 29.3639 72.3923 28.6639 74.1923C28.0639 75.7923 27.3639 77.2923 27.4639 79.0923C27.4639 79.7923 27.3639 80.3923 27.3639 81.2923C26.6639 81.2923 26.0639 81.4923 25.5639 81.3923C23.4639 80.8923 21.5639 80.0923 19.9639 78.6923C18.7639 72.7923 18.3639 66.8923 18.3639 60.6923C19.5639 60.9923 20.4639 61.1923 21.4639 61.3923C23.0639 61.6923 24.5639 61.9923 26.1639 62.1923C27.7639 62.3923 29.3639 62.2923 30.9639 62.5923C34.7639 63.0923 38.5639 62.5923 42.2639 61.8923C43.2639 61.6923 44.1639 61.2923 45.1639 60.9923C46.2639 62.5923 45.0639 63.5923 43.8639 64.6923ZM46.6639 34.1923C46.1639 40.4923 45.8639 46.7923 45.4639 53.0923C45.3639 54.6923 45.2639 56.2923 45.1639 57.7923C44.2639 58.8923 43.0639 59.0923 41.9639 59.3923C38.4639 60.2923 34.8639 60.7923 31.2639 60.2923C29.4639 60.0923 27.5639 60.1923 25.7639 59.8923C23.7639 59.5923 21.7639 59.0923 19.8639 58.6923C18.8639 58.4923 18.3639 57.7923 18.3639 56.6923C18.2639 53.4923 18.1639 50.2923 17.9639 47.0923C17.5639 40.3923 18.2639 33.7923 18.6639 27.1923C18.7639 25.7923 19.2639 24.3923 19.4639 22.9923C19.6639 21.9923 20.3639 21.3923 21.2639 21.0923C23.4639 20.4923 25.6639 19.7923 27.9639 19.8923C31.0639 20.0923 34.1639 20.0923 37.2639 20.4923C39.5639 20.7923 41.9639 21.0923 44.0639 22.0923C44.4639 22.2923 45.0639 22.2923 45.6639 22.4923C45.8639 22.9923 46.0639 23.3923 46.0639 23.7923C46.4639 27.2923 46.8639 30.6923 46.6639 34.1923ZM60.1639 80.8923C59.3639 83.9923 57.7639 86.7923 56.1639 89.4923C55.5639 90.3923 55.0639 91.3923 54.4639 92.2923C53.8639 93.3923 53.1639 94.3923 51.8639 94.5923C50.9639 94.0923 50.9639 93.2923 50.9639 92.4923C50.9639 90.0923 51.0639 87.7923 51.0639 85.3923C51.0639 84.8923 51.1639 84.2923 51.3639 83.9923C51.8639 83.2923 52.2639 82.5923 51.9639 81.6923C51.5639 80.4923 51.4639 78.9923 50.2639 78.0923C49.4639 77.4923 48.6639 76.8923 47.8639 76.1923C48.6639 74.8923 48.3639 73.5923 48.3639 72.2923C48.2639 71.0923 48.1639 69.7923 48.0639 68.4923C49.7639 68.1923 51.2639 68.2923 52.6639 68.7923C54.6639 69.4923 56.5639 70.3923 58.4639 71.1923C59.5639 71.6923 60.0639 72.4923 60.4639 73.5923C60.9639 76.1923 60.7639 78.5923 60.1639 80.8923Z" fill="#CDEBED"/>
</svg>
