<svg width="30" height="62" viewBox="0 0 30 62" fill="none" xmlns="http://www.w3.org/2000/svg">
<path fill-rule="evenodd" clip-rule="evenodd" d="M8.532 42.462C7.032 42.462 5.93199 42.462 4.83199 42.462C4.03199 42.462 3.33196 42.062 2.93196 41.362C1.83196 39.262 1.132 37.162 2.032 34.862C2.532 33.562 3.33195 32.662 4.73195 32.462C6.43195 32.262 8.03198 32.262 10.132 32.062C11.632 30.262 13.432 28.162 15.332 25.962C15.032 25.562 14.832 25.162 14.532 24.962C12.532 23.662 12.732 21.662 12.932 19.762C13.032 19.162 13.332 18.462 13.532 17.762C12.032 15.762 10.532 13.762 9.13198 11.962C7.23198 12.062 5.53196 12.362 3.93196 12.362C1.63196 12.362 0.132001 10.862 0.0320013 8.66205C-0.0679987 6.76205 0.031989 4.86205 0.831989 2.96205C2.33199 -0.337955 6.23198 -1.03796 8.63198 1.66204C9.83198 2.96204 10.932 4.36204 11.032 6.26204C11.132 7.46204 10.832 8.76204 10.632 10.262C12.132 12.262 13.832 14.462 15.532 16.762C17.132 16.462 18.532 16.362 19.832 17.462C21.632 19.062 22.332 20.962 22.332 23.262C22.332 24.262 21.832 25.062 20.932 25.462C19.832 25.862 18.732 26.162 17.332 26.662C15.732 28.662 13.932 30.862 12.132 33.062C11.032 34.362 10.432 35.862 10.432 37.662C10.432 38.662 10.232 39.662 10.032 40.762C11.532 42.962 15.432 47.162 17.632 48.862C18.232 49.362 18.832 49.862 19.332 50.362C19.832 50.862 20.332 51.562 20.932 52.162C21.632 52.062 22.532 51.962 23.332 51.962C24.632 51.862 25.832 52.162 26.932 52.762C30.132 54.462 30.032 59.162 27.632 60.862C26.832 61.462 26.132 61.862 25.132 61.862C22.632 61.962 20.832 60.762 19.332 58.962C18.932 58.462 18.832 57.762 18.732 57.062C18.632 56.362 18.532 55.662 18.732 55.062C19.232 53.162 18.332 51.962 16.932 50.962C14.032 48.962 11.932 46.162 9.63198 43.662C9.13198 43.162 8.732 42.762 8.532 42.462ZM7.13198 9.66205C8.93198 6.86205 8.73195 5.06204 6.73195 3.16204C5.73195 2.16204 4.73195 2.26204 3.73195 3.16204C3.53195 3.36204 3.23196 3.56204 2.93196 3.76204C1.13196 5.46204 1.03195 7.36205 2.73195 9.66205C4.23195 9.66205 5.73198 9.66205 7.13198 9.66205ZM24.432 59.862C26.332 59.862 27.332 58.662 27.332 56.762C27.332 55.162 26.032 53.762 24.532 53.862C23.332 53.862 22.232 54.262 21.432 55.262C20.732 56.062 20.432 56.962 21.032 57.762C21.932 58.862 23.132 59.762 24.432 59.862ZM7.83199 34.562C7.53199 34.562 7.23197 34.462 6.93196 34.462C4.43196 34.462 3.63196 35.462 3.93196 37.862C4.03196 38.462 4.232 39.162 4.532 39.762C4.632 40.062 4.93195 40.262 5.23195 40.362C6.83195 40.962 8.33198 40.062 8.63198 38.362C8.83198 37.062 8.73199 35.762 7.83199 34.562ZM18.332 24.062C18.432 24.062 18.732 24.062 18.932 24.062C20.432 23.862 21.032 22.662 20.132 21.362C19.732 20.762 19.232 20.162 18.732 19.662C18.132 19.062 17.332 18.762 16.432 19.162C15.532 19.562 15.032 20.162 15.032 21.262C15.132 22.862 16.332 23.962 18.332 24.062Z" fill="#FFC188"/>
</svg>
