<svg calss="test" width="69" height="80" viewBox="0 0 69 80" fill="none" xmlns="http://www.w3.org/2000/svg">
<path fill-rule="evenodd" clip-rule="evenodd" d="M31.3 54.9505C30.4 51.6505 29.5 48.7504 28.1 45.8504C25.5 47.0504 22.7 47.3504 20 47.8504C18.8 48.0504 17.7 48.2504 16.5 47.8504C15.8 47.6504 15 47.6505 14.3 47.9505C13.7 48.1505 13 48.1504 12.3 48.2504C11.6 46.5504 10.9 45.0504 10.3 43.5504C9.79999 42.2504 9.99998 41.7505 11.1 40.9505C11.7 40.5504 12.2 39.9504 12.6 39.3504C13.1 38.5504 14 37.9504 14.9 37.5504C17.2 36.4504 19.7 35.5504 22.1 34.5504C22 34.0504 22.1 33.5504 21.8 33.2504C20.5 31.3504 20.4 29.1504 19.8 27.0504C19.6 26.5504 19.4 26.1504 19.1 25.5504C18.5 25.6504 18 25.6504 17.4 25.7504C15.5 26.0504 13.6 26.4504 11.7 26.8504C9.60001 27.1504 8.29999 26.5504 7.29999 24.7504C6.79999 23.8504 6.49998 22.9505 6.09998 21.9505C4.39998 17.1505 2.59996 12.2505 0.899963 7.45045C0.599963 6.65045 0.3 5.85045 0 4.95045C2.6 4.45045 4.60001 2.75045 7.20001 2.45045C11.5 1.95045 15.8 0.950434 20.1 0.150434C22.7 -0.349566 23.7 0.350452 24.1 2.95045C24.7 6.85045 25.9 10.6505 26.9 14.4505C27.4 16.5505 27.8 18.7505 28.1 20.9505C28.4 22.8505 28.1 23.1504 26.3 23.5504C25 23.8504 23.6 24.0504 22.3 24.3504C21.9 24.4504 21.5 24.6504 21.1 24.7504C21.8 27.7504 22.6 30.6505 24.3 33.4505C25.1 33.7505 25.8 33.0504 26.7 32.7504C27.1 31.7504 26.6 30.7504 26.5 29.7504C26.3 28.0504 26.5 27.3504 28 26.6504C31.4 25.1504 34.6 23.2504 38.2 22.2504C38.9 22.0504 39.7 22.0504 40.4 21.8504C41.9 21.5504 43.4 21.3504 44.8 20.8504C47.4 20.1504 49.9 19.2504 52.6 18.8504C54.2 18.5504 55.8 18.6505 57.4 18.9505C58.1 19.0505 58.7 19.6504 59.4 20.0504C60.4 19.8504 61.4 19.6505 62.5 19.4505C63.8 19.2505 64.8 19.9504 65.2 21.1504C65.3 21.3504 65.3 21.4504 65.3 21.6504C65.6 24.1504 66.7 26.3504 67.6 28.5504C68 29.5504 68.3 30.6504 68.5 31.6504C68.8 33.1504 68.5 33.5504 67.2 34.2504C66.7 34.5504 66.1 34.7505 65.6 34.9505C65.1 35.1505 64.7 35.3504 64.1 35.6504C63.8 36.4504 64 37.6504 63.1 38.3504C62.6 38.7504 62.1 39.3504 61.5 39.5504C58.2 40.9504 54.8 42.3504 51.4 43.5504C48.5 44.6504 45.5 45.6504 42.5 46.5504C40.2 47.2504 37.8 47.7504 35.3 47.6504C33.5 47.6504 32.2 47.0504 31.6 45.2504C31.5 45.0504 31.3 44.8504 31.2 44.7504C30.6 44.7504 30.4 45.0504 30.4 45.5504C30.4 45.9504 30.4 46.4504 30.6 46.7504C31.8 48.5504 31.8 50.7504 32.6 52.6504C32.8 53.0504 32.9 53.4505 33.1 53.9505C33.7 53.8505 34.3 53.8504 34.8 53.7504C36.7 53.4504 38.6 53.0504 40.5 52.6504C42.7 52.2504 43.8 52.8504 44.9 54.7504C45.2 55.2504 45.5 55.7504 45.7 56.3504C47.5 61.2504 49.3 66.1504 51 71.1504C51.4 72.3504 52.2 73.3504 52.1 74.8504C50.8 74.8504 49.8 75.3504 48.9 76.0504C48.4 76.4504 47.7 76.6504 47 76.7504C41.9 77.6504 36.9 78.5504 31.8 79.5504C30 79.9504 28.8 79.2505 28.2 77.3504C28 76.6505 27.9 75.8504 27.7 75.1504C27 72.3504 26.3 69.6505 25.7 66.8504C25.1 64.0504 24.5 61.2505 24 58.4505C23.8 57.0504 24.2 56.5504 25.7 56.2504C26.6 56.0504 27.5 55.9504 28.4 55.7504C29.5 55.3504 30.3 55.1505 31.3 54.9505ZM45.5 43.0504C48.5 42.6504 51.1 41.4505 53.7 40.4505C56.4 39.5504 59 38.3504 61.6 37.3504C61.4 33.0504 59.8 29.1504 58.6 25.2504C58.4 24.4504 58 23.6504 57.7 22.8504C57.3 21.5504 56.4 20.9504 55 21.0504C54.6 21.0504 54.2 21.0504 53.7 21.1504C51.9 21.5504 50.1 21.9504 48.3 22.3504C46.3 22.8504 44.2 23.4504 42.2 24.0504C41.8 24.1504 41.5 24.3504 41.1 24.5504C41.5 27.3504 41.9 30.0504 42.6 32.5504C43 34.0504 43.4 35.6504 43.8 37.1504C44.5 39.0504 44.9 40.8504 45.5 43.0504ZM28.4 35.0504C27.5 35.2504 26.7 35.2505 26.1 35.4505C22.8 36.7505 19.4 38.0504 16.1 39.3504C15.9 39.4504 15.7 39.6504 15.5 39.7504C15.3 41.6504 16.1 43.1504 16.9 44.7504C17.4 45.6504 18.1 45.9504 19.2 45.8504C22.6 45.3504 25.9 44.3504 29.2 43.3504C29.9 43.1504 30.4 42.5504 31 42.1504C30.1 39.7504 29.3 37.4504 28.4 35.0504ZM29.2 28.7504C29.4 29.9504 29.5 30.8504 29.8 31.7504C31.2 35.8504 32.6 40.0504 34 44.1504C34.1 44.5504 34.4 45.0504 34.7 45.1504C35.9 45.5504 37.1 45.7505 38.2 44.9505C37.3 41.9505 36.4 39.0504 35.6 36.1504C34.8 33.1504 34.2 30.1504 33.4 26.8504C31.9 27.5504 30.6 28.1504 29.2 28.7504ZM44 43.6504C43.3 41.4504 42.7 39.4504 42.1 37.3504C41.5 35.3504 40.9 33.3504 40.3 31.3504C39.8 29.2504 39.4 27.1504 38.9 24.8504C37.6 24.9504 36.6 25.1504 35.8 26.1504C35.9 26.7504 36 27.2504 36 27.8504C36.5 32.9504 38.6 37.7504 39.3 42.8504C39.4 43.6504 39.8 44.4504 40.7 44.8504C41.8 44.4504 43 44.3504 44 43.6504ZM60.3 22.2504C61.5 25.9504 62.7 29.6505 64 33.4505C65 32.9505 66 32.6504 66.7 31.8504C66.5 29.9504 65.5 28.4504 65 26.8504C64.4 25.1504 63.8 23.4504 63.1 21.5504C62.1 21.5504 61.2 21.6504 60.3 22.2504ZM23.6 10.9505C23.4 9.95045 23.3 9.05043 23.1 8.15043C22.9 7.35043 22.3 7.05043 21.6 7.05043C19.9 7.05043 18.3 7.25045 16.8 8.45045C16.9 9.75045 17.2 10.9505 18 11.9505C19.9 11.6505 21.7 11.2505 23.6 10.9505ZM29.8 71.8504C32.1 72.6505 34 72.0504 35.9 70.8504C35.7 69.5504 35.6 68.3504 34.7 67.3504C32.8 67.5504 31 67.8504 29.2 68.3504C29.4 69.5504 29.6 70.6505 29.8 71.8504ZM9.70001 9.95045C8.00001 10.0505 6.3 10.1505 4.5 10.9505C5 12.3505 5.49998 13.6504 6.09998 15.1504C7.79998 14.6504 9.50001 14.6504 11.2 13.8504C10.6 12.4504 10.5 11.0505 9.70001 9.95045ZM46.7 64.3504C45.6 64.5504 44.8 64.6505 43.9 64.8504C43.1 65.0504 42.2 64.9504 41.6 65.7504C42 66.8504 42.4 68.0504 42.9 69.2504C44.7 69.2504 46.4 69.0504 48.3 68.3504C47.8 67.0504 47.2 65.8504 46.7 64.3504ZM8.09998 20.8504C8.59998 21.8504 8.89999 22.7504 9.29999 23.5504C9.69999 24.3504 10.4 24.7504 11.4 24.5504C12.4 24.3504 13.3 24.1505 14.3 23.9505C14.5 22.3505 13.9 21.1504 13.3 19.8504C11.7 20.1504 10.1 20.4504 8.09998 20.8504ZM38.4 55.2504C38.4 57.8504 38.4 57.8505 39.7 59.4505C41.2 59.1505 42.7 58.8504 44.3 58.6504C44.4 57.5504 43.9 56.6504 43.4 55.7504C42.9 54.9504 42.3 54.5504 41.3 54.7504C40.3 54.9504 39.4 55.1504 38.4 55.2504ZM27.3 61.4505C29.2 61.4505 31 61.1505 32.7 60.4505C32.4 59.3505 32.2 58.4504 32 57.5504C29.6 57.5504 28.5 57.8504 26.8 58.6504C27 59.4504 27.2 60.4505 27.3 61.4505ZM44 74.6504C46.2 74.5504 48 74.1504 49.7 72.5504C49.4 71.8504 49.1 71.1505 48.8 70.4505C47 70.7505 45.4 71.0504 43.7 71.3504C43.8 72.5504 43.9 73.4504 44 74.6504ZM19.9 18.7504C20.2 19.9504 20.5 20.9504 20.7 22.0504C22.6 21.7504 24.3 21.7504 25.9 20.8504C25.8 20.2504 25.8 19.7504 25.7 19.2504C25.6 18.7504 25.4 18.3504 25.2 17.8504C23.5 18.1504 21.9 18.4504 19.9 18.7504ZM8.5 4.65043C6.4 4.75043 4.59996 5.15044 2.89996 6.75044C3.19996 7.45044 3.59996 8.15045 3.89996 8.85045C5.69996 8.55045 7.29998 8.25045 9.09998 7.95045C8.89998 6.85045 8.7 5.85043 8.5 4.65043ZM28.4 66.6504C30.5 65.8504 32.5 66.0504 34.4 65.0504C34.1 64.2504 33.9 63.4504 33.6 62.6504C31.5 62.8504 29.6 63.0504 27.9 63.8504C28 64.7504 28.2 65.5504 28.4 66.6504ZM36.5 73.2504C34.5 73.7504 32.8 74.0504 31.1 74.5504C30.9 74.6504 30.7 74.8504 30.4 75.0504C30.6 75.7504 30.8 76.3504 31 77.1504C33.2 76.8504 35.2 76.6505 37.2 75.9505C36.9 74.9505 36.7 74.1504 36.5 73.2504ZM24.2 12.6504C22.3 13.6504 20.1 13.1505 18.3 14.4505C18.5 15.2505 18.8 15.9504 19.1 16.8504C21.1 16.4504 23.2 16.5505 25.1 15.4505C24.8 14.5505 24.6 13.7504 24.2 12.6504ZM21.8 2.25044C19.6 2.55044 17.7 2.85045 15.6 3.35045C15.9 4.35045 16.1 5.25043 16.3 6.05043C18.4 5.55043 20.3 5.05043 22.3 4.55043C22.1 3.85043 21.9 3.15044 21.8 2.25044ZM38.8 75.6504C40.3 75.3504 41.5 75.1505 42.8 74.9505C42.4 73.8505 42.2 72.7505 41.3 71.8504C40.3 71.9504 39.1 71.8504 38.2 72.7504C38.4 73.6504 38.6 74.5504 38.8 75.6504ZM45.1 60.2504C44 60.4504 43.1 60.5504 42.3 60.7504C41.5 60.9504 40.6 60.8504 40 61.7504C40.1 62.1504 40.2 62.5504 40.4 62.8504C40.5 63.0504 40.7 63.2504 40.8 63.3504C42.5 63.0504 44.1 62.7505 45.9 62.4505C45.7 61.6505 45.4 61.0504 45.1 60.2504ZM12 15.9505C10.1 16.2505 8.59999 16.5504 6.79999 16.8504C7.09999 17.6504 7.29998 18.3504 7.59998 19.1504C9.39998 18.7504 11 18.3505 12.7 17.9505C12.4 17.1505 12.2 16.6505 12 15.9505ZM11.1 7.55043C12.4 7.35043 13.6 7.55045 14.4 6.45045C14.2 5.55045 14.1 4.65043 13.9 3.65043C12.5 3.85043 11.2 3.95043 9.89996 4.55043C10.3 5.55043 10.7 6.45043 11.1 7.55043ZM13 12.9505C14.1 13.0505 14.9 12.7504 15.8 12.1504C15.5 11.1504 15.2 10.0504 15 9.15043C13.3 9.05043 13.3 9.05044 11.8 9.75044C12.2 10.8504 12.6 11.8505 13 12.9505ZM37.8 70.3504C38.9 70.3504 39.9 70.4505 40.8 69.4505C40.4 68.3505 40 67.3504 39.5 66.0504C38.5 66.4504 37.6 66.3504 36.8 67.2504C37.1 68.2504 37.4 69.2505 37.8 70.3504ZM18.7 22.7504C18.5 21.8504 18.4 21.2504 18.3 20.5504C18.2 19.9504 18 19.3504 17.3 19.2504C16.8 19.1504 16.2 19.4504 15.6 19.5504C16 20.9504 16 22.3505 17.1 23.4505C17.6 23.2505 18.1 23.0504 18.7 22.7504ZM36.8 59.7504C36.6 58.7504 36.5 57.9504 36.3 57.1504C35.9 55.7504 35.7 55.7504 34.1 56.5504C34.1 57.7504 34.2 58.9504 35.1 60.0504C35.7 60.0504 36.3 59.8504 36.8 59.7504ZM14.8 17.5504C15.6 17.3504 16.2 17.2504 16.8 17.0504C16.9 16.0504 16.9 15.2505 16.2 14.4505C15.6 14.6505 15 14.7505 14.3 14.9505C14.2 14.9505 14.1 15.2505 14 15.4505C14.3 16.0505 14.5 16.6504 14.8 17.5504ZM37.5 61.8504C37 61.9504 36.4 62.1504 35.8 62.2504C36 63.1504 36.1 63.9504 36.3 64.8504C37.1 64.6505 37.8 64.4504 38.5 64.2504C38.6 63.2504 38.3 62.5504 37.5 61.8504ZM13.6 46.1504C14.5 46.2504 14.8 45.8504 14.5 45.1504C14.2 44.1504 13.7 43.1504 13.3 42.1504C12.2 42.7504 12.1 42.9505 12.3 43.4505C12.7 44.3505 13.2 45.2504 13.6 46.1504Z" fill="#FFC188"/>
</svg>
