<svg width="32" height="33" viewBox="0 0 32 33" fill="none" xmlns="http://www.w3.org/2000/svg">
<g clip-path="url(#clip0_850_67838)">
<path d="M14.6979 0.5C21.3319 0.5 26.7292 5.89722 26.7292 12.5312C26.7292 15.4499 25.6845 18.1292 23.9494 20.2148L31.6616 27.8745C32.1106 28.3205 32.1131 29.046 31.6672 29.495C31.5608 29.6024 31.4341 29.6876 31.2946 29.7456C31.155 29.8037 31.0053 29.8335 30.8542 29.8333C30.5516 29.8337 30.2612 29.714 30.0467 29.5005L22.324 21.8303C20.2467 23.5369 17.5898 24.5625 14.6979 24.5625C12.6339 24.5625 10.5972 24.0307 8.8081 23.0244C8.25649 22.7143 8.06084 22.0157 8.37107 21.4641C8.68125 20.9125 9.37987 20.7167 9.93147 21.027C11.3783 21.8407 13.0265 22.2708 14.6979 22.2708C20.0683 22.2708 24.4375 17.9017 24.4375 12.5312C24.4375 7.16084 20.0683 2.79167 14.6979 2.79167C9.3275 2.79167 4.95833 7.16084 4.95833 12.5312C4.95833 14.2231 5.3985 15.8891 6.23117 17.349C6.54473 17.8987 6.35326 18.5984 5.80361 18.912C5.25389 19.2255 4.55413 19.0341 4.24058 18.4844C3.21093 16.6792 2.66666 14.6206 2.66666 12.5312C2.66666 5.89722 8.06388 0.5 14.6979 0.5Z" fill="#797C7F"/>
</g>
<defs>
<clipPath id="clip0_850_67838">
<rect width="32" height="32" fill="white" transform="matrix(-1 0 0 1 32 0.5)"/>
</clipPath>
</defs>
</svg>
