<svg width="80" height="80" viewBox="0 0 80 80" fill="none" xmlns="http://www.w3.org/2000/svg">
<rect width="80" height="80" rx="8" fill="#0099A3"/>
<g clip-path="url(#clip0_2162_22649)">
<mask id="path-2-inside-1_2162_22649" fill="white">
<path d="M21.2975 34.7601C21.3599 34.8227 21.4341 34.8724 21.5158 34.9062C21.5975 34.94 21.685 34.9574 21.7735 34.9573C21.9066 34.9573 22.0368 34.9178 22.1475 34.8438C22.2582 34.7698 22.3445 34.6647 22.3954 34.5417C22.4464 34.4187 22.4597 34.2833 22.4338 34.1527C22.4078 34.0221 22.3437 33.9021 22.2496 33.8079L20.6149 32.1732L22.2497 30.5389C22.3725 30.4119 22.4404 30.2417 22.4389 30.0651C22.4374 29.8885 22.3666 29.7196 22.2417 29.5947C22.1168 29.4698 21.9479 29.399 21.7713 29.3975C21.5947 29.396 21.4245 29.4639 21.2975 29.5867L19.1869 31.6973C19.1244 31.7598 19.0748 31.834 19.0409 31.9157C19.0071 31.9974 18.9897 32.085 18.9897 32.1734C18.9897 32.2618 19.0071 32.3494 19.0409 32.4311C19.0748 32.5127 19.1244 32.587 19.1869 32.6495L21.2975 34.7601ZM27.9783 32.1732L26.3436 33.8079C26.281 33.8705 26.2314 33.9447 26.1976 34.0264C26.1638 34.1081 26.1464 34.1957 26.1464 34.2841C26.1465 34.3725 26.1639 34.4601 26.1978 34.5418C26.2317 34.6234 26.2814 34.6976 26.3439 34.7601C26.4751 34.8913 26.6475 34.9573 26.8198 34.9573C26.9922 34.9573 27.1645 34.8914 27.2957 34.7601L29.4067 32.6491C29.4692 32.5866 29.5188 32.5124 29.5527 32.4308C29.5865 32.3491 29.6039 32.2616 29.6039 32.1732C29.6039 32.0848 29.5865 31.9973 29.5527 31.9156C29.5188 31.834 29.4692 31.7598 29.4067 31.6973L27.2957 29.5863C27.2333 29.5238 27.1591 29.4742 27.0774 29.4404C26.9957 29.4066 26.9082 29.3892 26.8198 29.3892C26.7314 29.3892 26.6439 29.4066 26.5623 29.4404C26.4806 29.4742 26.4064 29.5238 26.3439 29.5863C26.2813 29.6488 26.2317 29.723 26.1978 29.8047C26.1639 29.8864 26.1465 29.974 26.1465 30.0624C26.1465 30.1508 26.1639 30.2384 26.1978 30.3201C26.2317 30.4018 26.2813 30.476 26.3439 30.5385L27.9783 32.1732ZM23.2931 34.9107C23.3738 34.9422 23.4573 34.9574 23.5391 34.9574C23.6744 34.9574 23.8065 34.9166 23.9183 34.8404C24.0302 34.7642 24.1164 34.6561 24.1659 34.5302L25.8242 30.3086C25.8576 30.2261 25.8744 30.1378 25.8735 30.0488C25.8726 29.9598 25.8541 29.8718 25.819 29.79C25.7838 29.7082 25.7329 29.6342 25.6689 29.5723C25.605 29.5103 25.5295 29.4616 25.4466 29.4291C25.3638 29.3965 25.2753 29.3807 25.1863 29.3826C25.0973 29.3845 25.0096 29.404 24.9282 29.44C24.8467 29.476 24.7733 29.5278 24.712 29.5924C24.6508 29.6569 24.6029 29.733 24.5713 29.8162L22.9126 34.0378C22.7768 34.3838 22.947 34.7748 23.2931 34.9107ZM20.0439 38.907H24.5793C24.7579 38.907 24.9291 38.836 25.0554 38.7098C25.1817 38.5835 25.2526 38.4122 25.2526 38.2337C25.2526 38.0551 25.1817 37.8839 25.0554 37.7576C24.9291 37.6313 24.7579 37.5604 24.5793 37.5604H20.0439C19.9555 37.5604 19.868 37.5778 19.7863 37.6116C19.7047 37.6454 19.6305 37.695 19.568 37.7575C19.5054 37.82 19.4559 37.8942 19.422 37.9759C19.3882 38.0576 19.3708 38.1451 19.3708 38.2335C19.3708 38.3219 19.3882 38.4095 19.422 38.4912C19.4558 38.5729 19.5053 38.6471 19.5679 38.7097C19.6304 38.7722 19.7046 38.8218 19.7863 38.8557C19.868 38.8895 19.9555 38.907 20.0439 38.907ZM35.0251 37.5604H27.0515C26.8729 37.5604 26.7016 37.6313 26.5754 37.7576C26.4491 37.8839 26.3782 38.0551 26.3782 38.2337C26.3782 38.4122 26.4491 38.5835 26.5754 38.7098C26.7016 38.836 26.8729 38.907 27.0515 38.907H35.0251C35.1145 38.9084 35.2032 38.8921 35.2862 38.8589C35.3692 38.8257 35.4447 38.7764 35.5084 38.7137C35.5721 38.651 35.6227 38.5763 35.6572 38.4939C35.6917 38.4115 35.7095 38.323 35.7095 38.2337C35.7095 38.1443 35.6917 38.0559 35.6572 37.9734C35.6227 37.891 35.5721 37.8163 35.5084 37.7536C35.4447 37.691 35.3692 37.6416 35.2862 37.6084C35.2032 37.5753 35.1145 37.5589 35.0251 37.5604ZM20.0439 41.7466H21.976C22.1545 41.7466 22.3258 41.6757 22.4521 41.5494C22.5784 41.4231 22.6493 41.2518 22.6493 41.0733C22.6493 40.8947 22.5784 40.7234 22.4521 40.5971C22.3258 40.4709 22.1545 40.3999 21.976 40.3999H20.0439C19.9555 40.3999 19.868 40.4173 19.7863 40.4511C19.7046 40.485 19.6304 40.5346 19.5679 40.5971C19.5054 40.6596 19.4558 40.7338 19.422 40.8155C19.3882 40.8972 19.3708 40.9847 19.3708 41.0731C19.3708 41.1615 19.3882 41.2491 19.422 41.3308C19.4558 41.4125 19.5053 41.4868 19.5679 41.5493C19.6304 41.6119 19.7046 41.6615 19.7863 41.6953C19.868 41.7292 19.9555 41.7466 20.0439 41.7466ZM32.5622 40.3999C32.4737 40.3999 32.3862 40.4173 32.3045 40.4511C32.2229 40.485 32.1486 40.5346 32.0861 40.5971C32.0236 40.6596 31.974 40.7338 31.9402 40.8155C31.9064 40.8972 31.889 40.9847 31.889 41.0731C31.889 41.1615 31.9064 41.2491 31.9402 41.3308C31.974 41.4125 32.0236 41.4868 32.0861 41.5493C32.1486 41.6119 32.2228 41.6615 32.3045 41.6953C32.3862 41.7292 32.4737 41.7466 32.5622 41.7466H33.7386C33.8277 41.7476 33.9161 41.731 33.9986 41.6976C34.0812 41.6642 34.1564 41.6148 34.2198 41.5521C34.2831 41.4895 34.3334 41.4149 34.3677 41.3327C34.4021 41.2505 34.4197 41.1623 34.4197 41.0733C34.4197 40.9842 34.4021 40.896 34.3677 40.8138C34.3334 40.7316 34.2831 40.657 34.2198 40.5944C34.1564 40.5317 34.0812 40.4823 33.9986 40.4489C33.9161 40.4155 33.8277 40.3989 33.7386 40.3999H32.5622ZM30.7902 41.0731C30.7901 40.8946 30.7192 40.7234 30.593 40.5971C30.4668 40.4709 30.2956 40.4 30.117 40.3999H24.3382C24.2498 40.3999 24.1623 40.4173 24.0806 40.4511C23.9989 40.4849 23.9247 40.5345 23.8622 40.597C23.7996 40.6596 23.7501 40.7338 23.7162 40.8155C23.6824 40.8972 23.665 40.9847 23.665 41.0731C23.665 41.1615 23.6824 41.2491 23.7162 41.3308C23.75 41.4126 23.7996 41.4868 23.8621 41.5493C23.9246 41.6119 23.9988 41.6615 24.0805 41.6953C24.1622 41.7292 24.2498 41.7466 24.3382 41.7466H30.117C30.2055 41.7466 30.293 41.7291 30.3747 41.6953C30.4564 41.6614 30.5306 41.6118 30.5931 41.5493C30.6556 41.4867 30.7052 41.4125 30.739 41.3308C30.7728 41.2491 30.7902 41.1615 30.7902 41.0731ZM35.2003 41.0731C35.2002 41.1615 35.2176 41.2491 35.2514 41.3308C35.2853 41.4125 35.3348 41.4867 35.3973 41.5493C35.4598 41.6118 35.534 41.6614 35.6157 41.6953C35.6974 41.7291 35.785 41.7466 35.8734 41.7466H38.0771C38.1662 41.7476 38.2546 41.731 38.3371 41.6976C38.4197 41.6642 38.4949 41.6148 38.5583 41.5521C38.6216 41.4895 38.6719 41.4149 38.7062 41.3327C38.7406 41.2505 38.7582 41.1623 38.7582 41.0733C38.7582 40.9842 38.7406 40.896 38.7062 40.8138C38.6719 40.7316 38.6216 40.657 38.5583 40.5944C38.4949 40.5317 38.4197 40.4823 38.3371 40.4489C38.2546 40.4155 38.1662 40.3989 38.0771 40.3999H35.8734C35.6948 40.4 35.5237 40.4709 35.3974 40.5971C35.2712 40.7234 35.2003 40.8946 35.2003 41.0731ZM31.5339 32.7134H33.8582C33.9472 32.7144 34.0356 32.6977 34.1182 32.6644C34.2008 32.631 34.276 32.5815 34.3393 32.5189C34.4027 32.4563 34.453 32.3817 34.4873 32.2995C34.5216 32.2173 34.5393 32.1291 34.5393 32.04C34.5393 31.9509 34.5216 31.8627 34.4873 31.7805C34.453 31.6983 34.4027 31.6238 34.3393 31.5611C34.276 31.4985 34.2008 31.4491 34.1182 31.4157C34.0356 31.3823 33.9472 31.3657 33.8582 31.3667H31.5339C31.3553 31.3667 31.184 31.4376 31.0578 31.5639C30.9315 31.6902 30.8605 31.8614 30.8605 32.04C30.8605 32.2186 30.9315 32.3899 31.0578 32.5161C31.184 32.6424 31.3553 32.7134 31.5339 32.7134ZM36.4616 32.7134H50.6441C50.7325 32.7134 50.8201 32.6959 50.9017 32.6621C50.9834 32.6282 51.0576 32.5786 51.1202 32.5161C51.1827 32.4535 51.2322 32.3793 51.266 32.2976C51.2999 32.2159 51.3172 32.1283 51.3172 32.0399C51.3172 31.9515 51.2998 31.8639 51.266 31.7823C51.2322 31.7006 51.1826 31.6264 51.1201 31.5638C51.0576 31.5013 50.9834 31.4517 50.9017 31.4179C50.82 31.3841 50.7325 31.3667 50.6441 31.3667H36.4616C36.283 31.3667 36.1117 31.4376 35.9855 31.5639C35.8592 31.6902 35.7882 31.8614 35.7882 32.04C35.7882 32.2186 35.8592 32.3899 35.9855 32.5161C36.1117 32.6424 36.283 32.7134 36.4616 32.7134ZM48.4899 34.3288H42.7448C42.5662 34.3288 42.3949 34.3997 42.2687 34.526C42.1424 34.6522 42.0715 34.8235 42.0715 35.0021C42.0715 35.1806 42.1424 35.3519 42.2687 35.4781C42.3949 35.6044 42.5662 35.6754 42.7448 35.6754H48.4899C48.6684 35.6754 48.8397 35.6044 48.966 35.4781C49.0922 35.3519 49.1632 35.1806 49.1632 35.0021C49.1632 34.8235 49.0922 34.6522 48.966 34.526C48.8397 34.3997 48.6684 34.3288 48.4899 34.3288ZM40.5907 34.3288H38.6158C38.5274 34.3288 38.4398 34.3462 38.3581 34.38C38.2764 34.4139 38.2022 34.4635 38.1397 34.526C38.0772 34.5886 38.0276 34.6628 37.9938 34.7445C37.96 34.8262 37.9426 34.9138 37.9427 35.0022C37.9427 35.0906 37.9601 35.1782 37.9939 35.2598C38.0277 35.3415 38.0773 35.4157 38.1398 35.4782C38.2023 35.5407 38.2765 35.5903 38.3582 35.6241C38.4399 35.658 38.5274 35.6754 38.6158 35.6754H40.5906C40.679 35.6754 40.7665 35.658 40.8482 35.6241C40.9298 35.5903 41.004 35.5407 41.0666 35.4782C41.1291 35.4157 41.1786 35.3415 41.2125 35.2598C41.2463 35.1782 41.2637 35.0906 41.2637 35.0022C41.2637 34.9138 41.2464 34.8262 41.2125 34.7445C41.1787 34.6628 41.1292 34.5886 41.0667 34.526C41.0041 34.4635 40.9299 34.4139 40.8482 34.38C40.7665 34.3462 40.679 34.3288 40.5906 34.3288H40.5907ZM31.5339 35.6754H36.3717C36.5503 35.6754 36.7216 35.6044 36.8478 35.4781C36.9741 35.3519 37.045 35.1806 37.045 35.0021C37.045 34.8235 36.9741 34.6522 36.8478 34.526C36.7216 34.3997 36.5503 34.3288 36.3717 34.3288H31.5339C31.4445 34.3273 31.3558 34.3436 31.2728 34.3768C31.1899 34.41 31.1143 34.4594 31.0506 34.522C30.9869 34.5847 30.9363 34.6594 30.9018 34.7418C30.8673 34.8242 30.8495 34.9127 30.8495 35.0021C30.8495 35.0914 30.8673 35.1799 30.9018 35.2623C30.9363 35.3447 30.9869 35.4194 31.0506 35.4821C31.1143 35.5448 31.1899 35.5941 31.2728 35.6273C31.3558 35.6605 31.4445 35.6768 31.5339 35.6754ZM30.1255 43.2156H25.5904C25.502 43.2156 25.4144 43.233 25.3327 43.2668C25.251 43.3006 25.1768 43.3502 25.1143 43.4127C25.0517 43.4752 25.0021 43.5494 24.9683 43.6311C24.9344 43.7128 24.917 43.8003 24.9169 43.8888C24.9169 43.9772 24.9344 44.0647 24.9682 44.1464C25.0021 44.2281 25.0517 44.3023 25.1142 44.3648C25.1768 44.4274 25.251 44.4769 25.3327 44.5108C25.4144 44.5446 25.502 44.562 25.5904 44.562H30.1255C30.304 44.5619 30.4752 44.491 30.6014 44.3647C30.7277 44.2385 30.7986 44.0673 30.7986 43.8888C30.7985 43.7102 30.7276 43.5391 30.6014 43.4128C30.4752 43.2866 30.304 43.2157 30.1255 43.2156ZM23.5283 43.2156H20.0439C19.9555 43.2156 19.8679 43.233 19.7863 43.2669C19.7046 43.3007 19.6304 43.3503 19.5679 43.4128C19.5054 43.4753 19.4558 43.5495 19.422 43.6312C19.3881 43.7128 19.3707 43.8004 19.3707 43.8888C19.3707 43.9772 19.3881 44.0647 19.4219 44.1464C19.4557 44.2281 19.5053 44.3023 19.5678 44.3648C19.6303 44.4273 19.7046 44.4769 19.7862 44.5107C19.8679 44.5446 19.9555 44.562 20.0439 44.562H23.5281C23.6165 44.562 23.7041 44.5446 23.7857 44.5107C23.8674 44.4769 23.9416 44.4273 24.0041 44.3648C24.0666 44.3023 24.1162 44.2281 24.15 44.1464C24.1839 44.0647 24.2013 43.9772 24.2012 43.8888C24.2012 43.8004 24.1838 43.7128 24.15 43.6312C24.1162 43.5495 24.0666 43.4753 24.0041 43.4128C23.9416 43.3503 23.8674 43.3007 23.7857 43.2669C23.704 43.233 23.6165 43.2156 23.5281 43.2156H23.5283ZM38.3466 43.2156H32.422C32.3336 43.2156 32.2461 43.233 32.1644 43.2669C32.0827 43.3007 32.0085 43.3503 31.946 43.4128C31.8835 43.4753 31.8339 43.5495 31.8001 43.6312C31.7663 43.7128 31.7489 43.8004 31.7489 43.8888C31.7489 43.9772 31.7663 44.0647 31.8001 44.1464C31.8339 44.2281 31.8835 44.3023 31.946 44.3648C32.0085 44.4273 32.0827 44.4769 32.1644 44.5107C32.246 44.5446 32.3336 44.562 32.422 44.562H38.3465C38.525 44.5619 38.6962 44.491 38.8225 44.3647C38.9487 44.2385 39.0196 44.0673 39.0196 43.8888C39.0196 43.7102 38.9487 43.5391 38.8224 43.4128C38.6962 43.2866 38.525 43.2157 38.3465 43.2156H38.3466ZM46.3585 39.7573H43.1189C42.9403 39.7573 42.7691 39.8283 42.6428 39.9545C42.5165 40.0808 42.4456 40.2521 42.4456 40.4306C42.4456 40.6092 42.5165 40.7805 42.6428 40.9067C42.7691 41.033 42.9403 41.1039 43.1189 41.1039H46.3585C46.4469 41.1039 46.5345 41.0865 46.6162 41.0527C46.6979 41.0188 46.7721 40.9692 46.8346 40.9067C46.8972 40.8441 46.9467 40.7699 46.9805 40.6882C47.0144 40.6065 47.0317 40.5189 47.0317 40.4305C47.0317 40.3421 47.0143 40.2545 46.9805 40.1728C46.9466 40.0912 46.8971 40.0169 46.8345 39.9544C46.772 39.8919 46.6978 39.8424 46.6161 39.8085C46.5344 39.7747 46.4469 39.7573 46.3585 39.7573ZM51.9801 41.1039H56.5534C56.6428 41.1054 56.7315 41.0891 56.8145 41.0559C56.8974 41.0227 56.973 40.9733 57.0367 40.9107C57.1004 40.848 57.1509 40.7733 57.1855 40.6909C57.22 40.6085 57.2378 40.52 57.2378 40.4306C57.2378 40.3413 57.22 40.2528 57.1855 40.1704C57.1509 40.088 57.1004 40.0133 57.0367 39.9506C56.973 39.8879 56.8974 39.8386 56.8145 39.8054C56.7315 39.7722 56.6428 39.7559 56.5534 39.7573H51.9802C51.8918 39.7573 51.8043 39.7747 51.7226 39.8086C51.641 39.8424 51.5667 39.892 51.5042 39.9545C51.4417 40.017 51.3922 40.0912 51.3583 40.1729C51.3245 40.2545 51.3071 40.3421 51.3071 40.4305C51.3071 40.5189 51.3245 40.6064 51.3583 40.6881C51.3921 40.7698 51.4417 40.8441 51.5042 40.9066C51.5667 40.9691 51.6409 41.0188 51.7226 41.0526C51.8043 41.0865 51.8918 41.1039 51.9802 41.1039H51.9801ZM49.6933 39.7573H48.6454C48.4668 39.7573 48.2956 39.8283 48.1693 39.9545C48.043 40.0808 47.9721 40.2521 47.9721 40.4306C47.9721 40.6092 48.043 40.7805 48.1693 40.9067C48.2956 41.033 48.4668 41.1039 48.6454 41.1039H49.6933C49.7818 41.1039 49.8693 41.0865 49.951 41.0527C50.0327 41.0188 50.1069 40.9692 50.1694 40.9067C50.2319 40.8441 50.2815 40.7699 50.3153 40.6882C50.3491 40.6065 50.3665 40.5189 50.3664 40.4305C50.3665 40.3421 50.3491 40.2545 50.3152 40.1729C50.2814 40.0912 50.2318 40.017 50.1693 39.9545C50.1068 39.892 50.0326 39.8424 49.9509 39.8086C49.8693 39.7747 49.7817 39.7573 49.6933 39.7573ZM43.1189 48.4404H46.3585C46.4469 48.4404 46.5345 48.423 46.6162 48.3892C46.6979 48.3554 46.7721 48.3058 46.8346 48.2433C46.8971 48.1808 46.9467 48.1065 46.9805 48.0248C47.0144 47.9431 47.0317 47.8556 47.0317 47.7672C47.0317 47.6788 47.0143 47.5912 46.9805 47.5095C46.9466 47.4279 46.8971 47.3536 46.8345 47.2911C46.772 47.2286 46.6978 47.1791 46.6161 47.1452C46.5344 47.1114 46.4469 47.094 46.3585 47.094H43.1189C42.9404 47.0941 42.7692 47.165 42.643 47.2912C42.5167 47.4175 42.4458 47.5887 42.4458 47.7672C42.4457 47.8556 42.4631 47.9431 42.497 48.0248C42.5308 48.1065 42.5803 48.1807 42.6429 48.2432C42.7054 48.3057 42.7796 48.3553 42.8612 48.3891C42.9429 48.423 43.0305 48.4404 43.1189 48.4404ZM51.9801 48.4404H56.5534C56.7319 48.4404 56.9032 48.3694 57.0294 48.2432C57.1556 48.117 57.2266 47.9457 57.2266 47.7672C57.2266 47.5887 57.1556 47.4175 57.0294 47.2912C56.9032 47.165 56.7319 47.094 56.5534 47.094H51.9802C51.8918 47.094 51.8043 47.1114 51.7226 47.1453C51.641 47.1791 51.5667 47.2287 51.5042 47.2912C51.4417 47.3537 51.3922 47.4279 51.3583 47.5096C51.3245 47.5912 51.3071 47.6788 51.3071 47.7672C51.3071 47.8556 51.3245 47.9431 51.3583 48.0248C51.3921 48.1065 51.4417 48.1807 51.5042 48.2432C51.5667 48.3057 51.6409 48.3553 51.7226 48.3891C51.8043 48.423 51.8918 48.4404 51.9802 48.4404H51.9801ZM48.6454 48.4404H49.6933C49.8719 48.4404 50.0431 48.3694 50.1693 48.2432C50.2956 48.117 50.3665 47.9457 50.3665 47.7672C50.3665 47.5887 50.2956 47.4175 50.1693 47.2912C50.0431 47.165 49.8719 47.094 49.6933 47.094H48.6454C48.557 47.094 48.4694 47.1114 48.3878 47.1452C48.3061 47.1791 48.2319 47.2286 48.1693 47.2911C48.1068 47.3536 48.0572 47.4279 48.0234 47.5095C47.9896 47.5912 47.9722 47.6788 47.9722 47.7672C47.9721 47.8556 47.9895 47.9431 48.0233 48.0248C48.0571 48.1065 48.1067 48.1808 48.1693 48.2433C48.2318 48.3058 48.306 48.3554 48.3877 48.3892C48.4694 48.423 48.557 48.4404 48.6454 48.4404ZM46.3585 54.4307H43.1189C42.7472 54.4307 42.4458 54.7323 42.4458 55.1039C42.4458 55.4755 42.7472 55.7771 43.1189 55.7771H46.3585C46.7305 55.7771 47.0317 55.4755 47.0317 55.1039C47.0317 54.7322 46.7305 54.4307 46.3585 54.4307ZM56.5534 54.4307H51.9802C51.6083 54.4307 51.3071 54.7323 51.3071 55.1039C51.3071 55.4755 51.6082 55.7771 51.9802 55.7771H56.5535C56.9255 55.7771 57.227 55.4755 57.227 55.1039C57.227 54.7322 56.9255 54.4307 56.5535 54.4307H56.5534ZM49.6933 54.4307H48.6454C48.2733 54.4307 47.9718 54.7323 47.9718 55.1039C47.9718 55.4755 48.2733 55.7771 48.6454 55.7771H49.6933C50.0653 55.7771 50.3664 55.4755 50.3664 55.1039C50.3664 54.7322 50.0653 54.4307 49.6933 54.4307Z"/>
</mask>
<path d="M21.2975 34.7601C21.3599 34.8227 21.4341 34.8724 21.5158 34.9062C21.5975 34.94 21.685 34.9574 21.7735 34.9573C21.9066 34.9573 22.0368 34.9178 22.1475 34.8438C22.2582 34.7698 22.3445 34.6647 22.3954 34.5417C22.4464 34.4187 22.4597 34.2833 22.4338 34.1527C22.4078 34.0221 22.3437 33.9021 22.2496 33.8079L20.6149 32.1732L22.2497 30.5389C22.3725 30.4119 22.4404 30.2417 22.4389 30.0651C22.4374 29.8885 22.3666 29.7196 22.2417 29.5947C22.1168 29.4698 21.9479 29.399 21.7713 29.3975C21.5947 29.396 21.4245 29.4639 21.2975 29.5867L19.1869 31.6973C19.1244 31.7598 19.0748 31.834 19.0409 31.9157C19.0071 31.9974 18.9897 32.085 18.9897 32.1734C18.9897 32.2618 19.0071 32.3494 19.0409 32.4311C19.0748 32.5127 19.1244 32.587 19.1869 32.6495L21.2975 34.7601ZM27.9783 32.1732L26.3436 33.8079C26.281 33.8705 26.2314 33.9447 26.1976 34.0264C26.1638 34.1081 26.1464 34.1957 26.1464 34.2841C26.1465 34.3725 26.1639 34.4601 26.1978 34.5418C26.2317 34.6234 26.2814 34.6976 26.3439 34.7601C26.4751 34.8913 26.6475 34.9573 26.8198 34.9573C26.9922 34.9573 27.1645 34.8914 27.2957 34.7601L29.4067 32.6491C29.4692 32.5866 29.5188 32.5124 29.5527 32.4308C29.5865 32.3491 29.6039 32.2616 29.6039 32.1732C29.6039 32.0848 29.5865 31.9973 29.5527 31.9156C29.5188 31.834 29.4692 31.7598 29.4067 31.6973L27.2957 29.5863C27.2333 29.5238 27.1591 29.4742 27.0774 29.4404C26.9957 29.4066 26.9082 29.3892 26.8198 29.3892C26.7314 29.3892 26.6439 29.4066 26.5623 29.4404C26.4806 29.4742 26.4064 29.5238 26.3439 29.5863C26.2813 29.6488 26.2317 29.723 26.1978 29.8047C26.1639 29.8864 26.1465 29.974 26.1465 30.0624C26.1465 30.1508 26.1639 30.2384 26.1978 30.3201C26.2317 30.4018 26.2813 30.476 26.3439 30.5385L27.9783 32.1732ZM23.2931 34.9107C23.3738 34.9422 23.4573 34.9574 23.5391 34.9574C23.6744 34.9574 23.8065 34.9166 23.9183 34.8404C24.0302 34.7642 24.1164 34.6561 24.1659 34.5302L25.8242 30.3086C25.8576 30.2261 25.8744 30.1378 25.8735 30.0488C25.8726 29.9598 25.8541 29.8718 25.819 29.79C25.7838 29.7082 25.7329 29.6342 25.6689 29.5723C25.605 29.5103 25.5295 29.4616 25.4466 29.4291C25.3638 29.3965 25.2753 29.3807 25.1863 29.3826C25.0973 29.3845 25.0096 29.404 24.9282 29.44C24.8467 29.476 24.7733 29.5278 24.712 29.5924C24.6508 29.6569 24.6029 29.733 24.5713 29.8162L22.9126 34.0378C22.7768 34.3838 22.947 34.7748 23.2931 34.9107ZM20.0439 38.907H24.5793C24.7579 38.907 24.9291 38.836 25.0554 38.7098C25.1817 38.5835 25.2526 38.4122 25.2526 38.2337C25.2526 38.0551 25.1817 37.8839 25.0554 37.7576C24.9291 37.6313 24.7579 37.5604 24.5793 37.5604H20.0439C19.9555 37.5604 19.868 37.5778 19.7863 37.6116C19.7047 37.6454 19.6305 37.695 19.568 37.7575C19.5054 37.82 19.4559 37.8942 19.422 37.9759C19.3882 38.0576 19.3708 38.1451 19.3708 38.2335C19.3708 38.3219 19.3882 38.4095 19.422 38.4912C19.4558 38.5729 19.5053 38.6471 19.5679 38.7097C19.6304 38.7722 19.7046 38.8218 19.7863 38.8557C19.868 38.8895 19.9555 38.907 20.0439 38.907ZM35.0251 37.5604H27.0515C26.8729 37.5604 26.7016 37.6313 26.5754 37.7576C26.4491 37.8839 26.3782 38.0551 26.3782 38.2337C26.3782 38.4122 26.4491 38.5835 26.5754 38.7098C26.7016 38.836 26.8729 38.907 27.0515 38.907H35.0251C35.1145 38.9084 35.2032 38.8921 35.2862 38.8589C35.3692 38.8257 35.4447 38.7764 35.5084 38.7137C35.5721 38.651 35.6227 38.5763 35.6572 38.4939C35.6917 38.4115 35.7095 38.323 35.7095 38.2337C35.7095 38.1443 35.6917 38.0559 35.6572 37.9734C35.6227 37.891 35.5721 37.8163 35.5084 37.7536C35.4447 37.691 35.3692 37.6416 35.2862 37.6084C35.2032 37.5753 35.1145 37.5589 35.0251 37.5604ZM20.0439 41.7466H21.976C22.1545 41.7466 22.3258 41.6757 22.4521 41.5494C22.5784 41.4231 22.6493 41.2518 22.6493 41.0733C22.6493 40.8947 22.5784 40.7234 22.4521 40.5971C22.3258 40.4709 22.1545 40.3999 21.976 40.3999H20.0439C19.9555 40.3999 19.868 40.4173 19.7863 40.4511C19.7046 40.485 19.6304 40.5346 19.5679 40.5971C19.5054 40.6596 19.4558 40.7338 19.422 40.8155C19.3882 40.8972 19.3708 40.9847 19.3708 41.0731C19.3708 41.1615 19.3882 41.2491 19.422 41.3308C19.4558 41.4125 19.5053 41.4868 19.5679 41.5493C19.6304 41.6119 19.7046 41.6615 19.7863 41.6953C19.868 41.7292 19.9555 41.7466 20.0439 41.7466ZM32.5622 40.3999C32.4737 40.3999 32.3862 40.4173 32.3045 40.4511C32.2229 40.485 32.1486 40.5346 32.0861 40.5971C32.0236 40.6596 31.974 40.7338 31.9402 40.8155C31.9064 40.8972 31.889 40.9847 31.889 41.0731C31.889 41.1615 31.9064 41.2491 31.9402 41.3308C31.974 41.4125 32.0236 41.4868 32.0861 41.5493C32.1486 41.6119 32.2228 41.6615 32.3045 41.6953C32.3862 41.7292 32.4737 41.7466 32.5622 41.7466H33.7386C33.8277 41.7476 33.9161 41.731 33.9986 41.6976C34.0812 41.6642 34.1564 41.6148 34.2198 41.5521C34.2831 41.4895 34.3334 41.4149 34.3677 41.3327C34.4021 41.2505 34.4197 41.1623 34.4197 41.0733C34.4197 40.9842 34.4021 40.896 34.3677 40.8138C34.3334 40.7316 34.2831 40.657 34.2198 40.5944C34.1564 40.5317 34.0812 40.4823 33.9986 40.4489C33.9161 40.4155 33.8277 40.3989 33.7386 40.3999H32.5622ZM30.7902 41.0731C30.7901 40.8946 30.7192 40.7234 30.593 40.5971C30.4668 40.4709 30.2956 40.4 30.117 40.3999H24.3382C24.2498 40.3999 24.1623 40.4173 24.0806 40.4511C23.9989 40.4849 23.9247 40.5345 23.8622 40.597C23.7996 40.6596 23.7501 40.7338 23.7162 40.8155C23.6824 40.8972 23.665 40.9847 23.665 41.0731C23.665 41.1615 23.6824 41.2491 23.7162 41.3308C23.75 41.4126 23.7996 41.4868 23.8621 41.5493C23.9246 41.6119 23.9988 41.6615 24.0805 41.6953C24.1622 41.7292 24.2498 41.7466 24.3382 41.7466H30.117C30.2055 41.7466 30.293 41.7291 30.3747 41.6953C30.4564 41.6614 30.5306 41.6118 30.5931 41.5493C30.6556 41.4867 30.7052 41.4125 30.739 41.3308C30.7728 41.2491 30.7902 41.1615 30.7902 41.0731ZM35.2003 41.0731C35.2002 41.1615 35.2176 41.2491 35.2514 41.3308C35.2853 41.4125 35.3348 41.4867 35.3973 41.5493C35.4598 41.6118 35.534 41.6614 35.6157 41.6953C35.6974 41.7291 35.785 41.7466 35.8734 41.7466H38.0771C38.1662 41.7476 38.2546 41.731 38.3371 41.6976C38.4197 41.6642 38.4949 41.6148 38.5583 41.5521C38.6216 41.4895 38.6719 41.4149 38.7062 41.3327C38.7406 41.2505 38.7582 41.1623 38.7582 41.0733C38.7582 40.9842 38.7406 40.896 38.7062 40.8138C38.6719 40.7316 38.6216 40.657 38.5583 40.5944C38.4949 40.5317 38.4197 40.4823 38.3371 40.4489C38.2546 40.4155 38.1662 40.3989 38.0771 40.3999H35.8734C35.6948 40.4 35.5237 40.4709 35.3974 40.5971C35.2712 40.7234 35.2003 40.8946 35.2003 41.0731ZM31.5339 32.7134H33.8582C33.9472 32.7144 34.0356 32.6977 34.1182 32.6644C34.2008 32.631 34.276 32.5815 34.3393 32.5189C34.4027 32.4563 34.453 32.3817 34.4873 32.2995C34.5216 32.2173 34.5393 32.1291 34.5393 32.04C34.5393 31.9509 34.5216 31.8627 34.4873 31.7805C34.453 31.6983 34.4027 31.6238 34.3393 31.5611C34.276 31.4985 34.2008 31.4491 34.1182 31.4157C34.0356 31.3823 33.9472 31.3657 33.8582 31.3667H31.5339C31.3553 31.3667 31.184 31.4376 31.0578 31.5639C30.9315 31.6902 30.8605 31.8614 30.8605 32.04C30.8605 32.2186 30.9315 32.3899 31.0578 32.5161C31.184 32.6424 31.3553 32.7134 31.5339 32.7134ZM36.4616 32.7134H50.6441C50.7325 32.7134 50.8201 32.6959 50.9017 32.6621C50.9834 32.6282 51.0576 32.5786 51.1202 32.5161C51.1827 32.4535 51.2322 32.3793 51.266 32.2976C51.2999 32.2159 51.3172 32.1283 51.3172 32.0399C51.3172 31.9515 51.2998 31.8639 51.266 31.7823C51.2322 31.7006 51.1826 31.6264 51.1201 31.5638C51.0576 31.5013 50.9834 31.4517 50.9017 31.4179C50.82 31.3841 50.7325 31.3667 50.6441 31.3667H36.4616C36.283 31.3667 36.1117 31.4376 35.9855 31.5639C35.8592 31.6902 35.7882 31.8614 35.7882 32.04C35.7882 32.2186 35.8592 32.3899 35.9855 32.5161C36.1117 32.6424 36.283 32.7134 36.4616 32.7134ZM48.4899 34.3288H42.7448C42.5662 34.3288 42.3949 34.3997 42.2687 34.526C42.1424 34.6522 42.0715 34.8235 42.0715 35.0021C42.0715 35.1806 42.1424 35.3519 42.2687 35.4781C42.3949 35.6044 42.5662 35.6754 42.7448 35.6754H48.4899C48.6684 35.6754 48.8397 35.6044 48.966 35.4781C49.0922 35.3519 49.1632 35.1806 49.1632 35.0021C49.1632 34.8235 49.0922 34.6522 48.966 34.526C48.8397 34.3997 48.6684 34.3288 48.4899 34.3288ZM40.5907 34.3288H38.6158C38.5274 34.3288 38.4398 34.3462 38.3581 34.38C38.2764 34.4139 38.2022 34.4635 38.1397 34.526C38.0772 34.5886 38.0276 34.6628 37.9938 34.7445C37.96 34.8262 37.9426 34.9138 37.9427 35.0022C37.9427 35.0906 37.9601 35.1782 37.9939 35.2598C38.0277 35.3415 38.0773 35.4157 38.1398 35.4782C38.2023 35.5407 38.2765 35.5903 38.3582 35.6241C38.4399 35.658 38.5274 35.6754 38.6158 35.6754H40.5906C40.679 35.6754 40.7665 35.658 40.8482 35.6241C40.9298 35.5903 41.004 35.5407 41.0666 35.4782C41.1291 35.4157 41.1786 35.3415 41.2125 35.2598C41.2463 35.1782 41.2637 35.0906 41.2637 35.0022C41.2637 34.9138 41.2464 34.8262 41.2125 34.7445C41.1787 34.6628 41.1292 34.5886 41.0667 34.526C41.0041 34.4635 40.9299 34.4139 40.8482 34.38C40.7665 34.3462 40.679 34.3288 40.5906 34.3288H40.5907ZM31.5339 35.6754H36.3717C36.5503 35.6754 36.7216 35.6044 36.8478 35.4781C36.9741 35.3519 37.045 35.1806 37.045 35.0021C37.045 34.8235 36.9741 34.6522 36.8478 34.526C36.7216 34.3997 36.5503 34.3288 36.3717 34.3288H31.5339C31.4445 34.3273 31.3558 34.3436 31.2728 34.3768C31.1899 34.41 31.1143 34.4594 31.0506 34.522C30.9869 34.5847 30.9363 34.6594 30.9018 34.7418C30.8673 34.8242 30.8495 34.9127 30.8495 35.0021C30.8495 35.0914 30.8673 35.1799 30.9018 35.2623C30.9363 35.3447 30.9869 35.4194 31.0506 35.4821C31.1143 35.5448 31.1899 35.5941 31.2728 35.6273C31.3558 35.6605 31.4445 35.6768 31.5339 35.6754ZM30.1255 43.2156H25.5904C25.502 43.2156 25.4144 43.233 25.3327 43.2668C25.251 43.3006 25.1768 43.3502 25.1143 43.4127C25.0517 43.4752 25.0021 43.5494 24.9683 43.6311C24.9344 43.7128 24.917 43.8003 24.9169 43.8888C24.9169 43.9772 24.9344 44.0647 24.9682 44.1464C25.0021 44.2281 25.0517 44.3023 25.1142 44.3648C25.1768 44.4274 25.251 44.4769 25.3327 44.5108C25.4144 44.5446 25.502 44.562 25.5904 44.562H30.1255C30.304 44.5619 30.4752 44.491 30.6014 44.3647C30.7277 44.2385 30.7986 44.0673 30.7986 43.8888C30.7985 43.7102 30.7276 43.5391 30.6014 43.4128C30.4752 43.2866 30.304 43.2157 30.1255 43.2156ZM23.5283 43.2156H20.0439C19.9555 43.2156 19.8679 43.233 19.7863 43.2669C19.7046 43.3007 19.6304 43.3503 19.5679 43.4128C19.5054 43.4753 19.4558 43.5495 19.422 43.6312C19.3881 43.7128 19.3707 43.8004 19.3707 43.8888C19.3707 43.9772 19.3881 44.0647 19.4219 44.1464C19.4557 44.2281 19.5053 44.3023 19.5678 44.3648C19.6303 44.4273 19.7046 44.4769 19.7862 44.5107C19.8679 44.5446 19.9555 44.562 20.0439 44.562H23.5281C23.6165 44.562 23.7041 44.5446 23.7857 44.5107C23.8674 44.4769 23.9416 44.4273 24.0041 44.3648C24.0666 44.3023 24.1162 44.2281 24.15 44.1464C24.1839 44.0647 24.2013 43.9772 24.2012 43.8888C24.2012 43.8004 24.1838 43.7128 24.15 43.6312C24.1162 43.5495 24.0666 43.4753 24.0041 43.4128C23.9416 43.3503 23.8674 43.3007 23.7857 43.2669C23.704 43.233 23.6165 43.2156 23.5281 43.2156H23.5283ZM38.3466 43.2156H32.422C32.3336 43.2156 32.2461 43.233 32.1644 43.2669C32.0827 43.3007 32.0085 43.3503 31.946 43.4128C31.8835 43.4753 31.8339 43.5495 31.8001 43.6312C31.7663 43.7128 31.7489 43.8004 31.7489 43.8888C31.7489 43.9772 31.7663 44.0647 31.8001 44.1464C31.8339 44.2281 31.8835 44.3023 31.946 44.3648C32.0085 44.4273 32.0827 44.4769 32.1644 44.5107C32.246 44.5446 32.3336 44.562 32.422 44.562H38.3465C38.525 44.5619 38.6962 44.491 38.8225 44.3647C38.9487 44.2385 39.0196 44.0673 39.0196 43.8888C39.0196 43.7102 38.9487 43.5391 38.8224 43.4128C38.6962 43.2866 38.525 43.2157 38.3465 43.2156H38.3466ZM46.3585 39.7573H43.1189C42.9403 39.7573 42.7691 39.8283 42.6428 39.9545C42.5165 40.0808 42.4456 40.2521 42.4456 40.4306C42.4456 40.6092 42.5165 40.7805 42.6428 40.9067C42.7691 41.033 42.9403 41.1039 43.1189 41.1039H46.3585C46.4469 41.1039 46.5345 41.0865 46.6162 41.0527C46.6979 41.0188 46.7721 40.9692 46.8346 40.9067C46.8972 40.8441 46.9467 40.7699 46.9805 40.6882C47.0144 40.6065 47.0317 40.5189 47.0317 40.4305C47.0317 40.3421 47.0143 40.2545 46.9805 40.1728C46.9466 40.0912 46.8971 40.0169 46.8345 39.9544C46.772 39.8919 46.6978 39.8424 46.6161 39.8085C46.5344 39.7747 46.4469 39.7573 46.3585 39.7573ZM51.9801 41.1039H56.5534C56.6428 41.1054 56.7315 41.0891 56.8145 41.0559C56.8974 41.0227 56.973 40.9733 57.0367 40.9107C57.1004 40.848 57.1509 40.7733 57.1855 40.6909C57.22 40.6085 57.2378 40.52 57.2378 40.4306C57.2378 40.3413 57.22 40.2528 57.1855 40.1704C57.1509 40.088 57.1004 40.0133 57.0367 39.9506C56.973 39.8879 56.8974 39.8386 56.8145 39.8054C56.7315 39.7722 56.6428 39.7559 56.5534 39.7573H51.9802C51.8918 39.7573 51.8043 39.7747 51.7226 39.8086C51.641 39.8424 51.5667 39.892 51.5042 39.9545C51.4417 40.017 51.3922 40.0912 51.3583 40.1729C51.3245 40.2545 51.3071 40.3421 51.3071 40.4305C51.3071 40.5189 51.3245 40.6064 51.3583 40.6881C51.3921 40.7698 51.4417 40.8441 51.5042 40.9066C51.5667 40.9691 51.6409 41.0188 51.7226 41.0526C51.8043 41.0865 51.8918 41.1039 51.9802 41.1039H51.9801ZM49.6933 39.7573H48.6454C48.4668 39.7573 48.2956 39.8283 48.1693 39.9545C48.043 40.0808 47.9721 40.2521 47.9721 40.4306C47.9721 40.6092 48.043 40.7805 48.1693 40.9067C48.2956 41.033 48.4668 41.1039 48.6454 41.1039H49.6933C49.7818 41.1039 49.8693 41.0865 49.951 41.0527C50.0327 41.0188 50.1069 40.9692 50.1694 40.9067C50.2319 40.8441 50.2815 40.7699 50.3153 40.6882C50.3491 40.6065 50.3665 40.5189 50.3664 40.4305C50.3665 40.3421 50.3491 40.2545 50.3152 40.1729C50.2814 40.0912 50.2318 40.017 50.1693 39.9545C50.1068 39.892 50.0326 39.8424 49.9509 39.8086C49.8693 39.7747 49.7817 39.7573 49.6933 39.7573ZM43.1189 48.4404H46.3585C46.4469 48.4404 46.5345 48.423 46.6162 48.3892C46.6979 48.3554 46.7721 48.3058 46.8346 48.2433C46.8971 48.1808 46.9467 48.1065 46.9805 48.0248C47.0144 47.9431 47.0317 47.8556 47.0317 47.7672C47.0317 47.6788 47.0143 47.5912 46.9805 47.5095C46.9466 47.4279 46.8971 47.3536 46.8345 47.2911C46.772 47.2286 46.6978 47.1791 46.6161 47.1452C46.5344 47.1114 46.4469 47.094 46.3585 47.094H43.1189C42.9404 47.0941 42.7692 47.165 42.643 47.2912C42.5167 47.4175 42.4458 47.5887 42.4458 47.7672C42.4457 47.8556 42.4631 47.9431 42.497 48.0248C42.5308 48.1065 42.5803 48.1807 42.6429 48.2432C42.7054 48.3057 42.7796 48.3553 42.8612 48.3891C42.9429 48.423 43.0305 48.4404 43.1189 48.4404ZM51.9801 48.4404H56.5534C56.7319 48.4404 56.9032 48.3694 57.0294 48.2432C57.1556 48.117 57.2266 47.9457 57.2266 47.7672C57.2266 47.5887 57.1556 47.4175 57.0294 47.2912C56.9032 47.165 56.7319 47.094 56.5534 47.094H51.9802C51.8918 47.094 51.8043 47.1114 51.7226 47.1453C51.641 47.1791 51.5667 47.2287 51.5042 47.2912C51.4417 47.3537 51.3922 47.4279 51.3583 47.5096C51.3245 47.5912 51.3071 47.6788 51.3071 47.7672C51.3071 47.8556 51.3245 47.9431 51.3583 48.0248C51.3921 48.1065 51.4417 48.1807 51.5042 48.2432C51.5667 48.3057 51.6409 48.3553 51.7226 48.3891C51.8043 48.423 51.8918 48.4404 51.9802 48.4404H51.9801ZM48.6454 48.4404H49.6933C49.8719 48.4404 50.0431 48.3694 50.1693 48.2432C50.2956 48.117 50.3665 47.9457 50.3665 47.7672C50.3665 47.5887 50.2956 47.4175 50.1693 47.2912C50.0431 47.165 49.8719 47.094 49.6933 47.094H48.6454C48.557 47.094 48.4694 47.1114 48.3878 47.1452C48.3061 47.1791 48.2319 47.2286 48.1693 47.2911C48.1068 47.3536 48.0572 47.4279 48.0234 47.5095C47.9896 47.5912 47.9722 47.6788 47.9722 47.7672C47.9721 47.8556 47.9895 47.9431 48.0233 48.0248C48.0571 48.1065 48.1067 48.1808 48.1693 48.2433C48.2318 48.3058 48.306 48.3554 48.3877 48.3892C48.4694 48.423 48.557 48.4404 48.6454 48.4404ZM46.3585 54.4307H43.1189C42.7472 54.4307 42.4458 54.7323 42.4458 55.1039C42.4458 55.4755 42.7472 55.7771 43.1189 55.7771H46.3585C46.7305 55.7771 47.0317 55.4755 47.0317 55.1039C47.0317 54.7322 46.7305 54.4307 46.3585 54.4307ZM56.5534 54.4307H51.9802C51.6083 54.4307 51.3071 54.7323 51.3071 55.1039C51.3071 55.4755 51.6082 55.7771 51.9802 55.7771H56.5535C56.9255 55.7771 57.227 55.4755 57.227 55.1039C57.227 54.7322 56.9255 54.4307 56.5535 54.4307H56.5534ZM49.6933 54.4307H48.6454C48.2733 54.4307 47.9718 54.7323 47.9718 55.1039C47.9718 55.4755 48.2733 55.7771 48.6454 55.7771H49.6933C50.0653 55.7771 50.3664 55.4755 50.3664 55.1039C50.3664 54.7322 50.0653 54.4307 49.6933 54.4307Z" fill="#0E556C" stroke="white" stroke-width="4" mask="url(#path-2-inside-1_2162_22649)"/>
<mask id="path-3-inside-2_2162_22649" fill="white">
<path d="M59.0376 17.9999H18.9631C17.3294 17.9999 16 19.3289 16 20.9629V53.5376C16 55.1712 17.3294 56.5003 18.9631 56.5003H21.4967C21.5851 56.5003 21.6726 56.4829 21.7543 56.4491C21.836 56.4153 21.9102 56.3657 21.9727 56.3032C22.0352 56.2407 22.0848 56.1665 22.1186 56.0848C22.1524 56.0031 22.1698 55.9156 22.1698 55.8272C22.1698 55.6487 22.0988 55.4775 21.9726 55.3513C21.8464 55.225 21.6752 55.1541 21.4967 55.1541H18.9631C18.0717 55.1541 17.3466 54.429 17.3466 53.5376V50.9836H41.8738V52.1438H41.34C40.6097 52.1438 40.0159 52.7377 40.0159 53.468V55.154H25.5898C25.4113 55.154 25.2401 55.225 25.1139 55.3512C24.9877 55.4774 24.9168 55.6486 24.9167 55.8271C24.9167 55.9155 24.9341 56.003 24.9679 56.0847C25.0017 56.1664 25.0513 56.2406 25.1138 56.3031C25.1763 56.3656 25.2505 56.4152 25.3322 56.449C25.4139 56.4828 25.5014 56.5002 25.5898 56.5002H32.0628V58.9148H30.0301C28.674 58.9148 27.5711 60.0182 27.5711 61.374V62.8283C27.5711 63.4471 28.0742 63.9503 28.693 63.9503H49.2561C49.8749 63.9503 50.3782 63.4471 50.3782 62.8283V61.3741C50.3782 60.0183 49.2751 58.9149 47.919 58.9149H45.8863V58.0639H58.3322C59.0622 58.0639 59.656 57.47 59.656 56.7396V56.4228C60.9682 56.1182 61.9491 54.9407 61.9491 53.5376L62 20.9627C62.0004 19.3289 60.6713 17.9999 59.0376 17.9999ZM41.3625 49.3808V46.1538H58.3097V49.3808H41.3625ZM43.2201 44.8072V43.3907H56.4517V44.8072H43.2201ZM56.4517 50.7271V52.1439H43.2202V50.7271H56.4517ZM33.4092 56.5004H40.0159V56.7401C40.0159 57.4701 40.6097 58.0639 41.34 58.0639H44.54V58.9149H33.4092V56.5004ZM47.9193 60.2616C48.5329 60.2616 49.0319 60.7606 49.0319 61.3742V62.6041H28.9172V61.3742C28.9172 60.7606 29.4167 60.2616 30.0301 60.2616H47.9193ZM58.3097 56.7173H41.3625V53.4906H58.3097V56.7173ZM60.6028 53.5377C60.6028 54.1898 60.214 54.7516 59.6563 55.0067V53.4678C59.6563 52.7378 59.0622 52.1439 58.3322 52.1439H57.7983V50.9837H60.6028V53.5377ZM60.6028 49.6375H59.6343C59.6479 49.5613 59.6563 46.1314 59.6563 46.1314C59.6563 45.4011 59.0622 44.8073 58.3322 44.8073H57.7983V43.3908H58.3322C59.0622 43.3908 59.6563 42.7967 59.6563 42.0667V38.7947C59.6563 38.0647 59.0622 37.4706 58.3322 37.4706H54.5296C54.4412 37.4706 54.3536 37.488 54.2719 37.5219C54.1902 37.5557 54.116 37.6053 54.0535 37.6679C53.9909 37.7304 53.9414 37.8046 53.9076 37.8864C53.8737 37.9681 53.8564 38.0556 53.8564 38.1441C53.8564 38.2325 53.8738 38.32 53.9076 38.4017C53.9415 38.4834 53.991 38.5576 54.0536 38.6201C54.1161 38.6826 54.1903 38.7322 54.272 38.766C54.3537 38.7998 54.4412 38.8172 54.5296 38.8172H58.3097V42.0442H41.3625V38.8172H50.3406C50.429 38.8172 50.5165 38.7998 50.5982 38.766C50.6799 38.7322 50.7541 38.6826 50.8166 38.6201C50.8791 38.5576 50.9287 38.4834 50.9625 38.4017C50.9963 38.32 51.0137 38.2325 51.0137 38.1441C51.0138 38.0557 50.9964 37.9681 50.9626 37.8864C50.9288 37.8047 50.8792 37.7304 50.8167 37.6679C50.7542 37.6053 50.68 37.5557 50.5983 37.5219C50.5166 37.488 50.429 37.4706 50.3406 37.4706H41.34C40.6097 37.4706 40.0159 38.0647 40.0159 38.7947V42.0667C40.0159 42.7967 40.6097 43.3908 41.34 43.3908H41.8738V44.8073H41.34C40.6097 44.8073 40.0159 45.4014 40.0159 46.1314C40.0159 46.1314 40.0242 49.5613 40.038 49.6375H17.3466V27.1577H60.6028V49.6375ZM60.6028 25.8111H17.3962V20.9627C17.3962 20.0716 18.1212 19.3465 19.0127 19.3465H58.9864C59.8779 19.3465 60.6029 20.0715 60.6029 20.9629L60.6028 25.8111Z"/>
</mask>
<path d="M59.0376 17.9999H18.9631C17.3294 17.9999 16 19.3289 16 20.9629V53.5376C16 55.1712 17.3294 56.5003 18.9631 56.5003H21.4967C21.5851 56.5003 21.6726 56.4829 21.7543 56.4491C21.836 56.4153 21.9102 56.3657 21.9727 56.3032C22.0352 56.2407 22.0848 56.1665 22.1186 56.0848C22.1524 56.0031 22.1698 55.9156 22.1698 55.8272C22.1698 55.6487 22.0988 55.4775 21.9726 55.3513C21.8464 55.225 21.6752 55.1541 21.4967 55.1541H18.9631C18.0717 55.1541 17.3466 54.429 17.3466 53.5376V50.9836H41.8738V52.1438H41.34C40.6097 52.1438 40.0159 52.7377 40.0159 53.468V55.154H25.5898C25.4113 55.154 25.2401 55.225 25.1139 55.3512C24.9877 55.4774 24.9168 55.6486 24.9167 55.8271C24.9167 55.9155 24.9341 56.003 24.9679 56.0847C25.0017 56.1664 25.0513 56.2406 25.1138 56.3031C25.1763 56.3656 25.2505 56.4152 25.3322 56.449C25.4139 56.4828 25.5014 56.5002 25.5898 56.5002H32.0628V58.9148H30.0301C28.674 58.9148 27.5711 60.0182 27.5711 61.374V62.8283C27.5711 63.4471 28.0742 63.9503 28.693 63.9503H49.2561C49.8749 63.9503 50.3782 63.4471 50.3782 62.8283V61.3741C50.3782 60.0183 49.2751 58.9149 47.919 58.9149H45.8863V58.0639H58.3322C59.0622 58.0639 59.656 57.47 59.656 56.7396V56.4228C60.9682 56.1182 61.9491 54.9407 61.9491 53.5376L62 20.9627C62.0004 19.3289 60.6713 17.9999 59.0376 17.9999ZM41.3625 49.3808V46.1538H58.3097V49.3808H41.3625ZM43.2201 44.8072V43.3907H56.4517V44.8072H43.2201ZM56.4517 50.7271V52.1439H43.2202V50.7271H56.4517ZM33.4092 56.5004H40.0159V56.7401C40.0159 57.4701 40.6097 58.0639 41.34 58.0639H44.54V58.9149H33.4092V56.5004ZM47.9193 60.2616C48.5329 60.2616 49.0319 60.7606 49.0319 61.3742V62.6041H28.9172V61.3742C28.9172 60.7606 29.4167 60.2616 30.0301 60.2616H47.9193ZM58.3097 56.7173H41.3625V53.4906H58.3097V56.7173ZM60.6028 53.5377C60.6028 54.1898 60.214 54.7516 59.6563 55.0067V53.4678C59.6563 52.7378 59.0622 52.1439 58.3322 52.1439H57.7983V50.9837H60.6028V53.5377ZM60.6028 49.6375H59.6343C59.6479 49.5613 59.6563 46.1314 59.6563 46.1314C59.6563 45.4011 59.0622 44.8073 58.3322 44.8073H57.7983V43.3908H58.3322C59.0622 43.3908 59.6563 42.7967 59.6563 42.0667V38.7947C59.6563 38.0647 59.0622 37.4706 58.3322 37.4706H54.5296C54.4412 37.4706 54.3536 37.488 54.2719 37.5219C54.1902 37.5557 54.116 37.6053 54.0535 37.6679C53.9909 37.7304 53.9414 37.8046 53.9076 37.8864C53.8737 37.9681 53.8564 38.0556 53.8564 38.1441C53.8564 38.2325 53.8738 38.32 53.9076 38.4017C53.9415 38.4834 53.991 38.5576 54.0536 38.6201C54.1161 38.6826 54.1903 38.7322 54.272 38.766C54.3537 38.7998 54.4412 38.8172 54.5296 38.8172H58.3097V42.0442H41.3625V38.8172H50.3406C50.429 38.8172 50.5165 38.7998 50.5982 38.766C50.6799 38.7322 50.7541 38.6826 50.8166 38.6201C50.8791 38.5576 50.9287 38.4834 50.9625 38.4017C50.9963 38.32 51.0137 38.2325 51.0137 38.1441C51.0138 38.0557 50.9964 37.9681 50.9626 37.8864C50.9288 37.8047 50.8792 37.7304 50.8167 37.6679C50.7542 37.6053 50.68 37.5557 50.5983 37.5219C50.5166 37.488 50.429 37.4706 50.3406 37.4706H41.34C40.6097 37.4706 40.0159 38.0647 40.0159 38.7947V42.0667C40.0159 42.7967 40.6097 43.3908 41.34 43.3908H41.8738V44.8073H41.34C40.6097 44.8073 40.0159 45.4014 40.0159 46.1314C40.0159 46.1314 40.0242 49.5613 40.038 49.6375H17.3466V27.1577H60.6028V49.6375ZM60.6028 25.8111H17.3962V20.9627C17.3962 20.0716 18.1212 19.3465 19.0127 19.3465H58.9864C59.8779 19.3465 60.6029 20.0715 60.6029 20.9629L60.6028 25.8111Z" fill="#0E556C" stroke="white" stroke-width="4" mask="url(#path-3-inside-2_2162_22649)"/>
<mask id="path-4-inside-3_2162_22649" fill="white">
<path d="M20.9648 20.5839C19.8754 20.5839 18.9892 21.47 18.9892 22.5594C18.9892 23.6487 19.8754 24.5352 20.9648 24.5352C22.0541 24.5352 22.9406 23.6487 22.9406 22.5594C22.9406 21.47 22.0541 20.5839 20.9648 20.5839ZM20.9648 23.1886C20.618 23.1886 20.3355 22.9065 20.3355 22.5594C20.3355 22.2126 20.618 21.9301 20.9648 21.9301C21.3118 21.9301 21.594 22.2126 21.594 22.5594C21.5939 22.7262 21.5276 22.8862 21.4096 23.0042C21.2916 23.1221 21.1316 23.1885 20.9648 23.1886ZM25.995 20.5839C24.9056 20.5839 24.0191 21.47 24.0191 22.5594C24.0191 23.6487 24.9056 24.5352 25.995 24.5352C27.0843 24.5352 27.9705 23.6487 27.9705 22.5594C27.9705 21.47 27.084 20.5839 25.995 20.5839ZM25.995 23.1886C25.8281 23.1885 25.6681 23.1221 25.5502 23.0042C25.4322 22.8862 25.3658 22.7262 25.3657 22.5594C25.3657 22.2126 25.6478 21.9301 25.995 21.9301C26.3418 21.9301 26.6242 22.2126 26.6242 22.5594C26.6242 22.9064 26.3417 23.1886 25.995 23.1886ZM31.0248 20.5839C29.9354 20.5839 29.0493 21.47 29.0493 22.5594C29.0493 23.6487 29.9354 24.5352 31.0248 24.5352C32.1142 24.5352 33.0007 23.6487 33.0007 22.5594C33.0007 21.47 32.1142 20.5839 31.0248 20.5839ZM31.0248 23.1886C30.6781 23.1886 30.3955 22.9065 30.3955 22.5594C30.3955 22.2126 30.6781 21.9301 31.0248 21.9301C31.372 21.9301 31.6541 22.2126 31.6541 22.5594C31.6539 22.7262 31.5876 22.8862 31.4696 23.0042C31.3516 23.1221 31.1917 23.1885 31.0248 23.1886Z"/>
</mask>
<path d="M20.9648 20.5839C19.8754 20.5839 18.9892 21.47 18.9892 22.5594C18.9892 23.6487 19.8754 24.5352 20.9648 24.5352C22.0541 24.5352 22.9406 23.6487 22.9406 22.5594C22.9406 21.47 22.0541 20.5839 20.9648 20.5839ZM20.9648 23.1886C20.618 23.1886 20.3355 22.9065 20.3355 22.5594C20.3355 22.2126 20.618 21.9301 20.9648 21.9301C21.3118 21.9301 21.594 22.2126 21.594 22.5594C21.5939 22.7262 21.5276 22.8862 21.4096 23.0042C21.2916 23.1221 21.1316 23.1885 20.9648 23.1886ZM25.995 20.5839C24.9056 20.5839 24.0191 21.47 24.0191 22.5594C24.0191 23.6487 24.9056 24.5352 25.995 24.5352C27.0843 24.5352 27.9705 23.6487 27.9705 22.5594C27.9705 21.47 27.084 20.5839 25.995 20.5839ZM25.995 23.1886C25.8281 23.1885 25.6681 23.1221 25.5502 23.0042C25.4322 22.8862 25.3658 22.7262 25.3657 22.5594C25.3657 22.2126 25.6478 21.9301 25.995 21.9301C26.3418 21.9301 26.6242 22.2126 26.6242 22.5594C26.6242 22.9064 26.3417 23.1886 25.995 23.1886ZM31.0248 20.5839C29.9354 20.5839 29.0493 21.47 29.0493 22.5594C29.0493 23.6487 29.9354 24.5352 31.0248 24.5352C32.1142 24.5352 33.0007 23.6487 33.0007 22.5594C33.0007 21.47 32.1142 20.5839 31.0248 20.5839ZM31.0248 23.1886C30.6781 23.1886 30.3955 22.9065 30.3955 22.5594C30.3955 22.2126 30.6781 21.9301 31.0248 21.9301C31.372 21.9301 31.6541 22.2126 31.6541 22.5594C31.6539 22.7262 31.5876 22.8862 31.4696 23.0042C31.3516 23.1221 31.1917 23.1885 31.0248 23.1886Z" fill="#0E556C"/>
<path d="M20.9648 23.1886L20.9648 25.1886L20.9665 25.1886L20.9648 23.1886ZM21.594 22.5594L23.594 22.5611V22.5594H21.594ZM25.995 23.1886L25.9933 25.1886H25.995V23.1886ZM25.3657 22.5594L23.3657 22.5594L23.3657 22.5611L25.3657 22.5594ZM31.0248 23.1886L31.0248 25.1886L31.0265 25.1886L31.0248 23.1886ZM31.6541 22.5594L33.6541 22.5611V22.5594H31.6541ZM20.9648 18.5839C18.771 18.5839 16.9892 20.3653 16.9892 22.5594H20.9892C20.9892 22.5591 20.9892 22.5608 20.9886 22.5637C20.988 22.5664 20.9872 22.5691 20.9862 22.5714C20.9844 22.5756 20.9829 22.5771 20.9826 22.5774C20.9824 22.5776 20.9809 22.5791 20.9767 22.5809C20.9744 22.5819 20.9718 22.5827 20.969 22.5833C20.9662 22.5839 20.9645 22.5839 20.9648 22.5839V18.5839ZM16.9892 22.5594C16.9892 24.7529 18.7705 26.5352 20.9648 26.5352V22.5352C20.9646 22.5352 20.9663 22.5352 20.9692 22.5358C20.972 22.5364 20.9746 22.5372 20.9769 22.5382C20.9811 22.54 20.9827 22.5415 20.9828 22.5417C20.983 22.5419 20.9845 22.5433 20.9863 22.5475C20.9872 22.5497 20.988 22.5524 20.9886 22.5551C20.9892 22.558 20.9892 22.5596 20.9892 22.5594H16.9892ZM20.9648 26.5352C23.1587 26.5352 24.9406 24.7533 24.9406 22.5594H20.9406C20.9406 22.5596 20.9406 22.5579 20.9412 22.555C20.9418 22.5522 20.9426 22.5496 20.9436 22.5473C20.9454 22.5432 20.9469 22.5417 20.947 22.5416C20.9471 22.5415 20.9486 22.5399 20.9528 22.5382C20.955 22.5372 20.9576 22.5364 20.9604 22.5358C20.9633 22.5352 20.965 22.5352 20.9648 22.5352V26.5352ZM24.9406 22.5594C24.9406 20.365 23.1582 18.5839 20.9648 18.5839V22.5839C20.965 22.5839 20.9634 22.5839 20.9606 22.5833C20.9578 22.5827 20.9552 22.5819 20.953 22.5809C20.9488 22.5792 20.9474 22.5777 20.9472 22.5775C20.947 22.5773 20.9454 22.5758 20.9436 22.5715C20.9427 22.5692 20.9418 22.5666 20.9412 22.5638C20.9406 22.5608 20.9406 22.5592 20.9406 22.5594H24.9406ZM20.9648 21.1886C21.7218 21.1886 22.3355 21.8012 22.3355 22.5594H18.3355C18.3355 24.0118 19.5142 25.1886 20.9648 25.1886V21.1886ZM22.3355 22.5594C22.3355 23.3171 21.7226 23.9301 20.9648 23.9301V19.9301C19.5134 19.9301 18.3355 21.108 18.3355 22.5594H22.3355ZM20.9648 23.9301C20.2065 23.9301 19.594 23.3165 19.594 22.5594H23.594C23.594 21.1088 22.4172 19.9301 20.9648 19.9301V23.9301ZM19.594 22.5576C19.5944 22.1947 19.7387 21.8466 19.9954 21.5899L22.8238 24.4184C23.3164 23.9257 23.5935 23.2578 23.594 22.5611L19.594 22.5576ZM19.9954 21.5899C20.252 21.3333 20.6001 21.1889 20.9631 21.1886L20.9665 25.1886C21.6632 25.188 22.3312 24.911 22.8238 24.4184L19.9954 21.5899ZM25.995 18.5839C23.8015 18.5839 22.0191 20.365 22.0191 22.5594H26.0191C26.0191 22.5592 26.0191 22.5608 26.0185 22.5638C26.0179 22.5666 26.0171 22.5692 26.0161 22.5715C26.0143 22.5758 26.0127 22.5773 26.0126 22.5775C26.0124 22.5777 26.0109 22.5792 26.0068 22.5809C26.0045 22.5819 26.0019 22.5827 25.9992 22.5833C25.9963 22.5839 25.9947 22.5839 25.995 22.5839V18.5839ZM22.0191 22.5594C22.0191 24.7533 23.801 26.5352 25.995 26.5352V22.5352C25.9948 22.5352 25.9964 22.5352 25.9993 22.5358C26.0021 22.5364 26.0047 22.5372 26.007 22.5382C26.0112 22.5399 26.0126 22.5415 26.0127 22.5416C26.0129 22.5417 26.0144 22.5432 26.0162 22.5473C26.0171 22.5496 26.0179 22.5522 26.0185 22.555C26.0191 22.5579 26.0191 22.5596 26.0191 22.5594H22.0191ZM25.995 26.5352C28.1894 26.5352 29.9705 24.7528 29.9705 22.5594H25.9705C25.9705 22.5596 25.9705 22.558 25.9711 22.5551C25.9716 22.5524 25.9724 22.5498 25.9734 22.5476C25.9752 22.5434 25.9767 22.5419 25.9768 22.5418C25.977 22.5416 25.9785 22.54 25.9828 22.5382C25.9851 22.5372 25.9878 22.5364 25.9906 22.5358C25.9935 22.5352 25.9952 22.5352 25.995 22.5352V26.5352ZM29.9705 22.5594C29.9705 20.3652 28.1883 18.5839 25.995 18.5839V22.5839C25.9951 22.5839 25.9934 22.5838 25.9905 22.5833C25.9877 22.5827 25.9851 22.5818 25.9828 22.5809C25.9786 22.5791 25.9771 22.5776 25.977 22.5774C25.9768 22.5772 25.9753 22.5757 25.9735 22.5715C25.9725 22.5692 25.9716 22.5665 25.9711 22.5638C25.9705 22.5608 25.9705 22.5592 25.9705 22.5594H29.9705ZM25.9967 21.1886C26.3597 21.1889 26.7077 21.3333 26.9644 21.5899L24.136 24.4184C24.6286 24.911 25.2966 25.188 25.9933 25.1886L25.9967 21.1886ZM26.9644 21.5899C27.2211 21.8466 27.3654 22.1947 27.3657 22.5576L23.3657 22.5611C23.3663 23.2578 23.6433 23.9257 24.136 24.4184L26.9644 21.5899ZM27.3657 22.5594C27.3657 23.3164 26.7531 23.9301 25.995 23.9301V19.9301C24.5425 19.9301 23.3657 21.1087 23.3657 22.5594H27.3657ZM25.995 23.9301C25.237 23.9301 24.6242 23.317 24.6242 22.5594H28.6242C28.6242 21.1083 27.4465 19.9301 25.995 19.9301V23.9301ZM24.6242 22.5594C24.6242 21.8011 25.2379 21.1886 25.995 21.1886V25.1886C27.4455 25.1886 28.6242 24.0117 28.6242 22.5594H24.6242ZM31.0248 18.5839C28.8309 18.5839 27.0493 20.3654 27.0493 22.5594H31.0493C31.0493 22.5591 31.0493 22.5607 31.0487 22.5636C31.0481 22.5664 31.0473 22.569 31.0463 22.5713C31.0445 22.5755 31.043 22.5771 31.0428 22.5773C31.0425 22.5775 31.041 22.5791 31.0367 22.5809C31.0345 22.5819 31.0318 22.5827 31.0291 22.5833C31.0262 22.5839 31.0245 22.5839 31.0248 22.5839V18.5839ZM27.0493 22.5594C27.0493 24.7528 28.8304 26.5352 31.0248 26.5352V22.5352C31.0246 22.5352 31.0263 22.5352 31.0292 22.5358C31.032 22.5364 31.0347 22.5372 31.037 22.5382C31.0412 22.54 31.0428 22.5416 31.0429 22.5418C31.0431 22.5419 31.0446 22.5434 31.0464 22.5476C31.0473 22.5498 31.0482 22.5524 31.0487 22.5551C31.0493 22.558 31.0493 22.5596 31.0493 22.5594H27.0493ZM31.0248 26.5352C33.2186 26.5352 35.0007 24.7534 35.0007 22.5594H31.0007C31.0007 22.5595 31.0008 22.5579 31.0014 22.555C31.0019 22.5522 31.0028 22.5495 31.0037 22.5473C31.0055 22.5431 31.007 22.5416 31.0071 22.5415C31.0072 22.5414 31.0087 22.5399 31.0128 22.5382C31.0151 22.5372 31.0177 22.5364 31.0204 22.5358C31.0233 22.5352 31.025 22.5352 31.0248 22.5352V26.5352ZM35.0007 22.5594C35.0007 20.3648 33.2181 18.5839 31.0248 18.5839V22.5839C31.0251 22.5839 31.0234 22.5839 31.0206 22.5833C31.0179 22.5827 31.0153 22.5819 31.013 22.5809C31.0089 22.5792 31.0075 22.5777 31.0073 22.5775C31.0071 22.5774 31.0056 22.5758 31.0038 22.5716C31.0028 22.5693 31.0019 22.5666 31.0014 22.5638C31.0008 22.5609 31.0007 22.5592 31.0007 22.5594H35.0007ZM31.0248 21.1886C31.7817 21.1886 32.3955 21.801 32.3955 22.5594H28.3955C28.3955 24.012 29.5745 25.1886 31.0248 25.1886V21.1886ZM32.3955 22.5594C32.3955 23.3173 31.7825 23.9301 31.0248 23.9301V19.9301C29.5737 19.9301 28.3955 21.1078 28.3955 22.5594H32.3955ZM31.0248 23.9301C30.2665 23.9301 29.6541 23.3163 29.6541 22.5594H33.6541C33.6541 21.109 32.4775 19.9301 31.0248 19.9301V23.9301ZM29.6541 22.5576C29.6544 22.1946 29.7987 21.8466 30.0554 21.5899L32.8838 24.4184C33.3764 23.9257 33.6535 23.2578 33.6541 22.5611L29.6541 22.5576ZM30.0554 21.5899C30.3121 21.3333 30.6601 21.1889 31.0231 21.1886L31.0265 25.1886C31.7232 25.188 32.3912 24.911 32.8838 24.4184L30.0554 21.5899Z" fill="white" mask="url(#path-4-inside-3_2162_22649)"/>
</g>
<defs>
<clipPath id="clip0_2162_22649">
<rect width="48" height="48" fill="white" transform="translate(16 16)"/>
</clipPath>
</defs>
</svg>
