<svg width="34" height="34" viewBox="0 0 34 34" fill="none" xmlns="http://www.w3.org/2000/svg">
<path fill-rule="evenodd" clip-rule="evenodd" d="M0.654844 17.9493C0.709844 18.4443 0.874842 18.8293 1.14984 19.2693C1.75485 20.1493 2.46985 20.6443 3.56985 20.4793C4.72486 20.3143 5.54987 20.8093 5.93488 21.9093C5.98988 22.0743 6.09988 22.2393 6.20988 22.4043C6.48488 22.7893 6.37487 23.1743 6.15487 23.4493C5.71487 23.9443 5.21986 24.3843 4.72486 24.8793C4.00986 25.6493 3.89985 26.1443 4.39486 27.0793C4.72486 27.7393 5.05486 28.3443 5.54987 28.8943C6.26487 29.7193 7.14487 30.0493 8.18987 30.1043C8.73988 30.1043 9.12489 29.9943 9.50989 29.6093C9.7849 29.2793 10.1149 29.0043 10.4449 28.6743C11.0499 28.0693 11.7649 28.0693 12.4249 28.3443C13.1399 28.6743 13.7449 29.1143 13.7999 30.0493C13.7999 30.6543 13.8549 31.3143 13.7999 31.9193C13.7999 32.5793 14.1299 33.0743 14.6249 33.3493C15.8899 33.9544 17.2099 34.2294 18.5849 33.7894C19.2449 33.5694 19.8499 33.0193 20.2899 32.4693C20.5649 32.1393 20.5099 31.5893 20.5649 31.0943C20.6199 30.8193 20.5649 30.4893 20.5649 30.2143C20.5099 29.7193 20.73 29.3343 21.06 29.0593C21.555 28.6193 22.105 28.1793 22.655 27.8493C23.04 27.6293 23.48 27.7393 23.865 28.0693C24.305 28.5093 24.745 28.9493 25.24 29.3893C26.01 30.1043 26.56 30.1043 27.495 29.7193C28.375 29.3343 29.09 28.6743 29.75 27.9593C30.025 27.6293 30.19 27.2443 30.3 26.8043C30.575 25.6493 30.3 24.7693 29.365 23.9993C28.265 23.0643 28.155 22.0193 28.87 20.8093C29.09 20.3693 29.475 20.2593 29.97 20.2043C30.685 20.2043 31.4 20.1493 32.115 20.0943C32.72 20.0943 33.16 19.7093 33.38 19.2143C33.93 18.0043 34.205 16.6843 33.82 15.4193C33.655 14.7593 33.05 14.2092 32.555 13.7142C32.225 13.3292 31.675 13.3842 31.18 13.4392C30.96 13.4392 30.795 13.4392 30.575 13.4392C30.025 13.4942 29.475 13.4942 29.09 12.9992C28.705 12.4492 28.375 11.8442 28.155 11.2392C28.045 11.0192 28.32 10.5792 28.485 10.3592C28.925 9.80923 29.42 9.36923 29.86 8.87422C30.465 8.26922 30.465 7.60922 30.135 6.89421C29.695 5.95921 29.09 5.1342 28.32 4.5292C27.99 4.2542 27.605 4.0342 27.165 3.9792C25.57 3.7592 25.515 3.70419 24.415 4.9142C23.7 5.6842 22.985 5.95921 21.9949 5.6842C21.6099 5.5742 21.17 5.57421 20.785 5.51921C20.455 5.2442 20.4549 4.8592 20.4549 4.4742C20.4549 3.8692 20.4549 3.20919 20.4549 2.60419C20.4549 1.94419 20.0699 1.50418 19.5199 1.22918C18.4199 0.73418 17.2099 0.569179 15.9999 0.679179C15.1749 0.78918 14.6799 1.44918 14.0749 1.88919C13.6349 2.21919 13.6899 2.76919 13.6899 3.26419C13.6899 3.53919 13.6899 3.8692 13.6899 4.1442C13.6349 5.2442 12.6999 6.12421 11.5999 6.12421C11.3249 6.12421 11.0499 5.95921 10.8299 5.79421C10.3349 5.35421 9.83989 4.8592 9.39989 4.3642C8.79488 3.75919 8.13488 3.70419 7.41987 4.0342C6.48487 4.4742 5.65987 5.0242 4.99986 5.79421C4.61486 6.23421 4.44985 6.61921 4.33985 7.22421C4.17485 8.26922 4.33986 9.09422 5.21986 9.75423C6.09987 10.4142 6.26487 11.2392 5.87987 12.3392C5.43987 13.6592 5.49486 13.6592 4.11986 13.6592C3.62485 13.6592 3.12985 13.6592 2.68984 13.6592C1.91984 13.6592 1.42484 14.0992 1.14984 14.7593C0.764841 15.8043 0.599844 16.8493 0.654844 17.9493ZM2.57985 14.8693C3.23986 14.8693 3.95485 14.8693 4.66986 14.8143C5.93486 14.7593 7.30988 13.5492 7.52988 12.3392C7.52988 12.1742 7.58488 12.0092 7.52988 11.8992C7.14488 10.9092 7.14487 9.69922 6.04487 9.03922C5.76986 8.87422 5.60487 8.54422 5.38487 8.37922C5.43987 6.39921 5.82487 5.95921 8.29988 5.0242C8.57488 5.2442 8.84988 5.4642 9.12488 5.7392C9.45489 6.06921 9.78489 6.39921 10.1699 6.72921C10.8849 7.38921 11.7649 7.33422 12.6449 7.16921C13.3599 7.05921 13.9099 6.78421 14.2949 5.95921C14.5699 5.4092 14.7349 4.9142 14.7349 4.3642C14.7349 3.81419 14.7349 3.31919 14.7349 2.87919C15.4499 1.88919 16.3299 1.66918 17.3199 1.83418C17.7599 1.88918 18.1449 2.10919 18.5299 2.21919C19.0249 2.38419 19.2449 2.65919 19.2449 3.20919C19.2449 3.81419 19.2449 4.3642 19.2449 4.9692C19.2449 5.51921 19.4099 6.01421 19.7949 6.39921C20.2349 6.78421 20.6749 7.16921 21.1699 7.49922C21.6099 7.77422 22.1599 7.93922 22.545 7.33421C22.6 7.22421 22.82 7.11421 22.93 7.16921C23.975 7.27922 24.47 6.50921 25.075 5.90421C25.295 5.68421 25.515 5.3542 25.68 5.1342C26.395 5.2442 27 5.0792 27.495 5.4642C28.32 6.17921 28.98 6.94921 29.2 8.15922C28.815 8.59922 28.43 9.03922 28.045 9.42423C27.11 10.2492 26.89 11.2392 27.165 12.4492C27.44 13.7142 28.595 14.7593 29.915 14.7593C30.52 14.7593 31.18 14.7593 31.675 14.7593C32.775 15.4193 32.83 16.4093 32.775 17.4543C32.72 17.7843 32.555 18.1143 32.5 18.4443C32.39 19.1043 32.005 19.3243 31.4 19.3243C30.795 19.3243 30.245 19.3243 29.64 19.3793C28.265 19.4893 27.055 21.1943 27.165 22.5693C27.275 23.5593 27.605 24.3293 28.375 24.8793C28.705 25.0993 28.98 25.3743 29.145 25.5393C29.145 27.6293 28.485 28.3993 26.175 29.0593C25.68 28.6193 25.13 28.1243 24.635 27.6293C23.975 26.9693 23.205 26.8043 22.38 26.9693C21.555 27.1343 20.6199 27.1893 20.2899 28.2343C20.2349 28.5093 19.9599 28.6743 19.7399 28.8943C19.4649 29.1693 19.3549 29.5543 19.3549 29.9393C19.3549 30.5993 19.3549 31.3143 19.3549 31.9193C17.9799 33.2943 17.0999 33.3493 14.9549 32.2493C14.9549 31.7543 14.8449 31.1493 14.8999 30.5993C15.0099 29.1143 14.1849 28.2893 13.0849 27.5193C12.4249 27.0793 11.7099 27.1893 10.9949 27.1893C10.4449 27.1893 10.1149 27.5743 9.7849 27.9043C9.34489 28.2893 8.95989 28.7293 8.62989 29.0043C7.41988 29.1693 6.59487 28.6743 6.04487 27.8493C5.76986 27.5193 5.65986 27.0793 5.43986 26.6943C5.21986 26.3093 5.27487 25.9793 5.60487 25.6493C6.04487 25.2093 6.42987 24.7143 6.92487 24.3293C7.74988 23.6693 7.52988 21.3043 7.03488 20.6443C6.92488 20.5343 6.81488 20.4243 6.70488 20.3693C5.71487 19.8193 4.72487 19.2143 3.45986 19.4343C3.18486 19.4893 2.90986 19.3793 2.63486 19.3793C1.36985 17.7843 1.36985 16.9593 2.57985 14.8693Z" fill="#CDEBED"/>
<path fill-rule="evenodd" clip-rule="evenodd" d="M10.3339 18.1693C10.2789 19.3793 10.6089 20.3693 11.5439 21.1393C11.9289 21.4693 12.2589 21.9643 12.6439 22.2943C14.1289 23.6693 15.944 24.2193 17.924 24.1643C18.749 24.1643 19.519 23.9443 20.234 23.4493C20.454 23.2843 20.619 23.1743 20.839 23.0643C23.479 22.0193 24.249 19.7643 24.524 17.2893C24.744 14.8692 23.589 13.1092 21.554 11.8992C20.674 11.3492 19.739 10.8542 18.694 10.5792C17.759 10.3592 16.879 10.3592 15.944 10.4142C15.724 10.4142 15.449 10.4692 15.229 10.6342C12.8639 12.0092 11.0489 13.8792 10.4439 16.6843C10.3339 17.1793 10.3339 17.6743 10.3339 18.1693ZM11.6539 18.3343C11.7089 16.1343 12.3139 14.1542 14.294 12.8342C14.459 12.7242 14.624 12.6142 14.734 12.4492C15.724 11.3492 16.989 11.3492 18.309 11.5692C19.794 11.7892 20.784 12.8342 21.774 13.7692C22.214 14.1542 22.654 14.5942 22.874 15.0892C23.149 15.7492 23.149 16.4643 23.314 17.1793C23.259 17.1793 23.259 17.1793 23.204 17.1793C23.204 17.3443 23.204 17.4543 23.204 17.6193C23.259 19.0493 22.764 20.1493 21.554 20.9193C21.334 21.0843 21.059 21.2493 20.839 21.4693C18.694 23.2843 15.119 22.9543 13.2489 20.9193C12.9739 20.5893 12.6989 20.2593 12.3689 19.9843C11.8739 19.5993 11.6539 18.9943 11.6539 18.3343Z" fill="#CDEBED"/>
</svg>
