<svg width="52" height="51" viewBox="0 0 52 51" fill="none" xmlns="http://www.w3.org/2000/svg">
<path fill-rule="evenodd" clip-rule="evenodd" d="M43.3485 28.8049C44.7017 30.5446 45.8615 32.0911 47.118 33.5409C49.631 36.6339 50.4043 40.2101 50.1143 44.0763C50.0177 45.1395 49.0511 46.0094 47.7946 46.2027C46.9247 46.2993 46.0548 46.2993 45.0883 46.2993C44.1217 46.2027 43.4451 46.396 42.6719 47.0726C41.1254 48.2324 39.6756 47.9425 38.6124 46.2027C38.2258 45.6227 37.8392 45.2361 37.2593 44.9462C36.6794 44.7528 36.0994 44.4629 35.4228 44.2696C34.6496 43.9796 33.8764 43.7863 33.1031 43.4963C32.2332 44.0763 32.0399 44.9462 31.75 45.8161C30.9767 48.1358 29.5269 49.6822 27.2072 50.5521C25.6607 51.132 24.2109 51.1321 22.6645 50.6488C21.6013 50.2622 20.9247 49.5856 20.538 48.5224C19.6681 45.5261 18.7016 42.6265 18.5083 39.5335C18.5083 39.3402 18.315 39.0502 18.2183 38.8569C17.0585 38.6636 15.8986 38.8569 14.8354 39.2435C12.6124 39.9201 10.3893 39.9201 8.16628 40.2101C6.32984 40.4034 4.39674 40.3068 2.5603 40.3068C1.30379 40.3068 0.820526 39.8235 0.723871 38.567C0.627217 36.6339 0.917192 34.8941 2.36701 33.3476C4.10679 31.5112 5.84657 29.6747 8.16628 28.5149C8.45624 28.4182 8.64954 28.1283 8.9395 27.935C8.9395 26.6785 8.45623 25.7119 7.97296 24.6487C7.00641 22.4257 7.00641 20.0093 7.39302 17.6896C7.8763 14.8866 9.22946 13.6301 12.709 13.1468C14.4488 12.9535 16.2852 13.1468 18.025 13.2435C18.4116 13.2435 18.7983 13.3401 19.2815 13.4368C20.2481 12.4703 20.538 11.2138 21.118 10.0539C21.6979 8.89404 22.1812 7.63753 21.8912 6.28437C21.7945 5.99441 21.8912 5.60779 21.8912 5.31783C21.9879 4.25463 22.2778 3.67469 23.341 3.67469C24.5009 3.77135 25.0808 3.09477 25.7574 2.41819C27.6905 0.388446 30.2035 0.485101 32.6198 0.968373C33.2964 1.06503 33.973 1.83826 34.4563 2.51484C36.0994 4.64124 36.486 7.25091 36.6793 9.86058C36.776 11.1171 36.6793 12.4703 36.6793 13.7268C36.6793 14.3067 36.776 14.79 36.8726 15.4665C37.4526 15.4665 37.9358 15.4665 38.4191 15.3699C41.2221 14.6933 44.1217 14.8866 46.9247 14.79C49.3411 14.6933 51.4675 16.5297 51.0809 19.526C50.8876 20.9758 50.5009 22.2324 49.631 23.3922C48.3745 25.0353 47.2147 26.6785 45.4749 27.8383C44.605 27.7417 44.1217 28.1283 43.3485 28.8049ZM47.5046 43.7863C48.0846 40.5967 47.2147 37.987 45.6682 35.6673C44.605 34.0242 43.2519 32.5744 42.092 31.1246C41.802 30.738 41.4154 30.5446 41.1255 30.2547C38.9991 31.2212 36.9693 32.0911 35.0362 33.0577C34.3596 35.6673 33.683 38.1803 33.0065 40.8867C35.0362 41.6599 36.8727 42.4331 38.6124 43.1097C39.7723 42.8198 40.4489 41.6599 41.6087 41.8532C42.8652 42.0465 43.0586 43.2064 43.5418 43.883C44.895 43.7863 46.1515 43.7863 47.5046 43.7863ZM33.8764 16.0465C33.8764 13.4368 33.973 11.1171 33.8764 8.70073C33.7797 6.96095 33.3931 5.12451 32.4266 3.57804C32.1366 3.19142 31.75 2.70815 31.3634 2.70815C29.6236 2.41819 27.7871 2.22488 26.6273 4.25463C26.8206 4.7379 27.2072 5.22117 27.3039 5.8011C27.6905 7.15426 27.1105 8.02415 25.7574 8.31411C25.1775 8.41077 24.5009 8.50742 23.8243 8.60408C23.1477 10.2472 22.4711 11.8903 21.7946 13.5335C24.5009 14.8866 27.0139 16.1431 29.6236 17.3996C30.8801 17.013 32.2332 16.5297 33.8764 16.0465ZM19.7648 24.0688C19.7648 27.0651 19.7648 29.8681 19.7648 32.5744C19.7648 34.5075 20.828 35.2807 22.5678 34.7008C25.2741 33.8309 27.9804 32.8643 30.5901 31.8978C31.17 31.7045 31.75 31.3179 32.3299 31.0279C32.7165 28.5149 33.1031 26.0019 33.4897 23.4889C31.8466 22.2324 30.3001 21.0725 28.7537 19.9127C25.6607 20.9759 22.7611 22.619 19.7648 24.0688ZM36.486 17.6896C36.486 19.4294 36.486 21.0725 36.486 22.9089C38.1292 24.1655 39.7723 25.5186 41.4154 26.7751C44.2184 25.3253 46.2481 23.4889 47.6013 21.1692C47.9879 20.3959 48.2779 19.526 48.4712 18.6561C48.6645 17.3996 47.9879 16.5297 46.7314 16.5297C43.3485 16.4331 39.9656 16.4331 36.486 17.6896ZM18.2183 15.4665C16.6719 15.0799 13.3856 14.8866 12.3224 15.1766C10.8726 15.4665 9.71274 16.1431 9.42277 17.6896C8.84285 20.7825 9.61608 23.5855 11.2592 26.1952C13.4823 25.132 15.512 23.9721 17.3485 22.7156C17.6384 20.2026 17.9284 17.8829 18.2183 15.4665ZM20.538 37.8904C20.4414 38.0837 20.3447 38.277 20.3447 38.567C20.5381 40.8867 20.7314 43.2064 21.6012 45.4294C21.7946 45.9127 21.8912 46.5893 22.2778 46.9759C22.5678 47.3625 23.0511 47.8458 23.5343 47.9425C25.2741 48.3291 26.8206 47.7491 27.9804 46.4926C29.0436 45.3328 29.5269 43.7863 29.9135 42.1432C26.9172 40.6934 24.0176 39.2435 21.118 37.7937C20.9247 37.7937 20.7313 37.8904 20.538 37.8904ZM9.80939 29.4814C7.58633 30.448 5.74991 31.8012 4.20344 33.6376C3.33355 34.7008 2.65697 35.8606 3.23689 37.3105C6.32984 37.6971 7.29638 37.6004 9.42277 36.9238C9.51943 36.6339 9.51944 36.1506 9.6161 35.8606C9.90606 34.9908 10.2927 34.6041 11.1626 34.7008C11.7425 34.7974 12.4191 35.0874 12.9023 35.3774C13.289 35.5707 13.5789 36.054 13.9655 36.4406C15.0287 36.2473 15.9953 36.054 17.1551 35.8606C14.7388 33.6376 12.4191 31.6078 9.80939 29.4814ZM31.8466 34.1209C29.4303 35.0874 27.2072 35.764 24.7908 36.9238C26.7239 38.0837 28.3671 39.1469 30.3001 39.6302C30.9767 37.8904 31.6533 36.2473 31.8466 34.1209ZM16.9618 32.4777C17.1552 32.3811 17.3485 32.2844 17.4451 32.2844C17.3485 30.158 17.6384 28.0316 17.2518 25.5186C15.512 26.5818 13.8689 27.1617 12.3224 28.5149C13.9655 29.8681 15.512 31.1246 16.9618 32.4777ZM26.144 18.2695C24.2109 17.2063 22.6645 16.2398 20.7314 16.0465C20.2481 17.7863 19.6681 19.3327 20.0548 21.2658C20.6347 21.0725 21.2146 20.8792 21.6979 20.6859C22.9544 20.0093 24.5009 19.4294 26.144 18.2695ZM39.0957 28.3216C38.0325 27.1617 37.1626 26.4852 35.9061 25.9052C35.5195 27.2584 35.2295 28.4182 35.5195 29.7714C36.0994 29.5781 36.5827 29.4814 36.9693 29.3848C37.6459 29.0948 38.2258 28.7082 39.0957 28.3216ZM31.8466 19.1394C32.5232 19.6227 33.0065 19.9126 33.7797 20.4926C33.6831 19.6227 33.683 19.1394 33.5864 18.4628C33.0065 18.7528 32.5232 18.9461 31.8466 19.1394Z" fill="#C8ECEE"/>
<path fill-rule="evenodd" clip-rule="evenodd" d="M23.1491 27.935C22.7625 26.1952 24.1156 25.3253 25.4688 24.5521C26.3387 24.0688 27.4019 24.0688 28.2718 24.7454C28.5617 24.9387 28.8517 25.132 29.045 25.3253C30.8814 26.5818 30.9781 27.4517 29.8182 29.3848C28.8517 30.8346 27.6918 31.7045 25.8554 31.8012C24.4056 31.8012 23.0524 30.738 23.2457 29.2881C23.1491 28.8049 23.1491 28.5149 23.1491 27.935ZM28.4651 27.7417C28.0785 26.7751 27.4985 26.0986 26.6286 26.0019C24.9855 26.8718 24.7922 28.0316 25.3721 29.5781C26.9186 29.9647 27.6918 28.9982 28.4651 27.7417Z" fill="#C8ECEE"/>
</svg>
