<svg width="24" height="24" viewBox="0 0 24 24" fill="none" xmlns="http://www.w3.org/2000/svg">
<g clip-path="url(#clip0_1308_824)">
<path d="M18.9162 7.74614C18.003 3.92648 16.5182 1.73421 15.4335 0.56768C14.8162 -0.0959949 13.8027 -0.189747 13.076 0.349899C12.5194 0.763179 12.2872 1.46427 12.4428 2.10625C11.7637 1.64302 10.823 1.74984 10.2692 2.38108C9.72086 3.0063 9.77535 3.97001 10.3907 4.52942L10.776 4.87968C10.6401 4.89252 10.0184 4.99814 9.47783 5.13128C9.2972 5.1758 9.18678 5.35832 9.2313 5.53899C9.27582 5.71967 9.45829 5.83018 9.6391 5.78557C10.1422 5.66163 10.591 5.58881 10.7827 5.55773C10.9353 5.53293 11.0884 5.55005 11.2256 5.60701C12.5979 6.17666 14.1657 7.84308 14.7693 9.02546C15.0214 9.5037 15.3843 10.2744 15.3843 10.817C15.3843 10.9063 15.4198 10.992 15.483 11.0552C15.5461 11.1184 15.6318 11.1539 15.7212 11.1539C15.8106 11.1539 15.8962 11.1184 15.9594 11.0552C16.0226 10.992 16.0581 10.9063 16.0581 10.817C16.0581 10.0695 15.5473 9.05426 15.4051 8.78594C15.1793 5.83974 14.0991 3.60906 13.2283 2.25288C12.9413 1.80604 13.0508 1.20773 13.4776 0.890847C13.9283 0.556269 14.5569 0.614713 14.9399 1.02656C15.9696 2.13383 17.3816 4.22562 18.2608 7.90282C18.271 7.94585 18.2897 7.98644 18.3157 8.02225C18.3416 8.05807 18.3744 8.08842 18.4121 8.11158C18.4498 8.13473 18.4917 8.15023 18.5354 8.15719C18.5791 8.16415 18.6237 8.16243 18.6668 8.15214C18.7098 8.14187 18.7504 8.12323 18.7862 8.09726C18.8221 8.0713 18.8525 8.03853 18.8756 8.00083C18.8988 7.96312 18.9143 7.92122 18.9213 7.87752C18.9282 7.83382 18.9265 7.78917 18.9162 7.74614ZM13.2865 3.70385C13.9045 4.90802 14.3373 6.19853 14.5703 7.53181C13.994 6.79429 13.3084 6.11026 12.5527 5.58396L10.8441 4.03075C10.4988 3.71697 10.4682 3.1762 10.7759 2.8254C11.1276 2.42443 11.7433 2.38063 12.1483 2.72783L13.2865 3.70385ZM19.2734 9.60909C19.2685 9.57027 19.2549 9.46862 19.2306 9.31395C19.2238 9.27022 19.2084 9.22827 19.1853 9.1905C19.1623 9.15273 19.132 9.11988 19.0962 9.09383C19.0604 9.06777 19.0198 9.04903 18.9768 9.03867C18.9338 9.02832 18.8891 9.02654 18.8454 9.03346C18.8017 9.04033 18.7598 9.05575 18.722 9.07882C18.6843 9.1019 18.6514 9.13218 18.6254 9.16795C18.5994 9.20371 18.5806 9.24426 18.5702 9.28727C18.5599 9.33028 18.5581 9.37491 18.5649 9.41862C18.7039 10.3014 19.2931 12.5108 18.2915 15.3597C17.4794 17.6695 17.5702 17.4766 17.1999 18.2126C16.7933 19.0257 17.003 19.662 16.9459 21.7377C16.9459 22.0621 16.6819 22.3261 16.3575 22.3261H12.6751C12.6308 22.3261 12.587 22.3348 12.5462 22.3517C12.5053 22.3686 12.4681 22.3935 12.4368 22.4248C12.4056 22.456 12.3807 22.4932 12.3638 22.5341C12.3469 22.5749 12.3382 22.6188 12.3382 22.663C12.3382 22.8491 12.489 22.9999 12.6751 22.9999H16.3575C17.0535 22.9999 17.6198 22.4337 17.6198 21.7377C17.6669 19.513 17.4925 19.0954 17.8281 18.4647C18.1299 17.8968 18.1541 17.7825 18.9273 15.5832C19.5992 13.6717 19.7189 11.6064 19.2734 9.60909ZM12.9138 13.5895L12.8205 10.9565C12.808 10.6207 12.6863 10.2983 12.4739 10.038L11.2645 8.5616C10.9391 8.16449 10.3839 8.0313 9.91447 8.23754C8.93697 8.66712 8.13817 8.91352 7.72278 8.91352C7.08979 8.91352 5.99033 8.09666 7.09608 6.99087C7.36503 6.72187 7.73882 6.4779 8.20691 6.26569C8.24748 6.24761 8.28408 6.22168 8.31459 6.1894C8.34511 6.15712 8.36894 6.11912 8.38471 6.07759C8.40049 6.03606 8.40789 5.99183 8.4065 5.94743C8.40512 5.90303 8.39496 5.85934 8.37662 5.81888C8.35829 5.77842 8.33213 5.74198 8.29965 5.71167C8.26718 5.68136 8.22903 5.65777 8.18741 5.64225C8.14578 5.62674 8.1015 5.61962 8.05711 5.62128C8.01272 5.62295 7.96909 5.63338 7.92875 5.65197C7.38659 5.89769 6.94609 6.18784 6.61955 6.51443C5.11202 8.02191 6.44089 9.58739 7.72278 9.58739C8.37999 9.58739 9.42482 9.18884 10.1856 8.85449C10.3793 8.76936 10.6087 8.82453 10.7432 8.98867L11.9526 10.465C12.0718 10.611 12.14 10.792 12.147 10.9803L12.2403 13.6134C12.2424 13.6696 12.2319 13.7255 12.2096 13.777C12.1873 13.8286 12.1537 13.8745 12.1113 13.9114C11.112 14.7865 11.1681 14.7353 11.1482 14.756C10.8917 15.024 10.4843 15.065 10.1795 14.854C9.95234 14.662 9.56076 14.5476 9.47038 14.0757C9.20156 12.6727 8.81519 11.4842 8.76569 11.3701C8.20601 10.0809 7.12083 9.51605 6.00111 9.93095C5.6036 10.0783 5.13331 10.3223 5.02456 10.9064C4.95129 11.2998 5.05371 11.7736 5.19589 12.4313C5.23524 12.6123 5.58127 14.2434 5.64663 15.7221C5.67439 16.3504 5.91976 16.9543 6.33748 17.4226C7.07272 18.2469 7.60873 19.0159 8.89964 20.7387C9.32743 21.3124 9.26113 21.644 9.2676 21.6691C9.2676 22.4029 9.8647 23 10.5985 23H11.1027C11.2888 23 11.4396 22.8492 11.4396 22.6631C11.4396 22.477 11.2888 22.3262 11.1027 22.3262H10.5985C10.2362 22.3262 9.94142 22.0314 9.94142 21.6691C9.93195 21.6262 10.0151 21.1074 9.43978 20.3359C8.20569 18.6892 7.61025 17.8373 6.84034 16.9741C6.52562 16.6212 6.34081 16.166 6.31988 15.6924C6.252 14.1583 5.89505 12.4754 5.85422 12.2869C5.57328 10.9875 5.56321 10.8119 6.23533 10.5628C7.39009 10.1348 7.99101 11.2779 8.14599 11.6346C8.17955 11.719 8.54777 12.8413 8.80859 14.2025C8.96253 15.0059 9.61673 15.2475 9.79583 15.4079C10.3703 15.8056 11.1365 15.7317 11.6239 15.2334L12.5552 14.4185C12.673 14.3158 12.7663 14.1881 12.8284 14.0446C12.8904 13.9012 12.9196 13.7457 12.9138 13.5895Z" fill="#0099A3"/>
</g>
<defs>
<clipPath id="clip0_1308_824">
<rect width="24" height="24" fill="white"/>
</clipPath>
</defs>
</svg>
