<svg width="41" height="40" viewBox="0 0 41 40" fill="none" xmlns="http://www.w3.org/2000/svg">
<path d="M31.498 5.52727C31.3852 5.4385 31.2418 5.39818 31.0992 5.41518C30.9567 5.43218 30.8268 5.5051 30.738 5.6179C30.6492 5.73071 30.6089 5.87415 30.6259 6.01668C30.6429 6.15921 30.7158 6.28915 30.8286 6.37791C34.0242 8.89255 36.164 12.3811 36.9659 16.2626C36.0739 15.3666 34.8401 14.8114 33.479 14.8114C31.8797 14.8114 30.4564 15.5782 29.5565 16.7628C29.4428 15.1002 29.1705 13.1119 28.5167 11.0789C27.385 7.55971 25.4007 4.81806 22.6044 2.90078C24.7944 3.19528 26.912 3.91336 28.8258 5.02055C28.8874 5.05613 28.9553 5.07926 29.0258 5.08859C29.0962 5.09793 29.1678 5.09329 29.2365 5.07495C29.3052 5.05661 29.3696 5.02492 29.426 4.9817C29.4824 4.93848 29.5298 4.88456 29.5654 4.82304C29.6009 4.76151 29.6241 4.69358 29.6334 4.62312C29.6427 4.55265 29.6381 4.48104 29.6198 4.41237C29.6014 4.3437 29.5697 4.27932 29.5265 4.22289C29.4833 4.16647 29.4294 4.11911 29.3679 4.08352C26.6338 2.50194 23.5098 1.66602 20.3336 1.66602C15.5075 1.66602 10.9703 3.54541 7.55764 6.95803C4.14502 10.3707 2.26562 14.9079 2.26562 19.734C2.26562 19.8775 2.32265 20.0152 2.42414 20.1167C2.52564 20.2182 2.6633 20.2752 2.80684 20.2752C2.95038 20.2752 3.08804 20.2182 3.18954 20.1167C3.29104 20.0152 3.34806 19.8775 3.34806 19.734C3.34806 17.6166 5.071 15.8939 7.18889 15.8939C9.30634 15.8939 11.029 17.6166 11.029 19.734C11.029 19.8775 11.086 20.0152 11.1875 20.1167C11.289 20.2182 11.4267 20.2752 11.5702 20.2752C11.7138 20.2752 11.8514 20.2182 11.9529 20.1167C12.0544 20.0152 12.1114 19.8775 12.1114 19.734C12.1114 17.6166 13.8344 15.8939 15.9523 15.8939C17.0921 15.8939 18.1171 16.3937 18.821 17.185V34.0606C18.821 34.6912 18.3084 35.2042 17.6774 35.2042C17.0473 35.2042 16.5347 34.6912 16.5347 34.0606V33.5819C16.5347 31.6259 13.5095 31.5888 13.5095 33.5563V34.1643C13.5095 36.4627 15.3794 38.3327 17.6779 38.3327C19.9763 38.3327 21.8462 36.4627 21.8462 34.1643V17.1852C22.5503 16.3937 23.5755 15.8939 24.7157 15.8939C26.8331 15.8939 28.5557 17.6166 28.5557 19.734C28.5557 19.8775 28.6128 20.0152 28.7143 20.1167C28.8158 20.2182 28.9534 20.2752 29.097 20.2752C29.2405 20.2752 29.3782 20.2182 29.4797 20.1167C29.5811 20.0152 29.6382 19.8775 29.6382 19.734C29.6382 17.6166 31.3612 15.8939 33.4791 15.8939C35.5965 15.8939 37.3191 17.6166 37.3191 19.734C37.3191 19.8775 37.3761 20.0152 37.4776 20.1167C37.5791 20.2182 37.7168 20.2752 37.8603 20.2752C38.0039 20.2752 38.1415 20.2182 38.243 20.1167C38.3445 20.0152 38.4015 19.8775 38.4015 19.734C38.4015 14.1579 35.8852 8.97979 31.498 5.52727ZM19.9034 20.0614C19.9538 20.1279 20.0188 20.1817 20.0934 20.2188C20.168 20.2559 20.2502 20.2752 20.3336 20.2752C20.4169 20.2752 20.4991 20.2559 20.5738 20.2188C20.6484 20.1817 20.7134 20.1279 20.7637 20.0614V31.2666H19.9034V20.0614ZM15.9523 14.8115C14.4584 14.8115 13.1179 15.4804 12.2143 16.5341C12.3242 15.1466 12.5516 13.5509 13.0236 11.9248C13.0434 11.8565 13.0496 11.7851 13.0417 11.7144C13.0339 11.6438 13.0123 11.5754 12.978 11.5131C12.9438 11.4508 12.8976 11.3959 12.8421 11.3515C12.7866 11.3071 12.7229 11.274 12.6547 11.2542C12.5864 11.2344 12.5149 11.2282 12.4443 11.236C12.3736 11.2438 12.3052 11.2655 12.243 11.2997C12.1807 11.334 12.1258 11.3802 12.0813 11.4357C12.0369 11.4911 12.0039 11.5548 11.9841 11.6231C11.4506 13.4613 11.2152 15.2495 11.1113 16.7635C10.2115 15.5784 8.78822 14.8115 7.18889 14.8115C5.82957 14.8115 4.59718 15.3651 3.70548 16.2587C5.1625 9.27854 10.9174 3.85722 18.0658 2.89934C15.8084 4.44787 14.0748 6.53804 12.8971 9.13696C12.8378 9.26771 12.8329 9.41663 12.8835 9.55097C12.9341 9.68532 13.0359 9.79407 13.1667 9.85332C13.2974 9.91256 13.4463 9.91744 13.5807 9.86688C13.715 9.81632 13.8238 9.71446 13.883 9.58372C15.1627 6.75958 17.1486 4.58274 19.7924 3.10118V16.6555C18.9028 15.4891 17.4043 14.8115 15.9523 14.8115ZM20.7637 34.1644C20.7637 35.866 19.3794 37.2503 17.6778 37.2503C15.9762 37.2503 14.5919 35.866 14.5919 34.1644V33.5563C14.5919 32.9899 15.4522 33.0032 15.4522 33.582V34.0607C15.4522 35.2881 16.4505 36.2867 17.6782 36.2867C18.9052 36.2867 19.9034 35.2881 19.9034 34.0607V32.3491H20.7637V34.1644ZM24.7156 14.8115C23.2643 14.8115 21.7642 15.4891 20.8747 16.6554V3.10038C26.7506 6.3886 28.1312 12.3739 28.4556 16.5373C27.5522 15.4817 26.2108 14.8115 24.7156 14.8115Z" fill="#0099A3"/>
<path d="M8.98609 30.175C9.12963 30.175 9.26729 30.118 9.36879 30.0165C9.47028 29.915 9.5273 29.7774 9.5273 29.6338V29.1891C10.3229 29.0251 11.0291 28.3436 10.9866 27.4904C10.9448 26.6523 10.2403 26.1866 9.5273 25.9167V24.8363C9.7767 24.933 9.94433 25.0646 9.95321 25.0717C10.0636 25.1621 10.2051 25.2052 10.3471 25.1917C10.4891 25.1782 10.62 25.1093 10.7114 24.9998C10.8028 24.8903 10.8473 24.7492 10.8353 24.6071C10.8232 24.465 10.7555 24.3334 10.647 24.2409C10.6193 24.2176 10.175 23.8512 9.52723 23.7081V23.2522C9.52723 23.1086 9.47021 22.971 9.36871 22.8695C9.26722 22.768 9.12956 22.7109 8.98602 22.7109C8.84248 22.7109 8.70482 22.768 8.60332 22.8695C8.50182 22.971 8.4448 23.1086 8.4448 23.2522V23.7281C7.78863 23.9051 7.27548 24.4498 7.24352 25.1434C7.20534 25.9698 7.76994 26.3717 8.4448 26.6516V28.023C8.24383 27.9389 8.06479 27.8165 7.92567 27.6629C7.87794 27.6103 7.8203 27.5675 7.75605 27.5371C7.6918 27.5067 7.6222 27.4893 7.55121 27.4858C7.48022 27.4823 7.40924 27.4928 7.34232 27.5168C7.2754 27.5407 7.21385 27.5776 7.16118 27.6253C7.10851 27.6731 7.06577 27.7307 7.03537 27.7949C7.00498 27.8592 6.98754 27.9288 6.98405 27.9998C6.98056 28.0708 6.99109 28.1418 7.01503 28.2087C7.03897 28.2756 7.07586 28.3371 7.12358 28.3898C7.46332 28.7648 7.9323 29.0318 8.4448 29.1561V29.634C8.44486 29.7775 8.50191 29.9151 8.60342 30.0166C8.70492 30.118 8.84257 30.175 8.98609 30.175ZM9.90045 27.6227C9.86661 27.8126 9.69155 27.9754 9.5273 28.0556V27.0901C9.71002 27.1894 9.94382 27.38 9.90045 27.6227ZM8.44191 25.4739C8.25891 25.3293 8.29629 25.0685 8.44487 24.9219C8.44487 24.9996 8.40785 25.4589 8.44191 25.4739Z" fill="#0099A3"/>
<path d="M13.2603 29.2131C13.1489 29.1226 13.0061 29.0801 12.8634 29.0949C12.7206 29.1096 12.5895 29.1805 12.499 29.2919C11.635 30.3555 10.3545 30.9655 8.98587 30.9655C6.49159 30.9655 4.46231 28.9362 4.46231 26.4419C4.46231 23.9476 6.49159 21.9184 8.98587 21.9184C11.4802 21.9184 13.5094 23.9476 13.5094 26.4419C13.5094 26.6788 13.491 26.9165 13.4547 27.1486C13.4335 27.2899 13.4691 27.4339 13.5537 27.5491C13.6383 27.6643 13.765 27.7413 13.9062 27.7635C14.0473 27.7856 14.1916 27.7509 14.3073 27.6671C14.4231 27.5833 14.501 27.4571 14.524 27.3161C14.5691 27.0287 14.5919 26.7346 14.5919 26.4419C14.5919 23.3508 12.077 20.8359 8.98587 20.8359C5.89473 20.8359 3.37988 23.3508 3.37988 26.4419C3.37988 29.5331 5.89473 32.0479 8.98587 32.0479C10.682 32.0479 12.2687 31.2922 13.3391 29.9744C13.4296 29.863 13.4722 29.7202 13.4574 29.5774C13.4426 29.4347 13.3717 29.3036 13.2603 29.2131ZM32.9324 21.517H28.4895C27.2999 21.517 26.3321 22.4848 26.3321 23.6744V29.2096C26.3321 30.3992 27.3 31.367 28.4895 31.367H32.9324C34.122 31.367 35.0897 30.3992 35.0897 29.2096V23.6744C35.0897 22.4848 34.122 21.517 32.9324 21.517ZM34.0073 29.2096C34.0073 29.8023 33.525 30.2845 32.9324 30.2845H28.4895C27.8968 30.2845 27.4146 29.8022 27.4146 29.2096V23.6743C27.4146 23.0816 27.8968 22.5994 28.4895 22.5994H32.9324C33.5251 22.5994 34.0073 23.0816 34.0073 23.6743V29.2096Z" fill="#0099A3"/>
<path d="M29.1565 25.3637H31.2473C31.3908 25.3637 31.5285 25.3067 31.63 25.2052C31.7315 25.1037 31.7885 24.966 31.7885 24.8225C31.7885 24.6789 31.7315 24.5413 31.63 24.4398C31.5285 24.3383 31.3908 24.2812 31.2473 24.2812H29.1565C29.013 24.2812 28.8753 24.3383 28.7738 24.4398C28.6723 24.5413 28.6153 24.6789 28.6153 24.8225C28.6153 24.966 28.6723 25.1037 28.7738 25.2052C28.8753 25.3067 29.013 25.3637 29.1565 25.3637ZM32.2215 26.482H29.1565C29.0129 26.482 28.8752 26.5391 28.7738 26.6406C28.6723 26.7421 28.6152 26.8797 28.6152 27.0233C28.6152 27.1668 28.6723 27.3045 28.7738 27.406C28.8752 27.5075 29.0129 27.5645 29.1565 27.5645H32.2215C32.365 27.5645 32.5027 27.5075 32.6042 27.406C32.7057 27.3045 32.7627 27.1668 32.7627 27.0233C32.7627 26.8797 32.7057 26.7421 32.6042 26.6406C32.5027 26.5391 32.365 26.482 32.2215 26.482Z" fill="#0099A3"/>
</svg>
