<svg width="48" height="48" viewBox="0 0 48 48" fill="none" xmlns="http://www.w3.org/2000/svg">
<path d="M15.3775 11.3524C16.3712 11.1199 16.9882 10.1259 16.7557 9.13223C16.5232 8.13857 15.5292 7.52154 14.5355 7.75405C13.5418 7.98656 12.9248 8.98057 13.1573 9.97423C13.3898 10.9679 14.3838 11.5849 15.3775 11.3524Z" stroke="white" stroke-miterlimit="22.9256" stroke-linecap="round" stroke-linejoin="round"/>
<path d="M23.692 11.3524C24.6856 11.1199 25.3027 10.1259 25.0701 9.13223C24.8376 8.13857 23.8436 7.52154 22.85 7.75405C21.8563 7.98656 21.2393 8.98057 21.4718 9.97423C21.7043 10.9679 22.6983 11.5849 23.692 11.3524Z" stroke="white" stroke-miterlimit="22.9256" stroke-linecap="round" stroke-linejoin="round"/>
<path d="M32.0084 11.3524C33.002 11.1199 33.6191 10.1259 33.3866 9.13223C33.154 8.13857 32.16 7.52154 31.1664 7.75405C30.1727 7.98656 29.5557 8.98057 29.7882 9.97423C30.0207 10.9679 31.0147 11.5849 32.0084 11.3524Z" stroke="white" stroke-miterlimit="22.9256" stroke-linecap="round" stroke-linejoin="round"/>
<path d="M31.5218 38.0129C29.9956 34.9997 26.8654 32.9214 23.273 32.9214C19.6815 32.9214 16.552 34.9986 15.0254 38.0106" stroke="white" stroke-miterlimit="2.6131" stroke-linecap="round" stroke-linejoin="round"/>
<path d="M18.8724 2H38.6279C40.3454 2 41.7505 3.40514 41.7505 5.12256V13.9683C41.7505 15.6858 40.3454 17.0909 38.628 17.0909V20.0015L34.3315 17.0909H25.518L23.0693 20.0015L20.6206 17.0909H12.2139L7.91749 20.0015V17.0909C6.20007 17.0909 4.79492 15.6858 4.79492 13.9683V5.12256C4.79501 3.40514 6.20016 2 7.91758 2H10.5575" stroke="white" stroke-miterlimit="22.9256" stroke-linecap="round" stroke-linejoin="round"/>
<path d="M9.69243 28.9376C10.0428 26.4363 8.29905 24.1246 5.79773 23.7742C3.2964 23.4239 0.984676 25.1676 0.63434 27.6689C0.284004 30.1703 2.02772 32.482 4.52905 32.8323C7.03037 33.1827 9.3421 31.439 9.69243 28.9376Z" stroke="white" stroke-miterlimit="22.9256" stroke-linecap="round" stroke-linejoin="round"/>
<path d="M9.78391 42.836V46.9935M36.7615 42.836V46.9935M5.16446 37.796V40.0644C5.16446 41.3347 6.20384 42.3741 7.47419 42.3741H39.0712C40.3416 42.3741 41.381 41.3347 41.381 40.0644V37.796M13.9571 42.3741C15.2203 42.3656 16.2511 41.3295 16.2511 40.0645C16.2511 38.7941 15.2115 37.7547 13.9413 37.7547H9.78382V37.5872C9.78382 35.0467 7.70507 32.9678 5.16437 32.9678C2.62367 32.9678 0.544922 35.0467 0.544922 37.5872V47.4555H46.0003V37.5872C46.0003 35.0465 43.9216 32.9678 41.3809 32.9678C38.8402 32.9678 36.7614 35.0469 36.7614 37.5872V37.7547H32.6039C31.3325 37.7547 30.2942 38.7953 30.2942 40.0645C30.2942 41.3242 31.3162 42.3567 32.572 42.374" stroke="white" stroke-miterlimit="22.9256" stroke-linecap="round" stroke-linejoin="round"/>
<path d="M41.3799 32.8753C43.9056 32.8753 45.9532 30.8278 45.9532 28.302C45.9532 25.7763 43.9056 23.7288 41.3799 23.7288C38.8542 23.7288 36.8066 25.7763 36.8066 28.302C36.8066 30.8278 38.8542 32.8753 41.3799 32.8753Z" stroke="white" stroke-miterlimit="22.9256" stroke-linecap="round" stroke-linejoin="round"/>
<path d="M27.4567 30.089C28.4184 27.7536 27.3048 25.0806 24.9694 24.1189C22.6339 23.1571 19.961 24.2708 18.9992 26.6062C18.0375 28.9417 19.1511 31.6146 21.4865 32.5764C23.822 33.5381 26.4949 32.4245 27.4567 30.089Z" stroke="white" stroke-miterlimit="22.9256" stroke-linecap="round" stroke-linejoin="round"/>
</svg>
