<svg width="48" height="48" viewBox="0 0 48 48" fill="none" xmlns="http://www.w3.org/2000/svg">
<g clip-path="url(#clip0_2104_2235)">
<path d="M25.0016 37.8813C17.8969 37.8813 12.084 32.0684 12.084 24.9637C12.084 17.8591 17.8969 12.0461 25.0016 12.0461C32.1062 12.0461 37.9192 17.8591 37.9192 24.9637C37.9192 32.0684 32.1062 37.8813 25.0016 37.8813ZM25.0016 13.4814C18.6863 13.4814 13.5193 18.6485 13.5193 24.9637C13.5193 31.279 18.6863 36.446 25.0016 36.446C31.3168 36.446 36.4839 31.279 36.4839 24.9637C36.4839 18.6485 31.3168 13.4814 25.0016 13.4814Z" fill="white"/>
<path d="M25.0007 37.8813C21.1254 37.8813 18.1113 32.2119 18.1113 24.9637C18.1113 17.7155 21.1254 12.0461 25.0007 12.0461C28.876 12.0461 31.8901 17.7155 31.8901 24.9637C31.8901 32.2119 28.876 37.8813 25.0007 37.8813ZM25.0007 13.4814C22.0584 13.4814 19.5466 18.7202 19.5466 24.9637C19.5466 31.2072 22.0584 36.446 25.0007 36.446C27.943 36.446 30.4548 31.2072 30.4548 24.9637C30.4548 18.7202 27.943 13.4814 25.0007 13.4814Z" fill="white"/>
<path d="M25.0016 31.853C17.7534 31.853 12.084 28.8389 12.084 24.9636C12.084 21.0883 17.7534 18.0742 25.0016 18.0742C32.2498 18.0742 37.9192 21.0883 37.9192 24.9636C37.9192 28.8389 32.2498 31.853 25.0016 31.853ZM25.0016 19.5095C18.7581 19.5095 13.5193 22.0213 13.5193 24.9636C13.5193 27.9059 18.7581 30.4177 25.0016 30.4177C31.2451 30.4177 36.4839 27.9059 36.4839 24.9636C36.4839 22.0213 31.2451 19.5095 25.0016 19.5095Z" fill="white"/>
<path d="M25.0008 37.8813C24.5703 37.8813 24.2832 37.5943 24.2832 37.1637V12.7638C24.2832 12.3332 24.5703 12.0461 25.0008 12.0461C25.4314 12.0461 25.7185 12.3332 25.7185 12.7638V37.1637C25.7185 37.5943 25.4314 37.8813 25.0008 37.8813Z" fill="white"/>
<path d="M37.2023 25.6813H12.8024C12.3718 25.6813 12.0847 25.3942 12.0847 24.9636C12.0847 24.5331 12.3718 24.246 12.8024 24.246H37.2023C37.6328 24.246 37.9199 24.5331 37.9199 24.9636C37.9199 25.3942 37.6328 25.6813 37.2023 25.6813ZM9.57299 16.926C8.71182 16.926 7.77888 16.7825 6.91771 16.4237C5.05184 15.706 3.54478 14.3425 2.75538 12.5484C1.8942 10.7543 1.82244 8.67314 2.54008 6.80727C3.25773 4.94139 4.62125 3.50611 6.41536 2.7167C8.20947 1.85553 10.2189 1.78376 12.0847 2.42964C13.9506 3.14728 15.4577 4.51081 16.2471 6.30491C17.1082 8.09902 17.18 10.1084 16.4624 12.0461C15.7447 13.9119 14.3812 15.419 12.5871 16.2802C11.6542 16.7107 10.5777 16.926 9.57299 16.926ZM9.57299 3.43434C8.71182 3.43434 7.85065 3.64963 7.06124 4.00846C5.55419 4.65433 4.40596 5.80256 3.83184 7.30962C3.25773 8.81667 3.32949 10.4672 4.04713 11.9743C4.69301 13.4096 5.91301 14.5578 7.42006 15.1319C8.92711 15.706 10.5777 15.6343 12.013 14.9884C13.4483 14.3425 14.5965 13.1225 15.1706 11.6155C15.7447 10.1084 15.673 8.45785 14.9553 7.02256C14.2377 5.51551 13.0894 4.43904 11.5824 3.86493C10.9365 3.57787 10.2189 3.43434 9.57299 3.43434Z" fill="white"/>
<path d="M9.5736 12.692C7.63596 12.692 6.12891 10.4673 6.12891 8.60143C6.12891 6.73555 7.70772 5.15674 9.5736 5.15674C11.4395 5.15674 13.0183 6.73555 13.0183 8.60143C13.0183 10.4673 11.5112 12.692 9.5736 12.692ZM9.5736 6.59203C8.49713 6.59203 7.56419 7.52496 7.56419 8.60143C7.56419 9.74966 8.56889 11.2567 9.5736 11.2567C10.5783 11.2567 11.583 9.74966 11.583 8.60143C11.583 7.52496 10.6501 6.59203 9.5736 6.59203Z" fill="white"/>
<path d="M13.4478 15.5626C13.3042 15.5626 13.2325 15.5626 13.0889 15.4908L11.8689 14.845L11.2231 14.4861C10.5054 14.1273 10.0748 13.3379 10.0748 12.6203V11.6156C10.0748 11.185 10.3619 10.8979 10.7925 10.8979C11.2231 10.8979 11.5101 11.185 11.5101 11.6156V12.6203C11.5101 12.9073 11.6536 13.1226 11.9407 13.2661L12.5148 13.625L13.663 14.2708C14.0219 14.4861 14.1654 14.9167 13.9501 15.2755C13.9501 15.4191 13.7348 15.5626 13.4478 15.5626ZM5.55367 15.4908C5.26662 15.4908 5.05132 15.3473 4.9078 15.132C4.6925 14.7732 4.83603 14.3426 5.19485 14.1273L7.06073 13.1226C7.41955 12.9073 7.49131 12.6203 7.49131 12.4767V11.472C7.49131 11.0415 7.77837 10.7544 8.20896 10.7544C8.63954 10.7544 8.9266 11.0415 8.9266 11.472V12.4767C8.9266 13.2661 8.49601 13.9838 7.77837 14.4144L5.9125 15.4191C5.76897 15.4908 5.6972 15.4908 5.55367 15.4908Z" fill="white"/>
<path d="M9.57299 16.926C8.71182 16.926 7.77888 16.7825 6.91771 16.4237C5.05184 15.706 3.54478 14.3425 2.75538 12.5484C1.8942 10.7543 1.82244 8.67314 2.54008 6.80727C3.25773 4.94139 4.62125 3.50611 6.41536 2.7167C8.20947 1.85553 10.2189 1.78376 12.0847 2.42964C13.9506 3.14728 15.4577 4.51081 16.2471 6.30492C17.1082 8.09902 17.18 10.1084 16.4624 12.0461C15.7447 13.9119 14.3812 15.419 12.5871 16.2802C11.6542 16.7107 10.5777 16.926 9.57299 16.926ZM9.57299 3.43434C8.71182 3.43434 7.85065 3.64963 7.06124 4.00846C5.55419 4.65434 4.40596 5.80256 3.83184 7.30962C3.25773 8.81667 3.32949 10.4672 4.04713 11.9743C4.69301 13.4096 5.91301 14.5578 7.42006 15.1319C8.92711 15.706 10.5777 15.6343 12.013 14.9884C13.4483 14.3425 14.5965 13.1225 15.1706 11.6155C15.7447 10.1084 15.673 8.45785 14.9553 7.02256C14.2377 5.51551 13.0894 4.43904 11.5824 3.86493C10.9365 3.57787 10.2189 3.43434 9.57299 3.43434Z" fill="white"/>
<path d="M9.5736 12.692C7.63596 12.692 6.12891 10.4673 6.12891 8.60143C6.12891 6.73555 7.70772 5.15674 9.5736 5.15674C11.4395 5.15674 13.0183 6.73555 13.0183 8.60143C13.0183 10.4673 11.5112 12.692 9.5736 12.692ZM9.5736 6.59203C8.49713 6.59203 7.56419 7.52496 7.56419 8.60143C7.56419 9.74966 8.56889 11.2567 9.5736 11.2567C10.5783 11.2567 11.583 9.74966 11.583 8.60143C11.583 7.52496 10.6501 6.59203 9.5736 6.59203Z" fill="white"/>
<path d="M13.4478 15.5626C13.3042 15.5626 13.2325 15.5626 13.0889 15.4909L11.8689 14.845L11.2231 14.4862C10.5054 14.1273 10.0748 13.3379 10.0748 12.6203V11.6156C10.0748 11.185 10.3619 10.8979 10.7925 10.8979C11.2231 10.8979 11.5101 11.185 11.5101 11.6156V12.6203C11.5101 12.9073 11.6536 13.1226 11.9407 13.2662L12.5148 13.625L13.663 14.2709C14.0219 14.4862 14.1654 14.9167 13.9501 15.2756C13.9501 15.4191 13.7348 15.5626 13.4478 15.5626ZM5.55367 15.4909C5.26662 15.4909 5.05132 15.3473 4.9078 15.132C4.6925 14.7732 4.83603 14.3426 5.19485 14.1273L7.06073 13.1226C7.41955 12.9073 7.49131 12.6203 7.49131 12.4768V11.4721C7.49131 11.0415 7.77837 10.7544 8.20896 10.7544C8.63954 10.7544 8.9266 11.0415 8.9266 11.4721V12.4768C8.9266 13.2662 8.49601 13.9838 7.77837 14.4144L5.9125 15.4191C5.76897 15.4909 5.6972 15.4909 5.55367 15.4909ZM40.5029 16.9979C39.6417 16.9979 38.7806 16.8544 37.9194 16.4956C36.0535 15.7779 34.5465 14.4144 33.6853 12.6203C32.0347 8.81677 33.6853 4.36738 37.417 2.7168C39.2829 1.85563 41.3641 1.85563 43.23 2.57327C45.0241 3.29092 46.4594 4.65444 47.2488 6.37679C48.1099 8.17089 48.1817 10.1803 47.4641 12.0462C46.7464 13.912 45.3829 15.4191 43.5888 16.2803C42.5841 16.7826 41.5794 16.9979 40.5029 16.9979ZM40.5747 3.50621C39.7135 3.50621 38.8523 3.7215 37.9912 4.08033C34.9771 5.37208 33.6135 8.9603 34.9771 12.0462C36.4123 15.0603 40.0006 16.4238 43.0147 14.9885C46.0288 13.5532 47.3923 9.965 45.957 6.9509C45.3111 5.51561 44.1629 4.43915 42.7276 3.86503C42.01 3.57798 41.2923 3.50621 40.5747 3.50621Z" fill="white"/>
<path d="M40.5755 12.692C38.6379 12.692 37.1309 10.4673 37.1309 8.60143C37.1309 6.73555 38.7097 5.15674 40.5755 5.15674C42.4414 5.15674 44.0202 6.73555 44.0202 8.60143C44.0202 10.4673 42.5132 12.692 40.5755 12.692ZM40.5755 6.59203C39.4991 6.59203 38.5661 7.52496 38.5661 8.60143C38.5661 9.74966 39.5708 11.2567 40.5755 11.2567C41.5802 11.2567 42.5849 9.74966 42.5849 8.60143C42.5849 7.52496 41.652 6.59203 40.5755 6.59203Z" fill="white"/>
<path d="M44.4497 15.5626C44.3062 15.5626 44.2344 15.5626 44.0909 15.4908L42.8709 14.845L42.225 14.4861C41.5074 14.1273 41.0768 13.3379 41.0768 12.6203V11.6156C41.0768 11.185 41.3639 10.8979 41.7944 10.8979C42.225 10.8979 42.5121 11.185 42.5121 11.6156V12.6203C42.5121 12.9073 42.6556 13.1226 42.9427 13.2661L43.5168 13.625L44.665 14.2708C45.0238 14.4861 45.1674 14.9167 44.9521 15.2755C44.9521 15.4191 44.7368 15.5626 44.4497 15.5626ZM36.5556 15.4908C36.2686 15.4908 36.0533 15.3473 35.9098 15.132C35.6945 14.7732 35.838 14.3426 36.1968 14.1273L38.0627 13.1226C38.4215 12.9073 38.4933 12.6203 38.4933 12.4767V11.472C38.4933 11.0415 38.7803 10.7544 39.2109 10.7544C39.6415 10.7544 39.9286 11.0415 39.9286 11.472V12.4767C39.9286 13.2661 39.498 13.9838 38.7803 14.4144L36.9145 15.4191C36.7709 15.4908 36.6992 15.4908 36.5556 15.4908ZM9.50049 47.9283C8.56755 47.9283 7.70638 47.7848 6.77344 47.426C4.90757 46.7083 3.47228 45.3448 2.68287 43.5507C0.960527 39.819 2.61111 35.3696 6.34285 33.6472C10.0746 31.9966 14.4522 33.6472 16.1746 37.379C17.0357 39.1731 17.1075 41.1825 16.3899 43.1201C15.6722 44.986 14.3087 46.493 12.5146 47.3542C11.5817 47.713 10.577 47.9283 9.50049 47.9283ZM9.42872 34.4366C8.63931 34.4366 7.77814 34.5802 6.98873 34.939C3.97463 36.3743 2.61111 39.9625 4.04639 42.9766C4.69227 44.4119 5.8405 45.5601 7.34755 46.1342C8.85461 46.7083 10.5052 46.7083 12.0122 45.9907C13.4475 45.3448 14.5958 44.1248 15.1699 42.6178C15.744 41.1107 15.6722 39.4601 14.9546 38.0248C13.8781 35.7284 11.7252 34.4366 9.42872 34.4366Z" fill="white"/>
<path d="M9.5736 43.766C7.63596 43.766 6.12891 41.5413 6.12891 39.6754C6.12891 37.8096 7.70772 36.2307 9.5736 36.2307C10.4348 36.159 11.2959 36.5178 11.9418 37.1637C12.6595 37.8096 13.0183 38.7425 13.0183 39.6754C13.0183 41.5413 11.5112 43.766 9.5736 43.766ZM9.71712 37.666H9.64536C8.49713 37.666 7.63596 38.599 7.63596 39.6754C7.63596 40.8237 8.64066 42.3307 9.64536 42.3307C10.6501 42.3307 11.6548 40.8237 11.6548 39.6754C11.6548 39.1013 11.4395 38.599 11.0089 38.1684C10.5783 37.8096 10.1477 37.666 9.71712 37.666Z" fill="white"/>
<path d="M13.4478 46.6366C13.3042 46.6366 13.2325 46.6366 13.0889 46.5648L11.8689 45.9189L11.2231 45.5601C10.5054 45.2013 10.0748 44.4119 10.0748 43.6942V42.6178C10.0748 42.1872 10.3619 41.9001 10.7925 41.9001C11.2231 41.9001 11.5101 42.1872 11.5101 42.6178V43.6225C11.5101 43.9095 11.6536 44.1248 11.9407 44.2683L12.5148 44.6272L13.663 45.273C14.0219 45.4883 14.1654 45.9189 13.9501 46.2777C13.9501 46.493 13.7348 46.6366 13.4478 46.6366ZM5.55367 46.493C5.26662 46.493 5.05132 46.3495 4.9078 46.1342C4.6925 45.7754 4.83603 45.3448 5.19485 45.1295L7.06073 44.1248C7.41955 43.9095 7.49131 43.6225 7.49131 43.4789V42.4742C7.49131 42.0436 7.77837 41.7566 8.20896 41.7566C8.63954 41.7566 8.9266 42.0436 8.9266 42.4742V43.4789C8.9266 44.2683 8.49601 44.986 7.77837 45.4166L5.9125 46.4213C5.76897 46.493 5.6972 46.493 5.55367 46.493Z" fill="white"/>
<path d="M9.50049 47.9282C8.56755 47.9282 7.70638 47.7846 6.77344 47.4258C4.90757 46.7082 3.47228 45.3446 2.68287 43.5505C0.960527 39.8188 2.61111 35.3694 6.34285 33.6471C10.0746 31.9965 14.4522 33.6471 16.1746 37.3788C17.0357 39.1729 17.1075 41.1823 16.3899 43.12C15.6722 44.9858 14.3087 46.4929 12.5146 47.354C11.5817 47.7129 10.577 47.9282 9.50049 47.9282ZM9.42872 34.4365C8.63931 34.4365 7.77814 34.58 6.98873 34.9388C3.97463 36.3741 2.61111 39.9623 4.04639 42.9764C4.69227 44.4117 5.8405 45.5599 7.34755 46.1341C8.85461 46.7082 10.5052 46.7082 12.0122 45.9905C13.4475 45.3446 14.5958 44.1247 15.1699 42.6176C15.744 41.1105 15.6722 39.46 14.9546 38.0247C13.8781 35.7282 11.7252 34.4365 9.42872 34.4365Z" fill="white"/>
<path d="M9.5736 43.766C7.63596 43.766 6.12891 41.5413 6.12891 39.6754C6.12891 37.8096 7.70772 36.2307 9.5736 36.2307C10.4348 36.159 11.2959 36.5178 11.9418 37.1637C12.6595 37.8096 13.0183 38.7425 13.0183 39.6754C13.0183 41.5413 11.5112 43.766 9.5736 43.766ZM9.71712 37.666H9.64536C8.49713 37.666 7.63596 38.599 7.63596 39.6754C7.63596 40.8237 8.64066 42.3307 9.64536 42.3307C10.6501 42.3307 11.6548 40.8237 11.6548 39.6754C11.6548 39.1013 11.4395 38.599 11.0089 38.1684C10.5783 37.8096 10.1477 37.666 9.71712 37.666Z" fill="white"/>
<path d="M13.4478 46.6366C13.3042 46.6366 13.2325 46.6366 13.0889 46.5648L11.8689 45.9189L11.2231 45.5601C10.5054 45.2013 10.0748 44.4119 10.0748 43.6942V42.6178C10.0748 42.1872 10.3619 41.9001 10.7925 41.9001C11.2231 41.9001 11.5101 42.1872 11.5101 42.6178V43.6225C11.5101 43.9095 11.6536 44.1248 11.9407 44.2684L12.5148 44.6272L13.663 45.2731C14.0219 45.4884 14.1654 45.9189 13.9501 46.2778C13.9501 46.4931 13.7348 46.6366 13.4478 46.6366ZM5.55367 46.4931C5.26662 46.4931 5.05132 46.3495 4.9078 46.1342C4.6925 45.7754 4.83603 45.3448 5.19485 45.1295L7.06073 44.1248C7.41955 43.9095 7.49131 43.6225 7.49131 43.479V42.4743C7.49131 42.0437 7.77837 41.7566 8.20896 41.7566C8.63954 41.7566 8.9266 42.0437 8.9266 42.4743V43.479C8.9266 44.2684 8.49601 44.986 7.77837 45.4166L5.9125 46.4213C5.76897 46.4931 5.6972 46.4931 5.55367 46.4931ZM40.5029 48.0001C39.6417 48.0001 38.7806 47.8566 37.9194 47.4978C36.0535 46.7801 34.5465 45.4166 33.6853 43.6225C31.963 39.8907 33.6135 35.4413 37.3453 33.719C39.2112 32.8578 41.2923 32.7861 43.1582 33.5037C45.0241 34.2214 46.4594 35.5849 47.2488 37.379C48.9711 41.1107 47.3205 45.5601 43.5888 47.2825C42.5841 47.7848 41.5794 48.0001 40.5029 48.0001ZM40.5029 34.4366C39.6417 34.4366 38.7806 34.6519 37.9194 35.0108C34.9053 36.446 33.5418 40.0343 34.9771 43.0484C35.6947 44.4837 36.8429 45.6319 38.4217 46.206C39.9288 46.7801 41.5794 46.7083 43.0147 45.9907C46.0288 44.5554 47.3923 40.9672 45.957 37.9531C45.3111 36.5178 44.1629 35.3696 42.6558 34.8672C41.9382 34.5802 41.2206 34.4366 40.5029 34.4366Z" fill="white"/>
<path d="M40.5755 43.766C38.6379 43.766 37.1309 41.5413 37.1309 39.6754C37.1309 37.8096 38.7097 36.2307 40.5755 36.2307C41.4367 36.159 42.2979 36.5178 42.9438 37.1637C43.6614 37.8096 44.0202 38.7425 44.0202 39.6754C44.0202 41.5413 42.5132 43.766 40.5755 43.766ZM40.7191 37.666H40.6473C39.4991 37.666 38.6379 38.599 38.6379 39.6754C38.6379 40.8237 39.6426 42.3307 40.6473 42.3307C41.652 42.3307 42.6567 40.8237 42.6567 39.6754C42.6567 39.1013 42.4414 38.599 42.0108 38.1684C41.5802 37.8096 41.1497 37.666 40.7191 37.666Z" fill="white"/>
<path d="M44.4494 46.6366C44.3059 46.6366 44.2341 46.6366 44.0906 46.5648L42.8706 45.9189L42.2247 45.5601C41.5071 45.2013 41.0765 44.4119 41.0765 43.6942V42.6178C41.0765 42.1872 41.3636 41.9001 41.7941 41.9001C42.2247 41.9001 42.5118 42.1872 42.5118 42.6178V43.6225C42.5118 43.9095 42.6553 44.1248 42.9424 44.2683L43.5165 44.6272L44.6647 45.273C45.0235 45.4883 45.1671 45.9189 44.9518 46.2778C44.9518 46.493 44.7365 46.6366 44.4494 46.6366ZM36.5553 46.493C36.2683 46.493 36.053 46.3495 35.9095 46.1342C35.6942 45.7754 35.8377 45.3448 36.1965 45.1295L38.0624 44.1248C38.4212 43.9095 38.493 43.6225 38.493 43.4789V42.4742C38.493 42.0437 38.78 41.7566 39.2106 41.7566C39.6412 41.7566 39.9283 42.0437 39.9283 42.4742V43.4789C39.9283 44.2683 39.4977 44.986 38.78 45.4166L36.9142 46.4213C36.7706 46.493 36.6989 46.493 36.5553 46.493ZM25.0013 44.9142C21.7001 44.9142 18.6143 44.1248 15.7437 42.6178C15.3849 42.4025 15.2413 41.9719 15.4566 41.6131C15.6719 41.2542 16.1025 41.1107 16.4613 41.326C19.1166 42.7613 21.9872 43.4789 25.0013 43.4789C26.1495 43.4789 27.3695 43.3354 28.6613 43.1201C29.0201 43.0484 29.4507 43.3354 29.5224 43.6942C29.5942 44.0531 29.3071 44.4836 28.9483 44.5554C27.513 44.7707 26.2213 44.9142 25.0013 44.9142ZM32.4648 43.4072C32.1777 43.4072 31.8907 43.1919 31.8189 42.9048C31.6754 42.546 31.8907 42.1154 32.2495 41.9719C32.6083 41.8284 33.0389 41.6131 33.4695 41.4695L34.1154 42.7613C33.6848 42.9766 33.1824 43.1919 32.7518 43.3354C32.6083 43.4072 32.5365 43.4072 32.4648 43.4072Z" fill="white"/>
<path d="M28.8764 44.5553C28.5893 44.5553 28.3023 44.34 28.2305 44.0529C28.087 43.6941 28.3023 43.2635 28.6611 43.12C28.8764 43.0482 29.1634 42.9764 29.3787 42.9047C29.594 42.8329 29.8093 42.8329 30.0246 42.7612C30.3834 42.6176 30.814 42.8329 30.9575 43.1917C31.1011 43.5506 30.8858 43.9811 30.527 44.1247C30.3117 44.1964 30.0246 44.2682 29.8093 44.34C29.594 44.4117 29.3787 44.4117 29.1634 44.4835C29.0199 44.5553 28.9481 44.5553 28.8764 44.5553ZM42.0093 34.58C41.8657 34.58 41.794 34.58 41.6504 34.5083C41.2916 34.293 41.1481 33.8624 41.3634 33.5036C42.7269 30.9918 43.4445 28.1212 43.5163 25.1789C43.5881 24.1024 43.5163 22.9542 43.2293 21.5189C43.1575 21.1601 43.4445 20.7295 43.8034 20.6577C44.1622 20.586 44.5928 20.873 44.6645 21.2318C44.9516 22.7389 45.0234 24.0307 44.9516 25.1789C44.8798 28.2648 44.0904 31.3506 42.6551 34.0777C42.5116 34.4365 42.2963 34.58 42.0093 34.58ZM42.8704 18.5048C42.5834 18.5048 42.2963 18.2895 42.2246 18.0025C42.081 17.6436 41.8657 17.213 41.7222 16.7825C41.5787 16.4236 41.7222 15.993 42.0093 15.8495C42.3681 15.706 42.7987 15.8495 42.9422 16.1366C43.1575 16.5672 43.3728 17.0695 43.5881 17.5001C43.7316 17.8589 43.5163 18.2895 43.1575 18.433C43.014 18.5048 42.9422 18.5048 42.8704 18.5048Z" fill="white"/>
<path d="M43.9481 22.2366C43.5893 22.2366 43.3023 21.9496 43.2305 21.6625C43.1587 21.1602 43.087 20.7296 42.9434 20.3708C42.7999 20.0119 43.0152 19.5813 43.374 19.4378C43.7329 19.2943 44.1634 19.5096 44.307 19.8684C44.4505 20.3708 44.5223 20.8731 44.594 21.4472C44.6658 21.806 44.3787 22.2366 44.0199 22.2366H43.9481ZM33.9011 8.67317C33.7576 8.67317 33.6858 8.67317 33.5423 8.6014C30.887 7.16611 28.0165 6.44847 25.0024 6.44847C23.8541 6.44847 22.6341 6.592 21.3424 6.80729C20.9836 6.87906 20.553 6.592 20.4812 6.23318C20.4094 5.87436 20.6965 5.44377 21.0553 5.37201C22.4188 5.15671 23.7824 5.01318 25.0024 5.01318C28.3035 5.01318 31.3894 5.80259 34.26 7.30964C34.6188 7.52494 34.7623 7.95552 34.547 8.31434C34.4035 8.52964 34.1882 8.67317 33.9011 8.67317ZM16.2471 8.52964C15.9601 8.52964 15.7448 8.38611 15.6012 8.09905C15.4577 7.74023 15.6012 7.30964 15.8883 7.16611C16.3189 6.95082 16.8212 6.73553 17.2518 6.52024C17.6106 6.37671 18.0412 6.592 18.1847 6.95082C18.3283 7.30964 18.113 7.74023 17.7542 7.88376C17.3953 8.02729 16.9648 8.24258 16.5342 8.38611C16.4624 8.52964 16.3906 8.52964 16.2471 8.52964Z" fill="white"/>
<path d="M19.8342 7.16598C19.5472 7.16598 19.2601 6.95069 19.1884 6.66363C19.0448 6.30481 19.2601 5.87423 19.6189 5.80246C19.8342 5.7307 20.1213 5.65893 20.3366 5.58717C20.5519 5.5154 20.7672 5.5154 20.9825 5.44364C21.3413 5.30011 21.7719 5.5154 21.9154 5.87423C22.0589 6.23305 21.8436 6.66363 21.4848 6.80716C21.2695 6.87893 20.9825 6.95069 20.7672 7.02245C20.5519 7.09422 20.3366 7.09422 20.1213 7.16598H19.8342ZM6.12725 29.5565C5.76842 29.5565 5.48137 29.3412 5.4096 28.9823C5.12255 27.9059 5.05078 26.6141 5.05078 25.0353C5.05078 21.8059 5.76843 18.72 7.27548 15.7777C7.49077 15.4189 7.92136 15.2754 8.20841 15.4906C8.56723 15.7059 8.71076 16.1365 8.49547 16.4236C7.13195 19.0789 6.4143 22.0212 6.4143 24.9635C6.4143 26.4706 6.48607 27.6188 6.77313 28.6235C6.84489 28.9823 6.6296 29.4129 6.27078 29.4847C6.27078 29.5565 6.19901 29.5565 6.12725 29.5565ZM7.84959 34.5082C7.56253 34.5082 7.34724 34.3647 7.20371 34.0776C6.98842 33.647 6.77313 33.1447 6.55783 32.7141C6.4143 32.3553 6.6296 31.9247 6.98842 31.7812C7.34724 31.6376 7.77783 31.8529 7.92136 32.2117C8.06488 32.5706 8.28018 33.0011 8.42371 33.4317C8.56723 33.7906 8.42371 34.2211 8.13665 34.3647C8.06488 34.5082 7.99312 34.5082 7.84959 34.5082Z" fill="white"/>
<path d="M6.48581 30.92C6.19875 30.92 5.91169 30.7047 5.83993 30.4176C5.6964 30.0588 5.55287 29.4847 5.4811 28.9106C5.33758 28.5518 5.62463 28.1929 5.98345 28.1212C6.34228 28.0494 6.77286 28.3365 6.84463 28.6953C6.91639 29.0541 6.98816 29.4847 7.20345 29.9153C7.34698 30.2741 7.13168 30.7047 6.77286 30.8482C6.62933 30.92 6.55757 30.92 6.48581 30.92Z" fill="white"/>
</g>
<defs>
<clipPath id="clip0_2104_2235">
<rect width="48" height="48" fill="white"/>
</clipPath>
</defs>
</svg>
