<svg width="120" height="120" viewBox="0 0 120 120" fill="none" xmlns="http://www.w3.org/2000/svg">
<g clip-path="url(#clip0_1177_6045)">
<path fill-rule="evenodd" clip-rule="evenodd" d="M110.703 92.4561V96.5342C110.702 97.6155 110.272 98.6522 109.508 99.4168C108.743 100.181 107.706 100.611 106.625 100.612H13.375C12.2938 100.611 11.2571 100.181 10.4925 99.4168C9.72789 98.6522 9.2979 97.6155 9.29688 96.5342V92.4561H37.1058L37.7832 94.5488C37.8953 94.8947 38.1141 95.196 38.4082 95.4097C38.7023 95.6233 39.0566 95.7382 39.4201 95.7378H80.5799C80.9433 95.7375 81.2973 95.6221 81.5912 95.4083C81.885 95.1944 82.1036 94.8931 82.2157 94.5473L82.897 92.4561H110.703Z" fill="#0099A3"/>
<path fill-rule="evenodd" clip-rule="evenodd" d="M49.2531 78.6384L65.8996 32.9044C66.136 32.2647 66.6162 31.7447 67.235 31.4581C67.8538 31.1715 68.5609 31.1416 69.2017 31.375C69.8425 31.6084 70.3648 32.086 70.6544 32.7034C70.9439 33.3209 70.9772 34.0278 70.7469 34.6697L54.1004 80.4035C53.9187 80.9004 53.5889 81.3296 53.1554 81.6329C52.722 81.9363 52.2058 82.0992 51.6767 82.0997C51.3762 82.1002 51.0779 82.0471 50.7959 81.9431C50.4775 81.8275 50.1851 81.6503 49.9353 81.4216C49.6855 81.1929 49.4831 80.9172 49.3399 80.6103C49.1966 80.3034 49.1153 79.9713 49.1004 79.633C49.0855 79.2946 49.1375 78.9567 49.2533 78.6384H49.2531ZM70.7684 39.5308C70.2855 40.0145 70.0143 40.6701 70.0143 41.3535C70.0143 42.037 70.2855 42.6926 70.7684 43.1763L84.2453 56.6547L70.7684 70.1316C70.5222 70.3695 70.3258 70.654 70.1906 70.9685C70.0555 71.283 69.9844 71.6213 69.9814 71.9637C69.9784 72.306 70.0437 72.6455 70.1733 72.9623C70.3029 73.2792 70.4944 73.567 70.7364 73.8091C70.9785 74.0511 71.2664 74.2426 71.5832 74.3722C71.9 74.5018 72.2395 74.5671 72.5819 74.5641C72.9242 74.5611 73.2625 74.49 73.577 74.3549C73.8916 74.2198 74.176 74.0233 74.4139 73.7771L89.7144 58.4762C89.9542 58.237 90.1444 57.9529 90.2742 57.6401C90.404 57.3273 90.4708 56.992 90.4708 56.6533C90.4708 56.3147 90.404 55.9793 90.2742 55.6665C90.1444 55.3538 89.9542 55.0696 89.7144 54.8305L74.4139 39.5308C73.9304 39.0475 73.2748 38.776 72.5911 38.776C71.9075 38.776 71.2519 39.0475 70.7684 39.5308ZM45.5859 73.7769C45.8239 74.0224 46.1084 74.2182 46.4227 74.3527C46.7371 74.4873 47.0751 74.558 47.417 74.5606C47.7589 74.5633 48.098 74.4979 48.4144 74.3683C48.7309 74.2387 49.0183 74.0474 49.2601 73.8057C49.5019 73.5639 49.6932 73.2764 49.8229 72.96C49.9525 72.6436 50.0179 72.3045 50.0152 71.9626C50.0126 71.6206 49.9419 71.2826 49.8074 70.9683C49.6729 70.6539 49.4771 70.3694 49.2316 70.1314L35.7547 56.6545L49.2316 43.1761C49.7026 42.6901 49.9637 42.0384 49.9584 41.3616C49.9531 40.6848 49.6819 40.0372 49.2033 39.5587C48.7247 39.0801 48.0771 38.809 47.4004 38.8037C46.7236 38.7984 46.0719 39.0595 45.5859 39.5306L30.2841 54.8294C29.8012 55.3132 29.53 55.9687 29.53 56.6522C29.53 57.3357 29.8012 57.9913 30.2841 58.4751L45.5859 73.7769ZM109.844 96.5267C109.843 97.3801 109.503 98.1982 108.9 98.8016C108.296 99.405 107.478 99.7445 106.625 99.7455H13.375C12.5217 99.7445 11.7036 99.405 11.1001 98.8016C10.4967 98.1982 10.1573 97.3801 10.1562 96.5267V93.3079H36.4806L36.9657 94.806C37.1344 95.3242 37.4626 95.7757 37.9035 96.096C38.3443 96.4163 38.8752 96.589 39.4201 96.5892H80.5799C81.1247 96.5891 81.6554 96.4165 82.0961 96.0962C82.5367 95.7758 82.8646 95.3242 83.0328 94.806L83.5209 93.3079H109.844V96.5267ZM15.6835 85.6539C15.684 86.3162 15.9473 86.9513 16.4155 87.4198C16.8836 87.8883 17.5185 88.152 18.1809 88.1529H38.3517C38.8965 88.1529 39.4274 88.3252 39.8683 88.6453C40.3092 88.9654 40.6374 89.4168 40.8061 89.9349L41.2912 91.4347H78.7088L79.1937 89.9349C79.3619 89.4168 79.6899 88.9654 80.1305 88.6452C80.5712 88.3251 81.1019 88.1528 81.6466 88.1529H101.819C102.481 88.1519 103.116 87.8882 103.584 87.4197C104.052 86.9511 104.315 86.3161 104.315 85.6539V27.6549C104.315 26.9928 104.052 26.3579 103.584 25.8894C103.116 25.421 102.481 25.1572 101.819 25.156H18.1809C17.5186 25.1572 16.8839 25.4209 16.4157 25.8893C15.9476 26.3577 15.6843 26.9926 15.6835 27.6549V85.6539ZM115 90.7307C115 90.0469 114.728 89.3911 114.245 88.9076C113.761 88.4241 113.106 88.1525 112.422 88.1525H109.051C109.33 87.3491 109.473 86.5045 109.472 85.6539V27.6549C109.47 25.6255 108.664 23.6798 107.229 22.2447C105.794 20.8096 103.848 20.0023 101.819 20H18.1809C16.1515 20.0023 14.206 20.8096 12.7712 22.2447C11.3364 23.6798 10.5295 25.6255 10.5277 27.6549V85.6539C10.528 86.5045 10.6701 87.3491 10.9482 88.1529H7.57812C6.89436 88.1529 6.23861 88.4246 5.75512 88.9081C5.27162 89.3916 5 90.0473 5 90.7311V96.5271C5.00273 98.7474 5.88595 100.876 7.45594 102.446C9.02594 104.016 11.1545 104.899 13.3748 104.902H106.625C108.845 104.899 110.974 104.016 112.544 102.446C114.114 100.876 114.997 98.7471 115 96.5267V90.7307Z" fill="#222733"/>
</g>
<defs>
<clipPath id="clip0_1177_6045">
<rect width="120" height="120" fill="white"/>
</clipPath>
</defs>
</svg>
