<svg width="24" height="24" viewBox="0 0 24 24" fill="none" xmlns="http://www.w3.org/2000/svg">
<g clip-path="url(#clip0_1393_9502)">
<path d="M21.0334 10.5042C20.5114 11.3676 19.9148 12.1837 19.2504 12.943M11.0264 4.5112L12.2263 3.31122C12.8691 2.66842 13.7813 2.45601 14.6013 2.67582C15.6148 2.94701 16.6884 2.88361 17.6515 2.46619L22.5338 7.34802L22.3968 7.70713C22.219 8.17439 22.021 8.63374 21.8035 9.08389" stroke="#222733" stroke-miterlimit="10" stroke-linecap="round" stroke-linejoin="round"/>
<path d="M22.5336 7.34808L24 5.88163L19.1182 0.999756L17.6517 2.4662M7.53293 13.7359L6.81558 13.0186C7.29534 13.4983 7.2958 14.276 6.81558 14.7563C6.7017 14.8706 6.56631 14.9612 6.41723 15.0229C6.26814 15.0847 6.1083 15.1163 5.94694 15.1159C5.78558 15.116 5.62577 15.0843 5.47671 15.0225C5.32764 14.9607 5.19225 14.8701 5.07831 14.7558L3.31138 12.9889C2.6678 12.3457 2.45622 11.434 2.67571 10.6136C2.94718 9.60023 2.88359 8.52654 2.46645 7.56373L7.34828 2.68149L7.70698 2.81838C9.72544 3.58596 11.5821 4.72512 13.1808 6.17684M6.81567 13.0186L5.51466 11.7176M2.46654 7.56346L1 6.09692L3.73501 3.36191" stroke="#222733" stroke-miterlimit="10" stroke-linecap="round" stroke-linejoin="round"/>
<path d="M4.85449 2.24257L5.88186 1.21521L7.3484 2.68175M16.0888 20.3038C16.4747 19.3281 17.1891 18.5236 18.0976 17.9989C18.8328 17.5743 19.3276 16.7798 19.3276 15.8699V13.3711C19.3278 13.2098 19.2961 13.05 19.2344 12.901C19.1727 12.7519 19.0822 12.6166 18.968 12.5026C18.7458 12.2799 18.4389 12.1425 18.0994 12.1425C17.4206 12.1425 16.8708 12.6928 16.8708 13.3711V8.61209C16.8708 7.95639 16.3343 7.40364 15.679 7.41545C15.043 7.42725 14.5306 7.94653 14.5306 8.58548V7.35926C14.5306 6.7173 14.0247 6.17488 13.3828 6.16308C13.2255 6.16 13.0693 6.18874 12.9234 6.24758C12.7775 6.30642 12.6451 6.39415 12.5339 6.50549C12.3221 6.71735 12.191 7.00996 12.191 7.33265V7.87457C12.191 7.22867 11.6673 6.70499 11.0209 6.70499C10.6983 6.70499 10.4056 6.83605 10.1938 7.0474C9.98243 7.25926 9.85137 7.55187 9.85137 7.87457V8.88106C9.85137 8.23465 9.32714 7.71097 8.68128 7.71097C8.35808 7.71097 8.06547 7.84203 7.85361 8.05338C7.64226 8.26524 7.5112 8.55785 7.5112 8.88106V12.8711C7.51127 15.3124 8.02806 17.7261 9.02758 19.9535L9.18474 20.3038M16.0888 20.3038H9.18474M16.0888 20.3038V22.3777H9.18474V20.3038M16.8707 13.3711V15.211M9.85155 12.9369V11.3139M9.85155 9.6942V8.8811M12.1909 7.87452V12.6412M14.5306 8.58544V12.6412" stroke="#222733" stroke-miterlimit="10" stroke-linecap="round" stroke-linejoin="round"/>
</g>
<defs>
<clipPath id="clip0_1393_9502">
<rect width="24" height="24" fill="white"/>
</clipPath>
</defs>
</svg>
