<svg width="32" height="32" viewBox="0 0 32 32" fill="none" xmlns="http://www.w3.org/2000/svg">
<g clip-path="url(#clip0_1308_5136)">
<path d="M28.0446 14.0054C27.3486 15.1566 26.5531 16.2447 25.6671 17.2572M14.7018 6.01477L16.3018 4.41479C17.1588 3.55773 18.375 3.27451 19.4684 3.5676C20.8197 3.92919 22.2512 3.84465 23.5353 3.28809L30.045 9.79719L29.8624 10.276C29.6253 10.899 29.3613 11.5115 29.0713 12.1117" stroke="#0099A3" stroke-miterlimit="10" stroke-linecap="round" stroke-linejoin="round"/>
<path d="M30.0447 9.79744L32 7.84218L25.4909 1.33301L23.5356 3.28827M10.0439 18.3146L9.08744 17.3581C9.72712 17.9978 9.72773 19.0347 9.08744 19.675C8.93561 19.8274 8.75509 19.9483 8.5563 20.0306C8.35752 20.1129 8.14441 20.155 7.92926 20.1545C7.71411 20.1547 7.50103 20.1124 7.30228 20.03C7.10353 19.9476 6.92301 19.8267 6.77108 19.6744L4.41518 17.3185C3.55707 16.461 3.27496 15.2453 3.56762 14.1515C3.92957 12.8003 3.84479 11.3687 3.2886 10.085L9.79771 3.57532L10.276 3.75783C12.9673 4.78128 15.4428 6.30016 17.5745 8.23578M9.08756 17.3582L7.35289 15.6235M3.28872 10.0846L1.33334 8.12922L4.98002 4.48254" stroke="#0099A3" stroke-miterlimit="10" stroke-linecap="round" stroke-linejoin="round"/>
<path d="M6.47272 2.98994L7.84254 1.62012L9.79793 3.5755M21.4518 27.0715C21.9663 25.7706 22.9188 24.698 24.1302 23.9983C25.1105 23.4322 25.7702 22.3729 25.7702 21.1597V17.828C25.7705 17.6129 25.7283 17.3999 25.646 17.2011C25.5637 17.0024 25.4429 16.8219 25.2907 16.67C24.9945 16.3731 24.5852 16.1898 24.1327 16.1898C23.2275 16.1898 22.4944 16.9235 22.4944 17.828V11.4826C22.4944 10.6084 21.7791 9.87136 20.9054 9.8871C20.0574 9.90283 19.3743 10.5952 19.3743 11.4471V9.81219C19.3743 8.95624 18.6997 8.23301 17.8438 8.21728C17.6341 8.21317 17.4257 8.25149 17.2312 8.32995C17.0368 8.4084 16.8601 8.52537 16.712 8.67382C16.4295 8.9563 16.2548 9.34645 16.2548 9.77671V10.4993C16.2548 9.63806 15.5565 8.93983 14.6947 8.93983C14.2644 8.93983 13.8743 9.11457 13.5918 9.39637C13.31 9.67885 13.1352 10.069 13.1352 10.4993V11.8412C13.1352 10.9794 12.4363 10.2811 11.5751 10.2811C11.1442 10.2811 10.754 10.4559 10.4715 10.7377C10.1897 11.0202 10.015 11.4103 10.015 11.8412V17.1613C10.0151 20.4164 10.7041 23.6347 12.0368 26.6045L12.2464 27.0715M21.4518 27.0715H12.2464M21.4518 27.0715V29.8367H12.2464V27.0715M22.4944 17.828V20.2811M13.1355 17.249V15.0851M13.1355 12.9254V11.8413M16.2547 10.4992V16.8548M19.3742 11.4471V16.8548" stroke="#0099A3" stroke-miterlimit="10" stroke-linecap="round" stroke-linejoin="round"/>
</g>
<defs>
<clipPath id="clip0_1308_5136">
<rect width="32" height="32" fill="white"/>
</clipPath>
</defs>
</svg>
