<svg width="32" height="32" viewBox="0 0 32 32" fill="none" xmlns="http://www.w3.org/2000/svg">
<g clip-path="url(#clip0_1308_4528)">
<path d="M32 23.5468L27.0983 18.578M16.8724 25.3937C17.0599 25.5631 17.2413 25.739 17.4164 25.9212L23.1983 32.0002M6.61552 18.3486C6.39049 18.7114 6.04618 19.18 5.73797 19.4934L1.33333 23.5468M24.8533 20.8837C24.9235 20.8156 24.9926 20.7464 25.0606 20.6761L30.7046 14.8321C31.4793 14.0289 31.4565 12.7499 30.6537 11.9747C29.8505 11.1992 28.5707 11.2215 27.795 12.0247M27.795 12.0247C27.795 12.0247 27.9398 11.8812 27.9401 11.8815L27.795 12.0247ZM27.795 12.0247C27.7952 12.0248 28.8581 10.9239 28.8581 10.9239C29.6334 10.1211 29.6111 8.84174 28.8083 8.0665C28.0053 7.2912 26.7259 7.31353 25.9506 8.11636L25.2059 8.89641M25.2059 8.89641C25.2059 8.89635 25.2059 8.89648 25.2059 8.89641ZM25.2059 8.89641C25.2058 8.8966 25.2061 8.8966 25.2059 8.89641ZM25.2059 8.89641L26.6309 7.41195C27.4062 6.60913 27.3839 5.32976 26.581 4.55452C25.7781 3.77922 24.4987 3.80155 23.7233 4.60438L22.4534 5.91977L22.4531 5.91953C22.4532 5.91965 22.4535 5.91965 22.4537 5.91953L23.0047 5.3484C23.78 4.54557 23.7578 3.26621 22.9549 2.49097C22.1526 1.71628 20.8218 1.71622 20.0972 2.54082" stroke="#0099A3" stroke-miterlimit="10" stroke-linecap="round" stroke-linejoin="round"/>
<path d="M10.5898 31.9998L16.3119 25.9208C17.6307 24.548 19.2913 23.551 21.1231 23.0325C21.8333 22.8314 22.5154 22.5419 23.1535 22.1707M7.38273 8.57645C6.60743 7.77369 5.32801 7.75135 4.52512 8.52666C3.72223 9.30197 3.69983 10.5812 4.4752 11.384L7.83366 14.8615C8.60897 15.6642 9.88839 15.6866 10.6913 14.9113C11.4942 14.1359 11.5166 12.8567 10.7412 12.0539" stroke="#0099A3" stroke-miterlimit="10" stroke-linecap="round" stroke-linejoin="round"/>
<path d="M11.2459 6.75862L9.61001 5.06474C8.83471 4.26197 7.55529 4.23964 6.7524 5.01494C5.94951 5.79025 5.92711 7.06948 6.70248 7.87231L10.7795 12.0938C11.5548 12.8965 12.8342 12.9189 13.6371 12.1436C14.44 11.3682 14.4624 10.089 13.687 9.28618L12.7372 8.30263" stroke="#0099A3" stroke-miterlimit="10" stroke-linecap="round" stroke-linejoin="round"/>
<path d="M13.6869 9.28626C14.4622 10.089 15.7416 10.1114 16.5445 9.33606C17.3474 8.56075 17.3698 7.28151 16.5944 6.47869L16.3708 6.24711M14.1259 3.92268L13.236 3.00126C12.4607 2.1985 11.1813 2.17616 10.3784 2.95146C9.57551 3.72677 9.55311 5.00601 10.3285 5.80883M5.53812 12.485C4.76257 11.682 3.48271 11.6597 2.67952 12.4352C1.87675 13.2104 1.85392 14.4893 2.62861 15.2925L4.96267 17.7094C5.73822 18.5124 7.01808 18.5347 7.82127 17.7592C8.62447 16.9837 8.64681 15.704 7.87125 14.9009" stroke="#0099A3" stroke-miterlimit="10" stroke-linecap="round" stroke-linejoin="round"/>
<path d="M20.0972 2.54081L17.7914 1.45304C17.5593 1.34355 17.2992 1.30811 17.0463 1.35153C16.7934 1.39496 16.5599 1.51514 16.3777 1.69578L13.4115 4.63522C13.0955 4.9483 13.0899 5.45717 13.3988 5.77716C14.3793 6.79268 16.0066 6.79163 16.9854 5.77451L20.0972 2.54081Z" stroke="#0099A3" stroke-miterlimit="10" stroke-linecap="round" stroke-linejoin="round"/>
</g>
<defs>
<clipPath id="clip0_1308_4528">
<rect width="32" height="32" fill="white"/>
</clipPath>
</defs>
</svg>
