<svg width="120" height="120" viewBox="0 0 120 120" fill="none" xmlns="http://www.w3.org/2000/svg">
<circle cx="60" cy="60" r="38" fill="white" stroke="#0099A3" stroke-width="4"/>
<path d="M80.9373 72.026C80.9172 72.5205 80.7657 73.0008 80.4984 73.4173C80.2311 73.8338 79.8576 74.1716 79.4164 74.3959C78.9752 74.6201 78.4822 74.7227 77.9881 74.6932C77.4941 74.6636 77.0168 74.5029 76.6055 74.2277C76.2674 73.9903 75.9871 73.6799 75.7854 73.3195L75.5762 72.9617L61.0175 48.1101L60.379 47.0093C60.2624 46.6378 60.223 46.2463 60.2635 45.8589C60.313 45.3079 60.519 44.7825 60.8573 44.3448C61.1956 43.907 61.652 43.5752 62.1727 43.3883C62.6934 43.2014 63.2567 43.1673 63.7961 43.2901C64.3356 43.4128 64.8287 43.6873 65.2173 44.0811C65.2833 44.1416 65.3439 44.2132 65.4099 44.2847L65.8613 45.1324L80.464 70.3747C80.4666 70.3837 80.4666 70.3932 80.464 70.4022L80.6346 70.694C80.8443 71.106 80.9483 71.5638 80.9373 72.026Z" fill="url(#paint0_linear_870_40367)"/>
<path d="M43.7011 74.3448C43.3097 74.5859 42.861 74.7181 42.4014 74.7278C41.9418 74.7375 41.4879 74.6242 41.0867 74.3998C40.6855 74.1753 40.3516 73.8478 40.1193 73.4511C39.887 73.0543 39.7649 72.6028 39.7656 72.1431C39.7759 71.7591 39.8738 71.3826 40.0518 71.0422L40.217 70.701L42.16 65.483L42.7104 64.4206C42.9365 64.141 43.2175 63.9106 43.536 63.7436C44.0794 63.463 44.7019 63.375 45.3017 63.494C45.9016 63.613 46.4434 63.9319 46.8386 64.3986C47.0928 64.7077 47.2742 65.0701 47.3695 65.4588C47.4648 65.8475 47.4714 66.2527 47.389 66.6444C47.374 66.7317 47.3538 66.8181 47.3284 66.903L46.9266 67.7122L44.7249 73.1393C44.7249 73.1393 44.7249 73.1393 44.7249 73.1669L44.5873 73.4476C44.5873 73.4476 44.5873 73.4476 44.5873 73.4751C44.3647 73.8309 44.061 74.1289 43.7011 74.3448Z" fill="url(#paint1_linear_870_40367)"/>
<path d="M64.9671 43.734C64.6598 43.4278 64.2874 43.195 63.8775 43.053C63.4677 42.911 63.0311 42.8634 62.6002 42.9139C62.0521 42.9785 61.5334 43.1968 61.1039 43.5435C60.6744 43.8902 60.3517 44.3512 60.1729 44.8734C60.1097 45.0785 60.0325 45.2789 59.9417 45.4733C59.8743 45.6104 59.7891 45.7381 59.6885 45.8531L57.9712 48.8199L53.0449 45.9797L55.1475 42.3359C55.6657 41.6132 56.3487 41.0243 57.1398 40.6181C57.9309 40.2119 58.8075 40 59.6968 40C60.5861 40 61.4626 40.2119 62.2537 40.6181C63.0449 41.0243 63.7278 41.6132 64.246 42.3359L64.7964 43.2882C64.868 43.4478 64.9175 43.5909 64.9671 43.734Z" fill="url(#paint2_linear_870_40367)"/>
<path d="M81.9346 74.1399C81.9346 74.2224 81.9346 74.305 81.9346 74.3876C81.9346 74.4701 81.9346 74.4591 81.9346 74.5032C81.9017 75.5716 81.5864 76.6123 81.0209 77.5195L80.9109 77.6736L80.7788 77.8552C80.7788 77.8552 80.7788 77.8552 80.7512 77.8883C80.7237 77.9213 80.6577 77.9983 80.6136 78.0589C80.3005 78.428 79.9395 78.7538 79.5403 79.0276L79.4302 79.1047C79.2431 79.2203 79.0559 79.3304 78.8798 79.4294L78.6871 79.5175L78.4945 79.5946L78.2853 79.6771C78.1446 79.7269 78.0013 79.7691 77.856 79.8037H77.7734L77.6248 79.8368C77.4487 79.8753 77.2726 79.9028 77.0744 79.9248H76.9203H76.7607H76.4359C75.6646 79.9275 74.9014 79.7681 74.1957 79.457L73.1279 78.9561L48.7057 64.8873L46.4214 63.5773L46.2893 63.5002C45.6408 63.1515 44.8868 63.0531 44.1704 63.2235C43.4541 63.394 42.8253 63.8215 42.4033 64.4249L43.5042 62.515C43.5099 62.4951 43.5193 62.4765 43.5317 62.4599L43.7739 62.0306L44.0546 61.5407C44.8415 60.4509 45.9967 59.6831 47.3062 59.3795C48.6157 59.0759 49.9908 59.2571 51.177 59.8895L51.4743 60.0656L51.5293 60.0931L74.5315 73.2482L75.8305 73.9913C75.935 74.0573 76.5075 74.4371 77.0194 74.7068C77.1127 74.7622 77.2102 74.81 77.3111 74.8499C77.4008 74.8883 77.4927 74.9214 77.5863 74.949L77.6799 74.9765C77.936 75.0481 78.201 75.0833 78.467 75.0811C79.1574 75.0866 79.8279 74.8492 80.3611 74.4106C80.8943 73.9719 81.2565 73.3598 81.3842 72.6813C81.3868 72.6354 81.3868 72.5895 81.3842 72.5437C81.3842 72.5051 81.3842 72.4721 81.3842 72.4391C81.3922 72.3255 81.3922 72.2114 81.3842 72.0978C81.3924 71.9787 81.3924 71.8592 81.3842 71.74V71.7896C81.7393 72.5226 81.9273 73.3254 81.9346 74.1399Z" fill="url(#paint3_linear_870_40367)"/>
<path d="M59.7179 72.1019L47.8343 78.9437L46.816 79.5326C46.1101 79.843 45.347 80.0024 44.5758 80.0005H44.2345H44.0749H43.9208C43.7356 79.9828 43.5518 79.9534 43.3704 79.9124L43.2218 79.8794H43.1392C42.9961 79.839 42.853 79.795 42.7099 79.7473L42.4952 79.6427C42.429 79.6096 42.3647 79.5728 42.3026 79.5326L42.1099 79.4445C41.9207 79.3464 41.7369 79.238 41.5595 79.1198L41.4494 79.0427C41.0502 78.7689 40.6892 78.4432 40.3761 78.074C40.332 78.0135 40.2825 77.9584 40.244 77.9089C40.23 77.8989 40.2186 77.8857 40.2109 77.8703L40.0788 77.6887L39.9688 77.5346C39.382 76.6298 39.0476 75.5846 39 74.5073C39 74.4687 39 74.4302 39 74.3917C39 74.3531 39 74.2265 39 74.144C38.9978 73.3338 39.1745 72.5332 39.5174 71.7992L39.5504 71.7386C39.5421 71.8577 39.5421 71.9773 39.5504 72.0964C39.5422 72.2082 39.5422 72.3204 39.5504 72.4322C39.5504 72.4872 39.5504 72.4872 39.5504 72.5368C39.5564 72.585 39.5656 72.6328 39.578 72.6799C39.7049 73.3538 40.063 73.9622 40.5905 74.4004C41.118 74.8385 41.7819 75.0787 42.4677 75.0797C42.7337 75.0819 42.9986 75.0467 43.2548 74.9751L43.3429 74.9476C43.4385 74.9209 43.5323 74.8878 43.6236 74.8485C43.7382 74.8053 43.8487 74.7519 43.9538 74.6889C44.4657 74.4192 45.0547 74.0394 45.1427 73.9734L46.4362 73.2303L54.1421 68.8269L59.7179 72.1019Z" fill="url(#paint4_linear_870_40367)"/>
<path d="M57.548 49.6218L52.6191 46.7761L49.7735 51.705L54.7023 54.5507L57.548 49.6218Z" fill="url(#paint5_linear_870_40367)"/>
<path d="M58.8686 54.2072L56.7617 52.9907L55.5453 55.0976L57.6522 56.3141L58.8686 54.2072Z" fill="url(#paint6_linear_870_40367)"/>
<path d="M55.4168 55.9069L52.2754 54.1016L50.47 57.2429L53.6114 59.0483L55.4168 55.9069Z" fill="url(#paint7_linear_870_40367)"/>
<circle cx="60" cy="60" r="55" stroke="#0099A3" stroke-width="10"/>
<defs>
<linearGradient id="paint0_linear_870_40367" x1="64.5568" y1="47.8019" x2="75.7799" y2="68.6244" gradientUnits="userSpaceOnUse">
<stop stop-color="#10566D"/>
<stop offset="1" stop-color="#0099A3"/>
</linearGradient>
<linearGradient id="paint1_linear_870_40367" x1="46.0395" y1="64.6578" x2="42.3693" y2="71.5211" gradientUnits="userSpaceOnUse">
<stop stop-color="#10566D"/>
<stop offset="1" stop-color="#0099A3"/>
</linearGradient>
<linearGradient id="paint2_linear_870_40367" x1="55.6319" y1="48.1979" x2="62.259" y2="40.4425" gradientUnits="userSpaceOnUse">
<stop stop-color="#10566D"/>
<stop offset="1" stop-color="#0099A3"/>
</linearGradient>
<linearGradient id="paint3_linear_870_40367" x1="79.6889" y1="77.8277" x2="46.5205" y2="59.6638" gradientUnits="userSpaceOnUse">
<stop stop-color="#10566D"/>
<stop offset="1" stop-color="#0099A3"/>
</linearGradient>
<linearGradient id="paint4_linear_870_40367" x1="41.5485" y1="76.4943" x2="55.1549" y2="69.3553" gradientUnits="userSpaceOnUse">
<stop stop-color="#10566D"/>
<stop offset="1" stop-color="#0099A3"/>
</linearGradient>
<linearGradient id="paint5_linear_870_40367" x1="46.5432" y1="54.9882" x2="55.8233" y2="49.3506" gradientUnits="userSpaceOnUse">
<stop stop-color="#10566D"/>
<stop offset="1" stop-color="#0099A3"/>
</linearGradient>
<linearGradient id="paint6_linear_870_40367" x1="49.2755" y1="59.4733" x2="58.5583" y2="53.831" gradientUnits="userSpaceOnUse">
<stop stop-color="#10566D"/>
<stop offset="1" stop-color="#0099A3"/>
</linearGradient>
<linearGradient id="paint7_linear_870_40367" x1="48.9805" y1="58.9923" x2="58.284" y2="53.3121" gradientUnits="userSpaceOnUse">
<stop stop-color="#10566D"/>
<stop offset="1" stop-color="#0099A3"/>
</linearGradient>
</defs>
</svg>
