<svg width="41" height="40" viewBox="0 0 41 40" fill="none" xmlns="http://www.w3.org/2000/svg">
<path d="M20.5012 10.2732H23.5139C23.6581 10.2732 23.7964 10.2159 23.8983 10.114C24.0003 10.012 24.0575 9.87373 24.0575 9.72955C24.0575 9.58537 24.0003 9.4471 23.8983 9.34515C23.7964 9.2432 23.6581 9.18592 23.5139 9.18592H20.5012C20.3571 9.18592 20.2188 9.2432 20.1168 9.34515C20.0149 9.4471 19.9576 9.58537 19.9576 9.72955C19.9576 9.87373 20.0149 10.012 20.1168 10.114C20.2188 10.2159 20.3571 10.2732 20.5012 10.2732ZM22.0709 12.0925H20.5012C20.357 12.0925 20.2187 12.1498 20.1168 12.2518C20.0148 12.3537 19.9575 12.492 19.9575 12.6362C19.9575 12.7804 20.0148 12.9186 20.1168 13.0206C20.2187 13.1225 20.357 13.1798 20.5012 13.1798H22.0709C22.2151 13.1798 22.3533 13.1225 22.4553 13.0206C22.5572 12.9186 22.6145 12.7804 22.6145 12.6362C22.6145 12.492 22.5572 12.3537 22.4553 12.2518C22.3533 12.1498 22.2151 12.0925 22.0709 12.0925ZM22.0709 15.1281H20.5012C20.357 15.1281 20.2187 15.1854 20.1168 15.2874C20.0148 15.3893 19.9575 15.5276 19.9575 15.6718C19.9575 15.8159 20.0148 15.9542 20.1168 16.0562C20.2187 16.1581 20.357 16.2154 20.5012 16.2154H22.0709C22.2151 16.2154 22.3533 16.1581 22.4553 16.0562C22.5572 15.9542 22.6145 15.8159 22.6145 15.6718C22.6145 15.5276 22.5572 15.3893 22.4553 15.2874C22.3533 15.1854 22.2151 15.1281 22.0709 15.1281ZM22.0709 18.1637H20.5012C20.357 18.1637 20.2187 18.2209 20.1168 18.3229C20.0148 18.4248 19.9575 18.5631 19.9575 18.7073C19.9575 18.8515 20.0148 18.9897 20.1168 19.0917C20.2187 19.1936 20.357 19.2509 20.5012 19.2509H22.0709C22.2151 19.2509 22.3533 19.1936 22.4553 19.0917C22.5572 18.9897 22.6145 18.8515 22.6145 18.7073C22.6145 18.5631 22.5572 18.4248 22.4553 18.3229C22.3533 18.2209 22.2151 18.1637 22.0709 18.1637ZM18.1454 18.3024H17.7514V9.12956C17.7515 9.05817 17.7374 8.98748 17.7101 8.92152C17.6828 8.85556 17.6427 8.79562 17.5922 8.74514C17.5418 8.69466 17.4818 8.65462 17.4159 8.6273C17.3499 8.59998 17.2792 8.58593 17.2078 8.58594H14.7131C14.6417 8.58593 14.571 8.59998 14.505 8.6273C14.439 8.65462 14.3791 8.69466 14.3286 8.74514C14.2781 8.79562 14.2381 8.85556 14.2108 8.92152C14.1835 8.98748 14.1694 9.05817 14.1694 9.12956V11.5403H12.7619V10.5301C12.7619 10.4587 12.7479 10.388 12.7206 10.3221C12.6932 10.2561 12.6532 10.1962 12.6027 10.1457C12.5522 10.0952 12.4923 10.0552 12.4263 10.0279C12.3604 10.0005 12.2897 9.98649 12.2183 9.9865H9.72352C9.65213 9.98649 9.58143 10.0005 9.51547 10.0279C9.44951 10.0552 9.38958 10.0952 9.3391 10.1457C9.28862 10.1962 9.24857 10.2561 9.22126 10.3221C9.19394 10.388 9.17989 10.4587 9.1799 10.5301V14.9213H7.2289C7.15751 14.9213 7.08681 14.9354 7.02085 14.9627C6.95489 14.99 6.89496 15.03 6.84448 15.0805C6.79399 15.131 6.75395 15.1909 6.72664 15.2569C6.69932 15.3229 6.68526 15.3936 6.68527 15.4649V18.3024H6.40691C6.26273 18.3024 6.12446 18.3597 6.02251 18.4616C5.92056 18.5636 5.86328 18.7018 5.86328 18.846C5.86328 18.9902 5.92056 19.1285 6.02251 19.2304C6.12446 19.3324 6.26273 19.3896 6.40691 19.3896H18.1454C18.2896 19.3896 18.4278 19.3324 18.5298 19.2304C18.6317 19.1285 18.689 18.9902 18.689 18.846C18.689 18.7018 18.6317 18.5636 18.5298 18.4616C18.4278 18.3597 18.2896 18.3024 18.1454 18.3024ZM9.17997 18.3024H7.77253V16.0086H9.18004L9.17997 18.3024ZM11.6747 12.0839V18.3024H10.2672V11.0738H11.6747V12.0839ZM14.1696 18.3024H12.762V12.6275H14.1696V18.3024ZM16.6643 18.3024H15.2568V9.67319H16.6643V18.3024Z" fill="#0099A3"/>
<path d="M38.3896 30.682C38.461 30.682 38.5317 30.668 38.5977 30.6407C38.6636 30.6133 38.7236 30.5733 38.7741 30.5228C38.8245 30.4723 38.8646 30.4124 38.8919 30.3464C38.9192 30.2805 38.9333 30.2098 38.9333 30.1384V28.2528C38.9333 25.6625 36.7121 24.7197 36.6176 24.6808C36.6128 24.6788 31.6093 22.7141 31.6045 22.7122V21.9075C32.4956 21.2507 33.122 20.2549 33.2913 19.1119C34.8595 18.9115 35.5303 16.996 34.422 15.8611V14.4524C34.422 12.1268 32.9395 10.1412 30.8699 9.39021V6.5449C31.5143 6.3196 31.9779 5.70593 31.9779 4.98563C31.9779 4.07491 31.2369 3.33398 30.3263 3.33398H18.3907C18.2465 3.33398 18.1082 3.39126 18.0063 3.49321C17.9043 3.59516 17.8471 3.73343 17.8471 3.87761C17.8471 4.02179 17.9043 4.16006 18.0063 4.26201C18.1082 4.36396 18.2465 4.42124 18.3907 4.42124H30.3263C30.6375 4.42124 30.8907 4.67439 30.8907 4.98563C30.8907 5.2968 30.6375 5.54995 30.3263 5.54995H3.91825C3.60701 5.54995 3.35385 5.2968 3.35385 4.98563C3.35385 4.67439 3.60701 4.42124 3.91825 4.42124H15.8537C15.9979 4.42124 16.1362 4.36396 16.2382 4.26201C16.3401 4.16006 16.3974 4.02179 16.3974 3.87761C16.3974 3.73343 16.3401 3.59516 16.2382 3.49321C16.1362 3.39126 15.9979 3.33398 15.8537 3.33398H3.91825C3.0076 3.33391 2.2666 4.07484 2.2666 4.98563C2.2666 5.70593 2.73031 6.3196 3.37462 6.5449V21.4318C2.73031 21.6571 2.2666 22.2707 2.2666 22.9911C2.2666 23.9018 3.0076 24.6428 3.91825 24.6428H21.5619L21.4731 24.6776C21.4704 24.6786 21.4677 24.6797 21.4651 24.6809C21.3705 24.7197 19.1495 25.6625 19.1495 28.2529V36.8652C19.1495 37.4146 19.5964 37.8615 20.1458 37.8615H37.734C38.3953 37.8615 38.9333 37.3236 38.9333 36.6623V32.6753C38.9333 32.5312 38.876 32.3929 38.774 32.2909C38.6721 32.189 38.5338 32.1317 38.3896 32.1317C38.2455 32.1317 38.1072 32.189 38.0052 32.2909C37.9033 32.3929 37.846 32.5312 37.846 32.6753V36.6623C37.846 36.724 37.7958 36.7743 37.734 36.7743H34.9468V31.8687C34.9468 31.7245 34.8895 31.5862 34.7875 31.4843C34.6856 31.3823 34.5473 31.325 34.4031 31.325C34.259 31.325 34.1207 31.3823 34.0187 31.4843C33.9168 31.5862 33.8595 31.7245 33.8595 31.8687V36.7743H24.2177V31.8687C24.2177 31.7245 24.1604 31.5862 24.0585 31.4843C23.9565 31.3823 23.8182 31.325 23.6741 31.325C23.5299 31.325 23.3916 31.3823 23.2897 31.4843C23.1877 31.5862 23.1304 31.7245 23.1304 31.8687V36.7743H20.2368V28.2529C20.2368 26.4203 21.7854 25.7264 21.8765 25.6873L26.5134 23.8664C26.5448 23.9445 26.594 24.0142 26.6571 24.0701C28.8545 26.0052 28.7651 25.9866 29.0387 25.9866L29.0401 25.9865C29.1729 25.987 29.3013 25.9388 29.4009 25.8509L31.4231 24.07C31.4866 24.0141 31.5362 23.9441 31.5679 23.8657L36.2055 25.6868C36.3133 25.7335 37.8462 26.4297 37.8462 28.2528V30.1384C37.8461 30.2098 37.8602 30.2805 37.8875 30.3464C37.9148 30.4124 37.9548 30.4723 38.0053 30.5228C38.0558 30.5733 38.1157 30.6133 38.1816 30.6406C38.2476 30.668 38.3183 30.682 38.3896 30.682ZM33.3377 16.4201C34.0634 16.6928 34.0605 17.7191 33.3377 17.9885V16.4201ZM33.3347 14.4525V15.1681C33.3188 15.0087 33.2499 14.865 33.1523 14.7612L31.735 13.2377C31.4923 12.9765 31.0951 12.9417 30.8125 13.1554C30.7932 13.1697 28.8498 14.5942 26.3244 14.5942C25.4921 14.5942 25.2321 14.4063 24.9081 14.7811C24.814 14.8905 24.7562 15.0263 24.7424 15.1699V14.4524C24.7425 11.6469 27.4116 9.5656 30.1578 10.3051C31.9856 10.7989 33.3347 12.4707 33.3347 14.4525ZM4.46187 6.63728H29.7826V9.12087C26.5477 8.6687 23.6552 11.1912 23.6552 14.4526V15.8614C22.5512 17.0028 23.2071 18.909 24.7853 19.1125C24.9078 19.9433 25.2753 20.7186 25.8406 21.3395H4.46187V6.63728ZM24.7396 16.4205V17.9884C24.0041 17.7144 24.0286 16.6829 24.7396 16.4205ZM26.4726 22.7143L24.3306 23.5554H3.91825C3.60701 23.5554 3.35385 23.3023 3.35385 22.991C3.35385 22.6798 3.60701 22.4266 3.91825 22.4266H26.4726V22.7143ZM30.5173 23.4165L29.04 24.7175L27.5627 23.4165C27.5627 23.3488 27.5599 22.8308 27.5599 22.487C28.4762 22.8149 29.57 22.826 30.5173 22.487V23.4165H30.5173ZM27.3066 21.1611C26.3263 20.5424 25.8269 19.5009 25.8269 18.4869V15.6657C27.6936 15.7843 29.637 15.1961 31.1686 14.2251L32.2504 15.3879C32.2504 18.9549 32.2504 18.4292 32.2488 18.5535C32.195 21.1305 29.3073 22.4236 27.3066 21.1611Z" fill="#0099A3"/>
</svg>
