<svg width="24" height="24" viewBox="0 0 24 24" fill="none" xmlns="http://www.w3.org/2000/svg">
<path d="M9.81152 3.47977H14.0899C14.3488 3.47977 14.5586 3.68963 14.5586 3.94852V5.85483M5.17591 1.45683V0.585938C5.17591 0.523777 5.2006 0.464163 5.24455 0.420209C5.28851 0.376256 5.34812 0.351563 5.41028 0.351562H7.27366C7.30444 0.351562 7.33491 0.357625 7.36335 0.369403C7.39178 0.381182 7.41762 0.398446 7.43938 0.420209C7.46115 0.441973 7.47841 0.46781 7.49019 0.496246C7.50197 0.524682 7.50803 0.555159 7.50803 0.585938V1.45683M6.44125 10.6254V14.995M15.8432 5.94858H1.67383C1.64305 5.94858 1.61257 5.95464 1.58414 5.96642C1.5557 5.9782 1.52986 5.99546 1.5081 6.01722C1.48634 6.03899 1.46907 6.06483 1.45729 6.09326C1.44552 6.1217 1.43945 6.15217 1.43945 6.18295V7.27927C1.43945 7.34143 1.46415 7.40104 1.5081 7.44499C1.55205 7.48895 1.61167 7.51364 1.67383 7.51364H15.8432C15.9054 7.51364 15.965 7.48895 16.0089 7.44499C16.0529 7.40104 16.0776 7.34143 16.0776 7.27927V6.18295C16.0776 6.12079 16.0529 6.06118 16.0089 6.01722C15.965 5.97327 15.9054 5.94858 15.8432 5.94858ZM3.72855 15.0888H9.15391C9.54222 15.0888 9.85703 14.774 9.85703 14.3857V11.1879C9.85703 10.7996 9.54222 10.4848 9.15391 10.4848H3.72855C3.34023 10.4848 3.02542 10.7996 3.02542 11.1879V14.3857C3.02542 14.774 3.34023 15.0888 3.72855 15.0888Z" stroke="#797C7F" stroke-width="0.7" stroke-miterlimit="10" stroke-linecap="round" stroke-linejoin="round"/>
<path d="M18.365 23.6288C19.666 23.4561 20.5807 22.2614 20.408 20.9604C20.2352 19.6594 19.0405 18.7447 17.7395 18.9174C16.4385 19.0902 15.5238 20.2849 15.6966 21.5859C15.8693 22.8869 17.064 23.8016 18.365 23.6288Z" stroke="#797C7F" stroke-width="0.7" stroke-miterlimit="10" stroke-linecap="round" stroke-linejoin="round"/>
<path d="M18.0515 22.223C18.5767 22.223 19.0024 21.7972 19.0024 21.2721C19.0024 20.7469 18.5767 20.3212 18.0515 20.3212C17.5263 20.3212 17.1006 20.7469 17.1006 21.2721C17.1006 21.7972 17.5263 22.223 18.0515 22.223Z" stroke="#797C7F" stroke-width="0.7" stroke-miterlimit="10" stroke-linecap="round" stroke-linejoin="round"/>
<path d="M6.2666 23.6269C7.56723 23.4512 8.47917 22.2544 8.30348 20.9538C8.12779 19.6532 6.931 18.7412 5.63038 18.9169C4.32975 19.0926 3.41781 20.2894 3.5935 21.59C3.76919 22.8906 4.96598 23.8026 6.2666 23.6269Z" stroke="#797C7F" stroke-width="0.7" stroke-miterlimit="10" stroke-linecap="round" stroke-linejoin="round"/>
<path d="M5.94798 22.223C6.47315 22.223 6.89888 21.7972 6.89888 21.2721C6.89888 20.7469 6.47315 20.3212 5.94798 20.3212C5.42281 20.3212 4.99707 20.7469 4.99707 21.2721C4.99707 21.7972 5.42281 22.223 5.94798 22.223Z" stroke="#797C7F" stroke-width="0.7" stroke-miterlimit="10" stroke-linecap="round" stroke-linejoin="round"/>
<path d="M1.5332 18.1716H3.47777M11.443 16.4571H12.1616M20.5221 18.1716H22.4666M13.5486 8.81174V7.68341M3.96841 7.68341V8.81174M20.8971 19.6296C20.6382 19.6296 20.4283 19.4198 20.4283 19.1609V17.1821C20.4283 16.9232 20.6382 16.7134 20.8971 16.7134H22.4666M1.5332 16.7134H3.10277C3.36166 16.7134 3.57152 16.9233 3.57152 17.1822V19.1609C3.57152 19.4198 3.36166 19.6297 3.10277 19.6297M4.17775 19.6296H1.5332M16.2705 19.6296H7.7215M22.4666 19.6296H19.8238" stroke="#797C7F" stroke-width="0.7" stroke-miterlimit="10" stroke-linecap="round" stroke-linejoin="round"/>
<path d="M20.5221 21.2721H21.8573C22.2456 21.2721 22.5604 20.9573 22.5604 20.5689V16.2607C22.5604 15.6135 22.0357 15.0888 21.3885 15.0888H18.0899L16.1876 9.38616C16.1409 9.2462 16.0514 9.12447 15.9317 9.03822C15.812 8.95196 15.6682 8.90555 15.5206 8.90555H2.14258C1.75427 8.90555 1.43945 9.22036 1.43945 9.60867V20.569C1.43945 20.9573 1.75427 21.2721 2.14258 21.2721H3.47777M11.8023 21.2721H15.5818M8.41802 21.2721H10.275" stroke="#797C7F" stroke-width="0.7" stroke-miterlimit="10" stroke-linecap="round" stroke-linejoin="round"/>
<path d="M11.4427 13.5763V14.3856C11.4427 14.774 11.7575 15.0888 12.1458 15.0888H17.9958M16.46 10.4848H12.1458C11.7575 10.4848 11.4427 10.7996 11.4427 11.1879V12.0441M2.91895 4.46877V5.85482M9.76429 5.85482V2.01932C9.76429 1.76043 9.55443 1.55057 9.29554 1.55057H3.3877C3.1288 1.55057 2.91895 1.76043 2.91895 2.01932V2.93661" stroke="#797C7F" stroke-width="0.7" stroke-miterlimit="10" stroke-linecap="round" stroke-linejoin="round"/>
</svg>
