<svg width="24" height="24" viewBox="0 0 24 24" fill="none" xmlns="http://www.w3.org/2000/svg">
<g clip-path="url(#clip0_1191_21693)">
<path d="M24 17.6596L20.3237 13.933M12.6543 19.0448C12.7949 19.1718 12.931 19.3038 13.0623 19.4404L17.3987 23.9997M4.96165 13.761C4.79287 14.0331 4.53464 14.3845 4.30348 14.6196L1 17.6596M18.64 15.6623C18.6927 15.6112 18.7445 15.5593 18.7954 15.5066L23.0284 11.1236C23.6095 10.5212 23.5924 9.56195 22.9903 8.98057C22.3879 8.3989 21.428 8.41566 20.8463 9.01801M20.8463 9.01801C20.8463 9.01801 20.9548 8.91041 20.9551 8.91064L20.8463 9.01801ZM20.8463 9.01801C20.8464 9.0181 21.6436 8.19246 21.6436 8.19246C22.2251 7.59034 22.2084 6.63082 21.6062 6.04939C21.004 5.46791 20.0445 5.48466 19.4629 6.08678L18.9045 6.67182M18.9045 6.67182C18.9044 6.67178 18.9044 6.67187 18.9045 6.67182ZM18.9045 6.67182C18.9043 6.67196 18.9046 6.67196 18.9045 6.67182ZM18.9045 6.67182L19.9731 5.55847C20.5546 4.95636 20.5379 3.99683 19.9358 3.4154C19.3335 2.83392 18.374 2.85068 17.7925 3.45279L16.8401 4.43934L16.8398 4.43916C16.8399 4.43925 16.8401 4.43925 16.8402 4.43916L17.2535 4.01081C17.835 3.40869 17.8183 2.44917 17.2162 1.86774C16.6145 1.28672 15.6163 1.28668 15.0729 1.90513" stroke="#FF7A00" stroke-miterlimit="10" stroke-linecap="round" stroke-linejoin="round"/>
<path d="M7.94297 24L12.2345 19.4407C13.2237 18.4111 14.4691 17.6634 15.8429 17.2745C16.3756 17.1237 16.8872 16.9065 17.3657 16.6282M5.53769 6.43246C4.95621 5.83039 3.99664 5.81364 3.39448 6.39512C2.79231 6.9766 2.77551 7.93602 3.35704 8.53814L5.87589 11.1462C6.45736 11.7483 7.41693 11.765 8.0191 11.1836C8.62126 10.6021 8.63806 9.64265 8.05654 9.04053" stroke="#FF7A00" stroke-miterlimit="10" stroke-linecap="round" stroke-linejoin="round"/>
<path d="M8.43452 5.06909L7.20761 3.79867C6.62613 3.1966 5.66656 3.17985 5.0644 3.76133C4.46223 4.34281 4.44543 5.30224 5.02696 5.90435L8.08471 9.07044C8.66619 9.67251 9.62576 9.68927 10.2279 9.10779C10.8301 8.52631 10.8469 7.56688 10.2654 6.96476L9.55296 6.22709" stroke="#FF7A00" stroke-miterlimit="10" stroke-linecap="round" stroke-linejoin="round"/>
<path d="M10.2654 6.96457C10.8469 7.56665 11.8064 7.5834 12.4086 7.00192C13.0108 6.42044 13.0276 5.46101 12.446 4.85889L12.2783 4.68521M10.5947 2.94189L9.92723 2.25082C9.34575 1.64875 8.38619 1.632 7.78402 2.21348C7.18186 2.79496 7.16506 3.75438 7.74658 4.3565M4.15382 9.36365C3.57215 8.76135 2.61226 8.74464 2.00987 9.32626C1.40779 9.90765 1.39067 10.8668 1.97169 11.4693L3.72223 13.2819C4.3039 13.8842 5.26379 13.9009 5.86618 13.3193C6.46858 12.7376 6.48533 11.7779 5.90367 11.1756" stroke="#FF7A00" stroke-miterlimit="10" stroke-linecap="round" stroke-linejoin="round"/>
<path d="M15.0737 1.90549L13.3444 1.08966C13.1703 1.00754 12.9752 0.980957 12.7855 1.01353C12.5958 1.0461 12.4208 1.13624 12.2841 1.27171L10.0594 3.47629C9.82247 3.7111 9.81826 4.09275 10.0499 4.33275C10.7853 5.09439 12.0058 5.0936 12.7399 4.33076L15.0737 1.90549Z" stroke="#FF7A00" stroke-miterlimit="10" stroke-linecap="round" stroke-linejoin="round"/>
</g>
<defs>
<clipPath id="clip0_1191_21693">
<rect width="24" height="24" fill="white"/>
</clipPath>
</defs>
</svg>
