<svg width="24" height="24" viewBox="0 0 24 24" fill="none" xmlns="http://www.w3.org/2000/svg">
<path d="M11.4511 16.4161L9.63928 14.6042C9.21385 14.1788 8.5241 14.1788 8.09866 14.6042L6.39307 16.3098" stroke="#797C7F" stroke-miterlimit="10" stroke-linecap="round" stroke-linejoin="round"/>
<path d="M13.1236 11.1029C13.2035 10.3026 12.6195 9.58907 11.8192 9.5092C11.0189 9.42934 10.3054 10.0134 10.2255 10.8136C10.1457 11.6139 10.7297 12.3274 11.53 12.4073C12.3303 12.4872 13.0438 11.9032 13.1236 11.1029Z" stroke="#797C7F" stroke-miterlimit="10" stroke-linecap="round" stroke-linejoin="round"/>
<path d="M19.2906 14.3809L17.1585 12.2488C16.7331 11.8233 16.0433 11.8233 15.6179 12.2488L8.78979 19.0769" stroke="#797C7F" stroke-miterlimit="10" stroke-linecap="round" stroke-linejoin="round"/>
<path d="M19.7825 14.2844V8.27559C19.7825 7.66441 19.287 7.16895 18.6759 7.16895H7.45166C6.84048 7.16895 6.34502 7.66441 6.34502 8.27559V17.9703C6.34502 18.5815 6.84048 19.077 7.45166 19.077H15.9563M2.8784 9.52299H4.3987M2.8784 11.1938H4.3987M2.8784 12.8647H4.3987M2.8784 14.5355H4.3987M2.8784 16.2063H4.3987M4.12939 18.3802H3.14771C2.89004 18.3802 2.68115 18.1713 2.68115 17.9136V8.00109C2.68115 7.74342 2.89004 7.53453 3.14771 7.53453H4.12943C4.3871 7.53453 4.59599 7.74342 4.59599 8.00109V17.9136C4.59595 18.1713 4.38706 18.3802 4.12939 18.3802Z" stroke="#797C7F" stroke-miterlimit="10" stroke-linecap="round" stroke-linejoin="round"/>
<path d="M16.2203 16.229H21.0198M16.2203 18.2021H21.0198M13.313 21.7875H2.11806C1.5006 21.7875 1 21.2869 1 20.6694V3.11806C1 2.50056 1.5006 2 2.11806 2H5.77489M20.4444 20.0873H16.7957C16.402 20.0873 16.0828 19.7681 16.0828 19.3744V15.094C16.0828 14.7003 16.402 14.3812 16.7957 14.3812H20.4444C20.8381 14.3812 21.1572 14.7004 21.1572 15.094V19.3744C21.1572 19.7682 20.8381 20.0873 20.4444 20.0873Z" stroke="#797C7F" stroke-miterlimit="10" stroke-linecap="round" stroke-linejoin="round"/>
<path d="M7.32423 2H21.8819C22.4994 2 23 2.5006 23 3.11806V20.6694C23 21.2869 22.4994 21.7874 21.8819 21.7874H14.8623M1 4.77435H23" stroke="#797C7F" stroke-miterlimit="10" stroke-linecap="round" stroke-linejoin="round"/>
</svg>
