<svg width="81" height="81" viewBox="0 0 81 81" fill="none" xmlns="http://www.w3.org/2000/svg">
<path d="M38.6704 55.2183L32.6309 49.1788C31.2128 47.7607 28.9136 47.7607 27.4955 49.1788L21.8102 54.864" stroke="white" stroke-width="2" stroke-miterlimit="10" stroke-linecap="round" stroke-linejoin="round"/>
<path d="M44.2454 37.5069C44.5116 34.8393 42.5649 32.461 39.8973 32.1947C37.2296 31.9285 34.8513 33.8752 34.5851 36.5429C34.3188 39.2105 36.2656 41.5889 38.9332 41.8551C41.6008 42.1213 43.9792 40.1746 44.2454 37.5069Z" stroke="white" stroke-width="2" stroke-miterlimit="10" stroke-linecap="round" stroke-linejoin="round"/>
<path d="M64.8022 48.4362L57.6952 41.3292C56.2771 39.9111 53.9779 39.9111 52.5598 41.3292L29.7994 64.0897" stroke="white" stroke-width="2" stroke-miterlimit="10" stroke-linecap="round" stroke-linejoin="round"/>
<path d="M66.4418 48.1146V28.0853C66.4418 26.048 64.7902 24.3965 62.753 24.3965H25.3389C23.3017 24.3965 21.6501 26.048 21.6501 28.0853V60.4011C21.6501 62.4383 23.3017 64.0899 25.3389 64.0899H53.6878M10.0947 32.2433H15.1624M10.0947 37.8128H15.1624M10.0947 43.3823H15.1624M10.0947 48.9516H15.1624M10.0947 54.5211H15.1624M14.2647 61.7673H10.9925C10.1336 61.7673 9.43726 61.071 9.43726 60.2121V27.1703C9.43726 26.3114 10.1336 25.6151 10.9925 25.6151H14.2649C15.1238 25.6151 15.8201 26.3114 15.8201 27.1703V60.2119C15.8199 61.071 15.1236 61.7673 14.2647 61.7673Z" stroke="white" stroke-width="2" stroke-miterlimit="10" stroke-linecap="round" stroke-linejoin="round"/>
<path d="M54.5676 54.5962H70.566M54.5676 61.1731H70.566M44.8767 73.1243H7.56024C5.50204 73.1243 3.83337 71.4556 3.83337 69.3972V10.8929C3.83337 8.83453 5.50204 7.16602 7.56024 7.16602H19.7497M68.6481 67.4569H56.4857C55.1733 67.4569 54.1095 66.3931 54.1095 65.0808V50.8128C54.1095 49.5005 55.1733 48.4367 56.4857 48.4367H68.6481C69.9604 48.4367 71.0241 49.5006 71.0241 50.8128V65.0808C71.0241 66.3932 69.9604 67.4569 68.6481 67.4569Z" stroke="white" stroke-width="2" stroke-miterlimit="10" stroke-linecap="round" stroke-linejoin="round"/>
<path d="M24.9141 7.16602H73.4398C75.4982 7.16602 77.1667 8.83468 77.1667 10.8929V69.3972C77.1667 71.4556 75.498 73.1241 73.4398 73.1241H50.041M3.83337 16.4138H77.1667" stroke="white" stroke-width="2" stroke-miterlimit="10" stroke-linecap="round" stroke-linejoin="round"/>
</svg>
