<svg width="32" height="32" viewBox="0 0 32 32" fill="none" xmlns="http://www.w3.org/2000/svg">
<g clip-path="url(#clip0_1308_1442)">
<path d="M24.7603 7.12781H16.6667H10.6176M8.45801 7.12781H7.18964M10.7415 15.0279L16.3143 31.7463C16.3693 31.9114 16.5114 31.9959 16.6556 32H16.6775C16.8217 31.9959 16.9638 31.9114 17.0188 31.7463L22.5916 15.0279M10.7415 15.0279L16.6665 7.12787L22.5916 15.0279M10.7415 15.0279H22.5916M7.75095 6.74902C6.82948 6.1956 6.05565 5.4206 5.50106 4.49906C4.94524 5.4206 4.17148 6.1956 3.24994 6.74902C4.17203 7.30539 4.94469 8.07805 5.50106 9.00014C6.05665 8.07785 6.82896 7.30511 7.75095 6.74902ZM11.5843 3.10531C10.859 3.54087 10.2499 4.15087 9.81339 4.8762C9.37591 4.15087 8.7669 3.54087 8.04158 3.10531C8.76734 2.6674 9.37548 2.05926 9.81339 1.3335C10.2507 2.05943 10.8586 2.66764 11.5843 3.10531ZM30.1986 6.93129C29.0215 7.63822 28.0329 8.62832 27.3244 9.80555C26.6144 8.62832 25.6259 7.63829 24.4486 6.93129C25.6266 6.22052 26.6136 5.23348 27.3244 4.05554C28.0342 5.23375 29.0208 6.22091 30.1986 6.93129Z" stroke="#0099A3" stroke-miterlimit="10" stroke-linecap="round" stroke-linejoin="round"/>
<path d="M12.3144 27.9067L15.4786 31.4664C15.7921 31.8191 16.2234 31.9969 16.6557 31.9998M1.34388 15.0277C1.38544 15.4241 1.55028 15.7973 1.81517 16.095L10.8417 26.2499M1.34388 15.0277C1.29903 14.6042 1.39739 14.1779 1.62327 13.8168L5.04633 8.33996M1.34388 15.0277H10.7415L6.30464 7.92871M30.717 16.9963L31.5181 16.095C31.783 15.7973 31.9479 15.4241 31.9894 15.0277M31.9894 15.0277H22.5917L26.5395 8.71123M31.9894 15.0277C32.0343 14.6042 31.9358 14.1779 31.71 13.8168L28.3487 8.43887M16.6775 31.9998C17.1098 31.9969 17.5411 31.8191 17.8547 31.4664L29.3064 18.5832" stroke="#0099A3" stroke-miterlimit="10" stroke-linecap="round" stroke-linejoin="round"/>
</g>
<defs>
<clipPath id="clip0_1308_1442">
<rect width="32" height="32" fill="white"/>
</clipPath>
</defs>
</svg>
