<svg width="238" height="476" viewBox="0 0 238 476" fill="none" xmlns="http://www.w3.org/2000/svg">
<g opacity="0.2">
<path fill-rule="evenodd" clip-rule="evenodd" d="M74.2367 238C74.2367 147.556 147.556 74.2367 238 74.2367L238 116.065C170.657 116.065 116.064 170.657 116.064 238C116.064 305.343 170.657 359.936 238 359.936L238 401.763C147.556 401.763 74.2367 328.444 74.2367 238Z" fill="#E5F5F2"/>
<path fill-rule="evenodd" clip-rule="evenodd" d="M-1.04033e-05 238C-4.65772e-06 106.556 106.556 -4.65772e-06 238 -1.04033e-05L238 41.8278C129.657 41.8278 41.8278 129.657 41.8278 238C41.8277 346.343 129.657 434.172 238 434.172L238 476C106.556 476 -1.61489e-05 369.444 -1.04033e-05 238Z" fill="#E5F5F2"/>
<path fill-rule="evenodd" clip-rule="evenodd" d="M145.099 238C145.099 186.692 186.692 145.099 238 145.099L238 186.927C209.793 186.927 186.927 209.793 186.927 238C186.927 266.207 209.793 289.073 238 289.073L238 330.901C186.692 330.901 145.099 289.308 145.099 238Z" fill="#E5F5F2"/>
</g>
</svg>
