<svg width="37" height="35" viewBox="0 0 37 35" fill="none" xmlns="http://www.w3.org/2000/svg">
<path d="M22.0905 22.8156H15.0951C12.0592 22.8156 9.58184 25.2858 9.58184 28.3288V32.1881C9.58184 33.3767 10.5484 34.3361 11.7299 34.3361H25.4414C26.6299 34.3361 27.5894 33.3695 27.5894 32.1881V28.3288C27.6037 25.293 25.1335 22.8156 22.0905 22.8156ZM18.9257 25.0567H18.2598L18.0235 23.818H19.1692L18.9257 25.0567ZM10.5914 32.1881V28.3288C10.5914 25.8443 12.6177 23.818 15.1022 23.818H17.0068L17.329 25.5078L16.9925 26.9899C16.9281 27.262 17.0999 27.5269 17.372 27.5914C17.4078 27.5985 17.4507 27.6057 17.4865 27.6057C17.7157 27.6057 17.9233 27.4482 17.9734 27.219L18.2383 26.0663H18.9687L20.0498 30.8062L18.6035 32.3814L17.1572 30.8062L17.5725 29.009C17.6369 28.737 17.4651 28.472 17.193 28.4076C16.9209 28.3432 16.656 28.515 16.5915 28.7871L16.119 30.842C16.0832 30.9995 16.1261 31.1714 16.2407 31.2931L18.1309 33.348H13.9065V28.5794C13.9065 28.3002 13.6846 28.0782 13.4053 28.0782C13.1261 28.0782 12.9041 28.3002 12.9041 28.5794V33.3337H11.7442C11.1069 33.3337 10.5914 32.8182 10.5914 32.1881ZM26.6013 32.1881C26.6013 32.8182 26.0858 33.3337 25.4557 33.3337H24.2958V28.5794C24.2958 28.3002 24.0738 28.0782 23.7946 28.0782C23.5153 28.0782 23.2934 28.3002 23.2934 28.5794V33.3337H19.0689L20.9592 31.2788C21.0737 31.1571 21.1167 30.9852 21.0809 30.8277L19.8637 25.5078L20.1859 23.818H22.0905C24.575 23.818 26.6013 25.8443 26.6013 28.3288V32.1881ZM18.5964 12.6626C15.8899 12.6626 13.6846 14.8679 13.6846 17.5744C13.6846 20.2809 15.8899 22.4862 18.5964 22.4862C21.3029 22.4862 23.5082 20.2809 23.5082 17.5744C23.5082 14.8679 21.3029 12.6626 18.5964 12.6626ZM18.5964 21.4838C16.4412 21.4838 14.687 19.7296 14.687 17.5744C14.687 15.4193 16.4412 13.665 18.5964 13.665C20.7515 13.665 22.5057 15.4193 22.5057 17.5744C22.5057 19.7296 20.7515 21.4838 18.5964 21.4838ZM19.5486 6.94174C19.5486 6.60522 19.1906 6.31882 18.7754 6.31882H18.3601C17.3935 6.31882 16.6345 5.60281 16.6345 4.69348C16.6345 3.89872 17.2646 3.23283 18.0951 3.09679V2.58843C18.0951 2.30918 18.3171 2.08722 18.5964 2.08722C18.8756 2.08722 19.0976 2.30918 19.0976 2.58843V3.07531H20.1429C20.4222 3.07531 20.6441 3.29727 20.6441 3.57651C20.6441 3.85576 20.4222 4.07772 20.1429 4.07772H18.4174C17.9949 4.07772 17.6441 4.36412 17.6441 4.70064C17.6441 5.05149 17.9519 5.32357 18.3672 5.32357H18.7825C19.7634 5.32357 20.5582 6.0539 20.5582 6.9489C20.5582 7.74367 19.9281 8.40956 19.1047 8.5456V9.06112C19.1047 9.34036 18.8828 9.56232 18.6035 9.56232C18.3243 9.56232 18.1023 9.34036 18.1023 9.06112V8.57424H17.0569C16.7777 8.57424 16.5557 8.35227 16.5557 8.07303C16.5557 7.79379 16.7777 7.57183 17.0569 7.57183H18.7825C19.1978 7.56467 19.5486 7.27827 19.5486 6.94174ZM18.5964 11.3022C21.6179 11.3022 24.081 8.84632 24.081 5.81761C24.081 2.79607 21.6251 0.333008 18.5964 0.333008C15.5748 0.333008 13.1117 2.79607 13.1117 5.81761C13.1117 8.84632 15.5748 11.3022 18.5964 11.3022ZM18.5964 1.34258C21.0666 1.34258 23.0786 3.35455 23.0786 5.82477C23.0786 8.29499 21.0666 10.307 18.5964 10.307C16.1261 10.307 14.1142 8.29499 14.1142 5.82477C14.1142 3.35455 16.1261 1.34258 18.5964 1.34258ZM10.5198 21.4981V13.9801C10.5198 13.7008 10.2978 13.4789 10.0186 13.4789H6.00897C6.23093 12.6483 6.9899 12.0325 7.89206 12.0325C8.17131 12.0325 8.39327 11.8106 8.39327 11.5313C8.39327 11.2521 8.17131 11.0301 7.89206 11.0301C6.83954 11.0301 5.91589 11.5815 5.3932 12.412C4.87052 11.5815 3.94687 11.0301 2.89434 11.0301C2.6151 11.0301 2.39314 11.2521 2.39314 11.5313C2.39314 11.8106 2.6151 12.0325 2.89434 12.0325C3.79651 12.0325 4.55548 12.6483 4.77744 13.4789H0.767806C0.488563 13.4789 0.266602 13.7008 0.266602 13.9801V21.491C0.266602 21.7702 0.488563 21.9922 0.767806 21.9922H10.0186C10.2978 21.9993 10.5198 21.7702 10.5198 21.4981ZM9.5174 14.4813V15.7701H1.26901V14.4813H9.5174ZM1.26901 16.7725H3.74639V20.9898H1.26901V16.7725ZM7.04002 20.9898V19.7726C7.04002 19.4933 6.81806 19.2714 6.53881 19.2714C6.25957 19.2714 6.03761 19.4933 6.03761 19.7726V20.9898H4.7488V16.7725H6.03045V17.9897C6.03045 18.269 6.25241 18.4909 6.53165 18.4909C6.8109 18.4909 7.03286 18.269 7.03286 17.9897V16.7725H9.51024V20.9898H7.04002ZM36.5896 12.4693L32.4582 11.0588C32.3508 11.023 32.2363 11.023 32.136 11.0588L28.0047 12.4693C27.8042 12.5409 27.6681 12.7271 27.6681 12.9419V16.6579C27.6681 16.6794 27.6681 16.7009 27.6753 16.7295C28.0333 19.2928 30.1169 20.7535 32.0429 21.9206C32.1217 21.9707 32.2148 21.9922 32.3007 21.9922C32.3938 21.9922 32.4797 21.9707 32.5585 21.9206C34.4845 20.7535 36.5609 19.2857 36.9261 16.7295C36.9261 16.7081 36.9333 16.6866 36.9333 16.6579V12.9419C36.9261 12.7271 36.7901 12.5338 36.5896 12.4693ZM35.9237 16.6221C35.6516 18.448 34.3342 19.6365 32.2935 20.9039C30.2529 19.6365 28.9355 18.448 28.6634 16.6221V13.2999L32.2935 12.0612L35.9237 13.2999V16.6221ZM32.2219 16.751L34.1623 14.1877C34.327 13.9658 34.642 13.9228 34.864 14.0875C35.086 14.2522 35.1289 14.5672 34.9642 14.7892L32.6945 17.7892C32.6086 17.9038 32.4797 17.9754 32.3437 17.9826H32.2935C32.1718 17.9826 32.0501 17.9396 31.957 17.8537L30.2314 16.2999C30.0238 16.1138 30.0095 15.7987 30.1957 15.5911C30.3818 15.3835 30.6969 15.3691 30.9045 15.5553L32.2219 16.751Z" fill="#0099A3"/>
</svg>
