<svg width="391" height="57" viewBox="0 0 391 57" fill="none" xmlns="http://www.w3.org/2000/svg">
<path d="M130.837 313.109C177.297 341.422 231.906 367.616 282.485 355.735C345.94 340.51 392.581 274.834 390.448 209.061C389.133 178.724 380.673 149.087 365.8 122.715C350.926 96.3431 330.087 74.0287 305.084 57.7023C256.528 25.8937 184.778 -4.81598 126.401 1.35644C106.928 3.44833 88.1186 9.60807 71.1158 19.4608C54.1131 29.3135 39.2728 42.6531 27.4979 58.6682C15.8833 74.8337 7.7877 93.4148 3.75466 113.164C-0.278352 132.912 -0.155354 153.372 4.11542 173.167C15.1244 221.777 51.7337 261.963 91.8318 288.185C103.963 296.095 116.995 304.721 130.837 313.109Z" fill="url(#paint0_linear_1024_21786)"/>
<defs>
<linearGradient id="paint0_linear_1024_21786" x1="59.8009" y1="358.016" x2="412.572" y2="183.23" gradientUnits="userSpaceOnUse">
<stop stop-color="#10566D"/>
<stop offset="1" stop-color="#0099A3"/>
</linearGradient>
</defs>
</svg>
