<svg width="39" height="39" viewBox="0 0 39 39" fill="none" xmlns="http://www.w3.org/2000/svg">
<path d="M19.1667 0.166748C29.7356 0.166748 38.3334 8.76457 38.3334 19.3334C38.3334 29.9023 29.7356 38.5001 19.1667 38.5001C8.59786 38.5001 4.19617e-05 29.9023 4.19617e-05 19.3334C4.19617e-05 8.76457 8.59786 0.166748 19.1667 0.166748ZM13.2458 20.4627L21.2319 28.4487C21.3801 28.5973 21.5561 28.7151 21.7499 28.7954C21.9437 28.8757 22.1514 28.9169 22.3612 28.9167C22.571 28.9169 22.7787 28.8757 22.9725 28.7954C23.1663 28.7151 23.3423 28.5973 23.4904 28.4487C24.1149 27.8242 24.1149 26.8148 23.4904 26.1903L16.6335 19.3334L23.4904 12.4765C24.1149 11.8521 24.1149 10.8426 23.4904 10.2181C22.8659 9.5936 21.8564 9.5936 21.2319 10.2181L13.2458 18.2042C12.6213 18.8287 12.6213 19.8381 13.2458 20.4627Z" fill="#F0F3BD"/>
</svg>
