<svg width="1005" height="252" viewBox="0 0 1005 252" fill="none" xmlns="http://www.w3.org/2000/svg">
<path d="M680.465 426.595C709.075 396.166 744.421 373.344 783.541 360.04C822.662 346.737 864.415 343.341 905.301 350.137C931.19 354.757 957.097 363.552 983.462 362.797C1008.37 361.697 1032.35 353.128 1052.45 338.137C1066.15 328.474 1077.6 315.814 1086 301.043C1099.41 276.791 1101.5 247.565 1098.42 219.773C1088.19 127.998 1019.74 47.5087 935.115 16.6646C850.491 -14.1796 753.584 2.05535 678.374 51.0082C643.86 73.5282 613.308 102.602 576.53 120.991C531.118 143.478 479.221 148.402 430.188 134.875C401.194 126.797 374.113 112.413 345.419 103.244C266.898 78.1529 177.921 95.1075 112.509 145.212C47.0974 195.317 -19.9884 292.616 5.61215 423.748C16.7811 480.851 49.8941 651.382 258.882 657.381C386.861 661.08 537.637 594.021 623.444 497.191C643.46 474.607 659.948 448.791 680.465 426.595Z" fill="url(#paint0_linear_1024_21782)"/>
<defs>
<linearGradient id="paint0_linear_1024_21782" x1="108.824" y1="635.232" x2="921.228" y2="-41.5308" gradientUnits="userSpaceOnUse">
<stop stop-color="#10566D"/>
<stop offset="1" stop-color="#0099A3"/>
</linearGradient>
</defs>
</svg>
