<svg width="39" height="39" viewBox="0 0 39 39" fill="none" xmlns="http://www.w3.org/2000/svg">
<path d="M19.1667 0.166748C8.59782 0.166748 0 8.76457 0 19.3334C0 29.9023 8.59782 38.5001 19.1667 38.5001C29.7355 38.5001 38.3333 29.9023 38.3333 19.3334C38.3333 8.76457 29.7355 0.166748 19.1667 0.166748ZM25.0876 20.4627L17.1015 28.4487C16.9533 28.5973 16.7773 28.7151 16.5835 28.7954C16.3897 28.8757 16.182 28.9169 15.9722 28.9167C15.7624 28.9169 15.5547 28.8757 15.3609 28.7954C15.1671 28.7151 14.9911 28.5973 14.8429 28.4487C14.2184 27.8242 14.2184 26.8148 14.8429 26.1903L21.6999 19.3334L14.843 12.4765C14.2185 11.8521 14.2185 10.8426 14.843 10.2181C15.4675 9.5936 16.477 9.5936 17.1015 10.2181L25.0876 18.2042C25.7121 18.8287 25.7121 19.8381 25.0876 20.4627Z" fill="#F0F3BD"/>
</svg>
