<svg width="40" height="40" viewBox="0 0 40 40" fill="none" xmlns="http://www.w3.org/2000/svg">
<path d="M19.9996 32.0116C29.9843 32.0116 37.8879 20.8371 38.2191 20.3617C38.2929 20.2556 38.3325 20.1294 38.3325 20.0001C38.3325 19.8708 38.2929 19.7446 38.2191 19.6385C37.9435 19.2427 31.3738 9.94078 22.6484 8.24779C22.5669 8.23201 22.4831 8.23245 22.4017 8.24908C22.3204 8.2657 22.2431 8.29819 22.1743 8.34468C22.0353 8.43858 21.9394 8.58383 21.9075 8.74848C21.8757 8.91313 21.9105 9.08368 22.0044 9.22263C22.0983 9.36158 22.2436 9.45754 22.4082 9.4894C29.6872 10.9017 35.6145 18.273 36.9156 20.0001C35.4729 21.9131 28.3533 30.7472 19.9996 30.7472C11.6446 30.7472 4.52499 21.9131 3.08234 20.0001C4.38338 18.273 10.3031 10.9042 17.591 9.4894C17.6725 9.47362 17.7501 9.44195 17.8194 9.39618C17.8887 9.3504 17.9483 9.29143 17.9948 9.22263C18.0413 9.15383 18.0737 9.07655 18.0904 8.99519C18.107 8.91384 18.1074 8.83 18.0917 8.74848C18.0759 8.66695 18.0442 8.58933 17.9984 8.52005C17.9527 8.45077 17.8937 8.39118 17.8249 8.34468C17.7561 8.29819 17.6788 8.2657 17.5974 8.24908C17.5161 8.23245 17.4323 8.23201 17.3507 8.24779C8.62659 9.94204 2.05568 19.2427 1.78004 19.6385C1.70624 19.7446 1.66669 19.8708 1.66669 20.0001C1.66669 20.1294 1.70624 20.2556 1.78004 20.3617C2.11131 20.8371 10.0149 32.0116 19.9996 32.0116Z" fill="#0099A3"/>
<path d="M20 9.25287C20.3492 9.25287 20.6322 8.96984 20.6322 8.62069C20.6322 8.27154 20.3492 7.98851 20 7.98851C19.6509 7.98851 19.3679 8.27154 19.3679 8.62069C19.3679 8.96984 19.6509 9.25287 20 9.25287Z" fill="#0099A3"/>
<path d="M10.5173 20C10.5173 21.8755 11.0734 23.7089 12.1154 25.2683C13.1574 26.8278 14.6384 28.0432 16.3711 28.7609C18.1039 29.4787 20.0106 29.6664 21.85 29.3006C23.6895 28.9347 25.3792 28.0315 26.7054 26.7053C28.0315 25.3791 28.9347 23.6895 29.3006 21.85C29.6665 20.0105 29.4787 18.1039 28.761 16.3711C28.0432 14.6384 26.8278 13.1574 25.2684 12.1154C23.7089 11.0734 21.8755 10.5172 20 10.5172C17.4859 10.5199 15.0754 11.5199 13.2977 13.2976C11.5199 15.0754 10.52 17.4858 10.5173 20ZM20 11.7816C21.6255 11.7816 23.2144 12.2636 24.5659 13.1667C25.9174 14.0697 26.9708 15.3532 27.5928 16.855C28.2149 18.3567 28.3776 20.0091 28.0605 21.6033C27.7434 23.1975 26.9607 24.6619 25.8113 25.8113C24.6619 26.9606 23.1976 27.7434 21.6034 28.0605C20.0091 28.3776 18.3567 28.2148 16.855 27.5928C15.3533 26.9708 14.0697 25.9174 13.1667 24.5659C12.2636 23.2144 11.7816 21.6254 11.7816 20C11.7843 17.8212 12.651 15.7323 14.1917 14.1917C15.7324 12.651 17.8212 11.7843 20 11.7816Z" fill="#0099A3"/>
<path d="M14.9425 23.1609C15.0256 23.1612 15.108 23.145 15.1848 23.1134C15.2616 23.0817 15.3314 23.0351 15.3901 22.9763L18.7356 19.6295L20.8168 21.7107C20.9353 21.8292 21.0961 21.8958 21.2637 21.8958C21.4314 21.8958 21.5921 21.8292 21.7107 21.7107L24.4253 18.9974V20C24.4253 20.1677 24.4919 20.3285 24.6105 20.447C24.729 20.5656 24.8898 20.6322 25.0575 20.6322C25.2251 20.6322 25.3859 20.5656 25.5045 20.447C25.6231 20.3285 25.6897 20.1677 25.6897 20V17.4713C25.689 17.3038 25.6222 17.1434 25.5038 17.025C25.3854 16.9066 25.2249 16.8397 25.0575 16.8391H22.5287C22.3611 16.8391 22.2003 16.9057 22.0817 17.0242C21.9632 17.1428 21.8966 17.3036 21.8966 17.4713C21.8966 17.6389 21.9632 17.7997 22.0817 17.9183C22.2003 18.0368 22.3611 18.1034 22.5287 18.1034H23.5314L21.2644 20.3705L19.1832 18.2893C19.0647 18.1708 18.9039 18.1042 18.7363 18.1042C18.5686 18.1042 18.4079 18.1708 18.2893 18.2893L14.4962 22.0824C14.4081 22.1708 14.3481 22.2833 14.3238 22.4058C14.2995 22.5282 14.3121 22.6551 14.3598 22.7705C14.4075 22.8858 14.4883 22.9844 14.5921 23.0539C14.6958 23.1234 14.8177 23.1606 14.9425 23.1609ZM20 1.66667C19.8323 1.66667 19.6715 1.73327 19.553 1.85183C19.4344 1.97039 19.3678 2.13118 19.3678 2.29885V4.82759C19.3678 4.99525 19.4344 5.15605 19.553 5.27461C19.6715 5.39316 19.8323 5.45977 20 5.45977C20.1677 5.45977 20.3285 5.39316 20.447 5.27461C20.5656 5.15605 20.6322 4.99525 20.6322 4.82759V2.29885C20.6322 2.13118 20.5656 1.97039 20.447 1.85183C20.3285 1.73327 20.1677 1.66667 20 1.66667ZM19.3678 35.1724V37.7011C19.3678 37.8688 19.4344 38.0296 19.553 38.1482C19.6715 38.2667 19.8323 38.3333 20 38.3333C20.1677 38.3333 20.3285 38.2667 20.447 38.1482C20.5656 38.0296 20.6322 37.8688 20.6322 37.7011V35.1724C20.6322 35.0047 20.5656 34.8439 20.447 34.7254C20.3285 34.6068 20.1677 34.5402 20 34.5402C19.8323 34.5402 19.6715 34.6068 19.553 34.7254C19.4344 34.8439 19.3678 35.0047 19.3678 35.1724ZM28.3031 4.35471L27.0387 6.5446C26.9562 6.68972 26.9345 6.86159 26.9782 7.02269C27.022 7.1838 27.1276 7.32107 27.2722 7.40454C27.4168 7.48801 27.5885 7.51091 27.7499 7.46824C27.9113 7.42557 28.0493 7.3208 28.1337 7.17678L29.3981 4.9869C29.4806 4.84177 29.5023 4.6699 29.4586 4.5088C29.4148 4.34769 29.3092 4.21042 29.1646 4.12695C29.02 4.04348 28.8483 4.02058 28.6869 4.06325C28.5255 4.10592 28.3875 4.2107 28.3031 4.35471ZM11.8663 32.8232L10.602 35.0131C10.5181 35.1583 10.4954 35.3309 10.5388 35.4928C10.5822 35.6547 10.6882 35.7928 10.8333 35.8767C10.9293 35.9325 11.0384 35.9618 11.1494 35.9614C11.2604 35.9614 11.3694 35.9322 11.4655 35.8767C11.5616 35.8212 11.6414 35.7414 11.6969 35.6453L12.9613 33.4554C13.0438 33.3103 13.0655 33.1384 13.0218 32.9773C12.9781 32.8162 12.8724 32.6789 12.7278 32.5955C12.5832 32.512 12.4115 32.4891 12.2501 32.5318C12.0887 32.5744 11.9508 32.6792 11.8663 32.8232ZM10.8333 4.12333C10.6882 4.20717 10.5822 4.34525 10.5388 4.5072C10.4954 4.66914 10.5181 4.8417 10.602 4.9869L11.8663 7.17678C11.9508 7.3208 12.0887 7.42557 12.2501 7.46824C12.4115 7.51091 12.5832 7.48801 12.7278 7.40454C12.8724 7.32107 12.9781 7.1838 13.0218 7.02269C13.0655 6.86159 13.0438 6.68972 12.9613 6.5446L11.6969 4.35471C11.6131 4.20952 11.475 4.10357 11.313 4.06018C11.1511 4.01679 10.9785 4.0395 10.8333 4.12333ZM27.2701 32.5918C27.1249 32.6757 27.019 32.8137 26.9756 32.9757C26.9322 33.1376 26.9549 33.3102 27.0387 33.4554L28.3031 35.6453C28.3586 35.7414 28.4384 35.8212 28.5345 35.8767C28.6306 35.9322 28.7396 35.9614 28.8506 35.9614C28.9616 35.9618 29.0707 35.9325 29.1667 35.8767C29.3119 35.7928 29.4178 35.6547 29.4612 35.4928C29.5046 35.3309 29.4819 35.1583 29.3981 35.0131L28.1337 32.8232C28.0925 32.7509 28.0375 32.6876 27.9716 32.6367C27.9058 32.5859 27.8306 32.5487 27.7502 32.5271C27.6699 32.5056 27.5861 32.5003 27.5037 32.5114C27.4213 32.5225 27.3419 32.5498 27.2701 32.5918Z" fill="#0099A3"/>
</svg>
