<svg width="41" height="40" viewBox="0 0 41 40" fill="none" xmlns="http://www.w3.org/2000/svg">
<path d="M11.1768 10.1694V3.8793C11.1768 2.65683 12.1676 1.66602 13.39 1.66602H27.8103C29.0328 1.66602 30.0236 2.65683 30.0236 3.8793V10.1694" stroke="#0099A3" stroke-miterlimit="10" stroke-linecap="round" stroke-linejoin="round"/>
<path d="M14.4969 10.1698V5.28143C14.4969 5.11839 14.6289 4.98633 14.792 4.98633H26.4087C26.5718 4.98633 26.7038 5.11839 26.7038 5.28143V10.1698M37.5386 23.3713V36.8959C37.5386 37.6897 36.8952 38.3331 36.1014 38.3331H5.09927C4.30544 38.3331 3.66211 37.6897 3.66211 36.8959V23.3713" stroke="#0099A3" stroke-miterlimit="10" stroke-linecap="round" stroke-linejoin="round"/>
<path d="M38.9333 15.7455V12.3965C38.9333 11.1666 37.938 10.1699 36.7097 10.1699H4.49021C3.26184 10.1699 2.2666 11.1666 2.2666 12.3965V21.3049C2.2666 22.5348 3.26184 23.5315 4.49021 23.5315H10.6151M30.5848 23.5315H36.7097C37.938 23.5315 38.9333 22.5348 38.9333 21.3049V18.3277M24.5499 23.6562V29.9411H16.65V23.6562M25.5685 29.9411H15.6313" stroke="#0099A3" stroke-miterlimit="10" stroke-linecap="round" stroke-linejoin="round"/>
<path d="M25.4541 24.1694L20.8837 21.5728C20.797 21.5235 20.6989 21.4976 20.5992 21.4976C20.4994 21.4976 20.4014 21.5235 20.3147 21.5728L15.7442 24.1694C15.3603 24.3876 14.8838 24.1103 14.8838 23.6687V22.5251C14.8838 22.4233 14.9108 22.3234 14.962 22.2354C15.0132 22.1475 15.0867 22.0746 15.1752 22.0243L20.3147 19.1045C20.4014 19.0552 20.4994 19.0293 20.5992 19.0293C20.6989 19.0293 20.797 19.0552 20.8837 19.1045L26.0232 22.0243C26.1117 22.0746 26.1852 22.1474 26.2364 22.2354C26.2876 22.3234 26.3146 22.4233 26.3146 22.5251V23.6687C26.3146 24.1103 25.838 24.3876 25.4541 24.1694ZM21.7576 29.9403H19.4407V27.0328C19.4407 26.9545 19.4718 26.8794 19.5271 26.8241C19.5825 26.7687 19.6575 26.7377 19.7358 26.7377H21.4625C21.5408 26.7377 21.6159 26.7687 21.6712 26.8241C21.7266 26.8794 21.7576 26.9545 21.7576 27.0328V29.9403Z" stroke="#0099A3" stroke-miterlimit="10" stroke-linecap="round" stroke-linejoin="round"/>
<path d="M14.7437 16.341C16.3914 15.1542 18.4138 14.4551 20.5995 14.4551C26.1389 14.4551 30.6296 18.9457 30.6296 24.4852C30.6296 30.0247 26.1389 34.5154 20.5995 34.5154C15.06 34.5154 10.5693 30.0248 10.5693 24.4853C10.5693 22.0667 11.4254 19.8481 12.8509 18.1158" stroke="#0099A3" stroke-miterlimit="10" stroke-linecap="round" stroke-linejoin="round"/>
</svg>
