<svg width="151" height="58" viewBox="0 0 151 58" fill="none" xmlns="http://www.w3.org/2000/svg">
<path d="M79.8174 33.9251H75.1569V29.1451L71.4445 29.2248V45.9548H66.7441V25.2415H71.4445V26.0381L74.3364 25.5123C75.305 25.3191 76.2886 25.2098 77.2761 25.1857C78.9809 25.1857 79.8413 26.0302 79.8413 27.7111L79.8174 33.9251Z" fill="white"/>
<path d="M95.8146 45.9867H91.3214V45.2697L88.1347 45.7636C87.0808 45.9395 86.0161 46.0433 84.9481 46.0743C83.2379 46.0743 82.3828 45.2325 82.3828 43.5489V36.0762C82.3828 34.3713 83.2591 33.5189 85.0277 33.5189H91.4011V28.7389H86.9079V31.6945H82.6616V27.8307C82.6616 26.1258 83.538 25.2654 85.3066 25.2654H93.2732C95.01 25.2654 95.8783 26.1258 95.8783 27.8307L95.8146 45.9867ZM91.3692 42.2424V36.6657H86.876V42.3858L91.3692 42.2424Z" fill="white"/>
<path d="M113.016 41.828C113.048 42.3905 112.96 42.9533 112.758 43.4793C112.556 44.0053 112.245 44.4824 111.845 44.8793C110.991 45.646 109.868 46.044 108.722 45.9866H99.1621V13.881H103.862V26.0302C104.954 25.8629 106.045 25.6956 107.145 25.5123C108.229 25.3236 109.326 25.2144 110.427 25.1857C112.132 25.1857 112.992 26.0302 112.992 27.7111L113.016 41.828ZM108.292 40.5295V29.185L103.886 29.2646V42.0909H106.794C107.798 42.0909 108.292 41.5731 108.292 40.5295Z" fill="white"/>
<path d="M132.628 39.94C132.673 40.7566 132.545 41.5735 132.254 42.3378C131.963 43.1022 131.515 43.797 130.939 44.3774C130.326 44.9287 129.61 45.3533 128.832 45.6268C128.054 45.9002 127.229 46.0171 126.406 45.9707H116.623V13.881H126.406C127.232 13.8373 128.059 13.9593 128.838 14.2397C129.616 14.5202 130.331 14.9535 130.939 15.5142C131.515 16.0997 131.963 16.7988 132.254 17.5669C132.544 18.3351 132.672 19.1554 132.628 19.9755V39.94ZM127.8 39.1433V20.7324C127.8 18.9425 126.866 18.0476 124.996 18.0476H121.419V41.9476H124.869C126.828 41.8679 127.8 40.9597 127.8 39.1353V39.1433Z" fill="white"/>
<path d="M150.292 18.1272H144.994V46.0105H140.214V18.1272H134.924V13.881H150.292V18.1272Z" fill="white"/>
<path d="M60.697 46.3531C60.668 47.0689 60.4487 47.764 60.0618 48.3669C59.6749 48.9698 59.1343 49.4587 58.4957 49.7832C57.8571 50.1078 57.1435 50.2563 56.4285 50.2136C55.7134 50.1708 55.0226 49.9382 54.4273 49.5398C53.938 49.1963 53.5323 48.747 53.2402 48.2253L52.9375 47.7075L31.8657 11.738L30.9416 10.1447C30.7727 9.60691 30.7157 9.04025 30.7743 8.47964C30.8459 7.68212 31.1441 6.92173 31.6338 6.28814C32.1234 5.65455 32.784 5.17418 33.5376 4.9037C34.2913 4.63322 35.1066 4.5839 35.8874 4.76156C36.6681 4.93923 37.3818 5.33646 37.9443 5.90641C38.0399 5.99404 38.1275 6.09761 38.2231 6.20118L38.8764 7.42804L60.0119 43.9631C60.0157 43.9762 60.0157 43.99 60.0119 44.003L60.2589 44.4252C60.5624 45.0216 60.7129 45.6841 60.697 46.3531Z" fill="white"/>
<path d="M6.80359 49.7071C6.23708 50.0561 5.58765 50.2475 4.92241 50.2615C4.25717 50.2755 3.60027 50.1116 3.01957 49.7868C2.43888 49.4619 1.95548 48.9879 1.61932 48.4136C1.28316 47.8394 1.10644 47.1858 1.10743 46.5204C1.12233 45.9647 1.26402 45.4197 1.52169 44.9271L1.76069 44.4332L4.57292 36.8808L5.36959 35.3432C5.69692 34.9385 6.10359 34.605 6.56459 34.3633C7.35106 33.9572 8.25203 33.8299 9.12025 34.0021C9.98848 34.1743 10.7726 34.6358 11.3446 35.3114C11.7125 35.7588 11.9752 36.2832 12.1131 36.8458C12.251 37.4085 12.2606 37.9949 12.1412 38.5618C12.1196 38.6882 12.0903 38.8133 12.0536 38.9362L11.472 40.1073L8.28539 47.9624C8.28539 47.9624 8.28539 47.9624 8.28539 48.0022L8.08622 48.4085C8.08622 48.4085 8.08622 48.4085 8.08622 48.4484C7.76402 48.9633 7.32449 49.3947 6.80359 49.7071Z" fill="white"/>
<path d="M37.5859 5.4045C37.1412 4.96134 36.6021 4.6244 36.0089 4.41886C35.4157 4.21331 34.7837 4.14446 34.1602 4.21747C33.3668 4.31104 32.616 4.62694 31.9944 5.12874C31.3728 5.63054 30.9057 6.2978 30.6469 7.0536C30.5555 7.35042 30.4437 7.64057 30.3123 7.92197C30.2147 8.12041 30.0915 8.30521 29.9458 8.47167L27.4602 12.7657L20.3301 8.6549L23.3733 3.38097C24.1234 2.3349 25.1119 1.48259 26.2569 0.894635C27.402 0.306679 28.6706 0 29.9578 0C31.245 0 32.5136 0.306679 33.6587 0.894635C34.8037 1.48259 35.7922 2.3349 36.5422 3.38097L37.3389 4.7592C37.4425 4.99023 37.5142 5.19737 37.5859 5.4045Z" fill="white"/>
<path d="M62.1404 49.4123C62.1404 49.5318 62.1404 49.6513 62.1404 49.7708C62.1404 49.8903 62.1404 49.8744 62.1404 49.9381C62.0927 51.4846 61.6364 52.9908 60.8179 54.3038L60.6586 54.5269L60.4674 54.7898C60.4674 54.7898 60.4674 54.7898 60.4275 54.8376C60.3877 54.8854 60.2921 54.9969 60.2284 55.0846C59.7751 55.6189 59.2527 56.0904 58.6749 56.4867L58.5155 56.5982C58.2447 56.7655 57.9738 56.9249 57.7189 57.0683L57.44 57.1957L57.1612 57.3073L56.8585 57.4268C56.6547 57.4988 56.4473 57.5599 56.2371 57.61H56.1176L55.9025 57.6578C55.6475 57.7136 55.3926 57.7534 55.1058 57.7853H54.8828H54.6517H54.1817C53.0654 57.7892 51.9607 57.5585 50.9393 57.1081L49.3937 56.3831L14.0457 36.0203L10.7395 34.1243L10.5483 34.0127C9.60961 33.5081 8.51832 33.3656 7.48152 33.6123C6.44473 33.859 5.53459 34.4778 4.92383 35.3511L6.51716 32.5867C6.5255 32.558 6.539 32.531 6.55699 32.507L6.90753 31.8856L7.31383 31.1766C8.45279 29.5992 10.1247 28.4879 12.0201 28.0485C13.9154 27.6091 15.9058 27.8713 17.6227 28.7866L18.0529 29.0415L18.1326 29.0814L51.4252 48.1217L53.3054 49.1972C53.4567 49.2928 54.2853 49.8425 55.0261 50.2329C55.1612 50.313 55.3024 50.3823 55.4484 50.44C55.5782 50.4956 55.7112 50.5435 55.8467 50.5834L55.9821 50.6232C56.3529 50.7269 56.7364 50.7778 57.1214 50.7746C58.1207 50.7825 59.0911 50.439 59.8629 49.8041C60.6347 49.1692 61.1588 48.2833 61.3437 47.3011C61.3475 47.2348 61.3475 47.1683 61.3437 47.102C61.3437 47.0462 61.3437 46.9984 61.3437 46.9506C61.3553 46.7862 61.3553 46.6211 61.3437 46.4567C61.3556 46.2843 61.3556 46.1112 61.3437 45.9388V46.0105C61.8577 47.0715 62.1298 48.2334 62.1404 49.4123Z" fill="white"/>
<path d="M29.9865 46.4647L12.7865 56.3672L11.3127 57.2197C10.2909 57.6689 9.18645 57.8996 8.07026 57.8968H7.57632H7.34529H7.12222C6.85424 57.8712 6.58815 57.8286 6.32556 57.7694L6.11046 57.7216H5.99096C5.78382 57.6631 5.57669 57.5994 5.36956 57.5304L5.05886 57.379C4.96307 57.331 4.86999 57.2778 4.78003 57.2197L4.50119 57.0922C4.22731 56.9501 3.96136 56.7932 3.70453 56.6222L3.54519 56.5106C2.96738 56.1143 2.44495 55.6428 1.99169 55.1085C1.92796 55.0209 1.85626 54.9412 1.80049 54.8695C1.78022 54.8551 1.76381 54.836 1.75269 54.8137L1.56149 54.5508L1.40216 54.3278C0.552905 53.0182 0.0688467 51.5055 2.93538e-05 49.9461C2.93538e-05 49.8903 2.93538e-05 49.8346 2.93538e-05 49.7788C2.93538e-05 49.723 2.93538e-05 49.5398 2.93538e-05 49.4203C-0.00315357 48.2477 0.252552 47.0889 0.748895 46.0265L0.796695 45.9389C0.784564 46.1113 0.784564 46.2843 0.796695 46.4567C0.784831 46.6185 0.784831 46.7809 0.796695 46.9427C0.796695 47.0223 0.796695 47.0223 0.796695 47.094C0.805383 47.1639 0.81869 47.2331 0.836529 47.3012C1.02019 48.2766 1.5385 49.1573 2.30205 49.7914C3.06559 50.4255 4.0265 50.7732 5.01902 50.7746C5.40399 50.7779 5.7875 50.7269 6.15826 50.6233L6.28572 50.5834C6.42424 50.5449 6.55998 50.497 6.69202 50.44C6.85796 50.3775 7.01794 50.3002 7.17002 50.209C7.91092 49.8186 8.76336 49.2689 8.89082 49.1733L10.763 48.0978L21.9163 41.7245L29.9865 46.4647Z" fill="white"/>
<path d="M26.8468 13.9251L19.7129 9.80629L15.5941 16.9402L22.728 21.059L26.8468 13.9251Z" fill="white"/>
<path d="M28.7546 20.56L25.7051 18.7994L23.9444 21.8489L26.9939 23.6095L28.7546 20.56Z" fill="white"/>
<path d="M23.7635 23.023L19.2168 20.4099L16.6037 24.9567L21.1505 27.5697L23.7635 23.023Z" fill="white"/>
</svg>
