<svg width="41" height="40" viewBox="0 0 41 40" fill="none" xmlns="http://www.w3.org/2000/svg">
<path d="M11.1768 10.1704V3.88027C11.1768 2.6578 12.1676 1.66699 13.39 1.66699H27.8103C29.0328 1.66699 30.0236 2.6578 30.0236 3.88027V10.1704" stroke="#0099A3" stroke-miterlimit="10" stroke-linecap="round" stroke-linejoin="round"/>
<path d="M14.4969 10.1708V5.28241C14.4969 5.11936 14.6289 4.9873 14.792 4.9873H26.4087C26.5718 4.9873 26.7038 5.11936 26.7038 5.28241V10.1708M37.5386 23.3723V36.8969C37.5386 37.6907 36.8952 38.3341 36.1014 38.3341H5.09927C4.30544 38.3341 3.66211 37.6907 3.66211 36.8969V23.3723" stroke="#0099A3" stroke-miterlimit="10" stroke-linecap="round" stroke-linejoin="round"/>
<path d="M38.9333 15.7465V12.3975C38.9333 11.1676 37.938 10.1709 36.7097 10.1709H4.49021C3.26184 10.1709 2.2666 11.1676 2.2666 12.3975V21.3059C2.2666 22.5358 3.26184 23.5325 4.49021 23.5325H10.6151M30.5848 23.5325H36.7097C37.938 23.5325 38.9333 22.5358 38.9333 21.3059V18.3287M24.5499 23.6571V29.9421H16.65V23.6571M25.5685 29.9421H15.6313" stroke="#0099A3" stroke-miterlimit="10" stroke-linecap="round" stroke-linejoin="round"/>
<path d="M25.4541 24.1704L20.8837 21.5738C20.797 21.5245 20.6989 21.4986 20.5992 21.4986C20.4994 21.4986 20.4014 21.5245 20.3147 21.5738L15.7442 24.1704C15.3603 24.3886 14.8838 24.1112 14.8838 23.6696V22.5261C14.8838 22.4243 14.9108 22.3244 14.962 22.2364C15.0132 22.1484 15.0867 22.0756 15.1752 22.0253L20.3147 19.1055C20.4014 19.0562 20.4994 19.0303 20.5992 19.0303C20.6989 19.0303 20.797 19.0562 20.8837 19.1055L26.0232 22.0253C26.1117 22.0756 26.1852 22.1484 26.2364 22.2364C26.2876 22.3244 26.3146 22.4243 26.3146 22.5261V23.6696C26.3146 24.1112 25.838 24.3886 25.4541 24.1704ZM21.7576 29.9413H19.4407V27.0337C19.4407 26.9555 19.4718 26.8804 19.5271 26.8251C19.5825 26.7697 19.6575 26.7386 19.7358 26.7386H21.4625C21.5408 26.7386 21.6159 26.7697 21.6712 26.8251C21.7266 26.8804 21.7576 26.9555 21.7576 27.0337V29.9413Z" stroke="#0099A3" stroke-miterlimit="10" stroke-linecap="round" stroke-linejoin="round"/>
<path d="M14.7437 16.342C16.3914 15.1552 18.4138 14.4561 20.5995 14.4561C26.1389 14.4561 30.6296 18.9467 30.6296 24.4862C30.6296 30.0257 26.1389 34.5164 20.5995 34.5164C15.06 34.5164 10.5693 30.0257 10.5693 24.4863C10.5693 22.0677 11.4254 19.8491 12.8509 18.1168" stroke="#0099A3" stroke-miterlimit="10" stroke-linecap="round" stroke-linejoin="round"/>
</svg>
